<svg width="5371" height="3529" viewBox="0 0 5371 3529" fill="none" xmlns="http://www.w3.org/2000/svg">
<g clip-path="url(#clip0_2108_1136)">
<rect width="5371" height="3529" fill="#EAF0FF"/>
<g filter="url(#filter0_f_2108_1136)">
<ellipse cx="3708" cy="2385" rx="2062" ry="1577" fill="url(#paint0_linear_2108_1136)" fill-opacity="0.5"/>
</g>
<rect y="589" width="2099" height="6141" fill="url(#paint1_linear_2108_1136)"/>
</g>
<path d="M2570.83 2547.92H941.191C928.417 2547.9 916.172 2542.81 907.14 2533.78C898.107 2524.75 893.022 2512.5 893 2499.73V208.912C893.133 196.211 898.267 184.074 907.287 175.132C916.308 166.191 928.49 161.164 941.191 161.143H2570.83C2583.6 161.165 2595.84 166.252 2604.86 175.287C2613.88 184.323 2618.94 196.567 2618.94 209.334V2499.73C2618.94 2512.5 2613.88 2524.74 2604.86 2533.78C2595.84 2542.81 2583.6 2547.9 2570.83 2547.92ZM941.191 162.831C928.977 162.853 917.269 167.715 908.632 176.352C899.994 184.989 895.132 196.697 895.11 208.912V2499.73C895.132 2511.94 899.994 2523.65 908.632 2532.29C917.269 2540.93 928.977 2545.79 941.191 2545.81H2570.83C2583.04 2545.79 2594.74 2540.92 2603.36 2532.28C2611.99 2523.65 2616.83 2511.94 2616.83 2499.73V208.912C2616.83 196.705 2611.99 184.997 2603.36 176.357C2594.74 167.718 2583.04 162.853 2570.83 162.831H941.191Z" fill="#E6E6E6"/>
<path d="M4396.36 2547.92H2766.64C2753.87 2547.9 2741.63 2542.81 2732.62 2533.78C2723.6 2524.74 2718.53 2512.5 2718.53 2499.73V208.912C2718.64 196.219 2723.76 184.082 2732.76 175.138C2741.77 166.193 2753.94 161.164 2766.64 161.143H4396.36C4409.06 161.164 4421.23 166.193 4430.24 175.138C4439.25 184.082 4444.36 196.219 4444.47 208.912V2499.73C4444.47 2512.5 4439.41 2524.74 4430.39 2533.78C4421.37 2542.81 4409.13 2547.9 4396.36 2547.92ZM2766.64 162.831C2754.43 162.853 2742.73 167.718 2734.11 176.357C2725.48 184.997 2720.64 196.705 2720.64 208.912V2499.73C2720.64 2511.94 2725.48 2523.65 2734.11 2532.28C2742.73 2540.92 2754.43 2545.79 2766.64 2545.81H4396.36C4408.59 2545.79 4420.3 2540.93 4428.95 2532.3C4437.6 2523.66 4442.49 2511.95 4442.53 2499.73V208.912C4442.49 196.689 4437.6 184.982 4428.95 176.347C4420.3 167.712 4408.59 162.853 4396.36 162.831H2766.64Z" fill="#E6E6E6"/>
<path d="M2312.15 1332L2300.59 2324.01C2259.74 2654.09 1674.61 2916.15 1674.61 2916.15C1674.61 2916.15 1089.39 2654.35 1048.29 2324.01L1036.39 1332L1661.78 1126.15L2312.15 1332Z" fill="#F5F5F5"/>
<path d="M2230.54 1394.79L2220.5 2285.53C2184.88 2573.41 1674.53 2801.96 1674.53 2801.96C1674.53 2801.96 1164.17 2573.41 1128.64 2285.53L1117.92 1394.79L1663.39 1215.28L2230.54 1394.79Z" fill="#E0E0E0"/>
<path d="M2194.76 1451L2185.3 2268.73C2151.54 2538.81 1673.43 2752.84 1673.43 2752.84C1673.43 2752.84 1194.98 2538.55 1161.64 2268.73L1151.6 1451L1662.96 1282.71L2194.76 1451Z" stroke="white" stroke-width="3" stroke-linecap="round" stroke-linejoin="round"/>
<path d="M4275 997.191H3149.3V2972.44H4275V997.191Z" fill="#F5F5F5"/>
<path d="M4193.39 1074.84H3232.51V2972.44H4193.39V1074.84Z" fill="#E0E0E0"/>
<path d="M3259.52 2980.88C3257.84 2980.89 3256.17 2980.55 3254.63 2979.87C3253.1 2979.26 3251.72 2978.34 3250.58 2977.17C3249.35 2976.02 3248.4 2974.6 3247.79 2973.03C3247.18 2971.5 3246.87 2969.87 3246.86 2968.22C3246.86 2966.35 3247.28 2964.51 3248.08 2962.82C3248.88 2961.13 3250.04 2959.64 3251.49 2958.45C3252.93 2957.27 3254.62 2956.42 3256.43 2955.96C3258.25 2955.5 3260.14 2955.46 3261.97 2955.82L3264.33 2956.49L3266.53 2957.67C3267.21 2958.16 3267.86 2958.7 3268.47 2959.28C3269.07 2959.85 3269.58 2960.5 3269.99 2961.22C3270.48 2961.89 3270.88 2962.63 3271.17 2963.41C3271.51 2964.17 3271.77 2964.96 3271.93 2965.78C3272.02 2966.59 3272.02 2967.41 3271.93 2968.22C3271.94 2969.88 3271.59 2971.52 3270.92 2973.03C3270.31 2974.58 3269.39 2975.99 3268.22 2977.17C3265.9 2979.47 3262.79 2980.8 3259.52 2980.88Z" fill="white"/>
<path d="M3246.69 2657.3C3246.7 2655.63 3247.05 2653.98 3247.7 2652.44C3248.35 2650.91 3249.3 2649.51 3250.49 2648.34C3251.68 2647.18 3253.1 2646.25 3254.65 2645.63C3256.2 2645.01 3257.85 2644.7 3259.52 2644.73C3262.88 2644.73 3266.1 2646.06 3268.47 2648.43C3270.85 2650.81 3272.18 2654.03 3272.18 2657.39C3272.18 2660.74 3270.85 2663.96 3268.47 2666.34C3266.1 2668.71 3262.88 2670.05 3259.52 2670.05C3257.84 2670.07 3256.17 2669.75 3254.61 2669.12C3253.05 2668.49 3251.63 2667.56 3250.43 2666.37C3249.24 2665.18 3248.29 2663.77 3247.65 2662.21C3247.01 2660.66 3246.68 2658.99 3246.69 2657.3ZM3246.69 2346.46C3246.69 2343.11 3248.03 2339.89 3250.4 2337.51C3252.78 2335.14 3256 2333.8 3259.35 2333.8C3262.71 2333.8 3265.93 2335.14 3268.31 2337.51C3270.68 2339.89 3272.01 2343.11 3272.01 2346.46C3272.01 2349.82 3270.68 2353.04 3268.31 2355.42C3265.93 2357.79 3262.71 2359.12 3259.35 2359.12C3256 2359.12 3252.78 2357.79 3250.4 2355.42C3248.03 2353.04 3246.69 2349.82 3246.69 2346.46ZM3246.69 2035.54C3246.69 2032.18 3248.03 2028.96 3250.4 2026.59C3252.78 2024.21 3256 2022.88 3259.35 2022.88C3262.71 2022.88 3265.93 2024.21 3268.31 2026.59C3270.68 2028.96 3272.01 2032.18 3272.01 2035.54C3272.01 2038.9 3270.68 2042.12 3268.31 2044.49C3265.93 2046.87 3262.71 2048.2 3259.35 2048.2C3257.69 2048.2 3256.04 2047.87 3254.51 2047.24C3252.97 2046.6 3251.58 2045.67 3250.4 2044.49C3249.23 2043.32 3248.29 2041.92 3247.66 2040.39C3247.02 2038.85 3246.69 2037.2 3246.69 2035.54ZM3246.69 1724.62C3246.69 1721.26 3248.03 1718.04 3250.4 1715.67C3252.78 1713.29 3256 1711.96 3259.35 1711.96C3262.71 1711.96 3265.93 1713.29 3268.31 1715.67C3270.68 1718.04 3272.01 1721.26 3272.01 1724.62C3272.01 1727.98 3270.68 1731.2 3268.31 1733.57C3265.93 1735.94 3262.71 1737.28 3259.35 1737.28C3256.03 1737.28 3252.83 1735.97 3250.46 1733.63C3248.09 1731.29 3246.74 1728.12 3246.69 1724.79V1724.62ZM3246.69 1413.78C3246.69 1410.42 3248.03 1407.2 3250.4 1404.83C3252.78 1402.45 3256 1401.12 3259.35 1401.12C3262.71 1401.12 3265.93 1402.45 3268.31 1404.83C3270.68 1407.2 3272.01 1410.42 3272.01 1413.78C3272.01 1417.14 3270.68 1420.36 3268.31 1422.73C3265.93 1425.11 3262.71 1426.44 3259.35 1426.44C3257.69 1426.44 3256.04 1426.11 3254.51 1425.48C3252.97 1424.84 3251.58 1423.91 3250.4 1422.73C3249.23 1421.56 3248.29 1420.16 3247.66 1418.62C3247.02 1417.09 3246.69 1415.44 3246.69 1413.78Z" fill="white"/>
<path d="M3259.52 1115.52C3257.86 1115.52 3256.21 1115.2 3254.67 1114.56C3253.14 1113.92 3251.75 1112.99 3250.58 1111.8C3249.95 1111.24 3249.41 1110.58 3248.97 1109.86C3248.53 1109.19 3248.13 1108.48 3247.79 1107.75C3247.44 1106.98 3247.22 1106.15 3247.12 1105.3C3247.03 1104.49 3247.03 1103.67 3247.12 1102.86C3247.14 1099.5 3248.47 1096.29 3250.83 1093.91C3251.39 1093.31 3252.01 1092.77 3252.69 1092.31C3253.37 1091.86 3254.11 1091.49 3254.88 1091.21C3255.64 1090.88 3256.43 1090.63 3257.24 1090.45C3258.89 1090.11 3260.58 1090.11 3262.22 1090.45C3263.03 1090.63 3263.83 1090.88 3264.59 1091.21C3265.36 1091.49 3266.09 1091.86 3266.78 1092.31C3267.46 1092.8 3268.11 1093.33 3268.72 1093.91C3271.08 1096.29 3272.41 1099.5 3272.44 1102.86C3272.52 1103.67 3272.52 1104.49 3272.44 1105.3C3272.26 1106.14 3272.01 1106.96 3271.68 1107.75C3271.37 1108.5 3270.97 1109.21 3270.49 1109.86C3270.09 1110.58 3269.57 1111.23 3268.98 1111.8C3267.74 1113.03 3266.26 1114 3264.63 1114.64C3263.01 1115.27 3261.27 1115.57 3259.52 1115.52Z" fill="white"/>
<path d="M3849.3 1102.86C3849.3 1099.5 3850.63 1096.28 3853 1093.91C3855.38 1091.53 3858.6 1090.2 3861.96 1090.2C3865.31 1090.2 3868.53 1091.53 3870.91 1093.91C3873.28 1096.28 3874.62 1099.5 3874.62 1102.86C3874.62 1106.21 3873.28 1109.43 3870.91 1111.81C3868.53 1114.18 3865.31 1115.52 3861.96 1115.52C3858.6 1115.52 3855.38 1114.18 3853 1111.81C3850.63 1109.43 3849.3 1106.21 3849.3 1102.86ZM3548 1102.86C3548 1099.5 3549.33 1096.28 3551.7 1093.91C3554.08 1091.53 3557.3 1090.2 3560.65 1090.2C3564.01 1090.2 3567.23 1091.53 3569.61 1093.91C3571.98 1096.28 3573.31 1099.5 3573.31 1102.86C3573.31 1106.21 3571.98 1109.43 3569.61 1111.81C3567.23 1114.18 3564.01 1115.52 3560.65 1115.52C3557.3 1115.52 3554.08 1114.18 3551.7 1111.81C3549.33 1109.43 3548 1106.21 3548 1102.86Z" fill="white"/>
<path d="M4163.26 1115.52C4162.44 1115.6 4161.62 1115.6 4160.81 1115.52L4158.45 1114.84L4156.25 1113.66C4155.57 1113.17 4154.92 1112.64 4154.31 1112.06C4151.94 1109.68 4150.6 1106.47 4150.6 1103.11C4150.62 1099.76 4151.95 1096.55 4154.31 1094.16C4154.9 1093.59 4155.55 1093.08 4156.25 1092.64C4156.92 1092.14 4157.66 1091.74 4158.45 1091.46C4159.2 1091.12 4160 1090.87 4160.81 1090.7C4162.45 1090.37 4164.15 1090.37 4165.79 1090.7L4168.15 1091.46C4168.91 1091.74 4169.63 1092.14 4170.26 1092.64C4170.98 1093.05 4171.63 1093.57 4172.2 1094.16C4174.56 1096.55 4175.9 1099.76 4175.92 1103.11C4175.91 1106.47 4174.58 1109.68 4172.2 1112.06C4171.61 1112.66 4170.96 1113.19 4170.26 1113.66C4169.59 1114.1 4168.88 1114.5 4168.15 1114.84L4165.79 1115.52C4164.95 1115.6 4164.1 1115.6 4163.26 1115.52Z" fill="white"/>
<path d="M4150.6 2657.3C4150.6 2653.94 4151.93 2650.72 4154.31 2648.35C4156.68 2645.98 4159.9 2644.64 4163.26 2644.64C4166.61 2644.64 4169.83 2645.98 4172.21 2648.35C4174.58 2650.72 4175.92 2653.94 4175.92 2657.3C4175.92 2660.66 4174.58 2663.88 4172.21 2666.25C4169.83 2668.63 4166.61 2669.96 4163.26 2669.96C4159.9 2669.96 4156.68 2668.63 4154.31 2666.25C4151.93 2663.88 4150.6 2660.66 4150.6 2657.3ZM4150.6 2346.46C4150.6 2343.11 4151.93 2339.89 4154.31 2337.51C4156.68 2335.14 4159.9 2333.8 4163.26 2333.8C4166.61 2333.8 4169.83 2335.14 4172.21 2337.51C4174.58 2339.89 4175.92 2343.11 4175.92 2346.46C4175.92 2349.82 4174.58 2353.04 4172.21 2355.42C4169.83 2357.79 4166.61 2359.12 4163.26 2359.12C4159.9 2359.12 4156.68 2357.79 4154.31 2355.42C4151.93 2353.04 4150.6 2349.82 4150.6 2346.46ZM4150.6 2035.54C4150.6 2032.18 4151.93 2028.96 4154.31 2026.59C4156.68 2024.21 4159.9 2022.88 4163.26 2022.88C4166.61 2022.88 4169.83 2024.21 4172.21 2026.59C4174.58 2028.96 4175.92 2032.18 4175.92 2035.54C4175.92 2038.9 4174.58 2042.12 4172.21 2044.49C4169.83 2046.87 4166.61 2048.2 4163.26 2048.2C4161.59 2048.2 4159.95 2047.87 4158.41 2047.24C4156.88 2046.6 4155.48 2045.67 4154.31 2044.49C4153.13 2043.32 4152.2 2041.92 4151.56 2040.39C4150.93 2038.85 4150.6 2037.2 4150.6 2035.54ZM4150.6 1724.62C4150.6 1721.26 4151.93 1718.04 4154.31 1715.67C4156.68 1713.29 4159.9 1711.96 4163.26 1711.96C4166.61 1711.96 4169.83 1713.29 4172.21 1715.67C4174.58 1718.04 4175.92 1721.26 4175.92 1724.62C4175.92 1727.98 4174.58 1731.2 4172.21 1733.57C4169.83 1735.94 4166.61 1737.28 4163.26 1737.28C4159.93 1737.28 4156.73 1735.97 4154.36 1733.63C4152 1731.29 4150.64 1728.12 4150.6 1724.79V1724.62ZM4150.6 1413.78C4150.6 1410.42 4151.93 1407.2 4154.31 1404.83C4156.68 1402.45 4159.9 1401.12 4163.26 1401.12C4166.61 1401.12 4169.83 1402.45 4172.21 1404.83C4174.58 1407.2 4175.92 1410.42 4175.92 1413.78C4175.92 1417.14 4174.58 1420.36 4172.21 1422.73C4169.83 1425.11 4166.61 1426.44 4163.26 1426.44C4161.59 1426.44 4159.95 1426.11 4158.41 1425.48C4156.88 1424.84 4155.48 1423.91 4154.31 1422.73C4153.13 1421.56 4152.2 1420.16 4151.56 1418.62C4150.93 1417.09 4150.6 1415.44 4150.6 1413.78Z" fill="white"/>
<path d="M4163.26 2980.88C4160.76 2980.88 4158.31 2980.14 4156.23 2978.75C4154.15 2977.36 4152.53 2975.38 4151.57 2973.07C4150.61 2970.76 4150.36 2968.21 4150.85 2965.76C4151.34 2963.3 4152.54 2961.05 4154.31 2959.28C4154.92 2958.7 4155.57 2958.16 4156.25 2957.67L4158.45 2956.49L4160.81 2955.82C4162.45 2955.48 4164.15 2955.48 4165.79 2955.82L4168.15 2956.49C4168.88 2956.84 4169.59 2957.23 4170.26 2957.67C4170.96 2958.14 4171.61 2958.68 4172.2 2959.28C4174.58 2961.65 4175.91 2964.87 4175.92 2968.22C4175.93 2969.89 4175.61 2971.54 4174.98 2973.08C4174.34 2974.62 4173.39 2976.01 4172.2 2977.17C4169.83 2979.55 4166.61 2980.88 4163.26 2980.88Z" fill="white"/>
<path d="M1360.57 2975.65H1012.76V2977.76H1360.57V2975.65Z" fill="#E0E0E0"/>
<path d="M2069.51 2958.77H1720.69V2960.88H2069.51V2958.77Z" fill="#E0E0E0"/>
<path d="M2523.4 2958.77H2439V2960.88H2523.4V2958.77Z" fill="#E0E0E0"/>
<path d="M1679.84 3030.85H1289.5V3032.96H1679.84V3030.85Z" fill="#E0E0E0"/>
<path d="M3029.96 2974.55H2847.66V2976.66H3029.96V2974.55Z" fill="#E0E0E0"/>
<path d="M3340.8 2974.55H3105.07V2976.66H3340.8V2974.55Z" fill="#E0E0E0"/>
<path d="M4477.64 3010.25H3950.66V3012.36H4477.64V3010.25Z" fill="#E0E0E0"/>
<path d="M2528.72 405.222H2139.9L2161.17 162.915H2549.9L2528.72 405.222Z" fill="#EBEBEB"/>
<path d="M2536.57 130L2525.93 256.513L2515.3 408.598H2141.42L2162.68 130H2536.57Z" fill="#FAFAFA"/>
<path d="M2500.87 162.916L2522.05 405.223H2133.31L2112.05 162.916H2145.13L2156.61 144.686H2261.35L2276.37 162.916H2500.87Z" fill="#E0E0E0"/>
<path d="M3131.32 459.321H2717.6V873.041H3131.32V459.321Z" fill="#EBEBEB"/>
<path d="M3141.87 459.321H3131.32V873.041H3141.87V459.321Z" fill="#E0E0E0"/>
<path d="M3093 497.639H2755.75V834.894H3093V497.639Z" fill="#F5F5F5"/>
<path d="M2758.96 497.639H2755.83V834.894H2758.96V497.639Z" fill="#E0E0E0"/>
<path d="M2927.58 714.962C2963.9 714.962 2993.33 677.478 2993.33 631.24C2993.33 585.001 2963.9 547.517 2927.58 547.517C2891.27 547.517 2861.84 585.001 2861.84 631.24C2861.84 677.478 2891.27 714.962 2927.58 714.962Z" fill="#E0E0E0"/>
<path d="M2893.23 757.331H2962.53V688.04H2893.23V757.331Z" fill="#E0E0E0"/>
<path d="M3052.49 834.894H2798.62V811.262C2798.62 789.684 2807.2 768.99 2822.45 753.732C2837.71 738.474 2858.41 729.902 2879.98 729.902H2971.47C2993.05 729.902 3013.74 738.474 3029 753.732C3044.26 768.99 3052.83 789.684 3052.83 811.262V834.894H3052.49Z" fill="#E0E0E0"/>
<path d="M2792.29 694.117C2792.29 707.874 2817.61 719.437 2817.61 719.437C2817.61 719.437 2842.93 708.212 2842.93 694.117C2842.93 687.534 2833.82 683.821 2827.83 685.677C2825.53 686.478 2823.42 687.725 2821.6 689.348C2819.79 690.97 2818.32 692.935 2817.28 695.13C2814.05 690.777 2809.78 687.296 2804.87 685.002C2803.43 684.498 2801.89 684.349 2800.38 684.57C2798.87 684.791 2797.43 685.374 2796.2 686.27C2794.96 687.166 2793.96 688.347 2793.28 689.714C2792.6 691.08 2792.26 692.591 2792.29 694.117Z" fill="#E0E0E0"/>
<path d="M3016.96 632.591C3016.96 650.737 3049.79 665.422 3049.79 665.422C3049.79 665.422 3082.62 650.737 3082.62 632.591C3082.62 624.151 3070.47 619.172 3062.79 621.366C3057 623.68 3052.34 628.161 3049.79 633.857C3045.51 628.17 3039.92 623.597 3033.5 620.522C3031.6 619.849 3029.57 619.649 3027.57 619.941C3025.57 620.232 3023.68 621.006 3022.05 622.195C3020.42 623.383 3019.11 624.951 3018.22 626.763C3017.33 628.575 3016.9 630.575 3016.96 632.591Z" fill="#E0E0E0"/>
<path d="M2294.94 2698.07C2298.82 2722.46 2316.46 2743.47 2317.81 2768.12C2318.91 2787.44 2309.87 2805.59 2305.4 2824.41C2300.93 2843.23 2303.12 2866.61 2319.58 2876.57C2325.57 2879.61 2332.26 2881 2338.96 2880.6C2345.67 2880.2 2352.15 2878.02 2357.73 2874.29C2368.75 2866.66 2377.85 2856.58 2384.31 2844.83C2410.2 2802.99 2424.34 2754.94 2425.25 2705.75C2425.25 2685.07 2423.14 2663.13 2410.98 2646.67C2373.34 2594.09 2285.32 2637.3 2294.94 2698.07Z" fill="#F5F5F5"/>
<path d="M2263.63 2633.5C2267.26 2637.47 2271.99 2640.26 2277.21 2641.52C2280.37 2642.55 2283.75 2642.75 2287.01 2642.12C2290.27 2641.48 2293.32 2640.03 2295.87 2637.89C2297.8 2635.4 2299.18 2632.52 2299.91 2629.44C2300.64 2626.37 2300.7 2623.18 2300.09 2620.08C2299.57 2612.31 2296.91 2604.83 2292.4 2598.48C2290.14 2595.34 2287.14 2592.82 2283.66 2591.12C2280.19 2589.43 2276.35 2588.62 2272.49 2588.77C2268.63 2589.09 2265 2590.72 2262.21 2593.39C2259.41 2596.07 2257.62 2599.62 2257.13 2603.46C2256.19 2613.9 2258.45 2624.38 2263.63 2633.5Z" fill="#F5F5F5"/>
<path d="M2333.76 2582.78C2332.03 2580.11 2329.56 2578 2326.65 2576.73C2323.74 2575.45 2320.52 2575.06 2317.39 2575.6C2314.29 2576.3 2311.47 2577.91 2309.3 2580.23C2307.14 2582.55 2305.72 2585.46 2305.23 2588.6C2305.1 2590.65 2305.1 2592.71 2305.23 2594.76C2305.26 2598.08 2305.63 2601.39 2306.33 2604.64C2307.04 2607.77 2308.52 2610.67 2310.63 2613.08C2313.53 2615.89 2317.21 2617.78 2321.18 2618.48C2323.65 2619.07 2326.21 2619.05 2328.67 2618.44C2331.12 2617.82 2333.39 2616.62 2335.28 2614.93C2336.96 2612.89 2338.21 2610.53 2338.97 2607.99C2339.72 2605.46 2339.96 2602.79 2339.67 2600.16C2339.47 2593.91 2337.42 2587.86 2333.76 2582.78Z" fill="#F5F5F5"/>
<path d="M2372.84 2580.67C2371.45 2578.12 2369.2 2576.16 2366.49 2575.13C2363.78 2574.11 2360.79 2574.1 2358.07 2575.1C2355.41 2576.2 2353.07 2577.94 2351.24 2580.16C2349.42 2582.39 2348.17 2585.02 2347.6 2587.84C2347.6 2589.7 2347.09 2591.56 2347.01 2593.41C2346.96 2596.48 2347.3 2599.54 2348.02 2602.53C2348.63 2605.47 2350.17 2608.13 2352.41 2610.12C2354.81 2612.13 2357.75 2613.36 2360.85 2613.67C2362.87 2613.92 2364.93 2613.72 2366.86 2613.09C2368.8 2612.47 2370.58 2611.42 2372.08 2610.04C2375.36 2606.31 2377.16 2601.5 2377.14 2596.54C2377.51 2590.91 2376 2585.33 2372.84 2580.67Z" fill="#F5F5F5"/>
<path d="M2407.69 2588.77C2403.56 2582.61 2399.25 2582.19 2394.53 2584.8C2390.33 2587.88 2387.34 2592.33 2386.09 2597.38C2385.61 2599.01 2385.27 2600.67 2385.07 2602.36C2384.62 2605.15 2384.62 2608 2385.07 2610.8C2385.62 2613.5 2387.2 2615.89 2389.46 2617.47C2391.55 2618.77 2394.01 2619.36 2396.47 2619.15C2399.66 2618.87 2402.65 2617.46 2404.91 2615.19C2408.01 2611.86 2409.99 2607.63 2410.56 2603.12C2411.42 2598.15 2410.4 2593.03 2407.69 2588.77Z" fill="#F5F5F5"/>
<path d="M2414.53 2622.95C2414.07 2624.95 2414.07 2627.03 2414.53 2629.03C2414.7 2630.05 2415.12 2631.02 2415.75 2631.85C2416.39 2632.67 2417.21 2633.33 2418.16 2633.76C2419.88 2634.15 2421.68 2634.02 2423.34 2633.39C2424.99 2632.76 2426.42 2631.65 2427.44 2630.21C2429.94 2627.66 2431.76 2624.53 2432.76 2621.1C2433.25 2619.38 2433.39 2617.59 2433.18 2615.82C2432.96 2614.05 2432.39 2612.34 2431.49 2610.8C2423.98 2598.56 2415.54 2616.88 2414.53 2622.95Z" fill="#F5F5F5"/>
<path d="M2421.36 3261.76C2427.02 3241.84 2430.31 3219.98 2422.8 3200.66C2399.59 3140.48 2303.71 3159.64 2297.38 3220.91L2421.36 3261.76Z" fill="#F5F5F5"/>
<path d="M2284.05 3150.52C2286.55 3155.3 2290.44 3159.21 2295.19 3161.75C2297.97 3163.55 2301.17 3164.61 2304.48 3164.83C2307.79 3165.05 2311.1 3164.43 2314.09 3163.01C2316.56 3161.08 2318.59 3158.64 2320.04 3155.86C2321.5 3153.08 2322.35 3150.03 2322.53 3146.89C2324.02 3139.27 2323.38 3131.39 2320.68 3124.11C2319.28 3120.47 2317.01 3117.24 2314.06 3114.7C2311.12 3112.15 2307.59 3110.37 2303.8 3109.51C2300 3108.83 2296.09 3109.48 2292.71 3111.34C2289.33 3113.19 2286.69 3116.15 2285.23 3119.72C2281.74 3129.63 2281.32 3140.37 2284.05 3150.52Z" fill="#F5F5F5"/>
<path d="M2364.9 3119.38C2363.9 3116.37 2362.04 3113.71 2359.55 3111.73C2357.07 3109.75 2354.06 3108.54 2350.89 3108.24C2347.72 3108.13 2344.59 3108.98 2341.9 3110.66C2339.2 3112.35 2337.08 3114.79 2335.79 3117.69C2335.04 3119.62 2334.42 3121.6 2333.93 3123.6C2333.08 3126.8 2332.57 3130.08 2332.41 3133.39C2332.2 3136.69 2332.87 3139.98 2334.35 3142.93C2336.35 3146.3 2339.28 3149.03 2342.79 3150.78C2345.01 3151.96 2347.49 3152.58 2350.01 3152.58C2352.52 3152.58 2355 3151.96 2357.22 3150.78C2359.44 3149.28 2361.32 3147.34 2362.77 3145.1C2364.22 3142.85 2365.21 3140.33 2365.66 3137.7C2367.18 3131.65 2366.91 3125.29 2364.9 3119.38Z" fill="#F5F5F5"/>
<path d="M2402.88 3127.4C2402.19 3124.62 2400.55 3122.17 2398.23 3120.49C2395.91 3118.81 2393.08 3118 2390.22 3118.2C2387.37 3118.61 2384.65 3119.71 2382.32 3121.4C2379.98 3123.09 2378.09 3125.32 2376.8 3127.91C2376.04 3129.59 2375.36 3131.31 2374.78 3133.05C2373.83 3135.92 2373.26 3138.9 2373.09 3141.92C2372.92 3144.89 2373.69 3147.84 2375.28 3150.36C2377.15 3153 2379.81 3154.98 2382.88 3156.01C2384.78 3156.78 2386.82 3157.12 2388.86 3157C2390.91 3156.88 2392.9 3156.31 2394.69 3155.34C2398.84 3152.62 2401.84 3148.47 2403.13 3143.69C2404.85 3138.38 2404.76 3132.65 2402.88 3127.4Z" fill="#F5F5F5"/>
<path d="M2434.45 3144.19C2432.08 3137.11 2427.61 3135.75 2422.8 3136.94C2417.88 3138.77 2413.76 3142.26 2411.15 3146.81C2410.31 3148.29 2409.55 3149.81 2408.87 3151.37C2407.84 3153.9 2407.21 3156.58 2407.02 3159.3C2406.86 3162.02 2407.73 3164.71 2409.46 3166.81C2411.14 3168.63 2413.36 3169.85 2415.79 3170.27C2418.95 3170.89 2422.23 3170.32 2424.99 3168.67C2428.8 3166.23 2431.75 3162.66 2433.43 3158.46C2435.49 3153.98 2435.85 3148.91 2434.45 3144.19Z" fill="#F5F5F5"/>
<path d="M2432.42 3178.97C2431.39 3180.75 2430.78 3182.74 2430.65 3184.79C2430.57 3185.82 2430.73 3186.85 2431.12 3187.81C2431.52 3188.76 2432.14 3189.61 2432.93 3190.28C2434.49 3191.1 2436.26 3191.44 2438.02 3191.26C2439.78 3191.08 2441.44 3190.39 2442.8 3189.26C2445.86 3187.41 2448.43 3184.87 2450.31 3181.84C2451.23 3180.3 2451.82 3178.6 2452.07 3176.83C2452.31 3175.06 2452.21 3173.27 2451.75 3171.54C2447.36 3157.78 2435.12 3173.48 2432.42 3178.97Z" fill="#F5F5F5"/>
<path d="M2088.67 2903.49C2091.79 2928.05 2080.23 2953.12 2086.14 2977.17C2090.44 2995.99 2104.2 3010.93 2113.65 3027.81C2123.1 3044.69 2127.58 3067.65 2114.41 3081.82C2109.52 3086.42 2103.49 3089.63 2096.95 3091.11C2090.4 3092.6 2083.58 3092.3 2077.19 3090.26C2064.49 3085.91 2052.94 3078.72 2043.43 3069.25C2006.98 3036.21 1980.1 2993.97 1965.62 2946.96C1959.54 2927.12 1955.83 2905.43 1962.91 2885.94C1985.11 2825.25 2081.16 2842.47 2088.67 2903.49Z" fill="#F5F5F5"/>
<path d="M2100.57 2832.93C2098.2 2837.73 2094.43 2841.7 2089.76 2844.33C2087.02 2846.21 2083.85 2847.36 2080.53 2847.65C2077.22 2847.95 2073.89 2847.38 2070.86 2846.02C2068.29 2844.17 2066.15 2841.79 2064.59 2839.03C2063.03 2836.28 2062.09 2833.22 2061.83 2830.06C2060.2 2822.46 2060.67 2814.55 2063.18 2807.19C2064.54 2803.51 2066.8 2800.23 2069.75 2797.64C2072.69 2795.05 2076.24 2793.22 2080.06 2792.34C2083.84 2791.57 2087.77 2792.13 2091.2 2793.91C2094.62 2795.69 2097.34 2798.59 2098.88 2802.13C2101.24 2809.98 2104.2 2825.25 2100.57 2832.93Z" fill="#F5F5F5"/>
<path d="M2019.46 2803.48C2020.39 2800.44 2022.19 2797.73 2024.63 2795.69C2027.07 2793.65 2030.06 2792.37 2033.22 2792C2036.39 2791.84 2039.54 2792.63 2042.26 2794.27C2044.98 2795.91 2047.15 2798.32 2048.49 2801.2C2049.31 2803.09 2049.99 2805.04 2050.52 2807.02C2051.43 2810.19 2052 2813.44 2052.21 2816.73C2052.51 2820.04 2051.9 2823.37 2050.44 2826.35C2048.56 2829.97 2045.61 2832.92 2042 2834.79C2039.82 2836.07 2037.37 2836.79 2034.85 2836.89C2032.34 2836.99 2029.83 2836.47 2027.56 2835.38C2025.36 2833.89 2023.48 2831.97 2022.03 2829.74C2020.58 2827.51 2019.59 2825 2019.12 2822.38C2017.29 2816.2 2017.41 2809.6 2019.46 2803.48Z" fill="#F5F5F5"/>
<path d="M1981.31 2812.26C1981.93 2809.42 1983.56 2806.91 1985.88 2805.17C1988.21 2803.43 1991.08 2802.59 1993.97 2802.8C1996.83 2803.15 1999.55 2804.19 2001.92 2805.82C2004.28 2807.45 2006.22 2809.63 2007.56 2812.17C2008.37 2813.84 2009.08 2815.56 2009.67 2817.32C2010.7 2820.18 2011.36 2823.16 2011.61 2826.18C2011.78 2829.14 2011.05 2832.09 2009.5 2834.62C2007.7 2837.3 2005.1 2839.34 2002.08 2840.45C2000.2 2841.26 1998.16 2841.64 1996.12 2841.57C1994.08 2841.5 1992.07 2840.97 1990.26 2840.02C1986.13 2837.36 1983.13 2833.28 1981.82 2828.55C1979.86 2823.32 1979.68 2817.59 1981.31 2812.26Z" fill="#F5F5F5"/>
<path d="M1950.09 2829.73C1952.36 2822.64 1956.75 2821.29 1961.65 2822.22C1966.6 2823.97 1970.78 2827.4 1973.46 2831.92C1974.35 2833.36 1975.14 2834.85 1975.83 2836.39C1976.96 2838.87 1977.65 2841.53 1977.85 2844.24C1978.12 2846.98 1977.3 2849.7 1975.57 2851.84C1973.94 2853.68 1971.74 2854.92 1969.33 2855.38C1966.17 2856.08 1962.87 2855.6 1960.04 2854.03C1956.13 2851.68 1953.03 2848.17 1951.18 2843.99C1949.1 2839.53 1948.71 2834.46 1950.09 2829.73Z" fill="#F5F5F5"/>
<path d="M1952.96 2864.16C1954 2865.95 1954.66 2867.93 1954.9 2869.98C1954.99 2871.02 1954.84 2872.06 1954.46 2873.03C1954.08 2874 1953.48 2874.86 1952.7 2875.55C1951.14 2876.39 1949.37 2876.75 1947.6 2876.6C1945.83 2876.45 1944.15 2875.8 1942.74 2874.71C1939.65 2872.95 1937.04 2870.46 1935.15 2867.45C1934.19 2865.94 1933.55 2864.24 1933.28 2862.47C1933 2860.7 1933.09 2858.89 1933.54 2857.16C1937.51 2843.57 1950.09 2859.01 1952.96 2864.16Z" fill="#F5F5F5"/>
<path d="M1881.55 877.345C1862.13 880.076 1842.34 876.986 1824.67 868.465C1807 859.944 1792.26 846.376 1782.3 829.476C1772.35 812.576 1767.63 793.104 1768.74 773.521C1769.85 753.939 1776.75 735.126 1788.55 719.461C1800.36 703.797 1816.54 691.985 1835.06 685.519C1853.58 679.053 1873.59 678.224 1892.58 683.135C1911.57 688.047 1928.68 698.48 1941.74 713.114C1954.8 727.748 1963.22 745.926 1965.95 765.349C1969.57 791.385 1962.71 817.791 1946.89 838.783C1931.07 859.775 1907.58 873.642 1881.55 877.345ZM1861.47 733.025C1852.35 734.281 1843.82 738.212 1836.94 744.321C1830.06 750.43 1825.15 758.441 1822.82 767.342C1820.5 776.244 1820.87 785.634 1823.88 794.326C1826.89 803.018 1832.42 810.621 1839.75 816.173C1847.09 821.725 1855.91 824.976 1865.09 825.516C1874.28 826.055 1883.41 823.859 1891.35 819.204C1899.28 814.549 1905.66 807.646 1909.67 799.366C1913.68 791.087 1915.15 781.804 1913.88 772.692C1912.16 760.494 1905.68 749.473 1895.86 742.04C1886.04 734.606 1873.67 731.365 1861.47 733.025Z" fill="#E0E0E0"/>
<path d="M1844.38 483.316L1807.1 488.522L1840.59 728.334L1877.87 723.127L1844.38 483.316Z" fill="#E0E0E0"/>
<path d="M1875.91 449.94L1805.98 459.83L1811.25 497.095L1881.18 487.205L1875.91 449.94Z" fill="#E0E0E0"/>
<path d="M1881.66 500.637L1815.88 509.812L1821.08 547.093L1886.86 537.918L1881.66 500.637Z" fill="#E0E0E0"/>
<path d="M1891.25 568.221L1833.83 576.23L1839.03 613.511L1896.45 605.502L1891.25 568.221Z" fill="#E0E0E0"/>
<path d="M2668.74 3400.85C3572.49 3400.85 4305.13 3358.07 4305.13 3305.31C4305.13 3252.54 3572.49 3209.77 2668.74 3209.77C1764.98 3209.77 1032.34 3252.54 1032.34 3305.31C1032.34 3358.07 1764.98 3400.85 2668.74 3400.85Z" fill="#F5F5F5"/>
<path d="M1803.4 1718.68C1881.21 1637.4 1872.39 1502.68 1783.71 1417.78C1695.02 1332.88 1560.04 1329.94 1482.23 1411.22C1404.42 1492.5 1413.24 1627.22 1501.93 1712.12C1590.62 1797.02 1725.59 1799.96 1803.4 1718.68Z" fill="#90CAF9"/>
<g opacity="0.8">
<path d="M1803.4 1718.68C1881.21 1637.4 1872.39 1502.68 1783.71 1417.78C1695.02 1332.88 1560.04 1329.94 1482.23 1411.22C1404.42 1492.5 1413.24 1627.22 1501.93 1712.12C1590.62 1797.02 1725.59 1799.96 1803.4 1718.68Z" fill="white"/>
</g>
<path d="M1543.62 1431.42C1541.85 1431.42 1540.13 1430.86 1538.69 1429.83C1537.25 1428.79 1536.18 1427.33 1535.62 1425.65C1535.06 1423.97 1535.04 1422.15 1535.57 1420.46C1536.1 1418.77 1537.14 1417.29 1538.56 1416.23C1566.98 1395.83 1601.23 1385.17 1636.21 1385.84C1638.45 1385.84 1640.59 1386.73 1642.18 1388.32C1643.76 1389.9 1644.65 1392.04 1644.65 1394.28C1644.65 1396.52 1643.76 1398.67 1642.18 1400.25C1640.59 1401.83 1638.45 1402.72 1636.21 1402.72C1604.88 1402.03 1574.18 1411.51 1548.69 1429.73C1547.23 1430.83 1545.45 1431.42 1543.62 1431.42Z" fill="#90CAF9"/>
<path d="M1583.55 1721.75C1582.16 1721.74 1580.8 1721.39 1579.58 1720.74C1553.71 1706.9 1531.27 1687.46 1513.89 1663.83C1496.51 1640.21 1484.64 1612.99 1479.14 1584.18C1473.78 1559.26 1474.03 1533.45 1479.87 1508.64C1485.71 1483.82 1496.99 1460.62 1512.9 1440.7C1514.34 1438.98 1516.4 1437.89 1518.63 1437.69C1520.86 1437.48 1523.08 1438.17 1524.8 1439.61C1526.53 1441.04 1527.61 1443.1 1527.82 1445.33C1528.02 1447.56 1527.33 1449.78 1525.9 1451.51C1511.53 1469.53 1501.35 1490.54 1496.11 1512.99C1490.87 1535.44 1490.69 1558.78 1495.6 1581.31C1500.66 1607.65 1511.52 1632.53 1527.41 1654.13C1543.29 1675.74 1563.8 1693.54 1587.43 1706.22C1589.08 1707.11 1590.38 1708.52 1591.14 1710.24C1591.9 1711.96 1592.06 1713.87 1591.61 1715.69C1591.15 1717.51 1590.1 1719.13 1588.63 1720.29C1587.15 1721.44 1585.34 1722.08 1583.46 1722.09L1583.55 1721.75Z" fill="#90CAF9"/>
<path d="M1668.03 1743.78C1649.14 1743.69 1630.37 1740.68 1612.41 1734.83C1611.35 1734.49 1610.37 1733.94 1609.52 1733.22C1608.68 1732.49 1607.98 1731.61 1607.48 1730.62C1606.97 1729.63 1606.67 1728.55 1606.58 1727.44C1606.49 1726.33 1606.62 1725.21 1606.97 1724.15C1607.31 1723.1 1607.86 1722.12 1608.58 1721.27C1609.3 1720.42 1610.18 1719.73 1611.18 1719.22C1612.17 1718.72 1613.25 1718.41 1614.36 1718.32C1615.47 1718.24 1616.58 1718.37 1617.64 1718.71C1669.55 1735.59 1721.37 1726.14 1759.77 1693.39C1779.25 1676.2 1793.97 1654.27 1802.52 1629.73C1811.06 1605.19 1813.14 1578.87 1808.55 1553.29C1808.19 1551.05 1808.74 1548.76 1810.07 1546.93C1811.4 1545.09 1813.4 1543.86 1815.64 1543.5C1817.88 1543.14 1820.17 1543.69 1822 1545.02C1823.84 1546.35 1825.07 1548.35 1825.43 1550.59C1830.55 1579.01 1828.22 1608.27 1818.68 1635.53C1809.14 1662.78 1792.72 1687.11 1770.99 1706.14C1742.37 1730.76 1705.78 1744.13 1668.03 1743.78Z" fill="#90CAF9"/>
<path d="M1809.99 1531.68C1808.19 1531.68 1806.45 1531.1 1805.01 1530.04C1803.57 1528.98 1802.5 1527.48 1801.97 1525.78C1794.2 1501.81 1781.49 1479.74 1764.66 1461C1747.82 1442.26 1727.24 1427.26 1704.23 1416.99C1702.18 1416.09 1700.56 1414.41 1699.73 1412.32C1698.91 1410.24 1698.95 1407.91 1699.85 1405.85C1700.74 1403.79 1702.42 1402.17 1704.51 1401.34C1706.6 1400.52 1708.93 1400.56 1710.99 1401.46C1736.18 1412.72 1758.72 1429.15 1777.15 1449.67C1795.59 1470.2 1809.51 1494.38 1818 1520.63C1818.7 1522.75 1818.52 1525.07 1817.5 1527.06C1816.49 1529.06 1814.73 1530.57 1812.6 1531.26C1811.75 1531.52 1810.87 1531.66 1809.99 1531.68Z" fill="#90CAF9"/>
<path d="M1676.97 1407.45C1676.33 1407.54 1675.68 1407.54 1675.03 1407.45C1662.33 1404.49 1649.33 1402.99 1636.29 1402.98C1634.06 1402.98 1631.91 1402.09 1630.33 1400.51C1628.74 1398.92 1627.85 1396.78 1627.85 1394.54C1627.85 1392.3 1628.74 1390.15 1630.33 1388.57C1631.91 1386.99 1634.06 1386.1 1636.29 1386.1C1650.5 1386.14 1664.66 1387.81 1678.49 1391.08C1680.73 1391.33 1682.78 1392.47 1684.18 1394.24C1685.58 1396 1686.22 1398.25 1685.96 1400.49C1685.7 1402.73 1684.57 1404.77 1682.8 1406.17C1681.04 1407.57 1678.79 1408.21 1676.55 1407.96L1676.97 1407.45Z" fill="#90CAF9"/>
<path d="M1528.1 1609.08C1526.37 1609.08 1524.69 1608.56 1523.27 1607.58C1521.85 1606.6 1520.77 1605.21 1520.16 1603.59C1512.25 1583.17 1509.47 1561.12 1512.06 1539.37C1514.65 1517.62 1522.53 1496.84 1535.02 1478.85C1546.82 1461.81 1562.63 1447.92 1581.05 1438.41C1599.47 1428.91 1619.95 1424.07 1640.68 1424.33C1642.92 1424.33 1645.07 1425.22 1646.65 1426.8C1648.23 1428.38 1649.12 1430.53 1649.12 1432.77C1649.12 1435.01 1648.23 1437.15 1646.65 1438.74C1645.07 1440.32 1642.92 1441.21 1640.68 1441.21C1622.67 1441 1604.88 1445.19 1588.86 1453.43C1572.84 1461.67 1559.08 1473.7 1548.77 1488.47C1537.82 1504.32 1530.94 1522.61 1528.71 1541.74C1526.49 1560.87 1529 1580.26 1536.03 1598.19C1536.79 1600.28 1536.7 1602.59 1535.77 1604.62C1534.83 1606.64 1533.14 1608.21 1531.05 1608.99C1530.08 1609.18 1529.08 1609.21 1528.1 1609.08Z" fill="#90CAF9"/>
<path d="M1661.95 1705.46C1636.65 1704.61 1611.93 1697.67 1589.89 1685.23C1567.85 1672.78 1549.14 1655.2 1535.35 1633.97C1534.33 1632.11 1534.05 1629.93 1534.56 1627.86C1535.08 1625.8 1536.36 1624.01 1538.14 1622.84C1539.92 1621.68 1542.07 1621.23 1544.17 1621.59C1546.27 1621.95 1548.15 1623.09 1549.45 1624.77C1561.7 1643.66 1578.33 1659.31 1597.91 1670.42C1617.49 1681.52 1639.45 1687.75 1661.95 1688.58C1664.19 1688.58 1666.34 1689.47 1667.92 1691.05C1669.5 1692.63 1670.39 1694.78 1670.39 1697.02C1670.39 1699.26 1669.5 1701.4 1667.92 1702.99C1666.34 1704.57 1664.19 1705.46 1661.95 1705.46Z" fill="#90CAF9"/>
<path d="M1693.52 1701.83C1691.59 1701.89 1689.7 1701.28 1688.16 1700.11C1686.63 1698.95 1685.54 1697.29 1685.08 1695.42C1684.54 1693.24 1684.89 1690.95 1686.04 1689.04C1687.2 1687.12 1689.07 1685.74 1691.24 1685.2C1759.68 1668.32 1777.41 1608.32 1771.75 1562.24C1764.41 1502.14 1716.98 1441.29 1640.43 1441.21C1638.19 1441.21 1636.04 1440.32 1634.46 1438.74C1632.88 1437.15 1631.99 1435.01 1631.99 1432.77C1631.99 1430.53 1632.88 1428.38 1634.46 1426.8C1636.04 1425.22 1638.19 1424.33 1640.43 1424.33C1726.77 1424.33 1780.28 1492.69 1788.55 1560.21C1796.99 1629.84 1760.44 1685.37 1695.29 1701.58C1694.71 1701.72 1694.11 1701.81 1693.52 1701.83Z" fill="#90CAF9"/>
<path d="M1606.16 1487.8C1604.56 1487.78 1603 1487.32 1601.66 1486.45C1600.31 1485.58 1599.24 1484.35 1598.57 1482.9C1597.62 1480.88 1597.51 1478.56 1598.27 1476.45C1599.03 1474.35 1600.59 1472.63 1602.62 1471.68C1615.56 1465.95 1629.57 1463.08 1643.72 1463.24C1645.96 1463.24 1648.11 1464.13 1649.69 1465.71C1651.27 1467.29 1652.16 1469.44 1652.16 1471.68C1652.16 1473.92 1651.27 1476.06 1649.69 1477.64C1648.11 1479.23 1645.96 1480.12 1643.72 1480.12C1632.07 1480.12 1620.56 1482.63 1609.96 1487.46C1608.74 1487.86 1607.44 1487.98 1606.16 1487.8Z" fill="#90CAF9"/>
<path d="M1660.43 1666.13C1639.06 1665.79 1618.23 1659.32 1600.41 1647.51C1582.6 1635.69 1568.54 1619.01 1559.91 1599.46C1542.44 1561.39 1547.59 1521.64 1573.67 1492.94C1575.18 1491.3 1577.29 1490.33 1579.52 1490.23C1581.75 1490.14 1583.92 1490.93 1585.57 1492.44C1587.21 1493.95 1588.19 1496.05 1588.28 1498.28C1588.38 1500.51 1587.58 1502.69 1586.08 1504.34C1575.59 1516.2 1568.94 1530.96 1567.02 1546.68C1565.09 1562.39 1567.97 1578.32 1575.27 1592.37C1582.73 1609.41 1595.04 1623.89 1610.66 1634.01C1626.28 1644.12 1644.53 1649.42 1663.13 1649.25C1677.21 1649.15 1690.96 1644.97 1702.71 1637.23C1714.47 1629.49 1723.73 1618.51 1729.39 1605.62C1735.74 1590.41 1737.66 1573.71 1734.91 1557.46C1732.16 1541.2 1724.86 1526.06 1713.86 1513.79C1713.14 1512.95 1712.59 1511.97 1712.24 1510.92C1711.9 1509.87 1711.77 1508.75 1711.86 1507.65C1711.94 1506.54 1712.24 1505.47 1712.75 1504.48C1713.25 1503.49 1713.94 1502.61 1714.78 1501.89C1715.63 1501.17 1716.6 1500.62 1717.66 1500.28C1718.71 1499.94 1719.82 1499.8 1720.93 1499.89C1722.03 1499.98 1723.11 1500.28 1724.1 1500.78C1725.08 1501.28 1725.96 1501.98 1726.68 1502.82C1739.79 1517.51 1748.45 1535.63 1751.66 1555.05C1754.87 1574.47 1752.5 1594.41 1744.83 1612.54C1737.9 1628.35 1726.56 1641.83 1712.15 1651.36C1697.75 1660.88 1680.9 1666.04 1663.64 1666.21L1660.43 1666.13Z" fill="#90CAF9"/>
<path d="M1695.96 1495.22C1694.37 1495.23 1692.81 1494.76 1691.49 1493.87C1677.24 1484.7 1660.67 1479.78 1643.72 1479.7C1641.48 1479.7 1639.34 1478.81 1637.75 1477.22C1636.17 1475.64 1635.28 1473.49 1635.28 1471.26C1635.28 1469.02 1636.17 1466.87 1637.75 1465.29C1639.34 1463.7 1641.48 1462.82 1643.72 1462.82C1663.88 1462.89 1683.59 1468.75 1700.52 1479.7C1702.05 1480.68 1703.22 1482.14 1703.85 1483.84C1704.49 1485.55 1704.55 1487.41 1704.04 1489.16C1703.53 1490.91 1702.46 1492.44 1701.01 1493.53C1699.55 1494.63 1697.78 1495.22 1695.96 1495.22Z" fill="#90CAF9"/>
<path d="M1655.96 1628.07C1646.1 1628 1636.37 1625.77 1627.46 1621.55C1618.55 1617.32 1610.68 1611.19 1604.39 1603.59C1596.28 1594.31 1591.01 1582.88 1589.22 1570.69C1587.42 1558.49 1589.17 1546.03 1594.26 1534.81C1598.81 1524.61 1606.25 1515.98 1615.65 1509.98C1625.06 1503.98 1636.02 1500.87 1647.18 1501.05C1649.42 1501.05 1651.57 1501.94 1653.15 1503.52C1654.73 1505.1 1655.62 1507.25 1655.62 1509.49C1655.62 1511.73 1654.73 1513.87 1653.15 1515.45C1651.57 1517.04 1649.42 1517.93 1647.18 1517.93C1639.29 1517.78 1631.53 1519.95 1624.85 1524.16C1618.18 1528.38 1612.89 1534.45 1609.62 1541.64C1605.91 1549.93 1604.66 1559.11 1606.03 1568.09C1607.39 1577.07 1611.3 1585.47 1617.3 1592.28C1623.28 1599.6 1631.21 1605.08 1640.18 1608.06C1649.14 1611.05 1658.77 1611.43 1667.94 1609.16C1675.41 1607.48 1682.23 1603.69 1687.6 1598.25C1692.97 1592.8 1696.67 1585.93 1698.24 1578.44C1698.73 1576.26 1700.06 1574.36 1701.94 1573.16C1703.82 1571.96 1706.1 1571.55 1708.29 1572.03C1709.37 1572.26 1710.4 1572.7 1711.32 1573.33C1712.24 1573.96 1713.02 1574.76 1713.62 1575.7C1714.23 1576.63 1714.64 1577.67 1714.84 1578.77C1715.04 1579.86 1715.02 1580.98 1714.78 1582.07C1712.55 1592.63 1707.34 1602.33 1699.78 1610.03C1692.21 1617.74 1682.6 1623.11 1672.08 1625.53C1666.83 1627.02 1661.41 1627.87 1655.96 1628.07Z" fill="#90CAF9"/>
<path d="M1705.08 1561.22C1703.22 1561.31 1701.38 1560.78 1699.85 1559.71C1698.33 1558.64 1697.2 1557.09 1696.64 1555.32C1693.27 1544.74 1686.69 1535.48 1677.81 1528.82C1668.93 1522.17 1658.19 1518.45 1647.1 1518.18C1644.86 1518.18 1642.71 1517.29 1641.13 1515.71C1639.55 1514.13 1638.66 1511.98 1638.66 1509.74C1638.66 1507.5 1639.55 1505.36 1641.13 1503.77C1642.71 1502.19 1644.86 1501.3 1647.1 1501.3C1661.77 1501.63 1675.98 1506.52 1687.75 1515.29C1699.51 1524.06 1708.26 1536.28 1712.76 1550.25C1713.1 1551.31 1713.23 1552.43 1713.14 1553.53C1713.05 1554.64 1712.74 1555.72 1712.23 1556.71C1711.72 1557.7 1711.02 1558.57 1710.17 1559.29C1709.32 1560.01 1708.33 1560.55 1707.27 1560.89C1706.56 1561.09 1705.82 1561.21 1705.08 1561.22Z" fill="#90CAF9"/>
<path d="M1658.24 1592.96C1656 1592.96 1653.85 1592.07 1652.27 1590.48C1650.69 1588.9 1649.8 1586.76 1649.8 1584.52C1649.8 1582.28 1650.69 1580.13 1652.27 1578.55C1653.85 1576.97 1656 1576.08 1658.24 1576.08C1659.39 1576.08 1660.53 1575.84 1661.59 1575.39C1662.65 1574.93 1663.6 1574.27 1664.39 1573.43C1665.18 1572.59 1665.79 1571.6 1666.19 1570.52C1666.58 1569.43 1666.75 1568.28 1666.68 1567.13C1666.72 1565.49 1666.44 1563.85 1665.85 1562.32C1665.25 1560.78 1664.36 1559.38 1663.22 1558.2C1662.09 1557.01 1660.72 1556.07 1659.21 1555.41C1657.71 1554.76 1656.08 1554.41 1654.44 1554.39C1653.2 1554.42 1651.98 1554.7 1650.85 1555.2C1649.72 1555.71 1648.7 1556.44 1647.86 1557.34C1646.99 1558.36 1646.34 1559.54 1645.93 1560.82C1645.53 1562.09 1645.38 1563.43 1645.49 1564.77C1645.56 1565.88 1645.41 1566.99 1645.04 1568.04C1644.68 1569.09 1644.12 1570.05 1643.38 1570.88C1642.64 1571.71 1641.75 1572.39 1640.75 1572.88C1639.75 1573.36 1638.67 1573.65 1637.56 1573.71C1636.45 1573.78 1635.34 1573.63 1634.29 1573.27C1633.24 1572.9 1632.27 1572.34 1631.44 1571.6C1630.61 1570.86 1629.94 1569.97 1629.45 1568.97C1628.96 1567.97 1628.68 1566.89 1628.61 1565.78C1628.31 1562.24 1628.74 1558.67 1629.87 1555.3C1631 1551.93 1632.8 1548.83 1635.17 1546.18C1637.54 1543.53 1640.43 1541.4 1643.66 1539.91C1646.88 1538.41 1650.38 1537.6 1653.93 1537.51C1657.8 1537.52 1661.62 1538.29 1665.18 1539.79C1668.74 1541.29 1671.97 1543.48 1674.68 1546.24C1677.39 1548.99 1679.52 1552.26 1680.96 1555.85C1682.4 1559.43 1683.11 1563.27 1683.05 1567.13C1683.12 1570.5 1682.51 1573.84 1681.27 1576.98C1680.03 1580.11 1678.17 1582.96 1675.82 1585.36C1673.46 1587.77 1670.64 1589.68 1667.54 1590.98C1664.43 1592.29 1661.1 1592.96 1657.73 1592.96H1658.24Z" fill="#90CAF9"/>
<path d="M1875.39 1564.85C1885.69 1682.42 1798.68 1777.7 1681.28 1777.7H1672.16C1784.07 1771.97 1865.35 1678.96 1855.39 1565.11C1849.64 1509.38 1824.37 1457.48 1784.04 1418.59C1743.71 1379.69 1690.93 1356.32 1635.03 1352.59C1637.98 1352.59 1641.02 1352.59 1644.06 1352.59C1761.79 1352.08 1865.43 1447.37 1875.39 1564.85Z" fill="#90CAF9"/>
<g opacity="0.4">
<path d="M1875.39 1564.85C1885.69 1682.42 1798.68 1777.7 1681.28 1777.7H1672.16C1784.07 1771.97 1865.35 1678.96 1855.39 1565.11C1849.64 1509.38 1824.37 1457.48 1784.04 1418.59C1743.71 1379.69 1690.93 1356.32 1635.03 1352.59C1637.98 1352.59 1641.02 1352.59 1644.06 1352.59C1761.79 1352.08 1865.43 1447.37 1875.39 1564.85Z" fill="white"/>
</g>
<path d="M2047.73 527.515C2047.94 530.035 2048.28 532.542 2048.75 535.027C2051.93 551.288 2060.28 566.088 2072.55 577.226C2086.45 590.243 2104.73 597.562 2123.78 597.735H2836.86C2845.18 597.903 2853.45 596.414 2861.2 593.354C2868.94 590.295 2876 585.727 2881.96 579.915C2887.92 574.103 2892.66 567.164 2895.92 559.501C2899.17 551.839 2900.87 543.605 2900.91 535.28C2901.04 532.778 2901.04 530.271 2900.91 527.769C2898.93 508.872 2890.12 491.349 2876.13 478.484C2862.15 465.619 2843.95 458.296 2824.96 457.887H2111.71C2102.77 457.706 2093.89 459.43 2085.67 462.943C2077.44 466.456 2070.06 471.679 2064.01 478.265C2057.96 484.85 2053.38 492.647 2050.57 501.139C2047.77 509.63 2046.8 518.621 2047.73 527.515Z" fill="#90CAF9"/>
<path opacity="0.8" d="M2047.73 527.515C2047.94 530.035 2048.28 532.542 2048.75 535.027C2051.93 551.288 2060.28 566.088 2072.55 577.226C2086.45 590.243 2104.73 597.562 2123.78 597.735H2836.86C2845.18 597.903 2853.45 596.414 2861.2 593.354C2868.94 590.295 2876 585.727 2881.96 579.915C2887.92 574.103 2892.66 567.164 2895.92 559.501C2899.17 551.839 2900.87 543.605 2900.91 535.28C2901.04 532.778 2901.04 530.271 2900.91 527.769C2898.93 508.872 2890.12 491.349 2876.13 478.484C2862.15 465.619 2843.95 458.296 2824.96 457.887H2111.71C2102.77 457.706 2093.89 459.43 2085.67 462.943C2077.44 466.456 2070.06 471.679 2064.01 478.265C2057.96 484.85 2053.38 492.647 2050.57 501.139C2047.77 509.63 2046.8 518.621 2047.73 527.515Z" fill="white"/>
<path d="M2900.91 534.773C2900.92 537.034 2900.75 539.291 2900.41 541.525C2897.89 523.056 2888.85 506.097 2874.92 493.714C2860.99 481.33 2843.09 474.34 2824.45 474.007L2066.3 475.695C2072.31 469.848 2079.42 465.244 2087.21 462.145C2095 459.046 2103.32 457.513 2111.71 457.634H2824.79C2843.78 458.043 2861.98 465.366 2875.96 478.231C2889.95 491.096 2898.76 508.619 2900.75 527.515C2900.92 529.93 2900.98 532.353 2900.91 534.773Z" fill="#90CAF9"/>
<path opacity="0.5" d="M2900.91 534.773C2900.92 537.034 2900.75 539.291 2900.41 541.525C2897.89 523.056 2888.85 506.097 2874.92 493.714C2860.99 481.33 2843.09 474.34 2824.45 474.007L2066.3 475.695C2072.31 469.848 2079.42 465.244 2087.21 462.145C2095 459.046 2103.32 457.513 2111.71 457.634H2824.79C2843.78 458.043 2861.98 465.366 2875.96 478.231C2889.95 491.096 2898.76 508.619 2900.75 527.515C2900.92 529.93 2900.98 532.353 2900.91 534.773Z" fill="white"/>
<path d="M2778.45 491.394L2781.49 525.153L2813.23 513.337L2820.74 530.217L2788.33 541.02L2811.62 569.631L2797.02 580.349L2774.32 550.641L2757.44 580.349L2741.49 569.631L2759.46 541.02L2725.7 530.217L2730.26 513.337L2764.44 524.731L2761.4 490.972L2778.45 491.394Z" fill="#90CAF9"/>
<path d="M2583.07 491.393L2586.11 525.153L2617.84 513.337L2625.44 530.217L2592.78 541.273L2616.07 569.884L2601.55 580.602L2578.85 550.894L2561.97 580.602L2545.94 569.884L2564 541.273L2530.24 530.47L2534.8 513.59L2568.98 524.984L2566.02 491.225L2583.07 491.393Z" fill="#90CAF9"/>
<path d="M2388.11 491.393L2391.07 525.153L2422.8 513.337L2430.4 530.217L2397.9 541.02L2421.2 569.63L2407.1 580.602L2384.4 550.894L2367.52 580.602L2351.57 569.884L2369.54 541.273L2335.79 530.47L2340.43 513.59L2374.19 524.984L2371.23 491.225L2388.11 491.393Z" fill="#90CAF9"/>
<path d="M2193.07 491.394L2196.02 525.153L2227.84 513.337L2235.35 530.217L2202.86 541.02L2226.24 569.631L2211.64 580.349L2188.93 550.641L2172.05 580.349L2156.1 569.631L2174.08 541.02L2140.32 530.217L2144.88 513.337L2178.64 524.731L2175.68 490.972L2193.07 491.394Z" fill="#90CAF9"/>
<path d="M2665.78 424.55H2632.53V432.99H2665.78V424.55Z" fill="#90CAF9"/>
<path d="M2808.67 424.55H2700.22V432.99H2808.67V424.55Z" fill="#90CAF9"/>
<path opacity="0.8" d="M3916.06 739.354L3881.54 1134C3880.21 1146.6 3874.33 1158.27 3865.01 1166.85C3855.69 1175.42 3843.56 1180.31 3830.9 1180.59H3556.86C3550.93 1180.62 3545.05 1179.4 3539.63 1177.01C3534.2 1174.62 3529.33 1171.12 3525.35 1166.72C3521.37 1162.32 3518.36 1157.14 3516.52 1151.5C3514.67 1145.86 3514.04 1139.9 3514.66 1134L3549.18 739.27C3550.46 726.654 3556.32 714.944 3565.65 706.358C3574.98 697.773 3587.14 692.907 3599.82 692.682H3873.86C3879.8 692.649 3885.67 693.869 3891.11 696.264C3896.54 698.659 3901.41 702.174 3905.4 706.579C3909.38 710.985 3912.39 716.181 3914.22 721.829C3916.06 727.477 3916.68 733.449 3916.06 739.354Z" fill="#90CAF9"/>
<path opacity="0.8" d="M3916.06 739.354L3881.54 1134C3880.21 1146.6 3874.33 1158.27 3865.01 1166.85C3855.69 1175.42 3843.56 1180.31 3830.9 1180.59H3556.86C3550.93 1180.62 3545.05 1179.4 3539.63 1177.01C3534.2 1174.62 3529.33 1171.12 3525.35 1166.72C3521.37 1162.32 3518.36 1157.14 3516.52 1151.5C3514.67 1145.86 3514.04 1139.9 3514.66 1134L3549.18 739.27C3550.46 726.654 3556.32 714.944 3565.65 706.358C3574.98 697.773 3587.14 692.907 3599.82 692.682H3873.86C3879.8 692.649 3885.67 693.869 3891.11 696.264C3896.54 698.659 3901.41 702.174 3905.4 706.579C3909.38 710.985 3912.39 716.181 3914.22 721.829C3916.06 727.477 3916.68 733.449 3916.06 739.354Z" fill="white"/>
<path d="M3574.16 802.991H3573.4C3571.17 802.798 3569.11 801.73 3567.67 800.021C3566.23 798.312 3565.53 796.102 3565.72 793.876L3568.93 757.754C3569.12 755.649 3570.09 753.693 3571.65 752.271C3573.21 750.849 3575.25 750.065 3577.37 750.073H3615.51C3617.75 750.073 3619.9 750.962 3621.48 752.545C3623.06 754.128 3623.95 756.275 3623.95 758.513C3623.95 760.752 3623.06 762.898 3621.48 764.481C3619.9 766.064 3617.75 766.953 3615.51 766.953H3585.13L3582.6 795.311C3582.41 797.415 3581.44 799.371 3579.87 800.793C3578.31 802.215 3576.27 803 3574.16 802.991Z" fill="#90CAF9"/>
<path d="M3881.03 802.991H3880.27C3878.04 802.798 3875.99 801.73 3874.55 800.021C3873.11 798.312 3872.4 796.102 3872.59 793.876L3874.95 766.953H3846.09C3843.85 766.953 3841.7 766.064 3840.12 764.481C3838.54 762.898 3837.65 760.752 3837.65 758.513C3837.65 756.275 3838.54 754.128 3840.12 752.545C3841.7 750.962 3843.85 750.073 3846.09 750.073H3884.07C3885.24 750.069 3886.41 750.309 3887.48 750.78C3888.56 751.251 3889.53 751.941 3890.32 752.807C3891.12 753.673 3891.72 754.696 3892.1 755.809C3892.47 756.923 3892.61 758.102 3892.51 759.273L3889.3 795.311C3889.11 797.386 3888.17 799.319 3886.64 800.737C3885.11 802.155 3883.11 802.958 3881.03 802.991Z" fill="#90CAF9"/>
<path d="M3588.67 1075.34H3550.53C3549.37 1075.34 3548.23 1075.1 3547.17 1074.63C3546.11 1074.17 3545.15 1073.49 3544.37 1072.64C3543.58 1071.78 3542.97 1070.77 3542.6 1069.67C3542.22 1068.56 3542.07 1067.39 3542.17 1066.23L3545.29 1030.11C3545.48 1027.87 3546.56 1025.8 3548.27 1024.35C3549.99 1022.9 3552.21 1022.19 3554.45 1022.38C3556.69 1022.57 3558.76 1023.65 3560.21 1025.36C3561.66 1027.08 3562.36 1029.3 3562.17 1031.54L3559.81 1058.46H3588.67C3590.91 1058.46 3593.06 1059.35 3594.64 1060.94C3596.23 1062.52 3597.11 1064.67 3597.11 1066.9C3597.11 1069.14 3596.23 1071.29 3594.64 1072.87C3593.06 1074.45 3590.91 1075.34 3588.67 1075.34Z" fill="#90CAF9"/>
<path d="M3857.15 1075.34H3819.08C3816.84 1075.34 3814.7 1074.45 3813.11 1072.87C3811.53 1071.29 3810.64 1069.14 3810.64 1066.9C3810.64 1064.67 3811.53 1062.52 3813.11 1060.94C3814.7 1059.35 3816.84 1058.46 3819.08 1058.46H3849.46L3851.91 1030.11C3852.11 1027.88 3853.17 1025.82 3854.88 1024.38C3856.59 1022.94 3858.8 1022.24 3861.03 1022.43C3863.25 1022.62 3865.31 1023.69 3866.75 1025.4C3868.19 1027.1 3868.89 1029.31 3868.71 1031.54L3865.58 1067.66C3865.39 1069.77 3864.42 1071.72 3862.86 1073.15C3861.3 1074.57 3859.26 1075.35 3857.15 1075.34Z" fill="#90CAF9"/>
<path d="M3828.1 939.266C3847.15 865.38 3814.44 793.066 3755.05 777.749C3695.65 762.432 3632.05 809.912 3613 883.798C3593.94 957.684 3626.65 1030 3686.05 1045.32C3745.45 1060.63 3809.04 1013.15 3828.1 939.266Z" fill="white"/>
<path d="M3753.67 1121.59H3644.38L3653.91 1012.3H3763.21L3753.67 1121.59Z" fill="white"/>
<path d="M3881.54 1134C3880.21 1146.6 3874.33 1158.27 3865.01 1166.85C3855.69 1175.42 3843.56 1180.31 3830.9 1180.59H3556.86C3550.93 1180.62 3545.05 1179.4 3539.63 1177.01C3534.2 1174.62 3529.33 1171.11 3525.35 1166.72C3521.37 1162.32 3518.36 1157.14 3516.52 1151.5C3514.67 1145.86 3514.04 1139.9 3514.66 1134C3514.66 1134 3640.58 1094.16 3656.11 1094.16H3753.42L3881.54 1134Z" fill="white"/>
<path d="M3931.97 854.689L3919.2 1009.71L3927.61 1010.4L3940.38 855.382L3931.97 854.689Z" fill="#90CAF9"/>
<path d="M3940.85 783.751L3938.34 814.2L3946.75 814.893L3949.26 784.444L3940.85 783.751Z" fill="#90CAF9"/>
<path d="M3646.74 1725.38H3613.49V1733.82H3646.74V1725.38Z" fill="#90CAF9"/>
<path d="M3789.63 1725.38H3681.18V1733.82H3789.63V1725.38Z" fill="#90CAF9"/>
<path d="M3988.13 1581.31L3967.12 1821.84C3966.02 1832.47 3961.08 1842.34 3953.21 1849.57C3945.34 1856.8 3935.1 1860.9 3924.41 1861.09C3919.38 1861.18 3914.39 1860.2 3909.77 1858.21C3905.16 1856.22 3901.01 1853.27 3897.62 1849.56C3894.23 1845.85 3891.66 1841.46 3890.1 1836.68C3888.53 1831.9 3888 1826.84 3888.54 1821.84L3909.39 1581.31C3911.33 1563.37 3909.43 1545.22 3903.83 1528.07C3898.22 1510.92 3889.03 1495.16 3876.86 1481.83C3864.7 1468.5 3849.84 1457.91 3833.27 1450.76C3816.71 1443.61 3798.81 1440.07 3780.77 1440.36H3695.02C3656.67 1441.09 3619.91 1455.83 3591.67 1481.79C3563.44 1507.75 3545.68 1543.15 3541.75 1581.31L3533.31 1679.55H3454.82L3463.26 1581.31C3473.81 1460.28 3580.91 1361.87 3701.85 1361.87H3787.94C3816.03 1361.41 3843.89 1366.93 3869.68 1378.06C3895.48 1389.19 3918.61 1405.68 3937.54 1426.43C3956.47 1447.18 3970.78 1471.72 3979.5 1498.43C3988.22 1525.13 3991.16 1553.38 3988.13 1581.31Z" fill="#90CAF9"/>
<g opacity="0.5">
<path d="M3988.13 1581.31L3967.12 1821.84C3966.02 1832.47 3961.08 1842.34 3953.21 1849.57C3945.34 1856.8 3935.1 1860.9 3924.41 1861.09C3919.38 1861.18 3914.39 1860.2 3909.77 1858.21C3905.16 1856.22 3901.01 1853.27 3897.62 1849.56C3894.23 1845.85 3891.66 1841.46 3890.1 1836.68C3888.53 1831.9 3888 1826.84 3888.54 1821.84L3909.39 1581.31C3911.33 1563.37 3909.43 1545.22 3903.83 1528.07C3898.22 1510.92 3889.03 1495.16 3876.86 1481.83C3864.7 1468.5 3849.84 1457.91 3833.27 1450.76C3816.71 1443.61 3798.81 1440.07 3780.77 1440.36H3695.02C3656.67 1441.09 3619.91 1455.83 3591.67 1481.79C3563.44 1507.75 3545.68 1543.15 3541.75 1581.31L3533.31 1679.55H3454.82L3463.26 1581.31C3473.81 1460.28 3580.91 1361.87 3701.85 1361.87H3787.94C3816.03 1361.41 3843.89 1366.93 3869.68 1378.06C3895.48 1389.19 3918.61 1405.68 3937.54 1426.43C3956.47 1447.18 3970.78 1471.72 3979.5 1498.43C3988.22 1525.13 3991.16 1553.38 3988.13 1581.31Z" fill="white"/>
</g>
<path d="M3993.79 1813.07L3952.85 2281.81C3951.37 2296.35 3944.6 2309.83 3933.84 2319.71C3923.07 2329.59 3909.06 2335.17 3894.45 2335.41H3425.7C3418.84 2335.53 3412.02 2334.19 3405.72 2331.48C3399.41 2328.76 3393.75 2324.74 3389.12 2319.67C3384.49 2314.6 3380.99 2308.6 3378.86 2302.07C3376.73 2295.55 3376.01 2288.64 3376.75 2281.81L3417.77 1813.07C3418.71 1803.72 3421.85 1794.73 3426.92 1786.83C3432 1778.92 3438.87 1772.33 3446.97 1767.58C3455.77 1762.19 3465.86 1759.27 3476.17 1759.14H3944.83C3954.41 1759.08 3963.8 1761.75 3971.93 1766.82C3979.51 1771.73 3985.57 1778.66 3989.43 1786.83C3993.29 1795 3994.8 1804.09 3993.79 1813.07Z" fill="#90CAF9"/>
<path d="M3506.39 2017.82L3628.17 2205.27L4029.82 1803.61C4030.44 1802.87 4030.78 1801.93 4030.76 1800.96C4030.75 1799.99 4030.39 1799.06 4029.74 1798.33C4029.1 1797.61 4028.22 1797.14 4027.26 1797.01C4026.3 1796.88 4025.32 1797.09 4024.51 1797.62L3641.76 2097.66L3569.43 1981.1L3506.39 2017.82Z" fill="white"/>
<path d="M1588.44 1111.3H1283.09C1268.96 1111.04 1255.41 1105.62 1245.01 1096.06C1234.61 1086.49 1228.07 1073.45 1226.63 1059.39L1200.21 754.209C1199.48 747.6 1200.16 740.912 1202.22 734.589C1204.27 728.266 1207.66 722.454 1212.14 717.542C1216.62 712.63 1222.09 708.73 1228.2 706.102C1234.31 703.474 1240.91 702.18 1247.56 702.304H1552.57C1566.65 702.624 1580.12 708.076 1590.46 717.635C1600.79 727.194 1607.28 740.201 1608.7 754.209L1635.37 1059.22C1636.12 1065.81 1635.46 1072.48 1633.44 1078.79C1631.42 1085.11 1628.08 1090.92 1623.65 1095.84C1619.21 1100.77 1613.78 1104.69 1607.71 1107.36C1601.64 1110.02 1595.07 1111.36 1588.44 1111.3Z" fill="#90CAF9"/>
<path opacity="0.8" d="M1588.44 1111.3H1283.09C1268.96 1111.04 1255.41 1105.62 1245.01 1096.06C1234.61 1086.49 1228.07 1073.45 1226.63 1059.39L1200.21 754.209C1199.48 747.6 1200.16 740.912 1202.22 734.589C1204.27 728.266 1207.66 722.454 1212.14 717.542C1216.62 712.63 1222.09 708.73 1228.2 706.102C1234.31 703.474 1240.91 702.18 1247.56 702.304H1552.57C1566.65 702.624 1580.12 708.076 1590.46 717.635C1600.79 727.194 1607.28 740.201 1608.7 754.209L1635.37 1059.22C1636.12 1065.81 1635.46 1072.48 1633.44 1078.79C1631.42 1085.11 1628.08 1090.92 1623.65 1095.84C1619.21 1100.77 1613.78 1104.69 1607.71 1107.36C1601.64 1110.02 1595.07 1111.36 1588.44 1111.3Z" fill="white"/>
<path d="M1226.79 937.606C1226.79 937.606 1335.25 786.618 1415.09 790.5C1494.93 794.383 1627.6 933.977 1627.6 933.977C1627.6 933.977 1432.05 1036.69 1226.79 937.606Z" fill="white"/>
<path d="M1230.25 939.885L1223.42 934.99C1227.81 928.829 1331.19 786.027 1412.05 786.027H1415.34C1496.02 789.91 1625.15 925.115 1630.64 930.854L1624.56 936.678C1623.21 935.328 1492.23 798.181 1414.92 794.467H1412.05C1335.25 794.636 1231.27 938.619 1230.25 939.885Z" fill="#263238"/>
<path d="M1215.57 942.924C1199.2 942.924 1177.93 936.847 1170.42 913.722C1170.07 912.659 1170.16 911.502 1170.67 910.505C1171.17 909.508 1172.05 908.753 1173.12 908.405C1173.64 908.222 1174.2 908.147 1174.76 908.184C1175.31 908.222 1175.85 908.371 1176.35 908.623C1176.85 908.875 1177.29 909.225 1177.65 909.652C1178 910.079 1178.27 910.573 1178.43 911.106C1188.14 940.983 1224.43 933.809 1225.95 933.471C1227.04 933.27 1228.17 933.5 1229.1 934.114C1230.03 934.727 1230.69 935.677 1230.93 936.763C1231.04 937.306 1231.04 937.866 1230.94 938.41C1230.83 938.954 1230.62 939.472 1230.32 939.935C1230.01 940.397 1229.62 940.795 1229.16 941.105C1228.7 941.415 1228.18 941.632 1227.64 941.742C1223.66 942.529 1219.62 942.925 1215.57 942.924Z" fill="#263238"/>
<path d="M1279.97 878.105C1279.02 878.123 1278.1 877.826 1277.35 877.261C1276.08 876.248 1246.12 853.123 1238.53 829.576C1238.18 828.512 1238.27 827.355 1238.78 826.358C1239.28 825.361 1240.16 824.606 1241.23 824.259C1242.29 823.935 1243.44 824.036 1244.43 824.539C1245.42 825.042 1246.18 825.91 1246.54 826.959C1253.38 847.974 1282.16 870.34 1282.5 870.509C1283.38 871.193 1283.95 872.198 1284.1 873.306C1284.24 874.413 1283.94 875.532 1283.26 876.417C1282.87 876.929 1282.38 877.348 1281.81 877.641C1281.24 877.933 1280.61 878.092 1279.97 878.105Z" fill="#263238"/>
<path d="M1341.91 820.63C1340.81 820.566 1339.77 820.087 1339 819.289C1338.23 818.491 1337.8 817.432 1337.78 816.325C1332.85 797.943 1326.73 779.9 1319.46 762.311C1317.35 756.74 1315.83 752.689 1315.5 751.676C1315.33 751.139 1315.27 750.573 1315.32 750.013C1315.38 749.452 1315.54 748.908 1315.81 748.413C1316.08 747.917 1316.44 747.48 1316.88 747.128C1317.32 746.775 1317.82 746.514 1318.37 746.359C1318.9 746.204 1319.46 746.155 1320.01 746.215C1320.56 746.276 1321.09 746.444 1321.58 746.71C1322.06 746.977 1322.49 747.336 1322.84 747.768C1323.19 748.201 1323.44 748.697 1323.6 749.229C1323.6 750.242 1325.37 753.955 1327.31 759.272C1339.13 790.246 1346.39 810.586 1346.22 816.494C1346.22 817.052 1346.11 817.604 1345.89 818.117C1345.67 818.63 1345.35 819.093 1344.95 819.48C1344.54 819.866 1344.07 820.167 1343.55 820.365C1343.03 820.562 1342.47 820.652 1341.91 820.63Z" fill="#263238"/>
<path d="M1415.09 794.721C1414.03 794.687 1413.03 794.277 1412.26 793.564C1411.48 792.851 1410.99 791.884 1410.87 790.838L1404.96 723.32C1404.86 722.201 1405.21 721.087 1405.93 720.225C1406.65 719.362 1407.68 718.821 1408.8 718.72C1409.92 718.619 1411.03 718.967 1411.89 719.688C1412.76 720.408 1413.3 721.441 1413.4 722.56L1419.31 790.585C1419.38 791.687 1419.03 792.774 1418.32 793.623C1417.61 794.471 1416.61 795.015 1415.51 795.143L1415.09 794.721Z" fill="#263238"/>
<path d="M1640.26 938.282C1636.13 938.302 1632.01 937.963 1627.94 937.269C1627.4 937.158 1626.88 936.942 1626.42 936.632C1625.96 936.321 1625.57 935.924 1625.26 935.461C1624.96 934.999 1624.74 934.481 1624.64 933.937C1624.53 933.392 1624.54 932.833 1624.65 932.29C1624.74 931.745 1624.94 931.223 1625.24 930.759C1625.53 930.294 1625.93 929.895 1626.38 929.587C1626.84 929.278 1627.36 929.067 1627.9 928.966C1628.45 928.865 1629 928.876 1629.54 928.998C1629.54 928.998 1650.22 932.965 1662.88 924.019C1665.59 922.048 1667.85 919.523 1669.5 916.613C1671.16 913.703 1672.18 910.474 1672.5 907.139C1672.58 906.585 1672.78 906.052 1673.06 905.572C1673.35 905.092 1673.73 904.673 1674.18 904.34C1674.63 904.007 1675.15 903.766 1675.69 903.631C1676.23 903.496 1676.8 903.469 1677.35 903.552C1677.91 903.635 1678.44 903.827 1678.92 904.116C1679.4 904.404 1679.82 904.785 1680.15 905.236C1680.49 905.686 1680.73 906.198 1680.86 906.742C1681 907.286 1681.02 907.851 1680.94 908.405C1680.43 912.846 1679 917.131 1676.73 920.983C1674.46 924.835 1671.41 928.169 1667.77 930.77C1659.57 935.998 1649.98 938.617 1640.26 938.282Z" fill="#263238"/>
<path d="M1564.47 873.632C1563.88 873.637 1563.29 873.51 1562.75 873.263C1562.21 873.015 1561.73 872.651 1561.35 872.198C1560.95 871.805 1560.64 871.339 1560.43 870.824C1560.21 870.31 1560.1 869.759 1560.1 869.202C1560.1 868.644 1560.21 868.093 1560.43 867.579C1560.64 867.064 1560.95 866.598 1561.35 866.205C1561.35 866.205 1586.67 843.924 1589.37 823.162C1589.56 822.064 1590.16 821.08 1591.06 820.419C1591.96 819.758 1593.07 819.471 1594.18 819.618C1594.73 819.7 1595.26 819.89 1595.73 820.177C1596.21 820.463 1596.62 820.841 1596.95 821.288C1597.28 821.734 1597.52 822.242 1597.65 822.781C1597.78 823.32 1597.81 823.88 1597.72 824.428C1594.18 848.229 1568.02 871.523 1566.92 872.535C1566.26 873.18 1565.39 873.569 1564.47 873.632Z" fill="#263238"/>
<path d="M1493.15 824.597H1492.4C1491.3 824.391 1490.32 823.765 1489.67 822.851C1489.03 821.938 1488.76 820.808 1488.93 819.702C1488.93 819.196 1498.22 764.928 1499.91 753.787C1499.99 753.233 1500.18 752.701 1500.47 752.221C1500.76 751.741 1501.14 751.322 1501.59 750.989C1502.04 750.656 1502.55 750.415 1503.1 750.28C1503.64 750.144 1504.21 750.117 1504.76 750.201C1505.31 750.284 1505.85 750.475 1506.33 750.764C1506.81 751.053 1507.23 751.433 1507.56 751.884C1507.89 752.335 1508.13 752.847 1508.27 753.39C1508.4 753.934 1508.43 754.499 1508.35 755.053C1506.66 766.278 1497.46 820.631 1497.37 821.137C1497.19 822.12 1496.67 823.008 1495.9 823.641C1495.13 824.275 1494.15 824.614 1493.15 824.597Z" fill="#263238"/>
<path d="M1495.63 955.286C1530.57 918.787 1526.58 858.261 1486.72 820.097C1446.85 781.934 1386.21 780.585 1351.27 817.084C1316.33 853.583 1320.32 914.109 1360.19 952.272C1400.05 990.436 1460.69 991.785 1495.63 955.286Z" fill="#90CAF9"/>
<path opacity="0.3" d="M1463.02 886.123C1463.15 883.987 1463.15 881.845 1463.02 879.709C1461.89 868.705 1456.77 858.498 1448.62 851.018C1440.47 843.538 1429.86 839.303 1418.8 839.113C1413.6 839.023 1408.44 840.04 1403.67 842.097C1398.89 844.154 1394.61 847.204 1391.11 851.044C1387.6 854.884 1384.96 859.426 1383.34 864.369C1381.73 869.311 1381.19 874.54 1381.75 879.709C1381.89 881.886 1382.29 884.039 1382.93 886.123H1327.9C1326.56 873.953 1327.82 861.636 1331.61 849.993C1335.4 838.35 1341.63 827.648 1349.88 818.6C1358.12 809.552 1368.21 802.366 1379.45 797.521C1390.7 792.675 1402.84 790.282 1415.09 790.5C1441.12 790.981 1466.07 800.971 1485.24 818.587C1504.41 836.203 1516.47 860.226 1519.15 886.123H1463.02Z" fill="black"/>
<path opacity="0.7" d="M1462.94 879.708C1463.07 881.845 1463.07 883.987 1462.94 886.123C1462.33 895.517 1458.12 904.315 1451.19 910.683C1444.26 917.051 1435.13 920.497 1425.72 920.304C1415.8 920.119 1406.22 916.67 1398.45 910.492C1390.69 904.313 1385.17 895.749 1382.76 886.123C1382.12 884.039 1381.72 881.886 1381.58 879.708C1381.02 874.54 1381.56 869.311 1383.17 864.369C1384.79 859.426 1387.43 854.884 1390.94 851.044C1394.44 847.204 1398.73 844.154 1403.5 842.097C1408.28 840.04 1413.43 839.022 1418.63 839.113C1429.71 839.282 1440.33 843.508 1448.5 850.99C1456.67 858.472 1461.81 868.691 1462.94 879.708Z" fill="black"/>
<path opacity="0.7" d="M1484.97 839.873C1485.42 844.086 1484.98 848.348 1483.66 852.375C1482.34 856.403 1480.18 860.104 1477.33 863.233C1474.47 866.362 1470.98 868.847 1467.09 870.524C1463.19 872.2 1458.99 873.03 1454.75 872.958C1445.76 872.779 1437.13 869.316 1430.51 863.223C1423.89 857.129 1419.72 848.825 1418.8 839.873C1418.33 835.658 1418.77 831.391 1420.08 827.357C1421.39 823.324 1423.55 819.617 1426.41 816.485C1429.27 813.353 1432.77 810.868 1436.67 809.196C1440.56 807.524 1444.77 806.703 1449.01 806.789C1458.02 806.95 1466.65 810.406 1473.27 816.503C1479.9 822.6 1484.06 830.915 1484.97 839.873Z" fill="white"/>
<path d="M1354.32 664.578H1321.07V673.018H1354.32V664.578Z" fill="#90CAF9"/>
<path d="M1497.21 664.578H1388.75V673.018H1497.21V664.578Z" fill="#90CAF9"/>
<path d="M2888.17 1282.96L2891.04 1286.42L2894.92 1290.9C2897.71 1293.85 2900.41 1296.97 2903.36 1299.84C2909.19 1305.92 2915.52 1311.83 2921.93 1317.82C2934.75 1329.64 2948.18 1340.77 2962.19 1351.16C2976.45 1361.79 2991.47 1371.5 3006.5 1381.12C3014.94 1385.67 3021.86 1390.49 3029.79 1394.87L3048.1 1405C3050.77 1406.18 3053.76 1406.36 3056.54 1405.51C3062.45 1403.74 3096.38 1370.15 3107.18 1357.65C3131.15 1330.23 3167.44 1294.1 3187.02 1263.38L3208.88 1293.51C3195.07 1331.15 3176.73 1366.97 3154.28 1400.19C3142.2 1418.15 3127.72 1434.37 3111.23 1448.38C3101.34 1456.72 3090.17 1463.42 3078.15 1468.22C3062.92 1474.3 3046.19 1475.56 3030.21 1471.85C3026.08 1470.84 3022.04 1469.48 3018.14 1467.79L3010.55 1464.5L2996.88 1458.26C2987.68 1454.21 2978.81 1449.31 2969.87 1444.84C2951.98 1435.29 2934.63 1424.78 2917.88 1413.36C2901 1401.75 2884.79 1389.18 2869.35 1375.72C2861.33 1368.71 2854.16 1361.62 2846.82 1353.94C2843.19 1350.14 2839.47 1346.18 2835.93 1342.04L2830.7 1335.63C2828.75 1333.26 2827.32 1331.49 2824.7 1327.86L2888.17 1282.96Z" fill="#FFB573"/>
<path d="M3183.56 1268.02L3222.72 1184.3L3260.11 1251.31C3260.11 1251.31 3235.55 1293.51 3208.88 1293.51L3183.56 1268.02Z" fill="#FFB573"/>
<path d="M3267.12 1149.53L3306.62 1200.34L3260.45 1251.23L3223.06 1184.3L3267.12 1149.53Z" fill="#FFB573"/>
<path d="M3253.36 1274.35H3315.56C3317.32 1274.34 3319 1273.68 3320.3 1272.49C3321.59 1271.31 3322.4 1269.69 3322.57 1267.94L3335.48 1118.81C3335.57 1117.83 3335.46 1116.85 3335.15 1115.92C3334.84 1114.99 3334.34 1114.14 3333.68 1113.41C3333.02 1112.69 3332.22 1112.11 3331.32 1111.72C3330.42 1111.32 3329.45 1111.12 3328.48 1111.13H3266.36C3264.59 1111.14 3262.89 1111.82 3261.6 1113.02C3260.3 1114.22 3259.5 1115.87 3259.35 1117.63L3246.27 1266.67C3246.19 1267.65 3246.31 1268.64 3246.63 1269.57C3246.95 1270.5 3247.46 1271.35 3248.13 1272.07C3248.79 1272.8 3249.6 1273.37 3250.5 1273.76C3251.41 1274.16 3252.38 1274.36 3253.36 1274.35Z" fill="#90CAF9"/>
<path opacity="0.3" d="M3254.04 1259.42H3316.32L3327.97 1126.15H3265.68L3254.04 1259.42Z" fill="white"/>
<path d="M3249.99 1240.51L3261.04 1234.86C3266.67 1231.99 3271.87 1228.36 3276.49 1224.05L3278.51 1216.71C3277.33 1214.76 3275.55 1213.23 3273.44 1212.37C3271.33 1211.5 3268.99 1211.34 3266.78 1211.9L3257.58 1214.43L3211.92 1217.89L3210.82 1237.13L3224.16 1257.73H3228.72C3233.74 1257.91 3238.66 1256.26 3242.57 1253.1C3246.48 1249.93 3249.11 1245.46 3249.99 1240.51Z" fill="#FFB573"/>
<path d="M2808.5 1201.52C2840.15 1195.78 3063.38 1389.3 3063.38 1389.3L2997.21 1486.36C2997.21 1486.36 2753.13 1316.38 2760.9 1275.37C2768.41 1232.24 2762.42 1209.96 2808.5 1201.52Z" fill="#263238"/>
<path opacity="0.2" d="M2836.69 1263.38L2834.24 1364.66C2859.56 1384.32 2951.05 1454.46 2951.05 1454.46L2836.69 1263.38Z" fill="black"/>
<path d="M2659.7 3212.81L2734.57 3220.15L2758.37 3046.55L2683.42 3039.2L2659.7 3212.81Z" fill="#FFB573"/>
<path d="M1922.66 2194.12L1903.5 2267.05L2065.46 2336.84L2099.05 2262.83L1922.66 2194.12Z" fill="#FFB573"/>
<path d="M2788.16 3235.51C2794.6 3236.31 2801.12 3234.88 2806.64 3231.46C2807.83 3230.42 2808.76 3229.12 2809.35 3227.65C2809.94 3226.18 2810.17 3224.6 2810.02 3223.02C2810.02 3222.04 2809.75 3221.07 2809.24 3220.22C2808.74 3219.38 2808.01 3218.68 2807.15 3218.21C2798.12 3212.81 2767.57 3227.33 2764.11 3228.93C2763.77 3229.09 2763.5 3229.34 2763.32 3229.66C2763.14 3229.97 2763.06 3230.34 2763.09 3230.7C2763.14 3231.08 2763.3 3231.42 2763.56 3231.7C2763.82 3231.97 2764.16 3232.15 2764.53 3232.22C2772.29 3234.04 2780.2 3235.14 2788.16 3235.51ZM2801.75 3220.41C2802.92 3220.32 2804.1 3220.58 2805.12 3221.17C2805.48 3221.35 2805.78 3221.63 2805.98 3221.97C2806.19 3222.31 2806.3 3222.71 2806.3 3223.11C2806.39 3224.16 2806.24 3225.22 2805.84 3226.21C2805.44 3227.19 2804.82 3228.06 2804.03 3228.76C2799.38 3232.73 2787.15 3233.07 2770.27 3229.86C2780.22 3224.89 2790.95 3221.66 2802 3220.32L2801.75 3220.41Z" fill="#90CAF9"/>
<path d="M2764.86 3231.88H2765.54C2774.65 3228.09 2792.97 3212.39 2791.79 3203.78C2791.46 3202.28 2790.62 3200.95 2789.43 3199.99C2788.23 3199.04 2786.74 3198.53 2785.2 3198.55C2783.45 3198.22 2781.64 3198.28 2779.91 3198.71C2778.17 3199.15 2776.55 3199.96 2775.16 3201.08C2765.46 3208.59 2763.18 3228.93 2763.01 3229.69C2762.93 3230 2762.92 3230.32 2763 3230.63C2763.07 3230.94 2763.22 3231.22 2763.43 3231.46C2763.63 3231.63 2763.86 3231.75 2764.1 3231.82C2764.35 3231.9 2764.61 3231.92 2764.86 3231.88ZM2783.52 3201.75H2784.53C2787.82 3202.26 2787.99 3203.53 2787.99 3203.95C2788.75 3209.1 2776.26 3221.59 2766.89 3226.57C2767.79 3218.01 2771.4 3209.97 2777.19 3203.61C2779.06 3202.26 2781.39 3201.68 2783.69 3202.01L2783.52 3201.75Z" fill="#90CAF9"/>
<path d="M2730.85 3189.94L2663.33 3192.81C2661.88 3192.82 2660.48 3193.37 2659.41 3194.35C2658.33 3195.33 2657.66 3196.68 2657.51 3198.13L2641.31 3292.4C2641.22 3294 2641.44 3295.61 2641.98 3297.12C2642.51 3298.64 2643.34 3300.03 2644.41 3301.22C2645.49 3302.42 2646.79 3303.38 2648.24 3304.07C2649.69 3304.76 2651.26 3305.15 2652.87 3305.23H2654.22C2683.67 3303.71 2697.85 3301.51 2735.16 3300.25C2758.03 3299.49 2827.99 3307.76 2859.22 3300.67C2890.45 3293.58 2884.54 3262.61 2871.12 3262.86C2827.74 3263.7 2777.69 3235.43 2752.96 3202.34C2748.66 3199.56 2735.58 3189.69 2730.85 3189.94Z" fill="#263238"/>
<path d="M1937.93 2276.58L1972.37 2218.09C1973.15 2216.86 1973.43 2215.37 1973.17 2213.93C1972.9 2212.49 1972.1 2211.21 1970.93 2210.33L1900.71 2145.6C1898.1 2143.75 1894.88 2143.01 1891.72 2143.51C1888.57 2144.02 1885.74 2145.73 1883.83 2148.3L1883.07 2149.48C1868.39 2174.8 1862.57 2188.13 1843.41 2220.12C1831.59 2239.78 1786.52 2294.39 1775.89 2324.18C1765.25 2353.98 1794.12 2366.38 1801.21 2354.74C1824.08 2317.77 1874.97 2291.1 1916.33 2287.89C1920.29 2286.37 1935.57 2280.72 1937.93 2276.58Z" fill="#263238"/>
<path opacity="0.2" d="M2758.37 3046.55L2746.13 3136.09L2671.18 3128.75L2683.34 3039.29L2758.37 3046.55Z" fill="black"/>
<path opacity="0.2" d="M2148.84 2280.89L2114.24 2358.95L2009.92 2312.87L2036.51 2238.52L2148.84 2280.89Z" fill="black"/>
<path d="M2856.35 1290.56C2899.14 1363.31 2846.82 1424.67 2803.1 1642.08L2521.04 1642.84C2525.6 1525.69 2525.09 1431 2475.13 1200.51C2473.83 1194.83 2473.83 1188.93 2475.13 1183.25C2476.44 1177.57 2479.01 1172.26 2482.65 1167.72C2486.3 1163.17 2490.92 1159.51 2496.18 1157C2501.44 1154.5 2507.2 1153.21 2513.02 1153.24C2536.31 1153.24 2565.6 1154 2595.39 1157.04C2642.38 1160.88 2689.05 1167.96 2735.07 1178.22C2760.03 1184.24 2784.56 1191.91 2808.5 1201.18C2823.02 1206.08 2840.49 1245.57 2856.35 1290.56Z" fill="#263238"/>
<path d="M2813.56 1656.76C2813.56 1656.76 2971.98 2114.79 2968.18 2335.07C2965.99 2461.24 2956.45 2696.38 2918.38 2861.71C2887.33 2996.75 2760.73 3082.84 2760.73 3082.84L2659.45 3076.84C2659.45 3076.84 2604.59 2870.91 2614.13 2788.96C2633.12 2625.82 2689.41 2503.27 2682.58 2353.47C2671.77 2108.21 2599.19 1652.96 2599.19 1652.96L2813.56 1656.76Z" fill="#90CAF9"/>
<path d="M2639.11 3103.26L2782.17 3111.7L2795.16 3068.74L2635.31 3053.97L2639.11 3103.26Z" fill="#263238"/>
<path opacity="0.2" d="M2657.17 2582.1C2657.17 2582.1 2657.17 2581.26 2658.02 2581.34C2747.9 2589.78 2809.93 2460.4 2795.16 2283.25L2747.48 1831.72L2657.17 2582.1Z" fill="black"/>
<path d="M2742.5 1652.96C2742.5 1652.96 2868.42 2458.38 2606.62 2549.02C2468.46 2601.35 2352.24 2544.63 2214.59 2483.69C2135 2448.5 2035.58 2353.21 2035.58 2353.21L2073.81 2249.15C2142.57 2230.56 2214.53 2226.93 2284.81 2238.52C2419 2259.28 2424.66 2297.6 2472.34 2268.65C2572.61 2020.86 2400.1 1824.97 2517.33 1652.54L2742.5 1652.96Z" fill="#90CAF9"/>
<path d="M2081.32 2229.4L2030.18 2364.36L2067.82 2393.14L2128.59 2232.53L2081.32 2229.4Z" fill="#263238"/>
<path d="M2060.23 1501.64C2047.48 1520.46 1982.83 1507.71 1982.83 1507.71L1969.08 1427.62L2048.49 1459.44L2060.23 1501.64Z" fill="#FFB573"/>
<path d="M1985.11 1423.49L1997.43 1506.7L1949.75 1513.79C1947.16 1514.03 1944.58 1513.29 1942.51 1511.73C1940.44 1510.17 1939.01 1507.9 1938.52 1505.35L1920.21 1446.27C1919.9 1444.9 1920.13 1443.46 1920.85 1442.25C1921.57 1441.04 1922.73 1440.15 1924.09 1439.77L1985.11 1423.49Z" fill="#FFB573"/>
<path d="M1963.76 1461.21L1990.93 1466.02L2016.68 1446.7L2006.72 1439.61C1999.97 1434.8 1995.22 1427.68 1993.38 1419.6C1991.47 1411.14 1990.31 1402.53 1989.92 1393.86V1390.99C1989.6 1388.45 1988.45 1386.08 1986.65 1384.25C1984.85 1382.42 1982.5 1381.23 1979.96 1380.87L1973.21 1385.84C1968.99 1395.04 1972.03 1405.76 1971.52 1412.94L1970.43 1426.86L1959.54 1431.59L1963.76 1461.21Z" fill="#FFB573"/>
<path d="M2488.71 1184.64L2329.03 1404.07L2035.75 1461.97V1510.08C2035.75 1510.08 2311.39 1530.5 2373.34 1494.46C2435.29 1458.43 2539.18 1239.83 2539.18 1239.83L2488.71 1184.64Z" fill="#FFB573"/>
<path d="M2486.86 762.648C2419.85 740.198 2342.11 781.806 2311.48 845.443C2280.84 909.079 2291.56 987.147 2326.08 1048.76C2336.46 1067.41 2348.87 1084.96 2357.39 1104.46C2366.86 1123.79 2368.94 1145.91 2363.21 1166.66C2356.29 1186.83 2349.2 1199.75 2324.22 1196.54C2324.22 1196.54 2324.22 1182.7 2333.76 1184.39C2333.76 1184.39 2313.5 1195.61 2305.57 1188.27C2314.77 1202.45 2339.33 1197.3 2347.18 1182.28C2358.91 1159.91 2337.3 1129.61 2311.98 1129.86C2286.67 1130.12 2266.07 1155.77 2266.92 1181.01C2267.97 1193.63 2272.46 1205.72 2279.9 1215.97C2287.34 1226.22 2297.44 1234.24 2309.12 1239.16C2302.27 1240.29 2295.25 1239.12 2289.15 1235.84C2283.04 1232.55 2278.19 1227.34 2275.36 1221.01C2286.83 1251.06 2324.31 1264.31 2355.96 1258.4C2387.61 1252.49 2414.36 1232.24 2439.17 1211.73C2472.93 1184.05 2507.45 1149.02 2506.69 1105.73C2505.93 1073.4 2485.17 1045.64 2467.7 1018.37C2450.23 991.114 2434.95 957.861 2446.09 927.562C2455.46 901.821 2480.95 886.291 2503.4 870.593C2519.6 859.368 2552.52 834.302 2548.64 810.586C2544.67 787.968 2505.85 768.978 2486.86 762.648Z" fill="#263238"/>
<path d="M2335.87 1513.79L2291.64 1396.73L2301.77 1397.58C2309.97 1398.26 2318.18 1396.57 2325.44 1392.71C2332.7 1388.85 2338.7 1382.98 2342.71 1375.8C2376.46 1315.71 2463.65 1163.2 2488.21 1155.61C2523.23 1145.23 2559.27 1173.25 2572.61 1214.69C2582.65 1245.15 2479.77 1375.8 2432.34 1450.07C2390.22 1515.82 2335.87 1513.79 2335.87 1513.79Z" fill="#263238"/>
<path d="M1904.51 2315.07V2316C1905.13 2317.62 1906.15 2319.06 1907.48 2320.18C1908.81 2321.3 1910.4 2322.07 1912.11 2322.41C1913.13 2322.73 1914.22 2322.78 1915.27 2322.56C1916.32 2322.34 1917.29 2321.85 1918.1 2321.14C1925.19 2314.64 1920.63 2287.38 1920.21 2284.68C1920.16 2284.33 1920.01 2284.01 1919.76 2283.75C1919.52 2283.49 1919.21 2283.32 1918.86 2283.25C1918.53 2283.21 1918.2 2283.25 1917.89 2283.37C1917.58 2283.48 1917.3 2283.68 1917.09 2283.92C1911.35 2292.03 1902.23 2306.46 1904.51 2315.07ZM1917.51 2289.75C1919.03 2300.55 1919.7 2315.07 1915.74 2318.61C1915.32 2318.84 1914.86 2318.96 1914.39 2318.96C1913.91 2318.96 1913.45 2318.84 1913.03 2318.61C1911.9 2318.4 1910.84 2317.9 1909.95 2317.16C1909.07 2316.42 1908.38 2315.47 1907.97 2314.39C1906.45 2309.83 1909.66 2300.55 1917.51 2289.58V2289.75Z" fill="#90CAF9"/>
<path d="M1917.59 2288.23C1919.79 2297.34 1928.4 2312.87 1935.99 2314.73C1937.38 2315.01 1938.81 2314.81 1940.07 2314.17C1941.33 2313.52 1942.33 2312.47 1942.91 2311.19C1943.57 2309.98 1943.96 2308.65 1944.05 2307.28C1944.14 2305.9 1943.92 2304.53 1943.42 2303.25C1939.96 2292.79 1920.04 2284.18 1919.2 2283.76C1918.92 2283.61 1918.62 2283.53 1918.31 2283.53C1918 2283.53 1917.7 2283.61 1917.42 2283.76C1917.18 2283.96 1916.98 2284.22 1916.87 2284.51C1916.75 2284.81 1916.71 2285.13 1916.75 2285.44C1916.96 2286.39 1917.24 2287.32 1917.59 2288.23ZM1940.55 2305.11C1940.72 2305.85 1940.74 2306.63 1940.61 2307.38C1940.48 2308.13 1940.2 2308.85 1939.79 2309.5C1938.69 2311.52 1937.59 2311.52 1936.75 2311.35C1931.6 2310.34 1923.75 2297.6 1921.22 2288.74C1927.72 2292.03 1938.1 2298.19 1940.3 2304.6C1940.24 2304.77 1940.24 2304.95 1940.3 2305.11H1940.55Z" fill="#90CAF9"/>
<path d="M2520.03 1628.57L2512.18 1656C2511.16 1658.11 2513.61 1660.31 2517.16 1660.22H2808.33C2811.12 1660.22 2813.39 1658.79 2813.56 1657.1L2816.26 1629.67C2816.26 1627.81 2814.07 1626.13 2811.03 1626.21H2524.92C2523.97 1626.14 2523.01 1626.32 2522.15 1626.73C2521.29 1627.15 2520.56 1627.78 2520.03 1628.57Z" fill="#90CAF9"/>
<path opacity="0.5" d="M2520.03 1628.57L2512.18 1656C2511.16 1658.11 2513.61 1660.31 2517.16 1660.22H2808.33C2811.12 1660.22 2813.39 1658.79 2813.56 1657.1L2816.26 1629.67C2816.26 1627.81 2814.07 1626.13 2811.03 1626.21H2524.92C2523.97 1626.14 2523.01 1626.32 2522.15 1626.73C2521.29 1627.15 2520.56 1627.78 2520.03 1628.57Z" fill="white"/>
<path d="M2575.9 1662.75H2567.46C2565.85 1662.75 2564.5 1661.91 2564.67 1660.9L2568.47 1625.2C2568.47 1624.18 2570.07 1623.34 2571.76 1623.34H2580.2C2581.81 1623.34 2583.07 1624.18 2582.99 1625.28L2579.19 1660.9C2578.68 1661.91 2577.16 1662.84 2575.9 1662.75Z" fill="#90CAF9"/>
<path d="M2785.8 1662.75H2777.36C2775.84 1662.75 2774.49 1661.91 2774.65 1660.9L2778.45 1625.28C2778.45 1624.18 2779.97 1623.34 2781.58 1623.34H2790.02C2791.62 1623.34 2792.97 1624.18 2792.8 1625.2L2789 1660.81C2788.83 1661.91 2787.48 1662.75 2785.8 1662.75Z" fill="#90CAF9"/>
<path d="M2689.5 1662.59H2681.06C2679.45 1662.59 2678.1 1661.74 2678.27 1660.73L2682.07 1625.11C2682.07 1624.02 2683.67 1623.17 2685.28 1623.17H2693.72C2695.32 1623.17 2696.59 1624.02 2696.5 1625.03L2692.62 1660.64C2692.62 1661.74 2691.19 1662.59 2689.5 1662.59Z" fill="#90CAF9"/>
<path d="M2608.56 1003.44C2617.51 1049.43 2626.28 1132.48 2595.06 1157.46C2595.06 1157.46 2607.55 1204.64 2691.02 1217.22C2783.18 1231.06 2734.82 1178.56 2734.82 1178.56C2684.6 1158.73 2685.87 1122.44 2694.48 1089.02L2608.56 1003.44Z" fill="#FFB573"/>
<path d="M2595.39 1157.04C2639.93 1159.86 2684.19 1166.01 2727.81 1175.44L2790.94 1194.26C2802.17 1216.88 2783.77 1263.38 2730.94 1272.24C2730.94 1272.24 2597.84 1290.56 2558.6 1153.5L2595.39 1157.04Z" fill="#FFB573"/>
<path opacity="0.2" d="M2643.42 1038.46L2694.05 1089.1C2691.92 1096.94 2690.54 1104.97 2689.92 1113.07C2670.68 1107.42 2639.79 1086.23 2637.68 1065.98C2637.7 1056.51 2639.65 1047.15 2643.42 1038.46Z" fill="black"/>
<path d="M2552.18 945.37C2574.8 1016.77 2582.73 1047.49 2629.07 1075.6C2698.11 1117.8 2780.99 1074.58 2780.14 997.95C2779.47 928.913 2742.75 823.753 2664.35 812.275C2647.11 809.691 2629.5 811.562 2613.2 817.708C2596.89 823.853 2582.43 834.07 2571.18 847.386C2559.94 860.701 2552.29 876.672 2548.97 893.779C2545.64 910.886 2546.75 928.559 2552.18 945.117V945.37Z" fill="#FFB573"/>
<path d="M2722.58 934.229C2730.56 946.762 2740.25 958.123 2751.36 967.989C2748.76 970.802 2745.58 973.015 2742.04 974.473C2738.5 975.931 2734.68 976.598 2730.85 976.429L2722.58 934.229Z" fill="#ED893E"/>
<path d="M2714.56 1014.58C2717.42 1014.26 2720.24 1013.7 2723 1012.89C2723.22 1012.84 2723.42 1012.75 2723.6 1012.62C2723.79 1012.49 2723.94 1012.33 2724.06 1012.14C2724.17 1011.95 2724.25 1011.74 2724.29 1011.52C2724.33 1011.3 2724.32 1011.08 2724.27 1010.86C2724.15 1010.42 2723.86 1010.04 2723.47 1009.8C2723.08 1009.57 2722.61 1009.49 2722.16 1009.6C2714.95 1011.58 2707.39 1011.85 2700.06 1010.39C2692.73 1008.92 2685.85 1005.76 2679.96 1001.16C2679.61 1000.81 2679.14 1000.62 2678.65 1000.62C2678.16 1000.62 2677.69 1000.81 2677.34 1001.16C2677.18 1001.32 2677.04 1001.52 2676.95 1001.74C2676.86 1001.95 2676.81 1002.19 2676.81 1002.42C2676.81 1002.66 2676.86 1002.89 2676.95 1003.11C2677.04 1003.33 2677.18 1003.52 2677.34 1003.69C2682.53 1007.86 2688.48 1010.97 2694.87 1012.84C2701.26 1014.71 2707.95 1015.3 2714.56 1014.58Z" fill="#263238"/>
<path d="M2527.62 802.822C2518.32 808.838 2510.6 816.998 2505.11 826.618C2499.61 836.238 2496.51 847.035 2496.06 858.103C2495.67 862.335 2496.34 866.597 2498 870.509C2498.83 872.445 2500.16 874.128 2501.85 875.388C2503.54 876.647 2505.53 877.439 2507.62 877.683C2514.03 877.683 2518.76 871.944 2522.3 866.543L2538.68 841.223C2545.42 832.998 2551.09 823.952 2555.56 814.3C2561.04 797.674 2537.67 796.408 2527.62 802.822Z" fill="#90CAF9"/>
<path d="M2535.64 819.617C2490.82 871.437 2470.74 1014.83 2602.06 1054.83C2624 1037.45 2588.56 1005.8 2573.53 965.794C2563.66 939.631 2613.71 890.764 2633.2 870.678C2652.7 850.591 2670.68 821.642 2698.19 826.284C2705.17 828.619 2712.69 828.825 2719.8 826.875C2741.66 817 2731.02 803.919 2719.8 794.804C2702.58 782.062 2682.08 774.507 2660.72 773.029C2637.67 770.314 2614.3 773.123 2592.55 781.223C2570.81 789.324 2551.3 802.485 2535.64 819.617Z" fill="#263238"/>
<path d="M2681.4 802.23C2734.14 846.202 2664.52 847.299 2627.63 875.15C2592.27 901.905 2617.08 945.707 2557.25 966.047C2508.38 980.311 2497.07 971.702 2483.57 962.249C2500.3 959.353 2515.61 951.004 2527.1 938.501C2538.6 925.999 2545.63 910.046 2547.12 893.127C2551.25 861.056 2621.14 751.254 2681.4 802.23Z" fill="#263238"/>
<path d="M2544.25 1005.38C2552.51 1017.28 2565.12 1025.46 2579.36 1028.17C2598.26 1031.46 2605.52 1014.16 2599.02 997.275C2592.86 982.084 2575.73 962.081 2557.41 966.386C2551.12 968.015 2545.72 972.075 2542.42 977.677C2539.11 983.278 2538.16 989.962 2539.77 996.263C2540.64 999.572 2542.16 1002.67 2544.25 1005.38Z" fill="#FFB573"/>
<path d="M2672.36 806.704C2682.58 832.699 2712.03 829.238 2733.81 856.414C2747.23 873.294 2773.56 821.22 2737.69 800.712C2701.82 780.203 2656.33 766.024 2672.36 806.704Z" fill="#263238"/>
<path d="M2641.31 916.422C2642.06 916.502 2642.81 916.341 2643.47 915.962C2644.12 915.582 2644.63 915.004 2644.93 914.312C2651.86 898.951 2672.62 895.069 2672.79 895.069C2673.71 894.866 2674.53 894.315 2675.06 893.53C2675.59 892.745 2675.81 891.786 2675.66 890.849C2675.47 889.934 2674.93 889.128 2674.16 888.607C2673.39 888.085 2672.44 887.89 2671.52 888.064C2670.42 888.064 2646.79 893.043 2638.35 911.611C2637.98 912.475 2637.95 913.451 2638.28 914.333C2638.61 915.215 2639.27 915.934 2640.12 916.337H2641.31V916.422Z" fill="#263238"/>
<path d="M2751.02 885.364C2751.64 885.408 2752.26 885.282 2752.81 885C2753.36 884.717 2753.82 884.288 2754.15 883.76C2754.42 883.381 2754.6 882.951 2754.7 882.496C2754.8 882.042 2754.81 881.572 2754.72 881.115C2754.64 880.658 2754.46 880.224 2754.2 879.837C2753.94 879.45 2753.61 879.12 2753.22 878.865C2748.54 875.627 2743.16 873.561 2737.52 872.841C2731.88 872.121 2726.15 872.769 2720.81 874.729C2720.37 874.903 2719.96 875.167 2719.62 875.503C2719.29 875.84 2719.02 876.243 2718.85 876.687C2718.67 877.131 2718.59 877.606 2718.61 878.082C2718.63 878.559 2718.75 879.026 2718.95 879.456C2719.32 880.316 2720.02 880.994 2720.89 881.342C2721.76 881.69 2722.73 881.679 2723.59 881.313C2727.79 879.846 2732.28 879.402 2736.68 880.019C2741.09 880.635 2745.28 882.294 2748.91 884.857C2749.57 885.177 2750.29 885.349 2751.02 885.364Z" fill="#263238"/>
<path d="M3097.98 1347.36L3048.53 1375.46L2997.13 1486.02C2997.13 1486.02 3046.75 1517.59 3085.92 1492.02C3125.08 1466.44 3097.98 1347.36 3097.98 1347.36Z" fill="#90CAF9"/>
<path opacity="0.5" d="M3097.98 1347.36L3048.53 1375.46L2997.13 1486.02C2997.13 1486.02 3046.75 1517.59 3085.92 1492.02C3125.08 1466.44 3097.98 1347.36 3097.98 1347.36Z" fill="white"/>
<path d="M2233.16 1381.54L2291.64 1398.42L2347.09 1513.12C2347.09 1513.12 2302.53 1554.39 2254.26 1514.97C2218.13 1485.1 2233.16 1381.54 2233.16 1381.54Z" fill="#90CAF9"/>
<g opacity="0.5">
<path d="M2233.16 1381.54L2291.64 1398.42L2347.09 1513.12C2347.09 1513.12 2302.53 1554.39 2254.26 1514.97C2218.13 1485.1 2233.16 1381.54 2233.16 1381.54Z" fill="white"/>
</g>
<path d="M2747.65 913.973C2751.7 913.214 2756.09 917.771 2757.02 924.017C2757.94 930.262 2755.67 936.001 2751.61 936.676C2747.56 937.352 2743.17 932.879 2742.25 926.633C2741.32 920.388 2743.6 914.564 2747.65 913.973Z" fill="#263238"/>
<path d="M2760.14 907.812L2745.88 914.818C2754.48 920.894 2760.14 907.812 2760.14 907.812Z" fill="#263238"/>
<path d="M2677.18 928.491C2681.23 927.731 2685.62 932.289 2686.54 938.534C2687.47 944.78 2685.19 950.519 2681.14 951.194C2677.09 951.869 2672.7 947.396 2671.77 941.151C2670.85 934.905 2672.96 929.251 2677.18 928.491Z" fill="#263238"/>
<path d="M2689.5 922.329L2675.23 929.334C2683.84 935.411 2689.5 922.329 2689.5 922.329Z" fill="#263238"/>
<path d="M2319.83 1251.4C2311.89 1251.44 2304.01 1249.95 2296.62 1247.01C2270.46 1236.29 2258.31 1209.11 2262.86 1172.32C2263.01 1171.21 2263.59 1170.21 2264.48 1169.53C2265.36 1168.84 2266.48 1168.54 2267.59 1168.69C2268.14 1168.75 2268.68 1168.92 2269.16 1169.2C2269.65 1169.47 2270.07 1169.84 2270.41 1170.28C2270.75 1170.72 2271 1171.22 2271.14 1171.76C2271.27 1172.3 2271.3 1172.86 2271.22 1173.41C2266.83 1206.08 2277.13 1230.04 2299.49 1239.16C2312.47 1243.6 2326.53 1243.82 2339.64 1239.79C2352.76 1235.76 2364.26 1227.68 2372.5 1216.71C2393.68 1188.52 2386.76 1148.52 2353.76 1106.99C2267.34 998.541 2273.08 940.897 2285.31 895.322C2303.04 829.154 2354.94 753.364 2501.8 767.965C2502.92 768.077 2503.94 768.629 2504.66 769.499C2505.37 770.37 2505.71 771.488 2505.59 772.607C2505.48 773.726 2504.93 774.755 2504.06 775.467C2503.19 776.179 2502.07 776.517 2500.95 776.405C2360.09 762.395 2310.3 834.64 2293.42 897.601C2281.26 943.176 2276.54 996.431 2360.34 1101.84C2410.98 1165.4 2390.47 1207 2379.25 1221.86C2372.23 1230.96 2363.23 1238.34 2352.94 1243.46C2342.65 1248.58 2331.33 1251.29 2319.83 1251.4Z" fill="#263238"/>
<defs>
<filter id="filter0_f_2108_1136" x="1077.44" y="239.443" width="5261.11" height="4291.11" filterUnits="userSpaceOnUse" color-interpolation-filters="sRGB">
<feFlood flood-opacity="0" result="BackgroundImageFix"/>
<feBlend mode="normal" in="SourceGraphic" in2="BackgroundImageFix" result="shape"/>
<feGaussianBlur stdDeviation="284.278" result="effect1_foregroundBlur_2108_1136"/>
</filter>
<linearGradient id="paint0_linear_2108_1136" x1="3708" y1="808" x2="3708" y2="3962" gradientUnits="userSpaceOnUse">
<stop stop-color="#16B6F0" stop-opacity="0.36"/>
<stop offset="1" stop-color="#1653F0" stop-opacity="0.6"/>
</linearGradient>
<linearGradient id="paint1_linear_2108_1136" x1="1049.5" y1="3665.68" x2="1049.5" y2="6441.82" gradientUnits="userSpaceOnUse">
<stop stop-color="#EAF0FF" stop-opacity="0.05"/>
<stop offset="1" stop-color="#EAF0FF"/>
</linearGradient>
<clipPath id="clip0_2108_1136">
<rect width="5371" height="3529" fill="white"/>
</clipPath>
</defs>
</svg>
