<svg width="5371" height="3529" viewBox="0 0 5371 3529" fill="none" xmlns="http://www.w3.org/2000/svg">
<g clip-path="url(#clip0_2108_1082)">
<rect width="5371" height="3529" fill="#EAF0FF"/>
<g filter="url(#filter0_f_2108_1082)">
<ellipse cx="3708" cy="2385" rx="2062" ry="1577" fill="url(#paint0_linear_2108_1082)" fill-opacity="0.5"/>
</g>
<rect y="589" width="2099" height="6141" fill="url(#paint1_linear_2108_1082)"/>
</g>
<path d="M4285.2 3023.92H4020.24V3025.92H4285.2V3023.92Z" fill="#EBEBEB"/>
<path d="M3335.76 3045.68H3266.24V3047.68H3335.76V3045.68Z" fill="#EBEBEB"/>
<path d="M4012.24 2949.68H3858.72V2951.68H4012.24V2949.68Z" fill="#EBEBEB"/>
<path d="M1451.2 2963.12H1105.68V2965.12H1451.2V2963.12Z" fill="#EBEBEB"/>
<path d="M1573.12 2963.12H1522.48V2965.12H1573.12V2963.12Z" fill="#EBEBEB"/>
<path d="M2487.2 2996.88H1737.76V2998.88H2487.2V2996.88Z" fill="#EBEBEB"/>
<path d="M2593.2 2538.4H1048.4C1036.28 2538.4 1024.67 2533.59 1016.1 2525.02C1007.53 2516.45 1002.72 2504.84 1002.72 2492.72V321.28C1002.83 309.234 1007.68 297.718 1016.24 289.238C1024.8 280.757 1036.35 276 1048.4 276H2593.2C2599.2 276 2605.14 277.182 2610.68 279.477C2616.22 281.773 2621.26 285.138 2625.5 289.379C2629.74 293.621 2633.11 298.657 2635.4 304.199C2637.7 309.741 2638.88 315.681 2638.88 321.68V2492.72C2638.88 2498.72 2637.7 2504.66 2635.4 2510.2C2633.11 2515.74 2629.74 2520.78 2625.5 2525.02C2621.26 2529.26 2616.22 2532.63 2610.68 2534.92C2605.14 2537.22 2599.2 2538.4 2593.2 2538.4ZM1048.4 277.6C1036.82 277.621 1025.72 282.23 1017.54 290.417C1009.35 298.604 1004.74 309.702 1004.72 321.28V2492.72C1004.74 2504.3 1009.35 2515.4 1017.54 2523.58C1025.72 2531.77 1036.82 2536.38 1048.4 2536.4H2593.2C2604.78 2536.38 2615.88 2531.77 2624.06 2523.58C2632.25 2515.4 2636.86 2504.3 2636.88 2492.72V321.28C2636.86 309.702 2632.25 298.604 2624.06 290.417C2615.88 282.23 2604.78 277.621 2593.2 277.6H1048.4Z" fill="#EBEBEB"/>
<path d="M4323.6 2538.4H2778.8C2766.69 2538.4 2755.07 2533.59 2746.5 2525.02C2737.93 2516.45 2733.12 2504.84 2733.12 2492.72V321.28C2733.23 309.234 2738.08 297.718 2746.64 289.238C2755.2 280.757 2766.75 276 2778.8 276H4323.6C4335.72 276 4347.33 280.813 4355.9 289.379C4364.47 297.946 4369.28 309.565 4369.28 321.68V2492.72C4369.28 2504.84 4364.47 2516.45 4355.9 2525.02C4347.33 2533.59 4335.72 2538.4 4323.6 2538.4ZM2778.8 277.6C2767.22 277.621 2756.12 282.23 2747.94 290.417C2739.75 298.604 2735.14 309.702 2735.12 321.28V2492.72C2735.14 2504.3 2739.75 2515.4 2747.94 2523.58C2756.12 2531.77 2767.22 2536.38 2778.8 2536.4H4323.6C4335.18 2536.38 4346.28 2531.77 4354.46 2523.58C4362.65 2515.4 4367.26 2504.3 4367.28 2492.72V321.28C4367.26 309.702 4362.65 298.604 4354.46 290.417C4346.28 282.23 4335.18 277.621 4323.6 277.6H2778.8Z" fill="#EBEBEB"/>
<path d="M4686 2895.2H686V2897.2H4686V2895.2Z" fill="#EBEBEB"/>
<path d="M1333.44 638.56H1319.04V1761.52H1333.44V638.56Z" fill="#E0E0E0"/>
<path d="M2229.84 638.56H2215.44V1761.52H2229.84V638.56Z" fill="#E0E0E0"/>
<path d="M2286.24 709.2H1262.64L1241.04 658.8H2307.84L2286.24 709.2Z" fill="#EBEBEB"/>
<path d="M2286.24 778.4H1262.64L1241.04 728H2307.84L2286.24 778.4Z" fill="#EBEBEB"/>
<path d="M2286.24 847.6H1262.64L1241.04 797.2H2307.84L2286.24 847.6Z" fill="#EBEBEB"/>
<path d="M2286.24 916.8H1262.64L1241.04 866.4H2307.84L2286.24 916.8Z" fill="#EBEBEB"/>
<path d="M2286.24 986H1262.64L1241.04 935.6H2307.84L2286.24 986Z" fill="#EBEBEB"/>
<path d="M2286.24 1055.2H1262.64L1241.04 1004.8H2307.84L2286.24 1055.2Z" fill="#EBEBEB"/>
<path d="M2286.24 1124.4H1262.64L1241.04 1074H2307.84L2286.24 1124.4Z" fill="#EBEBEB"/>
<path d="M2286.24 1193.6H1262.64L1241.04 1143.2H2307.84L2286.24 1193.6Z" fill="#EBEBEB"/>
<path d="M2286.24 1262.72H1262.64L1241.04 1212.32H2307.84L2286.24 1262.72Z" fill="#EBEBEB"/>
<path d="M2286.24 1331.92H1262.64L1241.04 1281.52H2307.84L2286.24 1331.92Z" fill="#EBEBEB"/>
<path d="M2286.24 1401.12H1262.64L1241.04 1350.72H2307.84L2286.24 1401.12Z" fill="#EBEBEB"/>
<path d="M2286.24 1470.32H1262.64L1241.04 1419.92H2307.84L2286.24 1470.32Z" fill="#EBEBEB"/>
<path d="M2286.24 1539.52H1262.64L1241.04 1489.12H2307.84L2286.24 1539.52Z" fill="#EBEBEB"/>
<path d="M2286.24 1608.72H1262.64L1241.04 1558.32H2307.84L2286.24 1608.72Z" fill="#EBEBEB"/>
<path d="M2286.24 1677.92H1262.64L1241.04 1627.52H2307.84L2286.24 1677.92Z" fill="#EBEBEB"/>
<path d="M2286.24 1747.12H1262.64L1241.04 1696.72H2307.84L2286.24 1747.12Z" fill="#EBEBEB"/>
<path d="M2307.84 1747.12H1241.04V1775.92H2307.84V1747.12Z" fill="#E0E0E0"/>
<path d="M2345.04 595.68H1203.84V662.88H2345.04V595.68Z" fill="#E0E0E0"/>
<path d="M1215.52 1272.16C1212.44 1272.16 1209.49 1270.94 1207.32 1268.76C1205.14 1266.59 1203.92 1263.64 1203.92 1260.56V868.56C1203.92 865.483 1205.14 862.533 1207.32 860.357C1209.49 858.182 1212.44 856.96 1215.52 856.96C1217.04 856.96 1218.55 857.26 1219.96 857.843C1221.37 858.426 1222.65 859.28 1223.72 860.357C1224.8 861.435 1225.65 862.713 1226.24 864.121C1226.82 865.528 1227.12 867.037 1227.12 868.56V1260.56C1227.12 1263.64 1225.9 1266.59 1223.72 1268.76C1221.55 1270.94 1218.6 1272.16 1215.52 1272.16Z" fill="#E0E0E0"/>
<path d="M1219.76 649.44H1211.36V882.24H1219.76V649.44Z" fill="#E0E0E0"/>
<path d="M4168.56 832.48H3305.44V2881.12H4168.56V832.48Z" fill="#EBEBEB"/>
<path d="M4131.84 869.6H3342.08V2881.2H4131.84V869.6Z" fill="#F0F0F0"/>
<path d="M4076.24 2033.12H3401.84V2769.84H4076.24V2033.12Z" fill="#FAFAFA"/>
<path d="M4076.24 960.4H3401.84V1697.12H4076.24V960.4Z" fill="#FAFAFA"/>
<path d="M3486.72 1771.2H3412V1965.92H3486.72V1771.2Z" fill="#EBEBEB"/>
<path d="M3486.72 1965.92H3501.44V1771.2H3486.72V1965.92Z" fill="#E0E0E0"/>
<path d="M3462 1847.68C3462 1853.91 3460.15 1860.01 3456.69 1865.19C3453.22 1870.37 3448.3 1874.41 3442.54 1876.8C3436.78 1879.19 3430.45 1879.81 3424.33 1878.59C3418.22 1877.38 3412.6 1874.38 3408.19 1869.97C3403.78 1865.56 3400.78 1859.94 3399.57 1853.83C3398.35 1847.71 3398.97 1841.38 3401.36 1835.62C3403.74 1829.86 3407.79 1824.94 3412.97 1821.47C3418.15 1818.01 3424.25 1816.16 3430.48 1816.16C3438.84 1816.16 3446.86 1819.48 3452.77 1825.39C3458.68 1831.3 3462 1839.32 3462 1847.68Z" fill="#E0E0E0"/>
<path d="M3456 1902.16H3439.76V1941.6H3456V1902.16Z" fill="#E0E0E0"/>
<path d="M3532.72 1847.68C3532.72 1858.4 3439.68 1867.04 3428.72 1867.04C3423.59 1867.04 3418.66 1865 3415.03 1861.37C3411.4 1857.74 3409.36 1852.81 3409.36 1847.68C3409.36 1842.55 3411.4 1837.62 3415.03 1833.99C3418.66 1830.36 3423.59 1828.32 3428.72 1828.32C3439.68 1828 3532.72 1837.04 3532.72 1847.68Z" fill="#F0F0F0"/>
<path d="M3726.72 763.92C3818.31 763.92 3892.56 689.671 3892.56 598.08C3892.56 506.489 3818.31 432.24 3726.72 432.24C3635.13 432.24 3560.88 506.489 3560.88 598.08C3560.88 689.671 3635.13 763.92 3726.72 763.92Z" fill="#E0E0E0"/>
<path d="M3879.44 617.743C3894.12 527.335 3832.72 442.149 3742.32 427.474C3651.91 412.798 3566.72 474.191 3552.05 564.599C3537.37 655.007 3598.76 740.193 3689.17 754.868C3779.58 769.544 3864.77 708.15 3879.44 617.743Z" fill="#EBEBEB"/>
<path opacity="0.8" d="M3848.72 592.24C3848.72 618.569 3840.91 644.306 3826.29 666.198C3811.66 688.089 3790.87 705.151 3766.54 715.227C3742.22 725.303 3715.45 727.939 3689.63 722.802C3663.81 717.666 3640.09 704.987 3621.47 686.37C3602.85 667.753 3590.17 644.033 3585.04 618.211C3579.9 592.388 3582.54 565.622 3592.61 541.297C3602.69 516.973 3619.75 496.182 3641.64 481.555C3663.53 466.927 3689.27 459.12 3715.6 459.12C3750.91 459.12 3784.77 473.145 3809.73 498.11C3834.69 523.075 3848.72 556.934 3848.72 592.24Z" fill="white"/>
<path d="M3708.4 604.8C3705.86 602.265 3704.44 598.826 3704.44 595.24C3704.44 591.654 3705.86 588.215 3708.4 585.68C3710.96 583.183 3714.39 581.785 3717.96 581.785C3721.53 581.785 3724.96 583.183 3727.52 585.68C3728.78 586.934 3729.79 588.424 3730.47 590.067C3731.16 591.71 3731.52 593.471 3731.52 595.252C3731.52 597.032 3731.18 598.795 3730.5 600.441C3729.82 602.086 3728.82 603.581 3727.56 604.84C3726.3 606.099 3724.81 607.097 3723.16 607.776C3721.52 608.456 3719.75 608.804 3717.97 608.8C3716.19 608.796 3714.43 608.441 3712.79 607.755C3711.14 607.068 3709.65 606.064 3708.4 604.8Z" fill="#E0E0E0"/>
<path d="M3715.52 590.64L3794.16 588.24L3794.4 596.4L3723.2 598.56L3715.52 722.4L3707.44 721.92L3715.52 590.64Z" fill="#E0E0E0"/>
<path d="M2686 3252.08C3542.66 3252.08 4237.12 3211.53 4237.12 3161.52C4237.12 3111.51 3542.66 3070.96 2686 3070.96C1829.34 3070.96 1134.88 3111.51 1134.88 3161.52C1134.88 3211.53 1829.34 3252.08 2686 3252.08Z" fill="#F5F5F5"/>
<path d="M1374 3072.72C1374 3070 1345.68 2797.36 1408.24 2565.44L1416.24 2567.52C1354.16 2798 1382 3069.2 1382 3071.92L1374 3072.72Z" fill="#263238"/>
<path d="M1441.84 2624.24C1441.84 2624.24 1355.68 2784.24 1372.88 2972.8C1372.88 2972.8 1408.72 2741.12 1441.84 2624.24Z" fill="#90CAF9"/>
<path d="M1270.56 2545.04C1270.56 2545.04 1396.32 2721.92 1374.56 2947.76C1374.4 2948 1325.52 2664 1270.56 2545.04Z" fill="#90CAF9"/>
<path d="M1374 3002.32C1374 3002.32 1401.2 2768.8 1256.72 2701.36C1256.32 2701.36 1333.36 2758.32 1374 3002.32Z" fill="#90CAF9"/>
<path d="M1388.8 2569.04L1386.16 2569.52C1385.2 2569.69 1384.29 2570.07 1383.48 2570.62C1382.68 2571.17 1381.99 2571.88 1381.48 2572.71C1380.97 2573.54 1380.64 2574.47 1380.5 2575.43C1380.37 2576.4 1380.45 2577.38 1380.72 2578.32L1383.92 2589.92C1384.24 2591.09 1384.86 2592.16 1385.72 2593.02C1386.58 2593.87 1387.65 2594.49 1388.83 2594.8C1390 2595.12 1391.23 2595.12 1392.41 2594.81C1393.58 2594.5 1394.66 2593.89 1395.52 2593.04L1399.84 2588.88C1400.68 2588.08 1401.71 2587.5 1402.83 2587.19C1403.96 2586.89 1405.14 2586.87 1406.27 2587.13C1407.4 2587.39 1408.45 2587.93 1409.33 2588.69C1410.2 2589.46 1410.87 2590.43 1411.28 2591.52L1417.12 2607.52C1417.47 2608.49 1418.03 2609.37 1418.76 2610.1C1419.49 2610.83 1420.37 2611.38 1421.35 2611.73C1422.32 2612.07 1423.36 2612.2 1424.38 2612.09C1425.41 2611.99 1426.4 2611.66 1427.28 2611.12L1440.72 2603.12C1441.62 2602.58 1442.38 2601.85 1442.96 2600.97C1443.54 2600.1 1443.91 2599.11 1444.05 2598.07C1444.18 2597.03 1444.09 2595.97 1443.76 2594.98C1443.43 2593.98 1442.89 2593.07 1442.16 2592.32L1440 2590.08C1439.08 2589.09 1438.46 2587.86 1438.22 2586.54C1437.98 2585.21 1438.12 2583.84 1438.64 2582.59C1439.15 2581.34 1440.01 2580.27 1441.12 2579.5C1442.23 2578.73 1443.53 2578.29 1444.88 2578.24H1456.56C1457.55 2578.22 1458.52 2577.98 1459.41 2577.56C1460.3 2577.13 1461.09 2576.52 1461.73 2575.76C1462.36 2575 1462.83 2574.12 1463.1 2573.17C1463.37 2572.22 1463.43 2571.22 1463.28 2570.24L1462 2560.24C1461.86 2559.14 1461.46 2558.09 1460.83 2557.17C1460.2 2556.26 1459.36 2555.5 1458.38 2554.98C1457.4 2554.45 1456.31 2554.17 1455.2 2554.15C1454.09 2554.14 1452.99 2554.39 1452 2554.88L1451.2 2555.28C1449.91 2555.87 1448.47 2556.07 1447.07 2555.83C1445.67 2555.59 1444.38 2554.94 1443.36 2553.95C1442.34 2552.96 1441.64 2551.69 1441.35 2550.3C1441.07 2548.91 1441.21 2547.47 1441.76 2546.16L1445.6 2537.36C1446.03 2536.37 1446.23 2535.29 1446.17 2534.21C1446.11 2533.13 1445.8 2532.08 1445.26 2531.14C1444.73 2530.2 1443.98 2529.4 1443.08 2528.8C1442.18 2528.2 1441.15 2527.81 1440.08 2527.68L1427.68 2526C1426.7 2525.85 1425.71 2525.91 1424.75 2526.18C1423.8 2526.45 1422.92 2526.92 1422.16 2527.55C1421.4 2528.19 1420.79 2528.98 1420.36 2529.87C1419.94 2530.76 1419.7 2531.73 1419.68 2532.72C1419.61 2534.24 1419.05 2535.69 1418.08 2536.86C1417.11 2538.04 1415.79 2538.86 1414.32 2539.22C1412.84 2539.58 1411.29 2539.46 1409.89 2538.86C1408.49 2538.27 1407.32 2537.23 1406.56 2535.92L1404.96 2533.04C1404.43 2532.12 1403.71 2531.33 1402.84 2530.74C1401.97 2530.14 1400.97 2529.74 1399.92 2529.58C1398.88 2529.42 1397.81 2529.49 1396.8 2529.8C1395.79 2530.11 1394.86 2530.64 1394.08 2531.36L1384.88 2540C1384.18 2540.66 1383.63 2541.45 1383.25 2542.33C1382.87 2543.21 1382.67 2544.16 1382.67 2545.12C1382.67 2546.08 1382.87 2547.03 1383.25 2547.91C1383.63 2548.79 1384.18 2549.58 1384.88 2550.24L1392.24 2557.04C1393.17 2557.93 1393.84 2559.05 1394.18 2560.29C1394.52 2561.54 1394.51 2562.85 1394.16 2564.08C1393.8 2565.32 1393.12 2566.44 1392.17 2567.31C1391.23 2568.18 1390.06 2568.78 1388.8 2569.04Z" fill="#90CAF9"/>
<path opacity="0.7" d="M1388.8 2569.04L1386.16 2569.52C1385.2 2569.69 1384.29 2570.07 1383.48 2570.62C1382.68 2571.17 1381.99 2571.88 1381.48 2572.71C1380.97 2573.54 1380.64 2574.47 1380.5 2575.43C1380.37 2576.4 1380.45 2577.38 1380.72 2578.32L1383.92 2589.92C1384.24 2591.09 1384.86 2592.16 1385.72 2593.02C1386.58 2593.87 1387.65 2594.49 1388.83 2594.8C1390 2595.12 1391.23 2595.12 1392.41 2594.81C1393.58 2594.5 1394.66 2593.89 1395.52 2593.04L1399.84 2588.88C1400.68 2588.08 1401.71 2587.5 1402.83 2587.19C1403.96 2586.89 1405.14 2586.87 1406.27 2587.13C1407.4 2587.39 1408.45 2587.93 1409.33 2588.69C1410.2 2589.46 1410.87 2590.43 1411.28 2591.52L1417.12 2607.52C1417.47 2608.49 1418.03 2609.37 1418.76 2610.1C1419.49 2610.83 1420.37 2611.38 1421.35 2611.73C1422.32 2612.07 1423.36 2612.2 1424.38 2612.09C1425.41 2611.99 1426.4 2611.66 1427.28 2611.12L1440.72 2603.12C1441.62 2602.58 1442.38 2601.85 1442.96 2600.97C1443.54 2600.1 1443.91 2599.11 1444.05 2598.07C1444.18 2597.03 1444.09 2595.97 1443.76 2594.98C1443.43 2593.98 1442.89 2593.07 1442.16 2592.32L1440 2590.08C1439.08 2589.09 1438.46 2587.86 1438.22 2586.54C1437.98 2585.21 1438.12 2583.84 1438.64 2582.59C1439.15 2581.34 1440.01 2580.27 1441.12 2579.5C1442.23 2578.73 1443.53 2578.29 1444.88 2578.24H1456.56C1457.55 2578.22 1458.52 2577.98 1459.41 2577.56C1460.3 2577.13 1461.09 2576.52 1461.73 2575.76C1462.36 2575 1462.83 2574.12 1463.1 2573.17C1463.37 2572.22 1463.43 2571.22 1463.28 2570.24L1462 2560.24C1461.86 2559.14 1461.46 2558.09 1460.83 2557.17C1460.2 2556.26 1459.36 2555.5 1458.38 2554.98C1457.4 2554.45 1456.31 2554.17 1455.2 2554.15C1454.09 2554.14 1452.99 2554.39 1452 2554.88L1451.2 2555.28C1449.91 2555.87 1448.47 2556.07 1447.07 2555.83C1445.67 2555.59 1444.38 2554.94 1443.36 2553.95C1442.34 2552.96 1441.64 2551.69 1441.35 2550.3C1441.07 2548.91 1441.21 2547.47 1441.76 2546.16L1445.6 2537.36C1446.03 2536.37 1446.23 2535.29 1446.17 2534.21C1446.11 2533.13 1445.8 2532.08 1445.26 2531.14C1444.73 2530.2 1443.98 2529.4 1443.08 2528.8C1442.18 2528.2 1441.15 2527.81 1440.08 2527.68L1427.68 2526C1426.7 2525.85 1425.71 2525.91 1424.75 2526.18C1423.8 2526.45 1422.92 2526.92 1422.16 2527.55C1421.4 2528.19 1420.79 2528.98 1420.36 2529.87C1419.94 2530.76 1419.7 2531.73 1419.68 2532.72C1419.61 2534.24 1419.05 2535.69 1418.08 2536.86C1417.11 2538.04 1415.79 2538.86 1414.32 2539.22C1412.84 2539.58 1411.29 2539.46 1409.89 2538.86C1408.49 2538.27 1407.32 2537.23 1406.56 2535.92L1404.96 2533.04C1404.43 2532.12 1403.71 2531.33 1402.84 2530.74C1401.97 2530.14 1400.97 2529.74 1399.92 2529.58C1398.88 2529.42 1397.81 2529.49 1396.8 2529.8C1395.79 2530.11 1394.86 2530.64 1394.08 2531.36L1384.88 2540C1384.18 2540.66 1383.63 2541.45 1383.25 2542.33C1382.87 2543.21 1382.67 2544.16 1382.67 2545.12C1382.67 2546.08 1382.87 2547.03 1383.25 2547.91C1383.63 2548.79 1384.18 2549.58 1384.88 2550.24L1392.24 2557.04C1393.17 2557.93 1393.84 2559.05 1394.18 2560.29C1394.52 2561.54 1394.51 2562.85 1394.16 2564.08C1393.8 2565.32 1393.12 2566.44 1392.17 2567.31C1391.23 2568.18 1390.06 2568.78 1388.8 2569.04Z" fill="white"/>
<path d="M1400.32 2942.24L1410.4 2864.24H1322.4L1332.4 2942.24C1311.87 2949.31 1294.06 2962.6 1281.45 2980.27C1268.83 2997.93 1262.03 3019.09 1262 3040.8C1262.78 3064.92 1268.62 3088.6 1279.12 3110.32C1284.11 3120.78 1291.97 3129.6 1301.79 3135.75C1311.61 3141.9 1322.97 3145.12 1334.56 3145.04H1398.56C1410.14 3145.13 1421.5 3141.91 1431.31 3135.76C1441.12 3129.61 1448.96 3120.78 1453.92 3110.32C1464.48 3088.62 1470.34 3064.93 1471.12 3040.8C1471.12 3019.03 1464.29 2997.81 1451.59 2980.12C1438.88 2962.44 1420.95 2949.19 1400.32 2942.24Z" fill="#90CAF9"/>
<path opacity="0.7" d="M1400.32 2942.24L1410.4 2864.24H1322.4L1332.4 2942.24C1311.87 2949.31 1294.06 2962.6 1281.45 2980.27C1268.83 2997.93 1262.03 3019.09 1262 3040.8C1262.78 3064.92 1268.62 3088.6 1279.12 3110.32C1284.11 3120.78 1291.97 3129.6 1301.79 3135.75C1311.61 3141.9 1322.97 3145.12 1334.56 3145.04H1398.56C1410.14 3145.13 1421.5 3141.91 1431.31 3135.76C1441.12 3129.61 1448.96 3120.78 1453.92 3110.32C1464.48 3088.62 1470.34 3064.93 1471.12 3040.8C1471.12 3019.03 1464.29 2997.81 1451.59 2980.12C1438.88 2962.44 1420.95 2949.19 1400.32 2942.24Z" fill="white"/>
<path d="M3149.44 2184.08V3140.16H3175.52L3198.72 2232.96H3229.44V2184.08H3149.44Z" fill="#263238"/>
<path d="M3172.56 3140.16H3197.44L3229.44 2184.16H3196.56L3172.56 3140.16Z" fill="#263238"/>
<g opacity="0.3">
<path d="M3177.36 3140.16H3197.44L3227.2 2234.08H3199.12L3177.36 3140.16Z" fill="white"/>
</g>
<path opacity="0.5" d="M3149.44 2184.08V3140.16H3175.52L3198.72 2232.96H3229.44V2184.08H3149.44Z" fill="white"/>
<path d="M1583.28 3140.16H1608.16L1640.16 2185.44H1607.28L1583.28 3140.16Z" fill="#263238"/>
<path opacity="0.3" d="M1583.28 3140.16H1608.16L1640.16 2185.44H1607.28L1583.28 3140.16Z" fill="white"/>
<path d="M1984.16 2185.44V3140.16H1957.84L1926.88 2231.76H1609.36L1586.16 3140.16H1560.16V2185.44H1984.16Z" fill="#263238"/>
<path opacity="0.5" d="M1984.16 2185.44V3140.16H1957.84L1926.88 2231.76H1609.36L1586.16 3140.16H1560.16V2185.44H1984.16Z" fill="white"/>
<path d="M1984.16 3140.16H2008.96L2016.96 2185.44H1984.16V3140.16Z" fill="#263238"/>
<path opacity="0.3" d="M1984.16 3140.16H2008.96L2016.96 2185.44H1984.16V3140.16Z" fill="white"/>
<path d="M3229.44 2185.44V2231.84H3516.16L3547.12 3140.16H3573.44V2185.44H3229.44Z" fill="#263238"/>
<path opacity="0.5" d="M3229.44 2185.44V2231.84H3516.16L3547.12 3140.16H3573.44V2185.44H3229.44Z" fill="white"/>
<path d="M3573.44 3140.16H3598.32L3606.32 2185.44H3573.44V3140.16Z" fill="#263238"/>
<g opacity="0.3">
<path d="M3573.44 3140.16H3598.32L3606.32 2185.44H3573.44V3140.16Z" fill="white"/>
</g>
<path d="M2004.64 2185.12H3649.84V2123.76H2004.64V2185.12Z" fill="#263238"/>
<path opacity="0.8" d="M2004.64 2185.12H3649.84V2123.76H2004.64V2185.12Z" fill="white"/>
<path d="M1516.64 2185.12H2042.88V2123.76H1516.64V2185.12Z" fill="#263238"/>
<path opacity="0.6" d="M1516.64 2185.12H2042.88V2123.76H1516.64V2185.12Z" fill="white"/>
<path d="M1882.64 2106.88V2115.36C1882.64 2117.48 1883.48 2119.52 1884.98 2121.02C1886.48 2122.52 1888.52 2123.36 1890.64 2123.36H2194.64C2196.58 2123.36 2198.44 2122.6 2199.82 2121.23C2201.19 2119.87 2201.98 2118.02 2202 2116.08V2108.08C2202 2106.13 2201.22 2104.26 2199.84 2102.88C2198.46 2101.5 2196.59 2100.72 2194.64 2100.72H2119.04C2117.04 2100.72 2115.06 2100.29 2113.24 2099.45C2111.43 2098.62 2109.81 2097.39 2108.51 2095.87C2107.21 2094.35 2106.26 2092.57 2105.71 2090.64C2105.17 2088.72 2105.05 2086.7 2105.36 2084.72L2131.92 1931.44H1959.12L1885.12 2095.12C1883.52 2098.84 1882.68 2102.83 1882.64 2106.88Z" fill="#263238"/>
<path opacity="0.2" d="M2202.08 2108V2116C2202.08 2116.96 2201.89 2117.9 2201.53 2118.79C2201.16 2119.67 2200.62 2120.47 2199.95 2121.15C2199.27 2121.82 2198.47 2122.36 2197.59 2122.73C2196.7 2123.09 2195.76 2123.28 2194.8 2123.28H1890.8C1888.68 2123.28 1886.64 2122.44 1885.14 2120.94C1883.64 2119.44 1882.8 2117.4 1882.8 2115.28V2106.8C1882.83 2104.54 1883.1 2102.29 1883.6 2100.08C1884.06 2098.19 1884.67 2096.34 1885.44 2094.56L1959.44 1930.88H2132.24L2105.44 2084C2105.32 2084.9 2105.32 2085.82 2105.44 2086.72C2105.5 2089.84 2106.62 2092.84 2108.61 2095.24C2110.6 2097.64 2113.35 2099.29 2116.4 2099.92C2117.36 2100.04 2118.32 2100.04 2119.28 2099.92H2194.96C2195.97 2099.94 2196.97 2100.16 2197.89 2100.59C2198.81 2101.01 2199.64 2101.63 2200.31 2102.39C2200.98 2103.15 2201.48 2104.04 2201.79 2105.01C2202.09 2105.97 2202.19 2106.99 2202.08 2108Z" fill="white"/>
<path d="M1875.44 2094.64L1949.44 1930.96H1959.2L1885.2 2094.64C1883.51 2098.5 1882.64 2102.67 1882.64 2106.88V2115.36C1882.64 2117.48 1883.48 2119.52 1884.98 2121.02C1886.48 2122.52 1888.52 2123.36 1890.64 2123.36H1880.88C1878.76 2123.36 1876.72 2122.52 1875.22 2121.02C1873.72 2119.52 1872.88 2117.48 1872.88 2115.36V2106.88C1872.88 2102.67 1873.75 2098.5 1875.44 2094.64Z" fill="#263238"/>
<path opacity="0.3" d="M1959.2 1930.96H2132L2125.2 1970.08H1941.52L1959.2 1930.96Z" fill="black"/>
<path d="M2422 1948H1684.8C1677.65 1948 1670.79 1945.16 1665.74 1940.1C1660.68 1935.05 1657.84 1928.19 1657.84 1921.04V1388.48C1657.84 1381.33 1660.68 1374.47 1665.74 1369.42C1670.79 1364.36 1677.65 1361.52 1684.8 1361.52H2422C2429.15 1361.52 2436.01 1364.36 2441.06 1369.42C2446.12 1374.47 2448.96 1381.33 2448.96 1388.48V1921.2C2448.92 1928.32 2446.06 1935.14 2441.01 1940.16C2435.96 1945.18 2429.12 1948 2422 1948Z" fill="#263238"/>
<g opacity="0.2">
<path d="M2422 1948H1684.8C1677.65 1948 1670.79 1945.16 1665.74 1940.1C1660.68 1935.05 1657.84 1928.19 1657.84 1921.04V1388.48C1657.84 1381.33 1660.68 1374.47 1665.74 1369.42C1670.79 1364.36 1677.65 1361.52 1684.8 1361.52H2422C2429.15 1361.52 2436.01 1364.36 2441.06 1369.42C2446.12 1374.47 2448.96 1381.33 2448.96 1388.48V1921.2C2448.92 1928.32 2446.06 1935.14 2441.01 1940.16C2435.96 1945.18 2429.12 1948 2422 1948Z" fill="white"/>
</g>
<path d="M2421.44 1377.84H1685.28C1677.19 1377.84 1670.64 1384.39 1670.64 1392.48V1832.72C1670.64 1840.81 1677.19 1847.36 1685.28 1847.36H2421.44C2429.53 1847.36 2436.08 1840.81 2436.08 1832.72V1392.48C2436.08 1384.39 2429.53 1377.84 2421.44 1377.84Z" fill="#90CAF9"/>
<path opacity="0.6" d="M2421.44 1377.84H1685.28C1677.19 1377.84 1670.64 1384.39 1670.64 1392.48V1832.72C1670.64 1840.81 1677.19 1847.36 1685.28 1847.36H2421.44C2429.53 1847.36 2436.08 1840.81 2436.08 1832.72V1392.48C2436.08 1384.39 2429.53 1377.84 2421.44 1377.84Z" fill="white"/>
<path d="M1668.48 1361.52H1684.48C1677.33 1361.52 1670.47 1364.36 1665.42 1369.42C1660.36 1374.47 1657.52 1381.33 1657.52 1388.48V1921.2C1657.52 1928.35 1660.36 1935.21 1665.42 1940.26C1670.47 1945.32 1677.33 1948.16 1684.48 1948.16H1668.48C1661.33 1948.16 1654.47 1945.32 1649.42 1940.26C1644.36 1935.21 1641.52 1928.35 1641.52 1921.2V1388.48C1641.52 1381.33 1644.36 1374.47 1649.42 1369.42C1654.47 1364.36 1661.33 1361.52 1668.48 1361.52Z" fill="#90CAF9"/>
<path opacity="0.3" d="M1668.48 1361.52H1684.48C1677.33 1361.52 1670.47 1364.36 1665.42 1369.42C1660.36 1374.47 1657.52 1381.33 1657.52 1388.48V1921.2C1657.52 1928.35 1660.36 1935.21 1665.42 1940.26C1670.47 1945.32 1677.33 1948.16 1684.48 1948.16H1668.48C1661.33 1948.16 1654.47 1945.32 1649.42 1940.26C1644.36 1935.21 1641.52 1928.35 1641.52 1921.2V1388.48C1641.52 1381.33 1644.36 1374.47 1649.42 1369.42C1654.47 1364.36 1661.33 1361.52 1668.48 1361.52Z" fill="white"/>
<g opacity="0.2">
<path d="M1988.8 1377.84H1960.48L1819.6 1847.28H1847.92L1988.8 1377.84Z" fill="white"/>
<path d="M1790.96 1847.28L1931.84 1377.84H1825.44L1684.56 1847.28H1790.96Z" fill="white"/>
</g>
<path opacity="0.2" d="M1935.2 2108V2116C1935.2 2118.05 1935.99 2120.03 1937.4 2121.52C1938.81 2123.01 1940.75 2123.9 1942.8 2124H2194.8C2196.73 2124 2198.58 2123.23 2199.95 2121.87C2201.31 2120.5 2202.08 2118.65 2202.08 2116.72V2108.72C2202.08 2106.78 2201.32 2104.92 2199.95 2103.54C2198.59 2102.17 2196.74 2101.38 2194.8 2101.36H2119.12C2118.16 2101.48 2117.2 2101.48 2116.24 2101.36H1942.8C1940.96 2101.43 1939.21 2102.12 1937.82 2103.33C1936.44 2104.54 1935.51 2106.19 1935.2 2108Z" fill="white"/>
<path opacity="0.2" d="M1883.36 2100H2116.24C2113.18 2099.38 2110.43 2097.73 2108.43 2095.33C2106.44 2092.93 2105.33 2089.92 2105.28 2086.8H1889.28L1883.36 2100Z" fill="black"/>
<path d="M2460.24 2104.8H2482.32C2482.85 2104.82 2483.37 2104.74 2483.86 2104.56C2484.36 2104.38 2484.81 2104.1 2485.2 2103.74C2485.58 2103.39 2485.89 2102.96 2486.12 2102.48C2486.34 2102 2486.46 2101.49 2486.48 2100.96V2079.68C2486.46 2079.15 2486.34 2078.64 2486.12 2078.16C2485.89 2077.68 2485.58 2077.25 2485.2 2076.9C2484.81 2076.54 2484.36 2076.26 2483.86 2076.08C2483.37 2075.9 2482.85 2075.82 2482.32 2075.84H2466.32C2465.42 2075.81 2464.54 2076.08 2463.8 2076.6C2463.06 2077.12 2462.52 2077.86 2462.24 2078.72L2456.08 2099.92C2455.92 2100.53 2455.92 2101.17 2456.06 2101.78C2456.2 2102.39 2456.49 2102.96 2456.89 2103.44C2457.3 2103.92 2457.82 2104.29 2458.4 2104.53C2458.98 2104.77 2459.61 2104.86 2460.24 2104.8Z" fill="#263238"/>
<path d="M2430 2104.8H2452C2453.07 2104.84 2454.11 2104.47 2454.91 2103.75C2455.7 2103.03 2456.18 2102.03 2456.24 2100.96V2079.68C2456.18 2078.61 2455.7 2077.61 2454.91 2076.89C2454.11 2076.17 2453.07 2075.8 2452 2075.84H2436C2435.1 2075.81 2434.22 2076.08 2433.48 2076.6C2432.74 2077.12 2432.2 2077.86 2431.92 2078.72L2425.68 2099.92C2425.52 2100.54 2425.51 2101.2 2425.66 2101.82C2425.81 2102.45 2426.11 2103.03 2426.54 2103.51C2426.96 2104 2427.5 2104.37 2428.11 2104.59C2428.71 2104.82 2429.36 2104.89 2430 2104.8Z" fill="#263238"/>
<path d="M2399.36 2104.8H2421.44C2421.97 2104.82 2422.49 2104.74 2422.98 2104.56C2423.48 2104.38 2423.93 2104.1 2424.32 2103.74C2424.7 2103.39 2425.01 2102.96 2425.23 2102.48C2425.46 2102 2425.58 2101.49 2425.6 2100.96V2079.68C2425.58 2079.15 2425.46 2078.64 2425.23 2078.16C2425.01 2077.68 2424.7 2077.25 2424.32 2076.9C2423.93 2076.54 2423.48 2076.26 2422.98 2076.08C2422.49 2075.9 2421.97 2075.82 2421.44 2075.84H2405.44C2404.54 2075.81 2403.66 2076.08 2402.92 2076.6C2402.18 2077.12 2401.64 2077.86 2401.36 2078.72L2395.2 2099.92C2395.04 2100.53 2395.04 2101.17 2395.18 2101.78C2395.32 2102.39 2395.61 2102.96 2396.01 2103.44C2396.42 2103.92 2396.94 2104.29 2397.52 2104.53C2398.1 2104.77 2398.73 2104.86 2399.36 2104.8Z" fill="#263238"/>
<path d="M2368.96 2104.8H2390.96C2392.03 2104.84 2393.07 2104.47 2393.87 2103.75C2394.66 2103.03 2395.14 2102.03 2395.2 2100.96V2079.68C2395.14 2078.61 2394.66 2077.61 2393.87 2076.89C2393.07 2076.17 2392.03 2075.8 2390.96 2075.84H2374.96C2374.06 2075.81 2373.18 2076.08 2372.44 2076.6C2371.7 2077.12 2371.16 2077.86 2370.88 2078.72L2364.64 2099.92C2364.48 2100.54 2364.47 2101.2 2364.62 2101.82C2364.77 2102.45 2365.07 2103.03 2365.5 2103.51C2365.92 2104 2366.46 2104.37 2367.07 2104.59C2367.67 2104.82 2368.32 2104.89 2368.96 2104.8Z" fill="#263238"/>
<path d="M2338.48 2104.8H2360.56C2361.09 2104.82 2361.61 2104.74 2362.1 2104.56C2362.6 2104.38 2363.05 2104.1 2363.44 2103.74C2363.82 2103.39 2364.13 2102.96 2364.36 2102.48C2364.58 2102 2364.7 2101.49 2364.72 2100.96V2079.68C2364.7 2079.15 2364.58 2078.64 2364.36 2078.16C2364.13 2077.68 2363.82 2077.25 2363.44 2076.9C2363.05 2076.54 2362.6 2076.26 2362.1 2076.08C2361.61 2075.9 2361.09 2075.82 2360.56 2075.84H2344.56C2343.66 2075.81 2342.78 2076.08 2342.04 2076.6C2341.3 2077.12 2340.76 2077.86 2340.48 2078.72L2334.32 2099.92C2334.16 2100.53 2334.16 2101.17 2334.3 2101.78C2334.44 2102.39 2334.73 2102.96 2335.13 2103.44C2335.54 2103.92 2336.06 2104.29 2336.64 2104.53C2337.22 2104.77 2337.85 2104.86 2338.48 2104.8Z" fill="#263238"/>
<path d="M2308.08 2104.8H2330.08C2331.15 2104.84 2332.19 2104.47 2332.99 2103.75C2333.78 2103.03 2334.26 2102.03 2334.32 2100.96V2079.68C2334.26 2078.61 2333.78 2077.61 2332.99 2076.89C2332.19 2076.17 2331.15 2075.8 2330.08 2075.84H2314.08C2313.18 2075.81 2312.3 2076.08 2311.56 2076.6C2310.82 2077.12 2310.28 2077.86 2310 2078.72L2303.76 2099.92C2303.6 2100.54 2303.59 2101.2 2303.74 2101.82C2303.89 2102.45 2304.19 2103.03 2304.62 2103.51C2305.04 2104 2305.58 2104.37 2306.19 2104.59C2306.79 2104.82 2307.44 2104.89 2308.08 2104.8Z" fill="#263238"/>
<path d="M2278 2104.8H2300.08C2300.61 2104.82 2301.13 2104.74 2301.62 2104.56C2302.12 2104.38 2302.57 2104.1 2302.96 2103.74C2303.34 2103.39 2303.65 2102.96 2303.88 2102.48C2304.1 2102 2304.22 2101.49 2304.24 2100.96V2079.68C2304.22 2079.15 2304.1 2078.64 2303.88 2078.16C2303.65 2077.68 2303.34 2077.25 2302.96 2076.9C2302.57 2076.54 2302.12 2076.26 2301.62 2076.08C2301.13 2075.9 2300.61 2075.82 2300.08 2075.84H2284.08C2283.18 2075.81 2282.3 2076.08 2281.56 2076.6C2280.82 2077.12 2280.28 2077.86 2280 2078.72L2273.84 2099.92C2273.68 2100.53 2273.68 2101.17 2273.82 2101.78C2273.96 2102.39 2274.25 2102.96 2274.65 2103.44C2275.06 2103.92 2275.58 2104.29 2276.16 2104.53C2276.74 2104.77 2277.37 2104.86 2278 2104.8Z" fill="#263238"/>
<path d="M2247.2 2104.8H2269.2C2270.27 2104.84 2271.31 2104.47 2272.11 2103.75C2272.9 2103.03 2273.38 2102.03 2273.44 2100.96V2079.68C2273.38 2078.61 2272.9 2077.61 2272.11 2076.89C2271.31 2076.17 2270.27 2075.8 2269.2 2075.84H2253.2C2252.3 2075.81 2251.42 2076.08 2250.68 2076.6C2249.94 2077.12 2249.4 2077.86 2249.12 2078.72L2242.88 2099.92C2242.72 2100.54 2242.71 2101.2 2242.86 2101.82C2243.01 2102.45 2243.31 2103.03 2243.74 2103.51C2244.16 2104 2244.7 2104.37 2245.31 2104.59C2245.91 2104.82 2246.56 2104.89 2247.2 2104.8Z" fill="#263238"/>
<path d="M2216.72 2104.8H2238.8C2239.33 2104.82 2239.85 2104.74 2240.34 2104.56C2240.84 2104.38 2241.29 2104.1 2241.68 2103.74C2242.06 2103.39 2242.37 2102.96 2242.6 2102.48C2242.82 2102 2242.94 2101.49 2242.96 2100.96V2079.68C2242.94 2079.15 2242.82 2078.64 2242.6 2078.16C2242.37 2077.68 2242.06 2077.25 2241.68 2076.9C2241.29 2076.54 2240.84 2076.26 2240.34 2076.08C2239.85 2075.9 2239.33 2075.82 2238.8 2075.84H2222.8C2221.9 2075.81 2221.02 2076.08 2220.28 2076.6C2219.54 2077.12 2219 2077.86 2218.72 2078.72L2212.56 2099.92C2212.4 2100.53 2212.4 2101.17 2212.54 2101.78C2212.68 2102.39 2212.97 2102.96 2213.37 2103.44C2213.78 2103.92 2214.3 2104.29 2214.88 2104.53C2215.46 2104.77 2216.09 2104.86 2216.72 2104.8Z" fill="#263238"/>
<path d="M2186.32 2104.8H2208.32C2209.39 2104.84 2210.43 2104.47 2211.23 2103.75C2212.02 2103.03 2212.5 2102.03 2212.56 2100.96V2079.68C2212.5 2078.61 2212.02 2077.61 2211.23 2076.89C2210.43 2076.17 2209.39 2075.8 2208.32 2075.84H2192.32C2191.43 2075.83 2190.57 2076.11 2189.85 2076.62C2189.13 2077.14 2188.59 2077.88 2188.32 2078.72L2182 2100C2181.85 2100.62 2181.86 2101.26 2182.01 2101.88C2182.17 2102.49 2182.47 2103.06 2182.9 2103.54C2183.32 2104.01 2183.86 2104.37 2184.45 2104.59C2185.05 2104.81 2185.69 2104.88 2186.32 2104.8Z" fill="#263238"/>
<path d="M2155.84 2104.8H2177.92C2178.45 2104.82 2178.97 2104.74 2179.46 2104.56C2179.96 2104.38 2180.41 2104.1 2180.8 2103.74C2181.18 2103.39 2181.49 2102.96 2181.71 2102.48C2181.94 2102 2182.06 2101.49 2182.08 2100.96V2079.68C2182.06 2079.15 2181.94 2078.64 2181.71 2078.16C2181.49 2077.68 2181.18 2077.25 2180.8 2076.9C2180.41 2076.54 2179.96 2076.26 2179.46 2076.08C2178.97 2075.9 2178.45 2075.82 2177.92 2075.84H2161.92C2161.02 2075.81 2160.14 2076.08 2159.4 2076.6C2158.66 2077.12 2158.12 2077.86 2157.84 2078.72L2151.68 2099.92C2151.52 2100.53 2151.52 2101.17 2151.66 2101.78C2151.8 2102.39 2152.09 2102.96 2152.49 2103.44C2152.9 2103.92 2153.42 2104.29 2154 2104.53C2154.58 2104.77 2155.21 2104.86 2155.84 2104.8Z" fill="#263238"/>
<path d="M2125.44 2104.8H2147.44C2148.51 2104.84 2149.55 2104.47 2150.35 2103.75C2151.14 2103.03 2151.62 2102.03 2151.68 2100.96V2079.68C2151.62 2078.61 2151.14 2077.61 2150.35 2076.89C2149.55 2076.17 2148.51 2075.8 2147.44 2075.84H2131.44C2130.55 2075.83 2129.69 2076.11 2128.97 2076.62C2128.25 2077.14 2127.71 2077.88 2127.44 2078.72L2121.2 2099.92C2121.04 2100.54 2121.03 2101.18 2121.18 2101.8C2121.32 2102.42 2121.62 2103 2122.04 2103.48C2122.45 2103.96 2122.98 2104.33 2123.57 2104.56C2124.17 2104.79 2124.81 2104.87 2125.44 2104.8Z" fill="#263238"/>
<path d="M2094.96 2104.8H2117.04C2117.57 2104.82 2118.09 2104.74 2118.58 2104.56C2119.08 2104.38 2119.53 2104.1 2119.92 2103.74C2120.3 2103.39 2120.61 2102.96 2120.84 2102.48C2121.06 2102 2121.18 2101.49 2121.2 2100.96V2079.68C2121.18 2079.15 2121.06 2078.64 2120.84 2078.16C2120.61 2077.68 2120.3 2077.25 2119.92 2076.9C2119.53 2076.54 2119.08 2076.26 2118.58 2076.08C2118.09 2075.9 2117.57 2075.82 2117.04 2075.84H2101.04C2100.14 2075.81 2099.26 2076.08 2098.52 2076.6C2097.78 2077.12 2097.24 2077.86 2096.96 2078.72L2090.8 2099.92C2090.64 2100.53 2090.64 2101.17 2090.78 2101.78C2090.92 2102.39 2091.21 2102.96 2091.61 2103.44C2092.02 2103.92 2092.54 2104.29 2093.12 2104.53C2093.7 2104.77 2094.33 2104.86 2094.96 2104.8Z" fill="#263238"/>
<path d="M2064.56 2104.8H2086.56C2087.63 2104.84 2088.67 2104.47 2089.47 2103.75C2090.26 2103.03 2090.74 2102.03 2090.8 2100.96V2079.68C2090.74 2078.61 2090.26 2077.61 2089.47 2076.89C2088.67 2076.17 2087.63 2075.8 2086.56 2075.84H2070.56C2069.67 2075.83 2068.81 2076.11 2068.09 2076.62C2067.37 2077.14 2066.83 2077.88 2066.56 2078.72L2060.32 2099.92C2060.16 2100.54 2060.15 2101.18 2060.3 2101.8C2060.44 2102.42 2060.74 2103 2061.16 2103.48C2061.57 2103.96 2062.1 2104.33 2062.69 2104.56C2063.29 2104.79 2063.93 2104.87 2064.56 2104.8Z" fill="#263238"/>
<path d="M2034.08 2104.8H2056.16C2056.69 2104.82 2057.21 2104.74 2057.7 2104.56C2058.2 2104.38 2058.65 2104.1 2059.04 2103.74C2059.42 2103.39 2059.73 2102.96 2059.96 2102.48C2060.18 2102 2060.3 2101.49 2060.32 2100.96V2079.68C2060.3 2079.15 2060.18 2078.64 2059.96 2078.16C2059.73 2077.68 2059.42 2077.25 2059.04 2076.9C2058.65 2076.54 2058.2 2076.26 2057.7 2076.08C2057.21 2075.9 2056.69 2075.82 2056.16 2075.84H2040.16C2039.26 2075.81 2038.38 2076.08 2037.64 2076.6C2036.9 2077.12 2036.36 2077.86 2036.08 2078.72L2030 2100C2029.86 2100.6 2029.86 2101.22 2030.01 2101.81C2030.15 2102.41 2030.43 2102.96 2030.83 2103.43C2031.23 2103.89 2031.73 2104.26 2032.29 2104.5C2032.86 2104.74 2033.47 2104.84 2034.08 2104.8Z" fill="#263238"/>
<path d="M2011.92 2107.04C2012.09 2111.68 2014.08 2116.07 2017.47 2119.24C2020.85 2122.42 2025.36 2124.13 2030 2124H2486C2490.64 2124.2 2495.17 2122.55 2498.61 2119.42C2502.04 2116.28 2504.09 2111.92 2504.32 2107.28C2504.3 2105.04 2503.82 2102.83 2502.9 2100.79C2501.97 2098.75 2500.63 2096.93 2498.96 2095.44C2495.49 2092.36 2491.04 2090.63 2486.4 2090.56H2030C2028.3 2090.57 2026.61 2090.78 2024.96 2091.2C2021.37 2092.08 2018.15 2094.09 2015.8 2096.95C2013.45 2099.81 2012.09 2103.35 2011.92 2107.04Z" fill="#263238"/>
<path opacity="0.2" d="M2011.92 2107.04C2012.09 2111.68 2014.08 2116.07 2017.47 2119.24C2020.85 2122.42 2025.36 2124.13 2030 2124H2486C2490.64 2124.2 2495.17 2122.55 2498.61 2119.42C2502.04 2116.28 2504.09 2111.92 2504.32 2107.28C2504.3 2105.04 2503.82 2102.83 2502.9 2100.79C2501.97 2098.75 2500.63 2096.93 2498.96 2095.44C2495.49 2092.36 2491.04 2090.63 2486.4 2090.56H2030C2028.3 2090.57 2026.61 2090.78 2024.96 2091.2C2021.37 2092.08 2018.15 2094.09 2015.8 2096.95C2013.45 2099.81 2012.09 2103.35 2011.92 2107.04Z" fill="white"/>
<path d="M2011.92 2107.04C2012.09 2111.68 2014.08 2116.07 2017.47 2119.24C2020.85 2122.42 2025.36 2124.13 2030 2124H2184.32C2187.9 2123.09 2191.08 2121.03 2193.38 2118.14C2195.67 2115.25 2196.96 2111.69 2197.04 2108C2197.12 2107.02 2197.12 2106.02 2197.04 2105.04C2196.32 2101.61 2194.53 2098.5 2191.92 2096.16C2190.7 2095.14 2189.39 2094.23 2188 2093.44L2185.84 2092.48C2183.6 2091.61 2181.21 2091.18 2178.8 2091.2H2025.2C2021.56 2092.03 2018.3 2094.03 2015.9 2096.89C2013.5 2099.75 2012.1 2103.31 2011.92 2107.04Z" fill="#263238"/>
<path d="M3443.84 1799.84C3443.84 1799.84 3502.72 2532.24 3503.2 2536.4L3540.48 2973.04H3621.52C3621.52 2973.04 3624 2949.6 3629.04 2916.48C3673.2 2626.16 3641.84 2530.64 3641.84 2530.64C3641.84 2530.64 3680.72 1970.16 3694.32 1927.92C3695.68 1923.52 3650.08 1615.92 3443.84 1799.84Z" fill="#263238"/>
<g opacity="0.2">
<path d="M3443.84 1799.84C3443.84 1799.84 3502.72 2532.24 3503.2 2536.4L3540.48 2973.04H3621.52C3621.52 2973.04 3624 2949.6 3629.04 2916.48C3673.2 2626.16 3641.84 2530.64 3641.84 2530.64C3641.84 2530.64 3680.72 1970.16 3694.32 1927.92C3695.68 1923.52 3650.08 1615.92 3443.84 1799.84Z" fill="black"/>
</g>
<path d="M3444.32 1789.68C3461.42 1852.92 3501.65 1907.42 3557.04 1942.4L3613.04 1977.84C3613.04 1977.84 3904.48 1696.96 3648.72 1635.36C3599.2 1623.44 3444.32 1789.68 3444.32 1789.68Z" fill="#263238"/>
<path d="M4174.8 2901.36L4123.92 2935.68L4076.32 2874.56L4024.8 2808.4V2808.32L4084.64 2767.28L4092.8 2779.36L4132.88 2839.04L4174.8 2901.36Z" fill="#FF8B7B"/>
<path opacity="0.2" d="M4132.88 2839.04L4076.32 2874.56L4024.8 2808.4L4086.08 2769.92L4092.8 2779.36L4132.88 2839.04Z" fill="black"/>
<path d="M3838.56 2072.56C3839.76 2169.28 3860.8 2344 3874.16 2439.76C3874.16 2439.76 3946.16 2525.6 3985.6 2585.12L4110 2789.36L4033.52 2838.96L3790 2576.56C3720.24 2523.6 3731.44 2491.6 3713.76 2443.12C3670.48 2324.72 3642.64 2197.12 3623.6 2081.52C3614.8 2027.92 3576.16 1853.76 3589.6 1801.52C3607.68 1730.8 3628.72 1609.04 3711.68 1661.44C3781.2 1705.12 3835.04 1776.72 3838.56 2072.56Z" fill="#263238"/>
<path d="M4138.48 2809.52L4043.92 2869.12L4005.52 2829.6L4111.84 2761.6L4138.48 2809.52Z" fill="#90CAF9"/>
<path d="M4113.92 2937.84L4152.4 2870.4C4153 2869.2 4154.04 2868.27 4155.31 2867.81C4156.57 2867.35 4157.96 2867.39 4159.2 2867.92L4216.8 2890.56C4219.5 2891.72 4221.63 2893.91 4222.73 2896.63C4223.82 2899.36 4223.79 2902.41 4222.64 2905.12L4222.08 2906.16C4208.24 2929.44 4200.48 2939.92 4183.6 2969.52C4173.28 2987.76 4153.04 3029.44 4138.72 3054.64C4124.4 3079.84 4098.72 3066.96 4102.48 3055.2C4119.12 3002.56 4116.48 2973.04 4112.16 2949.68C4111.33 2945.65 4111.95 2941.46 4113.92 2937.84Z" fill="#263238"/>
<path d="M4103.04 2973.92C4111.04 2971.12 4117.12 2955.92 4119.52 2947.2C4119.6 2946.9 4119.59 2946.57 4119.49 2946.28C4119.39 2945.98 4119.21 2945.71 4118.96 2945.52C4118.71 2945.33 4118.4 2945.22 4118.08 2945.22C4117.76 2945.22 4117.45 2945.33 4117.2 2945.52C4114.64 2946.88 4092.64 2958.4 4091.84 2967.04C4091.73 2968.03 4091.89 2969.04 4092.3 2969.95C4092.71 2970.86 4093.35 2971.65 4094.16 2972.24C4094.89 2972.77 4095.66 2973.22 4096.48 2973.6C4097.5 2974.09 4098.6 2974.37 4099.73 2974.42C4100.85 2974.48 4101.98 2974.31 4103.04 2973.92ZM4115.28 2949.92C4111.28 2961.52 4106.56 2969.2 4102.08 2970.64C4101.05 2970.91 4099.97 2970.92 4098.94 2970.67C4097.9 2970.42 4096.95 2969.91 4096.16 2969.2C4095.78 2969 4095.47 2968.68 4095.28 2968.29C4095.09 2967.9 4095.04 2967.46 4095.12 2967.04C4095.52 2962.4 4106.56 2954.8 4115.28 2949.92Z" fill="#90CAF9"/>
<path d="M4118.8 2948C4119.04 2947.84 4119.24 2947.63 4119.38 2947.38C4119.52 2947.13 4119.59 2946.85 4119.6 2946.56C4119.57 2946.28 4119.46 2946.02 4119.29 2945.79C4119.12 2945.57 4118.9 2945.39 4118.64 2945.28C4117.92 2944.8 4100.64 2935.12 4091.2 2938.32C4090.03 2938.71 4088.96 2939.34 4088.06 2940.19C4087.16 2941.03 4086.46 2942.06 4086 2943.2C4085.38 2944.34 4085.16 2945.65 4085.38 2946.93C4085.6 2948.21 4086.24 2949.37 4087.2 2950.24C4087.72 2950.64 4088.29 2950.99 4088.88 2951.28C4098.92 2953.81 4109.54 2952.64 4118.8 2948ZM4114.4 2946.56C4106.4 2949.6 4092.96 2950.88 4089.36 2947.76C4088.8 2947.2 4088.16 2946.4 4088.96 2944.48C4089.26 2943.75 4089.71 2943.09 4090.3 2942.55C4090.88 2942.01 4091.57 2941.6 4092.32 2941.36C4099.86 2940.79 4107.39 2942.52 4113.92 2946.32L4114.4 2946.56Z" fill="#90CAF9"/>
<path d="M3283.28 2086.8L3229.52 2083.36C3229.52 2083.36 3191.84 1812.48 3188.24 1801.68C3183.28 1782 3153.12 1630.96 3141.2 1592.4L3146.96 1591.52C3140.56 1571.68 3146 1550.24 3166.88 1543.52C3187.76 1536.8 3216.4 1547.84 3222.88 1567.52C3236.32 1607.52 3261.92 1759.52 3265.76 1777.76C3265.8 1778.19 3265.8 1778.61 3265.76 1779.04C3278 1858.32 3283.28 2086.8 3283.28 2086.8Z" fill="#FF8B7B"/>
<path d="M3283.28 2086.8C3283.28 2111.44 3260.88 2124.16 3244.72 2125.84H3159.44L3154.48 2124.64C3153.99 2124.51 3153.55 2124.25 3153.2 2123.88C3152.85 2123.52 3152.6 2123.07 3152.49 2122.57C3152.37 2122.08 3152.39 2121.57 3152.55 2121.09C3152.7 2120.61 3152.98 2120.17 3153.36 2119.84L3168.72 2107.52C3185.68 2093.84 3208.72 2089.36 3229.52 2083.52L3283.28 2086.8Z" fill="#FF8B7B"/>
<path d="M3178.72 1460.96C3091.44 1502.96 3152.4 1677.92 3152.4 1677.92L3259.68 1668C3259.68 1668 3270.32 1541.12 3258.16 1501.52C3245.28 1460 3220.48 1433.68 3178.72 1460.96Z" fill="#90CAF9"/>
<path opacity="0.2" d="M3211.04 1672.4C3211.04 1672.4 3187.04 1544.4 3210.56 1520.4C3217.45 1515.23 3225.23 1511.38 3233.52 1509.04C3262.24 1521.44 3256.32 1562.8 3256.32 1562.8L3259.68 1667.84C3246 1670 3211.04 1672.4 3211.04 1672.4Z" fill="black"/>
<path d="M3195.12 1572.56C3223.12 1621.12 3283.12 1686.16 3443.12 1786.24L3640.4 1634.24C3574.08 1554.96 3532.72 1502.16 3451.76 1331.04C3447.96 1322.69 3442.33 1315.31 3435.28 1309.45C3428.23 1303.59 3419.94 1299.4 3411.04 1297.2C3396.11 1293.73 3380.43 1296.11 3367.2 1303.84C3352.56 1312.4 3336.64 1322.24 3321.12 1333.12C3285.75 1356.48 3252.12 1382.36 3220.48 1410.56C3198.4 1430.96 3176.32 1454.32 3160.56 1471.44C3160.56 1471.44 3160.56 1474.16 3161.84 1480.48C3167.39 1512.9 3178.66 1544.08 3195.12 1572.56Z" fill="#90CAF9"/>
<path opacity="0.2" d="M3463.76 1348.72C3466.4 1355.52 3469.04 1362.4 3471.76 1368.4C3484.87 1399.6 3499.91 1429.95 3516.8 1459.28C3452.8 1470.64 3387.36 1435.28 3377.68 1412.24C3371.52 1398.24 3431.76 1358.08 3463.76 1348.72Z" fill="black"/>
<path d="M3633.6 1618.72L3658.8 1630.8C3660.8 1631.76 3660.4 1634.72 3657.6 1636.72L3443.84 1799.84C3441.84 1801.36 3439.36 1801.6 3438.32 1800.48L3421.04 1782.16C3419.84 1780.96 3421.04 1778.48 3422.88 1776.72L3628.64 1620C3629.28 1619.37 3630.08 1618.92 3630.95 1618.7C3631.82 1618.47 3632.73 1618.48 3633.6 1618.72Z" fill="#90CAF9"/>
<path opacity="0.6" d="M3633.6 1618.72L3658.8 1630.8C3660.8 1631.76 3660.4 1634.72 3657.6 1636.72L3443.84 1799.84C3441.84 1801.36 3439.36 1801.6 3438.32 1800.48L3421.04 1782.16C3419.84 1780.96 3421.04 1778.48 3422.88 1776.72L3628.64 1620C3629.28 1619.37 3630.08 1618.92 3630.95 1618.7C3631.82 1618.47 3632.73 1618.48 3633.6 1618.72Z" fill="white"/>
<path d="M3422.88 1776.72L3628.64 1620Z" fill="#90CAF9"/>
<path d="M3622.64 1666.88L3628.4 1662.32C3629.68 1661.44 3630.08 1660.08 3629.44 1659.44L3606.72 1635.44C3606.08 1634.72 3604.56 1634.88 3603.36 1635.84L3597.6 1640.32C3596.4 1641.28 3596 1642.56 3596.64 1643.28L3619.28 1666.88C3619.75 1667.29 3620.34 1667.51 3620.96 1667.51C3621.58 1667.51 3622.17 1667.29 3622.64 1666.88Z" fill="#263238"/>
<path d="M3462.72 1789.12L3468.48 1784.56C3469.68 1783.68 3470.16 1782.32 3469.44 1781.6L3446.8 1758.08C3446.27 1757.74 3445.64 1757.59 3445.01 1757.66C3444.38 1757.73 3443.8 1758.02 3443.36 1758.48L3437.6 1762.96C3436.4 1763.92 3435.92 1765.28 3436.56 1765.92L3459.28 1789.52C3459.92 1790.24 3461.44 1790.08 3462.72 1789.12Z" fill="#263238"/>
<path d="M3223.76 1227.36C3242.4 1264.64 3281.68 1328.88 3320.96 1333.12C3320.96 1333.12 3343.84 1389.52 3300.96 1493.76C3208.32 1474 3220.32 1410.56 3220.32 1410.56C3249.84 1374.08 3228.32 1348.08 3202.56 1327.76L3223.76 1227.36Z" fill="#FF8B7B"/>
<path d="M3307.44 1505.92L3310.72 1497.92C3354.72 1390.88 3332.16 1328.8 3331.12 1326.32L3308.72 1330.08L3311.12 1337.12C3311.12 1337.68 3330.4 1388.64 3294.56 1481.12C3222.96 1462.16 3227.12 1402.08 3227.52 1400L3211.52 1417.68C3211.52 1418.4 3196.88 1482.16 3298.48 1503.84L3307.44 1505.92Z" fill="#90CAF9"/>
<path opacity="0.6" d="M3307.44 1505.92L3310.72 1497.92C3354.72 1390.88 3332.16 1328.8 3331.12 1326.32L3308.72 1330.08L3311.12 1337.12C3311.12 1337.68 3330.4 1388.64 3294.56 1481.12C3222.96 1462.16 3227.12 1402.08 3227.52 1400L3211.52 1417.68C3211.52 1418.4 3196.88 1482.16 3298.48 1503.84L3307.44 1505.92Z" fill="white"/>
<path opacity="0.2" d="M3221.44 1238.32C3235.82 1257.94 3245.84 1280.42 3250.8 1304.24C3254.08 1320.72 3244.48 1354.4 3226.8 1352.24C3220.12 1342.84 3212.02 1334.53 3202.8 1327.6L3221.44 1238.32Z" fill="black"/>
<path d="M3112.32 1416.08C3038.08 1354.4 3017.12 1268.8 3016.32 1192.48C3016.32 1178.08 3019.28 1131.6 3033.68 1130.8C3144.88 1124.4 3018.96 1236 3112.32 1416.08Z" fill="#263238"/>
<path d="M3203.92 1156.96C3240.24 1212.4 3256.8 1235.12 3250.24 1282.32C3240.48 1353.28 3164.48 1385.76 3112.48 1342.24C3065.52 1303.04 3014 1218.88 3050.24 1159.04C3058.15 1145.83 3069.32 1134.86 3082.66 1127.18C3096.01 1119.49 3111.1 1115.35 3126.5 1115.14C3141.9 1114.93 3157.1 1118.67 3170.65 1125.99C3184.2 1133.3 3195.65 1143.97 3203.92 1156.96Z" fill="#FF8B7B"/>
<path d="M3137.44 1320.64C3137.44 1320.64 3146.4 1302.64 3183.76 1262.16C3195.36 1279.68 3199.76 1298.88 3180.88 1319.68C3172.88 1331.12 3154.16 1332.32 3139.76 1322.4C3138.95 1321.86 3138.18 1321.27 3137.44 1320.64Z" fill="#263238"/>
<path d="M3176.96 1300C3169.01 1307.59 3164.33 1317.98 3163.92 1328.96C3170.38 1327.96 3176.28 1324.7 3180.56 1319.76C3184.53 1316.04 3187.72 1311.58 3189.96 1306.62C3192.2 1301.66 3193.44 1296.32 3193.6 1290.88C3187.15 1291.84 3181.25 1295.08 3176.96 1300Z" fill="#FF5652"/>
<path d="M3138.72 1318.48C3140.8 1319.67 3143.16 1320.29 3145.56 1320.29C3147.96 1320.29 3150.32 1319.67 3152.4 1318.48C3163.39 1306.44 3173.12 1293.3 3181.44 1279.28C3182.93 1277 3183.77 1274.35 3183.85 1271.63C3183.94 1268.9 3183.27 1266.21 3181.92 1263.84C3165.8 1280.63 3151.34 1298.93 3138.72 1318.48Z" fill="white"/>
<path d="M3103.84 1265.84C3106.26 1279.27 3106.86 1292.97 3105.6 1306.56C3109.07 1306.78 3112.56 1306.25 3115.8 1304.99C3119.05 1303.73 3121.98 1301.78 3124.4 1299.28L3103.84 1265.84Z" fill="#FF5652"/>
<path d="M3124.16 1210.32C3123.64 1210.48 3123.08 1210.48 3122.56 1210.32C3118.77 1209.11 3114.75 1208.82 3110.83 1209.47C3106.9 1210.13 3103.19 1211.71 3100 1214.08C3099.69 1214.34 3099.32 1214.54 3098.93 1214.66C3098.54 1214.79 3098.13 1214.83 3097.72 1214.79C3097.31 1214.76 3096.91 1214.64 3096.55 1214.45C3096.18 1214.26 3095.86 1214 3095.6 1213.68C3095.3 1213.4 3095.07 1213.07 3094.91 1212.7C3094.75 1212.33 3094.66 1211.92 3094.66 1211.52C3094.66 1211.12 3094.75 1210.71 3094.91 1210.34C3095.07 1209.97 3095.3 1209.64 3095.6 1209.36C3099.6 1206.33 3104.26 1204.3 3109.2 1203.43C3114.14 1202.57 3119.21 1202.9 3124 1204.4C3124.8 1204.67 3125.47 1205.23 3125.88 1205.97C3126.3 1206.71 3126.42 1207.57 3126.24 1208.4C3126.05 1208.85 3125.76 1209.25 3125.4 1209.58C3125.04 1209.91 3124.62 1210.16 3124.16 1210.32Z" fill="#263238"/>
<path d="M3050.24 1266.24H3049.68C3048.84 1266.24 3048.03 1265.93 3047.41 1265.37C3046.79 1264.81 3046.4 1264.03 3046.32 1263.2C3045.93 1258.17 3046.75 1253.12 3048.73 1248.49C3050.71 1243.85 3053.78 1239.76 3057.68 1236.56C3058.01 1236.31 3058.39 1236.13 3058.79 1236.02C3059.19 1235.92 3059.6 1235.9 3060.01 1235.96C3060.42 1236.02 3060.82 1236.16 3061.17 1236.37C3061.53 1236.58 3061.84 1236.87 3062.08 1237.2C3062.55 1237.89 3062.75 1238.74 3062.63 1239.56C3062.51 1240.39 3062.09 1241.15 3061.44 1241.68C3058.39 1244.24 3056.01 1247.5 3054.49 1251.17C3052.98 1254.85 3052.37 1258.84 3052.72 1262.8C3052.78 1263.57 3052.56 1264.34 3052.11 1264.97C3051.66 1265.6 3050.99 1266.05 3050.24 1266.24Z" fill="#263238"/>
<path d="M3131.04 1232.32C3134.24 1236.64 3134.8 1241.76 3131.76 1244C3128.72 1246.24 3123.76 1244 3120.72 1239.92C3117.68 1235.84 3116.96 1230.56 3120 1228.32C3123.04 1226.08 3127.76 1228 3131.04 1232.32Z" fill="#263238"/>
<path d="M3080.72 1268C3083.92 1272.32 3084.56 1277.44 3081.44 1279.68C3078.32 1281.92 3073.44 1279.68 3070.56 1275.6C3067.68 1271.52 3066.72 1266.16 3069.84 1263.92C3072.96 1261.68 3077.52 1263.92 3080.72 1268Z" fill="#263238"/>
<path d="M3071.28 1263.52L3058.56 1268.64C3058.56 1268.64 3070 1272.4 3071.28 1263.52Z" fill="#263238"/>
<path d="M3121.52 1228L3108.88 1233.12C3108.88 1233.12 3120.24 1236.56 3121.52 1228Z" fill="#263238"/>
<path d="M3223.6 1193.52C3253.84 1205.44 3250.24 1282.32 3250.24 1282.32C3249.04 1285.28 3283.2 1239.84 3264 1133.36C3251.2 1062.4 3128.64 1039.36 3038.08 1124.4C3020.32 1140.96 3030.96 1237.36 3038.08 1219.92C3046.08 1198.88 3100.48 1158.72 3134.08 1150.08C3130.56 1148 3206 1186.48 3223.6 1193.52Z" fill="#263238"/>
<path d="M3217.44 1132C3222.44 1129.18 3226.7 1125.23 3229.89 1120.46C3233.09 1115.69 3235.12 1110.25 3235.83 1104.55C3236.54 1098.86 3235.9 1093.08 3233.97 1087.68C3232.04 1082.27 3228.87 1077.4 3224.72 1073.44C3216.04 1066.33 3205.78 1061.42 3194.8 1059.12C3183.86 1056.83 3173.41 1052.63 3163.92 1046.72C3154.96 1040.08 3152.4 1031.76 3151.52 1017.76C3148.53 1020.59 3146.14 1024 3144.51 1027.78C3142.87 1031.57 3142.02 1035.64 3142 1039.76C3134 1033.76 3132.64 1025.04 3129.52 1005.68C3126.5 1010.63 3124.57 1016.16 3123.86 1021.92C3123.16 1027.67 3123.7 1033.51 3125.44 1039.04C3119.52 1036.72 3115.68 1032.48 3113.04 1013.68C3103.2 1037.68 3109.44 1058.72 3114.48 1062.24C3107.8 1062.35 3101.37 1064.82 3096.34 1069.21C3091.3 1073.6 3087.98 1079.64 3086.96 1086.24C3086.17 1092.84 3086.99 1099.54 3089.36 1105.76C3091.73 1111.97 3095.57 1117.52 3100.56 1121.92C3110.68 1130.63 3122.9 1136.55 3136 1139.12C3162.31 1145.12 3189.79 1143.37 3215.12 1134.08C3215.12 1132 3217.44 1132 3217.44 1132Z" fill="#263238"/>
<path d="M3260.88 1180C3267.35 1191.06 3269.22 1204.22 3266.08 1216.64C3261.76 1233.12 3244.88 1232.64 3234.08 1220.96C3223.28 1209.28 3214.56 1188.96 3224.8 1176.16C3226.61 1173.94 3228.83 1172.1 3231.35 1170.74C3233.87 1169.38 3236.63 1168.54 3239.47 1168.25C3242.32 1167.96 3245.19 1168.23 3247.93 1169.05C3250.67 1169.88 3253.22 1171.23 3255.44 1173.04C3257.7 1174.98 3259.55 1177.34 3260.88 1180Z" fill="#FF8B7B"/>
<path d="M3168.96 1488.08L3099.44 1497.28L3100.4 1558.56C3100.4 1558.56 3147.76 1548.24 3167.04 1523.28L3168.96 1488.08Z" fill="#FF8B7B"/>
<path d="M3058.88 1524.56L3055.68 1569.84L3100.4 1558.56L3099.44 1497.28L3058.88 1524.56Z" fill="#FF8B7B"/>
<g opacity="0.2">
<path d="M3096.08 1552.4C3095.6 1552.71 3095.19 1553.12 3094.88 1553.6L3096.08 1552.4Z" fill="black"/>
</g>
<path d="M3458.56 1371.04C3469.28 1416.32 3466.96 1501.36 3465.52 1535.2C3465.08 1551.12 3458.85 1566.34 3448 1578C3434.72 1591.84 3412.32 1602 3376 1586.72C3339.68 1571.44 3165.92 1532.56 3166.32 1523.52L3168.08 1488.56C3168.08 1488.56 3273.44 1491.92 3386.48 1504.56C3391.52 1451.68 3381.36 1384.56 3386 1366.72C3393.76 1337.44 3444.96 1313.68 3458.56 1371.04Z" fill="#FF8B7B"/>
<path d="M3388.56 1296.88C3364.56 1314.48 3361.6 1447.52 3361.6 1447.52L3484.16 1450C3484.16 1450 3484.16 1361.28 3473.76 1335.28C3457.6 1293.28 3415.44 1277.12 3388.56 1296.88Z" fill="#90CAF9"/>
<path d="M3615.6 3082.72L3553.2 3076.8L3544.72 2948.96L3621.04 2945.04L3615.6 3082.72Z" fill="#FF8B7B"/>
<path opacity="0.2" d="M3544.96 2946.56L3549.28 3018.88L3618.32 3014.08L3622.96 2944.32L3544.96 2946.56Z" fill="black"/>
<path d="M3540.64 3058.48L3622.16 3052.96C3623.63 3052.92 3625.07 3053.33 3626.29 3054.15C3627.51 3054.97 3628.44 3056.15 3628.96 3057.52L3651.04 3120.8C3651.6 3122.29 3651.8 3123.89 3651.62 3125.47C3651.43 3127.05 3650.88 3128.56 3649.99 3129.88C3649.11 3131.2 3647.92 3132.3 3646.53 3133.07C3645.14 3133.84 3643.59 3134.27 3642 3134.32C3613.36 3135.76 3599.68 3135.04 3563.52 3137.52C3541.44 3139.04 3484.64 3145.12 3454.16 3147.2C3423.68 3149.28 3416 3119.52 3428.24 3115.92C3482.64 3099.92 3513.36 3080.96 3529.36 3063.76C3530.79 3062.17 3532.53 3060.88 3534.47 3059.98C3536.4 3059.07 3538.5 3058.56 3540.64 3058.48Z" fill="#263238"/>
<path d="M3531.68 3070.32C3532.01 3070.23 3532.3 3070.03 3532.5 3069.76C3532.71 3069.48 3532.81 3069.14 3532.8 3068.8C3532.8 3068.47 3532.71 3068.15 3532.52 3067.88C3532.33 3067.6 3532.07 3067.4 3531.76 3067.28C3525.92 3065.28 3496.96 3055.68 3490.08 3061.44C3489.41 3061.99 3488.92 3062.72 3488.65 3063.54C3488.38 3064.36 3488.35 3065.24 3488.56 3066.08C3488.76 3067.6 3489.32 3069.04 3490.18 3070.31C3491.04 3071.57 3492.18 3072.62 3493.52 3073.36C3498.49 3075.76 3504.08 3076.54 3509.52 3075.6C3517.08 3074.66 3524.51 3072.89 3531.68 3070.32ZM3495.28 3062.88C3505.71 3063.27 3516.02 3065.27 3525.84 3068.8C3511.6 3073.12 3500.32 3073.84 3495.2 3070.72C3494.26 3070.21 3493.45 3069.48 3492.85 3068.58C3492.25 3067.69 3491.88 3066.67 3491.76 3065.6C3491.68 3065.32 3491.68 3065.01 3491.76 3064.73C3491.85 3064.44 3492.01 3064.19 3492.24 3064C3493.13 3063.37 3494.19 3063.01 3495.28 3062.96V3062.88Z" fill="#90CAF9"/>
<path d="M3532.4 3070.08C3532.53 3069.83 3532.6 3069.56 3532.6 3069.28C3532.6 3069 3532.53 3068.73 3532.4 3068.48C3532.4 3067.2 3521.92 3038.64 3506.08 3042.24C3501.92 3043.12 3500.8 3045.36 3501.04 3047.04C3501.04 3055.04 3520.8 3067.76 3530.4 3070.48H3531.04C3531.52 3070.49 3532 3070.35 3532.4 3070.08ZM3508.4 3045.04C3518.4 3044 3525.68 3059.28 3528.56 3065.76C3518.64 3061.84 3504.56 3051.52 3504.56 3047.04C3504.56 3046.16 3505.36 3045.36 3507.12 3045.2H3508.16L3508.4 3045.04Z" fill="#90CAF9"/>
<path d="M3642.4 2992.32L3525.6 2998.08L3512.64 2946.48L3648.32 2937.68L3642.4 2992.32Z" fill="#90CAF9"/>
<path d="M2158.64 3077.84L2099.76 3064.4L2128.8 2933.52L2207.28 2960.64L2158.64 3077.84Z" fill="#FFC3BD"/>
<path opacity="0.2" d="M2225.44 2915.2L2139.6 2881.36L2120.88 2969.28L2193.6 2992.16L2225.44 2915.2Z" fill="black"/>
<path d="M2402.8 3077.84L2343.04 3069.44L2367.6 2914.8L2448.08 2935.2L2402.8 3077.84Z" fill="#FFC3BD"/>
<path opacity="0.2" d="M2462.24 2888.32L2373.84 2861.92L2360.08 2960.56L2436 2974L2462.24 2888.32Z" fill="black"/>
<path d="M2758.88 2198.24C2758.88 2198.24 2418.48 2237.76 2403.2 2378.48C2388 2561.92 2396.88 2510 2355.2 2933.92L2456.08 2939.52C2456.08 2939.52 2558.72 2592.8 2544.88 2455.04C2657.92 2455.04 2916.72 2464.96 2954.32 2362.96C2972.98 2311.16 2982.06 2256.41 2981.12 2201.36L2758.88 2198.24Z" fill="#90CAF9"/>
<g opacity="0.2">
<path d="M2758.88 2198.24C2758.88 2198.24 2418.48 2237.76 2403.2 2378.48C2388 2561.92 2396.88 2510 2355.2 2933.92L2456.08 2939.52C2456.08 2939.52 2558.72 2592.8 2544.88 2455.04C2657.92 2455.04 2916.72 2464.96 2954.32 2362.96C2972.98 2311.16 2982.06 2256.41 2981.12 2201.36L2758.88 2198.24Z" fill="black"/>
</g>
<path d="M2458.48 2956.64L2343.04 2936.88L2347.04 2881.36L2479.04 2908.48L2458.48 2956.64Z" fill="#263238"/>
<path d="M2344.56 3039.76L2411.92 3053.04C2413.15 3053.34 2414.22 3054.09 2414.93 3055.14C2415.64 3056.19 2415.94 3057.47 2415.76 3058.72L2410.16 3122.72C2410.07 3124.23 2409.68 3125.7 2409 3127.06C2408.33 3128.41 2407.39 3129.61 2406.24 3130.59C2405.09 3131.57 2403.75 3132.3 2402.31 3132.75C2400.86 3133.2 2399.34 3133.35 2397.84 3133.2C2374.48 3128.16 2363.44 3124.32 2333.84 3118.48C2315.6 3114.88 2273.92 3106.08 2248.56 3103.28C2223.2 3100.48 2226.24 3070.8 2237.2 3069.28C2286.48 3062.72 2314.48 3054.8 2333.2 3042.4C2334.82 3041.21 2336.66 3040.37 2338.61 3039.91C2340.56 3039.46 2342.59 3039.41 2344.56 3039.76Z" fill="#263238"/>
<path d="M2314.32 3051.28C2319.62 3052 2324.98 3052.16 2330.32 3051.76C2330.59 3051.77 2330.86 3051.69 2331.07 3051.53C2331.29 3051.37 2331.45 3051.14 2331.52 3050.88C2331.64 3050.64 2331.7 3050.38 2331.7 3050.12C2331.7 3049.86 2331.64 3049.6 2331.52 3049.36C2329.84 3047.68 2314.72 3033.36 2306.96 3034.96C2306.06 3035.11 2305.22 3035.5 2304.53 3036.09C2303.84 3036.68 2303.32 3037.45 2303.04 3038.32C2302.41 3039.58 2302.12 3040.98 2302.21 3042.38C2302.29 3043.79 2302.74 3045.15 2303.52 3046.32C2306.35 3049.3 2310.22 3051.07 2314.32 3051.28ZM2327.2 3049.12C2316.08 3049.12 2308.24 3047.84 2305.92 3044.56C2305.45 3043.79 2305.19 3042.9 2305.19 3042C2305.19 3041.1 2305.45 3040.21 2305.92 3039.44C2306.05 3039.01 2306.28 3038.62 2306.61 3038.31C2306.93 3038.01 2307.33 3037.79 2307.76 3037.68C2311.84 3036.8 2320.96 3043.52 2327.2 3049.12Z" fill="#90CAF9"/>
<path d="M2330.4 3052H2331.04C2331.27 3051.91 2331.47 3051.77 2331.64 3051.59C2331.81 3051.41 2331.93 3051.2 2332 3050.96C2332 3050.24 2336.4 3033.2 2331.28 3026.4C2330.66 3025.49 2329.82 3024.74 2328.85 3024.23C2327.87 3023.71 2326.78 3023.44 2325.68 3023.44C2324.48 3023.27 2323.26 3023.51 2322.21 3024.12C2321.17 3024.73 2320.36 3025.67 2319.92 3026.8C2317.44 3033.12 2324.32 3047.12 2329.68 3051.68C2329.77 3051.79 2329.88 3051.87 2330 3051.93C2330.13 3051.98 2330.26 3052.01 2330.4 3052ZM2326.24 3026.32C2326.8 3026.4 2327.34 3026.6 2327.83 3026.9C2328.31 3027.21 2328.72 3027.61 2329.04 3028.08C2331.34 3034.4 2331.59 3041.29 2329.76 3047.76C2324.89 3042.29 2322.31 3035.16 2322.56 3027.84C2322.56 3027.04 2323.44 3026.16 2325.52 3026.24L2326.24 3026.32Z" fill="#90CAF9"/>
<path d="M2639.52 2198.24C2636.88 2198.24 2189.92 2244.24 2189.36 2395.84C2172.16 2507.84 2116.8 2933.92 2116.8 2933.92L2211.28 2964.8C2211.28 2964.8 2358.96 2666.16 2356.64 2470.72C2479.6 2435.44 2797.68 2494.72 2835.28 2392.8C2866.08 2309.44 2849.44 2198.24 2849.44 2198.24H2639.52Z" fill="#90CAF9"/>
<path d="M2216.8 2975.76L2104.96 2939.04L2114.48 2890.56L2239.36 2933.12L2216.8 2975.76Z" fill="#263238"/>
<path d="M2103.68 3032.4L2171.2 3046.48C2172.46 3046.88 2173.54 3047.73 2174.23 3048.86C2174.92 3049.99 2175.18 3051.33 2174.96 3052.64L2169.68 3122.72C2168.72 3130.72 2163.28 3135.52 2157.44 3134.32C2134.08 3128.96 2123.04 3124.8 2093.44 3118.32C2075.2 3114.56 2025.52 3102.32 2000.48 3096C1975.44 3089.68 1981.04 3057.52 1992.48 3057.36C2042 3056.64 2074.08 3048.48 2093.12 3034.72C2094.62 3033.62 2096.34 3032.85 2098.16 3032.45C2099.97 3032.05 2101.86 3032.03 2103.68 3032.4Z" fill="#263238"/>
<path d="M2075.92 3047.52C2080.62 3044.96 2085.04 3041.93 2089.12 3038.48C2089.33 3038.29 2089.48 3038.05 2089.56 3037.78C2089.65 3037.52 2089.66 3037.23 2089.6 3036.96C2089.51 3036.7 2089.35 3036.48 2089.14 3036.31C2088.93 3036.14 2088.67 3036.03 2088.4 3036C2086.08 3035.6 2065.44 3032.96 2060.08 3038.88C2059.5 3039.57 2059.09 3040.38 2058.89 3041.26C2058.7 3042.14 2058.72 3043.05 2058.96 3043.92C2059.18 3045.32 2059.78 3046.64 2060.68 3047.73C2061.58 3048.83 2062.75 3049.67 2064.08 3050.16C2068.22 3050.79 2072.44 3049.84 2075.92 3047.52ZM2084.96 3038.16C2076.24 3045.04 2068.96 3048.32 2065.2 3047.12C2064.36 3046.77 2063.62 3046.2 2063.07 3045.47C2062.52 3044.73 2062.18 3043.87 2062.08 3042.96C2061.95 3042.53 2061.93 3042.08 2062.03 3041.65C2062.13 3041.21 2062.34 3040.81 2062.64 3040.48C2065.44 3037.68 2076.64 3037.44 2084.96 3038.16Z" fill="#90CAF9"/>
<path d="M2089.12 3038.48L2089.68 3038C2089.8 3037.81 2089.87 3037.59 2089.87 3037.36C2089.87 3037.13 2089.8 3036.91 2089.68 3036.72C2089.68 3036.16 2082.64 3019.76 2074.56 3017.28C2073.52 3016.93 2072.41 3016.83 2071.32 3017C2070.24 3017.17 2069.21 3017.59 2068.32 3018.24C2067.25 3018.81 2066.4 3019.74 2065.92 3020.86C2065.44 3021.98 2065.35 3023.23 2065.68 3024.4C2067.36 3030.96 2081.2 3038.16 2088.32 3038.64L2089.12 3038.48ZM2070.48 3020C2071.01 3019.77 2071.58 3019.65 2072.16 3019.65C2072.74 3019.65 2073.31 3019.77 2073.84 3020C2079.47 3023.72 2083.78 3029.12 2086.16 3035.44C2078.98 3033.91 2072.66 3029.71 2068.48 3023.68C2068 3023.04 2068.48 3021.76 2069.92 3020.64L2070.48 3020Z" fill="#90CAF9"/>
<path d="M2870.96 1772.4C2885.8 1844.25 2891.61 1917.67 2888.24 1990.96C2887.74 2003.79 2883.39 2016.18 2875.76 2026.51C2868.13 2036.84 2857.56 2044.63 2845.44 2048.88C2759.92 2078.24 2538.4 2089.36 2466.72 2080.32L2495.76 2049.68C2495.76 2049.68 2799.76 1990.32 2792.48 1966.56C2792.48 1966.56 2778.08 1814.56 2768.48 1792.32L2870.96 1772.4Z" fill="#FFC3BD"/>
<path d="M2502 2050.32L2450.48 2016.64L2397.12 2052.8C2397.12 2052.8 2437.76 2087.76 2476.08 2078.8L2502 2050.32Z" fill="#FFC3BD"/>
<path d="M2403.44 2028.4L2375.36 2050.08C2374.88 2050.47 2374.53 2050.98 2374.35 2051.57C2374.17 2052.16 2374.16 2052.78 2374.33 2053.37C2374.5 2053.96 2374.84 2054.48 2375.31 2054.88C2375.78 2055.28 2376.35 2055.53 2376.96 2055.6L2410.08 2058.72L2450.08 2016.64L2403.44 2028.4Z" fill="#FFC3BD"/>
<path d="M2638 1731.52C2644.03 1732.92 2649.71 1735.5 2654.73 1739.12C2659.74 1742.75 2663.98 1747.33 2667.2 1752.62C2670.42 1757.9 2672.55 1763.77 2673.47 1769.89C2674.39 1776 2674.08 1782.24 2672.56 1788.24C2669.84 1799.12 2583.04 2002 2578.8 2008.8C2550.16 2078.88 2499.44 2074.24 2430.08 2076.64C2375.04 2076 2334.08 2080.64 2280.16 2068.64L2293.36 2039.84C2331.36 2038.24 2411.92 2010.32 2459.2 1997.04C2468.19 1994.91 2476.61 1990.87 2483.89 1985.18C2491.17 1979.49 2497.13 1972.29 2501.36 1964.08C2523.68 1916.08 2575.12 1793.76 2582.48 1764.88C2585.51 1753.13 2593.01 1743.03 2603.38 1736.74C2613.76 1730.44 2626.18 1728.46 2638 1731.2V1731.52Z" fill="#FFC3BD"/>
<path d="M2295.84 2040.24L2251.68 2020.88L2214.64 2063.92C2214.64 2063.92 2273.92 2082.8 2284.24 2064.72L2295.84 2040.24Z" fill="#FFC3BD"/>
<path d="M2198 2057.04L2187.12 2067.28C2186.51 2067.9 2186.13 2068.7 2186.04 2069.57C2185.95 2070.43 2186.15 2071.29 2186.61 2072.03C2187.08 2072.76 2187.77 2073.31 2188.59 2073.6C2189.41 2073.89 2190.3 2073.89 2191.12 2073.6L2215.12 2063.92L2252.16 2020.88L2213.12 2045.52C2207.72 2048.86 2202.66 2052.72 2198 2057.04Z" fill="#FFC3BD"/>
<path d="M2684.64 1482.32L2730.8 1511.04L2799.28 1548.48C2799.49 1565.81 2800.9 1583.11 2803.52 1600.24C2809.04 1622 2816.8 1639.52 2855.2 1643.52C2855.2 1643.52 2905.2 1678.88 2816.64 1692.32C2728.08 1705.76 2701.76 1665.92 2701.76 1665.92C2730.88 1628 2702.96 1530.72 2684.64 1482.32Z" fill="#FFC3BD"/>
<path d="M2844.56 1388.88C2846.16 1394.16 2850.24 1397.84 2853.76 1396.88C2857.28 1395.92 2858.88 1390.88 2857.28 1385.6C2855.68 1380.32 2851.52 1376.72 2848 1377.6C2844.48 1378.48 2842.96 1383.6 2844.56 1388.88Z" fill="#263238"/>
<path d="M2820.24 1376.8C2820.78 1376.72 2821.28 1376.49 2821.69 1376.13C2822.1 1375.78 2822.4 1375.32 2822.56 1374.8C2824.01 1370.89 2826.34 1367.37 2829.36 1364.5C2832.39 1361.63 2836.02 1359.49 2840 1358.24C2840.42 1358.15 2840.82 1357.97 2841.17 1357.72C2841.52 1357.47 2841.82 1357.16 2842.05 1356.79C2842.28 1356.43 2842.44 1356.02 2842.51 1355.6C2842.59 1355.17 2842.57 1354.74 2842.48 1354.32C2842.39 1353.9 2842.21 1353.5 2841.96 1353.15C2841.71 1352.8 2841.4 1352.5 2841.03 1352.27C2840.67 1352.04 2840.26 1351.88 2839.84 1351.81C2839.41 1351.73 2838.98 1351.75 2838.56 1351.84C2833.53 1353.33 2828.92 1355.98 2825.09 1359.56C2821.26 1363.14 2818.31 1367.56 2816.48 1372.48C2816.19 1373.29 2816.21 1374.18 2816.56 1374.97C2816.9 1375.76 2817.53 1376.38 2818.32 1376.72C2818.94 1376.91 2819.6 1376.93 2820.24 1376.8Z" fill="#263238"/>
<path d="M2848.32 1394.32C2857.13 1407.37 2867.62 1419.21 2879.52 1429.52C2876.81 1432.39 2873.49 1434.64 2869.82 1436.09C2866.14 1437.54 2862.19 1438.17 2858.24 1437.92L2848.32 1394.32Z" fill="#ED847E"/>
<path d="M2659.84 1420.64C2683.28 1484.64 2693.92 1524.08 2737.2 1548.64C2755.93 1559.72 2778.08 1563.53 2799.44 1559.36C2811.96 1556.87 2823.82 1551.77 2834.24 1544.4C2846.58 1535.48 2856.44 1523.57 2862.9 1509.78C2869.35 1495.99 2872.18 1480.79 2871.12 1465.6C2867.92 1402.88 2830 1308 2758 1298.8C2742.33 1296.3 2726.27 1297.99 2711.46 1303.7C2696.65 1309.4 2683.62 1318.93 2673.67 1331.3C2663.73 1343.67 2657.24 1358.45 2654.85 1374.14C2652.46 1389.83 2654.27 1405.87 2660.08 1420.64H2659.84Z" fill="#FFC3BD"/>
<path opacity="0.2" d="M2799.44 1559.2C2811.96 1556.71 2823.82 1551.61 2834.24 1544.24C2832.48 1544.88 2810.24 1552.96 2798.64 1547.04L2799.44 1559.2Z" fill="black"/>
<path d="M2628.88 1474C2651.96 1508.11 2679.21 1539.2 2710 1566.56C2732.56 1559.76 2752.24 1555.92 2775.28 1550.56C2784.24 1524.64 2786.16 1443.44 2794.72 1429.6C2803.28 1415.76 2820.72 1397.6 2828.24 1383.36C2833.01 1373.31 2835.08 1362.18 2834.24 1351.08C2833.39 1339.99 2829.67 1329.3 2823.44 1320.08C2810.42 1301.81 2790.84 1289.28 2768.8 1285.12C2749.84 1281.34 2730.25 1282.03 2711.6 1287.14C2692.95 1292.25 2675.75 1301.64 2661.36 1314.56C2648.87 1324.63 2640.37 1338.8 2637.36 1354.56C2606 1375.6 2596.88 1425.44 2628.88 1474Z" fill="#263238"/>
<path d="M2633.76 1321.68C2632.35 1332.65 2633.25 1343.8 2636.4 1354.4C2632.55 1353.23 2629.14 1350.92 2626.63 1347.78C2624.12 1344.64 2622.62 1340.81 2622.32 1336.8C2622 1328.8 2626.4 1324.88 2633.76 1321.68Z" fill="#263238"/>
<path d="M2774 1434.88C2781.34 1450.31 2793.42 1462.98 2808.48 1471.04C2827.28 1480.4 2835.28 1463.04 2828.88 1441.6C2822.96 1422.56 2806.4 1394.56 2787.76 1394.24C2769.12 1393.92 2764.56 1415.12 2774 1434.88Z" fill="#FFC3BD"/>
<path d="M2956.24 1663.52C2950.24 1647.52 2920.32 1628.56 2892.24 1631.52H2873.6C2857.27 1631.78 2840.99 1633.25 2824.88 1635.92C2779.15 1640.93 2733.74 1648.57 2688.88 1658.8C2668.24 1664.24 2648.32 1671.12 2632.88 1677.04C2616.88 1672.32 2631.36 1811.92 2634.4 1983.52C2635.84 2065.04 2638.08 2145.6 2640.16 2201.12H2981.44C2981.44 2201.12 2976.8 2098 2977.76 1977.52C2978.16 1905.2 2980.96 1729.36 2956.24 1663.52Z" fill="#263238"/>
<path opacity="0.2" d="M2626.8 1901.92C2629.36 1932.56 2632 1964.72 2634.8 1996.88C2670.08 1881.36 2692.64 1765.36 2692.64 1765.36L2626.8 1901.92Z" fill="black"/>
<path d="M2600.72 1690.4C2556.8 1725.28 2513.36 1896 2513.36 1896L2618 1951.52C2653.84 1904.88 2710.32 1801.68 2710.72 1761.04C2711.84 1698.56 2656.64 1652.56 2600.72 1690.4Z" fill="#263238"/>
<path d="M2516.8 3126.64C2516.83 3133.53 2514.82 3140.27 2511.01 3146.02C2507.21 3151.76 2501.78 3156.25 2495.43 3158.9C2489.07 3161.56 2482.07 3162.28 2475.31 3160.95C2468.55 3159.63 2462.33 3156.32 2457.45 3151.46C2452.57 3146.6 2449.24 3140.4 2447.88 3133.65C2446.53 3126.89 2447.2 3119.89 2449.83 3113.52C2452.46 3107.15 2456.92 3101.71 2462.65 3097.88C2468.38 3094.05 2475.11 3092 2482 3092C2486.57 3091.99 2491.1 3092.88 2495.33 3094.63C2499.56 3096.37 2503.4 3098.94 2506.63 3102.17C2509.86 3105.4 2512.43 3109.24 2514.17 3113.47C2515.92 3117.7 2516.81 3122.23 2516.8 3126.8V3126.64Z" fill="#263238"/>
<path d="M3035.92 3126.64C3035.92 3133.52 3037.96 3140.25 3041.78 3145.97C3045.61 3151.7 3051.04 3156.16 3057.4 3158.79C3063.76 3161.42 3070.76 3162.11 3077.51 3160.77C3084.26 3159.43 3090.46 3156.11 3095.33 3151.25C3100.19 3146.38 3103.51 3140.18 3104.85 3133.43C3106.19 3126.68 3105.51 3119.68 3102.87 3113.32C3100.24 3106.96 3095.78 3101.53 3090.05 3097.7C3084.33 3093.88 3077.6 3091.84 3070.72 3091.84C3061.49 3091.84 3052.64 3095.51 3046.11 3102.03C3039.59 3108.56 3035.92 3117.41 3035.92 3126.64Z" fill="#263238"/>
<path d="M2742.48 3115.52C2742.48 3122.4 2744.52 3129.13 2748.35 3134.85C2752.17 3140.58 2757.6 3145.04 2763.96 3147.67C2770.32 3150.3 2777.32 3150.99 2784.07 3149.65C2790.82 3148.31 2797.02 3144.99 2801.89 3140.13C2806.75 3135.26 2810.07 3129.06 2811.41 3122.31C2812.75 3115.56 2812.07 3108.56 2809.43 3102.2C2806.8 3095.84 2802.34 3090.41 2796.61 3086.58C2790.89 3082.76 2784.16 3080.72 2777.28 3080.72C2768.05 3080.72 2759.2 3084.39 2752.67 3090.91C2746.15 3097.44 2742.48 3106.29 2742.48 3115.52Z" fill="#263238"/>
<path d="M3116.96 3071.92C3116.38 3075.74 3114.44 3079.21 3111.5 3081.71C3108.56 3084.21 3104.82 3085.56 3100.96 3085.52L2767.6 3080.56L2455.6 3088.56C2451.74 3088.6 2448 3087.25 2445.06 3084.75C2442.12 3082.25 2440.18 3078.78 2439.6 3074.96C2438.72 3070.72 2439.49 3066.29 2441.77 3062.6C2444.05 3058.91 2447.65 3056.24 2451.84 3055.12L2622.32 3019.04C2639.96 3015.44 2657.92 3013.62 2675.92 3013.6H2859.12C2877.1 3013.61 2895.03 3015.43 2912.64 3019.04L3104.64 3052.4C3108.79 3053.48 3112.37 3056.1 3114.66 3059.73C3116.95 3063.35 3117.77 3067.71 3116.96 3071.92Z" fill="#263238"/>
<path d="M2837.76 2705.28H2714.32V3013.36H2837.76V2705.28Z" fill="#263238"/>
<path d="M2820.08 2561.92H2732.08V2705.2H2820.08V2561.92Z" fill="#90CAF9"/>
<path opacity="0.2" d="M2820.08 2561.92H2732.08V2705.2H2820.08V2561.92Z" fill="black"/>
<path opacity="0.5" d="M2820.08 2561.92H2732.08V2705.2H2820.08V2561.92Z" fill="black"/>
<path opacity="0.5" d="M2732.08 2604L2820.08 2626.16V2561.92H2732.08V2604Z" fill="black"/>
<path d="M2478.8 2237.76H2434.08V2428.56H2478.8V2237.76Z" fill="#90CAF9"/>
<path opacity="0.5" d="M2478.8 2237.76H2434.08V2428.56H2478.8V2237.76Z" fill="black"/>
<path d="M2703.04 2561.92V1786.56C2703.03 1771.03 2706.35 1755.68 2712.77 1741.53C2719.18 1727.39 2728.55 1714.78 2740.24 1704.56L2799.36 1652.8C2819.29 1635.37 2844.88 1625.79 2871.36 1625.84H2980.08L3084.08 1736.88V2561.92H2703.04Z" fill="#90CAF9"/>
<path d="M2385.04 2401.44H2872.24V2561.92H2305.68C2295.52 2561.9 2285.54 2559.2 2276.76 2554.09C2267.98 2548.98 2260.71 2541.64 2255.67 2532.82C2250.64 2523.99 2248.03 2513.99 2248.1 2503.83C2248.17 2493.67 2250.92 2483.71 2256.08 2474.96C2269.33 2452.55 2288.2 2433.99 2310.81 2421.1C2333.42 2408.2 2359.01 2401.43 2385.04 2401.44Z" fill="#90CAF9"/>
<path opacity="0.7" d="M3084.24 1736.96V2562H2305.68C2295.52 2561.98 2285.54 2559.28 2276.76 2554.17C2267.98 2549.06 2260.71 2541.72 2255.67 2532.9C2250.64 2524.07 2248.03 2514.07 2248.1 2503.91C2248.17 2493.75 2250.92 2483.79 2256.08 2475.04C2269.31 2452.66 2288.13 2434.12 2310.7 2421.23C2333.27 2408.34 2358.81 2401.54 2384.8 2401.52H2630C2649.33 2401.52 2667.87 2393.84 2681.53 2380.17C2695.2 2366.51 2702.88 2347.97 2702.88 2328.64V1786.56C2702.87 1771.04 2706.18 1755.7 2712.6 1741.57C2719.02 1727.44 2728.39 1714.85 2740.08 1704.64L2799.2 1652.88C2819.11 1635.42 2844.72 1625.83 2871.2 1625.92H2979.92L3084.24 1736.96Z" fill="white"/>
<path d="M2774 2561.92V1786.56C2774.01 1771.03 2777.33 1755.68 2783.75 1741.54C2790.16 1727.4 2799.52 1714.79 2811.2 1704.56L2870.32 1652.8C2890.25 1635.37 2915.84 1625.79 2942.32 1625.84H3003.92C3018.8 1625.84 3033.53 1628.88 3047.19 1634.78C3060.85 1640.68 3073.16 1649.32 3083.36 1660.16L3125.84 1705.44C3144.86 1725.64 3155.45 1752.34 3155.44 1780.08V2478.88C3155.44 2489.78 3153.29 2500.58 3149.12 2510.66C3144.95 2520.73 3138.83 2529.89 3131.12 2537.6C3123.41 2545.31 3114.25 2551.43 3104.18 2555.6C3094.1 2559.77 3083.3 2561.92 3072.4 2561.92H2774Z" fill="#90CAF9"/>
<path opacity="0.5" d="M2774 2561.92V1786.56C2774.01 1771.03 2777.33 1755.68 2783.75 1741.54C2790.16 1727.4 2799.52 1714.79 2811.2 1704.56L2870.32 1652.8C2890.25 1635.37 2915.84 1625.79 2942.32 1625.84H3003.92C3018.8 1625.84 3033.53 1628.88 3047.19 1634.78C3060.85 1640.68 3073.16 1649.32 3083.36 1660.16L3125.84 1705.44C3144.86 1725.64 3155.45 1752.34 3155.44 1780.08V2478.88C3155.44 2489.78 3153.29 2500.58 3149.12 2510.66C3144.95 2520.73 3138.83 2529.89 3131.12 2537.6C3123.41 2545.31 3114.25 2551.43 3104.18 2555.6C3094.1 2559.77 3083.3 2561.92 3072.4 2561.92H2774Z" fill="white"/>
<path d="M2608.32 2294.4C2509.89 2260.08 2402.75 2260.08 2304.32 2294.4C2294.45 2298.14 2283.55 2298.13 2273.68 2294.37C2263.82 2290.61 2255.68 2283.36 2250.8 2274C2241.68 2254.72 2253.92 2229.76 2278.72 2221.04C2393.66 2180.88 2518.82 2180.88 2633.76 2221.04C2658.56 2229.68 2670.8 2254.72 2661.68 2274C2656.79 2283.31 2648.68 2290.52 2638.85 2294.28C2629.03 2298.03 2618.17 2298.08 2608.32 2294.4Z" fill="#90CAF9"/>
<path opacity="0.7" d="M2608.32 2294.4C2509.89 2260.08 2402.75 2260.08 2304.32 2294.4C2294.45 2298.14 2283.55 2298.13 2273.68 2294.37C2263.82 2290.61 2255.68 2283.36 2250.8 2274C2241.68 2254.72 2253.92 2229.76 2278.72 2221.04C2393.66 2180.88 2518.82 2180.88 2633.76 2221.04C2658.56 2229.68 2670.8 2254.72 2661.68 2274C2656.79 2283.31 2648.68 2290.52 2638.85 2294.28C2629.03 2298.03 2618.17 2298.08 2608.32 2294.4Z" fill="white"/>
<path d="M3174 811.28L3394 809.04C3401.83 809.041 3409.35 805.963 3414.93 800.47C3420.51 794.978 3423.71 787.511 3423.84 779.68V554C3424 552.591 3424 551.169 3423.84 549.76C3422.74 542.774 3419.16 536.418 3413.75 531.862C3408.34 527.306 3401.47 524.855 3394.4 524.96L2904.08 527.92C2896.24 527.92 2888.72 531.011 2883.15 536.523C2877.58 542.035 2874.4 549.523 2874.32 557.36V782.96C2874.16 784.369 2874.16 785.791 2874.32 787.2C2875.42 794.186 2879 800.542 2884.41 805.098C2889.82 809.654 2896.69 812.105 2903.76 812H3102.8L3142.24 935.52L3174 811.28Z" fill="white"/>
<path d="M3142.96 949.68L3100.16 815.68H2904.08C2899.64 815.916 2895.2 815.226 2891.05 813.652C2886.89 812.079 2883.11 809.657 2879.94 806.541C2876.77 803.426 2874.29 799.684 2872.65 795.555C2871 791.426 2870.24 787.001 2870.4 782.56V557.04C2870.55 548.189 2874.14 539.743 2880.41 533.499C2886.69 527.254 2895.15 523.703 2904 523.6L3394.48 520.64C3402.51 520.559 3410.31 523.365 3416.45 528.549C3422.58 533.732 3426.65 540.947 3427.92 548.88C3428.08 550.503 3428.08 552.137 3427.92 553.76V779.36C3427.75 788.211 3424.14 796.648 3417.85 802.877C3411.56 809.107 3403.09 812.638 3394.24 812.72L3177.2 814.88L3142.96 949.68ZM3106 807.68L3142 920.72L3171.04 807.28L3394.16 805.04C3400.96 805.04 3407.48 802.362 3412.32 797.585C3417.16 792.808 3419.92 786.317 3420 779.52V554C3420.12 552.776 3420.12 551.544 3420 550.32C3419.04 544.309 3415.95 538.843 3411.29 534.921C3406.64 531 3400.73 528.884 3394.64 528.96L2904.48 532C2897.69 532 2891.17 534.681 2886.35 539.46C2881.53 544.239 2878.78 550.73 2878.72 557.52V783.04C2878.56 784.261 2878.56 785.499 2878.72 786.72C2879.66 792.725 2882.74 798.189 2887.38 802.112C2892.02 806.035 2897.92 808.153 2904 808.08L3106 807.68Z" fill="#90CAF9"/>
<path d="M3200.4 573.2H2979.12V581.2H3200.4V573.2Z" fill="#90CAF9"/>
<path d="M3385.52 573.2H3252V581.2H3385.52V573.2Z" fill="#90CAF9"/>
<path d="M3041.6 632.24H2920.4V640.24H3041.6V632.24Z" fill="#90CAF9"/>
<path d="M3377.2 632.24H3084.8V640.24H3377.2V632.24Z" fill="#90CAF9"/>
<path d="M3227.76 691.28H2919.76V699.28H3227.76V691.28Z" fill="#90CAF9"/>
<path d="M3376.56 691.28H3275.92V699.28H3376.56V691.28Z" fill="#90CAF9"/>
<path d="M3001.04 750.32H2921.04V758.32H3001.04V750.32Z" fill="#90CAF9"/>
<path d="M3468.96 847.44L3803.76 844.48C3810.82 844.378 3817.68 846.831 3823.08 851.389C3828.47 855.946 3832.04 862.3 3833.12 869.28C3833.24 870.691 3833.24 872.109 3833.12 873.52L3832.72 1099.12C3832.61 1106.95 3829.44 1114.43 3823.87 1119.93C3818.3 1125.44 3810.79 1128.54 3802.96 1128.56L3590.8 1130.8C3545.28 1196 3470 1206.32 3470 1206.32C3470 1206.32 3512.48 1163.2 3520.24 1131.2H3468.88C3461.81 1131.29 3454.95 1128.83 3449.55 1124.28C3444.14 1119.72 3440.55 1113.38 3439.44 1106.4C3439.36 1104.99 3439.36 1103.57 3439.44 1102.16V876.56C3439.63 868.827 3442.81 861.467 3448.32 856.035C3453.82 850.602 3461.22 847.521 3468.96 847.44Z" fill="white"/>
<path d="M3458.56 1212L3466.56 1203.6C3466.96 1203.2 3504 1165.28 3514.56 1135.36H3468.56C3460.53 1135.46 3452.74 1132.65 3446.61 1127.46C3440.48 1122.28 3436.43 1115.05 3435.2 1107.12C3435.04 1105.5 3435.04 1103.86 3435.2 1102.24V876.72C3435.35 867.869 3438.94 859.423 3445.21 853.179C3451.49 846.934 3459.95 843.383 3468.8 843.28L3803.6 840.32C3808.01 840.191 3812.41 840.954 3816.52 842.564C3820.63 844.175 3824.38 846.599 3827.53 849.692C3830.68 852.785 3833.18 856.482 3834.87 860.563C3836.56 864.644 3837.41 869.024 3837.36 873.44L3836.96 1099.04C3836.79 1107.89 3833.18 1116.33 3826.89 1122.56C3820.6 1128.79 3812.13 1132.32 3803.28 1132.4L3593.12 1134.56C3563.11 1174.43 3519.12 1201.46 3470 1210.24L3458.56 1212ZM3524.96 1127.28L3523.76 1132.24C3518 1156.24 3494.4 1185.12 3481.28 1199.76C3523.95 1189.04 3561.61 1163.88 3587.84 1128.56L3589.04 1126.88L3803.2 1124.64C3806.57 1124.66 3809.92 1124.02 3813.04 1122.75C3816.16 1121.48 3819.01 1119.6 3821.41 1117.23C3823.81 1114.86 3825.71 1112.04 3827.02 1108.94C3828.33 1105.83 3829.02 1102.49 3829.04 1099.12L3829.44 873.6C3829.52 872.375 3829.52 871.145 3829.44 869.92C3828.51 863.908 3825.44 858.434 3820.8 854.508C3816.15 850.583 3810.24 848.47 3804.16 848.56L3469.28 851.52C3462.48 851.499 3455.94 854.17 3451.1 858.952C3446.26 863.733 3443.5 870.236 3443.44 877.04V1102.56C3443.36 1103.79 3443.36 1105.01 3443.44 1106.24C3444.4 1112.24 3447.48 1117.69 3452.12 1121.61C3456.75 1125.53 3462.65 1127.66 3468.72 1127.6L3524.96 1127.28Z" fill="#90CAF9"/>
<path d="M3606.08 951.76H3484.88V959.76H3606.08V951.76Z" fill="#90CAF9"/>
<path d="M3743.92 892.72H3522.64V900.72H3743.92V892.72Z" fill="#90CAF9"/>
<path d="M3783.36 951.76H3628.32V959.76H3783.36V951.76Z" fill="#90CAF9"/>
<path d="M3771.28 1010.8H3463.28V1018.8H3771.28V1010.8Z" fill="#90CAF9"/>
<path d="M3544.56 1069.84H3464.56V1077.84H3544.56V1069.84Z" fill="#90CAF9"/>
<path d="M2764.96 1096.32L2745.6 1158.72L2720.16 1095.2C2688.8 1088.81 2660.98 1070.91 2642.16 1045.02C2623.35 1019.14 2614.92 987.142 2618.53 955.346C2622.13 923.549 2637.52 894.257 2661.65 873.242C2685.79 852.228 2716.92 841.016 2748.91 841.816C2780.9 842.616 2811.43 855.369 2834.48 877.563C2857.54 899.757 2871.44 929.782 2873.46 961.719C2875.47 993.656 2865.45 1025.19 2845.37 1050.1C2825.28 1075.02 2796.6 1091.51 2764.96 1096.32Z" fill="white"/>
<path d="M2746.08 1170.64L2717.28 1098.64C2685.2 1091.58 2656.91 1072.82 2637.91 1046.03C2618.91 1019.24 2610.56 986.331 2614.5 953.723C2618.44 921.115 2634.38 891.142 2659.22 869.647C2684.05 848.152 2716 836.674 2748.83 837.451C2781.67 838.228 2813.04 851.203 2836.83 873.849C2860.62 896.495 2875.12 927.188 2877.52 959.946C2879.91 992.703 2870.02 1025.18 2849.77 1051.04C2829.53 1076.9 2800.37 1094.3 2768 1099.84L2746.08 1170.64ZM2745.6 845.28C2714.8 845.295 2685.11 856.747 2662.28 877.415C2639.45 898.084 2625.11 926.495 2622.04 957.138C2618.97 987.781 2627.39 1018.47 2645.67 1043.26C2663.95 1068.04 2690.78 1085.16 2720.96 1091.28L2723.12 1091.68L2745.12 1146.72L2761.84 1092.72L2764.32 1092.32C2795.26 1087.57 2823.26 1071.31 2842.73 1046.81C2862.21 1022.3 2871.71 991.344 2869.34 960.132C2866.98 928.921 2852.92 899.752 2829.98 878.458C2807.04 857.165 2776.9 845.316 2745.6 845.28Z" fill="#90CAF9"/>
<path d="M2758.8 950C2759.52 942 2752.56 937.28 2742.4 937.28C2737.2 937.292 2732.09 938.61 2727.53 941.112C2722.98 943.614 2719.12 947.22 2716.32 951.6L2688.16 935.6C2700.24 917.92 2720.16 906.24 2749.68 906.24C2780.32 906.24 2800.96 919.28 2798.88 943.52C2796.16 974.56 2763.2 979.12 2761.6 997.36H2726C2728.48 971.44 2757.52 964.88 2758.8 950ZM2718.8 1029.04C2719.43 1023.21 2722.26 1017.83 2726.72 1014.02C2731.19 1010.22 2736.94 1008.26 2742.8 1008.56C2745.58 1008.26 2748.38 1008.59 2751.02 1009.51C2753.66 1010.43 2756.05 1011.92 2758.04 1013.88C2760.03 1015.84 2761.56 1018.22 2762.52 1020.84C2763.48 1023.46 2763.85 1026.26 2763.6 1029.04C2762.92 1034.95 2760.02 1040.38 2755.49 1044.24C2750.97 1048.1 2745.14 1050.1 2739.2 1049.84C2736.43 1050.06 2733.64 1049.68 2731.03 1048.7C2728.42 1047.73 2726.06 1046.2 2724.11 1044.22C2722.15 1042.24 2720.66 1039.85 2719.73 1037.23C2718.8 1034.6 2718.45 1031.81 2718.72 1029.04H2718.8Z" fill="#90CAF9"/>
<path d="M2562.88 1282.96C2570.08 1282.96 2575.92 1277.12 2575.92 1269.92C2575.92 1262.72 2570.08 1256.88 2562.88 1256.88C2555.68 1256.88 2549.84 1262.72 2549.84 1269.92C2549.84 1277.12 2555.68 1282.96 2562.88 1282.96Z" fill="white"/>
<path d="M2562.88 1287.04C2559.49 1287.04 2556.18 1286.04 2553.37 1284.15C2550.55 1282.27 2548.36 1279.6 2547.06 1276.47C2545.77 1273.34 2545.43 1269.9 2546.09 1266.58C2546.75 1263.26 2548.38 1260.21 2550.77 1257.81C2553.17 1255.42 2556.22 1253.79 2559.54 1253.13C2562.86 1252.47 2566.3 1252.81 2569.43 1254.1C2572.56 1255.4 2575.23 1257.59 2577.11 1260.41C2579 1263.22 2580 1266.53 2580 1269.92C2580 1274.46 2578.2 1278.81 2574.99 1282.03C2571.77 1285.24 2567.42 1287.04 2562.88 1287.04ZM2562.88 1260.88C2561.07 1260.88 2559.31 1261.42 2557.8 1262.42C2556.3 1263.43 2555.13 1264.86 2554.45 1266.53C2553.76 1268.2 2553.58 1270.04 2553.94 1271.81C2554.3 1273.58 2555.18 1275.2 2556.46 1276.48C2557.74 1277.75 2559.38 1278.61 2561.15 1278.95C2562.92 1279.3 2564.76 1279.11 2566.43 1278.4C2568.09 1277.7 2569.51 1276.52 2570.5 1275.01C2571.49 1273.5 2572.02 1271.73 2572 1269.92C2571.98 1267.52 2571.01 1265.22 2569.3 1263.52C2567.59 1261.83 2565.28 1260.88 2562.88 1260.88Z" fill="#90CAF9"/>
<path d="M2538 1220.4C2539.71 1222.97 2540.85 1225.87 2541.36 1228.92C2541.86 1231.96 2541.71 1235.08 2540.91 1238.06C2540.12 1241.04 2538.7 1243.82 2536.75 1246.21C2534.8 1248.6 2532.36 1250.55 2529.6 1251.93C2526.84 1253.31 2523.82 1254.08 2520.73 1254.2C2517.65 1254.32 2514.58 1253.79 2511.72 1252.63C2508.86 1251.47 2506.28 1249.71 2504.15 1247.48C2502.02 1245.25 2500.38 1242.59 2499.36 1239.68C2468.66 1248.95 2435.59 1246.36 2406.71 1232.42C2377.83 1218.48 2355.23 1194.2 2343.39 1164.4C2331.55 1134.59 2331.33 1101.42 2342.78 1071.46C2354.23 1041.5 2376.5 1016.93 2405.2 1002.61C2433.9 988.294 2466.93 985.27 2497.75 994.139C2528.57 1003.01 2554.94 1023.13 2571.64 1050.51C2588.33 1077.89 2594.14 1110.55 2587.91 1142.01C2581.68 1173.47 2563.87 1201.45 2538 1220.4Z" fill="white"/>
<path d="M2519.84 1258.08C2515.18 1258.06 2510.62 1256.78 2506.62 1254.39C2502.62 1252 2499.34 1248.57 2497.12 1244.48C2485.77 1247.54 2474.07 1249.1 2462.32 1249.12C2431.15 1249.07 2401.01 1237.96 2377.26 1217.78C2353.51 1197.6 2337.69 1169.64 2332.61 1138.89C2327.54 1108.14 2333.53 1076.58 2349.53 1049.83C2365.54 1023.09 2390.51 1002.88 2420.01 992.817C2449.5 982.75 2481.62 983.474 2510.63 994.859C2539.65 1006.24 2563.68 1027.55 2578.46 1054.99C2593.25 1082.43 2597.81 1114.23 2591.36 1144.72C2584.9 1175.21 2567.84 1202.43 2543.2 1221.52C2544.76 1224.91 2545.58 1228.59 2545.6 1232.32C2545.58 1239.15 2542.86 1245.69 2538.03 1250.51C2533.21 1255.34 2526.67 1258.06 2519.84 1258.08ZM2502 1234.72L2503.28 1238.32C2504.18 1240.63 2505.55 1242.73 2507.31 1244.47C2509.07 1246.22 2511.18 1247.58 2513.49 1248.47C2515.81 1249.35 2518.28 1249.74 2520.76 1249.61C2523.24 1249.48 2525.66 1248.83 2527.87 1247.71C2530.08 1246.59 2532.03 1245.02 2533.6 1243.09C2535.16 1241.17 2536.31 1238.94 2536.96 1236.55C2537.61 1234.16 2537.76 1231.66 2537.39 1229.21C2537.02 1226.76 2536.13 1224.41 2534.8 1222.32L2532.72 1219.2L2535.76 1216.96C2560.88 1198.6 2578.19 1171.48 2584.26 1140.97C2590.34 1110.45 2584.74 1078.77 2568.57 1052.19C2552.4 1025.61 2526.84 1006.07 2496.94 997.436C2467.05 988.803 2435.01 991.708 2407.16 1005.57C2379.31 1019.44 2357.68 1043.26 2346.55 1072.31C2335.42 1101.37 2335.61 1133.54 2347.07 1162.47C2358.53 1191.39 2380.44 1214.96 2408.45 1228.5C2436.46 1242.04 2468.53 1244.58 2498.32 1235.6L2502 1234.72Z" fill="#90CAF9"/>
<path d="M2475.68 1095.52C2476.4 1087.52 2469.44 1082.8 2459.28 1082.8C2454.08 1082.81 2448.97 1084.13 2444.41 1086.63C2439.86 1089.13 2436 1092.74 2433.2 1097.12L2405.04 1081.12C2417.12 1063.44 2437.04 1051.76 2466.56 1051.76C2497.2 1051.76 2517.84 1064.8 2515.76 1089.04C2513.04 1120.08 2480.08 1124.64 2478.48 1142.88H2443.12C2445.36 1116.96 2474.4 1110.4 2475.68 1095.52ZM2435.68 1174.56C2436.31 1168.73 2439.14 1163.35 2443.6 1159.54C2448.07 1155.74 2453.82 1153.78 2459.68 1154.08C2462.46 1153.78 2465.26 1154.11 2467.9 1155.03C2470.53 1155.95 2472.93 1157.44 2474.92 1159.4C2476.91 1161.36 2478.44 1163.74 2479.4 1166.36C2480.36 1168.98 2480.73 1171.78 2480.48 1174.56C2479.8 1180.47 2476.9 1185.9 2472.37 1189.76C2467.85 1193.62 2462.02 1195.62 2456.08 1195.36C2453.31 1195.58 2450.52 1195.2 2447.91 1194.22C2445.3 1193.25 2442.94 1191.72 2440.99 1189.74C2439.03 1187.76 2437.54 1185.37 2436.61 1182.75C2435.68 1180.12 2435.33 1177.33 2435.6 1174.56H2435.68Z" fill="#90CAF9"/>
<defs>
<filter id="filter0_f_2108_1082" x="1077.44" y="239.443" width="5261.11" height="4291.11" filterUnits="userSpaceOnUse" color-interpolation-filters="sRGB">
<feFlood flood-opacity="0" result="BackgroundImageFix"/>
<feBlend mode="normal" in="SourceGraphic" in2="BackgroundImageFix" result="shape"/>
<feGaussianBlur stdDeviation="284.278" result="effect1_foregroundBlur_2108_1082"/>
</filter>
<linearGradient id="paint0_linear_2108_1082" x1="3708" y1="808" x2="3708" y2="3962" gradientUnits="userSpaceOnUse">
<stop stop-color="#16B6F0" stop-opacity="0.36"/>
<stop offset="1" stop-color="#1653F0" stop-opacity="0.6"/>
</linearGradient>
<linearGradient id="paint1_linear_2108_1082" x1="1049.5" y1="3665.68" x2="1049.5" y2="6441.82" gradientUnits="userSpaceOnUse">
<stop stop-color="#EAF0FF" stop-opacity="0.05"/>
<stop offset="1" stop-color="#EAF0FF"/>
</linearGradient>
<clipPath id="clip0_2108_1082">
<rect width="5371" height="3529" fill="white"/>
</clipPath>
</defs>
</svg>
