<svg width="5371" height="3529" viewBox="0 0 5371 3529" fill="none" xmlns="http://www.w3.org/2000/svg">
<g clip-path="url(#clip0_2109_17567)">
<rect width="5371" height="3529" fill="#EAF0FF"/>
<g filter="url(#filter0_f_2109_17567)">
<ellipse cx="3708" cy="2385" rx="2062" ry="1577" fill="url(#paint0_linear_2109_17567)" fill-opacity="0.5"/>
</g>
<rect y="589" width="2099" height="6141" fill="url(#paint1_linear_2109_17567)"/>
<path d="M1211.12 2269.46C1256.9 2240.56 1273.58 2203.15 1281.15 2149.5C1284.76 2122.59 1282.55 2095.22 1274.67 2069.24C1266.8 2043.26 1253.44 2019.27 1235.5 1998.9C1205.47 1965.15 1163.05 1942.02 1141.34 1902.44C1118.26 1860.2 1121.67 1804.32 1088.49 1769.52C1065.66 1745.64 1031.05 1737.88 1002.77 1720.76C979.694 1706.81 961.085 1686.71 940.182 1669.65C919.279 1652.6 894.157 1638.14 867.175 1638.64C826.547 1639.82 793.114 1678.15 789.331 1718.66C785.547 1759.16 806.388 1799.29 836.162 1826.83C857.747 1846.93 884.729 1862.81 898.189 1888.86C923.621 1938.11 891.614 2003.42 919.155 2051.5C939.252 2086.67 987.385 2105.27 992.595 2145.47C994.456 2160.23 989.618 2174.99 989.06 2189.88C987.199 2236.4 1028.94 2275.85 1074.35 2286.21C1119.75 2296.57 1167.08 2284.41 1210.81 2269.03" fill="#F5F5F5"/>
<path d="M947.439 1806.42C948.762 1808.46 950.301 1810.36 952.029 1812.07L966.047 1827.58C972.25 1834.15 979.755 1842.34 987.819 1852.39C995.883 1862.44 1005.81 1873.23 1015.3 1886.38L1030.62 1906.6C1035.95 1913.67 1040.85 1921.42 1046.31 1929.24C1057.35 1944.68 1067.65 1962.24 1078.88 1980.47C1102.05 2020.62 1122.38 2062.35 1139.72 2105.34C1156.46 2148.61 1170.12 2193.01 1180.6 2238.2C1184.88 2259.16 1189.35 2279.01 1191.83 2297.87C1193.19 2307.24 1194.87 2316.48 1195.86 2325.1C1196.85 2333.72 1197.6 2342.28 1198.47 2350.35C1200.51 2366.41 1200.76 2381.36 1201.57 2393.76C1202.37 2406.17 1202.62 2417.71 1202.62 2426.76C1202.62 2435.82 1202.62 2442.27 1202.93 2447.6C1202.84 2450.05 1203.01 2452.51 1203.43 2454.92C1203.86 2452.53 1204.07 2450.1 1204.05 2447.67C1204.05 2442.33 1204.48 2435.26 1204.79 2426.76C1205.1 2418.27 1205.35 2406.54 1204.79 2393.64C1204.23 2380.74 1204.3 2366.04 1202.5 2349.85C1201.75 2341.79 1201.01 2333.29 1200.2 2324.48C1199.4 2315.67 1197.78 2306.49 1196.48 2297.06C1194.19 2278.02 1189.91 2258.05 1185.69 2236.96C1175.45 2191.42 1161.85 2146.7 1145 2103.16C1127.59 2059.88 1107 2017.93 1083.4 1977.68C1071.99 1959.45 1061.51 1941.89 1050.22 1926.45C1044.7 1918.63 1039.61 1910.88 1034.22 1903.87L1018.52 1883.77C1008.78 1870.75 998.736 1859.95 990.3 1850.15C981.864 1840.35 974.235 1832.35 967.784 1825.96L952.959 1811.2C951.28 1809.43 949.431 1807.83 947.439 1806.42Z" fill="#E0E0E0"/>
<path d="M4656.32 1225.97C4656.32 1225.97 4598.02 1187.39 4527 1326.89C4455.97 1466.39 4428.99 1546.53 4428.99 1546.53C4428.99 1546.53 4410.38 1575.74 4390.1 1556.64C4369.82 1537.53 4342.52 1483.32 4308.41 1493.12C4273.05 1503.23 4261.39 1542.74 4268.15 1600.74C4274.91 1658.74 4285.02 1786.45 4285.89 1797.99C4286.76 1809.53 4280.25 1826.03 4264.49 1815.17C4248.74 1804.32 4158.05 1703.52 4112.77 1749.3C4067.49 1795.07 4112.77 1953.99 4117.43 1971.17C4122.08 1988.35 4118.6 1995.98 4110.35 2000.32C4102.11 2004.66 4074.81 1967.88 4047.83 1940.22C4020.85 1912.55 3984.75 1885.2 3960.99 1913.86C3937.24 1942.51 3929.42 2061.48 4042.62 2255.01L4100.99 2341.1L4205.26 2335.33C4427.75 2309.34 4518.06 2231.56 4526.56 2195.21C4535.06 2158.87 4491.45 2146.46 4453.12 2141.62C4414.79 2136.78 4369.01 2137.16 4367.46 2127.91C4365.91 2118.67 4369.82 2111.54 4386.5 2104.72C4403.19 2097.89 4557.14 2038.59 4566.38 1974.83C4575.62 1911.06 4440.53 1899.4 4422.42 1893.33C4404.3 1887.25 4413.67 1872.05 4423.28 1865.91C4432.9 1859.77 4541.14 1790.86 4591.38 1761.27C4641.62 1731.68 4666.31 1698.62 4653.1 1664.32C4640.32 1631.2 4580.52 1641.86 4553.17 1637.34C4525.82 1632.81 4537.85 1600.12 4537.85 1600.12C4537.85 1600.12 4585.86 1530.15 4654.34 1389.23C4722.82 1248.3 4655.21 1224.91 4655.21 1224.91" fill="#EBEBEB"/>
<path d="M4592.5 1350.77L4591.19 1353.75L4587.1 1362.49L4571.16 1395.86C4557.26 1424.89 4536.92 1466.7 4511.49 1518.24C4460.75 1621.4 4389.48 1763.32 4310.27 1919.81C4231.06 2076.31 4159.42 2218.04 4108.18 2320.94L4047.58 2442.83L4031.08 2475.95L4026.74 2484.51C4026.26 2485.51 4025.72 2486.49 4025.13 2487.43L4026.43 2484.39L4030.53 2475.7L4046.47 2442.27C4060.36 2413.3 4080.71 2371.5 4106.14 2319.89C4156.88 2216.74 4228.15 2074.82 4307.42 1918.32C4386.69 1761.83 4458.21 1620.16 4509.44 1517.25L4569.86 1395.37L4586.36 1362.18L4590.7 1353.62C4591.88 1351.7 4592.5 1350.77 4592.5 1350.77Z" fill="#E0E0E0"/>
<path d="M4343.83 1570.72C4345 1572.88 4345.92 1575.17 4346.56 1577.54C4348.11 1582.13 4350.09 1588.83 4352.45 1597.14C4357.16 1613.77 4363.06 1636.9 4369.13 1662.58L4384.46 1728.27C4386.32 1736.15 4387.93 1742.78 4389.23 1748.12C4390 1750.51 4390.48 1752.99 4390.66 1755.5C4389.54 1753.26 4388.65 1750.91 4387.99 1748.49C4386.5 1743.9 4384.52 1737.14 4382.22 1728.83C4377.69 1712.14 4372.05 1688.94 4365.97 1663.33C4359.89 1637.71 4354.43 1615.26 4350.22 1597.76L4345.38 1577.91C4344.62 1575.57 4344.1 1573.16 4343.83 1570.72Z" fill="#E0E0E0"/>
<path d="M4400.09 1757.42C4400.09 1756.55 4446.98 1742.29 4505.53 1725.48C4564.09 1708.67 4611.48 1695.77 4611.72 1696.64C4611.97 1697.5 4564.83 1711.77 4506.28 1728.58C4447.72 1745.39 4400.33 1758.42 4400.09 1757.42Z" fill="#E0E0E0"/>
<path d="M4267.6 1992.38C4270.12 1991.98 4272.68 1991.86 4275.22 1992.01H4296.13C4313.74 1992.01 4338.06 1992.01 4364.92 1990.9C4391.77 1989.78 4416.03 1988.23 4433.58 1986.8L4454.42 1985.19C4456.98 1984.89 4459.56 1984.89 4462.11 1985.19C4459.66 1985.97 4457.12 1986.47 4454.55 1986.68C4449.65 1987.42 4442.58 1988.35 4433.83 1989.34C4416.28 1991.33 4391.96 1993.44 4365.04 1994.37C4338.12 1995.3 4313.74 1995.11 4296.07 1994.37C4287.26 1994.06 4280.12 1993.69 4275.22 1993.31C4272.65 1993.31 4270.09 1993 4267.6 1992.38Z" fill="#E0E0E0"/>
<path d="M4179.45 1834.58C4181.1 1836.32 4182.48 1838.28 4183.55 1840.42L4193.6 1856.85C4201.97 1870.81 4213.38 1890.22 4225.79 1911.81C4238.19 1933.4 4249.24 1952.93 4257.11 1967.2L4266.23 1984.2C4267.46 1986.15 4268.48 1988.23 4269.27 1990.4C4267.65 1988.65 4266.27 1986.69 4265.18 1984.57L4255.13 1968.32C4246.75 1954.36 4235.34 1934.95 4222.94 1913.42C4210.53 1891.9 4199.49 1872.24 4191.61 1857.97L4182.49 1841.04C4181.26 1839 4180.24 1836.84 4179.45 1834.58Z" fill="#E0E0E0"/>
<path d="M4036.42 2027C4038.32 2029.36 4040.04 2031.87 4041.57 2034.5C4044.92 2040.02 4049.26 2046.91 4054.53 2055.59C4065.32 2073.39 4080.15 2098.2 4096.28 2125.68C4112.4 2153.16 4126.85 2178.09 4137.21 2196.21C4142.11 2204.95 4146.15 2212.21 4149.31 2217.79C4150.9 2220.37 4152.25 2223.09 4153.34 2225.92C4151.4 2223.58 4149.68 2221.07 4148.19 2218.41L4135.23 2197.39C4124.44 2179.52 4109.61 2154.77 4093.48 2127.29C4077.36 2099.82 4062.9 2074.88 4052.55 2056.71L4040.45 2035.18C4038.85 2032.59 4037.5 2029.85 4036.42 2027Z" fill="#E0E0E0"/>
<path d="M4151.67 2220.4C4154.86 2219.88 4158.1 2219.66 4161.34 2219.72L4187.83 2218.85C4210.16 2218.1 4240.99 2216.92 4275.04 2214.69C4309.09 2212.46 4339.86 2209.73 4361.88 2207.56L4388.24 2204.95C4391.46 2204.47 4394.72 2204.29 4397.98 2204.39C4394.86 2205.29 4391.66 2205.89 4388.43 2206.19C4382.22 2207.19 4373.23 2208.43 4362.13 2209.79C4339.92 2212.58 4309.15 2215.99 4275.29 2217.92C4241.42 2219.84 4210.28 2220.96 4187.95 2221.14C4176.72 2221.14 4167.67 2221.14 4161.4 2221.14C4158.14 2221.21 4154.88 2220.97 4151.67 2220.4Z" fill="#E0E0E0"/>
<path d="M4652.97 2986.62C4652.97 2987.55 3764.61 2988.3 2669.08 2988.3C1573.55 2988.3 685 2987.55 685 2986.62C685 2985.69 1573.17 2985.01 2669.08 2985.01C3764.98 2985.01 4652.97 2985.57 4652.97 2986.62Z" fill="#263238"/>
<path d="M867.609 2554.04C879.113 2554.93 890.319 2558.13 900.553 2563.46C910.786 2568.79 919.835 2576.14 927.156 2585.06C941.724 2603.03 951.973 2624.1 957.115 2646.65C968.218 2690.07 960.713 2740.62 948.059 2783.11C901.6 2766.05 873.254 2716.06 860.476 2690.07C840.317 2648.57 829.028 2561.3 867.609 2553.92" fill="#90CAF9"/>
<path d="M1014.74 2836.27C1007.82 2825.36 1003.92 2812.81 1003.43 2799.9C1002.94 2786.98 1005.88 2774.17 1011.95 2762.77C1018.18 2751.48 1026.6 2741.54 1036.72 2733.54C1046.84 2725.54 1058.45 2719.64 1070.87 2716.18C1082.29 2712.77 1095.69 2711.41 1105.36 2718.11C1109.8 2721.5 1113.23 2726.03 1115.31 2731.22C1117.38 2736.4 1118.02 2742.05 1117.15 2747.57C1115.33 2758.61 1110.63 2768.97 1103.5 2777.59C1080.55 2808.11 1052.76 2833.42 1014.74 2836.27Z" fill="#90CAF9"/>
<path d="M1018.58 2980.17C1017.7 2977.25 1017.03 2974.27 1016.6 2971.24C1015.42 2965.04 1013.87 2956.6 1012.01 2946.43C1008.54 2925.78 1002.95 2896.37 1007.61 2864C1011.01 2836.31 1021.71 2810.02 1038.62 2787.83C1043.84 2781.23 1049.83 2775.3 1056.48 2770.15C1058.25 2768.69 1060.11 2767.37 1062.07 2766.18C1063.39 2765.31 1064.07 2764.94 1064.11 2765.06C1055.42 2772.3 1047.48 2780.41 1040.42 2789.25C1024.31 2811.4 1014.04 2837.26 1010.58 2864.43C1005.93 2896.19 1011.08 2925.34 1013.99 2946.12C1015.61 2956.54 1016.85 2964.73 1017.59 2970.93C1018.27 2973.97 1018.6 2977.07 1018.58 2980.17Z" fill="#263238"/>
<path d="M882.062 2619.61C882.811 2620.74 883.435 2621.94 883.923 2623.2C885.163 2625.87 886.714 2629.41 888.637 2633.63C892.669 2642.68 898.375 2655.89 905.26 2672.27C919.031 2704.96 937.391 2750.49 956.557 2801.16C975.724 2851.84 992.037 2898.17 1003.33 2931.79C1009.03 2948.66 1013.5 2962.31 1016.48 2971.8L1019.83 2982.72C1020.3 2983.95 1020.61 2985.25 1020.76 2986.56C1020.12 2985.4 1019.6 2984.17 1019.21 2982.9C1018.15 2980.17 1016.85 2976.7 1015.24 2972.17C1011.82 2962.43 1007.05 2949.04 1001.22 2932.54C989.308 2899.1 972.684 2852.96 953.518 2802.28C934.351 2751.6 916.425 2706.45 903.151 2673.2L887.458 2634.12C885.784 2629.78 884.419 2626.24 883.303 2623.52C882.761 2622.26 882.345 2620.95 882.062 2619.61Z" fill="#263238"/>
<path d="M964.063 2884.53C950.269 2861.06 931.075 2841.22 908.076 2826.65C885.076 2812.09 858.934 2803.22 831.82 2800.79C818.049 2799.67 801.488 2801.84 795.223 2814.13C788.958 2826.41 797.084 2841.23 806.388 2851.34C826.173 2872.41 851.754 2887.14 879.903 2893.69C908.052 2900.24 937.509 2898.3 964.559 2888.13" fill="#90CAF9"/>
<path d="M852.537 2837.82C855.418 2837.7 858.304 2837.85 861.158 2838.26C864.53 2838.46 867.886 2838.88 871.207 2839.5C875.635 2840.12 880.024 2840.99 884.357 2842.1C889.665 2843.3 894.903 2844.8 900.05 2846.57C905.978 2848.53 911.797 2850.8 917.48 2853.39C930.524 2859.37 942.844 2866.82 954.2 2875.6C965.425 2884.53 975.582 2894.73 984.469 2905.99C988.297 2910.95 991.838 2916.13 995.076 2921.5C998.077 2926.15 1000.81 2930.98 1003.26 2935.95C1005.29 2939.98 1007.07 2944.12 1008.6 2948.35C1009.96 2951.45 1011.08 2954.64 1011.95 2957.91C1012.97 2960.61 1013.7 2963.42 1014.12 2966.28C1013.44 2966.28 1010.21 2954.56 1001.22 2937.07C998.764 2932.27 996.051 2927.61 993.091 2923.11C989.788 2917.93 986.227 2912.92 982.423 2908.1C973.584 2897.12 963.557 2887.16 952.525 2878.39C941.368 2869.76 929.305 2862.38 916.549 2856.37C910.897 2853.63 905.099 2851.21 899.181 2849.11C893.785 2847 888.575 2845.64 883.799 2844.27C864.756 2839.31 852.413 2838.57 852.537 2837.82Z" fill="#263238"/>
<path d="M3993.68 577.842H1266.63C1244.06 577.842 1222.42 586.808 1206.46 602.768C1190.5 618.728 1181.53 640.374 1181.53 662.944V2589.15C1181.53 2611.72 1190.5 2633.37 1206.46 2649.33C1222.42 2665.29 1244.06 2674.25 1266.63 2674.25H2313.29C2313.29 2674.25 2379.84 2880.12 2173.48 2986.63H3152.09C3152.09 2986.63 2919.11 2906.8 2978.97 2674.25H3993.68C4016.25 2674.25 4037.9 2665.29 4053.86 2649.33C4069.82 2633.37 4078.78 2611.72 4078.78 2589.15V662.944C4078.78 640.374 4069.82 618.728 4053.86 602.768C4037.9 586.808 4016.25 577.842 3993.68 577.842Z" fill="#263238"/>
<path d="M2666.54 2471.67C2703.75 2524.71 2645.57 2582.76 2592.54 2545.67C2590.77 2544.42 2589.24 2542.86 2588.01 2541.08C2550.79 2488.11 2608.98 2430.11 2662.01 2467.14C2663.78 2468.36 2665.32 2469.9 2666.54 2471.67Z" fill="#455A64"/>
<path d="M3991.32 693.338H1263.35C1252.14 693.338 1243.06 702.419 1243.06 713.621V2315.24C1243.06 2326.44 1252.14 2335.52 1263.35 2335.52H3991.32C4002.53 2335.52 4011.61 2326.44 4011.61 2315.24V713.621C4011.61 702.419 4002.53 693.338 3991.32 693.338Z" fill="#E0E0E0"/>
<path d="M4011.61 813.609H1243.06V2335.46H4011.61V813.609Z" fill="white"/>
<path d="M1470.08 756.73C1470.1 761.115 1468.81 765.405 1466.38 769.056C1463.95 772.707 1460.49 775.555 1456.44 777.238C1452.39 778.922 1447.94 779.366 1443.64 778.513C1439.33 777.661 1435.38 775.551 1432.28 772.45C1429.18 769.35 1427.07 765.398 1426.22 761.097C1425.37 756.796 1425.81 752.338 1427.49 748.289C1429.18 744.241 1432.03 740.783 1435.68 738.354C1439.33 735.926 1443.62 734.636 1448 734.648C1453.86 734.648 1459.48 736.975 1463.62 741.116C1467.76 745.257 1470.08 750.874 1470.08 756.73Z" fill="#455A64"/>
<path d="M1336.1 756.73C1336.12 761.112 1334.83 765.4 1332.4 769.049C1329.98 772.699 1326.52 775.547 1322.48 777.233C1318.43 778.918 1313.98 779.365 1309.68 778.518C1305.38 777.671 1301.43 775.567 1298.32 772.472C1295.22 769.378 1293.11 765.432 1292.25 761.135C1291.39 756.838 1291.82 752.382 1293.5 748.332C1295.17 744.283 1298.01 740.821 1301.65 738.385C1305.29 735.949 1309.58 734.648 1313.96 734.648C1316.87 734.64 1319.74 735.205 1322.43 736.311C1325.12 737.417 1327.56 739.043 1329.62 741.094C1331.67 743.145 1333.3 745.582 1334.42 748.265C1335.53 750.949 1336.1 753.825 1336.1 756.73Z" fill="#455A64"/>
<path d="M1400.24 756.73C1400.25 761.112 1398.97 765.4 1396.54 769.049C1394.11 772.699 1390.66 775.547 1386.61 777.233C1382.57 778.918 1378.12 779.365 1373.82 778.518C1369.52 777.671 1365.56 775.567 1362.46 772.472C1359.36 769.378 1357.24 765.432 1356.38 761.135C1355.52 756.838 1355.96 752.382 1357.63 748.332C1359.31 744.283 1362.15 740.821 1365.79 738.385C1369.43 735.949 1373.72 734.648 1378.1 734.648C1381 734.64 1383.88 735.205 1386.57 736.311C1389.25 737.417 1391.69 739.043 1393.75 741.094C1395.81 743.145 1397.44 745.582 1398.55 748.265C1399.67 750.949 1400.24 753.825 1400.24 756.73Z" fill="#455A64"/>
<path d="M3925.51 905.348H3196.44V2123.45H3925.51V905.348Z" fill="#F5F5F5"/>
<path d="M3389.84 1622.64L3397.66 1638.45L3415.15 1641.06L3402.5 1653.34L3405.47 1670.77L3389.84 1662.52L3374.21 1670.77L3377.25 1653.34L3364.6 1641.06L3382.03 1638.45L3389.84 1622.64Z" fill="#90CAF9"/>
<path d="M3476.68 1622.64L3484.5 1638.45L3501.99 1641.06L3489.33 1653.34L3492.31 1670.77L3476.68 1662.52L3461.05 1670.77L3464.03 1653.34L3451.37 1641.06L3468.86 1638.45L3476.68 1622.64Z" fill="#90CAF9"/>
<path d="M3563.46 1622.64L3571.27 1638.45L3588.76 1641.06L3576.11 1653.34L3579.09 1670.77L3563.46 1662.52L3547.89 1670.77L3550.87 1653.34L3538.21 1641.06L3555.64 1638.45L3563.46 1622.64Z" fill="#90CAF9"/>
<path d="M3650.3 1622.64L3658.11 1638.45L3675.6 1641.06L3662.95 1653.34L3665.93 1670.77L3650.3 1662.52L3634.66 1670.77L3637.64 1653.34L3624.99 1641.06L3642.48 1638.45L3650.3 1622.64Z" fill="#90CAF9"/>
<path d="M3737.07 1622.64L3744.89 1638.45L3762.38 1641.06L3749.73 1653.34L3752.7 1670.77L3737.07 1662.52L3721.5 1670.77L3724.48 1653.34L3711.83 1641.06L3729.32 1638.45L3737.07 1622.64Z" fill="#90CAF9"/>
<path d="M3531.2 1765.42C3531.2 1766.35 3475.87 1767.04 3407.58 1767.04C3339.29 1767.04 3283.96 1766.35 3283.96 1765.42C3283.96 1764.49 3339.29 1763.81 3407.58 1763.81C3475.87 1763.81 3531.2 1764.56 3531.2 1765.42Z" fill="#90CAF9"/>
<path d="M3841.9 1819.45C3841.9 1820.32 3718.46 1821.06 3566.19 1821.06C3413.91 1821.06 3290.47 1820.32 3290.47 1819.45C3290.47 1818.58 3413.91 1817.84 3566.19 1817.84C3718.46 1817.84 3841.9 1818.21 3841.9 1819.45Z" fill="#263238"/>
<path d="M3841.9 1865.23C3841.9 1866.09 3718.46 1866.84 3566.19 1866.84C3413.91 1866.84 3290.47 1866.09 3290.47 1865.23C3290.47 1864.36 3413.91 1863.61 3566.19 1863.61C3718.46 1863.61 3841.9 1864.36 3841.9 1865.23Z" fill="#263238"/>
<path d="M3841.9 1911.38C3841.9 1912.24 3718.46 1912.99 3566.19 1912.99C3413.91 1912.99 3290.47 1912.24 3290.47 1911.38C3290.47 1910.51 3413.91 1909.76 3566.19 1909.76C3718.46 1909.76 3841.9 1910.45 3841.9 1911.38Z" fill="#263238"/>
<path d="M3841.9 1957.46C3841.9 1958.39 3718.46 1959.07 3566.19 1959.07C3413.91 1959.07 3290.47 1958.39 3290.47 1957.46C3290.47 1956.53 3413.91 1955.85 3566.19 1955.85C3718.46 1955.85 3841.9 1956.59 3841.9 1957.46Z" fill="#263238"/>
<path d="M3841.9 2003.61C3841.9 2004.48 3718.46 2005.22 3566.19 2005.22C3413.91 2005.22 3290.47 2004.48 3290.47 2003.61C3290.47 2002.74 3413.91 2002 3566.19 2002C3718.46 2002 3841.9 2002.68 3841.9 2003.61Z" fill="#263238"/>
<path d="M3872.42 967.19H3244.39V1570.1H3872.42V967.19Z" fill="#E0E0E0"/>
<path d="M3779.13 1465.02L3819.94 1570.16H3721.07L3698.8 1512.91L3779.13 1465.02Z" fill="#FFBE9D"/>
<path d="M3402.68 1570.16H3670.45C3674.61 1530.59 3677.22 1493.18 3677.22 1493.18L3690.99 1530.4L3803.44 1474.14C3803.44 1474.14 3762.57 1365.16 3728.33 1328.25C3684.91 1281.55 3607.31 1286.2 3607.31 1286.2L3506.33 1287.87C3480.49 1290.93 3455.33 1298.27 3431.9 1309.58L3429.42 1310.33V1310.82C3407.58 1329.43 3341.96 1417.39 3341.96 1417.39L3366.15 1440.9L3415.77 1487.11C3415.71 1487.25 3415.67 1487.41 3415.67 1487.57C3415.67 1487.73 3415.71 1487.89 3415.77 1488.04C3416.14 1493.06 3402.68 1570.16 3402.68 1570.16Z" fill="#90CAF9"/>
<path d="M3610.16 1282.6C3610.16 1282.6 3610.47 1283.22 3610.72 1284.4C3611.09 1286.16 3611.32 1287.94 3611.4 1289.73C3611.72 1296.38 3610.8 1303.03 3608.67 1309.33C3605.47 1318.78 3599.8 1327.2 3592.24 1333.71C3582.74 1341.53 3570.91 1345.96 3558.61 1346.31C3546.31 1346.66 3534.24 1342.9 3524.32 1335.63C3516.43 1329.53 3510.31 1321.43 3506.58 1312.19C3504.11 1306.01 3502.83 1299.42 3502.79 1292.77C3502.75 1290.97 3502.88 1289.16 3503.17 1287.38C3503.17 1286.2 3503.48 1285.58 3503.6 1285.58C3503.68 1294.4 3505.41 1303.13 3508.69 1311.32C3512.54 1319.98 3518.54 1327.51 3526.12 1333.22C3535.57 1339.94 3546.95 1343.41 3558.55 1343.08C3570.14 1342.76 3581.32 1338.66 3590.38 1331.42C3597.63 1325.32 3603.18 1317.46 3606.5 1308.59C3609.36 1300.24 3610.6 1291.42 3610.16 1282.6Z" fill="#263238"/>
<path d="M3705.81 1306.54C3705.81 1306.85 3703.08 1306.54 3698.68 1308.4C3692.45 1310.76 3687.03 1314.85 3683.05 1320.19C3677.35 1328.27 3673.86 1337.7 3672.94 1347.54C3671.45 1358.65 3671.14 1371.18 3670.64 1384.2C3669.96 1410.38 3670.95 1433.82 3672.19 1451.19C3672.75 1459.19 3673.31 1465.95 3673.68 1471.41C3674.1 1473.89 3674.2 1476.41 3673.99 1478.92C3673.24 1476.53 3672.72 1474.08 3672.44 1471.6C3671.76 1466.82 3670.76 1459.94 3669.9 1451.38C3667.65 1429.04 3666.82 1406.58 3667.42 1384.14C3667.63 1371.7 3668.5 1359.27 3670.02 1346.92C3671.12 1336.62 3675.02 1326.81 3681.31 1318.58C3685.64 1313.06 3691.58 1309.03 3698.3 1307.04C3700.1 1306.5 3701.95 1306.21 3703.83 1306.17C3705.13 1306.36 3705.81 1306.42 3705.81 1306.54Z" fill="#263238"/>
<path d="M3465.76 1295.25C3465.38 1297.83 3464.75 1300.36 3463.9 1302.82C3462.23 1308.28 3460.18 1315.23 3457.7 1323.23C3452.55 1340.41 3445.67 1364.23 3438.72 1390.78C3431.77 1417.32 3426.31 1441.45 3422.47 1459.01C3420.61 1467.26 3419.06 1474.2 3417.82 1479.79C3417.41 1482.38 3416.72 1484.91 3415.77 1487.35C3415.81 1484.73 3416.08 1482.11 3416.58 1479.54C3417.32 1474.58 3418.56 1467.13 3420.17 1458.57C3423.52 1440.83 3428.73 1416.52 3435.62 1389.97C3442.5 1363.42 3449.82 1339.6 3455.53 1322.55C3458.38 1313.99 3460.8 1307.16 3462.6 1302.45C3463.41 1299.95 3464.47 1297.54 3465.76 1295.25Z" fill="#263238"/>
<path opacity="0.2" d="M3668.84 1391.46L3706.06 1523.33L3691.23 1530.77L3677.46 1493.56C3677.46 1493.56 3663.82 1415.03 3668.84 1391.46Z" fill="black"/>
<g opacity="0.2">
<path d="M3470.11 1295.38C3448.58 1306.29 3501.43 1334.58 3525.56 1334.33L3509.18 1287.44C3509.18 1287.44 3477.3 1291.72 3470.11 1295.38Z" fill="black"/>
</g>
<path d="M3560.98 1343.33C3553.5 1343.84 3546 1342.77 3538.97 1340.19C3531.93 1337.61 3525.52 1333.58 3520.14 1328.37C3514.77 1323.15 3510.55 1316.86 3507.76 1309.9C3504.98 1302.95 3503.69 1295.48 3503.97 1288C3504.59 1270.82 3505.15 1256.98 3505.15 1256.98C3505.15 1256.98 3462.54 1253.26 3459.19 1211.14C3455.84 1169.03 3456.58 1071.71 3456.58 1071.71C3479.86 1059.8 3505.9 1054.31 3532 1055.83C3558.11 1057.35 3583.33 1065.8 3605.08 1080.33L3611.65 1084.67L3610.85 1290.48C3610.72 1303.95 3605.51 1316.88 3596.27 1326.67C3587.02 1336.47 3574.42 1342.42 3560.98 1343.33Z" fill="#FFBE9D"/>
<path d="M3479.47 1145.89C3480.36 1145.03 3480.97 1143.93 3481.23 1142.72C3481.48 1141.51 3481.37 1140.25 3480.91 1139.11C3480.45 1137.96 3479.65 1136.98 3478.63 1136.29C3477.6 1135.6 3476.4 1135.23 3475.16 1135.23C3473.92 1135.23 3472.72 1135.6 3471.69 1136.29C3470.67 1136.98 3469.87 1137.96 3469.41 1139.11C3468.95 1140.25 3468.84 1141.51 3469.09 1142.72C3469.35 1143.93 3469.96 1145.03 3470.85 1145.89C3472.01 1147.01 3473.55 1147.63 3475.16 1147.63C3476.77 1147.63 3478.31 1147.01 3479.47 1145.89Z" fill="#263238"/>
<path d="M3460.8 1133.36C3461.48 1134.04 3465.39 1130.63 3471.22 1130.2C3477.05 1129.76 3481.46 1132.49 3482.01 1131.69C3482.57 1130.88 3481.58 1130.07 3479.66 1128.77C3477.03 1127.17 3473.98 1126.43 3470.91 1126.66C3467.86 1126.91 3464.97 1128.13 3462.66 1130.14C3460.99 1131.69 3460.43 1133.05 3460.8 1133.36Z" fill="#263238"/>
<path d="M3532.44 1136.65C3531.43 1137.36 3530.66 1138.35 3530.21 1139.49C3529.77 1140.64 3529.67 1141.9 3529.94 1143.1C3530.22 1144.3 3530.84 1145.4 3531.74 1146.24C3532.63 1147.09 3533.76 1147.65 3534.97 1147.85C3536.19 1148.06 3537.44 1147.89 3538.56 1147.38C3539.68 1146.87 3540.63 1146.04 3541.27 1144.99C3541.92 1143.94 3542.24 1142.72 3542.19 1141.49C3542.14 1140.26 3541.73 1139.07 3541 1138.08C3540.05 1136.77 3538.61 1135.88 3537.01 1135.62C3535.41 1135.35 3533.77 1135.72 3532.44 1136.65Z" fill="#263238"/>
<path d="M3522.21 1133.55C3522.95 1134.23 3526.86 1130.76 3532.69 1130.32C3538.52 1129.89 3542.86 1132.62 3543.48 1131.81C3544.1 1131 3543.05 1130.2 3541.07 1128.96C3538.49 1127.3 3535.43 1126.56 3532.38 1126.85C3529.33 1127.05 3526.43 1128.25 3524.13 1130.26C3522.39 1131.87 3521.9 1133.24 3522.21 1133.55Z" fill="#263238"/>
<path d="M3503.72 1184.66C3500.64 1183.69 3497.41 1183.25 3494.17 1183.36C3492.62 1183.36 3491.44 1182.98 3491.26 1182.18C3491.11 1180.66 3491.39 1179.14 3492.06 1177.77L3495.85 1165.37C3499.52 1155.09 3502.16 1144.47 3503.72 1133.67C3498.98 1143.49 3495.28 1153.78 3492.68 1164.38C3491.44 1168.59 3490.26 1172.63 3489.15 1176.78C3488.33 1178.75 3488.18 1180.92 3488.71 1182.98C3488.97 1183.56 3489.35 1184.06 3489.84 1184.46C3490.32 1184.86 3490.89 1185.14 3491.51 1185.28C3492.37 1185.43 3493.25 1185.43 3494.11 1185.28C3497.33 1185.63 3500.58 1185.43 3503.72 1184.66Z" fill="#263238"/>
<path d="M3505.09 1256.18C3524.58 1255.23 3543.35 1248.49 3558.99 1236.82C3558.99 1236.82 3548.01 1267.84 3505.71 1267.09L3505.09 1256.18Z" fill="#EB996E"/>
<path d="M3609.79 1129.33C3610.6 1129.02 3644.28 1125.36 3638.94 1157.93C3634.35 1186.02 3604.09 1177.46 3604.15 1176.53C3604.21 1175.6 3609.79 1129.33 3609.79 1129.33Z" fill="#FFBE9D"/>
<path d="M3615.93 1164.13C3615.93 1164.13 3616.37 1164.5 3617.17 1164.93C3618.3 1165.52 3619.61 1165.66 3620.83 1165.31C3622.67 1164.25 3624.21 1162.73 3625.29 1160.91C3626.38 1159.08 3626.98 1157.01 3627.04 1154.89C3627.32 1152.5 3627.04 1150.08 3626.23 1147.81C3626.02 1146.92 3625.61 1146.09 3625.01 1145.39C3624.42 1144.68 3623.67 1144.13 3622.82 1143.78C3622.26 1143.61 3621.66 1143.63 3621.12 1143.84C3620.58 1144.06 3620.13 1144.45 3619.84 1144.96C3619.41 1145.71 3619.84 1146.26 3619.41 1146.26C3618.97 1146.26 3618.85 1145.77 3619.41 1144.65C3619.63 1143.97 3620.07 1143.39 3620.65 1142.98C3621.46 1142.46 3622.44 1142.28 3623.38 1142.48C3624.51 1142.78 3625.55 1143.38 3626.39 1144.2C3627.23 1145.03 3627.84 1146.06 3628.15 1147.19C3629.14 1149.7 3629.52 1152.39 3629.27 1155.07C3629.21 1157.57 3628.43 1159.99 3627 1162.04C3625.58 1164.1 3623.59 1165.68 3621.27 1166.61C3620.5 1166.78 3619.71 1166.77 3618.94 1166.58C3618.18 1166.4 3617.47 1166.05 3616.86 1165.55C3615.93 1164.81 3615.81 1164.19 3615.93 1164.13Z" fill="#EB996E"/>
<path d="M3602.72 1158.61C3596.21 1162.52 3587.34 1157.61 3584.11 1150.79C3581.48 1143.63 3580.36 1136.01 3580.82 1128.4C3580.45 1118.03 3578.66 1107.76 3575.49 1097.88C3575.08 1094.27 3573.76 1090.82 3571.65 1087.85C3569.54 1084.89 3566.71 1082.51 3563.43 1080.95C3560.14 1079.38 3556.51 1078.68 3552.88 1078.91C3549.25 1079.14 3545.74 1080.29 3542.68 1082.25C3535.87 1085.65 3528.39 1087.52 3520.78 1087.71C3510.8 1086.84 3502.55 1078.96 3492.56 1077.6C3482.57 1076.23 3474.51 1080.76 3465.52 1083.31C3456.58 1086.27 3446.89 1086.05 3438.1 1082.69C3433.77 1080.93 3430.06 1077.92 3427.46 1074.04C3424.87 1070.16 3423.49 1065.59 3423.52 1060.91C3423.7 1058.62 3424.35 1056.38 3425.44 1054.35C3426.52 1052.32 3428.02 1050.54 3429.84 1049.12C3431.66 1047.7 3433.75 1046.68 3435.98 1046.11C3438.21 1045.55 3440.54 1045.45 3442.81 1045.84C3441.21 1044.75 3439.86 1043.33 3438.86 1041.67C3437.86 1040.01 3437.23 1038.15 3437.01 1036.23C3436.79 1034.3 3436.99 1032.35 3437.6 1030.51C3438.2 1028.67 3439.2 1026.98 3440.52 1025.56C3443.42 1022.85 3447.01 1021 3450.9 1020.22C3454.79 1019.45 3458.82 1019.77 3462.54 1021.15C3469.91 1024 3476.59 1028.38 3482.14 1033.99C3482.9 1030.55 3484.79 1027.45 3487.51 1025.21C3490.23 1022.96 3493.62 1021.69 3497.15 1021.59C3504.33 1021.62 3511.3 1023.99 3517 1028.35C3523.2 1032.32 3528.23 1037.16 3534.49 1040.75C3546.9 1047.64 3561.66 1048.38 3575.61 1050.93C3589.57 1053.47 3604.52 1059.11 3611.28 1071.64C3617.48 1082.62 3613.27 1095.84 3612.77 1108.36C3612.27 1120.89 3612.21 1124.31 3611.59 1136.53C3611.47 1136.09 3612.27 1153.09 3602.72 1158.61Z" fill="#263238"/>
<path d="M3498.45 1201.72C3498.45 1202.09 3500 1202.77 3502.86 1202.71C3506.58 1202.59 3510.18 1201.34 3513.17 1199.12C3516.16 1196.91 3518.41 1193.83 3519.6 1190.3C3520.47 1187.57 3520.22 1185.84 3519.6 1185.78C3518.98 1185.71 3517.31 1191.98 3511.17 1196.82C3507.21 1199.11 3502.92 1200.76 3498.45 1201.72Z" fill="white"/>
<path d="M3450.01 1054.46C3449.03 1055.14 3448.28 1056.09 3447.83 1057.19C3447.38 1058.29 3447.25 1059.5 3447.47 1060.67C3447.74 1063.31 3448.97 1065.76 3450.94 1067.55C3452.31 1068.64 3453.9 1069.42 3455.61 1069.83C3457.31 1070.23 3459.09 1070.26 3460.8 1069.91C3464.91 1069.12 3468.83 1067.54 3472.34 1065.26C3476.16 1062.62 3480.34 1060.53 3484.74 1059.05C3489.77 1057.99 3495.02 1058.78 3499.51 1061.29C3504.28 1063.64 3508.75 1067.05 3513.71 1070.09C3518.38 1073.43 3523.97 1075.23 3529.71 1075.24C3535.03 1074.55 3540 1072.21 3543.92 1068.54C3547.42 1065.46 3551.49 1063.08 3555.89 1061.53C3559.8 1060.59 3563.9 1060.83 3567.67 1062.22C3573.26 1064.23 3577.86 1068.31 3580.51 1073.63C3581.33 1075.63 3581.93 1077.71 3582.31 1079.83C3582.31 1077.69 3581.85 1075.57 3580.95 1073.63C3579.69 1070.87 3577.89 1068.38 3575.67 1066.32C3573.44 1064.25 3570.83 1062.65 3567.99 1061.6C3564.03 1060.06 3559.71 1059.76 3555.58 1060.73C3550.99 1062.22 3546.77 1064.65 3543.17 1067.86C3539.34 1071.23 3534.59 1073.39 3529.53 1074.06C3524.02 1074.02 3518.67 1072.26 3514.21 1069.04C3509.37 1066.06 3504.84 1062.84 3499.88 1060.23C3495.15 1057.63 3489.65 1056.81 3484.37 1057.94C3479.97 1059.43 3475.8 1061.51 3471.97 1064.14C3468.58 1066.39 3464.79 1067.97 3460.8 1068.79C3459.2 1069.16 3457.53 1069.17 3455.92 1068.82C3454.31 1068.46 3452.8 1067.75 3451.5 1066.74C3449.65 1065.14 3448.42 1062.95 3448.02 1060.54C3447.83 1059.44 3447.91 1058.32 3448.26 1057.26C3448.61 1056.2 3449.21 1055.24 3450.01 1054.46Z" fill="#455A64"/>
<path d="M3468.68 1032.26C3468.37 1031.8 3467.94 1031.43 3467.44 1031.2C3466.71 1030.85 3465.92 1030.67 3465.11 1030.67C3464.31 1030.67 3463.51 1030.85 3462.79 1031.2C3461.59 1031.7 3460.6 1032.58 3459.96 1033.7C3459.32 1034.82 3459.07 1036.13 3459.25 1037.41C3459.49 1039.1 3460.19 1040.7 3461.29 1042.01C3462.39 1043.33 3463.83 1044.31 3465.45 1044.85C3469.35 1045.99 3473.52 1045.79 3477.3 1044.29C3481.45 1042.62 3485.75 1041.33 3490.14 1040.44C3492.55 1040.27 3494.97 1040.63 3497.23 1041.51C3499.48 1042.39 3501.51 1043.77 3503.17 1045.53C3506.75 1049.56 3510.93 1053.01 3515.57 1055.77C3518.18 1056.68 3520.94 1057.07 3523.7 1056.91C3526.46 1056.75 3529.15 1056.05 3531.64 1054.83C3536.12 1052.75 3540.85 1051.25 3545.72 1050.37C3552.67 1049.42 3559.75 1050.6 3566.02 1053.74C3572.3 1056.89 3577.48 1061.85 3580.89 1067.98C3582.87 1071.52 3583.49 1073.69 3583.62 1073.63C3583.11 1071.6 3582.33 1069.64 3581.32 1067.8C3578.66 1062.66 3574.76 1058.27 3569.97 1055.02C3562.8 1050.18 3554.11 1048.13 3545.53 1049.25C3540.59 1050.13 3535.77 1051.63 3531.2 1053.72C3528.87 1054.88 3526.33 1055.56 3523.73 1055.72C3521.13 1055.88 3518.52 1055.51 3516.07 1054.65C3511.46 1051.95 3507.28 1048.58 3503.66 1044.66C3501.9 1042.78 3499.73 1041.32 3497.33 1040.4C3494.92 1039.48 3492.34 1039.11 3489.77 1039.33C3485.3 1040.22 3480.94 1041.58 3476.74 1043.36C3473.26 1044.77 3469.41 1045.03 3465.76 1044.1C3464.27 1043.64 3462.94 1042.77 3461.91 1041.59C3460.89 1040.4 3460.23 1038.95 3459.99 1037.41C3459.79 1036.24 3459.98 1035.05 3460.55 1034.01C3461.11 1032.97 3462.01 1032.16 3463.1 1031.7C3463.78 1031.38 3464.52 1031.21 3465.27 1031.21C3466.02 1031.21 3466.76 1031.38 3467.44 1031.7C3468.31 1031.7 3468.62 1032.32 3468.68 1032.26Z" fill="#455A64"/>
<path d="M3593.23 1065.26C3594.04 1065.57 3596.33 1060.48 3601.79 1057.13C3607.25 1053.78 3612.71 1053.84 3612.77 1052.97C3612.83 1052.11 3611.47 1051.98 3609.05 1051.92C3605.9 1052 3602.84 1052.92 3600.18 1054.59C3597.51 1056.26 3595.35 1058.61 3593.91 1061.41C3592.92 1063.64 3592.86 1065.13 3593.23 1065.26Z" fill="#263238"/>
<path d="M3598.19 1034.06C3597.32 1034.06 3598.56 1040.63 3597.51 1048.38C3596.46 1056.14 3593.85 1061.97 3594.59 1062.4C3597.84 1058.52 3599.91 1053.78 3600.54 1048.76C3601.18 1043.73 3600.37 1038.63 3598.19 1034.06Z" fill="#263238"/>
<path d="M3608.06 1147.13C3609.2 1145.37 3609.96 1143.39 3610.27 1141.31C3610.58 1139.24 3610.44 1137.12 3609.85 1135.1C3608.59 1130.75 3606.27 1126.79 3603.09 1123.56C3601.46 1121.64 3600.35 1119.34 3599.87 1116.86C3599.65 1114.14 3599.99 1111.39 3600.86 1108.8C3602.57 1103.51 3602.89 1097.87 3601.79 1092.42C3600.8 1087.91 3598.11 1083.96 3594.28 1081.38C3591.71 1079.69 3588.68 1078.85 3585.6 1078.96C3584.48 1079.01 3583.38 1079.29 3582.38 1079.77C3582.38 1079.77 3583.55 1079.77 3585.6 1079.46C3588.54 1079.5 3591.39 1080.43 3593.79 1082.13C3597.37 1084.61 3599.84 1088.4 3600.67 1092.67C3601.69 1097.94 3601.35 1103.39 3599.68 1108.49C3598.77 1111.24 3598.43 1114.16 3598.69 1117.05C3599.22 1119.71 3600.44 1122.19 3602.22 1124.24C3605.33 1127.33 3607.65 1131.11 3608.99 1135.28C3609.64 1138.16 3609.64 1141.15 3608.99 1144.03C3608.78 1145.09 3608.47 1146.13 3608.06 1147.13Z" fill="#455A64"/>
<path d="M3577.41 1447.28C3577.49 1448.63 3577.49 1449.97 3577.41 1451.32C3577.41 1454.23 3577.41 1457.52 3577.72 1461.98C3577.72 1471.16 3578.28 1484.07 3578.41 1499.64L3578.03 1498.64L3597.14 1516.44H3595.53L3628.4 1503.11L3627.47 1504.35C3627.6 1503.31 3627.79 1502.27 3628.03 1501.25C3631.63 1481.71 3634.97 1463.29 3637.95 1447.28L3639.38 1448.96C3621.08 1448.96 3605.7 1448.52 3594.72 1448.28L3581.88 1447.9C3580.38 1447.82 3578.88 1447.61 3577.41 1447.28C3578.81 1447.07 3580.22 1446.97 3581.63 1446.97L3594.04 1446.6C3604.89 1446.6 3620.65 1445.98 3639.57 1445.86H3641.24V1447.53C3638.39 1463.6 3635.04 1482.02 3631.69 1501.56L3631.13 1504.66V1505.53L3630.32 1505.9L3597.39 1518.99L3596.46 1519.36L3595.77 1518.68L3577.17 1500.63L3576.73 1500.19V1499.64C3576.73 1483.51 3577.17 1470.23 3577.41 1461.18C3577.41 1457.02 3577.41 1453.61 3577.79 1450.76C3577.51 1449.62 3577.39 1448.45 3577.41 1447.28Z" fill="#263238"/>
<path d="M3635.78 1463.47C3626.18 1465.6 3616.33 1466.42 3606.5 1465.89C3596.67 1466.45 3586.8 1465.69 3577.17 1463.66C3586.9 1462.48 3596.71 1462.15 3606.5 1462.67C3616.27 1462.11 3626.06 1462.38 3635.78 1463.47Z" fill="#263238"/>
<path d="M3355.79 1431.09C3357.09 1432.4 3256.54 1570.16 3256.54 1570.16H3355.11L3415.58 1487.29L3355.79 1431.09Z" fill="#FFBE9D"/>
<path d="M3156.12 678.823H2116.91V2415.04H3156.12V678.823Z" fill="#F5F5F5"/>
<path d="M2392.62 1701.23L2403.73 1723.74L2428.66 1727.4L2410.61 1744.96L2414.89 1769.77L2392.62 1758.04L2370.29 1769.77L2374.57 1744.96L2356.58 1727.4L2381.46 1723.74L2392.62 1701.23Z" fill="#90CAF9"/>
<path d="M2516.31 1701.23L2527.47 1723.74L2552.34 1727.4L2534.36 1744.96L2538.57 1769.77L2516.31 1758.04L2494.04 1769.77L2498.32 1744.96L2480.27 1727.4L2505.2 1723.74L2516.31 1701.23Z" fill="#90CAF9"/>
<path d="M2640.05 1701.23L2651.22 1723.74L2676.09 1727.4L2658.1 1744.96L2662.32 1769.77L2640.05 1758.04L2617.78 1769.77L2622.06 1744.96L2604.01 1727.4L2628.95 1723.74L2640.05 1701.23Z" fill="#90CAF9"/>
<path d="M2763.8 1701.23L2774.96 1723.74L2799.83 1727.4L2781.85 1744.96L2786.06 1769.77L2763.8 1758.04L2741.53 1769.77L2745.81 1744.96L2727.76 1727.4L2752.63 1723.74L2763.8 1701.23Z" fill="#90CAF9"/>
<path d="M2887.54 1701.23L2898.64 1723.74L2923.58 1727.4L2905.53 1744.96L2909.81 1769.77L2887.54 1758.04L2865.27 1769.77L2869.49 1744.96L2851.5 1727.4L2876.38 1723.74L2887.54 1701.23Z" fill="#90CAF9"/>
<path d="M2594.09 1904.74C2594.09 1905.61 2515.19 1906.35 2417.87 1906.35C2320.55 1906.35 2241.65 1905.61 2241.65 1904.74C2241.65 1903.87 2320.55 1903.13 2417.87 1903.13C2515.19 1903.13 2594.09 1903.81 2594.09 1904.74Z" fill="#90CAF9"/>
<path d="M3036.9 1981.22C3036.9 1982.15 2860.93 1982.83 2643.96 1982.83C2426.99 1982.83 2250.95 1982.15 2250.95 1981.22C2250.95 1980.29 2426.86 1979.61 2643.96 1979.61C2861.06 1979.61 3036.9 1980.35 3036.9 1981.22Z" fill="#263238"/>
<path d="M3036.9 2046.97C3036.9 2047.84 2860.93 2048.58 2643.96 2048.58C2426.99 2048.58 2250.95 2047.84 2250.95 2046.97C2250.95 2046.1 2426.86 2045.36 2643.96 2045.36C2861.06 2045.36 3036.9 2046.1 3036.9 2046.97Z" fill="#263238"/>
<path d="M3036.9 2112.72C3036.9 2113.59 2860.93 2114.33 2643.96 2114.33C2426.99 2114.33 2250.95 2113.59 2250.95 2112.72C2250.95 2111.85 2426.86 2111.1 2643.96 2111.1C2861.06 2111.1 3036.9 2111.79 3036.9 2112.72Z" fill="#263238"/>
<path d="M3036.9 2178.47C3036.9 2179.34 2860.93 2180.08 2643.96 2180.08C2426.99 2180.08 2250.95 2179.34 2250.95 2178.47C2250.95 2177.6 2426.86 2176.85 2643.96 2176.85C2861.06 2176.85 3036.9 2177.54 3036.9 2178.47Z" fill="#263238"/>
<path d="M3036.9 2244.15C3036.9 2245.08 2860.93 2245.77 2643.96 2245.77C2426.99 2245.77 2250.95 2245.08 2250.95 2244.15C2250.95 2243.22 2426.86 2242.54 2643.96 2242.54C2861.06 2242.54 3036.9 2243.29 3036.9 2244.15Z" fill="#263238"/>
<path d="M3080.45 766.964H2185.26V1626.36H3080.45V766.964Z" fill="#E0E0E0"/>
<path d="M2581.56 909.38C2590.92 877.932 2619.71 854.423 2651.59 846.794C2683.47 839.165 2723.04 828.744 2752.26 843.631C2770.49 852.935 2787.99 866.457 2795.18 885.623C2803.68 908.388 2790.59 950.814 2784.08 974.199C2777.57 997.583 2772.67 1024.32 2785.51 1044.91C2798.35 1065.5 2823.59 1072.7 2839.47 1090.19C2850.01 1102.77 2855.25 1118.97 2854.05 1135.34C2852.86 1151.71 2845.34 1166.98 2833.08 1177.9C2861.3 1176.22 2885.12 1205 2884.13 1233.23C2883.14 1261.45 2862.48 1286.26 2837.3 1299.04C2812.12 1311.82 2783.02 1314.48 2754.8 1314.54C2719.76 1314.6 2684.81 1310.96 2650.53 1303.69C2622.31 1297.49 2592.85 1288.25 2574.49 1265.98C2557.55 1245.51 2552.9 1217.6 2552.84 1191.05C2552.84 1097.2 2601.97 1004.16 2580.57 912.729" fill="#263238"/>
<path d="M2604.45 887.794C2589.68 877.687 2572.3 872.054 2554.41 871.572C2536.52 871.089 2518.87 875.778 2503.57 885.075C2488.28 894.371 2475.99 907.882 2468.18 923.987C2460.37 940.092 2457.38 958.108 2459.55 975.874C2461.84 994.482 2469.6 1013.09 2464.88 1030.77C2456.01 1064.45 2408.56 1077.54 2402.36 1111.78C2399.88 1125.3 2404.66 1138.88 2408.25 1152.09C2411.85 1165.31 2414.46 1180.25 2407.38 1192.16C2402.3 1200.97 2393.12 1206.49 2385.92 1213.63C2362.85 1236.7 2363.28 1277.2 2382.64 1303.57C2401.99 1329.93 2436.23 1342.52 2468.85 1341.46C2501.48 1340.41 2532.74 1327.2 2560.59 1310.14" fill="#263238"/>
<path d="M2535.91 925.507L2536.34 947.775L2540.81 1281.92C2541.3 1320.75 2575.11 1351.2 2616.6 1350.15C2658.6 1349.22 2692.65 1316.78 2692.77 1277.58C2692.77 1236.45 2693.77 1193.16 2693.77 1193.16C2693.77 1193.16 2746.8 1184.35 2757.78 1115.19C2763.24 1080.82 2761.5 1024.44 2758.59 978.355C2758 968.498 2755.41 958.864 2750.99 950.034C2746.57 941.205 2740.41 933.364 2732.87 926.985C2725.33 920.607 2716.58 915.824 2707.14 912.926C2697.7 910.028 2687.77 909.075 2677.95 910.125L2535.91 925.507Z" fill="#B78876"/>
<path d="M2731.98 1017.8C2731.99 1020.11 2731.11 1022.34 2729.51 1024.01C2727.91 1025.68 2725.72 1026.66 2723.42 1026.74C2722.29 1026.83 2721.15 1026.69 2720.08 1026.34C2719 1025.98 2718.01 1025.42 2717.16 1024.67C2716.31 1023.92 2715.62 1023.01 2715.13 1021.99C2714.63 1020.97 2714.35 1019.87 2714.3 1018.73C2714.26 1016.43 2715.13 1014.2 2716.72 1012.53C2718.31 1010.86 2720.49 1009.88 2722.8 1009.8C2723.93 1009.71 2725.07 1009.84 2726.14 1010.2C2727.22 1010.55 2728.22 1011.12 2729.07 1011.87C2729.93 1012.61 2730.63 1013.52 2731.13 1014.54C2731.62 1015.56 2731.91 1016.67 2731.98 1017.8Z" fill="#263238"/>
<path d="M2746.24 1007.88C2745.13 1009 2738.43 1004.03 2728.87 1004.03C2719.32 1004.03 2712.31 1008.87 2711.32 1007.69C2710.33 1006.52 2711.88 1005.09 2714.98 1002.86C2719.11 1000.03 2723.99 998.515 2729 998.514C2733.96 998.508 2738.81 1000.07 2742.83 1002.98C2745.87 1005.21 2746.86 1007.32 2746.24 1007.88Z" fill="#263238"/>
<path d="M2640.05 1017.8C2640.07 1020.11 2639.18 1022.34 2637.58 1024.01C2635.99 1025.68 2633.8 1026.66 2631.49 1026.74C2630.37 1026.81 2629.24 1026.66 2628.17 1026.3C2627.1 1025.94 2626.12 1025.37 2625.27 1024.63C2624.42 1023.89 2623.73 1022.98 2623.23 1021.97C2622.74 1020.96 2622.44 1019.86 2622.37 1018.73C2622.34 1016.42 2623.22 1014.18 2624.82 1012.51C2626.42 1010.84 2628.62 1009.87 2630.93 1009.8C2632.06 1009.71 2633.2 1009.85 2634.27 1010.2C2635.35 1010.56 2636.34 1011.12 2637.19 1011.87C2638.04 1012.62 2638.73 1013.53 2639.22 1014.55C2639.71 1015.57 2640 1016.67 2640.05 1017.8Z" fill="#263238"/>
<path d="M2652.58 1009.62C2651.46 1010.8 2644.7 1005.83 2635.21 1005.83C2625.72 1005.83 2618.65 1010.67 2617.6 1009.49C2616.54 1008.31 2618.22 1006.89 2621.26 1004.65C2625.4 1001.82 2630.31 1000.3 2635.34 1000.31C2640.3 1000.31 2645.14 1001.87 2649.17 1004.78C2652.08 1006.89 2653.2 1009.12 2652.58 1009.62Z" fill="#263238"/>
<path d="M2687.19 1080.39C2692.22 1078.81 2697.43 1077.88 2702.7 1077.6C2705.12 1077.6 2707.41 1076.85 2707.85 1075.18C2708.05 1072.67 2707.49 1070.16 2706.23 1067.98L2698.98 1049.38C2688.99 1022.95 2681.73 1001.24 2682.85 1000.81C2683.97 1000.37 2692.84 1021.53 2702.88 1047.95C2705.3 1054.46 2707.6 1060.67 2709.77 1066.56C2711.33 1069.49 2711.77 1072.88 2711.01 1076.11C2710.66 1076.97 2710.12 1077.74 2709.43 1078.36C2708.75 1078.98 2707.93 1079.44 2707.04 1079.71C2705.68 1080.06 2704.29 1080.24 2702.88 1080.27C2697.68 1080.98 2692.41 1081.02 2687.19 1080.39Z" fill="#263238"/>
<path d="M2693.77 1193.34C2661.2 1193.8 2629.14 1185.21 2601.16 1168.53C2601.16 1168.53 2623.61 1216.04 2692.84 1209.59L2693.77 1193.34Z" fill="#AA6550"/>
<path d="M2683.16 1103.4C2681.31 1101.15 2678.93 1099.41 2676.23 1098.32C2673.53 1097.24 2670.6 1096.85 2667.71 1097.2C2665.61 1097.38 2663.57 1097.99 2661.71 1099C2659.86 1100 2658.23 1101.37 2656.92 1103.03C2655.63 1104.61 2654.86 1106.55 2654.72 1108.58C2654.57 1110.61 2655.06 1112.64 2656.12 1114.38C2657.64 1116.07 2659.64 1117.27 2661.84 1117.83C2664.05 1118.39 2666.37 1118.29 2668.52 1117.54C2673.09 1115.97 2677.31 1113.5 2680.93 1110.29C2681.97 1109.48 2682.89 1108.52 2683.66 1107.43C2684.01 1106.91 2684.2 1106.3 2684.2 1105.67C2684.2 1105.04 2684.01 1104.42 2683.66 1103.9" fill="#AA6550"/>
<path d="M2659.4 1087.03C2660.95 1087.03 2660.95 1097.26 2669.82 1104.64C2678.69 1112.02 2689.73 1110.85 2689.8 1112.27C2689.86 1113.7 2687.38 1114.32 2682.73 1114.44C2676.66 1114.5 2670.76 1112.44 2666.04 1108.61C2661.54 1104.91 2658.64 1099.63 2657.91 1093.85C2657.23 1089.51 2658.41 1086.97 2659.4 1087.03Z" fill="#263238"/>
<path d="M2592.17 893.129C2592.17 892.26 2593.28 891.826 2593.84 892.074C2594.4 892.322 2594.65 893.191 2594.27 894.059C2594.16 894.411 2593.92 894.707 2593.6 894.891C2593.28 895.074 2592.9 895.132 2592.54 895.052C2592.24 894.839 2592.04 894.522 2591.97 894.164C2591.9 893.807 2591.97 893.436 2592.17 893.129Z" fill="#263238"/>
<path d="M2532.25 1252.64C2542.39 1248.81 2551.59 1242.84 2559.21 1235.14C2566.83 1227.43 2572.7 1218.17 2576.41 1207.98C2583.69 1187.43 2584.21 1165.09 2577.9 1144.22C2575.17 1134.6 2571.32 1124.06 2575.54 1115C2579.48 1108.89 2584.6 1103.64 2590.61 1099.56C2602.45 1088.12 2609.47 1072.58 2610.22 1056.14C2610.85 1039.75 2607.86 1023.42 2601.47 1008.31C2598.18 999.941 2594.21 990.76 2597.25 982.325C2600.04 976.572 2604.16 971.573 2609.29 967.748C2619.12 958.518 2627.25 947.619 2633.29 935.556C2637.51 927.058 2640.67 916.947 2636.58 908.202C2631.55 897.781 2618.53 894.556 2607.05 893.687C2579.64 891.578 2549.37 897.657 2531.94 918.87C2516.37 937.851 2514.57 964.337 2513.33 988.962C2509.85 1066.37 2506.38 1144.59 2519.53 1220.95" fill="#263238"/>
<path d="M2784.82 917.816C2781 920.124 2777.05 922.196 2772.98 924.019C2769.39 926.609 2766.05 929.515 2762.99 932.703C2761.19 934.439 2759.27 936.362 2757.53 938.347L2756.29 939.836L2754.31 941.821L2749.53 946.349C2744.92 950.64 2739.96 954.54 2734.71 958.01C2726.93 963.428 2718.22 967.38 2709.03 969.671C2691.34 973.62 2672.83 971.433 2656.55 963.468C2645.33 958.066 2635.48 950.175 2627.77 940.394C2615.98 924.701 2614.19 911.985 2619.58 905.1C2624.98 898.215 2638.69 898.897 2653.94 902.929C2661.38 904.865 2668.92 906.357 2676.52 907.395C2682.5 908.251 2688.59 908.083 2694.51 906.899C2697.41 906.245 2700.22 905.245 2702.88 903.922C2706.79 902.185 2711.63 899.642 2717.21 896.975C2720 895.672 2722.92 894.369 2726.08 893.129C2727.63 892.509 2729.31 891.95 2730.92 891.392C2732.53 890.834 2734.58 890.152 2736.38 889.717C2743.14 887.964 2750.15 887.397 2757.1 888.043C2762.61 888.252 2768.01 889.686 2772.9 892.239C2777.79 894.792 2782.06 898.402 2785.38 902.805C2787.12 904.951 2788.02 907.655 2787.92 910.415C2787.82 913.176 2786.72 915.805 2784.82 917.816Z" fill="#263238"/>
<path d="M2435.36 1300.28C2435.01 1299.97 2434.68 1299.64 2434.37 1299.29C2433.43 1298.27 2432.56 1297.19 2431.76 1296.06C2428.62 1291.77 2426.25 1286.96 2424.75 1281.86C2422.44 1273.79 2422.01 1265.3 2423.51 1257.05C2425.71 1245.92 2431.62 1235.86 2440.26 1228.51C2449.5 1220.08 2461.6 1213.75 2472.7 1204.94C2478.48 1200.48 2483.43 1195.04 2487.34 1188.88C2491.38 1182.41 2493.03 1174.73 2491.99 1167.17C2489.88 1151.54 2476.98 1137.83 2475.86 1119.1C2475.41 1109.66 2477.69 1100.28 2482.42 1092.1C2487.15 1083.92 2494.13 1077.27 2502.54 1072.95C2510.89 1069.35 2518.82 1064.84 2526.17 1059.49C2529.37 1056.66 2531.88 1053.14 2533.52 1049.19C2535.17 1045.25 2535.9 1040.99 2535.66 1036.72C2535.24 1028.28 2533.13 1020.02 2529.46 1012.41C2525.86 1004.9 2521.52 997.77 2517.79 990.512C2513.96 983.427 2511.32 975.756 2509.98 967.81C2508.97 960.149 2509.93 952.357 2512.77 945.17C2518.04 932.508 2527.24 921.874 2539.01 914.839C2548.67 909.159 2559.36 905.429 2570.46 903.86C2578.67 902.646 2586.97 902.106 2595.27 902.247C2602.15 902.247 2607.67 902.743 2611.02 903.053L2615.12 903.488C2616.05 903.488 2616.48 903.488 2616.48 903.488C2614.66 903.611 2612.84 903.611 2611.02 903.488C2607.42 903.488 2602.09 903.488 2595.27 903.488C2586.95 903.527 2578.66 904.232 2570.46 905.596C2559.68 907.306 2549.34 911.076 2540 916.699C2528.81 923.603 2520.11 933.905 2515.19 946.101C2512.59 952.849 2511.73 960.147 2512.71 967.314C2514.06 974.945 2516.66 982.301 2520.4 989.086C2524.06 996.219 2528.46 1003.29 2532.18 1011.04C2536.18 1019 2538.48 1027.71 2538.95 1036.6C2539.23 1041.32 2538.44 1046.04 2536.62 1050.4C2534.8 1054.77 2532.01 1058.66 2528.46 1061.78C2520.95 1067.36 2512.81 1072.05 2504.21 1075.74C2496.34 1079.83 2489.81 1086.1 2485.41 1093.8C2481.01 1101.5 2478.93 1110.3 2479.4 1119.16C2480.21 1136.4 2492.92 1150.17 2495.28 1166.92C2496.4 1175.16 2494.58 1183.53 2490.13 1190.55C2486.02 1196.97 2480.81 1202.62 2474.75 1207.24C2463.21 1216.23 2451.18 1222.31 2442.18 1230.37C2433.77 1237.3 2427.95 1246.88 2425.68 1257.54C2424.03 1265.61 2424.26 1273.95 2426.37 1281.92C2428.3 1288.51 2431.34 1294.72 2435.36 1300.28Z" fill="#455A64"/>
<path d="M2821.17 1286.94C2822.66 1286.17 2823.97 1285.11 2825.04 1283.82C2826.11 1282.53 2826.9 1281.04 2827.37 1279.44C2828.35 1275.71 2828.07 1271.76 2826.57 1268.21C2824.26 1263.64 2820.71 1259.81 2816.33 1257.17C2811.56 1253.88 2805.66 1251.28 2799.77 1247.25C2796.46 1245.25 2793.63 1242.55 2791.48 1239.33C2789.34 1236.12 2787.93 1232.46 2787.37 1228.64C2787.19 1220.07 2789.97 1211.7 2795.24 1204.94C2800.21 1197.81 2806.66 1191.73 2811.62 1184.54C2816.7 1177.8 2818.93 1169.33 2817.82 1160.96C2816.38 1153.19 2813.13 1145.85 2808.33 1139.57C2799.4 1127.16 2788.3 1118.1 2781.29 1108.55C2775.15 1101.3 2771.06 1092.54 2769.44 1083.18C2769.08 1080.65 2769.08 1078.08 2769.44 1075.55C2769.44 1073.82 2769.94 1072.89 2770.06 1072.95C2769.99 1076.31 2770.18 1079.67 2770.62 1083C2772.65 1091.96 2776.92 1100.26 2783.02 1107.12C2790.1 1116.37 2801.26 1125.11 2810.69 1138.14C2815.83 1144.79 2819.31 1152.58 2820.86 1160.84C2821.54 1165.33 2821.29 1169.91 2820.12 1174.3C2818.79 1178.76 2816.69 1182.96 2813.91 1186.71C2808.7 1194.34 2802.19 1200.41 2797.41 1207.11C2792.55 1213.28 2789.93 1220.91 2789.97 1228.76C2790.46 1232.21 2791.71 1235.51 2793.63 1238.42C2795.55 1241.32 2798.09 1243.77 2801.07 1245.57C2806.6 1249.48 2812.49 1252.27 2817.33 1255.74C2822 1258.76 2825.71 1263.07 2827.99 1268.15C2829.58 1272.11 2829.69 1276.51 2828.3 1280.55C2827.54 1283.11 2825.89 1285.31 2823.65 1286.76C2822.85 1287.03 2822 1287.09 2821.17 1286.94Z" fill="#455A64"/>
<path d="M2789.66 889.531C2789.66 889.531 2789.66 890.276 2789.66 891.702C2789.65 893.788 2789.42 895.866 2788.98 897.905C2787.45 905.493 2783.72 912.461 2778.25 917.94C2774.18 922.055 2769.25 925.21 2763.81 927.174C2758.37 929.137 2752.56 929.861 2746.8 929.291C2739.92 928.783 2733.3 926.496 2727.57 922.654C2721.8 918.304 2716.63 913.216 2712.19 907.519C2707.87 902.095 2702.84 897.275 2697.24 893.191C2691.96 889.502 2686.14 886.637 2680 884.693C2669.52 881.432 2658.36 881.025 2647.68 883.515C2640.45 885.239 2633.55 888.153 2627.27 892.136C2622.81 894.99 2620.57 896.913 2620.45 896.726C2622.17 894.499 2624.27 892.589 2626.65 891.082C2632.82 886.564 2639.78 883.259 2647.18 881.344C2658.26 878.387 2669.94 878.559 2680.93 881.84C2687.4 883.809 2693.53 886.758 2699.1 890.586C2704.97 894.785 2710.23 899.774 2714.73 905.41C2718.99 910.893 2723.93 915.811 2729.43 920.049C2734.72 923.554 2740.79 925.686 2747.11 926.252C2752.49 926.831 2757.92 926.232 2763.04 924.496C2768.16 922.761 2772.84 919.931 2776.76 916.203C2782.06 911.11 2785.9 904.682 2787.86 897.595C2789.16 892.509 2789.16 889.531 2789.66 889.531Z" fill="#455A64"/>
<path d="M2655 972.214C2654.07 974.82 2644.52 973.579 2633.35 974.944C2622.19 976.308 2613.13 979.348 2611.64 977.053C2610.96 975.936 2612.51 973.455 2616.17 970.85C2621.04 967.77 2626.55 965.84 2632.28 965.206C2638.01 964.572 2643.8 965.25 2649.23 967.19C2653.2 968.989 2655.43 971.036 2655 972.214Z" fill="#263238"/>
<path d="M2742.83 980.216C2741.16 982.387 2734.58 980.216 2726.7 980.216C2718.83 980.216 2712.06 981.705 2710.51 979.41C2709.89 978.293 2710.95 976.122 2713.86 974.075C2717.77 971.545 2722.37 970.308 2727.01 970.54C2731.64 970.646 2736.12 972.16 2739.85 974.881C2742.64 976.928 2743.57 979.161 2742.83 980.216Z" fill="#263238"/>
<path d="M2472.7 1629.15C2476.05 1634.92 2451.55 1552.36 2451.55 1552.36L2431.02 1627.78L2278.74 1628.9C2278.74 1628.9 2364.77 1347.67 2405.65 1308.4C2458.99 1257.17 2558.98 1254.38 2558.98 1254.38L2618.84 1305.43L2713.37 1256.86L2716.84 1257.23C2747.83 1261.04 2777.4 1272.46 2802.91 1290.47C2828.42 1308.48 2849.07 1332.52 2863.04 1360.45L2965.57 1626.11H2830.23L2801.32 1547.71L2811 1626.11" fill="#90CAF9"/>
<path d="M2510.54 1260.46L2647.74 1572.58L2717.09 1257.23C2717.09 1257.23 2697.86 1256.11 2670.38 1255.06C2655.19 1254.5 2637.45 1314.61 2619.09 1314.3C2607.3 1314.3 2595.33 1253.32 2583.48 1253.39C2568.53 1253.39 2553.96 1253.39 2540.68 1254.38C2529.14 1255 2519.03 1259.65 2510.54 1260.46Z" fill="#FAFAFA"/>
<path d="M2536.34 1263.37V1234.72C2536.34 1234.72 2618.09 1235.83 2619.52 1301.27C2619.52 1301.27 2631.12 1236.76 2697.12 1234.72L2701.33 1256.67L2682.73 1331.91L2635.09 1363.61H2570.89L2544.34 1328.69L2536.34 1263.37Z" fill="#FAFAFA"/>
<path d="M2646.56 1580.89C2646.68 1579.7 2646.95 1578.54 2647.37 1577.42C2648.41 1574.12 2649.74 1570.93 2651.34 1567.87C2653.98 1563.06 2657.24 1558.62 2661.02 1554.65C2665.36 1549.94 2670.57 1544.98 2675.84 1539.09C2688.97 1525.9 2700.42 1511.15 2709.96 1495.17C2715.14 1485.61 2718.13 1475.02 2718.7 1464.16C2719.54 1452.53 2716.17 1441 2709.21 1431.65L2707.04 1428.86H2710.64C2712.02 1429.01 2713.41 1429.01 2714.79 1428.86C2720.51 1427.68 2725.6 1424.46 2729.12 1419.81C2732.63 1415.24 2734.88 1409.82 2735.64 1404.11C2736.48 1392.97 2735.63 1381.75 2733.09 1370.87C2729.56 1349.53 2726.33 1330.3 2723.66 1313.99C2721 1297.67 2719.07 1285.14 2717.46 1275.65C2716.9 1271.37 2716.41 1267.96 2715.97 1265.17C2715.76 1263.96 2715.65 1262.74 2715.66 1261.51C2716.12 1262.67 2716.46 1263.88 2716.65 1265.11C2717.15 1267.78 2717.9 1271.31 2718.7 1275.41C2720.5 1284.9 2722.92 1297.8 2725.83 1313.61L2735.95 1370.31C2738.67 1381.52 2739.59 1393.1 2738.67 1404.61C2737.89 1410.88 2735.43 1416.81 2731.54 1421.79C2727.56 1427.11 2721.75 1430.75 2715.23 1432.03C2713.6 1432.21 2711.96 1432.21 2710.33 1432.03L2711.69 1429.42C2719.14 1439.35 2722.73 1451.65 2721.8 1464.03C2721.18 1475.37 2718 1486.42 2712.5 1496.35C2702.74 1512.48 2690.96 1527.3 2677.45 1540.45C2671.99 1546.28 2666.66 1551.18 2662.26 1555.71C2658.46 1559.43 2655.13 1563.6 2652.33 1568.11C2648.05 1576.12 2647 1581.02 2646.56 1580.89Z" fill="#263238"/>
<path d="M2646.56 1578.22C2645.6 1577.39 2644.74 1576.43 2644.02 1575.37L2637.01 1567C2630.81 1559.74 2621.94 1549.44 2610.59 1536.91C2599.24 1524.38 2585.78 1509.44 2571.94 1491.57C2564.48 1482.39 2558.05 1472.4 2552.78 1461.8C2547.02 1449.97 2546.19 1436.34 2550.48 1423.9C2551.16 1422.23 2551.97 1420.61 2552.9 1419.06L2553.71 1421.42C2541.78 1417.11 2531.18 1409.78 2522.94 1400.14C2515.34 1391.35 2509.38 1381.27 2505.33 1370.37C2498.81 1351.96 2496.21 1332.4 2497.7 1312.93C2498.52 1299.95 2500.07 1287.03 2502.35 1274.23C2503.16 1270.01 2503.78 1266.6 2504.33 1263.87C2504.46 1262.64 2504.76 1261.43 2505.2 1260.27C2505.34 1261.51 2505.34 1262.76 2505.2 1263.99C2504.83 1266.72 2504.4 1270.19 2503.84 1274.41C2502.72 1283.53 2500.8 1296.68 2500.24 1313.06C2499.06 1332.16 2501.8 1351.31 2508.3 1369.32C2512.32 1379.85 2518.16 1389.59 2525.55 1398.1C2533.42 1407.24 2543.5 1414.22 2554.82 1418.38L2556.62 1419L2555.63 1420.74C2554.83 1422.15 2554.11 1423.59 2553.46 1425.08C2549.52 1436.72 2550.32 1449.44 2555.69 1460.5C2560.78 1470.92 2567.02 1480.74 2574.3 1489.77C2587.7 1507.57 2601.16 1522.59 2612.26 1535.36C2623.37 1548.14 2632.17 1558.69 2637.94 1566.38C2640.86 1570.16 2643.03 1573.08 2644.45 1575.19C2645.27 1576.12 2645.98 1577.14 2646.56 1578.22Z" fill="#263238"/>
<path d="M2645.07 1628.47C2643.68 1619.21 2643.37 1609.82 2644.14 1600.49C2643.9 1591.15 2644.69 1581.81 2646.5 1572.64C2648.14 1591.24 2647.66 1609.97 2645.07 1628.47Z" fill="#263238"/>
<path d="M2447.58 1570.97C2448.24 1567.34 2449.13 1563.75 2450.25 1560.24C2452.04 1553.35 2454.65 1543.37 2457.13 1530.9C2463.59 1498.44 2466.08 1465.33 2464.57 1432.27C2464.03 1414.12 2461.58 1396.07 2457.26 1378.43C2453.75 1364.06 2447.17 1350.62 2437.96 1339.05C2431.75 1331.27 2424.08 1324.79 2415.39 1319.94C2409.18 1316.59 2405.28 1315.54 2405.4 1315.23C2406.35 1315.33 2407.29 1315.54 2408.19 1315.85C2410.86 1316.61 2413.45 1317.61 2415.94 1318.83C2425.1 1323.29 2433.22 1329.63 2439.76 1337.43C2449.4 1349.14 2456.37 1362.82 2460.17 1377.5C2464.69 1395.35 2467.24 1413.63 2467.8 1432.03C2469.37 1465.33 2466.53 1498.7 2459.36 1531.27C2456.57 1543.68 2453.66 1553.66 2451.49 1560.48C2450.37 1563.83 2449.38 1566.69 2448.76 1568.24C2448.14 1569.79 2447.7 1571.34 2447.58 1570.97Z" fill="#263238"/>
<path d="M2802.5 1520.41C2802.1 1516.98 2801.95 1513.52 2802.07 1510.06C2802.07 1503.36 2802.07 1493.74 2801.45 1481.83C2800.38 1450.84 2797.67 1419.93 2793.32 1389.23C2787.28 1348.48 2778.56 1308.18 2767.21 1268.58L2766.77 1266.97L2768.01 1267.96C2770.24 1269.52 2772.32 1271.29 2774.22 1273.23C2771.83 1271.97 2769.57 1270.5 2767.46 1268.83L2768.32 1268.27C2781.39 1307.5 2790.83 1347.84 2796.55 1388.79C2800.98 1419.62 2803.4 1450.7 2803.8 1481.83C2803.8 1493.81 2803.8 1503.48 2803.37 1510.12C2803.37 1513.57 2803.08 1517.01 2802.5 1520.41Z" fill="#263238"/>
<path d="M2604.32 1264.18C2604.32 1264.49 2602.77 1264.18 2600.66 1265.85C2597.9 1268.21 2595.77 1271.22 2594.46 1274.6C2588.55 1285.87 2584.87 1298.16 2583.61 1310.82L2583.17 1314.85L2580.69 1311.57L2576.22 1305.36C2565.87 1291.9 2555.69 1280.55 2548.19 1272.12C2543.86 1267.92 2539.86 1263.4 2536.22 1258.6C2541.19 1262.08 2545.76 1266.09 2549.86 1270.57C2560.23 1280.84 2569.88 1291.8 2578.77 1303.38L2583.3 1309.58L2580.38 1310.33C2581.83 1297.3 2586.06 1284.73 2592.79 1273.48C2594.52 1269.88 2597.23 1266.82 2600.6 1264.67C2602.65 1263.5 2604.38 1264.05 2604.32 1264.18Z" fill="#263238"/>
<path d="M2700.28 1258.04C2697.09 1263.42 2693.41 1268.51 2689.3 1273.23C2682.23 1282.41 2672.24 1294.94 2661.08 1308.65L2655.19 1315.85L2652.46 1319.2V1314.85C2652.52 1307.73 2652 1300.62 2650.91 1293.58C2649.99 1288.02 2648.01 1282.7 2645.07 1277.89C2642.22 1273.6 2638.6 1269.88 2634.41 1266.91C2635.84 1267.15 2637.2 1267.73 2638.38 1268.58C2641.8 1270.64 2644.74 1273.41 2647 1276.71C2650.37 1281.64 2652.69 1287.22 2653.82 1293.08C2655.15 1300.24 2655.81 1307.51 2655.81 1314.79L2652.95 1313.86L2658.84 1306.61C2670.01 1292.9 2680.24 1280.62 2687.81 1271.81C2691.56 1266.87 2695.73 1262.26 2700.28 1258.04Z" fill="#263238"/>
<path d="M2643.83 1565.14C2643.08 1561.73 2642.58 1558.26 2642.35 1554.78C2641.54 1547.52 2640.55 1538.03 2639.31 1526.49C2636.89 1502.55 2633.85 1469.49 2630.62 1432.96C2627.4 1396.42 2624.42 1363.36 2622.81 1339.36C2622 1327.82 2621.38 1318.27 2620.82 1311.01C2620.52 1307.52 2620.52 1304.01 2620.82 1300.53C2621.58 1303.94 2622.1 1307.4 2622.37 1310.89C2623.12 1318.14 2624.11 1327.63 2625.35 1339.17C2627.77 1363.11 2630.87 1396.17 2634.1 1432.71C2637.32 1469.24 2640.3 1502.3 2641.85 1526.25C2642.66 1537.84 2643.34 1547.4 2643.83 1554.65C2644.13 1558.14 2644.13 1561.65 2643.83 1565.14Z" fill="#263238"/>
<path d="M2644.02 1357.53C2644.02 1357.22 2646.32 1355.67 2649.66 1357.9C2650.63 1358.56 2651.42 1359.44 2651.98 1360.46C2652.54 1361.49 2652.85 1362.63 2652.89 1363.79C2652.75 1365.26 2652.18 1366.66 2651.26 1367.81C2650.33 1368.96 2649.09 1369.82 2647.69 1370.27C2646.29 1370.73 2644.78 1370.76 2643.36 1370.37C2641.93 1369.98 2640.65 1369.18 2639.68 1368.07C2639.02 1367.12 2638.59 1366.02 2638.44 1364.86C2638.29 1363.71 2638.42 1362.53 2638.81 1361.44C2640.24 1357.65 2643.21 1357.41 2643.15 1357.78C2643.09 1358.15 2641.48 1359.2 2641.04 1362C2640.9 1362.73 2640.91 1363.49 2641.08 1364.21C2641.25 1364.94 2641.58 1365.62 2642.04 1366.21C2642.62 1366.82 2643.38 1367.25 2644.2 1367.44C2645.03 1367.62 2645.89 1367.57 2646.69 1367.27C2647.52 1367.05 2648.26 1366.59 2648.84 1365.95C2649.41 1365.31 2649.78 1364.52 2649.91 1363.67C2649.93 1362.93 2649.78 1362.19 2649.49 1361.51C2649.21 1360.83 2648.78 1360.21 2648.24 1359.7C2646.19 1357.65 2644.08 1358.03 2644.02 1357.53Z" fill="#263238"/>
<path d="M2655.93 1434.88C2655.93 1434.51 2658.66 1433.51 2661.45 1436.49C2662.28 1437.35 2662.88 1438.4 2663.2 1439.55C2663.53 1440.69 2663.56 1441.9 2663.31 1443.07C2662.87 1444.54 2661.97 1445.82 2660.74 1446.74C2659.51 1447.65 2658.02 1448.15 2656.49 1448.15C2654.97 1448.3 2653.44 1447.94 2652.14 1447.13C2650.84 1446.32 2649.84 1445.11 2649.29 1443.69C2648.92 1442.55 2648.85 1441.33 2649.06 1440.15C2649.28 1438.97 2649.78 1437.86 2650.53 1436.93C2653.08 1433.76 2656.12 1434.51 2655.87 1434.88C2655.62 1435.25 2653.76 1435.62 2652.46 1438.23C2652.08 1438.89 2651.84 1439.63 2651.78 1440.39C2651.72 1441.15 2651.82 1441.92 2652.08 1442.63C2652.47 1443.41 2653.09 1444.05 2653.86 1444.46C2654.63 1444.87 2655.5 1445.03 2656.36 1444.93C2657.24 1444.95 2658.1 1444.71 2658.83 1444.24C2659.56 1443.76 2660.13 1443.07 2660.46 1442.26C2660.64 1441.52 2660.67 1440.76 2660.54 1440.01C2660.41 1439.26 2660.13 1438.55 2659.71 1437.92C2658.1 1435.19 2655.93 1434.88 2655.93 1434.88Z" fill="#263238"/>
<g opacity="0.3">
<path d="M2502.47 1264.18C2490.87 1305.43 2479.9 1352.13 2501.48 1389.16C2507.68 1400.33 2517.11 1409.82 2523.19 1421.23C2533.67 1440.77 2534.36 1463.97 2540.87 1485.12C2553.96 1527.98 2600.73 1569.66 2645.07 1576.18C2622.19 1548.33 2586.77 1512.04 2565.68 1480.47C2558.97 1472.24 2554.03 1462.72 2551.16 1452.49C2548.56 1441.02 2546.64 1428.86 2554.27 1419.87C2524.62 1415.28 2507.75 1384.64 2502.41 1355.11C2497.48 1325.42 2498.73 1295.04 2506.07 1265.85" fill="black"/>
</g>
<g opacity="0.3">
<path d="M2803.74 1483.57C2796.36 1527.86 2801.32 1585.92 2828.55 1621.64C2838.54 1573.01 2833.58 1509.44 2803.74 1469.55" fill="black"/>
</g>
<path d="M2078.89 940.518H1349.81V2158.62H2078.89V940.518Z" fill="#F5F5F5"/>
<path d="M1543.22 1657.81L1551.03 1673.62L1568.52 1676.17L1555.87 1688.45L1558.85 1705.88L1543.22 1697.69L1527.58 1705.88L1530.62 1688.45L1517.97 1676.17L1535.4 1673.62L1543.22 1657.81Z" fill="#90CAF9"/>
<path d="M1630.05 1657.81L1637.87 1673.62L1655.36 1676.17L1642.71 1688.45L1645.68 1705.88L1630.05 1697.69L1614.42 1705.88L1617.4 1688.45L1604.75 1676.17L1622.24 1673.62L1630.05 1657.81Z" fill="#90CAF9"/>
<path d="M1716.83 1657.81L1724.65 1673.62L1742.14 1676.17L1729.48 1688.45L1732.46 1705.88L1716.83 1697.69L1701.26 1705.88L1704.24 1688.45L1691.58 1676.17L1709.01 1673.62L1716.83 1657.81Z" fill="#90CAF9"/>
<path d="M1803.67 1657.81L1811.48 1673.62L1828.98 1676.17L1816.32 1688.45L1819.3 1705.88L1803.67 1697.69L1788.04 1705.88L1791.02 1688.45L1778.36 1676.17L1795.85 1673.62L1803.67 1657.81Z" fill="#90CAF9"/>
<path d="M1890.45 1657.81L1898.26 1673.62L1915.75 1676.17L1903.1 1688.45L1906.08 1705.88L1890.45 1697.69L1874.81 1705.88L1877.85 1688.45L1865.2 1676.17L1882.69 1673.62L1890.45 1657.81Z" fill="#90CAF9"/>
<path d="M1684.58 1800.84C1684.58 1801.71 1629.25 1802.46 1560.95 1802.46C1492.66 1802.46 1437.46 1801.46 1437.46 1800.84C1437.46 1800.22 1492.85 1799.23 1561.08 1799.23C1629.31 1799.23 1684.58 1799.66 1684.58 1800.84Z" fill="#90CAF9"/>
<path d="M1995.27 1854.25C1995.27 1855.12 1871.84 1855.86 1719.56 1855.86C1567.28 1855.86 1443.85 1855.12 1443.85 1854.25C1443.85 1853.38 1567.28 1852.64 1719.56 1852.64C1871.84 1852.64 1995.27 1853.38 1995.27 1854.25Z" fill="#263238"/>
<path d="M1995.27 1900.4C1995.27 1901.26 1871.84 1902.01 1719.56 1902.01C1567.28 1902.01 1443.85 1901.26 1443.85 1900.4C1443.85 1899.53 1567.28 1898.72 1719.56 1898.72C1871.84 1898.72 1995.27 1899.47 1995.27 1900.4Z" fill="#263238"/>
<path d="M1995.27 1946.48C1995.27 1947.35 1871.84 1948.1 1719.56 1948.1C1567.28 1948.1 1443.85 1947.35 1443.85 1946.48C1443.85 1945.61 1567.28 1944.87 1719.56 1944.87C1871.84 1944.87 1995.27 1945.61 1995.27 1946.48Z" fill="#263238"/>
<path d="M1995.27 1992.63C1995.27 1993.5 1871.84 1994.24 1719.56 1994.24C1567.28 1994.24 1443.85 1993.5 1443.85 1992.63C1443.85 1991.76 1567.28 1991.02 1719.56 1991.02C1871.84 1991.02 1995.27 1991.7 1995.27 1992.63Z" fill="#263238"/>
<path d="M1995.27 2038.72C1995.27 2039.65 1871.84 2040.33 1719.56 2040.33C1567.28 2040.33 1443.66 2039.65 1443.66 2038.72C1443.66 2037.79 1567.1 2037.11 1719.37 2037.11C1871.65 2037.11 1995.27 2037.85 1995.27 2038.72Z" fill="#263238"/>
<path d="M2024.67 1002.36H1396.64V1605.27H2024.67V1002.36Z" fill="#E0E0E0"/>
<path d="M1749.21 1301.15C1749.21 1316.84 1750.64 1325.96 1750.76 1341.78C1750.53 1343.72 1750.71 1345.7 1751.3 1347.57C1751.89 1349.44 1752.87 1351.17 1754.17 1352.63C1755.54 1353.56 1757.14 1354.1 1758.79 1354.17C1760.45 1354.25 1762.09 1353.87 1763.54 1353.06C1766.41 1351.4 1768.9 1349.17 1770.86 1346.49C1788.26 1325.05 1798.75 1298.84 1800.94 1271.31C1801.18 1270.15 1801.18 1268.96 1800.96 1267.8C1800.74 1266.64 1800.29 1265.54 1799.64 1264.55C1797.16 1261.7 1792.57 1262.75 1789.15 1264.55C1772.17 1272.17 1758.15 1285.13 1749.21 1301.46" fill="#263238"/>
<path d="M1643.76 1113.58L1644.07 1129.21L1647.24 1363.67C1647.54 1370.32 1649.16 1376.85 1652 1382.87C1654.84 1388.89 1658.85 1394.29 1663.8 1398.75C1668.74 1403.21 1674.52 1406.65 1680.8 1408.85C1687.09 1411.06 1693.74 1412 1700.39 1411.62C1729.86 1411 1753.74 1388.23 1753.86 1360.69C1753.86 1331.85 1754.54 1301.46 1754.54 1301.46C1754.54 1301.46 1791.76 1295.25 1799.45 1246.81C1803.23 1222.68 1802.06 1183.11 1800.01 1150.79C1799.58 1143.89 1797.76 1137.15 1794.65 1130.98C1791.55 1124.8 1787.23 1119.32 1781.95 1114.85C1776.67 1110.39 1770.54 1107.04 1763.93 1105.01C1757.33 1102.98 1750.38 1102.31 1743.5 1103.03L1643.76 1113.58Z" fill="#FFBE9D"/>
<path d="M1781.34 1178.33C1781.34 1179.98 1780.69 1181.55 1779.52 1182.72C1778.36 1183.88 1776.78 1184.53 1775.14 1184.53C1773.59 1184.54 1772.1 1183.97 1770.96 1182.94C1769.81 1181.91 1769.09 1180.49 1768.93 1178.95C1768.93 1177.31 1769.59 1175.73 1770.75 1174.57C1771.91 1173.4 1773.49 1172.75 1775.14 1172.75C1776.68 1172.74 1778.17 1173.31 1779.32 1174.34C1780.46 1175.37 1781.18 1176.8 1781.34 1178.33Z" fill="#263238"/>
<path d="M1791.45 1171.32C1790.64 1172.19 1785.93 1168.66 1779.04 1168.72C1772.16 1168.78 1767.44 1172.07 1766.64 1171.26C1765.83 1170.45 1767.01 1169.4 1769.18 1167.85C1772.08 1165.85 1775.52 1164.79 1779.04 1164.81C1782.52 1164.78 1785.91 1165.87 1788.72 1167.91C1791.02 1169.52 1791.82 1171.01 1791.45 1171.32Z" fill="#263238"/>
<path d="M1716.58 1178.33C1716.58 1179.98 1715.93 1181.55 1714.77 1182.72C1713.6 1183.88 1712.02 1184.53 1710.38 1184.53C1708.84 1184.54 1707.35 1183.97 1706.2 1182.94C1705.05 1181.91 1704.33 1180.49 1704.18 1178.95C1704.18 1177.31 1704.83 1175.73 1705.99 1174.57C1707.16 1173.4 1708.73 1172.75 1710.38 1172.75C1711.92 1172.74 1713.41 1173.31 1714.56 1174.34C1715.71 1175.37 1716.43 1176.8 1716.58 1178.33Z" fill="#263238"/>
<path d="M1725.64 1172.63C1724.83 1173.43 1720.12 1169.9 1713.23 1169.96C1706.35 1170.02 1701.63 1173.31 1700.83 1172.5C1700.02 1171.69 1701.2 1170.64 1703.37 1169.09C1706.27 1167.09 1709.71 1166.03 1713.23 1166.05C1716.71 1166.04 1720.11 1167.15 1722.91 1169.21C1725.27 1170.76 1726.01 1172.25 1725.64 1172.63Z" fill="#263238"/>
<path d="M1749.89 1222.25C1753.43 1221.14 1757.1 1220.47 1760.81 1220.26C1762.48 1220.26 1764.1 1219.77 1764.41 1218.59C1764.53 1216.84 1764.15 1215.09 1763.29 1213.56C1761.68 1209.41 1760 1205.07 1758.2 1200.54C1753.53 1189.5 1749.73 1178.12 1746.85 1166.48C1752.44 1177.1 1757.15 1188.16 1760.93 1199.55L1765.77 1212.63C1766.82 1214.7 1767.13 1217.07 1766.64 1219.33C1766.41 1219.94 1766.04 1220.49 1765.55 1220.92C1765.07 1221.35 1764.48 1221.66 1763.85 1221.81C1762.9 1222.09 1761.92 1222.24 1760.93 1222.25C1757.27 1222.72 1753.56 1222.72 1749.89 1222.25Z" fill="#263238"/>
<path d="M1754.54 1301.46C1731.71 1301.81 1709.23 1295.82 1689.6 1284.15C1689.6 1284.15 1705.36 1317.46 1753.86 1312.93L1754.54 1301.46Z" fill="#EB996E"/>
<path d="M1747.1 1238.38C1745.8 1236.79 1744.13 1235.56 1742.23 1234.78C1740.34 1234 1738.28 1233.7 1736.24 1233.91C1734.77 1234.05 1733.35 1234.49 1732.05 1235.19C1730.75 1235.89 1729.6 1236.85 1728.68 1238C1727.77 1239.1 1727.22 1240.46 1727.12 1241.88C1727.02 1243.31 1727.37 1244.73 1728.12 1245.94C1729.19 1247.16 1730.61 1248.02 1732.18 1248.42C1733.75 1248.82 1735.4 1248.73 1736.93 1248.18C1740.09 1247.05 1742.99 1245.33 1745.49 1243.09C1746.22 1242.52 1746.87 1241.85 1747.41 1241.1C1747.66 1240.74 1747.79 1240.31 1747.79 1239.86C1747.79 1239.42 1747.66 1238.99 1747.41 1238.62" fill="#EB996E"/>
<path d="M1730.23 1226.9C1731.28 1226.9 1731.34 1234.1 1737.55 1239.31C1743.75 1244.52 1751.5 1243.65 1751.57 1244.7C1751.63 1245.76 1749.83 1246.07 1746.54 1246.19C1742.29 1246.25 1738.16 1244.8 1734.88 1242.1C1731.69 1239.53 1729.64 1235.81 1729.17 1231.74C1728.99 1228.64 1729.73 1226.84 1730.23 1226.9Z" fill="#263238"/>
<path d="M1716.58 1109.54C1721.72 1111.05 1726.13 1114.38 1728.99 1118.91C1731.76 1123.38 1734.87 1127.63 1738.29 1131.63C1742.5 1135.78 1747.92 1138.5 1753.77 1139.39C1759.62 1140.28 1765.6 1139.3 1770.86 1136.59C1774.76 1140.37 1779.91 1144.4 1785.12 1142.79C1786.6 1142.2 1787.9 1141.24 1788.9 1140C1789.9 1138.76 1790.56 1137.29 1790.83 1135.72C1791.31 1132.55 1790.84 1129.31 1789.46 1126.42C1784.38 1114.57 1771.29 1108.24 1758.45 1105.76C1743 1102.78 1727.04 1104.02 1712.24 1109.36" fill="#263238"/>
<path d="M1599.47 1607.25C1601.77 1611.29 1584.59 1553.35 1584.59 1553.35L1570.2 1606.26L1463.39 1607.07C1463.39 1607.07 1523.74 1409.76 1552.4 1382.22C1589.61 1346.24 1659.95 1344.32 1659.95 1344.32L1768.31 1346.06H1770.73C1792.49 1348.75 1813.25 1356.78 1831.15 1369.45C1849.05 1382.11 1863.54 1399 1873.33 1418.63L1945.22 1605.02H1850.25L1830.03 1550L1836.79 1605.02" fill="#263238"/>
<path d="M1817.25 1339.67C1813.97 1331.85 1802.06 1332.16 1796.85 1325.52C1791.64 1318.89 1796.16 1307.91 1800.44 1299.66C1820.97 1260.08 1819.05 1212.82 1815.14 1168.53C1813.53 1149.49 1811.61 1130.07 1803.36 1112.71C1786.92 1078.34 1747.16 1051.18 1697.91 1053.41C1657.66 1054.96 1627.01 1091.25 1605.24 1125.17C1583.47 1159.1 1571.87 1212.01 1579 1251.9C1582.6 1271.75 1603.82 1287.07 1600.09 1306.85C1597.61 1319.26 1584.59 1334.27 1587.13 1346.74C1590.6 1363.73 1615.29 1369.63 1629.74 1379.3C1644.13 1389.9 1657.59 1401.68 1670 1414.53C1682.5 1427.38 1697.57 1437.44 1714.23 1444.06C1731.16 1449.77 1751.44 1448.71 1765.09 1437.36C1787.6 1418.75 1785.43 1381.97 1805.9 1361.25C1811.86 1355.11 1820.66 1348.04 1817.25 1339.67ZM1785.49 1125.17C1793.74 1137.58 1794.43 1153.65 1796.35 1168.59C1800.36 1193.58 1800.65 1219.01 1797.22 1244.08C1793.69 1269.29 1782.14 1292.69 1764.28 1310.82C1755.28 1319.75 1744.23 1326.33 1732.1 1330.01C1719.97 1333.69 1707.13 1334.34 1694.69 1331.91C1667.08 1325.71 1658.21 1300.9 1650.4 1273.92C1642.58 1246.93 1660.01 1221.81 1667.77 1194.58C1673.97 1173.56 1676.02 1143.91 1689.6 1126.79C1703.18 1109.67 1725.7 1108.49 1732.34 1108.8C1732.34 1108.74 1768.93 1100.24 1785.49 1125.17Z" fill="#90CAF9"/>
<g opacity="0.3">
<path d="M1589.61 1326.83C1605.99 1335.7 1618.83 1349.78 1632.16 1362.8C1645.5 1375.83 1660.32 1388.48 1678.37 1393.13C1696.42 1397.79 1718.38 1392.27 1727.37 1375.95C1701.55 1379.71 1675.21 1374.58 1652.68 1361.42C1630.14 1348.26 1612.74 1327.84 1603.32 1303.5" fill="black"/>
</g>
<g opacity="0.3">
<path d="M1794.18 1315.23C1792.47 1321.68 1789.43 1327.7 1785.25 1332.9C1781.08 1338.1 1775.85 1342.37 1769.93 1345.43C1767.11 1346.58 1764.48 1348.13 1762.11 1350.03C1760.94 1350.99 1760.08 1352.29 1759.65 1353.75C1759.22 1355.21 1759.23 1356.76 1759.69 1358.21C1760.57 1359.68 1761.92 1360.8 1763.52 1361.39C1765.13 1361.97 1766.88 1361.99 1768.5 1361.44C1771.68 1360.19 1774.53 1358.21 1776.81 1355.67C1785.74 1347.05 1795.05 1337.68 1797.59 1325.52" fill="black"/>
</g>
<path d="M4064.41 1608.75C4076.02 1559.92 4045.84 1510.93 3997.02 1499.33C3948.19 1487.72 3899.2 1517.9 3887.6 1566.72C3875.99 1615.55 3906.16 1664.54 3954.99 1676.14C4003.82 1687.75 4052.81 1657.57 4064.41 1608.75Z" fill="#E0E0E0"/>
<path d="M3961.98 1626.36C3965.83 1622 3970.08 1618.04 3974.7 1614.51C3982.89 1607.56 3994.3 1598.07 4007.08 1587.72V1590.2L4006.46 1589.64C3994.05 1578.72 3982.64 1568.73 3974.58 1561.35C3970.07 1557.61 3965.91 1553.46 3962.17 1548.95C3967.14 1552.09 3971.83 1555.66 3976.19 1559.62C3984.62 1566.56 3996.1 1576.3 4008.69 1587.22L4009.31 1587.72L4010.8 1589.02L4009.25 1590.2C3996.53 1600.55 3984.87 1609.8 3976.38 1616.31C3971.87 1620.06 3967.06 1623.42 3961.98 1626.36Z" fill="#263238"/>
<path d="M1389.35 1612.13C1400.89 1563.45 1370.79 1514.63 1322.11 1503.09C1273.42 1491.55 1224.6 1521.65 1213.06 1570.33C1201.52 1619.01 1231.62 1667.84 1280.31 1679.38C1328.99 1690.92 1377.81 1660.82 1389.35 1612.13Z" fill="#E0E0E0"/>
<path d="M1319.61 1548.95C1315.7 1553.24 1311.42 1557.18 1306.83 1560.73C1298.64 1567.74 1287.29 1577.23 1274.51 1587.59V1585.11L1275.19 1585.67C1287.6 1596.59 1299.01 1606.57 1307.01 1613.95C1311.53 1617.69 1315.68 1621.84 1319.42 1626.36C1314.41 1623.22 1309.7 1619.62 1305.34 1615.63C1296.9 1608.74 1285.43 1599 1272.9 1588.09L1272.22 1587.53L1270.79 1586.29L1272.28 1585.05C1285.06 1574.75 1296.72 1565.51 1305.21 1559C1309.67 1555.18 1314.49 1551.82 1319.61 1548.95Z" fill="#263238"/>
<path d="M2296.85 698.3C2175.08 762.997 2075.23 862.348 2009.91 983.791C1944.6 1105.23 1916.77 1243.32 1929.92 1380.58C1943.08 1517.84 1996.65 1648.12 2083.84 1754.94C2171.03 1861.77 2287.94 1940.34 2419.79 1980.72C2526.99 2013.51 2640.52 2019.95 2750.74 1999.49C2860.96 1979.02 2964.62 1932.26 3052.91 1863.18L3640.5 2598.21L3730.37 2526.57L3137.82 1785.33C3208.06 1708.97 3260.29 1617.83 3290.66 1518.62C3298.05 1494.52 3304.13 1470.05 3308.9 1445.3C3333.64 1316.12 3321.35 1182.58 3273.45 1060.09C3225.54 937.604 3143.96 831.161 3038.14 753.054C2932.32 674.946 2806.57 628.359 2675.4 618.671C2544.23 608.982 2413 636.588 2296.85 698.3ZM2794.38 757.412C2923.19 796.838 3034.34 879.708 3108.9 991.903C3183.46 1104.1 3216.81 1238.67 3203.27 1372.7C3189.73 1506.73 3130.13 1631.91 3034.64 1726.93C2939.14 1821.94 2813.66 1880.9 2679.57 1893.76C2545.47 1906.63 2411.07 1872.6 2299.25 1797.47C2187.43 1722.35 2105.13 1610.77 2066.35 1481.77C2027.58 1352.76 2034.74 1214.29 2086.61 1089.97C2138.48 965.649 2231.85 863.159 2350.82 799.963C2418.26 763.896 2492.2 741.564 2568.33 734.26C2644.47 726.956 2721.3 734.825 2794.38 757.412Z" fill="#455A64"/>
</g>
<defs>
<filter id="filter0_f_2109_17567" x="1077.44" y="239.443" width="5261.11" height="4291.11" filterUnits="userSpaceOnUse" color-interpolation-filters="sRGB">
<feFlood flood-opacity="0" result="BackgroundImageFix"/>
<feBlend mode="normal" in="SourceGraphic" in2="BackgroundImageFix" result="shape"/>
<feGaussianBlur stdDeviation="284.278" result="effect1_foregroundBlur_2109_17567"/>
</filter>
<linearGradient id="paint0_linear_2109_17567" x1="3708" y1="808" x2="3708" y2="3962" gradientUnits="userSpaceOnUse">
<stop stop-color="#16B6F0" stop-opacity="0.36"/>
<stop offset="1" stop-color="#1653F0" stop-opacity="0.6"/>
</linearGradient>
<linearGradient id="paint1_linear_2109_17567" x1="1049.5" y1="3665.68" x2="1049.5" y2="6441.82" gradientUnits="userSpaceOnUse">
<stop stop-color="#EAF0FF" stop-opacity="0.05"/>
<stop offset="1" stop-color="#EAF0FF"/>
</linearGradient>
<clipPath id="clip0_2109_17567">
<rect width="5371" height="3529" fill="white"/>
</clipPath>
</defs>
</svg>
