<svg width="5371" height="3529" viewBox="0 0 5371 3529" fill="none" xmlns="http://www.w3.org/2000/svg">
<g clip-path="url(#clip0_2109_17574)">
<rect width="5371" height="3529" fill="#EAF0FF"/>
<g filter="url(#filter0_f_2109_17574)">
<ellipse cx="3708" cy="2385" rx="2062" ry="1577" fill="url(#paint0_linear_2109_17574)" fill-opacity="0.5"/>
</g>
<rect y="589" width="2099" height="6141" fill="url(#paint1_linear_2109_17574)"/>
<path d="M2684.7 3379.17C3720.61 3379.17 4560.39 2861.96 4560.39 2223.93C4560.39 1585.91 3720.61 1068.7 2684.7 1068.7C1648.78 1068.7 809 1585.91 809 2223.93C809 2861.96 1648.78 3379.17 2684.7 3379.17Z" fill="#F5F5F5"/>
<path d="M3441 2144.84L2416.78 1553.47C2408.89 1549.46 2400.16 1547.37 2391.3 1547.37C2382.45 1547.37 2373.72 1549.46 2365.82 1553.47L1500.92 2052.8C1486.85 2060.84 1486.85 2074.1 1500.92 2082.22L2525.14 2673.59C2533.03 2677.6 2541.76 2679.69 2550.62 2679.69C2559.48 2679.69 2568.21 2677.6 2576.1 2673.59L2646.59 2632.91L3116.74 2361.39L3441 2174.18C3455.39 2166.06 3455.39 2152.96 3441 2144.84Z" fill="#E0E0E0"/>
<path d="M4094.1 1652.02L3510.21 1313.46C3504.86 1310.76 3498.96 1309.36 3492.97 1309.36C3486.98 1309.36 3481.08 1310.76 3475.73 1313.46L2889.75 1651.78C2887.67 1652.49 2885.86 1653.83 2884.58 1655.62C2883.3 1657.41 2882.61 1659.55 2882.61 1661.75C2882.61 1663.95 2883.3 1666.09 2884.58 1667.88C2885.86 1669.66 2887.67 1671.01 2889.75 1671.72L3473.56 2010.52C3478.92 2013.22 3484.84 2014.62 3490.84 2014.62C3496.84 2014.62 3502.76 2013.22 3508.12 2010.52L3555.87 1982.95L3874.42 1799.04L4094.1 1672.2C4096.27 1671.55 4098.17 1670.22 4099.53 1668.4C4100.88 1666.58 4101.61 1664.38 4101.61 1662.11C4101.61 1659.84 4100.88 1657.64 4099.53 1655.82C4098.17 1654 4096.27 1652.67 4094.1 1652.02Z" fill="#E0E0E0"/>
<path d="M1352.38 2436.3C1518.01 2436.3 1652.28 2358.78 1652.28 2263.16C1652.28 2167.54 1518.01 2090.02 1352.38 2090.02C1186.75 2090.02 1052.47 2167.54 1052.47 2263.16C1052.47 2358.78 1186.75 2436.3 1352.38 2436.3Z" fill="#E0E0E0"/>
<path d="M3214.89 2905.65C3533.63 2905.65 3792.03 2756.48 3792.03 2572.47C3792.03 2388.46 3533.63 2239.29 3214.89 2239.29C2896.15 2239.29 2637.75 2388.46 2637.75 2572.47C2637.75 2756.48 2896.15 2905.65 3214.89 2905.65Z" fill="#E0E0E0"/>
<path d="M4001.58 1697.28L3908.66 1643.58L4001.58 1616.73V1697.28Z" fill="#E0E0E0"/>
<path opacity="0.1" d="M4001.58 1697.28L3908.66 1643.58L4001.58 1616.73V1697.28Z" fill="black"/>
<path d="M3535.85 1885.69V1971.3L2999.71 1661.02V1575.5L3535.85 1885.69Z" fill="#E0E0E0"/>
<path opacity="0.1" d="M3535.85 1885.69V1971.3L2999.71 1661.02V1575.5L3535.85 1885.69Z" fill="black"/>
<path d="M2953.25 904.396L3489.39 1214.59V1912.54L2953.25 1602.35V904.396Z" fill="#E0E0E0"/>
<path d="M3489.39 1214.59L4094.58 865.17V1563.04L3489.39 1912.54V1214.59Z" fill="#EBEBEB"/>
<path d="M4094.58 865.169L3558.52 554.898L2953.25 904.396L3489.39 1214.59L4094.58 865.169Z" fill="#F5F5F5"/>
<path d="M3535.85 1241.43L4048.12 945.631V1106.72L3535.85 1402.52V1241.43Z" fill="#FAFAFA"/>
<path opacity="0.1" d="M3535.85 1456.21L4048.12 1160.41V1536.19L3535.85 1832V1456.21Z" fill="black"/>
<path d="M3535.85 1971.3L3582.39 1944.45V1858.84L3535.85 1885.69V1971.3Z" fill="#EBEBEB"/>
<path d="M4001.58 1697.28L4048.12 1670.43V1589.89L4001.58 1616.73V1697.28Z" fill="#EBEBEB"/>
<path d="M3694.61 1183.72C3694.61 1191.12 3716.79 1184.28 3744.2 1168.53L3831.01 1118.37C3858.42 1102.29 3880.61 1083.73 3880.61 1076.33V1062.91L3694.61 1170.3V1183.72Z" fill="#E0E0E0"/>
<path opacity="0.1" d="M4048.12 1536.19L3724.83 1347.06L3535.85 1456.21V1832L4048.12 1536.19Z" fill="black"/>
<path d="M3522.51 922.321C3612.85 922.321 3686.09 880.035 3686.09 827.873C3686.09 775.711 3612.85 733.425 3522.51 733.425C3432.17 733.425 3358.93 775.711 3358.93 827.873C3358.93 880.035 3432.17 922.321 3522.51 922.321Z" fill="#E0E0E0"/>
<path d="M3668.64 784.387C3659.92 767.565 3646.22 753.84 3629.42 745.081C3570.34 710.999 3474.6 710.999 3415.52 745.081C3398.72 753.815 3385.04 767.549 3376.38 784.387H3371.23V806.813C3371.23 829.159 3386.02 851.505 3415.52 868.546C3474.6 902.628 3570.34 902.628 3629.42 868.546C3658.92 851.505 3673.71 829.159 3673.71 806.813V784.387H3668.64Z" fill="#37474F"/>
<path d="M3415.2 846.12C3356.2 812.038 3356.2 756.736 3415.2 722.654C3474.2 688.572 3570.02 688.492 3629.1 722.654C3688.18 756.816 3688.18 812.038 3629.1 846.12C3570.02 880.201 3474.6 880.201 3415.2 846.12Z" fill="#455A64"/>
<path d="M3555.39 770.883L3527.01 760.915C3648.31 415.276 3364.96 304.511 3352.83 299.929L3363.27 271.795C3366.97 273.001 3686.57 396.788 3555.39 770.883Z" fill="#37474F"/>
<path d="M3580.79 784.387C3581.08 776.546 3579.79 768.727 3576.99 761.398C3574.19 754.069 3569.94 747.379 3564.49 741.729C3559.05 736.08 3552.52 731.586 3545.3 728.516C3538.08 725.446 3530.32 723.864 3522.47 723.864C3514.62 723.864 3506.86 725.446 3499.64 728.516C3492.42 731.586 3485.89 736.08 3480.45 741.729C3475 747.379 3470.75 754.069 3467.95 761.398C3465.16 768.727 3463.86 776.546 3464.15 784.387C3464.58 789.572 3466.4 794.546 3469.41 798.789C3472.42 803.031 3476.52 806.386 3481.27 808.501C3494.06 814.965 3508.18 818.332 3522.51 818.332C3536.84 818.332 3550.96 814.965 3563.75 808.501C3568.49 806.389 3572.58 803.033 3575.58 798.788C3578.58 794.544 3580.38 789.568 3580.79 784.387Z" fill="#37474F"/>
<path d="M3561.33 780.689C3557.23 804.803 3507.4 816.941 3487.3 810.993C3499.51 815.997 3512.66 818.321 3525.85 817.808C3539.03 817.295 3551.96 813.957 3563.75 808.018C3568.49 805.906 3572.58 802.551 3575.58 798.306C3578.58 794.062 3580.38 789.086 3580.79 783.904C3580.79 768.441 3574.65 753.61 3563.72 742.668C3552.8 731.726 3537.97 725.569 3522.51 725.547C3536.66 726.03 3565.51 756.575 3561.33 780.689Z" fill="#263238"/>
<path d="M3359.74 279.673L3349.61 268.018L3385.06 237.151C3386.63 235.89 3388.61 235.265 3390.62 235.399C3392.63 235.533 3394.52 236.417 3395.91 237.875C3397.19 239.451 3397.83 241.455 3397.7 243.483C3397.56 245.511 3396.67 247.414 3395.19 248.807L3359.74 279.673Z" fill="black"/>
<path d="M3381.84 299.286C3390.36 288.595 3382.97 268.982 3373.16 257.729C3363.36 246.475 3345.03 236.508 3332.97 243.421C3320.91 250.334 3298.09 267.535 3298.09 267.535L3353.39 330.554C3353.39 330.554 3373.32 309.977 3381.84 299.286Z" fill="#37474F"/>
<path d="M3354.92 244.225C3367.29 258.613 3372.52 285.782 3335.95 310.619L3353.39 330.554C3353.39 330.554 3373.32 309.976 3381.84 299.286C3390.36 288.595 3382.97 268.982 3373.16 257.729C3368.08 252.011 3361.87 247.412 3354.92 244.225Z" fill="#263238"/>
<path d="M3266.74 550.96C3314 509.724 3390.93 353.704 3335.78 290.283C3280.64 226.862 3115.38 281.682 3068.12 322.516" fill="#455A64"/>
<path d="M3057.91 390.438C3040.79 327.018 3075.99 296.473 3136.44 322.114C3196.89 347.756 3259.74 419.938 3276.87 483.359C3293.99 546.78 3258.86 577.405 3198.33 551.763C3137.81 526.122 3075.03 453.859 3057.91 390.438Z" fill="#37474F"/>
<path d="M3255 441.48C3256.13 440.596 3257.09 439.551 3258.14 438.586C3237.83 402.512 3210.31 371.016 3177.27 346.068L3174.06 348.559C3162.37 359.466 3155.38 374.486 3154.55 390.449C3153.73 406.413 3159.14 422.073 3169.64 434.126C3180.14 446.179 3194.91 453.683 3210.83 455.055C3226.76 456.427 3242.6 451.56 3255 441.48Z" fill="#90CAF9"/>
<path opacity="0.7" d="M3255 441.48C3256.13 440.596 3257.09 439.551 3258.14 438.586C3237.83 402.512 3210.31 371.016 3177.27 346.068L3174.06 348.559C3162.37 359.466 3155.38 374.486 3154.55 390.449C3153.73 406.413 3159.14 422.073 3169.64 434.126C3180.14 446.179 3194.91 453.683 3210.83 455.055C3226.76 456.427 3242.6 451.56 3255 441.48Z" fill="white"/>
<path d="M1809.26 514.145V418.17L1890.29 411.096C1891.45 411.004 1892.62 411.226 1893.66 411.739L1974.53 457.958C1975.28 458.424 1975.92 459.049 1976.4 459.789C1976.88 460.529 1977.19 461.365 1977.31 462.239C1977.44 463.113 1977.37 464.003 1977.11 464.847C1976.85 465.691 1976.41 466.467 1975.81 467.122L1889.97 560.203L1809.26 514.145Z" fill="#90CAF9"/>
<path d="M1889.97 560.203L1975.81 467.202C1976.63 466.32 1977.16 465.21 1977.34 464.019C1977.51 462.828 1977.32 461.613 1976.79 460.533C1976.26 459.453 1975.41 458.56 1974.36 457.971C1973.31 457.382 1972.11 457.126 1970.91 457.235L1889.97 464.309V560.203Z" fill="#90CAF9"/>
<path d="M1809.34 418.089L1889.73 464.308L1970.75 457.154C1971.65 456.987 1972.58 456.987 1973.48 457.154C1967.05 453.377 1896.4 412.945 1893.1 411.418C1892.09 410.807 1890.9 410.552 1889.73 410.694L1809.34 418.089Z" fill="#90CAF9"/>
<path opacity="0.5" d="M1809.34 418.089L1889.73 464.308L1970.75 457.154C1971.65 456.987 1972.58 456.987 1973.48 457.154C1967.05 453.377 1896.4 412.945 1893.1 411.418C1892.09 410.807 1890.9 410.552 1889.73 410.694L1809.34 418.089Z" fill="white"/>
<path d="M1889.81 355.955C1889.27 345.816 1886.33 335.949 1881.25 327.161C1876.16 318.373 1869.07 310.914 1860.55 305.395L1853.15 300.411C1844.1 295.796 1834.09 293.39 1823.93 293.39C1813.78 293.39 1803.76 295.796 1794.72 300.411L1541.35 446.786C1532.83 452.305 1525.74 459.763 1520.65 468.551C1515.57 477.339 1512.63 487.206 1512.09 497.345V790.094C1512.62 800.247 1515.55 810.13 1520.63 818.933C1525.72 827.736 1532.82 835.207 1541.35 840.734L1548.75 845.718C1557.8 850.276 1567.79 852.651 1577.93 852.651C1588.06 852.651 1598.05 850.276 1607.11 845.718L1681.94 802.473L1779.2 746.206L1860.55 699.263C1869.07 693.744 1876.16 686.285 1881.25 677.497C1886.33 668.709 1889.27 658.842 1889.81 648.703V355.955Z" fill="#90CAF9"/>
<path opacity="0.2" d="M1512.09 790.094C1512.62 800.246 1515.55 810.13 1520.63 818.932C1525.72 827.735 1532.82 835.207 1541.35 840.734L1548.75 845.717C1556.98 849.829 1565.99 852.162 1575.19 852.563C1584.38 852.965 1593.56 851.427 1602.12 848.048C1588.38 853.193 1578.01 845.476 1578.01 828.837V536.008C1578.38 525.851 1581.31 515.953 1586.53 507.232L1520.78 468.569C1515.49 477.267 1512.53 487.175 1512.18 497.345L1512.09 790.094Z" fill="black"/>
<path opacity="0.5" d="M1888.84 347.675C1885.38 335.297 1874.13 331.599 1860.63 339.075L1607.1 485.449C1598.44 490.834 1591.34 498.401 1586.53 507.393L1520.78 468.73C1525.61 459.79 1532.7 452.278 1541.35 446.946L1794.71 300.411C1803.78 295.852 1813.79 293.477 1823.93 293.477C1834.08 293.477 1844.09 295.852 1853.15 300.411L1860.63 305.475C1867.95 310.227 1874.22 316.418 1879.07 323.673C1883.93 330.929 1887.25 339.095 1888.84 347.675Z" fill="white"/>
<path d="M1835.63 561.168L1814.33 560.123C1812.8 560.123 1811.68 557.953 1811.76 555.461C1811.9 549.501 1811.64 543.538 1810.95 537.616C1810.62 535.104 1811.07 532.551 1812.24 530.302L1833.38 500.319C1833.9 499.299 1834.17 498.17 1834.17 497.024C1834.17 495.878 1833.9 494.748 1833.38 493.728L1822.85 471.061C1821.88 468.971 1820.12 468.328 1818.91 469.614L1795.36 494.371C1794.72 494.953 1793.89 495.276 1793.03 495.276C1792.16 495.276 1791.33 494.953 1790.7 494.371C1787.59 491.811 1784.12 489.726 1780.41 488.182C1779.56 487.639 1778.9 486.843 1778.52 485.906C1778.15 484.968 1778.08 483.937 1778.32 482.957L1783.54 449.277C1783.94 446.866 1782.98 445.097 1781.53 445.258L1756.61 448.232C1755.09 448.232 1753.4 450.322 1752.76 452.493L1742.47 487.619C1741.85 489.725 1740.55 491.565 1738.77 492.844C1733.05 495.743 1727.66 499.246 1722.69 503.293C1721.41 504.338 1719.4 503.776 1718.19 501.927L1706.62 484.163C1705.49 482.394 1703.56 482.073 1702.44 483.52L1677.84 513.743C1677.24 514.748 1676.86 515.872 1676.73 517.039C1676.61 518.205 1676.74 519.385 1677.12 520.495L1684.43 543.484C1685.14 545.903 1684.97 548.494 1683.95 550.799C1680.02 557.906 1676.51 565.233 1673.42 572.743C1672.68 574.648 1671.24 576.2 1669.4 577.083L1645.77 583.594C1644.84 584.073 1644.03 584.755 1643.41 585.591C1642.78 586.426 1642.35 587.392 1642.15 588.417L1633.63 626.598C1633.07 628.849 1633.63 630.778 1635.4 630.859L1656.78 631.904C1658.23 631.904 1659.35 634.074 1659.27 636.566C1659.12 642.525 1659.39 648.488 1660.08 654.41C1660.41 656.923 1659.96 659.476 1658.79 661.725L1637.65 691.707C1637.15 692.734 1636.89 693.861 1636.89 695.003C1636.89 696.144 1637.15 697.271 1637.65 698.298L1648.1 720.966C1649.15 723.056 1650.91 723.699 1652.12 722.413L1675.59 697.655C1676.23 697.05 1677.08 696.714 1677.96 696.714C1678.84 696.714 1679.69 697.05 1680.33 697.655C1683.41 700.249 1686.89 702.338 1690.62 703.845C1691.47 704.39 1692.12 705.19 1692.48 706.129C1692.84 707.068 1692.89 708.098 1692.63 709.069L1687.41 742.749C1687.41 745.161 1687.97 746.929 1689.5 746.768L1714.41 743.794C1715.86 743.794 1717.55 741.704 1718.19 739.534L1728.56 704.407C1729.15 702.287 1730.45 700.438 1732.26 699.183C1737.97 696.268 1743.35 692.765 1748.34 688.733C1748.71 688.496 1749.13 688.341 1749.57 688.278C1750 688.215 1750.45 688.245 1750.87 688.367C1751.3 688.488 1751.69 688.698 1752.03 688.983C1752.37 689.268 1752.64 689.621 1752.84 690.019L1764.41 707.783C1765.62 709.632 1767.47 709.954 1768.59 708.507L1793.27 678.283C1793.87 677.279 1794.25 676.154 1794.38 674.988C1794.5 673.821 1794.37 672.641 1793.99 671.531L1786.68 648.542C1785.77 646.188 1785.77 643.582 1786.68 641.228C1790.6 634.12 1794.12 626.794 1797.21 619.284C1797.97 617.364 1799.43 615.81 1801.31 614.943L1824.94 608.432C1825.86 607.959 1826.66 607.276 1827.28 606.439C1827.89 605.602 1828.3 604.633 1828.48 603.609L1837.08 565.428C1837.96 563.178 1837.16 561.248 1835.63 561.168ZM1786.92 590.025C1777.19 633.27 1746.73 671.049 1718.19 674.425C1689.66 677.801 1674.87 645.408 1684.59 602.082C1694.32 558.757 1724.78 520.977 1753.4 517.682C1782.02 514.386 1796.64 546.699 1786.92 590.025Z" fill="#FAFAFA"/>
<path d="M3246.96 1708.45C3250.7 1730.87 3247.51 1753.89 3237.81 1774.44C3228.12 1795 3212.38 1812.1 3192.7 1823.47L2557.69 2154.4L2555.84 2191.06L2526.91 2207.78L2564.2 2229.16L3265.85 1822.99L3246.96 1708.45Z" fill="#37474F"/>
<path d="M2584.14 2390.56C2580.12 2341.85 2597.4 2292.74 2639.84 2268.3L3211.92 1938.18C3219.42 1933.84 3227.87 1931.39 3236.54 1931.02C3245.2 1930.66 3253.82 1932.4 3261.67 1936.1C3269.51 1939.8 3276.35 1945.34 3281.58 1952.25C3286.82 1959.17 3290.3 1967.24 3291.73 1975.8L3253.55 1748.16C3257.23 1770.1 3254.11 1792.63 3244.61 1812.75C3235.11 1832.86 3219.69 1849.59 3200.42 1860.69L2608.17 2203.44C2603.93 2206.37 2598.97 2208.08 2593.82 2208.4C2588.67 2208.71 2583.54 2207.61 2578.97 2205.22C2574.4 2202.83 2570.58 2199.23 2567.9 2194.83C2565.23 2190.42 2563.81 2185.36 2563.8 2180.21L2560.75 2148.78L2584.14 2390.56Z" fill="#455A64"/>
<path d="M2596.6 827.953L2434.55 921.597L3125.83 1359.43C3147.72 1373.29 3166.44 1391.6 3180.77 1413.18C3195.11 1434.76 3204.73 1459.12 3209.02 1484.67L3309.82 2136.96C3310.1 2138.77 3310.81 2140.48 3311.9 2141.94C3312.99 2143.41 3314.42 2144.59 3316.06 2145.38C3317.71 2146.17 3319.52 2146.55 3321.35 2146.48C3323.17 2146.42 3324.96 2145.91 3326.54 2145C3330.32 2142.75 3332.49 2138.65 3331.2 2122.73L3273.57 1429.53C3270.35 1390.38 3245.35 1343.76 3205.57 1312.17L2596.6 827.953Z" fill="#455A64"/>
<path opacity="0.2" d="M2886.37 1207.43L2989.58 1272.7L2967.96 1122.79L2875.44 1049.4L2886.37 1207.43Z" fill="black"/>
<path d="M1845.6 1689L1841.58 1698.16C1834.7 1714.08 1833.92 1731.98 1839.37 1748.44C1844.82 1764.91 1856.14 1778.79 1871.16 1787.46L2509.06 2155.21L2492.99 2059.8L2517.1 2202.87L1802.11 1788.91L1845.6 1689Z" fill="#263238"/>
<path d="M1845.59 1689L1843.02 1694.78C1838.53 1705.26 1837.45 1716.89 1839.94 1728.01C1842.44 1739.13 1848.38 1749.19 1856.92 1756.74C1865.46 1764.29 1876.16 1768.95 1887.51 1770.07C1898.85 1771.18 1910.26 1768.69 1920.11 1762.95L1947.36 1747.27L1983.61 1768.17L1834.9 1854.02L1787.8 1822.59L1845.59 1689Z" fill="#263238"/>
<path d="M2524.74 2164.53L1913.2 1810.85C1901.95 1803.53 1892.59 1793.65 1885.88 1782.04C1879.16 1770.42 1875.27 1757.38 1874.53 1743.98V1707.89C1875.27 1694.49 1879.16 1681.45 1885.88 1669.83C1892.59 1658.21 1901.95 1648.34 1913.2 1641.01L2524.74 1287.89C2536.72 1281.83 2549.97 1278.67 2563.4 1278.67C2576.83 1278.67 2590.08 1281.83 2602.06 1287.89L3213.6 1641.01C3224.86 1648.33 3234.22 1658.2 3240.94 1669.82C3247.66 1681.44 3251.54 1694.48 3252.27 1707.89V1744.46C3251.54 1757.86 3247.66 1770.91 3240.94 1782.53C3234.22 1794.15 3224.86 1804.02 3213.6 1811.34L2602.06 2164.29C2590.1 2170.4 2576.86 2173.6 2563.43 2173.64C2550 2173.68 2536.74 2170.56 2524.74 2164.53Z" fill="#90CAF9"/>
<path opacity="0.3" d="M2536.07 2169.36C2532.13 2168.12 2528.33 2166.47 2524.74 2164.45L1913.2 1810.77C1901.96 1803.44 1892.61 1793.57 1885.91 1781.95C1879.21 1770.33 1875.34 1757.29 1874.61 1743.9V1707.81C1875.31 1695.9 1878.45 1684.27 1883.84 1673.63C1889.24 1663 1896.77 1653.59 1905.96 1645.99C1892.22 1658.29 1894.63 1674.77 1913.2 1685.46L2521.84 2036.89L2536.07 2169.36Z" fill="black"/>
<path opacity="0.15" d="M3252.27 1708.13V1744.62C3251.56 1758.04 3247.69 1771.1 3240.97 1782.74C3234.25 1794.37 3224.87 1804.26 3213.6 1811.58L2602.06 2164.53C2591.92 2169.63 2580.87 2172.68 2569.54 2173.49C2558.22 2174.3 2546.84 2172.87 2536.07 2169.27L2521.84 2037.21L2524.74 2038.9C2536.71 2045 2549.96 2048.18 2563.4 2048.18C2576.84 2048.18 2590.09 2045 2602.06 2038.9L3213.6 1685.78C3232.25 1675.09 3234.66 1658.53 3220.84 1646.31C3230.06 1653.89 3237.61 1663.3 3243.02 1673.93C3248.43 1684.57 3251.58 1696.21 3252.27 1708.13Z" fill="black"/>
<path d="M2742.33 1413.69L2130.71 1766.81C2116.81 1774.11 2101.08 1777.21 2085.45 1775.73C2083.12 1775.73 2080.87 1775.33 2078.62 1775.01H2077.25L2073.23 1774.28H2072.67C2070.64 1773.89 2068.62 1773.38 2066.64 1772.75C2062.05 1771.43 2057.62 1769.57 2053.46 1767.21L2021.95 1749.04C1998.52 1733.77 1981.88 1710.04 1975.49 1682.81L1882.49 1163.63C1881.94 1160.44 1881.67 1157.21 1881.69 1153.98C1881.69 1152.69 1881.69 1151.49 1881.69 1150.2C1882.22 1143.71 1883.66 1137.33 1885.95 1131.23C1890.07 1119.88 1897.11 1109.81 1906.36 1102.05L1909.02 1099.96C1910.38 1099.08 1911.67 1098.2 1913.12 1097.39L2524.66 744.277C2536.64 738.209 2549.89 735.048 2563.32 735.048C2576.75 735.048 2590 738.209 2601.98 744.277L2633.41 762.443C2640.29 766.566 2646.55 771.655 2651.98 777.554C2653.11 778.68 2654.15 779.885 2655.11 781.011C2659.28 785.755 2663.04 790.836 2666.37 796.203C2667.18 797.322 2667.91 798.505 2668.54 799.74C2669.18 800.704 2669.74 801.749 2670.31 802.794C2670.87 803.839 2671.91 805.849 2672.64 807.376C2673.42 808.865 2674.11 810.394 2674.73 811.958C2675.29 813.244 2675.77 814.53 2676.25 815.816C2676.53 816.39 2676.77 816.981 2676.98 817.584C2677.38 818.71 2677.7 819.915 2678.02 821.041C2678.5 822.493 2678.9 823.969 2679.23 825.462C2679.55 826.515 2679.79 827.589 2679.95 828.677L2773.03 1347.94C2774.64 1360.68 2772.6 1373.61 2767.17 1385.25C2761.74 1396.88 2753.13 1406.74 2742.33 1413.69Z" fill="#90CAF9"/>
<path d="M1991.25 1226L2084.25 1745.26C2088.59 1769.38 2109.41 1779.19 2130.71 1766.89L2742.33 1413.77C2753.22 1406.79 2761.89 1396.85 2767.34 1385.13C2772.79 1373.4 2774.8 1360.36 2773.11 1347.54L2680.03 828.355C2675.69 804.241 2654.87 794.434 2633.57 806.813L2021.95 1159.85C2011.07 1166.81 2002.41 1176.74 1996.97 1188.45C1991.53 1200.17 1989.54 1213.2 1991.25 1226Z" fill="#90CAF9"/>
<path opacity="0.15" d="M1991.25 1226L2084.25 1745.26C2088.59 1769.38 2109.41 1779.19 2130.71 1766.89L2742.33 1413.77C2753.22 1406.79 2761.89 1396.85 2767.34 1385.13C2772.79 1373.4 2774.8 1360.36 2773.11 1347.54L2680.03 828.355C2675.69 804.241 2654.87 794.434 2633.57 806.813L2021.95 1159.85C2011.07 1166.81 2002.41 1176.74 1996.97 1188.45C1991.53 1200.17 1989.54 1213.2 1991.25 1226Z" fill="black"/>
<path opacity="0.3" d="M2114.95 1773.08C2105.33 1775.54 2095.36 1776.44 2085.45 1775.73C2083.12 1775.73 2080.87 1775.33 2078.62 1775.01C2076.37 1774.68 2075 1774.44 2073.23 1774.04H2072.67C2070.64 1773.65 2068.62 1773.14 2066.64 1772.51C2062.05 1771.19 2057.62 1769.33 2053.46 1766.97L2021.95 1748.8C1998.52 1733.53 1981.88 1709.8 1975.49 1682.57L1882.49 1163.38C1881.94 1160.2 1881.67 1156.97 1881.69 1153.74C1881.69 1152.45 1881.69 1151.25 1881.69 1149.96C1882.22 1143.47 1883.66 1137.09 1885.95 1130.99L1995.02 1192.96C1990.67 1203.48 1989.34 1215.01 1991.17 1226.24L2084.25 1745.26C2087.46 1763.35 2099.84 1773.4 2114.87 1772.19C2114.87 1772.49 2114.9 1772.78 2114.95 1773.08Z" fill="black"/>
<path d="M3399.12 2237.68C3399.12 2237.68 3436.1 2382.37 3460.94 2428.18C3487.9 2479.99 3521.14 2528.29 3559.89 2571.99C3569.21 2582.35 3590.35 2601.65 3597.99 2610.09C3599.8 2611.72 3601.22 2613.75 3602.15 2616C3603.09 2618.26 3603.51 2620.69 3603.38 2623.13C3603.26 2625.57 3602.6 2627.95 3601.44 2630.1C3600.29 2632.25 3598.67 2634.12 3596.7 2635.57C3578.37 2653.81 3499.2 2659.68 3454.27 2626.97C3409.33 2594.25 3371.31 2540.4 3344.38 2514.43C3330.88 2501.25 3318.18 2488.71 3308.94 2479.39C3304.56 2475.02 3301.37 2469.59 3299.7 2463.64C3298.02 2457.68 3297.91 2451.4 3299.37 2445.38C3300.25 2441.93 3301.22 2437.83 3302.26 2433.01C3311.75 2390.08 3260.39 2281.57 3260.39 2281.57C3297.2 2227.55 3351.3 2229.88 3399.12 2237.68Z" fill="#FFA8A7"/>
<path d="M3296.48 2488.87C3295.49 2496.15 3296.37 2503.57 3299.05 2510.41C3303.47 2520.14 3331.6 2537.34 3345.99 2544.09C3363.17 2551.79 3376.93 2565.51 3384.66 2582.68C3401.66 2615.2 3428.77 2641.32 3461.9 2657.11C3505.93 2674.94 3554.34 2678.97 3600.72 2668.68C3658.43 2657.19 3662.45 2622.87 3662.45 2622.87C3662.45 2622.87 3664.86 2590.71 3650.4 2585.89C3635.93 2581.07 3296.48 2488.87 3296.48 2488.87Z" fill="#263238"/>
<path d="M3294.63 2389.6C3294.99 2394.78 3294.8 2399.98 3294.06 2405.11C3292.54 2421.19 3291.25 2431.08 3290.61 2449.32C3289.76 2462.8 3291.87 2476.3 3296.8 2488.87C3314.32 2512.18 3354.83 2519.17 3378.79 2551.01C3402.74 2582.84 3431.36 2632.11 3507.4 2645.69C3583.44 2659.28 3640.67 2634.04 3654.33 2612.18C3668 2590.31 3654.33 2570.22 3605.54 2544.9C3553.37 2518.05 3490.6 2444.82 3490.6 2444.74C3484.25 2437.35 3478.7 2429.15 3473.07 2421.27C3465.99 2412.66 3460.27 2403.01 3456.11 2392.65C3452.54 2381.62 3450.46 2370.16 3449.92 2358.57C3450.03 2357.58 3449.78 2356.58 3449.2 2355.76C3448.43 2355.12 3447.46 2354.78 3446.47 2354.79C3418.1 2352.2 3389.66 2358.83 3365.36 2373.68C3362.83 2375.09 3360.61 2377 3358.85 2379.31C3357.61 2381.37 3356.71 2383.63 3356.2 2385.98C3354.59 2392.09 3352.9 2398.2 3351.22 2404.31C3350.92 2406.78 3350.08 2409.16 3348.76 2411.27C3347.44 2413.38 3345.67 2415.18 3343.58 2416.53C3338.03 2419.02 3331.84 2415.08 3327.02 2411.3C3322.2 2407.53 3318.98 2398.92 3313.76 2395.23C3308.34 2390.96 3301.49 2388.94 3294.63 2389.6Z" fill="#455A64"/>
<path d="M3457.72 2628.57C3457.72 2628.57 3455.63 2575.44 3512.3 2545.06C3568.97 2514.67 3604.1 2532.84 3621.86 2545.06C3643 2559.69 3673.46 2590.39 3655.78 2613.54C3636.65 2638.46 3605.62 2650.76 3547.19 2652.61C3488.75 2654.46 3457.72 2628.57 3457.72 2628.57Z" fill="#FAFAFA"/>
<path d="M2573.29 1486.12C2600.62 1564.49 2610.18 1653.39 2712.91 1725.65C2806.31 1791.32 3014.98 1841.08 3041.35 1854.26C3067.71 1867.44 3085.07 1871.86 3096.41 1914.55C3111.76 1972.82 3113.61 2016.95 3168.27 2119.28C3206.69 2191.22 3236.11 2242.74 3266.41 2295.72C3294.15 2298.93 3388.67 2272.97 3403.06 2250.86C3396.15 2206.17 3316.81 1781.6 3268.91 1688.92C3228.71 1610.55 2724.72 1354.45 2724.72 1354.45C2724.72 1354.45 2545.96 1407.66 2573.29 1486.12Z" fill="#90CAF9"/>
<path opacity="0.35" d="M2573.29 1486.12C2600.62 1564.49 2610.18 1653.39 2712.91 1725.65C2806.31 1791.32 3014.98 1841.08 3041.35 1854.26C3067.71 1867.44 3085.07 1871.86 3096.41 1914.55C3111.76 1972.82 3113.61 2016.95 3168.27 2119.28C3206.69 2191.22 3236.11 2242.74 3266.41 2295.72C3294.15 2298.93 3388.67 2272.97 3403.06 2250.86C3396.15 2206.17 3316.81 1781.6 3268.91 1688.92C3228.71 1610.55 2724.72 1354.45 2724.72 1354.45C2724.72 1354.45 2545.96 1407.66 2573.29 1486.12Z" fill="black"/>
<path opacity="0.1" d="M3266.41 2295.47C3286.41 2295.52 3306.31 2292.54 3325.41 2286.63C3322.82 2280.7 3319.73 2275 3316.17 2269.59C3283.05 2219.84 3259.9 2170.24 3229.6 2109.39C3165.29 1980.22 3181.37 1849.84 3146.41 1793.98C3116.34 1746.15 3037.17 1699.29 3037.17 1699.29L3183.54 1614.81C3179.28 1611.83 3174.86 1608.86 3170.36 1605.88H3169.72C3160.63 1599.85 3151.15 1593.67 3141.34 1587.4L3140.46 1586.83L3109.91 1567.7H3109.35L3093.27 1558.06C3082.56 1551.52 3071.65 1545.01 3060.56 1538.52L3059.11 1537.64C3048.39 1531.21 3037.41 1524.81 3026.15 1518.43L3024.31 1517.38L3008.23 1508.3L3007.43 1507.82L2990.71 1498.33L2989.18 1497.53L2974.39 1489.49L2971.74 1487.96L2955.66 1479.04L2954.62 1478.4L2939.91 1470.36L2936.61 1468.51L2921.58 1460.47L2886.93 1454.28L2600.54 1574.13C2604.23 1584.66 2608.57 1595.19 2612.83 1605.72C2620.76 1624.05 2630.57 1641.51 2642.09 1657.81L2780.19 1763.03C2862.26 1800.65 2967.32 1829.91 3016.27 1845.34L3028.41 1849.28L3029.69 1849.76L3033.07 1850.89L3034.43 1851.37L3037.09 1852.41L3038.05 1852.81L3040.86 1854.02L3055.01 1860.85C3066.61 1865.64 3076.56 1873.71 3083.63 1884.08C3089.29 1893.45 3093.44 1903.65 3095.93 1914.31C3096.89 1917.92 3097.77 1921.54 3098.66 1925.08C3101.23 1935.77 3103.56 1946.06 3105.89 1956.51C3106.7 1959.96 3107.5 1963.5 3108.38 1967.04C3110.88 1977.57 3113.61 1988.5 3117.07 2000.15C3118.27 2004.01 3119.48 2008.19 3120.76 2012.05C3123.42 2020.09 3126.47 2028.85 3130.01 2037.93C3140.89 2065.73 3153.51 2092.82 3167.79 2119.04C3170.12 2123.54 3172.53 2127.96 3174.86 2132.3C3188.85 2158.34 3201.71 2181.73 3213.85 2203.6L3219.87 2214.37C3227.91 2228.6 3235.55 2242.26 3243.18 2255.69C3248.89 2265.73 3254.6 2275.62 3260.22 2285.59L3265.93 2295.47H3266.41Z" fill="black"/>
<path d="M2995.13 2426.98C2995.13 2426.98 3032.02 2571.66 3056.94 2617.48C3083.68 2669.2 3116.64 2717.47 3155.09 2761.2C3164.49 2771.65 3185.63 2790.94 3193.27 2799.38C3195.08 2801.02 3196.5 2803.04 3197.43 2805.3C3198.37 2807.56 3198.79 2809.99 3198.66 2812.43C3198.54 2814.87 3197.88 2817.25 3196.72 2819.4C3195.57 2821.55 3193.95 2823.42 3191.98 2824.87C3173.65 2843.11 3094.48 2848.98 3049.46 2816.26C3004.45 2783.55 2966.59 2729.69 2939.66 2703.73C2926.16 2690.55 2913.46 2677.93 2904.22 2668.68C2899.81 2664.31 2896.62 2658.88 2894.94 2652.9C2893.27 2646.93 2893.17 2640.63 2894.65 2634.6C2895.53 2631.15 2896.42 2627.13 2897.54 2622.3C2906.95 2579.3 2855.58 2470.87 2855.58 2470.87C2892.72 2417.01 2946.98 2419.1 2995.13 2426.98Z" fill="#FFA8A7"/>
<path d="M2892.16 2678.09C2891.17 2685.4 2892.06 2692.84 2894.73 2699.71C2899.15 2709.36 2926.88 2726.56 2941.59 2733.31C2956.3 2740.06 2967.24 2750.75 2980.26 2771.89C2998.18 2800.99 3024.79 2832.1 3057.5 2846.33C3101.52 2864.22 3149.94 2868.28 3196.32 2857.98C3254.12 2846.41 3258.13 2812.16 3258.13 2812.16C3258.13 2812.16 3260.55 2780.01 3246.08 2775.19C3231.61 2770.37 2892.16 2678.09 2892.16 2678.09Z" fill="#263238"/>
<path d="M2889.99 2578.9C2890.35 2584.05 2890.16 2589.22 2889.43 2594.33C2887.9 2610.41 2886.53 2620.38 2885.97 2638.62C2885.12 2652.07 2887.23 2665.55 2892.16 2678.09C2909.68 2701.48 2950.19 2708.47 2974.15 2740.3C2998.1 2772.13 3026.72 2821.41 3102.76 2834.99C3178.8 2848.58 3236.03 2823.34 3249.61 2801.47C3263.2 2779.61 3250.02 2759.51 3200.9 2734.19C3148.74 2707.27 3085.96 2634.04 3085.88 2634.04C3079.61 2626.64 3073.98 2618.45 3068.36 2610.57C3061.32 2601.9 3055.63 2592.23 3051.47 2581.87C3047.89 2570.87 3045.81 2559.43 3045.29 2547.87C3045.35 2547.37 3045.31 2546.87 3045.17 2546.38C3045.03 2545.9 3044.8 2545.45 3044.48 2545.06C3043.75 2544.41 3042.8 2544.07 3041.83 2544.09C3013.47 2541.5 2985.02 2548.13 2960.72 2562.98C2958.17 2564.36 2955.95 2566.28 2954.21 2568.61C2952.95 2570.67 2952.06 2572.92 2951.56 2575.28C2949.87 2581.31 2948.27 2587.42 2946.58 2593.53C2946.22 2596.04 2945.31 2598.44 2943.92 2600.57C2942.53 2602.69 2940.7 2604.49 2938.54 2605.83C2932.99 2608.24 2926.8 2604.3 2921.98 2600.6C2917.16 2596.9 2913.94 2588.22 2908.72 2584.12C2903.34 2580.12 2896.66 2578.26 2889.99 2578.9Z" fill="#455A64"/>
<path d="M3053.48 2817.87C3053.48 2817.87 3051.39 2764.74 3108.06 2734.36C3164.73 2703.97 3199.86 2722.14 3217.62 2734.36C3238.76 2748.9 3269.15 2779.69 3251.54 2802.76C3232.41 2827.76 3201.31 2840.06 3142.95 2841.91C3084.59 2843.75 3053.48 2817.87 3053.48 2817.87Z" fill="#FAFAFA"/>
<path d="M2208.52 1432.18C2194.69 1509.83 2176.36 1630.88 2223.31 1699.29C2266.71 1762.39 2324.75 1805.23 2430.61 1872.83C2547.32 1947.34 2605.6 1983.68 2633.17 2003.29C2660.74 2022.9 2687.51 2050.23 2695.79 2093.64C2705.51 2144.12 2714.6 2194.03 2763.95 2298.69C2802.69 2381 2845.86 2456.4 2867.72 2498.12C2900.52 2503.74 2982.51 2487.99 3003.97 2460.18C2992.07 2397.88 2924.07 1956.02 2895.05 1890.51C2866.04 1825 2635.5 1628.47 2635.5 1628.47C2635.5 1628.47 2617.26 1509.67 2635.9 1432.18H2208.52Z" fill="#90CAF9"/>
<path opacity="0.35" d="M2208.52 1432.18C2194.69 1509.83 2176.36 1630.88 2223.31 1699.29C2266.71 1762.39 2324.75 1805.23 2430.61 1872.83C2547.32 1947.34 2605.6 1983.68 2633.17 2003.29C2660.74 2022.9 2687.51 2050.23 2695.79 2093.64C2705.51 2144.12 2714.6 2194.03 2763.95 2298.69C2802.69 2381 2845.86 2456.4 2867.72 2498.12C2900.52 2503.74 2982.51 2487.99 3003.97 2460.18C2992.07 2397.88 2924.07 1956.02 2895.05 1890.51C2866.04 1825 2635.5 1628.47 2635.5 1628.47C2635.5 1628.47 2617.26 1509.67 2635.9 1432.18H2208.52Z" fill="black"/>
<path opacity="0.1" d="M2927.85 2494.34C2924.75 2484.54 2920.6 2475.11 2915.47 2466.2C2875.28 2391.53 2818.61 2267.18 2791.28 2174.42C2763.95 2081.66 2785.98 2014.06 2740.32 1959.08C2725.42 1939.27 2708.65 1920.94 2690.24 1904.34L2835.97 1815.44C2811.86 1790.36 2775.36 1754.51 2745.46 1727.02C2655.52 1707.81 2528.43 1767.93 2488.24 1729.67C2403.6 1649.29 2441.94 1630.8 2572.88 1557.65C2587.92 1549.62 2607.05 1538.85 2627.95 1526.95C2709.45 1478.72 2731.64 1428.56 2740.48 1363.05L2208.68 1432.5C2205.62 1449.46 2202.41 1468.51 2199.67 1488.77C2198.87 1494.56 2198.15 1500.34 2197.5 1506.29C2195.82 1521 2194.45 1536.19 2193.81 1551.39C2193.81 1557.49 2193.32 1563.52 2193.24 1569.63C2193.24 1578.71 2193.24 1587.8 2193.89 1596.72C2193.89 1602.67 2194.69 1608.54 2195.33 1614.4C2196.76 1628.58 2199.45 1642.59 2203.37 1656.28C2207.69 1671.71 2214.42 1686.36 2223.31 1699.69C2226.04 1703.63 2228.85 1707.73 2231.34 1711.34C2239.86 1722.76 2249.04 1733.65 2258.84 1743.98C2269.03 1754.75 2279.76 1765 2290.99 1774.68C2299.03 1781.44 2307.06 1788.11 2315.83 1794.94C2324.59 1801.77 2333.99 1808.69 2343.88 1815.76C2368.64 1833.44 2397.01 1852.09 2430.13 1873.23L2471.2 1899.44C2509.71 1923.95 2540.41 1943.4 2564.85 1959.08L2576.58 1966.55C2602.71 1983.35 2620.63 1995.09 2632.85 2003.69C2645.55 2012.45 2657.06 2022.83 2667.09 2034.56C2681.56 2051.58 2691.33 2072.08 2695.47 2094.04C2705.19 2144.52 2714.28 2194.43 2763.63 2299.09C2783 2340.25 2803.82 2379.47 2821.91 2414.04C2828.74 2426.9 2835.33 2439.12 2841.44 2450.37C2851.65 2469.18 2860.57 2485.5 2867.4 2498.6C2887.65 2500.5 2908.07 2499.06 2927.85 2494.34Z" fill="black"/>
<path d="M2690.24 1522.04C2673.66 1546.48 2655.31 1569.66 2635.34 1591.41L2650.93 1604.52C2669.64 1580.07 2683.03 1551.97 2690.24 1522.04Z" fill="#37474F"/>
<path d="M3004.53 1426.23C2990.47 1362.89 2952.44 1187.1 2937.82 1111.54C2933.69 1090.24 2924.9 1070.12 2912.09 1052.62L2723.36 780.689L2697.15 799.9L2720.55 1105.35L2773.68 1166.2C2804.06 1269.01 2877.21 1471.65 2877.21 1471.65C2919.33 1522.21 3014.82 1472.37 3004.53 1426.23Z" fill="#FFA8A7"/>
<path d="M2523.77 712.767C2605.84 698.379 2666.53 703.041 2718.54 760.996C2760.09 807.295 2904.86 1026.25 2904.86 1026.25C2904.86 1026.25 2847.71 1135.65 2749.88 1158.48L2616.05 1024.81L2523.77 712.767Z" fill="#455A64"/>
<path d="M2404.41 720.403C2304.25 738.891 2237.37 760.594 2218.48 778.84C2175.88 866.054 2231.34 1158.72 2231.34 1158.72L2225.64 1295.37L2201.52 1432.02C2309.8 1523.49 2681.16 1490.86 2740.08 1362.65C2740.08 1362.65 2720.95 965.325 2713.55 891.696C2705.03 806.733 2658.81 717.831 2545.31 711.159L2404.41 720.403Z" fill="#FAFAFA"/>
<path d="M2331.42 1395.69C2302.48 1351.15 2277.16 1237.01 2277.16 1237.01C2277.16 1237.01 2324.91 938.638 2313.25 868.224L2208.76 1000.53C2217.28 1085.01 2231.26 1158.72 2231.26 1158.72L2225.56 1295.37L2201.44 1432.02C2288.01 1505.17 2530.36 1515.37 2680.68 1422.77C2521.68 1475.42 2360.44 1440.22 2331.42 1395.69Z" fill="#EBEBEB"/>
<path d="M2335.76 455.627C2335.76 455.627 2351.35 570.17 2359.87 589.382C2365.44 601.297 2375.36 610.621 2387.61 615.425L2391.87 535.928L2335.76 455.627Z" fill="#263238"/>
<path d="M2378.28 296.312C2369.97 294.71 2361.4 295.021 2353.23 297.221C2345.05 299.421 2337.48 303.454 2331.1 309.012C2309.8 327.741 2316.15 391.805 2336.08 455.627L2380.93 464.148L2378.28 296.312Z" fill="#263238"/>
<path d="M2394.36 465.193C2384.87 469.935 2373.3 451.608 2363.01 439.069C2352.72 426.53 2317.35 407.801 2296.29 444.776C2275.23 481.751 2305.62 536.732 2333.67 547.905C2381.9 567.116 2391.79 535.928 2391.79 535.928L2381.01 732.461C2425.87 830.204 2641.21 824.819 2543.79 729.647L2547.32 667.673C2572.07 671.343 2597.06 673.223 2622.08 673.3C2658.89 670.406 2675.77 646.292 2689.76 607.709C2712.19 545.735 2722.8 495.175 2717.01 369.459C2710.74 231.766 2552.15 218.503 2462.36 266.008C2372.57 313.513 2394.36 465.193 2394.36 465.193Z" fill="#FFA8A7"/>
<path d="M2390.98 222.281C2422.01 211.683 2454.12 204.566 2486.72 201.06C2557.05 191.253 2628.59 182.653 2694.26 155.484C2701.98 151.235 2710.8 149.388 2719.58 150.179C2735.66 153.635 2741.85 174.293 2741.28 191.173C2740.77 206.808 2737.61 222.244 2731.96 236.83C2741.69 226.862 2759.93 229.676 2769.18 240.206C2773.43 245.788 2776.36 252.26 2777.75 259.137C2779.14 266.015 2778.96 273.118 2777.21 279.914C2770.78 310.539 2745.06 334.573 2716.04 346.309C2687.03 358.045 2654.71 359.009 2623.36 357.562C2579.58 355.538 2536.13 348.965 2493.71 337.949C2483.61 334.601 2473 333.05 2462.36 333.368C2457.03 333.581 2451.86 335.283 2447.44 338.28C2443.02 341.277 2439.53 345.451 2437.36 350.328C2431.49 367.208 2417.99 484.082 2393.8 482.716C2389.29 482.716 2374.42 451.689 2364.14 440.355C2351.11 426.047 2344.6 324.606 2343.48 305.797C2343.32 304.335 2342.76 302.945 2341.87 301.778C2327.72 278.547 2349.02 242.697 2369.36 232.087C2376.36 228.372 2383.58 225.097 2390.98 222.281Z" fill="#263238"/>
<path d="M2350.15 303.948C2343.93 309.967 2335.6 313.313 2326.95 313.268C2318.29 313.223 2310 309.792 2303.84 303.709C2297.68 297.626 2294.15 289.374 2294 280.72C2293.86 272.066 2297.1 263.698 2303.05 257.407L2350.15 303.948Z" fill="#263238"/>
<path d="M2547.08 667.673C2547.08 667.673 2466.7 653.848 2439.05 636.566C2422.99 626.608 2410.3 612.042 2402.64 594.767C2405.69 611.707 2412.12 627.861 2421.53 642.273C2440.34 670.406 2545.23 698.539 2545.23 698.539L2547.08 667.673Z" fill="#F28F8F"/>
<path d="M2555.12 455.949C2554.71 459.05 2553.4 461.963 2551.36 464.332C2549.32 466.701 2546.63 468.422 2543.62 469.285C2540.62 470.149 2537.42 470.116 2534.43 469.192C2531.45 468.268 2528.79 466.492 2526.8 464.082C2524.8 461.672 2523.56 458.733 2523.21 455.625C2522.86 452.516 2523.43 449.374 2524.84 446.582C2526.25 443.791 2528.44 441.471 2531.15 439.908C2533.86 438.345 2536.97 437.607 2540.09 437.783C2542.28 437.974 2544.4 438.598 2546.34 439.617C2548.29 440.637 2550.01 442.032 2551.4 443.722C2552.8 445.413 2553.85 447.364 2554.49 449.463C2555.13 451.562 2555.34 453.766 2555.12 455.949Z" fill="#263238"/>
<path d="M2542.82 393.171L2506.89 409.81C2504.76 404.839 2504.64 399.238 2506.54 394.176C2508.44 389.113 2512.23 384.981 2517.1 382.641C2519.48 381.627 2522.03 381.095 2524.62 381.077C2527.21 381.058 2529.77 381.553 2532.16 382.532C2534.55 383.512 2536.73 384.957 2538.56 386.783C2540.39 388.609 2541.84 390.781 2542.82 393.171Z" fill="#263238"/>
<path d="M2547.08 569.367L2583.17 586.086C2582.19 588.527 2580.73 590.743 2578.87 592.602C2577.01 594.46 2574.79 595.922 2572.35 596.899C2569.9 597.875 2567.29 598.347 2564.66 598.284C2562.03 598.222 2559.44 597.627 2557.05 596.536C2552.19 594.184 2548.43 590.036 2546.57 584.966C2544.71 579.897 2544.9 574.304 2547.08 569.367Z" fill="#F28F8F"/>
<path d="M2699.81 418.974L2669.91 392.126C2671.55 390.095 2673.6 388.42 2675.92 387.204C2678.24 385.988 2680.78 385.256 2683.39 385.053C2685.99 384.85 2688.62 385.18 2691.1 386.023C2693.57 386.866 2695.85 388.204 2697.8 389.956C2701.78 393.617 2704.21 398.666 2704.59 404.064C2704.96 409.463 2703.25 414.799 2699.81 418.974Z" fill="#263238"/>
<path d="M2686.79 461.415C2686.74 463.636 2686.24 465.823 2685.32 467.847C2684.4 469.87 2683.09 471.687 2681.45 473.189C2679.81 474.69 2677.89 475.846 2675.8 476.585C2673.7 477.324 2671.48 477.633 2669.26 477.491C2665.9 477.375 2662.64 476.26 2659.91 474.288C2657.19 472.316 2655.1 469.577 2653.94 466.419C2652.77 463.261 2652.57 459.827 2653.36 456.554C2654.15 453.282 2655.9 450.319 2658.38 448.043C2660.86 445.767 2663.96 444.281 2667.29 443.774C2670.62 443.267 2674.03 443.762 2677.07 445.196C2680.12 446.63 2682.67 448.938 2684.4 451.826C2686.13 454.715 2686.96 458.053 2686.79 461.415Z" fill="#263238"/>
<path d="M2603.67 444.615L2601.74 543.002L2654.15 529.337L2603.67 444.615Z" fill="#F28F8F"/>
<path d="M2313.25 1692.37V1702.34C2313.27 1707.32 2314.58 1712.2 2317.06 1716.52C2319.55 1720.83 2323.11 1724.42 2327.4 1726.94L2597.56 1882.39C2601.88 1884.87 2606.77 1886.17 2611.75 1886.17C2616.73 1886.17 2621.62 1884.87 2625.94 1882.39L3121.49 1596.24C3125.79 1593.75 3129.36 1590.18 3131.85 1585.88C3134.33 1581.57 3135.64 1576.69 3135.63 1571.72V1564.81L2611.79 1867.28L2313.25 1692.37Z" fill="#90CAF9"/>
<g opacity="0.5">
<path d="M2313.25 1692.37V1702.34C2313.27 1707.32 2314.58 1712.2 2317.06 1716.52C2319.55 1720.83 2323.11 1724.42 2327.4 1726.94L2597.56 1882.4C2601.88 1884.87 2606.77 1886.17 2611.75 1886.17C2616.73 1886.17 2621.62 1884.87 2625.94 1882.4L3121.49 1596.24C3125.79 1593.75 3129.36 1590.18 3131.85 1585.88C3134.33 1581.57 3135.64 1576.69 3135.63 1571.72V1564.81L2611.79 1867.28L2313.25 1692.37Z" fill="white"/>
</g>
<g opacity="0.1">
<path d="M2313.25 1692.37V1702.34C2313.27 1707.32 2314.58 1712.2 2317.06 1716.52C2319.55 1720.83 2323.11 1724.42 2327.4 1726.94L2597.56 1882.4C2601.88 1884.87 2606.77 1886.17 2611.75 1886.17C2616.73 1886.17 2621.62 1884.87 2625.94 1882.4L3121.49 1596.24C3125.79 1593.75 3129.36 1590.18 3131.85 1585.88C3134.33 1581.57 3135.64 1576.69 3135.63 1571.72V1564.81L2611.79 1867.28L2313.25 1692.37Z" fill="black"/>
</g>
<path d="M3135.63 1564.81L2841.84 1395.2C2839.28 1393.71 2836.37 1392.92 2833.4 1392.92C2830.43 1392.92 2827.52 1393.71 2824.96 1395.2L2315.18 1689.56C2314.62 1689.89 2314.15 1690.37 2313.82 1690.94C2313.49 1691.51 2313.32 1692.16 2313.32 1692.82C2313.32 1693.47 2313.49 1694.12 2313.82 1694.69C2314.15 1695.26 2314.62 1695.74 2315.18 1696.07L2611.79 1867.28L3135.63 1564.81Z" fill="#90CAF9"/>
<g opacity="0.85">
<path d="M3135.63 1564.81L2841.84 1395.2C2839.28 1393.71 2836.37 1392.92 2833.4 1392.92C2830.43 1392.92 2827.52 1393.71 2824.96 1395.2L2315.18 1689.56C2314.62 1689.89 2314.15 1690.37 2313.82 1690.94C2313.49 1691.51 2313.32 1692.16 2313.32 1692.82C2313.32 1693.47 2313.49 1694.12 2313.82 1694.69C2314.15 1695.26 2314.62 1695.74 2315.18 1696.07L2611.79 1867.28L3135.63 1564.81Z" fill="white"/>
</g>
<path d="M2613.64 1839.63L2455.13 1748.24L2913.94 1483.38L3073.26 1574.37L2613.64 1839.63Z" fill="#90CAF9"/>
<g opacity="0.6">
<path d="M2613.64 1839.63L2455.13 1748.24L2913.94 1483.38L3073.26 1574.37L2613.64 1839.63Z" fill="white"/>
</g>
<path d="M2531.17 1588.12L2534.06 1589.81L2611.79 1634.58L2749.88 1554.84L2752.78 1553.23L2672.16 1506.69L2531.17 1588.12Z" fill="#90CAF9"/>
<path d="M2534.06 1589.81L2611.79 1634.58L2749.88 1554.84L2672.16 1509.99L2534.06 1589.81Z" fill="#90CAF9"/>
<g opacity="0.6">
<path d="M2534.06 1589.81L2611.79 1634.58L2749.88 1554.84L2672.16 1509.99L2534.06 1589.81Z" fill="white"/>
</g>
<path d="M2611.79 1867.28V1886.17C2616.75 1886.15 2621.62 1884.85 2625.94 1882.39L3121.49 1596.24C3125.79 1593.75 3129.36 1590.18 3131.85 1585.88C3134.33 1581.57 3135.64 1576.69 3135.63 1571.72V1564.81L2611.79 1867.28Z" fill="#90CAF9"/>
<g opacity="0.03">
<path d="M2611.79 1867.28V1886.17C2616.75 1886.15 2621.62 1884.85 2625.94 1882.39L3121.49 1596.24C3125.79 1593.75 3129.36 1590.18 3131.85 1585.88C3134.33 1581.57 3135.64 1576.69 3135.63 1571.72V1564.81L2611.79 1867.28Z" fill="white"/>
</g>
<g opacity="0.2">
<path d="M2611.79 1867.28V1886.17C2616.75 1886.15 2621.62 1884.85 2625.94 1882.39L3121.49 1596.24C3125.79 1593.75 3129.36 1590.18 3131.85 1585.88C3134.33 1581.57 3135.64 1576.69 3135.63 1571.72V1564.81L2611.79 1867.28Z" fill="black"/>
</g>
<path d="M2619.42 1871.46C2624.11 1873.29 2629.14 1874.04 2634.15 1873.65C2639.16 1873.26 2644.02 1871.74 2648.36 1869.21L3141.9 1584.5C3146.13 1581.99 3149.75 1578.59 3152.53 1574.54C3155.3 1570.48 3157.16 1565.88 3157.98 1561.03L3212.4 1238.86C3212.69 1237.06 3212.83 1235.23 3212.8 1233.4C3212.84 1228.92 3211.99 1224.48 3210.3 1220.34C3208.6 1216.2 3206.09 1212.44 3202.91 1209.28L2690.16 1505.49C2687.03 1507.35 2684.33 1509.86 2682.25 1512.86C2680.17 1515.85 2678.75 1519.26 2678.1 1522.85L2619.42 1871.46Z" fill="#90CAF9"/>
<g opacity="0.4">
<path d="M2619.42 1871.46C2624.11 1873.29 2629.14 1874.04 2634.15 1873.65C2639.16 1873.26 2644.02 1871.74 2648.36 1869.21L3141.9 1584.5C3146.13 1581.99 3149.75 1578.59 3152.53 1574.54C3155.3 1570.48 3157.16 1565.88 3157.98 1561.03L3212.4 1238.86C3212.69 1237.06 3212.83 1235.23 3212.8 1233.4C3212.84 1228.92 3211.99 1224.48 3210.3 1220.34C3208.6 1216.2 3206.09 1212.44 3202.91 1209.28L2690.16 1505.49C2687.03 1507.35 2684.33 1509.86 2682.25 1512.86C2680.17 1515.85 2678.75 1519.26 2678.1 1522.85L2619.42 1871.46Z" fill="white"/>
</g>
<path d="M2611.79 1867.28L2615.17 1869.21C2616.63 1870.09 2618.16 1870.84 2619.75 1871.46L2678.1 1522.85C2678.75 1519.26 2680.17 1515.85 2682.25 1512.86C2684.33 1509.86 2687.03 1507.35 2690.16 1505.49L3202.91 1209.44C3200.85 1207.44 3198.56 1205.68 3196.08 1204.22L2682.28 1500.82C2679.15 1502.69 2676.45 1505.2 2674.37 1508.2C2672.29 1511.19 2670.88 1514.6 2670.23 1518.19L2611.79 1867.28Z" fill="#90CAF9"/>
<g opacity="0.6">
<path d="M2611.79 1867.28L2615.17 1869.21C2616.63 1870.09 2618.16 1870.84 2619.75 1871.46L2678.1 1522.85C2678.75 1519.26 2680.17 1515.85 2682.25 1512.86C2684.33 1509.86 2687.03 1507.35 2690.16 1505.49L3202.91 1209.44C3200.85 1207.44 3198.56 1205.68 3196.08 1204.22L2682.28 1500.82C2679.15 1502.69 2676.45 1505.2 2674.37 1508.2C2672.29 1511.19 2670.88 1514.6 2670.23 1518.19L2611.79 1867.28Z" fill="white"/>
</g>
<path d="M2682.77 1512.16L2674.73 1507.5C2672.41 1510.64 2670.84 1514.27 2670.15 1518.11L2611.71 1867.2L2615.09 1869.13C2616.55 1870.01 2618.08 1870.76 2619.67 1871.38L2678.02 1522.77C2678.76 1518.91 2680.38 1515.28 2682.77 1512.16Z" fill="#90CAF9"/>
<path opacity="0.5" d="M2682.77 1512.16L2674.73 1507.5C2672.41 1510.64 2670.84 1514.27 2670.15 1518.11L2611.71 1867.2L2615.09 1869.13C2616.55 1870.01 2618.08 1870.76 2619.67 1871.38L2678.02 1522.77C2678.76 1518.91 2680.38 1515.28 2682.77 1512.16Z" fill="white"/>
<path opacity="0.1" d="M2682.77 1512.16L2674.73 1507.5C2672.41 1510.64 2670.84 1514.27 2670.15 1518.11L2611.71 1867.2L2615.09 1869.13C2616.55 1870.01 2618.08 1870.76 2619.67 1871.38L2678.02 1522.77C2678.76 1518.91 2680.38 1515.28 2682.77 1512.16Z" fill="black"/>
<path d="M2897.63 1574.13C2901.24 1552.59 2923.51 1523.89 2947.38 1509.83C2971.25 1495.76 2987.57 1502.35 2983.95 1523.97C2980.34 1545.6 2958.07 1574.13 2934.28 1588.28C2910.49 1602.43 2894.01 1595.67 2897.63 1574.13Z" fill="#455A64"/>
<path d="M1676.23 2022.58L1874.61 1454.2H1946.96L1701.95 2032.95C1700.78 2035.69 1698.75 2037.97 1696.17 2039.46C1693.69 2040.87 1690.84 2041.49 1688 2041.22C1685.16 2040.96 1682.47 2039.83 1680.3 2037.99C1678.12 2036.15 1676.57 2033.68 1675.84 2030.92C1675.11 2028.17 1675.25 2025.25 1676.23 2022.58Z" fill="#37474F"/>
<path d="M1906.28 1296.25L2464.77 1739.56C2484.42 1755.17 2500.67 1774.63 2512.53 1796.74C2524.39 1818.86 2531.61 1843.16 2533.74 1868.17L2599.97 2554.3C2600.17 2556.44 2599.74 2558.58 2598.74 2560.48C2597.74 2562.38 2596.22 2563.94 2594.35 2564.99C2592.76 2565.9 2590.98 2566.41 2589.16 2566.48C2587.33 2566.54 2585.52 2566.16 2583.87 2565.37C2582.23 2564.58 2580.8 2563.4 2579.71 2561.93C2578.62 2560.47 2577.91 2558.76 2577.63 2556.95L2468.23 1911.65C2463.95 1886.12 2454.34 1861.78 2440.02 1840.21C2425.7 1818.65 2406.99 1800.34 2385.11 1786.5L1908.69 1485.23C1887.9 1472.08 1870.55 1454.14 1858.11 1432.92C1845.67 1411.69 1838.49 1387.79 1837.18 1363.22C1835.86 1338.65 1840.45 1314.13 1850.56 1291.69C1860.66 1269.26 1876 1249.57 1895.27 1234.28L1906.28 1296.25Z" fill="#455A64"/>
<path opacity="0.2" d="M2016.97 1384.11C2003.84 1407.78 1997.14 1434.46 1997.52 1461.52C1997.24 1469.61 1998.8 1477.67 2002.1 1485.07C2006.85 1493.07 2013.47 1499.8 2021.39 1504.68C2052.9 1526.79 2089.23 1540.77 2125.16 1554.6C2183.04 1576.86 2247.58 1594.79 2302 1610.87L2016.97 1384.11Z" fill="black"/>
<path d="M1831.05 1722.11C1823.09 1740.57 1822.18 1761.31 1828.49 1780.39C1834.8 1799.47 1847.89 1815.58 1865.29 1825.65L2435.43 2155.21C2442.75 2159.39 2451.11 2161.42 2459.53 2161.04C2467.96 2160.67 2476.1 2157.92 2483.03 2153.11C2489.95 2148.3 2495.37 2141.62 2498.65 2133.85C2501.94 2126.09 2502.96 2117.55 2501.59 2109.23L2545.39 2367.58C2541.46 2345.09 2532.69 2323.72 2519.69 2304.95C2506.68 2286.19 2489.76 2270.48 2470.08 2258.9L1836.27 1893C1828.33 1888.42 1819.51 1885.56 1810.39 1884.63C1801.27 1883.69 1792.05 1884.69 1783.34 1887.57C1774.64 1890.45 1766.64 1895.13 1759.87 1901.32C1753.1 1907.51 1747.72 1915.06 1744.07 1923.47L1831.05 1722.11Z" fill="#37474F"/>
<path d="M2635.5 1673.48C2624.97 1656.36 2525.38 1552.35 2512.84 1544.31C2485.99 1526.23 2452.72 1529.68 2415.9 1513.04C2382.38 1497.93 2365.58 1480.25 2290.26 1432.1C2218.73 1386.36 2173.95 1356.06 2173.95 1356.06L2268.08 1060.17C2329.09 939.121 2284.72 804.562 2239.3 768.712C2183.04 781.011 2144.61 796.122 2109.25 922.401C2087.54 999.969 2014.96 1238.78 2000.25 1319.24C1982.73 1415.7 1979.51 1439.82 2064.55 1482.02C2151.77 1525.34 2319.6 1590.69 2347.74 1602.59C2375.87 1614.48 2384.23 1630.64 2404 1641.89C2418.59 1650.41 2434.03 1657.39 2450.06 1662.71C2468.71 1669.4 2486.12 1679.12 2501.59 1691.49C2505.61 1694.7 2509.63 1697.92 2514.05 1700.81C2540.01 1718.66 2566.13 1732.4 2598.13 1722.28C2633.33 1711.1 2645.71 1690.52 2635.5 1673.48Z" fill="#FFA8A7"/>
<path d="M2265.19 756.977C2178.29 767.024 2140.51 795.72 2109.25 889.606C2077.98 983.491 2022.76 1187.5 2022.76 1187.5C2022.76 1187.5 2119.21 1272.46 2221.38 1264.1L2289.3 1028.34C2289.3 1028.34 2380.45 834.786 2265.19 756.977Z" fill="#455A64"/>
<path d="M1185.26 2295.47C1095.88 2203.44 1043.31 1827.74 1130.53 1754.59H1574.47C1661.68 1827.74 1609.2 2203.04 1519.89 2295.31L1517.4 2297.89L1514.35 2300.94C1511.8 2303.49 1509.11 2305.91 1506.31 2308.17C1505.65 2308.78 1504.95 2309.34 1504.22 2309.86C1502.05 2311.63 1499.88 2313.4 1497.47 2315.09C1493.76 2317.79 1489.9 2320.25 1485.89 2322.48C1412.34 2365.49 1292.98 2365.49 1219.59 2322.48C1215.57 2320.21 1211.67 2317.71 1207.93 2315.01C1205.68 2313.4 1203.67 2311.79 1201.66 2310.18L1199.01 2308.09C1196.2 2305.84 1193.62 2303.43 1190.97 2301.1C1189.77 2299.98 1188.56 2298.77 1187.44 2297.56C1186.31 2296.36 1185.91 2296.2 1185.26 2295.47Z" fill="#90CAF9"/>
<g opacity="0.5">
<path d="M1185.26 2295.47C1095.88 2203.44 1043.31 1827.73 1130.53 1754.59H1574.47C1661.68 1827.73 1609.2 2203.03 1519.89 2295.31L1517.4 2297.88L1514.35 2300.94C1511.8 2303.49 1509.11 2305.91 1506.31 2308.17C1505.65 2308.78 1504.95 2309.34 1504.22 2309.86C1502.05 2311.63 1499.88 2313.4 1497.47 2315.09C1493.76 2317.78 1489.9 2320.25 1485.89 2322.48C1412.34 2365.48 1292.98 2365.48 1219.59 2322.48C1215.57 2320.21 1211.67 2317.71 1207.93 2315.01C1205.68 2313.4 1203.67 2311.79 1201.66 2310.18L1199.01 2308.09C1196.2 2305.84 1193.62 2303.43 1190.97 2301.1C1189.77 2299.97 1188.56 2298.77 1187.44 2297.56C1186.31 2296.36 1185.91 2296.2 1185.26 2295.47Z" fill="white"/>
</g>
<path d="M1535.73 1725.09C1637.01 1784.17 1637.01 1880.06 1535.73 1939.14C1434.45 1998.22 1270.47 1998.22 1169.11 1939.14C1067.75 1880.06 1067.91 1784.17 1169.11 1725.09C1270.31 1666.01 1434.53 1666.01 1535.73 1725.09Z" fill="#90CAF9"/>
<g opacity="0.7">
<path d="M1535.73 1725.09C1637.01 1784.17 1637.01 1880.06 1535.73 1939.14C1434.45 1998.22 1270.47 1998.22 1169.11 1939.14C1067.75 1880.06 1067.91 1784.17 1169.11 1725.09C1270.31 1666.01 1434.53 1666.01 1535.73 1725.09Z" fill="white"/>
</g>
<path d="M1487.02 1753.3C1561.37 1796.71 1561.37 1867.04 1487.02 1910.45C1412.66 1953.85 1292.17 1953.85 1217.82 1910.45C1143.47 1867.04 1143.47 1796.71 1217.82 1753.3C1292.17 1709.9 1412.66 1710.14 1487.02 1753.3Z" fill="#90CAF9"/>
<g opacity="0.3">
<path d="M1487.02 1753.3C1561.37 1796.71 1561.37 1867.04 1487.02 1910.45C1412.66 1953.85 1292.17 1953.85 1217.82 1910.45C1143.47 1867.04 1143.47 1796.71 1217.82 1753.3C1292.17 1709.9 1412.66 1710.14 1487.02 1753.3Z" fill="black"/>
</g>
<path d="M1217.82 1828.14C1292.17 1784.73 1412.66 1784.73 1487.02 1828.14C1505.05 1837.98 1520.35 1852.15 1531.55 1869.37C1520.38 1886.64 1505.07 1900.84 1487.02 1910.69C1412.66 1954.09 1292.17 1954.09 1217.82 1910.69C1199.77 1900.84 1184.46 1886.64 1173.29 1869.37C1184.49 1852.15 1199.79 1837.98 1217.82 1828.14Z" fill="#F5F5F5"/>
<path d="M1316.05 1638.68C1310.85 1628.52 1307.06 1617.71 1304.79 1606.53C1299.81 1579.52 1306.56 1548.49 1328.42 1531.85C1337.1 1525.26 1348.44 1520.36 1352.54 1510.07C1354.07 1504.22 1354.07 1498.07 1352.54 1492.22C1348.44 1469.07 1340.64 1445.36 1347.07 1422.85C1350.52 1412.58 1356.09 1403.14 1363.41 1395.15C1370.74 1387.17 1379.66 1380.8 1389.59 1376.47C1409.67 1368.21 1430.8 1362.8 1452.37 1360.4C1464.09 1359.14 1475.49 1355.82 1486.05 1350.59C1498.43 1343.6 1502.13 1331.38 1510.17 1320.61C1519.15 1308.84 1529.36 1298.06 1540.63 1288.46C1563.22 1268.28 1591.51 1251.64 1622.78 1253.01C1688.05 1255.9 1686.2 1312.09 1667.31 1354.61C1648.42 1397.13 1643.2 1410.88 1684.35 1455.41C1725.51 1499.94 1725.19 1554.44 1676.31 1585.06C1627.44 1615.69 1595.93 1619.71 1615.22 1678.63C1632.43 1731.28 1643.12 1776.21 1594.49 1832.4C1563.06 1868.81 1520.05 1894.69 1465.88 1892.52C1444.3 1890.81 1423.11 1885.85 1403.02 1877.81C1388.23 1870.5 1398.19 1859 1393.21 1844.37C1382.49 1813.03 1371.78 1781.65 1361.06 1750.25C1353.02 1726.13 1346.43 1699.04 1335.42 1676.06C1329.39 1662.79 1322.15 1651.06 1316.05 1638.68Z" fill="#90CAF9"/>
<g opacity="0.15">
<path d="M1316.05 1638.68C1310.85 1628.52 1307.06 1617.71 1304.79 1606.53C1299.81 1579.52 1306.56 1548.49 1328.42 1531.85C1337.1 1525.26 1348.44 1520.36 1352.54 1510.07C1354.07 1504.22 1354.07 1498.07 1352.54 1492.22C1348.44 1469.07 1340.64 1445.36 1347.07 1422.85C1350.52 1412.58 1356.09 1403.14 1363.41 1395.15C1370.74 1387.17 1379.66 1380.8 1389.59 1376.47C1409.67 1368.21 1430.8 1362.8 1452.37 1360.4C1464.09 1359.14 1475.49 1355.82 1486.05 1350.59C1498.43 1343.6 1502.13 1331.38 1510.17 1320.61C1519.15 1308.84 1529.36 1298.06 1540.63 1288.46C1563.22 1268.28 1591.51 1251.64 1622.78 1253.01C1688.05 1255.9 1686.2 1312.09 1667.31 1354.61C1648.42 1397.13 1643.2 1410.88 1684.35 1455.41C1725.51 1499.94 1725.19 1554.44 1676.31 1585.06C1627.44 1615.69 1595.93 1619.71 1615.22 1678.63C1632.43 1731.28 1643.12 1776.21 1594.49 1832.4C1563.06 1868.81 1520.05 1894.69 1465.88 1892.52C1444.3 1890.81 1423.11 1885.85 1403.02 1877.81C1388.23 1870.5 1398.19 1859 1393.21 1844.37C1382.49 1813.03 1371.78 1781.65 1361.06 1750.25C1353.02 1726.13 1346.43 1699.04 1335.42 1676.06C1329.39 1662.79 1322.15 1651.06 1316.05 1638.68Z" fill="black"/>
</g>
<path d="M1404.79 1877.25C1405.74 1876.94 1406.58 1876.32 1407.16 1875.5C1407.74 1874.67 1408.03 1873.68 1408 1872.67C1405.27 1550.26 1582.91 1357.83 1584.84 1355.9C1585.73 1354.98 1586.23 1353.76 1586.23 1352.48C1586.23 1351.21 1585.73 1349.98 1584.84 1349.06C1584.4 1348.61 1583.87 1348.24 1583.28 1347.99C1582.69 1347.74 1582.06 1347.61 1581.42 1347.61C1580.79 1347.61 1580.15 1347.74 1579.57 1347.99C1578.98 1348.24 1578.45 1348.61 1578.01 1349.06C1576.16 1350.99 1395.86 1546.08 1398.68 1872.59C1398.69 1873.35 1398.88 1874.09 1399.23 1874.76C1399.58 1875.43 1400.09 1876.01 1400.71 1876.45C1401.33 1876.89 1402.04 1877.17 1402.79 1877.29C1403.54 1877.4 1404.31 1877.33 1405.03 1877.09L1404.79 1877.25Z" fill="white"/>
<path d="M1456.55 1577.43L1457.52 1576.95C1515.31 1540.53 1618.28 1513.44 1619.48 1513.12C1620.1 1512.96 1620.68 1512.69 1621.19 1512.3C1621.7 1511.92 1622.13 1511.44 1622.46 1510.89C1622.78 1510.34 1622.99 1509.74 1623.08 1509.11C1623.17 1508.48 1623.14 1507.83 1622.98 1507.22C1622.82 1506.6 1622.54 1506.02 1622.16 1505.51C1621.78 1505 1621.3 1504.57 1620.75 1504.24C1620.2 1503.92 1619.6 1503.71 1618.96 1503.62C1618.33 1503.53 1617.69 1503.56 1617.07 1503.72C1612.81 1504.84 1511.45 1531.53 1452.37 1568.67C1451.29 1569.37 1450.53 1570.47 1450.24 1571.73C1449.96 1572.99 1450.18 1574.31 1450.84 1575.42C1451.43 1576.34 1452.32 1577.04 1453.35 1577.41C1454.39 1577.77 1455.51 1577.78 1456.55 1577.43Z" fill="white"/>
<path d="M1474.4 1533.22C1475.57 1532.71 1476.49 1531.75 1476.97 1530.57C1477.46 1529.38 1477.45 1528.05 1476.97 1526.87C1463.54 1494.59 1445.6 1464.39 1423.67 1437.16C1423.27 1436.68 1422.78 1436.28 1422.22 1435.98C1421.66 1435.69 1421.05 1435.52 1420.42 1435.46C1419.79 1435.41 1419.16 1435.48 1418.56 1435.68C1417.96 1435.87 1417.4 1436.19 1416.92 1436.6C1415.95 1437.44 1415.35 1438.62 1415.25 1439.9C1415.14 1441.18 1415.54 1442.45 1416.36 1443.43C1437.55 1469.95 1454.97 1499.27 1468.13 1530.57C1468.62 1531.73 1469.56 1532.66 1470.73 1533.16C1471.89 1533.65 1473.21 1533.67 1474.4 1533.22Z" fill="white"/>
<path d="M1371.91 1900.64C1326.02 1914.88 1277.17 1916.68 1230.36 1905.87C1149.17 1888.26 1099.5 1812.46 1099.5 1812.46C1099.5 1812.46 1187.35 1777.26 1238.56 1773.8C1238.56 1773.8 1159.06 1760.3 1084.71 1777.18C1084.71 1777.18 1037.68 1759.65 1046.61 1680.24C1046.61 1680.24 1090.82 1647.6 1192.66 1660.38C1192.66 1660.38 1141.62 1623.97 1052.15 1613.2C1045.16 1613.2 1054.64 1509.91 1063.17 1463.77C1071.69 1417.63 1088.65 1424.86 1125.22 1428.8C1161.79 1432.74 1269.91 1457.42 1283.73 1483.94C1297.56 1510.47 1283.73 1578.15 1283.73 1578.15C1302.55 1552.45 1312.99 1521.58 1313.63 1489.73C1313.63 1489.73 1354.31 1504.68 1376.09 1523.89C1392.47 1537.1 1405.78 1553.73 1415.07 1572.61C1410.01 1608.94 1392.89 1664.32 1368.94 1695.19C1368.94 1695.19 1422.87 1660.38 1435.25 1596.24C1435.25 1596.24 1478.33 1651.3 1477.93 1722.44C1478.01 1803.46 1441.76 1863.67 1371.91 1900.64Z" fill="#90CAF9"/>
<path d="M1370.22 1904.98C1369.42 1904.64 1368.72 1904.09 1368.21 1903.38C1367.7 1902.67 1367.39 1901.83 1367.33 1900.96C1355.03 1747.19 1182.93 1507.09 1106.81 1458.87C1105.77 1458.2 1105.03 1457.16 1104.76 1455.95C1104.49 1454.74 1104.7 1453.48 1105.37 1452.44C1105.68 1451.91 1106.09 1451.46 1106.58 1451.1C1107.07 1450.74 1107.63 1450.48 1108.22 1450.34C1108.81 1450.2 1109.42 1450.18 1110.02 1450.27C1110.62 1450.37 1111.2 1450.59 1111.72 1450.91C1189.04 1500.02 1364.03 1744.22 1376.49 1900.48C1376.55 1901.09 1376.48 1901.71 1376.29 1902.3C1376.11 1902.88 1375.81 1903.43 1375.42 1903.9C1375.02 1904.37 1374.53 1904.76 1373.99 1905.04C1373.44 1905.32 1372.84 1905.49 1372.23 1905.54C1371.53 1905.48 1370.85 1905.29 1370.22 1904.98Z" fill="white"/>
</g>
<defs>
<filter id="filter0_f_2109_17574" x="1077.44" y="239.443" width="5261.11" height="4291.11" filterUnits="userSpaceOnUse" color-interpolation-filters="sRGB">
<feFlood flood-opacity="0" result="BackgroundImageFix"/>
<feBlend mode="normal" in="SourceGraphic" in2="BackgroundImageFix" result="shape"/>
<feGaussianBlur stdDeviation="284.278" result="effect1_foregroundBlur_2109_17574"/>
</filter>
<linearGradient id="paint0_linear_2109_17574" x1="3708" y1="808" x2="3708" y2="3962" gradientUnits="userSpaceOnUse">
<stop stop-color="#16B6F0" stop-opacity="0.36"/>
<stop offset="1" stop-color="#1653F0" stop-opacity="0.6"/>
</linearGradient>
<linearGradient id="paint1_linear_2109_17574" x1="1049.5" y1="3665.68" x2="1049.5" y2="6441.82" gradientUnits="userSpaceOnUse">
<stop stop-color="#EAF0FF" stop-opacity="0.05"/>
<stop offset="1" stop-color="#EAF0FF"/>
</linearGradient>
<clipPath id="clip0_2109_17574">
<rect width="5371" height="3529" fill="white"/>
</clipPath>
</defs>
</svg>
