<svg width="5371" height="3529" viewBox="0 0 5371 3529" fill="none" xmlns="http://www.w3.org/2000/svg">
<g clip-path="url(#clip0_2108_1261)">
<rect width="5371" height="3529" fill="#EAF0FF"/>
<g filter="url(#filter0_f_2108_1261)">
<ellipse cx="3708" cy="2385" rx="2062" ry="1577" fill="url(#paint0_linear_2108_1261)" fill-opacity="0.5"/>
</g>
<rect y="589" width="2099" height="6141" fill="url(#paint1_linear_2108_1261)"/>
<path d="M1264.6 812.409C1256.74 804.268 1243.08 796.741 1219.38 796.128C1166.14 794.845 1180.35 832.538 1166.14 841.626C1151.92 850.715 1147.96 836.441 1133.63 845.529C1119.3 854.618 1125.82 872.795 1114.17 875.415C1102.52 878.036 1086.9 863.706 1072.57 872.795C1058.24 881.883 1058.3 889.522 1051.78 889.522C1045.25 889.522 1032.32 884.336 1024.51 889.522C1016.7 894.707 1007.78 901.231 1007.78 901.231H1147.18" stroke="#263238" stroke-linecap="round" stroke-linejoin="round"/>
<path d="M1279.27 835.66L1275.25 833.82C1274.63 828.964 1273 824.291 1270.46 820.104" stroke="#263238" stroke-linecap="round" stroke-linejoin="round"/>
<path d="M1164.96 901.287H1336.31C1336.31 901.287 1340.21 889.578 1325.94 881.772C1311.66 873.966 1305.14 880.489 1299.95 873.966C1294.77 867.442 1310.27 854.172 1286.07 839.229" stroke="#263238" stroke-linecap="round" stroke-linejoin="round"/>
<path d="M2873.27 1230.87C2865.35 1222.67 2851.69 1215.15 2828 1214.59C2774.75 1213.31 2788.97 1250.94 2774.75 1260.03C2760.53 1269.12 2756.57 1254.85 2742.3 1263.93C2728.02 1273.02 2734.49 1291.26 2722.78 1293.82C2711.07 1296.39 2695.52 1282.11 2681.24 1291.26C2666.97 1300.4 2666.91 1307.98 2660.44 1307.98C2653.98 1307.98 2640.93 1302.8 2633.18 1307.98C2625.43 1313.17 2616.45 1319.69 2616.45 1319.69H2755.85" stroke="#263238" stroke-linecap="round" stroke-linejoin="round"/>
<path d="M2887.94 1254.12L2883.87 1252.28C2883.25 1247.42 2881.61 1242.75 2879.07 1238.56" stroke="#263238" stroke-linecap="round" stroke-linejoin="round"/>
<path d="M2773.63 1319.8H2944.92C2944.92 1319.8 2948.82 1308.09 2934.55 1300.34C2920.28 1292.59 2913.75 1299.01 2908.57 1292.54C2903.38 1286.07 2918.88 1272.74 2894.68 1257.8" stroke="#263238" stroke-linecap="round" stroke-linejoin="round"/>
<path d="M4008.56 652.886C3994.39 638.165 3969.53 624.616 3927.04 623.557C3831.02 621.215 3856.56 689.407 3831.02 705.521C3805.49 721.635 3798.24 696.154 3772.48 712.546C3746.72 728.939 3758.43 761.725 3737.41 766.408C3716.39 771.092 3688.23 745.165 3662.47 761.892C3636.71 778.619 3636.71 792.336 3625 792.336C3613.29 792.336 3589.87 782.968 3575.82 792.336C3561.77 801.703 3545.38 813.412 3545.38 813.412H3796.79" stroke="#263238" stroke-linecap="round" stroke-linejoin="round"/>
<path d="M4034.98 694.982C4032.7 693.867 4030.3 692.751 4027.74 691.636C4026.6 682.892 4023.66 674.48 4019.09 666.936" stroke="#263238" stroke-linecap="round" stroke-linejoin="round"/>
<path d="M3828.96 813.244H4137.75C4137.75 813.244 4144.77 792.167 4119.01 778.116C4093.25 764.065 4081.6 775.774 4072.23 764.065C4063.87 753.638 4090.8 728.38 4047.2 701.449" stroke="#263238" stroke-linecap="round" stroke-linejoin="round"/>
<path d="M2145.52 901.621H2485.2C2485.2 901.621 2496.79 866.883 2454.31 843.744C2411.82 820.605 2392.58 839.897 2377.14 820.605C2361.69 801.312 2419.63 751.13 2303.87 701.004C2303.87 701.004 2296.12 592.946 2137.94 589.098C2069.69 587.425 2038.8 607.331 2022.3 632.645" stroke="#263238" stroke-linecap="round" stroke-linejoin="round"/>
<path d="M2041.87 901.621H2098.41" stroke="#263238" stroke-linecap="round" stroke-linejoin="round"/>
<path d="M2001.72 685.949C1996.87 702.398 1991.63 716.616 1979.75 724.143C1937.32 751.13 1925.78 708.698 1883.29 735.741C1840.8 762.783 1860.43 816.757 1825.47 824.452C1790.51 832.146 1744.4 789.77 1701.97 816.757C1659.54 843.744 1659.54 866.939 1640.24 866.939C1620.95 866.939 1582.37 851.55 1559.23 866.939C1536.09 882.328 1509.05 901.676 1509.05 901.676H1942.9" stroke="#263238" stroke-linecap="round" stroke-linejoin="round"/>
<path d="M4265.6 1865.84L4464.49 1464.16L4524.2 1493.71L4509.99 1271.74L4324.87 1395.02L4384.59 1424.57L4185.64 1826.25" stroke="#263238" stroke-linecap="round" stroke-linejoin="round"/>
<path d="M4168.58 1255.85L4293.92 1002.71L4331.56 1021.33L4322.64 881.436L4205.94 959.106L4243.57 977.729L4118.23 1230.93" stroke="#263238" stroke-linecap="round" stroke-linejoin="round"/>
<path d="M2885.43 820.438C2912.32 758.696 2962.47 710.041 3024.99 685.017C3087.52 659.993 3157.39 660.617 3219.45 686.753C3281.52 712.889 3330.79 762.432 3356.58 824.645C3382.37 886.857 3382.6 956.727 3357.23 1019.11C3331.86 1081.5 3282.93 1131.37 3221.04 1157.92C3159.15 1184.47 3089.28 1185.57 3026.59 1160.96C2963.9 1136.36 2913.43 1088.04 2886.12 1026.48C2858.81 964.923 2856.86 895.08 2880.69 832.091" stroke="#263238" stroke-miterlimit="10"/>
<path d="M2882.53 819.379C2909.73 756.897 2960.45 707.651 3023.71 682.317C3086.97 656.983 3157.67 657.602 3220.48 684.039C3283.29 710.476 3333.14 760.601 3359.24 823.55C3385.34 886.498 3385.58 957.197 3359.91 1020.32C3334.24 1083.44 3284.72 1133.91 3222.1 1160.77C3159.47 1187.63 3088.78 1188.73 3025.35 1163.83C2961.92 1138.92 2910.86 1090.02 2883.24 1027.73C2855.61 965.433 2853.66 894.761 2877.79 831.032" stroke="#263238" stroke-width="0.5" stroke-miterlimit="10"/>
<path d="M2950.22 844.915C2970.83 799.375 3008.51 763.759 3055.14 745.747C3101.77 727.734 3153.61 728.768 3199.48 748.626C3245.35 768.484 3281.59 805.574 3300.36 851.9C3319.14 898.225 3318.96 950.075 3299.86 996.269C3280.76 1042.46 3244.27 1079.3 3198.26 1098.84C3152.25 1118.38 3100.41 1119.05 3053.91 1100.72C3007.4 1082.38 2969.97 1046.5 2949.68 1000.82C2929.38 955.138 2927.85 903.31 2945.42 856.512" stroke="#263238" stroke-miterlimit="10"/>
<path d="M2947.32 843.8C2966.89 800.716 3001.71 766.393 3045.06 747.431C3088.42 728.47 3137.26 726.211 3182.18 741.088C3227.1 755.965 3264.94 786.927 3288.4 828.019C3311.87 869.111 3319.32 917.43 3309.31 963.68C3299.3 1009.93 3272.54 1050.85 3234.18 1078.56C3195.82 1106.27 3148.56 1118.81 3101.51 1113.78C3054.46 1108.75 3010.93 1086.5 2979.29 1051.31C2947.66 1016.11 2930.15 970.465 2930.14 923.143C2930.1 899.995 2934.3 877.034 2942.52 855.397" stroke="#263238" stroke-width="0.5" stroke-miterlimit="10"/>
<path d="M3032.85 876.361C3044.98 853.565 3065.51 836.384 3090.08 828.454C3114.66 820.524 3141.36 822.468 3164.52 833.873C3187.69 845.279 3205.51 865.252 3214.21 889.565C3222.92 913.878 3221.82 940.622 3211.15 964.139C3200.48 987.655 3181.08 1006.1 3157.05 1015.56C3133.03 1025.03 3106.26 1024.77 3082.42 1014.85C3058.58 1004.93 3039.53 986.125 3029.31 962.41C3019.09 938.695 3018.5 911.935 3027.66 887.792V887.29" stroke="#263238" stroke-miterlimit="10"/>
<path d="M3028.84 877.366L3030.01 875.025C3041.78 852.583 3061.37 835.23 3085.07 826.244C3108.76 817.258 3134.93 817.26 3158.63 826.25C3182.32 835.24 3201.91 852.596 3213.68 875.04C3225.45 897.483 3228.6 923.461 3222.53 948.066C3216.45 972.672 3201.58 994.202 3180.72 1008.59C3159.85 1022.98 3134.44 1029.23 3109.29 1026.16C3084.13 1023.09 3060.97 1010.92 3044.17 991.941C3027.38 972.961 3018.11 948.488 3018.13 923.144C3018.11 910.627 3020.38 898.212 3024.82 886.511" stroke="#263238" stroke-width="0.5" stroke-miterlimit="10"/>
<path d="M3034.52 876.697H3033.69L3032.96 876.418L3030.06 875.303L2950.27 845.193L2947.37 844.078L2885.48 820.716L2882.58 819.656L2782.89 782.02L2787.79 745.22C2787.89 744.546 2787.76 743.86 2787.43 743.266C2787.09 742.672 2786.58 742.203 2785.95 741.93L2707.06 706.134C2706.5 705.888 2705.87 705.81 2705.27 705.909C2704.66 706.009 2704.1 706.281 2703.65 706.694C2703.19 707.106 2702.87 707.642 2702.71 708.235C2702.55 708.828 2702.57 709.454 2702.76 710.037L2718.77 757.431L2707 752.97C2706.22 752.623 2705.37 752.439 2704.52 752.429C2703.66 752.42 2702.81 752.585 2702.02 752.915C2701.23 753.245 2700.51 753.733 2699.92 754.348C2699.32 754.964 2698.86 755.695 2698.56 756.496C2698.25 757.297 2698.11 758.151 2698.15 759.007C2698.19 759.863 2698.4 760.702 2698.77 761.473C2699.15 762.244 2699.67 762.931 2700.32 763.492C2700.97 764.053 2701.72 764.476 2702.54 764.735L2714.81 769.363L2678.01 797.632C2677.52 798.008 2677.15 798.522 2676.95 799.108C2676.75 799.693 2676.73 800.325 2676.89 800.922C2677.04 801.515 2677.37 802.05 2677.82 802.458C2678.28 802.865 2678.85 803.126 2679.46 803.208L2767.83 816.813H2768.28C2768.92 816.813 2769.54 816.622 2770.07 816.264C2770.59 815.906 2771 815.398 2771.23 814.805L2779.54 793.729L2877.79 830.808L2880.69 831.867L2942.52 855.174L2945.42 856.289L3024.88 886.287L3027.78 887.346L3030.12 888.239" stroke="#263238" stroke-miterlimit="10"/>
<path d="M3032.85 876.362H3033.69H3034.52L3091.34 897.829L3097.58 879.094C3097.99 877.849 3098.79 876.764 3099.85 875.993C3100.91 875.222 3102.18 874.805 3103.5 874.801C3104.82 874.825 3106.11 875.27 3107.17 876.071C3108.24 876.872 3109.02 877.989 3109.41 879.261L3120.56 916.173C3120.98 917.594 3120.9 919.118 3120.32 920.482C3119.74 921.847 3118.7 922.965 3117.38 923.645L3088.94 937.807C3088.08 938.245 3087.12 938.474 3086.15 938.476C3084.64 938.485 3083.18 937.951 3082.03 936.971C3081.1 936.145 3080.43 935.068 3080.11 933.87C3079.78 932.673 3079.81 931.406 3080.19 930.224L3087.1 910.095L3030.12 888.461C3029.31 888.166 3028.59 887.689 3028 887.067" stroke="#263238" stroke-miterlimit="10"/>
<path d="M1444.37 1539.49L1494.55 1550.64L1506.15 1499.79L1458.03 1488.64C1458.03 1487.24 1458.03 1485.79 1458.03 1484.34C1458.06 1468.9 1454.95 1453.61 1448.88 1439.4L1487.91 1408.29L1455.41 1367.53L1418.27 1397.53C1405.18 1386.17 1389.68 1377.94 1372.94 1373.44V1325.04H1320.81V1371.77C1303.6 1375.11 1287.4 1382.38 1273.47 1393.01L1235.72 1362.9L1203.22 1403.66L1240.07 1433.05C1232.26 1448.5 1228.07 1465.53 1227.8 1482.84L1179.8 1493.99L1191.39 1544.84L1238.73 1534.03C1245.91 1549.29 1256.34 1562.8 1269.29 1573.61L1246.99 1619.39L1293.99 1642.03L1315.68 1596.98C1331.7 1600.92 1348.39 1601.32 1364.58 1598.15L1386.88 1644.82L1433.89 1622.18L1412.03 1576.79C1425.37 1566.83 1436.4 1554.11 1444.37 1539.49ZM1291.7 1484.79C1291.7 1474.67 1294.7 1464.77 1300.33 1456.35C1305.95 1447.94 1313.95 1441.38 1323.3 1437.5C1332.65 1433.63 1342.95 1432.61 1352.87 1434.59C1362.8 1436.56 1371.92 1441.44 1379.08 1448.6C1386.24 1455.76 1391.12 1464.88 1393.09 1474.81C1395.07 1484.73 1394.05 1495.03 1390.18 1504.38C1386.3 1513.73 1379.74 1521.73 1371.33 1527.35C1362.91 1532.97 1353.01 1535.98 1342.89 1535.98C1336.17 1535.98 1329.51 1534.65 1323.3 1532.08C1317.09 1529.51 1311.45 1525.74 1306.69 1520.98C1301.94 1516.23 1298.17 1510.59 1295.6 1504.38C1293.03 1498.17 1291.7 1491.51 1291.7 1484.79Z" stroke="#263238" stroke-linecap="round" stroke-linejoin="round"/>
<path d="M4487.35 2058.82L4521.31 2066.57L4529.17 2032.11L4496.55 2024.64C4496.55 2023.69 4496.55 2022.69 4496.55 2021.74C4496.57 2011.26 4494.49 2000.89 4490.42 1991.24L4516.84 1970.16L4494.54 1942.28L4469.9 1962.69C4461.03 1954.99 4450.52 1949.43 4439.17 1946.41V1913.46H4403.54V1945.07C4391.89 1947.37 4380.93 1952.31 4371.48 1959.51L4345.89 1939.11L4323.59 1966.98L4348.57 1986.89C4343.3 1997.27 4340.46 2008.71 4340.26 2020.34L4308.2 2027.59L4316.06 2062.05L4348.18 2054.75C4353.04 2065.08 4360.1 2074.23 4368.86 2081.57L4353.92 2112.57L4385.76 2127.9L4400.48 2097.35C4406.46 2098.85 4412.6 2099.61 4418.77 2099.63C4423.74 2099.61 4428.71 2099.12 4433.6 2098.18L4448.82 2129.8L4480.71 2114.46L4465.88 2083.74C4474.71 2077.03 4482.02 2068.54 4487.35 2058.82ZM4383.86 2022.02C4383.86 2015.16 4385.9 2008.45 4389.71 2002.75C4393.52 1997.05 4398.93 1992.6 4405.27 1989.98C4411.61 1987.35 4418.58 1986.66 4425.31 1988C4432.04 1989.34 4438.22 1992.64 4443.07 1997.49C4447.92 2002.34 4451.22 2008.52 4452.56 2015.25C4453.9 2021.98 4453.21 2028.95 4450.59 2035.29C4447.96 2041.63 4443.52 2047.04 4437.81 2050.85C4432.11 2054.66 4425.4 2056.7 4418.54 2056.7C4409.35 2056.7 4400.52 2053.04 4394.02 2046.54C4387.52 2040.04 4383.86 2031.22 4383.86 2022.02Z" stroke="#263238" stroke-linecap="round" stroke-linejoin="round"/>
<path d="M1540.44 1289.58L1581.59 1298.95L1591.07 1257.24L1551.59 1248.27C1551.59 1247.1 1551.59 1245.93 1551.59 1244.75C1551.67 1232.12 1549.18 1219.6 1544.29 1207.95L1576.35 1182.42L1549.69 1148.96L1519.03 1173.38C1508.28 1164.09 1495.56 1157.34 1481.84 1153.65V1113.78H1439.07V1152.2C1424.89 1154.93 1411.53 1160.9 1400.04 1169.65L1369.04 1144.95L1342.39 1178.4L1372.61 1202.49C1366.22 1215.16 1362.79 1229.12 1362.57 1243.3L1323.15 1252.34L1332.68 1294.04L1371.71 1285.18C1377.59 1297.69 1386.14 1308.77 1396.75 1317.63L1378.63 1355.15L1417.21 1373.72L1435 1336.75C1442.3 1338.56 1449.79 1339.47 1457.3 1339.49C1463.33 1339.48 1469.34 1338.9 1475.26 1337.76L1493.66 1376.01L1532.24 1357.44L1514.29 1320.25C1525.12 1312.05 1534.05 1301.58 1540.44 1289.58ZM1415.26 1244.98C1415.25 1236.67 1417.7 1228.55 1422.31 1221.64C1426.92 1214.72 1433.47 1209.33 1441.14 1206.15C1448.81 1202.96 1457.26 1202.12 1465.4 1203.74C1473.55 1205.35 1481.04 1209.34 1486.92 1215.21C1492.79 1221.08 1496.8 1228.56 1498.42 1236.71C1500.05 1244.86 1499.22 1253.3 1496.04 1260.98C1492.87 1268.65 1487.48 1275.21 1480.58 1279.83C1473.67 1284.44 1465.55 1286.91 1457.25 1286.91C1451.72 1286.91 1446.25 1285.82 1441.14 1283.7C1436.04 1281.57 1431.4 1278.47 1427.5 1274.55C1423.6 1270.63 1420.51 1265.99 1418.41 1260.87C1416.31 1255.76 1415.24 1250.28 1415.26 1244.75V1244.98Z" stroke="#263238" stroke-linecap="round" stroke-linejoin="round"/>
<path d="M3771.53 2716.48C3771.53 2716.48 3736.9 2738.78 3729.99 2744.36C3723.08 2749.93 3691.24 2756.85 3695.42 2766.66C3699.6 2776.48 3739.69 2781.88 3750.79 2781.88C3761.88 2781.88 3804.71 2759.58 3815.8 2757.02C3826.9 2754.45 3826.95 2741.79 3822.72 2732.09C3818.14 2723.58 3812.52 2715.68 3805.99 2708.56L3776.94 2716.87L3771.53 2716.48Z" fill="white" stroke="#263238" stroke-linecap="round" stroke-linejoin="round"/>
<path d="M4164.51 2712.69C4164.51 2712.69 4138.19 2744.53 4134.07 2751.44C4129.94 2758.35 4106.19 2769.39 4106.19 2780.49C4106.19 2791.59 4146.33 2786.07 4158.77 2784.62C4166.25 2783.45 4173.37 2780.61 4179.6 2776.3C4185.83 2772 4191 2766.34 4194.73 2759.75C4201.7 2745.86 4207.22 2716.81 4198.91 2705.77C4190.6 2694.73 4164.51 2712.69 4164.51 2712.69Z" fill="white" stroke="#263238" stroke-linecap="round" stroke-linejoin="round"/>
<path d="M3832.42 2099.69L3831.3 2108.05L3822.72 2174.4C3822.72 2174.4 3745.77 2283.08 3717.61 2339.67C3703.23 2368.55 3683.15 2402.84 3685.94 2412.49L3771.53 2716.48C3778.02 2719.67 3785.06 2721.56 3792.27 2722.06C3798.91 2721.83 3805.46 2720.43 3811.62 2717.93L3807.72 2436.58L3926.48 2305.94L3941.7 2325.28C3941.7 2325.28 3981.12 2465.13 3997.74 2487.26C4014.35 2509.4 4157.65 2716.82 4157.65 2716.82C4165.03 2720.26 4173.04 2722.16 4181.18 2722.39C4193.67 2722.39 4199.19 2705.66 4199.19 2705.66C4199.19 2705.66 4096.1 2451.13 4093.25 2442.82C4090.41 2434.51 4092.53 2230.94 4092.53 2230.94L4075.8 2132.7L4056.45 2070.42C4056.45 2070.42 4020.49 2080.12 3959.6 2077.33C3898.71 2074.54 3840.61 2070.42 3840.61 2070.42L3832.42 2099.69Z" fill="#263238" stroke="#263238" stroke-linecap="round" stroke-linejoin="round"/>
<path d="M3669.1 1432.77C3669.1 1432.77 3649.75 1461.82 3646.8 1479.83C3645.65 1491.81 3649.12 1503.78 3656.5 1513.28L3645.35 1536.81C3645.35 1536.81 3682.71 1612.92 3704.84 1647.49C3726.98 1682.06 3762.94 1740.22 3785.08 1751.31C3807.21 1762.41 3850.09 1808.02 3850.09 1808.02L3875.02 1754.04C3875.02 1754.04 3801.97 1662.43 3756.2 1598.82C3728.52 1560.19 3703.11 1520 3680.09 1478.43C3680.04 1466.39 3680.97 1454.36 3682.87 1442.47C3684.69 1431.95 3685.6 1421.3 3685.61 1410.63L3669.1 1432.77Z" fill="#263238" stroke="#263238" stroke-linecap="round" stroke-linejoin="round"/>
<path d="M3893.3 1733.03C3893.3 1733.03 3836.54 1800.83 3825.5 1845.1C3814.46 1889.37 3828.24 2026.37 3828.24 2045.83C3828.24 2065.29 3817.08 2085.97 3832.42 2099.8C3847.75 2113.63 3893.3 2106.71 3909.86 2105.38C3926.42 2104.04 4005.38 2105.38 4028.91 2098.41C4052.44 2091.44 4063.48 2081.68 4063.48 2065.23C4063.48 2048.78 4034.43 1917.19 4030.02 1895.06C4025.62 1872.92 4041.17 1796.81 4020.38 1760.79C3999.58 1724.77 3933.39 1719.2 3893.3 1733.03Z" fill="white" stroke="#263238" stroke-linecap="round" stroke-linejoin="round"/>
<path d="M3883.6 1742.73C3883.6 1742.73 3814.41 1813.26 3804.71 1850.62C3795 1887.98 3760.43 1959.96 3749.39 1991.8C3739.78 2016.91 3728.6 2041.4 3715.94 2065.12L3728.37 2114.91L3760.21 2080.34C3760.21 2080.34 3792.05 1971 3808.66 1925.33C3825.28 1879.67 3828.01 1836.79 3830.97 1824.36C3833.92 1811.92 3883.6 1742.73 3883.6 1742.73Z" fill="#263238" stroke="#263238" stroke-linecap="round" stroke-linejoin="round"/>
<path d="M3893.3 1738.54C3893.3 1738.54 3851.76 1852.01 3853.16 1860.32C3854.55 1868.63 3873.9 2175.8 3873.9 2175.8C3873.9 2175.8 3893.3 2222.86 3980.45 2215.94C4067.6 2209.03 4135.35 2196.54 4135.35 2196.54C4135.35 2196.54 4109.09 2092.77 4085.56 2045.71C4062.03 1998.65 4049.59 1971 4049.59 1948.86C4049.59 1926.73 4039.89 1778.69 4034.37 1755.16C4031.96 1743.08 4027.75 1731.42 4021.88 1720.59L4013.63 1713.68L3893.3 1738.54Z" fill="#90CAF9" stroke="#263238" stroke-linecap="round" stroke-linejoin="round"/>
<path d="M3860.07 1973.79L3927.87 2139.83C3927.87 2139.83 3900 2150.99 3890.52 2160.58C3885.2 2165.93 3879.62 2171.01 3873.79 2175.8L3860.07 1973.79Z" fill="#90CAF9" stroke="#263238" stroke-linecap="round" stroke-linejoin="round"/>
<path d="M3950.01 1515.79C3950.01 1515.79 3907.13 1550.36 3907.13 1560.06C3907.13 1569.77 3895.98 1583.59 3895.98 1583.59C3895.98 1583.59 3873.68 1586.38 3872.45 1594.75C3871.22 1603.11 3879.37 1619.67 3879.37 1619.67C3879.37 1619.67 3865.54 1666.73 3871.11 1677.77C3876.69 1688.81 3916.72 1690.26 3916.72 1690.26L3918.12 1720.7L4013.63 1705.48L4012.24 1681.95C4012.24 1681.95 4063.42 1626.58 4088.35 1603.05C4113.27 1579.52 4081.43 1538.04 4050.99 1506.2C4020.54 1474.36 3948.56 1474.36 3943.04 1490.98C3941.33 1495.31 3941.09 1500.08 3942.35 1504.56C3943.61 1509.04 3946.3 1512.99 3950.01 1515.79Z" fill="white" stroke="#263238" stroke-linecap="round" stroke-linejoin="round"/>
<path d="M3914.05 1565.58C3917.1 1564.06 3920.51 1563.39 3923.91 1563.64C3927.31 1563.88 3930.59 1565.04 3933.39 1566.98" stroke="#263238" stroke-linecap="round" stroke-linejoin="round"/>
<path d="M3915.5 1585.55C3914.44 1590.01 3915.11 1594.02 3916.95 1594.41C3918.79 1594.8 3921.18 1591.62 3922.24 1587.16C3923.3 1582.7 3922.63 1578.74 3920.79 1578.3C3918.95 1577.85 3916.56 1581.08 3915.5 1585.55Z" fill="#263238"/>
<path d="M4051.04 1506.09C4020.6 1474.25 3948.62 1474.25 3943.1 1490.87C3941.35 1495.21 3941.09 1500 3942.34 1504.5C3943.59 1509 3946.28 1512.97 3950.01 1515.79C3950.01 1515.79 3997.07 1521.37 3990.16 1533.8C3983.24 1546.24 3959.71 1546.24 3965.23 1554.54C3970.75 1562.85 3990.16 1580.81 3983.24 1584.99C3976.33 1589.17 3972.09 1597.42 3976.33 1600.21C3980.57 1603 3987.48 1596.03 4004.21 1598.82C4020.93 1601.6 4016.64 1640.3 4001.42 1645.88C3986.2 1651.45 3979.12 1644.48 4006.99 1669.4C4010.27 1672.27 4014.05 1674.5 4018.15 1675.98C4031.97 1661.1 4068.83 1621.84 4088.79 1602.94C4113.05 1579.41 4081.49 1537.93 4051.04 1506.09Z" fill="#263238" stroke="#263238" stroke-linecap="round" stroke-linejoin="round"/>
<path d="M3990.16 1650L3965.23 1644.48L3948.62 1656.91" stroke="#263238" stroke-linecap="round" stroke-linejoin="round"/>
<path d="M4019.21 1688.75L3891.91 1723.32L3883.6 1749.64L4034.43 1721.99L4019.21 1688.75Z" fill="#90CAF9" stroke="#263238" stroke-linecap="round" stroke-linejoin="round"/>
<path d="M3698.21 1474.25L3694.03 1445.2C3694.03 1445.2 3706.46 1405.11 3706.46 1395.41C3706.46 1385.71 3696.81 1363.57 3696.81 1358.05C3696.81 1352.53 3688.51 1344.23 3685.66 1355.27C3682.82 1366.31 3677.35 1407.85 3677.35 1407.85C3677.35 1407.85 3659.4 1438.29 3660.63 1453.51C3661.85 1468.73 3675.79 1500.57 3675.79 1500.57L3700.72 1485.35L3698.21 1474.25Z" fill="white" stroke="#263238" stroke-linecap="round" stroke-linejoin="round"/>
<path d="M3716.16 1496.45L3698.21 1474.25L3664.98 1500.57L3684.32 1533.8L3716.16 1496.45Z" fill="white" stroke="#263238" stroke-linecap="round" stroke-linejoin="round"/>
<path d="M4017.81 1781.48C4008.63 1758.27 3991.44 1739.13 3969.36 1727.5C3945.83 1715.96 3921.29 1706.63 3896.04 1699.63L3707.85 1485.18L3670.5 1522.54C3670.5 1522.54 3749.39 1687.19 3764.62 1714.85C3779.84 1742.5 3955.53 1932.3 3955.53 1932.3" fill="#90CAF9"/>
<path d="M4017.81 1781.48C4008.63 1758.27 3991.44 1739.13 3969.36 1727.5C3945.83 1715.96 3921.29 1706.63 3896.04 1699.63L3707.85 1485.18L3670.5 1522.54C3670.5 1522.54 3749.39 1687.19 3764.62 1714.85C3779.84 1742.5 3955.53 1932.3 3955.53 1932.3" stroke="#263238" stroke-linecap="round" stroke-linejoin="round"/>
<path d="M2377.25 2687.99C2377.25 2687.99 2350.76 2725.62 2345.19 2746.53C2339.61 2767.44 2341.01 2795.32 2354.95 2792.53C2368.89 2789.75 2400.95 2754.9 2403.73 2745.14C2406.52 2735.38 2416.28 2690.78 2416.28 2690.78L2382.83 2687.99H2377.25Z" fill="white" stroke="#263238" stroke-linecap="round" stroke-linejoin="round"/>
<path d="M2855.37 2711.68C2855.37 2711.68 2855.37 2750.71 2863.74 2756.29C2872.1 2761.87 2929.25 2785.56 2945.98 2786.96C2962.71 2788.35 2968.28 2785.56 2958.52 2766.05C2948.77 2746.53 2893.01 2708.9 2893.01 2708.9L2855.37 2711.68Z" fill="white" stroke="#263238" stroke-linecap="round" stroke-linejoin="round"/>
<path d="M2512.46 2052.35L2480.4 2187.56L2463.67 2441.26C2463.67 2441.26 2402.34 2547.2 2396.77 2586.23C2391.19 2625.26 2373.07 2704.72 2373.07 2704.72C2373.07 2704.72 2398.16 2715.87 2402.34 2715.87C2406.52 2715.87 2456.71 2643.38 2484.58 2615.5C2512.46 2587.62 2575.19 2467.75 2577.98 2462.17C2580.77 2456.59 2625.37 2279.56 2628.16 2273.99C2630.95 2268.41 2647.68 2261.44 2647.68 2261.44C2647.68 2261.44 2731.65 2382.16 2741.79 2392.3C2758.02 2408.53 2784.28 2449.62 2784.28 2449.62C2784.28 2449.62 2841.43 2676.84 2845.62 2687.99C2848.64 2698.44 2850.51 2709.19 2851.19 2720.05L2902.77 2731.2C2902.77 2731.2 2906.95 2579.26 2904.16 2543.02C2901.37 2506.78 2890.22 2428.71 2890.22 2428.71C2890.22 2428.71 2805.19 2195.93 2801.01 2190.35C2796.83 2184.77 2771.74 2129.02 2771.74 2129.02L2763.37 2076.05C2714.34 2089.79 2662.74 2091.7 2612.83 2081.62C2529.19 2064.9 2512.46 2052.35 2512.46 2052.35Z" fill="#263238" stroke="#263238" stroke-linecap="round" stroke-linejoin="round"/>
<path d="M2591.25 1674.37C2560.97 1694.39 2529.54 1712.61 2497.13 1728.95C2454.36 1749.42 2444.16 1769.88 2444.16 1780.08C2444.16 1790.29 2406.97 1959.46 2409.76 1968.71C2412.54 1977.97 2437.64 1991.96 2453.47 1995.7C2469.31 1999.44 2491.55 1994.75 2496.18 1991.02C2500.81 1987.28 2515.7 1924.11 2515.7 1924.11C2515.7 1924.11 2507.33 2038.41 2503.65 2053.3C2499.97 2068.19 2534.32 2106.27 2567.77 2112.79C2601.23 2119.32 2691.33 2119.26 2714.58 2111.84C2737.84 2104.43 2753.61 2102.53 2761.03 2088.59C2768.45 2074.65 2773.13 1975.24 2774.08 1968.71C2775.03 1962.19 2782.44 1902.75 2782.44 1902.75L2806.58 1984.55L2815.9 2001.28C2815.9 2001.28 2820.52 1991.02 2849.35 1974.29C2878.18 1957.56 2887.43 1955.72 2887.43 1955.72C2887.43 1955.72 2870.71 1900.91 2860.5 1869.3C2850.3 1837.68 2840.04 1780.08 2827.05 1756.83C2814.06 1733.58 2790.81 1723.38 2759.19 1703.86C2727.58 1684.35 2681.13 1673.2 2675.55 1670.41C2669.98 1667.62 2620.3 1663.5 2591.25 1674.37Z" fill="white" stroke="#263238" stroke-linecap="round" stroke-linejoin="round"/>
<path d="M2515.7 1924.11L2535.32 1856.14" stroke="#263238" stroke-linecap="round" stroke-linejoin="round"/>
<path d="M2796.05 1839.3L2799.39 1823.91" stroke="#263238" stroke-linecap="round" stroke-linejoin="round"/>
<path d="M2782.44 1902.75L2793.09 1853.24" stroke="#263238" stroke-linecap="round" stroke-linejoin="round"/>
<path d="M2615.61 1781.92L2635.13 1809.8L2646.28 1834.89L2618.4 2066.29L2657.43 2102.53L2688.1 2062.11L2660.22 1837.68L2676.95 1805.62L2699.2 1769.21L2658.83 1745.68L2615.61 1781.92Z" fill="#90CAF9" stroke="#263238" stroke-linecap="round" stroke-linejoin="round"/>
<path d="M2602.01 1664.39C2602.01 1664.39 2582.66 1669.46 2578.42 1681.11C2574.19 1692.77 2580.1 1763.69 2586.01 1778.86C2590.82 1790.25 2596.41 1801.3 2602.73 1811.92C2602.73 1811.92 2654.48 1778.86 2663.73 1777.19C2672.99 1775.51 2726.13 1803.34 2726.13 1803.34C2726.13 1803.34 2727.8 1770.44 2709.4 1724.1C2691 1677.77 2648.07 1651.62 2629.33 1649.89C2623.87 1649.43 2618.39 1650.56 2613.54 1653.13C2608.7 1655.7 2604.7 1659.61 2602.01 1664.39Z" fill="white" stroke="#263238" stroke-linecap="round" stroke-linejoin="round"/>
<path d="M2594.31 1658.53C2594.31 1658.53 2596.88 1688.03 2599.39 1708.21C2601.9 1728.4 2633.12 1795.08 2643.99 1804.34C2654.87 1813.59 2677.45 1783.26 2685.31 1769.77C2688.62 1763.63 2692.35 1757.73 2696.46 1752.09C2696.46 1752.09 2642.54 1725.94 2625.71 1695.61C2608.87 1665.28 2610.48 1651.01 2602.9 1650.06C2595.32 1649.11 2594.31 1658.53 2594.31 1658.53Z" fill="white" stroke="#263238" stroke-linecap="round" stroke-linejoin="round"/>
<path d="M2621.52 1731.02L2662.95 1797.93C2662.95 1797.93 2682.02 1780.31 2685.26 1770.05C2688.49 1759.79 2621.52 1731.02 2621.52 1731.02Z" fill="#263238" stroke="#263238" stroke-linecap="round" stroke-linejoin="round"/>
<path d="M2578.09 1611.19C2574.49 1620.85 2573.14 1631.21 2574.13 1641.47C2575.41 1659.93 2585.95 1673.08 2591.25 1674.37C2596.03 1675.27 2600.88 1675.72 2605.74 1675.7C2605.74 1675.7 2607.03 1708.6 2621.52 1731.02C2636.02 1753.43 2684.75 1784.99 2699.19 1769.21C2713.64 1753.43 2732.15 1690.2 2738.73 1659.93C2742.87 1640.35 2745.94 1620.56 2747.93 1600.65L2650.52 1578.35L2604.41 1567.87L2578.09 1611.19Z" fill="white" stroke="#263238" stroke-linecap="round" stroke-linejoin="round"/>
<path d="M2634.68 1598.26C2634.68 1598.26 2639.98 1615.38 2629.44 1626.14C2618.9 1636.9 2614.94 1636.68 2614.94 1636.68C2614.94 1636.68 2617.57 1653.79 2613.61 1653.79C2611.87 1653.82 2610.14 1653.5 2608.52 1652.85C2606.91 1652.19 2605.44 1651.22 2604.21 1649.99C2602.99 1648.75 2602.02 1647.28 2601.37 1645.67C2600.72 1644.05 2600.41 1642.32 2600.45 1640.58C2600.11 1633.52 2597.83 1626.69 2593.87 1620.84L2578.09 1611.64C2574.26 1592.47 2574.7 1572.69 2579.37 1553.71C2587.29 1523.43 2643.88 1511.56 2691.33 1512.89C2738.78 1514.23 2750.55 1574.79 2750.55 1574.79C2760.58 1579.33 2770.27 1584.61 2779.54 1590.56C2783.5 1594.52 2787.46 1603.72 2765.04 1615.6C2742.63 1627.48 2703.15 1631.38 2679.46 1622.18C2663.76 1615.75 2648.76 1607.73 2634.68 1598.26Z" fill="#263238" stroke="#263238" stroke-linecap="round" stroke-linejoin="round"/>
<path d="M2666.63 1668.29C2665.07 1673.2 2661.89 1676.54 2659.44 1675.82C2656.99 1675.09 2656.26 1670.24 2657.77 1665.56C2659.27 1660.87 2662.51 1657.31 2664.9 1658.09C2667.3 1658.87 2668.14 1663.44 2666.63 1668.29Z" fill="#263238"/>
<path d="M2721.39 1672.53C2719.88 1677.43 2716.65 1680.78 2714.25 1680C2711.85 1679.22 2711.02 1674.42 2712.52 1669.8C2714.03 1665.17 2717.26 1661.54 2719.71 1662.27C2722.17 1662.99 2722.89 1667.62 2721.39 1672.53Z" fill="#263238"/>
<path d="M2646.62 1651.79C2646.62 1651.79 2655.09 1639.13 2674.49 1644.2" stroke="#263238" stroke-linecap="round" stroke-linejoin="round"/>
<path d="M2706.44 1650.06C2708.17 1648.42 2710.22 1647.15 2712.45 1646.34C2714.69 1645.54 2717.08 1645.2 2719.45 1645.37C2721.83 1645.53 2724.14 1646.18 2726.25 1647.29C2728.36 1648.39 2730.22 1649.93 2731.7 1651.79" stroke="#263238" stroke-linecap="round" stroke-linejoin="round"/>
<path d="M2680.07 1710.78C2672.05 1711.03 2664.11 1712.44 2656.48 1714.96C2643.83 1719.2 2625.32 1714.12 2633.74 1725.11C2642.16 1736.09 2658.16 1739.44 2675 1739.44C2691.84 1739.44 2707.06 1738.6 2712.13 1731.02C2717.21 1723.43 2724.73 1715.85 2718.88 1714.96C2713.02 1714.07 2690.22 1712.45 2687.65 1712.45C2685.07 1712.17 2682.53 1711.61 2680.07 1710.78Z" fill="#263238" stroke="#263238" stroke-linecap="round" stroke-linejoin="round"/>
<path d="M2702.37 1661.88C2702.37 1661.88 2700.7 1708.21 2699.03 1716.69C2698.76 1718.93 2697.81 1721.04 2696.31 1722.74C2694.81 1724.44 2692.84 1725.64 2690.64 1726.18C2688.44 1726.72 2686.13 1726.59 2684.02 1725.79C2681.9 1724.99 2680.08 1723.57 2678.79 1721.71C2673.43 1714.66 2668.91 1707.03 2665.29 1698.96" fill="white"/>
<path d="M2702.37 1661.88C2702.37 1661.88 2700.7 1708.21 2699.03 1716.69C2698.76 1718.93 2697.81 1721.04 2696.31 1722.74C2694.81 1724.44 2692.84 1725.64 2690.64 1726.18C2688.44 1726.72 2686.13 1726.59 2684.02 1725.79C2681.9 1724.99 2680.08 1723.57 2678.79 1721.71C2673.43 1714.66 2668.91 1707.03 2665.29 1698.96" stroke="#263238" stroke-linecap="round" stroke-linejoin="round"/>
<path d="M2881.86 1935.26C2881.86 1935.26 2841.71 1941.84 2824.98 1952.99C2808.26 1964.14 2802.4 1973.84 2806.58 1984.55C2810.16 1995.06 2814.84 2005.17 2820.52 2014.71C2827.49 2025.86 2840.04 2017.5 2840.04 2017.5C2838.87 2016.25 2837.97 2014.78 2837.41 2013.16C2836.84 2011.55 2836.62 2009.84 2836.75 2008.13C2836.88 2006.43 2837.36 2004.77 2838.17 2003.26C2838.98 2001.76 2840.09 2000.43 2841.43 1999.38C2851.19 1989.62 2887.43 1975.68 2887.43 1975.68H2899.98C2905.55 1975.68 2899.98 1960.35 2895.8 1953.38C2891.62 1946.41 2891.62 1932.47 2881.86 1935.26Z" fill="white" stroke="#263238" stroke-linecap="round" stroke-linejoin="round"/>
<path d="M2409.31 2002.17C2409.31 2002.17 2409.31 2042.59 2412.1 2083.02C2414.89 2123.44 2448.34 2236.35 2448.34 2236.35L2481.8 2227.99C2481.8 2227.99 2480.4 2122.05 2480.4 2088.59C2480.4 2055.14 2479.01 2014.71 2479.01 2014.71L2409.31 2002.17Z" fill="white" stroke="#263238" stroke-linecap="round" stroke-linejoin="round"/>
<path d="M2403.23 1974.01C2403.44 1972.26 2404.1 1970.6 2405.15 1969.19C2406.2 1967.78 2407.6 1966.67 2409.21 1965.96C2410.82 1965.26 2412.59 1964.99 2414.34 1965.18C2416.09 1965.36 2417.76 1966.01 2419.18 1967.04C2428.36 1973.13 2438.81 1977.04 2449.73 1978.47C2463.08 1980.84 2476.69 1981.27 2490.16 1979.75C2491.51 1979.57 2492.88 1979.74 2494.15 1980.22C2495.42 1980.71 2496.55 1981.51 2497.43 1982.55C2498.32 1983.59 2498.92 1984.83 2499.2 1986.16C2499.48 1987.49 2499.42 1988.88 2499.02 1990.18C2495.51 2001.72 2490.21 2017.45 2485.98 2021.68C2479.01 2028.65 2445.55 2028.65 2428.83 2023.08C2412.1 2017.5 2407.92 2013.32 2403.73 1999.38C2402.08 1991.02 2401.91 1982.43 2403.23 1974.01Z" fill="white" stroke="#263238" stroke-linecap="round" stroke-linejoin="round"/>
<path d="M3053.31 2110.9C3056.49 2100.76 3062.25 2091.63 3070.04 2084.41C3082.59 2073.26 3088.16 2070.47 3075.62 2069.08C3063.07 2067.68 3047.74 2087.2 3047.74 2087.2L3053.31 2110.9Z" fill="white" stroke="#263238" stroke-linecap="round" stroke-linejoin="round"/>
<path d="M2840.04 2017.5C2848.55 2026.07 2858.45 2033.14 2869.31 2038.41C2890.22 2049.56 2994.77 2106.71 2994.77 2106.71L3032.4 2084.41C3032.4 2084.41 2973.86 2057.93 2947.37 2030.05C2920.89 2002.17 2899.98 1975.68 2899.98 1975.68C2899.98 1975.68 2830.28 1979.87 2840.04 2017.5Z" fill="white" stroke="#263238" stroke-linecap="round" stroke-linejoin="round"/>
<path d="M2976.65 2091.38C2976.65 2091.38 2982.22 2120.65 2991.98 2122.05C3001.74 2123.44 3049.13 2119.26 3053.31 2110.9C3057.49 2102.53 3060.28 2073.26 3053.31 2071.87C3046.34 2070.47 2976.65 2091.38 2976.65 2091.38Z" fill="white" stroke="#263238" stroke-linecap="round" stroke-linejoin="round"/>
<path d="M2452.58 2270.25C2446.01 2261.89 2437.39 2255.37 2427.54 2251.35C2411.87 2245.38 2405.69 2244.71 2416.95 2238.97C2428.21 2233.23 2449.4 2246.11 2449.4 2246.11L2452.58 2270.25Z" fill="white" stroke="#263238" stroke-linecap="round" stroke-linejoin="round"/>
<path d="M2517.37 2224.92C2517.37 2224.92 2522.5 2254.25 2513.86 2258.99C2505.21 2263.73 2459.44 2276.55 2452.52 2270.14C2445.61 2263.73 2432.67 2237.35 2438.75 2233.62C2444.83 2229.88 2517.37 2224.92 2517.37 2224.92Z" fill="white" stroke="#263238" stroke-linecap="round" stroke-linejoin="round"/>
<path d="M1107.7 2445.22C1107.7 2445.22 1112.55 2427.66 1112.66 2426.54C1114.56 2413.21 1110.32 2386.45 1096.77 2379.87C1094.49 2378.85 1092.02 2378.32 1089.51 2378.31C1087.01 2378.31 1084.54 2378.83 1082.25 2379.85C1079.96 2380.86 1077.91 2382.35 1076.24 2384.21C1074.56 2386.06 1073.29 2388.25 1072.52 2390.63C1068.89 2400.61 1073.52 2412.94 1078.93 2421.24C1085.4 2431.17 1107.7 2445.22 1107.7 2445.22Z" fill="#263238"/>
<path d="M840.845 2439.42C851.662 2444.16 878.035 2443.55 878.091 2443.55C878.147 2443.55 872.515 2426.26 871.902 2425.2C866.326 2413.1 847.759 2393.09 832.871 2395.09C830.406 2395.5 828.053 2396.41 825.966 2397.79C823.878 2399.16 822.104 2400.96 820.757 2403.06C819.411 2405.16 818.522 2407.53 818.15 2410C817.778 2412.47 817.93 2414.99 818.597 2417.4C821.051 2427.71 831.645 2435.41 840.845 2439.42Z" fill="#263238"/>
<path d="M849.989 2515.92C861.14 2517.54 884.726 2510.73 886.622 2510.34C890.477 2523.83 895.246 2537.04 900.896 2549.88C904.13 2557.4 907.642 2564.82 911.211 2572.18C909.092 2569 907.141 2566.21 906.806 2565.82C898.052 2555.68 875.08 2541.23 861.252 2547.09C858.978 2548.13 856.949 2549.64 855.296 2551.52C853.643 2553.39 852.403 2555.6 851.656 2557.98C850.91 2560.37 850.673 2562.89 850.962 2565.37C851.252 2567.86 852.06 2570.25 853.334 2572.4C858.464 2581.71 870.731 2586.29 880.656 2587.74C890.58 2589.19 910.932 2583.78 916.229 2582.16C917.679 2585 919.017 2587.74 920.467 2590.69C927.269 2604.3 934.183 2617.85 940.484 2631.28C942.714 2636.02 944.721 2640.82 946.784 2645.56C944.889 2642.77 943.216 2640.43 942.937 2639.98C934.183 2629.83 911.211 2615.34 897.383 2621.25C895.117 2622.29 893.095 2623.8 891.447 2625.67C889.8 2627.54 888.563 2629.74 887.817 2632.12C887.071 2634.5 886.832 2637.01 887.116 2639.49C887.4 2641.96 888.2 2644.36 889.465 2646.51C894.595 2655.76 906.862 2660.39 916.787 2661.84C926.711 2663.29 945.056 2658.38 951.412 2656.65C953.364 2661.56 955.315 2666.52 956.988 2671.37C958.047 2674.72 959.274 2677.9 960.166 2681.3C961.058 2684.7 962.062 2687.99 962.954 2691.28C964.515 2697.75 966.132 2704.33 967.47 2710.68C968.474 2715.03 969.31 2719.21 970.147 2723.45C967.972 2718.71 963.567 2709.51 963.121 2708.79C955.929 2697.64 935.242 2679.63 920.857 2683.31C918.454 2683.99 916.223 2685.17 914.308 2686.78C912.393 2688.38 910.838 2690.37 909.744 2692.62C908.65 2694.87 908.041 2697.32 907.958 2699.82C907.874 2702.31 908.318 2704.8 909.259 2707.11C912.884 2717.09 924.314 2723.51 933.904 2726.46C944.442 2729.7 967.861 2726.74 970.76 2726.46C972.154 2733.43 973.437 2740.23 974.607 2746.7C976.949 2760.14 978.789 2772.29 980.183 2782.67H989.997C988.324 2771.9 986.149 2759.19 983.361 2745.03C981.967 2737.95 980.295 2730.36 978.566 2722.73C985.611 2719.9 992.481 2716.66 999.141 2713.02C1006.84 2721.39 1026.57 2731.15 1029.14 2732.37C1026.46 2738.95 1023.56 2745.36 1021.17 2751.39C1016.04 2763.15 1011.13 2773.69 1006.78 2782.72H1017.37C1021.11 2774.47 1025.18 2765.1 1029.36 2754.84C1032.09 2748.15 1034.94 2740.9 1037.73 2733.49C1040.57 2734.1 1063.71 2738.78 1074.53 2736.33C1084.28 2734.16 1096.16 2728.64 1100.56 2718.93C1101.67 2716.71 1102.29 2714.29 1102.4 2711.81C1102.51 2709.33 1102.1 2706.85 1101.2 2704.54C1100.3 2702.23 1098.92 2700.14 1097.16 2698.39C1095.4 2696.64 1093.29 2695.29 1090.97 2694.4C1076.76 2689.61 1054.95 2705.55 1046.98 2716.7C1046.53 2717.37 1042.19 2724.84 1039.51 2729.58C1040.68 2726.57 1041.8 2723.62 1042.91 2720.5C1045.2 2714.25 1047.32 2708.01 1049.55 2701.31L1052.56 2691.33C1053.62 2688.04 1054.29 2684.42 1055.23 2680.91C1057.18 2672.77 1058.75 2664.18 1060.14 2655.98C1065.72 2657.94 1084.95 2664.74 1095.04 2664.01C1105.14 2663.29 1117.35 2659.61 1123.37 2650.74C1124.81 2648.7 1125.8 2646.37 1126.28 2643.92C1126.76 2641.47 1126.72 2638.94 1126.15 2636.5C1125.59 2634.07 1124.52 2631.78 1123.01 2629.78C1121.5 2627.79 1119.59 2626.13 1117.4 2624.93C1104.02 2618.01 1080.05 2630.5 1070.57 2640.2C1069.95 2640.82 1063.88 2648.35 1060.64 2652.58C1061.42 2647.51 1062.26 2642.43 1062.87 2637.25C1064.71 2622.36 1066.16 2607.2 1067.61 2592.09C1068.06 2587.46 1068.56 2582.83 1069.06 2578.26C1070.96 2578.98 1093.87 2587.46 1105.14 2586.68C1115.17 2586.01 1127.72 2582.33 1133.52 2573.41C1134.95 2571.36 1135.94 2569.03 1136.42 2566.57C1136.89 2564.12 1136.85 2561.59 1136.28 2559.15C1135.71 2556.72 1134.63 2554.43 1133.12 2552.43C1131.61 2550.44 1129.69 2548.79 1127.5 2547.59C1114.17 2540.68 1090.19 2553.17 1080.66 2562.87C1079.93 2563.59 1071.24 2574.52 1069.12 2577.37C1070.23 2567.22 1071.4 2557.13 1072.91 2547.2C1074.88 2533.67 1077.69 2520.29 1081.33 2507.11C1082.22 2507.45 1106.08 2516.48 1117.63 2515.64C1127.61 2514.97 1139.93 2511.29 1145.95 2502.37C1147.39 2500.33 1148.38 2498 1148.86 2495.55C1149.34 2493.09 1149.3 2490.57 1148.73 2488.13C1148.17 2485.69 1147.1 2483.4 1145.59 2481.41C1144.09 2479.42 1142.18 2477.76 1139.99 2476.56C1126.6 2469.64 1102.68 2482.13 1093.15 2491.83C1092.54 2492.5 1085.84 2500.75 1082.78 2504.77L1082.05 2504.38C1086.16 2491.36 1091.44 2478.75 1097.83 2466.69C1101.23 2460 1104.86 2453.75 1108.54 2447.78C1112.83 2449.96 1132.46 2459.49 1142.94 2459.88C1153.42 2460.27 1165.8 2458.04 1172.55 2449.79C1174.2 2447.92 1175.44 2445.71 1176.18 2443.32C1176.93 2440.94 1177.16 2438.42 1176.87 2435.94C1176.57 2433.45 1175.76 2431.06 1174.47 2428.91C1173.19 2426.76 1171.47 2424.91 1169.43 2423.47C1156.94 2415.17 1131.68 2425.2 1121.19 2433.57C1120.64 2434.01 1115.62 2439.14 1111.55 2443.16C1113.22 2440.48 1114.95 2437.58 1116.62 2435.18C1122.92 2425.7 1129.28 2417.45 1134.97 2410.15C1138.2 2406.02 1141.21 2402.34 1144.11 2399C1149.69 2399 1170.71 2398.27 1179.96 2393.92C1189.22 2389.57 1199.48 2381.66 1201.65 2371.28C1202.26 2368.86 1202.34 2366.33 1201.9 2363.87C1201.46 2361.41 1200.51 2359.07 1199.1 2357C1197.7 2354.94 1195.87 2353.19 1193.75 2351.87C1191.62 2350.56 1189.24 2349.71 1186.77 2349.37C1171.82 2347.75 1154.04 2368.27 1148.57 2380.54C1148.07 2381.6 1142.61 2399.05 1143 2399.05H1143.33C1140.49 2402.29 1137.48 2405.74 1134.3 2409.65C1128.72 2416.84 1121.92 2424.98 1115.4 2434.4C1108.22 2444.4 1101.66 2454.82 1095.77 2465.63C1089.1 2477.7 1083.5 2490.33 1079.04 2503.37C1079.04 2503.37 1079.04 2503.37 1079.04 2503.82C1079.04 2499.42 1079.04 2487.09 1079.04 2486.15C1077.37 2472.82 1066.16 2448.12 1051.16 2445.39C1048.69 2444.99 1046.17 2445.12 1043.76 2445.77C1041.34 2446.42 1039.09 2447.57 1037.15 2449.15C1035.22 2450.73 1033.63 2452.7 1032.51 2454.94C1031.39 2457.17 1030.75 2459.62 1030.64 2462.11C1029.75 2472.71 1037.45 2483.3 1044.92 2489.99C1053.34 2497.52 1076.76 2504.82 1078.37 2505.38C1074.24 2518.74 1071 2532.36 1068.67 2546.14C1067.28 2554.17 1066.05 2562.37 1064.99 2570.51C1064.99 2566.72 1064.99 2563.31 1064.99 2562.81C1063.26 2549.54 1052.11 2524.79 1037.11 2522.05C1034.64 2521.67 1032.12 2521.8 1029.71 2522.46C1027.3 2523.11 1025.06 2524.26 1023.12 2525.84C1021.19 2527.42 1019.6 2529.39 1018.48 2531.62C1017.35 2533.85 1016.71 2536.29 1016.59 2538.78C1015.76 2549.38 1023.4 2559.97 1030.87 2566.66C1038.34 2573.35 1058.36 2580.04 1063.6 2581.77L1062.43 2591.19C1060.64 2606.3 1058.91 2621.36 1056.85 2636.08C1056.07 2641.26 1055.12 2646.34 1054.23 2651.47C1054.23 2648.07 1054.23 2645.22 1054.23 2644.78C1052.5 2631.45 1041.35 2606.75 1026.35 2604.02C1023.88 2603.62 1021.36 2603.75 1018.94 2604.4C1016.53 2605.05 1014.28 2606.2 1012.34 2607.78C1010.4 2609.36 1008.82 2611.33 1007.7 2613.57C1006.58 2615.8 1005.94 2618.25 1005.83 2620.75C1004.94 2631.34 1012.63 2641.93 1020.11 2648.62C1027.58 2655.31 1045.64 2661.34 1051.89 2663.4C1050.77 2668.59 1049.71 2673.77 1048.43 2678.73C1047.43 2682.13 1046.76 2685.42 1045.59 2688.77L1042.41 2698.69C1040.12 2704.88 1037.84 2711.3 1035.49 2717.32C1033.88 2721.5 1032.26 2725.46 1030.64 2729.47C1031.48 2724.29 1032.87 2714.14 1032.87 2713.3C1032.69 2701.54 1029.51 2690.03 1023.62 2679.85C1023.73 2678.53 1023.73 2677.21 1023.62 2675.89C1023.31 2673.41 1022.48 2671.02 1021.19 2668.89C1019.9 2666.75 1018.17 2664.91 1016.12 2663.48C1014.07 2662.06 1011.74 2661.08 1009.28 2660.61C1006.83 2660.15 1004.3 2660.2 1001.87 2660.78C987.32 2664.68 978.12 2690.22 977.395 2703.6C977.395 2704.38 977.897 2713.02 978.343 2718.49C977.563 2715.31 976.894 2712.24 976.113 2709.01C974.607 2702.54 972.879 2696.19 971.095 2689.33L968.084 2679.4C967.136 2676.06 965.686 2672.6 964.571 2669.2C961.672 2661.34 958.382 2653.53 954.869 2645.72C960.445 2644.39 980.406 2639.31 988.324 2633.12C996.241 2626.93 1004.72 2617.06 1004.61 2606.42C1004.67 2603.89 1004.2 2601.38 1003.22 2599.05C1002.25 2596.72 1000.78 2594.62 998.929 2592.9C997.077 2591.18 994.88 2589.88 992.484 2589.07C990.088 2588.27 987.549 2587.98 985.034 2588.24C970.035 2589.86 957.155 2613.72 954.367 2626.88C954.367 2627.66 953.308 2637.36 952.918 2642.66C950.799 2637.97 948.68 2633.29 946.338 2628.66C939.647 2615.17 932.51 2601.73 925.373 2588.35C923.199 2584.22 921.08 2580.1 918.961 2575.97C920.968 2575.53 944.721 2570.01 953.698 2563.15C961.672 2557.01 970.091 2547.03 970.035 2536.44C970.102 2533.92 969.633 2531.42 968.661 2529.1C967.689 2526.78 966.236 2524.69 964.396 2522.97C962.557 2521.25 960.374 2519.95 957.992 2519.13C955.609 2518.32 953.082 2518.02 950.576 2518.26C935.633 2519.88 922.697 2543.69 919.909 2556.85C919.909 2557.85 918.459 2571.73 918.348 2575.3C913.608 2566.21 908.981 2557.13 904.799 2548.04C899.141 2535.68 894.28 2522.98 890.246 2510.01C891.194 2510.01 916.062 2504.43 925.206 2497.13C933.179 2491 941.599 2481.02 941.543 2470.42C941.614 2467.92 941.157 2465.43 940.202 2463.12C939.247 2460.81 937.815 2458.73 935.999 2457.01C934.184 2455.29 932.026 2453.97 929.667 2453.14C927.307 2452.31 924.799 2451.98 922.307 2452.19C907.364 2453.81 894.428 2477.61 891.696 2490.77C891.696 2491.67 890.525 2502.26 890.19 2507.5H889.354C885.592 2494.36 883.017 2480.9 881.659 2467.3C880.823 2459.83 880.433 2452.64 880.265 2445.67C885.005 2445.05 906.583 2442.21 915.56 2436.8C924.537 2431.39 933.625 2422.58 934.741 2411.99C935.078 2409.51 934.891 2407 934.192 2404.6C933.493 2402.21 932.297 2399.98 930.683 2398.08C929.068 2396.17 927.071 2394.63 924.821 2393.55C922.571 2392.47 920.118 2391.87 917.623 2391.8C902.568 2391.8 887.068 2414.11 882.886 2426.76C882.886 2427.49 881.157 2434.79 880.154 2440.15C880.154 2436.97 880.154 2433.73 880.154 2430.67C880.154 2419.52 880.934 2408.92 881.603 2399.67C882.05 2394.42 882.607 2389.68 883.109 2385.28C887.458 2382.32 904.854 2370 910.207 2361.25C915.56 2352.49 919.686 2340.28 915.783 2330.41C914.951 2328.06 913.631 2325.91 911.909 2324.1C910.187 2322.29 908.102 2320.86 905.791 2319.92C903.48 2318.97 900.995 2318.52 898.499 2318.6C896.003 2318.68 893.551 2319.28 891.305 2320.38C877.923 2327.29 874.578 2354.17 876.641 2367.44C876.641 2368.55 881.882 2386.12 882.217 2386C881.603 2390.24 881.046 2394.81 880.488 2399.83C879.596 2409.03 878.648 2419.46 878.369 2430.89C877.905 2443.18 878.203 2455.49 879.262 2467.75C880.285 2481.51 882.562 2495.15 886.064 2508.5V2508.95C883.666 2505.21 876.697 2495.07 876.083 2494.34C867.329 2484.19 844.357 2469.7 830.529 2475.61C828.258 2476.64 826.229 2478.15 824.577 2480.02C822.924 2481.89 821.684 2484.09 820.937 2486.47C820.19 2488.85 819.953 2491.37 820.242 2493.85C820.53 2496.33 821.338 2498.72 822.612 2500.87C827.797 2509.84 840.064 2514.47 849.989 2515.92Z" fill="#263238"/>
<path opacity="0.3" d="M840.845 2439.42C851.662 2444.16 878.035 2443.55 878.091 2443.55C878.147 2443.55 872.515 2426.26 871.902 2425.2C866.326 2413.1 847.759 2393.09 832.871 2395.09C830.406 2395.5 828.053 2396.41 825.966 2397.79C823.878 2399.16 822.104 2400.96 820.757 2403.06C819.411 2405.16 818.522 2407.53 818.15 2410C817.778 2412.47 817.93 2414.99 818.597 2417.4C821.051 2427.71 831.645 2435.41 840.845 2439.42Z" fill="#263238"/>
<path opacity="0.3" d="M1107.7 2445.22C1107.7 2445.22 1112.55 2427.66 1112.66 2426.54C1114.56 2413.21 1110.32 2386.45 1096.77 2379.87C1094.49 2378.85 1092.02 2378.32 1089.51 2378.31C1087.01 2378.31 1084.54 2378.83 1082.25 2379.85C1079.96 2380.86 1077.91 2382.35 1076.24 2384.21C1074.56 2386.06 1073.29 2388.25 1072.52 2390.63C1068.89 2400.61 1073.52 2412.94 1078.93 2421.24C1085.4 2431.17 1107.7 2445.22 1107.7 2445.22Z" fill="#263238"/>
<path opacity="0.3" d="M849.989 2515.92C861.14 2517.54 884.726 2510.73 886.622 2510.34C890.477 2523.83 895.246 2537.04 900.896 2549.88C904.13 2557.4 907.642 2564.82 911.211 2572.18C909.092 2569 907.141 2566.21 906.806 2565.82C898.052 2555.68 875.08 2541.23 861.252 2547.09C858.978 2548.13 856.949 2549.64 855.296 2551.52C853.643 2553.39 852.403 2555.6 851.656 2557.98C850.91 2560.37 850.673 2562.89 850.962 2565.37C851.252 2567.86 852.06 2570.25 853.334 2572.4C858.464 2581.71 870.731 2586.29 880.656 2587.74C890.58 2589.19 910.932 2583.78 916.229 2582.16C917.679 2585 919.017 2587.74 920.467 2590.69C927.269 2604.3 934.183 2617.85 940.484 2631.28C942.714 2636.02 944.721 2640.82 946.784 2645.56C944.889 2642.77 943.216 2640.43 942.937 2639.98C934.183 2629.83 911.211 2615.34 897.383 2621.25C895.117 2622.29 893.095 2623.8 891.447 2625.67C889.8 2627.54 888.563 2629.74 887.817 2632.12C887.071 2634.5 886.832 2637.01 887.116 2639.49C887.4 2641.96 888.2 2644.36 889.465 2646.51C894.595 2655.76 906.862 2660.39 916.787 2661.84C926.711 2663.29 945.056 2658.38 951.412 2656.65C953.364 2661.56 955.315 2666.52 956.988 2671.37C958.047 2674.72 959.274 2677.9 960.166 2681.3C961.058 2684.7 962.062 2687.99 962.954 2691.28C964.515 2697.75 966.132 2704.33 967.47 2710.68C968.474 2715.03 969.31 2719.21 970.147 2723.45C967.972 2718.71 963.567 2709.51 963.121 2708.79C955.929 2697.64 935.242 2679.63 920.857 2683.31C918.454 2683.99 916.223 2685.17 914.308 2686.78C912.393 2688.38 910.838 2690.37 909.744 2692.62C908.65 2694.87 908.041 2697.32 907.958 2699.82C907.874 2702.31 908.318 2704.8 909.259 2707.11C912.884 2717.09 924.314 2723.51 933.904 2726.46C944.442 2729.7 967.861 2726.74 970.76 2726.46C972.154 2733.43 973.437 2740.23 974.607 2746.7C976.949 2760.14 978.789 2772.29 980.183 2782.67H989.997C988.324 2771.9 986.149 2759.19 983.361 2745.03C981.967 2737.95 980.295 2730.36 978.566 2722.73C985.611 2719.9 992.481 2716.66 999.141 2713.02C1006.84 2721.39 1026.57 2731.15 1029.14 2732.37C1026.46 2738.95 1023.56 2745.36 1021.17 2751.39C1016.04 2763.15 1011.13 2773.69 1006.78 2782.72H1017.37C1021.11 2774.47 1025.18 2765.1 1029.36 2754.84C1032.09 2748.15 1034.94 2740.9 1037.73 2733.49C1040.57 2734.1 1063.71 2738.78 1074.53 2736.33C1084.28 2734.16 1096.16 2728.64 1100.56 2718.93C1101.67 2716.71 1102.29 2714.29 1102.4 2711.81C1102.51 2709.33 1102.1 2706.85 1101.2 2704.54C1100.3 2702.23 1098.92 2700.14 1097.16 2698.39C1095.4 2696.64 1093.29 2695.29 1090.97 2694.4C1076.76 2689.61 1054.95 2705.55 1046.98 2716.7C1046.53 2717.37 1042.19 2724.84 1039.51 2729.58C1040.68 2726.57 1041.8 2723.62 1042.91 2720.5C1045.2 2714.25 1047.32 2708.01 1049.55 2701.31L1052.56 2691.33C1053.62 2688.04 1054.29 2684.42 1055.23 2680.91C1057.18 2672.77 1058.75 2664.18 1060.14 2655.98C1065.72 2657.94 1084.95 2664.74 1095.04 2664.01C1105.14 2663.29 1117.35 2659.61 1123.37 2650.74C1124.81 2648.7 1125.8 2646.37 1126.28 2643.92C1126.76 2641.47 1126.72 2638.94 1126.15 2636.5C1125.59 2634.07 1124.52 2631.78 1123.01 2629.78C1121.5 2627.79 1119.59 2626.13 1117.4 2624.93C1104.02 2618.01 1080.05 2630.5 1070.57 2640.2C1069.95 2640.82 1063.88 2648.35 1060.64 2652.58C1061.42 2647.51 1062.26 2642.43 1062.87 2637.25C1064.71 2622.36 1066.16 2607.2 1067.61 2592.09C1068.06 2587.46 1068.56 2582.83 1069.06 2578.26C1070.96 2578.98 1093.87 2587.46 1105.14 2586.68C1115.17 2586.01 1127.72 2582.33 1133.52 2573.41C1134.95 2571.36 1135.94 2569.03 1136.42 2566.57C1136.89 2564.12 1136.85 2561.59 1136.28 2559.15C1135.71 2556.72 1134.63 2554.43 1133.12 2552.43C1131.61 2550.44 1129.69 2548.79 1127.5 2547.59C1114.17 2540.68 1090.19 2553.17 1080.66 2562.87C1079.93 2563.59 1071.24 2574.52 1069.12 2577.37C1070.23 2567.22 1071.4 2557.13 1072.91 2547.2C1074.88 2533.67 1077.69 2520.29 1081.33 2507.11C1082.22 2507.45 1106.08 2516.48 1117.63 2515.64C1127.61 2514.97 1139.93 2511.29 1145.95 2502.37C1147.39 2500.33 1148.38 2498 1148.86 2495.55C1149.34 2493.09 1149.3 2490.57 1148.73 2488.13C1148.17 2485.69 1147.1 2483.4 1145.59 2481.41C1144.09 2479.42 1142.18 2477.76 1139.99 2476.56C1126.6 2469.64 1102.68 2482.13 1093.15 2491.83C1092.54 2492.5 1085.84 2500.75 1082.78 2504.77L1082.05 2504.38C1086.16 2491.36 1091.44 2478.75 1097.83 2466.69C1101.23 2460 1104.86 2453.75 1108.54 2447.78C1112.83 2449.96 1132.46 2459.49 1142.94 2459.88C1153.42 2460.27 1165.8 2458.04 1172.55 2449.79C1174.2 2447.92 1175.44 2445.71 1176.18 2443.32C1176.93 2440.94 1177.16 2438.42 1176.87 2435.94C1176.57 2433.45 1175.76 2431.06 1174.47 2428.91C1173.19 2426.76 1171.47 2424.91 1169.43 2423.47C1156.94 2415.17 1131.68 2425.2 1121.19 2433.57C1120.64 2434.01 1115.62 2439.14 1111.55 2443.16C1113.22 2440.48 1114.95 2437.58 1116.62 2435.18C1122.92 2425.7 1129.28 2417.45 1134.97 2410.15C1138.2 2406.02 1141.21 2402.34 1144.11 2399C1149.69 2399 1170.71 2398.27 1179.96 2393.92C1189.22 2389.57 1199.48 2381.66 1201.65 2371.28C1202.26 2368.86 1202.34 2366.33 1201.9 2363.87C1201.46 2361.41 1200.51 2359.07 1199.1 2357C1197.7 2354.94 1195.87 2353.19 1193.75 2351.87C1191.62 2350.56 1189.24 2349.71 1186.77 2349.37C1171.82 2347.75 1154.04 2368.27 1148.57 2380.54C1148.07 2381.6 1142.61 2399.05 1143 2399.05H1143.33C1140.49 2402.29 1137.48 2405.74 1134.3 2409.65C1128.72 2416.84 1121.92 2424.98 1115.4 2434.4C1108.22 2444.4 1101.66 2454.82 1095.77 2465.63C1089.1 2477.7 1083.5 2490.33 1079.04 2503.37C1079.04 2503.37 1079.04 2503.37 1079.04 2503.82C1079.04 2499.42 1079.04 2487.09 1079.04 2486.15C1077.37 2472.82 1066.16 2448.12 1051.16 2445.39C1048.69 2444.99 1046.17 2445.12 1043.76 2445.77C1041.34 2446.42 1039.09 2447.57 1037.15 2449.15C1035.22 2450.73 1033.63 2452.7 1032.51 2454.94C1031.39 2457.17 1030.75 2459.62 1030.64 2462.11C1029.75 2472.71 1037.45 2483.3 1044.92 2489.99C1053.34 2497.52 1076.76 2504.82 1078.37 2505.38C1074.24 2518.74 1071 2532.36 1068.67 2546.14C1067.28 2554.17 1066.05 2562.37 1064.99 2570.51C1064.99 2566.72 1064.99 2563.31 1064.99 2562.81C1063.26 2549.54 1052.11 2524.79 1037.11 2522.05C1034.64 2521.67 1032.12 2521.8 1029.71 2522.46C1027.3 2523.11 1025.06 2524.26 1023.12 2525.84C1021.19 2527.42 1019.6 2529.39 1018.48 2531.62C1017.35 2533.85 1016.71 2536.29 1016.59 2538.78C1015.76 2549.38 1023.4 2559.97 1030.87 2566.66C1038.34 2573.35 1058.36 2580.04 1063.6 2581.77L1062.43 2591.19C1060.64 2606.3 1058.91 2621.36 1056.85 2636.08C1056.07 2641.26 1055.12 2646.34 1054.23 2651.47C1054.23 2648.07 1054.23 2645.22 1054.23 2644.78C1052.5 2631.45 1041.35 2606.75 1026.35 2604.02C1023.88 2603.62 1021.36 2603.75 1018.94 2604.4C1016.53 2605.05 1014.28 2606.2 1012.34 2607.78C1010.4 2609.36 1008.82 2611.33 1007.7 2613.57C1006.58 2615.8 1005.94 2618.25 1005.83 2620.75C1004.94 2631.34 1012.63 2641.93 1020.11 2648.62C1027.58 2655.31 1045.64 2661.34 1051.89 2663.4C1050.77 2668.59 1049.71 2673.77 1048.43 2678.73C1047.43 2682.13 1046.76 2685.42 1045.59 2688.77L1042.41 2698.69C1040.12 2704.88 1037.84 2711.3 1035.49 2717.32C1033.88 2721.5 1032.26 2725.46 1030.64 2729.47C1031.48 2724.29 1032.87 2714.14 1032.87 2713.3C1032.69 2701.54 1029.51 2690.03 1023.62 2679.85C1023.73 2678.53 1023.73 2677.21 1023.62 2675.89C1023.31 2673.41 1022.48 2671.02 1021.19 2668.89C1019.9 2666.75 1018.17 2664.91 1016.12 2663.48C1014.07 2662.06 1011.74 2661.08 1009.28 2660.61C1006.83 2660.15 1004.3 2660.2 1001.87 2660.78C987.32 2664.68 978.12 2690.22 977.395 2703.6C977.395 2704.38 977.897 2713.02 978.343 2718.49C977.563 2715.31 976.894 2712.24 976.113 2709.01C974.607 2702.54 972.879 2696.19 971.095 2689.33L968.084 2679.4C967.136 2676.06 965.686 2672.6 964.571 2669.2C961.672 2661.34 958.382 2653.53 954.869 2645.72C960.445 2644.39 980.406 2639.31 988.324 2633.12C996.241 2626.93 1004.72 2617.06 1004.61 2606.42C1004.67 2603.89 1004.2 2601.38 1003.22 2599.05C1002.25 2596.72 1000.78 2594.62 998.929 2592.9C997.077 2591.18 994.88 2589.88 992.484 2589.07C990.088 2588.27 987.549 2587.98 985.034 2588.24C970.035 2589.86 957.155 2613.72 954.367 2626.88C954.367 2627.66 953.308 2637.36 952.918 2642.66C950.799 2637.97 948.68 2633.29 946.338 2628.66C939.647 2615.17 932.51 2601.73 925.373 2588.35C923.199 2584.22 921.08 2580.1 918.961 2575.97C920.968 2575.53 944.721 2570.01 953.698 2563.15C961.672 2557.01 970.091 2547.03 970.035 2536.44C970.102 2533.92 969.633 2531.42 968.661 2529.1C967.689 2526.78 966.236 2524.69 964.396 2522.97C962.557 2521.25 960.374 2519.95 957.992 2519.13C955.609 2518.32 953.082 2518.02 950.576 2518.26C935.633 2519.88 922.697 2543.69 919.909 2556.85C919.909 2557.85 918.459 2571.73 918.348 2575.3C913.608 2566.21 908.981 2557.13 904.799 2548.04C899.141 2535.68 894.28 2522.98 890.246 2510.01C891.194 2510.01 916.062 2504.43 925.206 2497.13C933.179 2491 941.599 2481.02 941.543 2470.42C941.614 2467.92 941.157 2465.43 940.202 2463.12C939.247 2460.81 937.815 2458.73 935.999 2457.01C934.184 2455.29 932.026 2453.97 929.667 2453.14C927.307 2452.31 924.799 2451.98 922.307 2452.19C907.364 2453.81 894.428 2477.61 891.696 2490.77C891.696 2491.67 890.525 2502.26 890.19 2507.5H889.354C885.592 2494.36 883.017 2480.9 881.659 2467.3C880.823 2459.83 880.433 2452.64 880.265 2445.67C885.005 2445.05 906.583 2442.21 915.56 2436.8C924.537 2431.39 933.625 2422.58 934.741 2411.99C935.078 2409.51 934.891 2407 934.192 2404.6C933.493 2402.21 932.297 2399.98 930.683 2398.08C929.068 2396.17 927.071 2394.63 924.821 2393.55C922.571 2392.47 920.118 2391.87 917.623 2391.8C902.568 2391.8 887.068 2414.11 882.886 2426.76C882.886 2427.49 881.157 2434.79 880.154 2440.15C880.154 2436.97 880.154 2433.73 880.154 2430.67C880.154 2419.52 880.934 2408.92 881.603 2399.67C882.05 2394.42 882.607 2389.68 883.109 2385.28C887.458 2382.32 904.854 2370 910.207 2361.25C915.56 2352.49 919.686 2340.28 915.783 2330.41C914.951 2328.06 913.631 2325.91 911.909 2324.1C910.187 2322.29 908.102 2320.86 905.791 2319.92C903.48 2318.97 900.995 2318.52 898.499 2318.6C896.003 2318.68 893.551 2319.28 891.305 2320.38C877.923 2327.29 874.578 2354.17 876.641 2367.44C876.641 2368.55 881.882 2386.12 882.217 2386C881.603 2390.24 881.046 2394.81 880.488 2399.83C879.596 2409.03 878.648 2419.46 878.369 2430.89C877.905 2443.18 878.203 2455.49 879.262 2467.75C880.285 2481.51 882.562 2495.15 886.064 2508.5V2508.95C883.666 2505.21 876.697 2495.07 876.083 2494.34C867.329 2484.19 844.357 2469.7 830.529 2475.61C828.258 2476.64 826.229 2478.15 824.577 2480.02C822.924 2481.89 821.684 2484.09 820.937 2486.47C820.19 2488.85 819.953 2491.37 820.242 2493.85C820.53 2496.33 821.338 2498.72 822.612 2500.87C827.797 2509.84 840.064 2514.47 849.989 2515.92Z" fill="#263238"/>
<path d="M4493.98 2445.22C4493.98 2445.22 4498.78 2427.66 4498.95 2426.54C4500.79 2413.21 4496.55 2386.45 4483 2379.87C4480.71 2378.85 4478.24 2378.32 4475.74 2378.31C4473.24 2378.31 4470.76 2378.83 4468.47 2379.85C4466.19 2380.86 4464.14 2382.35 4462.46 2384.21C4460.79 2386.06 4459.52 2388.25 4458.74 2390.63C4455.12 2400.61 4459.75 2412.94 4465.21 2421.24C4471.57 2431.17 4493.93 2445.22 4493.98 2445.22Z" fill="#263238"/>
<path d="M4226.85 2439.42C4237.66 2444.16 4264.04 2443.55 4264.09 2443.55C4264.15 2443.55 4258.52 2426.26 4257.9 2425.2C4252.33 2413.1 4233.82 2393.09 4218.87 2395.09C4216.41 2395.5 4214.06 2396.41 4211.97 2397.79C4209.88 2399.16 4208.11 2400.96 4206.76 2403.06C4205.41 2405.16 4204.52 2407.53 4204.15 2410C4203.78 2412.47 4203.93 2414.99 4204.6 2417.4C4207.05 2427.71 4217.65 2435.41 4226.85 2439.42Z" fill="#263238"/>
<path d="M4235.99 2515.92C4247.14 2517.54 4270.73 2510.73 4272.62 2510.34C4276.51 2523.82 4281.27 2537.03 4286.9 2549.88C4290.13 2557.4 4293.65 2564.82 4297.27 2572.18L4292.86 2565.82C4284.06 2555.68 4261.08 2541.23 4247.26 2547.09C4244.99 2548.14 4242.96 2549.65 4241.32 2551.53C4239.67 2553.4 4238.43 2555.61 4237.69 2557.99C4236.94 2560.38 4236.7 2562.89 4236.99 2565.37C4237.27 2567.85 4238.07 2570.25 4239.34 2572.4C4244.47 2581.71 4256.73 2586.29 4266.66 2587.74C4276.58 2589.19 4296.94 2583.78 4302.29 2582.16L4306.47 2590.69C4313.27 2604.3 4320.19 2617.85 4326.49 2631.28C4328.72 2636.02 4330.78 2640.82 4332.79 2645.56C4330.89 2642.77 4329.27 2640.43 4329 2639.98C4320.19 2629.83 4297.21 2615.34 4283.39 2621.25C4281.11 2622.29 4279.08 2623.8 4277.43 2625.67C4275.78 2627.55 4274.54 2629.75 4273.79 2632.14C4273.04 2634.53 4272.81 2637.04 4273.1 2639.53C4273.39 2642.01 4274.19 2644.41 4275.47 2646.56C4280.6 2655.82 4292.87 2660.44 4302.79 2661.89C4312.71 2663.34 4331.11 2658.44 4337.42 2656.71C4339.37 2661.62 4341.32 2666.58 4342.99 2671.43C4344.05 2674.77 4345.33 2677.95 4346.17 2681.35C4347.01 2684.75 4348.07 2688.04 4348.96 2691.33C4350.52 2697.8 4352.14 2704.38 4353.47 2710.74C4354.48 2715.09 4355.31 2719.27 4356.15 2723.51C4354.03 2718.77 4349.57 2709.57 4349.12 2708.84C4341.99 2697.69 4321.25 2679.68 4306.86 2683.36C4304.46 2684.05 4302.23 2685.23 4300.31 2686.83C4298.4 2688.44 4296.84 2690.43 4295.75 2692.68C4294.65 2694.92 4294.04 2697.37 4293.96 2699.87C4293.88 2702.37 4294.32 2704.86 4295.26 2707.17C4298.89 2717.15 4310.32 2723.56 4319.91 2726.52C4330.45 2729.75 4353.86 2726.8 4356.76 2726.52C4358.16 2733.49 4359.5 2740.29 4360.61 2746.76C4362.95 2760.2 4364.79 2772.35 4366.19 2782.72H4376C4374.33 2771.96 4372.15 2759.25 4369.36 2745.08C4367.97 2738 4366.35 2730.42 4364.57 2722.78C4371.61 2719.96 4378.48 2716.72 4385.14 2713.08C4392.84 2721.44 4412.58 2731.2 4415.14 2732.43C4412.47 2739.01 4409.57 2745.42 4407.17 2751.44C4402.04 2763.21 4397.19 2773.74 4392.78 2782.78H4403.43C4407.11 2774.52 4411.18 2765.16 4415.36 2754.9C4418.15 2748.21 4420.94 2740.96 4423.73 2733.54C4426.57 2734.16 4449.71 2738.84 4460.53 2736.39C4470.34 2734.21 4482.16 2728.69 4486.57 2718.99C4487.67 2716.75 4488.3 2714.3 4488.39 2711.8C4488.49 2709.3 4488.06 2706.81 4487.13 2704.49C4486.19 2702.17 4484.78 2700.07 4482.99 2698.33C4481.19 2696.6 4479.05 2695.26 4476.7 2694.4C4462.48 2689.61 4440.68 2705.55 4432.71 2716.7C4432.26 2717.37 4427.91 2724.84 4425.23 2729.58C4426.4 2726.57 4427.52 2723.62 4428.64 2720.5C4430.92 2714.25 4433.04 2708.01 4435.27 2701.31L4438.28 2691.33C4439.34 2688.04 4440.07 2684.42 4440.96 2680.91C4442.91 2672.77 4444.47 2664.18 4445.86 2655.98C4451.44 2657.94 4470.73 2664.74 4480.77 2664.01C4490.81 2663.29 4503.07 2659.61 4509.09 2650.74C4510.53 2648.7 4511.52 2646.37 4512 2643.92C4512.48 2641.47 4512.44 2638.94 4511.88 2636.5C4511.31 2634.07 4510.24 2631.78 4508.74 2629.78C4507.23 2627.79 4505.32 2626.13 4503.13 2624.93C4489.75 2618.01 4465.77 2630.5 4456.29 2640.2C4455.68 2640.82 4449.6 2648.34 4446.37 2652.58C4447.15 2647.51 4447.98 2642.43 4448.6 2637.25C4450.49 2622.36 4451.89 2607.2 4453.34 2592.09C4453.78 2587.46 4454.28 2582.83 4454.79 2578.26C4456.74 2578.98 4479.6 2587.46 4490.86 2586.68C4500.9 2586.01 4513.16 2582.33 4519.24 2573.41C4520.67 2571.36 4521.66 2569.03 4522.13 2566.58C4522.61 2564.13 4522.56 2561.61 4522 2559.17C4521.44 2556.74 4520.37 2554.45 4518.87 2552.46C4517.36 2550.46 4515.46 2548.8 4513.28 2547.59C4499.89 2540.68 4475.92 2553.17 4466.38 2562.87C4465.66 2563.59 4456.96 2574.52 4454.9 2577.37C4455.96 2567.22 4457.13 2557.13 4458.69 2547.2C4460.72 2533.78 4463.6 2520.5 4467.33 2507.44C4468.22 2507.78 4492.09 2516.81 4503.63 2515.98C4513.67 2515.31 4526.21 2511.63 4532.01 2502.71C4533.44 2500.65 4534.42 2498.33 4534.89 2495.87C4535.36 2493.42 4535.31 2490.89 4534.74 2488.46C4534.18 2486.02 4533.1 2483.74 4531.59 2481.74C4530.09 2479.75 4528.18 2478.1 4525.99 2476.89C4512.66 2469.98 4488.69 2482.47 4479.15 2492.17C4478.54 2492.84 4471.85 2501.09 4468.78 2505.1L4468.06 2504.71C4472.16 2491.7 4477.45 2479.08 4483.84 2467.02C4487.24 2460.33 4490.86 2454.08 4494.54 2448.12C4498.83 2450.29 4518.46 2459.83 4528.94 2460.22C4539.43 2460.61 4551.86 2458.38 4558.55 2450.13C4560.21 2448.25 4561.45 2446.05 4562.2 2443.67C4562.95 2441.28 4563.19 2438.77 4562.9 2436.28C4562.61 2433.8 4561.8 2431.4 4560.52 2429.26C4559.24 2427.11 4557.53 2425.25 4555.48 2423.81C4542.94 2415.5 4517.74 2425.54 4507.2 2433.9C4506.64 2434.35 4501.34 2439.48 4497.55 2443.49C4499.22 2440.81 4500.95 2437.92 4502.63 2435.52C4508.93 2426.04 4515.28 2417.79 4520.97 2410.48C4524.2 2406.36 4527.27 2402.68 4530.11 2399.33C4535.69 2399.33 4556.71 2398.61 4566.02 2394.26C4575.33 2389.91 4585.48 2381.99 4587.66 2371.62C4588.26 2369.19 4588.34 2366.67 4587.9 2364.21C4587.46 2361.75 4586.51 2359.41 4585.11 2357.34C4583.7 2355.27 4581.88 2353.52 4579.75 2352.21C4577.63 2350.89 4575.25 2350.04 4572.77 2349.71C4557.83 2348.09 4540.04 2368.61 4534.57 2380.87C4534.13 2381.93 4528.61 2399.39 4529 2399.39H4529.33C4526.49 2402.62 4523.76 2406.08 4520.3 2409.98C4514.73 2417.17 4507.92 2425.31 4501.4 2434.74C4494.24 2444.74 4487.69 2455.17 4481.77 2465.96C4475.1 2478.03 4469.51 2490.66 4465.05 2503.71C4465.05 2503.71 4465.05 2503.71 4465.05 2504.16C4465.05 2499.75 4465.05 2487.43 4465.05 2486.48C4463.32 2473.15 4452.11 2448.45 4437.17 2445.72C4434.7 2445.33 4432.17 2445.46 4429.76 2446.11C4427.34 2446.75 4425.1 2447.91 4423.16 2449.49C4421.22 2451.07 4419.64 2453.04 4418.52 2455.27C4417.39 2457.5 4416.76 2459.95 4416.65 2462.45C4415.76 2473.04 4423.45 2483.64 4430.92 2490.33C4439.34 2497.85 4462.81 2505.16 4464.38 2505.72C4460.16 2519.1 4456.86 2532.75 4454.51 2546.59C4453.06 2554.62 4451.83 2562.81 4450.77 2570.95C4450.77 2567.16 4450.77 2563.76 4450.77 2563.26C4449.04 2549.99 4437.89 2525.23 4422.89 2522.5C4420.42 2522.11 4417.9 2522.25 4415.48 2522.9C4413.07 2523.55 4410.82 2524.71 4408.88 2526.28C4406.94 2527.86 4405.36 2529.83 4404.22 2532.06C4403.09 2534.29 4402.44 2536.73 4402.32 2539.23C4401.48 2549.82 4409.12 2560.41 4416.65 2567.11C4424.17 2573.8 4444.08 2580.49 4449.32 2582.22L4448.15 2591.64C4446.37 2606.75 4444.64 2621.8 4442.57 2636.52C4441.79 2641.71 4440.9 2646.78 4439.95 2651.91C4439.95 2648.51 4439.95 2645.67 4439.95 2645.22C4438.23 2631.9 4427.07 2607.2 4412.08 2604.46C4409.61 2604.07 4407.08 2604.2 4404.67 2604.85C4402.25 2605.5 4400 2606.65 4398.07 2608.23C4396.13 2609.81 4394.55 2611.78 4393.42 2614.01C4392.3 2616.25 4391.67 2618.69 4391.56 2621.19C4390.72 2631.78 4398.36 2642.38 4405.83 2649.07C4413.3 2655.76 4431.37 2661.78 4437.61 2663.85C4436.5 2669.03 4435.44 2674.22 4434.16 2679.18C4433.15 2682.58 4432.48 2685.87 4431.31 2689.22L4428.13 2699.14C4425.85 2705.33 4423.56 2711.74 4421.22 2717.76C4419.6 2721.95 4417.99 2725.9 4416.42 2729.92C4417.2 2724.73 4418.6 2714.59 4418.6 2713.75C4418.42 2701.99 4415.23 2690.47 4409.34 2680.29C4409.45 2678.98 4409.45 2677.65 4409.34 2676.34C4409.03 2673.85 4408.19 2671.47 4406.89 2669.33C4405.6 2667.19 4403.86 2665.35 4401.81 2663.92C4399.75 2662.5 4397.42 2661.52 4394.96 2661.06C4392.5 2660.59 4389.98 2660.65 4387.54 2661.23C4372.99 2665.13 4363.79 2690.67 4363.12 2704.05C4363.12 2704.83 4363.57 2713.47 4364.01 2718.93C4363.29 2715.76 4362.56 2712.69 4361.78 2709.46C4360.28 2702.99 4358.55 2696.63 4356.76 2689.77L4353.75 2679.85C4352.8 2676.5 4351.41 2673.05 4350.24 2669.64C4347.34 2661.78 4344.05 2653.98 4340.54 2646.17C4346.11 2644.83 4366.07 2639.76 4373.99 2633.57C4381.91 2627.38 4390.39 2617.51 4390.33 2606.86C4390.39 2604.36 4389.93 2601.88 4388.97 2599.57C4388.01 2597.27 4386.58 2595.18 4384.77 2593.47C4382.95 2591.75 4380.8 2590.43 4378.44 2589.59C4376.09 2588.76 4373.58 2588.43 4371.09 2588.63C4356.15 2590.25 4343.21 2614.11 4340.43 2627.27C4340.43 2628.05 4339.37 2637.75 4338.98 2643.05C4336.86 2638.36 4334.74 2633.68 4332.45 2629.05C4325.76 2615.56 4318.57 2602.12 4311.43 2588.74C4309.26 2584.61 4307.14 2580.49 4305.02 2576.36C4307.03 2575.92 4330.84 2570.4 4339.76 2563.54C4347.73 2557.4 4356.15 2547.42 4356.09 2536.83C4356.17 2534.33 4355.71 2531.84 4354.75 2529.53C4353.8 2527.22 4352.37 2525.13 4350.55 2523.41C4348.74 2521.69 4346.58 2520.38 4344.22 2519.54C4341.86 2518.71 4339.35 2518.39 4336.86 2518.6C4321.91 2520.21 4308.98 2544.02 4306.19 2557.18C4306.19 2558.18 4304.74 2572.07 4304.63 2575.64C4299.89 2566.55 4295.32 2557.46 4291.14 2548.37C4285.4 2536.05 4280.48 2523.37 4276.42 2510.4C4277.36 2510.4 4302.23 2504.82 4311.38 2497.52C4319.35 2491.39 4328.1 2481.41 4327.71 2470.81C4327.78 2468.31 4327.33 2465.82 4326.37 2463.51C4325.42 2461.2 4323.99 2459.12 4322.17 2457.4C4320.35 2455.68 4318.2 2454.36 4315.84 2453.53C4313.48 2452.7 4310.97 2452.37 4308.48 2452.58C4293.53 2454.2 4280.6 2478 4277.87 2491.16C4277.87 2492.06 4276.7 2502.65 4276.36 2507.89H4275.52C4271.76 2494.75 4269.19 2481.29 4267.83 2467.69C4266.99 2460.22 4266.66 2453.03 4266.44 2446.06C4271.18 2445.44 4292.81 2442.6 4301.73 2437.19C4310.65 2431.78 4319.8 2422.97 4320.91 2412.38C4321.25 2409.9 4321.06 2407.39 4320.36 2404.99C4319.66 2402.6 4318.47 2400.37 4316.85 2398.47C4315.24 2396.57 4313.24 2395.02 4310.99 2393.94C4308.74 2392.86 4306.29 2392.26 4303.79 2392.19C4288.74 2392.19 4273.24 2414.5 4269.11 2427.15C4269.11 2427.88 4267.38 2435.18 4266.32 2440.54C4266.32 2437.36 4266.32 2434.12 4266.32 2431.06C4266.32 2419.91 4267.05 2409.31 4267.77 2400.06C4268.22 2394.81 4268.72 2390.07 4269.22 2385.67C4273.57 2382.71 4290.97 2370.39 4296.32 2361.64C4301.67 2352.88 4305.86 2340.67 4301.9 2330.8C4301.06 2328.45 4299.73 2326.29 4298.01 2324.48C4296.28 2322.67 4294.19 2321.25 4291.87 2320.3C4289.56 2319.36 4287.07 2318.91 4284.57 2318.99C4282.07 2319.07 4279.61 2319.67 4277.36 2320.77C4263.98 2327.68 4260.64 2354.56 4262.7 2367.83C4262.7 2368.94 4267.94 2386.51 4268.28 2386.39C4267.66 2390.63 4267.11 2395.2 4266.55 2400.22C4265.66 2409.42 4264.71 2419.85 4264.43 2431.28C4264.02 2443.57 4264.32 2455.88 4265.32 2468.14C4266.4 2481.89 4268.68 2495.53 4272.12 2508.89V2509.34C4269.78 2505.6 4262.81 2495.46 4262.14 2494.73C4253.39 2484.58 4230.42 2470.09 4216.59 2476C4214.32 2477.03 4212.29 2478.54 4210.64 2480.41C4208.98 2482.28 4207.74 2484.48 4207 2486.86C4206.25 2489.24 4206.01 2491.76 4206.3 2494.24C4206.59 2496.72 4207.4 2499.11 4208.67 2501.26C4213.8 2509.84 4226.07 2514.47 4235.99 2515.92Z" fill="#263238"/>
<path opacity="0.3" d="M4226.85 2439.42C4237.66 2444.16 4264.04 2443.55 4264.09 2443.55C4264.15 2443.55 4258.52 2426.26 4257.9 2425.2C4252.33 2413.1 4233.82 2393.09 4218.87 2395.09C4216.41 2395.5 4214.06 2396.41 4211.97 2397.79C4209.88 2399.16 4208.11 2400.96 4206.76 2403.06C4205.41 2405.16 4204.52 2407.53 4204.15 2410C4203.78 2412.47 4203.93 2414.99 4204.6 2417.4C4207.05 2427.71 4217.65 2435.41 4226.85 2439.42Z" fill="#263238"/>
<path opacity="0.3" d="M4493.98 2445.22C4493.98 2445.22 4498.78 2427.66 4498.95 2426.54C4500.79 2413.21 4496.55 2386.45 4483 2379.87C4480.71 2378.85 4478.24 2378.32 4475.74 2378.31C4473.24 2378.31 4470.76 2378.83 4468.47 2379.85C4466.19 2380.86 4464.14 2382.35 4462.46 2384.21C4460.79 2386.06 4459.52 2388.25 4458.74 2390.63C4455.12 2400.61 4459.75 2412.94 4465.21 2421.24C4471.57 2431.17 4493.93 2445.22 4493.98 2445.22Z" fill="#263238"/>
<path opacity="0.3" d="M4235.99 2515.92C4247.14 2517.54 4270.73 2510.73 4272.62 2510.34C4276.51 2523.82 4281.27 2537.03 4286.9 2549.88C4290.13 2557.4 4293.65 2564.82 4297.27 2572.18L4292.86 2565.82C4284.06 2555.68 4261.08 2541.23 4247.26 2547.09C4244.99 2548.14 4242.96 2549.65 4241.32 2551.53C4239.67 2553.4 4238.43 2555.61 4237.69 2557.99C4236.94 2560.38 4236.7 2562.89 4236.99 2565.37C4237.27 2567.85 4238.07 2570.25 4239.34 2572.4C4244.47 2581.71 4256.73 2586.29 4266.66 2587.74C4276.58 2589.19 4296.94 2583.78 4302.29 2582.16L4306.47 2590.69C4313.27 2604.3 4320.19 2617.85 4326.49 2631.28C4328.72 2636.02 4330.78 2640.82 4332.79 2645.56C4330.89 2642.77 4329.27 2640.43 4329 2639.98C4320.19 2629.83 4297.21 2615.34 4283.39 2621.25C4281.11 2622.29 4279.08 2623.8 4277.43 2625.67C4275.78 2627.55 4274.54 2629.75 4273.79 2632.14C4273.04 2634.53 4272.81 2637.04 4273.1 2639.53C4273.39 2642.01 4274.19 2644.41 4275.47 2646.56C4280.6 2655.82 4292.87 2660.44 4302.79 2661.89C4312.71 2663.34 4331.11 2658.44 4337.42 2656.71C4339.37 2661.62 4341.32 2666.58 4342.99 2671.43C4344.05 2674.77 4345.33 2677.95 4346.17 2681.35C4347.01 2684.75 4348.07 2688.04 4348.96 2691.33C4350.52 2697.8 4352.14 2704.38 4353.47 2710.74C4354.48 2715.09 4355.31 2719.27 4356.15 2723.51C4354.03 2718.77 4349.57 2709.57 4349.12 2708.84C4341.99 2697.69 4321.25 2679.68 4306.86 2683.36C4304.46 2684.05 4302.23 2685.23 4300.31 2686.83C4298.4 2688.44 4296.84 2690.43 4295.75 2692.68C4294.65 2694.92 4294.04 2697.37 4293.96 2699.87C4293.88 2702.37 4294.32 2704.86 4295.26 2707.17C4298.89 2717.15 4310.32 2723.56 4319.91 2726.52C4330.45 2729.75 4353.86 2726.8 4356.76 2726.52C4358.16 2733.49 4359.5 2740.29 4360.61 2746.76C4362.95 2760.2 4364.79 2772.35 4366.19 2782.72H4376C4374.33 2771.96 4372.15 2759.25 4369.36 2745.08C4367.97 2738 4366.35 2730.42 4364.57 2722.78C4371.61 2719.96 4378.48 2716.72 4385.14 2713.08C4392.84 2721.44 4412.58 2731.2 4415.14 2732.43C4412.47 2739.01 4409.57 2745.42 4407.17 2751.44C4402.04 2763.21 4397.19 2773.74 4392.78 2782.78H4403.43C4407.11 2774.52 4411.18 2765.16 4415.36 2754.9C4418.15 2748.21 4420.94 2740.96 4423.73 2733.54C4426.57 2734.16 4449.71 2738.84 4460.53 2736.39C4470.34 2734.21 4482.16 2728.69 4486.57 2718.99C4487.67 2716.75 4488.3 2714.3 4488.39 2711.8C4488.49 2709.3 4488.06 2706.81 4487.13 2704.49C4486.19 2702.17 4484.78 2700.07 4482.99 2698.33C4481.19 2696.6 4479.05 2695.26 4476.7 2694.4C4462.48 2689.61 4440.68 2705.55 4432.71 2716.7C4432.26 2717.37 4427.91 2724.84 4425.23 2729.58C4426.4 2726.57 4427.52 2723.62 4428.64 2720.5C4430.92 2714.25 4433.04 2708.01 4435.27 2701.31L4438.28 2691.33C4439.34 2688.04 4440.07 2684.42 4440.96 2680.91C4442.91 2672.77 4444.47 2664.18 4445.86 2655.98C4451.44 2657.94 4470.73 2664.74 4480.77 2664.01C4490.81 2663.29 4503.07 2659.61 4509.09 2650.74C4510.53 2648.7 4511.52 2646.37 4512 2643.92C4512.48 2641.47 4512.44 2638.94 4511.88 2636.5C4511.31 2634.07 4510.24 2631.78 4508.74 2629.78C4507.23 2627.79 4505.32 2626.13 4503.13 2624.93C4489.75 2618.01 4465.77 2630.5 4456.29 2640.2C4455.68 2640.82 4449.6 2648.34 4446.37 2652.58C4447.15 2647.51 4447.98 2642.43 4448.6 2637.25C4450.49 2622.36 4451.89 2607.2 4453.34 2592.09C4453.78 2587.46 4454.28 2582.83 4454.79 2578.26C4456.74 2578.98 4479.6 2587.46 4490.86 2586.68C4500.9 2586.01 4513.16 2582.33 4519.24 2573.41C4520.67 2571.36 4521.66 2569.03 4522.13 2566.58C4522.61 2564.13 4522.56 2561.61 4522 2559.17C4521.44 2556.74 4520.37 2554.45 4518.87 2552.46C4517.36 2550.46 4515.46 2548.8 4513.28 2547.59C4499.89 2540.68 4475.92 2553.17 4466.38 2562.87C4465.66 2563.59 4456.96 2574.52 4454.9 2577.37C4455.96 2567.22 4457.13 2557.13 4458.69 2547.2C4460.72 2533.78 4463.6 2520.5 4467.33 2507.44C4468.22 2507.78 4492.09 2516.81 4503.63 2515.98C4513.67 2515.31 4526.21 2511.63 4532.01 2502.71C4533.44 2500.65 4534.42 2498.33 4534.89 2495.87C4535.36 2493.42 4535.31 2490.89 4534.74 2488.46C4534.18 2486.02 4533.1 2483.74 4531.59 2481.74C4530.09 2479.75 4528.18 2478.1 4525.99 2476.89C4512.66 2469.98 4488.69 2482.47 4479.15 2492.17C4478.54 2492.84 4471.85 2501.09 4468.78 2505.1L4468.06 2504.71C4472.16 2491.7 4477.45 2479.08 4483.84 2467.02C4487.24 2460.33 4490.86 2454.08 4494.54 2448.12C4498.83 2450.29 4518.46 2459.83 4528.94 2460.22C4539.43 2460.61 4551.86 2458.38 4558.55 2450.13C4560.21 2448.25 4561.45 2446.05 4562.2 2443.67C4562.95 2441.28 4563.19 2438.77 4562.9 2436.28C4562.61 2433.8 4561.8 2431.4 4560.52 2429.26C4559.24 2427.11 4557.53 2425.25 4555.48 2423.81C4542.94 2415.5 4517.74 2425.54 4507.2 2433.9C4506.64 2434.35 4501.34 2439.48 4497.55 2443.49C4499.22 2440.81 4500.95 2437.92 4502.63 2435.52C4508.93 2426.04 4515.28 2417.79 4520.97 2410.48C4524.2 2406.36 4527.27 2402.68 4530.11 2399.33C4535.69 2399.33 4556.71 2398.61 4566.02 2394.26C4575.33 2389.91 4585.48 2381.99 4587.66 2371.62C4588.26 2369.19 4588.34 2366.67 4587.9 2364.21C4587.46 2361.75 4586.51 2359.41 4585.11 2357.34C4583.7 2355.27 4581.88 2353.52 4579.75 2352.21C4577.63 2350.89 4575.25 2350.04 4572.77 2349.71C4557.83 2348.09 4540.04 2368.61 4534.57 2380.87C4534.13 2381.93 4528.61 2399.39 4529 2399.39H4529.33C4526.49 2402.62 4523.76 2406.08 4520.3 2409.98C4514.73 2417.17 4507.92 2425.31 4501.4 2434.74C4494.24 2444.74 4487.69 2455.17 4481.77 2465.96C4475.1 2478.03 4469.51 2490.66 4465.05 2503.71C4465.05 2503.71 4465.05 2503.71 4465.05 2504.16C4465.05 2499.75 4465.05 2487.43 4465.05 2486.48C4463.32 2473.15 4452.11 2448.45 4437.17 2445.72C4434.7 2445.33 4432.17 2445.46 4429.76 2446.11C4427.34 2446.75 4425.1 2447.91 4423.16 2449.49C4421.22 2451.07 4419.64 2453.04 4418.52 2455.27C4417.39 2457.5 4416.76 2459.95 4416.65 2462.45C4415.76 2473.04 4423.45 2483.64 4430.92 2490.33C4439.34 2497.85 4462.81 2505.16 4464.38 2505.72C4460.16 2519.1 4456.86 2532.75 4454.51 2546.59C4453.06 2554.62 4451.83 2562.81 4450.77 2570.95C4450.77 2567.16 4450.77 2563.76 4450.77 2563.26C4449.04 2549.99 4437.89 2525.23 4422.89 2522.5C4420.42 2522.11 4417.9 2522.25 4415.48 2522.9C4413.07 2523.55 4410.82 2524.71 4408.88 2526.28C4406.94 2527.86 4405.36 2529.83 4404.22 2532.06C4403.09 2534.29 4402.44 2536.73 4402.32 2539.23C4401.48 2549.82 4409.12 2560.41 4416.65 2567.11C4424.17 2573.8 4444.08 2580.49 4449.32 2582.22L4448.15 2591.64C4446.37 2606.75 4444.64 2621.8 4442.57 2636.52C4441.79 2641.71 4440.9 2646.78 4439.95 2651.91C4439.95 2648.51 4439.95 2645.67 4439.95 2645.22C4438.23 2631.9 4427.07 2607.2 4412.08 2604.46C4409.61 2604.07 4407.08 2604.2 4404.67 2604.85C4402.25 2605.5 4400 2606.65 4398.07 2608.23C4396.13 2609.81 4394.55 2611.78 4393.42 2614.01C4392.3 2616.25 4391.67 2618.69 4391.56 2621.19C4390.72 2631.78 4398.36 2642.38 4405.83 2649.07C4413.3 2655.76 4431.37 2661.78 4437.61 2663.85C4436.5 2669.03 4435.44 2674.22 4434.16 2679.18C4433.15 2682.58 4432.48 2685.87 4431.31 2689.22L4428.13 2699.14C4425.85 2705.33 4423.56 2711.74 4421.22 2717.76C4419.6 2721.95 4417.99 2725.9 4416.42 2729.92C4417.2 2724.73 4418.6 2714.59 4418.6 2713.75C4418.42 2701.99 4415.23 2690.47 4409.34 2680.29C4409.45 2678.98 4409.45 2677.65 4409.34 2676.34C4409.03 2673.85 4408.19 2671.47 4406.89 2669.33C4405.6 2667.19 4403.86 2665.35 4401.81 2663.92C4399.75 2662.5 4397.42 2661.52 4394.96 2661.06C4392.5 2660.59 4389.98 2660.65 4387.54 2661.23C4372.99 2665.13 4363.79 2690.67 4363.12 2704.05C4363.12 2704.83 4363.57 2713.47 4364.01 2718.93C4363.29 2715.76 4362.56 2712.69 4361.78 2709.46C4360.28 2702.99 4358.55 2696.63 4356.76 2689.77L4353.75 2679.85C4352.8 2676.5 4351.41 2673.05 4350.24 2669.64C4347.34 2661.78 4344.05 2653.98 4340.54 2646.17C4346.11 2644.83 4366.07 2639.76 4373.99 2633.57C4381.91 2627.38 4390.39 2617.51 4390.33 2606.86C4390.39 2604.36 4389.93 2601.88 4388.97 2599.57C4388.01 2597.27 4386.58 2595.18 4384.77 2593.47C4382.95 2591.75 4380.8 2590.43 4378.44 2589.59C4376.09 2588.76 4373.58 2588.43 4371.09 2588.63C4356.15 2590.25 4343.21 2614.11 4340.43 2627.27C4340.43 2628.05 4339.37 2637.75 4338.98 2643.05C4336.86 2638.36 4334.74 2633.68 4332.45 2629.05C4325.76 2615.56 4318.57 2602.12 4311.43 2588.74C4309.26 2584.61 4307.14 2580.49 4305.02 2576.36C4307.03 2575.92 4330.84 2570.4 4339.76 2563.54C4347.73 2557.4 4356.15 2547.42 4356.09 2536.83C4356.17 2534.33 4355.71 2531.84 4354.75 2529.53C4353.8 2527.22 4352.37 2525.13 4350.55 2523.41C4348.74 2521.69 4346.58 2520.38 4344.22 2519.54C4341.86 2518.71 4339.35 2518.39 4336.86 2518.6C4321.91 2520.21 4308.98 2544.02 4306.19 2557.18C4306.19 2558.18 4304.74 2572.07 4304.63 2575.64C4299.89 2566.55 4295.32 2557.46 4291.14 2548.37C4285.4 2536.05 4280.48 2523.37 4276.42 2510.4C4277.36 2510.4 4302.23 2504.82 4311.38 2497.52C4319.35 2491.39 4328.1 2481.41 4327.71 2470.81C4327.78 2468.31 4327.33 2465.82 4326.37 2463.51C4325.42 2461.2 4323.99 2459.12 4322.17 2457.4C4320.35 2455.68 4318.2 2454.36 4315.84 2453.53C4313.48 2452.7 4310.97 2452.37 4308.48 2452.58C4293.53 2454.2 4280.6 2478 4277.87 2491.16C4277.87 2492.06 4276.7 2502.65 4276.36 2507.89H4275.52C4271.76 2494.75 4269.19 2481.29 4267.83 2467.69C4266.99 2460.22 4266.66 2453.03 4266.44 2446.06C4271.18 2445.44 4292.81 2442.6 4301.73 2437.19C4310.65 2431.78 4319.8 2422.97 4320.91 2412.38C4321.25 2409.9 4321.06 2407.39 4320.36 2404.99C4319.66 2402.6 4318.47 2400.37 4316.85 2398.47C4315.24 2396.57 4313.24 2395.02 4310.99 2393.94C4308.74 2392.86 4306.29 2392.26 4303.79 2392.19C4288.74 2392.19 4273.24 2414.5 4269.11 2427.15C4269.11 2427.88 4267.38 2435.18 4266.32 2440.54C4266.32 2437.36 4266.32 2434.12 4266.32 2431.06C4266.32 2419.91 4267.05 2409.31 4267.77 2400.06C4268.22 2394.81 4268.72 2390.07 4269.22 2385.67C4273.57 2382.71 4290.97 2370.39 4296.32 2361.64C4301.67 2352.88 4305.86 2340.67 4301.9 2330.8C4301.06 2328.45 4299.73 2326.29 4298.01 2324.48C4296.28 2322.67 4294.19 2321.25 4291.87 2320.3C4289.56 2319.36 4287.07 2318.91 4284.57 2318.99C4282.07 2319.07 4279.61 2319.67 4277.36 2320.77C4263.98 2327.68 4260.64 2354.56 4262.7 2367.83C4262.7 2368.94 4267.94 2386.51 4268.28 2386.39C4267.66 2390.63 4267.11 2395.2 4266.55 2400.22C4265.66 2409.42 4264.71 2419.85 4264.43 2431.28C4264.02 2443.57 4264.32 2455.88 4265.32 2468.14C4266.4 2481.89 4268.68 2495.53 4272.12 2508.89V2509.34C4269.78 2505.6 4262.81 2495.46 4262.14 2494.73C4253.39 2484.58 4230.42 2470.09 4216.59 2476C4214.32 2477.03 4212.29 2478.54 4210.64 2480.41C4208.98 2482.28 4207.74 2484.48 4207 2486.86C4206.25 2489.24 4206.01 2491.76 4206.3 2494.24C4206.59 2496.72 4207.4 2499.11 4208.67 2501.26C4213.8 2509.84 4226.07 2514.47 4235.99 2515.92Z" fill="#263238"/>
<path d="M1586.88 2280.96C1586.88 2280.96 1593.85 2279.56 1651.01 2262.84C1687.61 2251.11 1721.01 2231.07 1748.58 2204.29L1730.46 2089.99L1614.76 2106.71L1586.88 2280.96Z" fill="#90CAF9" stroke="#263238" stroke-linecap="round" stroke-linejoin="round"/>
<path d="M1302.52 2668.47C1302.52 2668.47 1283 2707.5 1280.22 2743.75C1277.43 2779.99 1298.34 2792.53 1305.31 2782.78C1312.28 2773.02 1323.43 2738.17 1324.82 2722.84L1329 2676.84L1302.52 2668.47Z" fill="white" stroke="#263238" stroke-linecap="round" stroke-linejoin="round"/>
<path d="M1815.83 2693.56C1815.83 2693.56 1810.25 2743.75 1808.74 2767.44C1807.24 2791.14 1836.62 2813.44 1840.75 2814.89C1844.88 2816.34 1849.11 2814.89 1856.08 2798.17C1863.05 2781.44 1863.11 2741.01 1858.98 2728.47C1854.86 2715.92 1846.49 2696.41 1846.49 2696.41L1815.83 2693.56Z" fill="white" stroke="#263238" stroke-linecap="round" stroke-linejoin="round"/>
<path d="M1620.34 1958.96C1620.34 1958.96 1564.08 2025.86 1544.56 2081.62C1525.05 2137.38 1509.49 2206.41 1496.28 2243.32C1485.23 2274.85 1475.93 2306.96 1468.4 2339.5C1468.4 2339.5 1432.16 2375.74 1422.4 2407.81C1412.64 2439.87 1298.34 2676.84 1298.34 2676.84C1298.34 2676.84 1305.31 2686.59 1310.88 2687.99C1316.46 2689.38 1329 2682.41 1329 2682.41C1329 2682.41 1531.13 2417.56 1543.67 2398.05C1556.22 2378.53 1595.81 2333.37 1599.99 2326.4C1604.17 2319.43 1635.67 2222.41 1646.82 2208.47C1655.08 2197.36 1662.32 2185.53 1668.46 2173.12L1676.82 2178.7L1686.58 2180.09C1686.58 2180.09 1730.46 2268.41 1741.61 2304.65C1752.76 2340.9 1784.82 2538.84 1793.19 2575.08C1801.55 2611.32 1812.7 2706.11 1812.7 2706.11C1817.74 2707.77 1822.86 2709.16 1828.04 2710.29C1835.01 2711.69 1853.13 2706.11 1853.13 2706.11C1853.13 2706.11 1885.19 2561.14 1886.58 2510.96C1887.98 2460.78 1878.22 2349.26 1878.22 2332.53C1878.22 2315.8 1853.13 2085.8 1840.58 2055.14C1828.04 2024.47 1786.22 1970.11 1786.22 1970.11L1620.34 1958.96Z" fill="#263238" stroke="#263238" stroke-linecap="round" stroke-linejoin="round"/>
<path d="M1702.58 1695.5L1618.95 1721.98C1618.95 1721.98 1618.95 1883.68 1620.34 1904.59C1621.73 1925.5 1610.58 1960.35 1617.55 1968.71C1624.52 1977.08 1657.98 2010.53 1719.31 2011.93C1780.64 2013.32 1797.37 1993.8 1797.37 1993.8L1809.92 1939.44C1809.92 1939.44 1850.34 1830.71 1850.34 1813.99C1850.34 1797.26 1809.92 1748.47 1786.22 1728.95C1762.52 1709.44 1702.58 1695.5 1702.58 1695.5Z" fill="white" stroke="#263238" stroke-linecap="round" stroke-linejoin="round"/>
<path d="M1486.52 1886.47C1468.71 1898.46 1450.08 1909.17 1430.76 1918.53L1319.25 1974.29L1331.79 2000.77C1358.99 1995.92 1386.45 1992.66 1414.04 1991.02C1450.28 1989.62 1511.61 1965.93 1515.79 1958.96C1519.98 1951.99 1533.91 1914.35 1533.91 1914.35L1486.52 1886.47Z" fill="white" stroke="#263238" stroke-linecap="round" stroke-linejoin="round"/>
<path d="M1691.43 1696.89C1691.43 1696.89 1631.49 1861.38 1628.7 1885.08C1625.91 1908.77 1602.22 1968.71 1600.82 1977.08C1599.43 1985.44 1560.4 2070.47 1560.4 2070.47C1560.4 2070.47 1602.22 1939.44 1606.4 1912.95C1608.69 1896.02 1606.77 1878.79 1600.82 1862.77C1600.82 1862.77 1572.55 1922.77 1568.37 1926.95C1564.19 1931.13 1535.81 1979.03 1535.81 1979.03L1486.52 1886.47C1486.52 1886.47 1540.88 1791.68 1552.04 1776.35C1563.19 1761.01 1586.88 1719.2 1603.61 1710.83C1620.34 1702.47 1691.43 1696.89 1691.43 1696.89Z" fill="#90CAF9" stroke="#263238" stroke-linecap="round" stroke-linejoin="round"/>
<path d="M1773.67 1717.8C1773.67 1717.8 1730.46 1899.02 1730.46 1928.29C1730.46 1957.56 1726.28 2048.17 1722.1 2098.35C1717.91 2148.53 1709.55 2308.84 1709.55 2308.84C1736.3 2312.93 1763.43 2313.87 1790.4 2311.62C1829.43 2307.44 1896.34 2280.96 1896.34 2280.96C1896.34 2280.96 1861.49 2105.32 1847.55 2063.5C1835.83 2027.35 1826.06 1990.58 1818.28 1953.38C1818.28 1949.2 1855.92 1826.53 1855.92 1809.8C1855.92 1793.08 1789.01 1721.98 1773.67 1717.8Z" fill="#90CAF9" stroke="#263238" stroke-linecap="round" stroke-linejoin="round"/>
<path d="M1282.11 1984.77C1282.94 1974.2 1281.02 1963.6 1276.54 1953.99C1268.95 1939.05 1264.83 1934.42 1276.98 1937.71C1289.14 1941 1296.27 1964.81 1296.27 1964.81L1282.11 1984.77Z" fill="white" stroke="#263238" stroke-linecap="round" stroke-linejoin="round"/>
<path d="M1360.56 1994.81C1360.56 1994.81 1344.62 2020.01 1335.03 2017.72C1325.44 2015.44 1282.89 1994.14 1282.11 1984.77C1281.33 1975.4 1289.42 1947.25 1296.44 1948.47C1303.47 1949.7 1360.56 1994.81 1360.56 1994.81Z" fill="white" stroke="#263238" stroke-linecap="round" stroke-linejoin="round"/>
<path d="M1832.55 1546.79C1836.19 1557.61 1838.93 1568.71 1840.75 1579.97C1840.23 1586.83 1838.96 1593.62 1836.96 1600.21C1836.96 1600.21 1859.76 1620.51 1861.05 1625.58C1862.33 1630.65 1848.39 1638.24 1848.39 1638.24C1848.39 1638.24 1849.62 1691.43 1849.62 1695.22C1849.62 1699.01 1787.56 1701.58 1787.56 1701.58L1722.71 1777.57L1692.32 1702.86L1706.26 1661.04C1706.26 1661.04 1664.44 1636.95 1679.67 1600.21C1694.89 1563.47 1729.07 1543.23 1763.3 1538.15C1785.59 1535.24 1808.21 1536.08 1830.21 1540.66L1832.55 1546.79Z" fill="white" stroke="#263238" stroke-linecap="round" stroke-linejoin="round"/>
<path d="M1787.33 1701.58L1755.55 1695.5L1753.71 1738.27L1787.33 1701.58Z" fill="#263238" stroke="#263238" stroke-linecap="round" stroke-linejoin="round"/>
<path d="M1823.74 1605.12C1823.74 1609.58 1822.13 1613.15 1820.06 1613.15C1818 1613.15 1816.38 1609.58 1816.38 1605.12C1816.38 1600.66 1818.06 1597.14 1820.06 1597.14C1822.07 1597.14 1823.74 1600.71 1823.74 1605.12Z" fill="#263238"/>
<path d="M1811.48 1592.24C1811.48 1592.24 1815.16 1584.88 1828.65 1588.56" stroke="#263238" stroke-linecap="round" stroke-linejoin="round"/>
<path d="M1842.2 1651.23C1842.2 1651.23 1826.2 1653.68 1819.9 1645.04" stroke="#263238" stroke-linecap="round" stroke-linejoin="round"/>
<path d="M1835.45 1562.24C1835.45 1562.24 1793.69 1552.09 1786.05 1567.31C1778.41 1582.53 1784.82 1590.12 1778.47 1604.06C1772.11 1618 1748.08 1635.73 1748.08 1635.73C1748.08 1635.73 1725.27 1610.36 1717.64 1623.01C1710 1635.67 1712.56 1654.68 1720.2 1661.04C1727.84 1667.4 1749.31 1663.55 1749.31 1663.55L1716.41 1678.77C1716.41 1678.77 1717.64 1697.78 1687.25 1705.37C1656.86 1712.95 1620.34 1692.71 1625.19 1667.4C1630.04 1642.08 1672.03 1626.86 1672.03 1626.86C1672.03 1626.86 1627.42 1572.39 1664.44 1532.07C1701.47 1491.76 1773.39 1510.55 1773.39 1510.55C1773.39 1510.55 1783.54 1499.4 1812.42 1496.61C1841.31 1493.82 1854.24 1523.21 1854.24 1539.71C1854.24 1556.22 1835.45 1562.24 1835.45 1562.24Z" fill="#263238" stroke="#263238" stroke-linecap="round" stroke-linejoin="round"/>
<path d="M3939.42 1141.04L3924.53 853.445L3677.3 987.766L3682.87 1010.07L3776.38 1057.8L3336.4 1920.09L1940 2299.8L974.663 1640.97C966.109 1635.13 955.584 1632.92 945.404 1634.84C935.225 1636.76 926.224 1642.64 920.383 1651.2C914.542 1659.75 912.338 1670.28 914.257 1680.46C916.176 1690.64 922.06 1699.64 930.615 1705.48L1910.61 2374.41C1917.18 2378.89 1924.96 2381.27 1932.92 2381.21C1936.37 2381.21 1939.8 2380.75 1943.12 2379.81L3373.59 1990.9C3378.84 1989.48 3383.73 1986.97 3387.96 1983.54C3392.18 1980.12 3395.64 1975.84 3398.12 1971L3845.97 1093.48L3939.42 1141.04Z" fill="#263238" stroke="#263238" stroke-linecap="round" stroke-linejoin="round"/>
<path d="M3933.84 1118.74L3918.95 831.143L3677.3 987.766L3770.81 1035.49L3330.82 1897.79L1934.42 2277.5L969.088 1618.67C960.533 1612.82 950.009 1610.62 939.829 1612.54C929.65 1614.46 920.649 1620.34 914.808 1628.9C908.967 1637.45 906.763 1647.98 908.682 1658.16C910.601 1668.34 916.485 1677.34 925.04 1683.18L1905.04 2352.1C1911.61 2356.59 1919.39 2358.96 1927.34 2358.91C1930.79 2358.91 1934.22 2358.44 1937.55 2357.51L3368.01 1968.6C3373.26 1967.18 3378.16 1964.67 3382.38 1961.24C3386.61 1957.81 3390.07 1953.54 3392.54 1948.7L3840.39 1071.18L3933.84 1118.74Z" fill="#90CAF9" stroke="#263238" stroke-linecap="round" stroke-linejoin="round"/>
<path d="M3893.64 880.934L3733 984.922L3808.33 1023.34L3350.06 1921.65L1929.29 2307.78L953.532 1641.69C952.32 1640.87 950.958 1640.29 949.523 1639.99C948.088 1639.69 946.608 1639.68 945.169 1639.96C943.729 1640.23 942.358 1640.79 941.133 1641.59C939.908 1642.4 938.854 1643.44 938.031 1644.65C936.36 1647.09 935.727 1650.09 936.271 1653C936.814 1655.91 938.491 1658.48 940.93 1660.15L1921.15 2329.24C1923.01 2330.51 1925.2 2331.19 1927.45 2331.19C1928.43 2331.17 1929.4 2331.04 1930.35 2330.8L3360.82 1941.84C3362.31 1941.44 3363.71 1940.75 3364.92 1939.79C3366.13 1938.83 3367.12 1937.63 3367.84 1936.26L3828.35 1033.93L3903.68 1072.35L3893.64 880.934Z" fill="white"/>
<path d="M1803.67 2020.51L1796.03 2049.9C1787.37 2066.57 1777.33 2082.5 1766.03 2097.51C1747.63 2121.88 1681.56 2189.85 1681.56 2189.85L1662.88 2212.88L1660.71 2233.06L1675.87 2238.92C1675.87 2238.92 1683.46 2241.87 1689.65 2245.05C1695.83 2248.23 1711.95 2251.13 1716.91 2247.39C1721.87 2243.66 1733.64 2213.38 1733.64 2213.38L1738.1 2190.02C1738.1 2190.02 1816.61 2128.4 1834.56 2109.72C1852.51 2091.05 1868.02 2074.26 1873.26 2063.45C1878.5 2052.63 1874.2 2019.45 1874.2 2019.45L1803.67 2020.51Z" fill="white" stroke="#263238" stroke-linecap="round" stroke-linejoin="round"/>
<path d="M1801.72 1877.99L1787.95 2026.09C1801.06 2030.8 1814.47 2034.64 1828.09 2037.57C1850.12 2042.26 1896.12 2030.1 1896.12 2030.1C1896.12 2030.1 1889.04 1906.82 1879.84 1861.71C1870.64 1816.61 1844.99 1782.87 1828.48 1777.24" fill="#90CAF9"/>
<path d="M1801.72 1877.99L1787.95 2026.09C1801.06 2030.8 1814.47 2034.64 1828.09 2037.57C1850.12 2042.26 1896.12 2030.1 1896.12 2030.1C1896.12 2030.1 1889.04 1906.82 1879.84 1861.71C1870.64 1816.61 1844.99 1782.87 1828.48 1777.24" stroke="#263238" stroke-linecap="round" stroke-linejoin="round"/>
<path d="M3567.68 2782.78H4576.89" stroke="#263238" stroke-linecap="round" stroke-linejoin="round"/>
<path d="M3445.01 2782.78H3517.5" stroke="#263238" stroke-linecap="round" stroke-linejoin="round"/>
<path d="M1621.73 2782.78H3383.68" stroke="#263238" stroke-linecap="round" stroke-linejoin="round"/>
<path d="M779.79 2782.78H1571.55" stroke="#263238" stroke-linecap="round" stroke-linejoin="round"/>
</g>
<defs>
<filter id="filter0_f_2108_1261" x="1077.44" y="239.443" width="5261.11" height="4291.11" filterUnits="userSpaceOnUse" color-interpolation-filters="sRGB">
<feFlood flood-opacity="0" result="BackgroundImageFix"/>
<feBlend mode="normal" in="SourceGraphic" in2="BackgroundImageFix" result="shape"/>
<feGaussianBlur stdDeviation="284.278" result="effect1_foregroundBlur_2108_1261"/>
</filter>
<linearGradient id="paint0_linear_2108_1261" x1="3708" y1="808" x2="3708" y2="3962" gradientUnits="userSpaceOnUse">
<stop stop-color="#16B6F0" stop-opacity="0.36"/>
<stop offset="1" stop-color="#1653F0" stop-opacity="0.6"/>
</linearGradient>
<linearGradient id="paint1_linear_2108_1261" x1="1049.5" y1="3665.68" x2="1049.5" y2="6441.82" gradientUnits="userSpaceOnUse">
<stop stop-color="#EAF0FF" stop-opacity="0.05"/>
<stop offset="1" stop-color="#EAF0FF"/>
</linearGradient>
<clipPath id="clip0_2108_1261">
<rect width="5371" height="3529" fill="white"/>
</clipPath>
</defs>
</svg>
