<svg width="5371" height="3529" viewBox="0 0 5371 3529" fill="none" xmlns="http://www.w3.org/2000/svg">
<g clip-path="url(#clip0_2108_1044)">
<rect width="5371" height="3529" fill="#EAF0FF"/>
<g filter="url(#filter0_f_2108_1044)">
<ellipse cx="3708" cy="2385" rx="2062" ry="1577" fill="url(#paint0_linear_2108_1044)" fill-opacity="0.5"/>
</g>
<rect y="589" width="2099" height="6141" fill="url(#paint1_linear_2108_1044)"/>
<path d="M4160.2 3036.92H3895.24V3038.92H4160.2V3036.92Z" fill="#EBEBEB"/>
<path d="M3210.76 3058.68H3141.24V3060.68H3210.76V3058.68Z" fill="#EBEBEB"/>
<path d="M3887.24 2962.68H3733.72V2964.68H3887.24V2962.68Z" fill="#EBEBEB"/>
<path d="M1326.2 2976.12H980.68V2978.12H1326.2V2976.12Z" fill="#EBEBEB"/>
<path d="M1448.12 2976.12H1397.48V2978.12H1448.12V2976.12Z" fill="#EBEBEB"/>
<path d="M2362.2 3009.88H1612.76V3011.88H2362.2V3009.88Z" fill="#EBEBEB"/>
<path d="M2468.2 2551.4H923.4C911.285 2551.4 899.666 2546.59 891.099 2538.02C882.532 2529.45 877.72 2517.83 877.72 2505.72V334.28C877.825 322.234 882.684 310.718 891.24 302.238C899.795 293.757 911.354 289 923.4 289H2468.2C2474.2 289 2480.14 290.182 2485.68 292.477C2491.22 294.773 2496.26 298.138 2500.5 302.379C2504.74 306.621 2508.11 311.657 2510.4 317.199C2512.7 322.741 2513.88 328.681 2513.88 334.68V2505.72C2513.88 2511.72 2512.7 2517.66 2510.4 2523.2C2508.11 2528.74 2504.74 2533.78 2500.5 2538.02C2496.26 2542.26 2491.22 2545.63 2485.68 2547.92C2480.14 2550.22 2474.2 2551.4 2468.2 2551.4ZM923.4 290.6C911.822 290.621 900.724 295.23 892.537 303.417C884.35 311.604 879.741 322.702 879.72 334.28V2505.72C879.741 2517.3 884.35 2528.4 892.537 2536.58C900.724 2544.77 911.822 2549.38 923.4 2549.4H2468.2C2479.78 2549.38 2490.88 2544.77 2499.06 2536.58C2507.25 2528.4 2511.86 2517.3 2511.88 2505.72V334.28C2511.86 322.702 2507.25 311.604 2499.06 303.417C2490.88 295.23 2479.78 290.621 2468.2 290.6H923.4Z" fill="#EBEBEB"/>
<path d="M4198.6 2551.4H2653.8C2641.69 2551.4 2630.07 2546.59 2621.5 2538.02C2612.93 2529.45 2608.12 2517.83 2608.12 2505.72V334.28C2608.23 322.234 2613.08 310.718 2621.64 302.238C2630.2 293.757 2641.75 289 2653.8 289H4198.6C4210.72 289 4222.33 293.813 4230.9 302.379C4239.47 310.946 4244.28 322.565 4244.28 334.68V2505.72C4244.28 2517.83 4239.47 2529.45 4230.9 2538.02C4222.33 2546.59 4210.72 2551.4 4198.6 2551.4ZM2653.8 290.6C2642.22 290.621 2631.12 295.23 2622.94 303.417C2614.75 311.604 2610.14 322.702 2610.12 334.28V2505.72C2610.14 2517.3 2614.75 2528.4 2622.94 2536.58C2631.12 2544.77 2642.22 2549.38 2653.8 2549.4H4198.6C4210.18 2549.38 4221.28 2544.77 4229.46 2536.58C4237.65 2528.4 4242.26 2517.3 4242.28 2505.72V334.28C4242.26 322.702 4237.65 311.604 4229.46 303.417C4221.28 295.23 4210.18 290.621 4198.6 290.6H2653.8Z" fill="#EBEBEB"/>
<path d="M4561 2908.2H561V2910.2H4561V2908.2Z" fill="#EBEBEB"/>
<path d="M1288.04 1906.04L1165.8 1868.28C1164.03 1867.64 1162.55 1866.39 1161.6 1864.77C1160.66 1863.14 1160.32 1861.23 1160.65 1859.38C1160.97 1857.53 1161.94 1855.85 1163.38 1854.64C1164.82 1853.43 1166.64 1852.76 1168.52 1852.76L1309.48 1860.2C1276.2 1802.36 1256.52 1766.2 1234.12 1720.92C1233.37 1719.21 1233.25 1717.29 1233.78 1715.49C1234.3 1713.7 1235.43 1712.14 1236.98 1711.1C1238.53 1710.05 1240.4 1709.58 1242.26 1709.77C1244.11 1709.96 1245.85 1710.79 1247.16 1712.12C1277.24 1745.96 1302.44 1773.4 1343.16 1816.68C1352.76 1760.68 1363.96 1709.08 1377.88 1657.32C1378.24 1655.2 1379.43 1653.31 1381.18 1652.06C1382.94 1650.82 1385.12 1650.32 1387.24 1650.68C1389.36 1651.04 1391.25 1652.23 1392.5 1653.99C1393.74 1655.74 1394.24 1657.92 1393.88 1660.04C1390.14 1701.74 1388.78 1743.62 1389.8 1785.48L1393.64 1786.84C1427.45 1748.23 1462.95 1711.13 1500.12 1675.56C1501.62 1674.39 1503.48 1673.79 1505.38 1673.86C1507.28 1673.94 1509.09 1674.69 1510.48 1675.98C1511.88 1677.27 1512.77 1679.02 1513 1680.9C1513.22 1682.79 1512.77 1684.7 1511.72 1686.28C1475.77 1731.87 1442.57 1779.55 1412.28 1829.08C1460.6 1810.84 1509.19 1793.16 1558.04 1776.04C1559.88 1775.51 1561.85 1775.66 1563.59 1776.47C1565.33 1777.27 1566.73 1778.67 1567.52 1780.41C1568.32 1782.16 1568.46 1784.13 1567.92 1785.97C1567.39 1787.81 1566.21 1789.4 1564.6 1790.44C1513.96 1819.16 1463.88 1848.52 1413.88 1878.92L1542.76 1919.96C1544.54 1920.61 1546.04 1921.86 1546.98 1923.51C1547.92 1925.15 1548.25 1927.08 1547.9 1928.94C1547.55 1930.8 1546.56 1932.48 1545.09 1933.68C1543.62 1934.88 1541.77 1935.52 1539.88 1935.48L1407.48 1927.48C1433.64 1958.12 1451.8 1979.16 1473 2002.92C1474.19 2004.38 1474.84 2006.21 1474.81 2008.1C1474.78 2009.98 1474.09 2011.8 1472.86 2013.23C1471.62 2014.65 1469.93 2015.6 1468.06 2015.89C1466.2 2016.19 1464.29 2015.81 1462.68 2014.84C1436.04 1997.16 1412.6 1981.48 1378.52 1958.84C1382.04 1986.04 1385 2006.84 1388.6 2027.8C1388.8 2029.68 1388.33 2031.57 1387.26 2033.14C1386.2 2034.71 1384.62 2035.84 1382.79 2036.35C1380.97 2036.86 1379.03 2036.71 1377.31 2035.92C1375.59 2035.13 1374.2 2033.75 1373.4 2032.04C1364.52 2009.4 1356.44 1986.92 1346.2 1957C1307.72 2141 1317.64 2319.64 1354.84 2502.68L1308.76 2494.68C1281.6 2314.89 1288.93 2131.57 1330.36 1954.52C1307.24 1978.52 1290.36 1996.36 1274.36 2014.44C1273 2015.77 1271.22 2016.57 1269.32 2016.71C1267.43 2016.84 1265.55 2016.3 1264.02 2015.17C1262.49 2014.04 1261.41 2012.41 1260.97 2010.56C1260.54 2008.71 1260.77 2006.77 1261.64 2005.08C1272.52 1987 1284.28 1968.68 1300.12 1944.92C1258.92 1953.96 1230.76 1960.2 1199.64 1967.24C1197.77 1967.58 1195.85 1967.24 1194.21 1966.29C1192.56 1965.33 1191.32 1963.83 1190.68 1962.04C1190.05 1960.25 1190.07 1958.3 1190.74 1956.53C1191.42 1954.75 1192.7 1953.28 1194.36 1952.36C1222.28 1937.4 1249 1924.6 1288.04 1906.04Z" fill="#EBEBEB"/>
<path d="M1223 1969.64L1316.92 1919.88C1319.27 1918.69 1321.1 1916.67 1322.05 1914.21C1322.99 1911.75 1322.99 1909.03 1322.05 1906.57C1321.1 1904.11 1319.28 1902.08 1316.92 1900.89C1314.57 1899.7 1311.86 1899.43 1309.32 1900.12L1193.4 1929C1212.28 1874.6 1224.2 1837.96 1235.88 1797.64C1236.6 1795.16 1236.38 1792.5 1235.28 1790.16C1234.18 1787.82 1232.26 1785.96 1229.89 1784.93C1227.52 1783.9 1224.85 1783.77 1222.39 1784.57C1219.93 1785.36 1217.84 1787.02 1216.52 1789.24C1197.48 1821.24 1179.32 1850.04 1152.52 1892.52C1136.52 1849.16 1119.64 1808.92 1101.4 1769.4C1100.25 1767.04 1098.28 1765.19 1095.85 1764.2C1093.42 1763.21 1090.72 1763.15 1088.25 1764.03C1085.78 1764.91 1083.72 1766.67 1082.47 1768.98C1081.22 1771.28 1080.87 1773.97 1081.48 1776.52C1089.48 1807.88 1096.12 1839.48 1101.24 1870.44L1097.72 1872.52C1067.32 1848.84 1036.23 1826.15 1004.44 1804.44C1002.23 1802.91 999.514 1802.27 996.85 1802.66C994.186 1803.05 991.768 1804.43 990.084 1806.53C988.399 1808.63 987.574 1811.29 987.774 1813.98C987.973 1816.66 989.183 1819.17 991.16 1821C1024.65 1851.67 1056.65 1883.83 1087.16 1917.48C1046.04 1910.39 1004.84 1903.61 963.56 1897.16C960.951 1896.8 958.301 1897.42 956.121 1898.89C953.942 1900.37 952.388 1902.61 951.761 1905.17C951.134 1907.72 951.478 1910.42 952.726 1912.74C953.975 1915.06 956.039 1916.83 958.52 1917.72C1004.12 1933.72 1049.4 1949.72 1094.52 1966.76L994.6 2020.84C992.149 2022.01 990.236 2024.07 989.254 2026.6C988.272 2029.13 988.295 2031.94 989.317 2034.45C990.339 2036.97 992.284 2039 994.753 2040.12C997.223 2041.25 1000.03 2041.39 1002.6 2040.52L1110.2 2013.24C1094.2 2040.52 1082.68 2061.24 1070.2 2081.88C1068.83 2084.11 1068.34 2086.76 1068.8 2089.33C1069.26 2091.9 1070.65 2094.21 1072.71 2095.82C1074.76 2097.43 1077.34 2098.23 1079.94 2098.06C1082.55 2097.9 1085 2096.78 1086.84 2094.92L1145 2038.04C1145.96 2054.04 1146.76 2068.28 1147.24 2081.4C1147.35 2084.03 1148.42 2086.52 1150.26 2088.4C1152.09 2090.29 1154.56 2091.42 1157.19 2091.59C1159.81 2091.76 1162.41 2090.95 1164.47 2089.32C1166.53 2087.69 1167.92 2085.35 1168.36 2082.76C1171 2066.76 1173.56 2050.12 1176.36 2030.2C1248.36 2203.88 1272.36 2381.08 1269.64 2567.88L1313.4 2551.08C1306.52 2369.37 1265.09 2190.64 1191.32 2024.44C1207.96 2036.12 1221.88 2046.04 1234.6 2055.4C1236.72 2057.27 1239.5 2058.21 1242.32 2058.03C1245.14 2057.85 1247.77 2056.56 1249.64 2054.44C1251.51 2052.32 1252.45 2049.54 1252.27 2046.72C1252.09 2043.9 1250.8 2041.27 1248.68 2039.4C1240.04 2030.2 1230.52 2020.44 1219.56 2009.24C1251.56 2010.12 1276.04 2010.84 1299.56 2011.64C1302.15 2011.7 1304.67 2010.81 1306.65 2009.14C1308.64 2007.47 1309.94 2005.14 1310.32 2002.58C1310.71 2000.01 1310.14 1997.4 1308.73 1995.22C1307.33 1993.05 1305.17 1991.46 1302.68 1990.76C1279.32 1984.44 1255.08 1977.96 1223 1969.64Z" fill="#F0F0F0"/>
<path d="M1388.84 2070.6L1318.76 2033.4C1317.15 2032.53 1315.92 2031.1 1315.28 2029.39C1314.65 2027.68 1314.66 2025.79 1315.32 2024.08C1315.98 2022.38 1317.23 2020.97 1318.85 2020.12C1320.47 2019.28 1322.34 2019.05 1324.12 2019.48L1410.44 2041C1396.36 2000.52 1387.64 1973.64 1379 1943.56C1378.13 1941.7 1378.03 1939.58 1378.73 1937.65C1379.43 1935.72 1380.86 1934.15 1382.72 1933.28C1384.58 1932.41 1386.7 1932.31 1388.63 1933.01C1390.56 1933.71 1392.13 1935.14 1393 1937C1407.24 1960.52 1420.6 1982.12 1440.52 2013.72C1452.6 1981.32 1465.08 1951.32 1478.76 1921.8C1479.57 1920.13 1480.96 1918.82 1482.68 1918.11C1484.4 1917.41 1486.32 1917.37 1488.07 1917.99C1489.81 1918.62 1491.27 1919.87 1492.15 1921.5C1493.03 1923.13 1493.28 1925.04 1492.84 1926.84C1486.68 1950.84 1481.64 1974.84 1477.8 1998.12L1480.04 1999.4C1503.08 1981.43 1526.71 1964.23 1550.92 1947.8C1551.7 1947.19 1552.59 1946.74 1553.54 1946.48C1554.49 1946.21 1555.48 1946.13 1556.47 1946.25C1557.45 1946.37 1558.39 1946.68 1559.25 1947.17C1560.11 1947.65 1560.87 1948.3 1561.48 1949.08C1562.09 1949.86 1562.54 1950.75 1562.81 1951.7C1563.07 1952.65 1563.15 1953.64 1563.03 1954.62C1562.91 1955.61 1562.6 1956.55 1562.11 1957.41C1561.63 1958.27 1560.98 1959.03 1560.2 1959.64C1534.97 1982.52 1510.97 2006.52 1488.2 2031.64C1518.92 2026.31 1549.75 2021.21 1580.68 2016.36C1582.55 2016.04 1584.47 2016.44 1586.06 2017.48C1587.65 2018.52 1588.78 2020.13 1589.24 2021.97C1589.69 2023.81 1589.44 2025.76 1588.52 2027.42C1587.6 2029.08 1586.08 2030.33 1584.28 2030.92C1550.31 2042.71 1516.41 2054.92 1482.6 2067.56L1557 2107.56C1558.64 2108.42 1559.9 2109.86 1560.54 2111.59C1561.19 2113.32 1561.17 2115.23 1560.5 2116.95C1559.83 2118.67 1558.54 2120.09 1556.89 2120.92C1555.25 2121.76 1553.35 2121.96 1551.56 2121.48L1471.56 2101.16C1483.32 2121.72 1492.2 2137.08 1501.4 2152.68C1502.29 2154.24 1502.58 2156.07 1502.24 2157.84C1501.89 2159.6 1500.92 2161.18 1499.51 2162.3C1498.1 2163.41 1496.34 2163.98 1494.54 2163.9C1492.74 2163.83 1491.03 2163.11 1489.72 2161.88L1446.68 2119.56C1445.88 2132.28 1445.32 2143.16 1444.92 2153.32C1444.89 2155.21 1444.15 2157.02 1442.84 2158.38C1441.54 2159.75 1439.77 2160.58 1437.88 2160.7C1436 2160.82 1434.14 2160.23 1432.67 2159.04C1431.2 2157.85 1430.23 2156.15 1429.96 2154.28C1427.96 2142.2 1425.96 2129.24 1423.72 2113.8C1371.08 2240.44 1353.96 2369.8 1355.72 2505.8L1323.72 2493.56C1328.74 2361.07 1358.93 2230.76 1412.68 2109.56C1399.8 2118.68 1388.68 2126.36 1379.24 2133.56C1377.74 2134.75 1375.83 2135.33 1373.92 2135.16C1372.01 2135 1370.23 2134.11 1368.96 2132.68C1367.68 2131.25 1367 2129.38 1367.05 2127.46C1367.1 2125.54 1367.89 2123.72 1369.24 2122.36C1376.04 2115.16 1383.4 2107.48 1392.12 2098.36L1331.64 2100.12C1329.78 2100.19 1327.97 2099.58 1326.54 2098.39C1325.11 2097.2 1324.17 2095.53 1323.9 2093.69C1323.63 2091.85 1324.05 2089.98 1325.08 2088.44C1326.11 2086.89 1327.68 2085.78 1329.48 2085.32C1346.52 2081.64 1364.6 2076.84 1388.84 2070.6Z" fill="#F5F5F5"/>
<path d="M1191.32 2906.84H1429.88C1437.92 2906.85 1445.66 2903.8 1451.52 2898.3C1457.37 2892.79 1460.91 2885.26 1461.4 2877.24L1486.68 2465.72C1487.8 2447.56 1133.4 2447.56 1134.68 2465.72L1159.96 2877.24C1160.45 2885.23 1163.96 2892.74 1169.79 2898.24C1175.61 2903.74 1183.31 2906.81 1191.32 2906.84Z" fill="#F0F0F0"/>
<path d="M1177 1956.04C1173.9 1953.48 1171.49 1950.19 1169.99 1946.45C1168.5 1942.72 1167.96 1938.67 1168.44 1934.68L1173.8 1889.08L1161.56 1910.28C1159.87 1913.26 1157.55 1915.84 1154.78 1917.85C1152.01 1919.86 1148.83 1921.25 1145.48 1921.93C1142.12 1922.62 1138.65 1922.57 1135.32 1921.8C1131.98 1921.04 1128.84 1919.56 1126.12 1917.48L1102.12 1899.4L1123.96 1934.68C1127.02 1939.57 1128.22 1945.39 1127.34 1951.09C1126.46 1956.79 1123.56 1961.99 1119.16 1965.72L1090.92 1989.72L1118.6 1983.4C1124.47 1982.02 1130.64 1982.91 1135.88 1985.87C1141.13 1988.84 1145.07 1993.66 1146.92 1999.4L1156.44 2028.52L1162.52 1997.56C1163.18 1994.28 1164.52 1991.18 1166.45 1988.44C1168.38 1985.71 1170.86 1983.41 1173.72 1981.7C1176.59 1979.98 1179.79 1978.88 1183.11 1978.47C1186.43 1978.06 1189.8 1978.35 1193 1979.32L1211.64 1984.76L1177 1956.04Z" fill="#E6E6E6"/>
<path d="M1335.96 1877.48C1338.24 1875.62 1340 1873.21 1341.09 1870.49C1342.18 1867.76 1342.56 1864.8 1342.2 1861.88L1338.28 1828.52L1347.24 1844.04C1348.47 1846.21 1350.16 1848.09 1352.18 1849.56C1354.2 1851.03 1356.51 1852.04 1358.96 1852.54C1361.41 1853.04 1363.93 1853.02 1366.37 1852.46C1368.8 1851.9 1371.09 1850.83 1373.08 1849.32L1390.6 1836.12L1374.6 1861.88C1372.39 1865.45 1371.53 1869.7 1372.17 1873.85C1372.82 1878 1374.93 1881.79 1378.12 1884.52L1398.76 1902.28L1378.52 1897.64C1374.24 1896.66 1369.76 1897.32 1365.94 1899.48C1362.12 1901.64 1359.25 1905.15 1357.88 1909.32L1350.92 1930.6L1346.44 1907.96C1345.96 1905.56 1344.99 1903.29 1343.58 1901.28C1342.18 1899.28 1340.38 1897.59 1338.29 1896.32C1336.2 1895.05 1333.87 1894.23 1331.44 1893.9C1329.02 1893.58 1326.55 1893.76 1324.2 1894.44L1310.6 1898.44L1335.96 1877.48Z" fill="#F5F5F5"/>
<path d="M1430.28 2068.44C1431.9 2067.07 1433.15 2065.33 1433.93 2063.36C1434.71 2061.39 1435 2059.26 1434.76 2057.16L1431.96 2033.16L1438.36 2044.28C1439.26 2045.83 1440.47 2047.17 1441.93 2048.22C1443.38 2049.26 1445.04 2049.99 1446.79 2050.34C1448.55 2050.7 1450.36 2050.68 1452.1 2050.28C1453.85 2049.88 1455.49 2049.12 1456.92 2048.04L1469.48 2038.52L1458.04 2057C1456.52 2059.54 1455.93 2062.53 1456.38 2065.45C1456.84 2068.37 1458.3 2071.05 1460.52 2073L1475.32 2085.72L1460.84 2082.36C1457.81 2081.64 1454.62 2082.06 1451.88 2083.53C1449.14 2085.01 1447.03 2087.44 1445.96 2090.36L1441 2105.64L1437.8 2089.64C1437.46 2087.91 1436.76 2086.28 1435.75 2084.83C1434.75 2083.39 1433.45 2082.17 1431.94 2081.26C1430.43 2080.35 1428.75 2079.76 1427.01 2079.54C1425.26 2079.32 1423.49 2079.46 1421.8 2079.96L1412.04 2082.84L1430.28 2068.44Z" fill="#E6E6E6"/>
<path d="M3638.12 934.28H3428.76C3422.93 934.28 3418.2 939.008 3418.2 944.84V985.56C3418.2 991.392 3422.93 996.12 3428.76 996.12H3638.12C3643.95 996.12 3648.68 991.392 3648.68 985.56V944.84C3648.68 939.008 3643.95 934.28 3638.12 934.28Z" fill="#F5F5F5"/>
<path d="M3567.72 1010.92H3358.36C3352.53 1010.92 3347.8 1015.65 3347.8 1021.48V1062.2C3347.8 1068.03 3352.53 1072.76 3358.36 1072.76H3567.72C3573.55 1072.76 3578.28 1068.03 3578.28 1062.2V1021.48C3578.28 1015.65 3573.55 1010.92 3567.72 1010.92Z" fill="#F5F5F5"/>
<path d="M3808.92 1010.92H3599.56C3593.73 1010.92 3589 1015.65 3589 1021.48V1062.2C3589 1068.03 3593.73 1072.76 3599.56 1072.76H3808.92C3814.75 1072.76 3819.48 1068.03 3819.48 1062.2V1021.48C3819.48 1015.65 3814.75 1010.92 3808.92 1010.92Z" fill="#F0F0F0"/>
<path d="M3920.84 442.04H3697.48C3691.65 442.04 3686.92 446.768 3686.92 452.6V497.08C3686.92 502.912 3691.65 507.64 3697.48 507.64H3920.84C3926.67 507.64 3931.4 502.912 3931.4 497.08V452.6C3931.4 446.768 3926.67 442.04 3920.84 442.04Z" fill="#F5F5F5"/>
<path d="M3920.84 604.76H3697.48C3691.65 604.76 3686.92 609.488 3686.92 615.32V659.8C3686.92 665.632 3691.65 670.36 3697.48 670.36H3920.84C3926.67 670.36 3931.4 665.632 3931.4 659.8V615.32C3931.4 609.488 3926.67 604.76 3920.84 604.76Z" fill="#F5F5F5"/>
<path d="M3846.2 523.32H3622.84C3617.01 523.32 3612.28 528.048 3612.28 533.88V578.36C3612.28 584.192 3617.01 588.92 3622.84 588.92H3846.2C3852.03 588.92 3856.76 584.192 3856.76 578.36V533.88C3856.76 528.048 3852.03 523.32 3846.2 523.32Z" fill="#F5F5F5"/>
<path d="M4102.04 523.32H3878.68C3872.85 523.32 3868.12 528.048 3868.12 533.88V578.36C3868.12 584.192 3872.85 588.92 3878.68 588.92H4102.04C4107.87 588.92 4112.6 584.192 4112.6 578.36V533.88C4112.6 528.048 4107.87 523.32 4102.04 523.32Z" fill="#F0F0F0"/>
<path d="M2312.44 2434.6H3848.84V2390.44H2312.44V2434.6Z" fill="#F5F5F5"/>
<path d="M3837.4 2434.6H4181.56V2390.44H3837.4V2434.6Z" fill="#EBEBEB"/>
<path d="M2472.12 2541.96V2434.6H2400.52L2472.12 2541.96Z" fill="#E0E0E0"/>
<path d="M2436.36 2541.96L2364.76 2434.6H2400.52L2472.12 2541.96H2436.36Z" fill="#FAFAFA"/>
<path d="M4125.48 2541.96V2434.6H4053.88L4125.48 2541.96Z" fill="#E0E0E0"/>
<path d="M4089.64 2541.96L4018.12 2434.6H4053.88L4125.48 2541.96H4089.64Z" fill="#FAFAFA"/>
<path d="M3935.64 2396.44H3976.12C3980.43 2396.44 3984.7 2395.58 3988.67 2393.89C3992.64 2392.2 3996.22 2389.73 3999.21 2386.62C4002.2 2383.51 4004.53 2379.83 4006.06 2375.8C4007.59 2371.77 4008.29 2367.47 4008.12 2363.16L4003 2210.68H3908.6L3903.48 2363.16C3903.31 2367.48 3904.01 2371.79 3905.55 2375.84C3907.09 2379.88 3909.44 2383.57 3912.44 2386.68C3915.45 2389.79 3919.05 2392.26 3923.04 2393.93C3927.03 2395.61 3931.31 2396.46 3935.64 2396.44Z" fill="#F0F0F0"/>
<path d="M3763.98 2299.87C3799.03 2264.82 3799.03 2207.98 3763.98 2172.93C3728.93 2137.88 3672.09 2137.88 3637.04 2172.93C3601.99 2207.98 3601.99 2264.82 3637.04 2299.87C3672.09 2334.92 3728.93 2334.92 3763.98 2299.87Z" fill="#F0F0F0"/>
<path d="M3694.28 2395.08H3706.76V2335.64H3700.52C3687.26 2336.02 3674.06 2333.73 3661.7 2328.92C3649.34 2324.1 3638.07 2316.86 3628.56 2307.61C3619.05 2298.37 3611.49 2287.31 3606.33 2275.09C3601.16 2262.87 3598.5 2249.74 3598.5 2236.48C3598.5 2223.22 3601.16 2210.09 3606.33 2197.87C3611.49 2185.65 3619.05 2174.59 3628.56 2165.35C3638.07 2156.1 3649.34 2148.86 3661.7 2144.04C3674.06 2139.23 3687.26 2136.94 3700.52 2137.32V2124.76C3672.4 2126.22 3645.86 2138.22 3626.19 2158.37C3606.52 2178.51 3595.15 2205.33 3594.37 2233.48C3593.58 2261.63 3603.43 2289.04 3621.94 2310.25C3640.46 2331.47 3666.28 2344.93 3694.28 2347.96V2395.08Z" fill="#EBEBEB"/>
<path d="M3647.8 2396.44H3754.52C3754.52 2390.08 3751.99 2383.97 3747.49 2379.47C3742.99 2374.97 3736.88 2372.44 3730.52 2372.44H3671.64C3665.27 2372.44 3659.17 2374.97 3654.67 2379.47C3650.17 2383.97 3647.64 2390.08 3647.64 2396.44H3647.8Z" fill="#EBEBEB"/>
<path d="M3941.72 2396.44L3857.4 2312.12L3773 2396.44H3941.72Z" fill="#F5F5F5"/>
<path d="M3857.4 2312.12L3941.72 2396.44H3857.4V2312.12Z" fill="#E6E6E6"/>
<path d="M3269.48 2286.12C3269.88 2294.12 3270.12 2300.52 3270.12 2304.76C3270.12 2322.22 3266.31 2339.47 3258.96 2355.3C3251.61 2371.13 3240.9 2385.17 3227.56 2396.44H3079.32C3066.03 2385.19 3055.35 2371.19 3048.01 2355.4C3040.67 2339.61 3036.86 2322.41 3036.84 2305C3036.84 2300.76 3036.84 2294.36 3037.48 2286.36L3269.48 2286.12Z" fill="#F5F5F5"/>
<path d="M3249 2351.8C3249 2360.3 3250.85 2368.7 3254.43 2376.41C3258.01 2384.12 3263.23 2390.96 3269.72 2396.44H3341.72C3349.99 2389.39 3356.17 2380.2 3359.56 2369.88C3360.99 2370.14 3362.43 2370.27 3363.88 2370.28C3378.36 2370.28 3394.52 2358.76 3394.52 2343.4C3394.52 2328.04 3385.24 2316.52 3371.4 2316.52C3368.19 2316.55 3365.01 2317.06 3361.96 2318.04V2317C3361.92 2313.28 3360.4 2309.73 3357.75 2307.12C3355.1 2304.51 3351.52 2303.06 3347.8 2303.08H3263.4C3261.54 2303.04 3259.69 2303.36 3257.95 2304.04C3256.22 2304.72 3254.63 2305.74 3253.29 2307.03C3251.95 2308.33 3250.88 2309.88 3250.15 2311.59C3249.41 2313.3 3249.02 2315.14 3249 2317C3249 2333.08 3249 2346.2 3249 2351.8ZM3361.8 2361.16C3362.37 2358.07 3362.67 2354.94 3362.68 2351.8C3362.68 2347.48 3362.68 2338.76 3362.68 2327.8C3365.59 2326.44 3368.75 2325.71 3371.96 2325.64C3385.08 2325.64 3386.12 2339.32 3386.12 2343.56C3386.12 2353.48 3374.28 2361.48 3364.44 2361.48L3361.8 2361.16Z" fill="#EBEBEB"/>
<path d="M2580.52 2396.44L2592.28 2261.32H2421L2409.16 2396.44H2580.52Z" fill="#F0F0F0"/>
<path d="M2580.52 2396.44L2592.28 2261.32H2601.56L2589.72 2396.44H2580.52Z" fill="#E0E0E0"/>
<path d="M2564.2 2382.68L2573.64 2275.16H2437.24L2427.8 2382.68H2564.2Z" fill="#FAFAFA"/>
<path d="M2553.8 2373.8L2561.64 2283.96H2447.72L2439.8 2373.8H2553.8Z" fill="#EBEBEB"/>
<path d="M2773.64 2396.44H2601.56L2620.6 2178.2H2792.76L2773.64 2396.44Z" fill="#F0F0F0"/>
<path d="M2773.64 2396.44H2781.88L2801 2178.2H2792.76L2773.64 2396.44Z" fill="#E0E0E0"/>
<path d="M2758.04 2374.2H2621L2636.2 2200.44H2773.24L2758.04 2374.2Z" fill="#E0E0E0"/>
<path d="M2748.04 2359.88H2633.56L2646.28 2214.76H2760.76L2748.04 2359.88Z" fill="#FAFAFA"/>
<path d="M2665.38 2293.48L2676.64 2304.73C2686.57 2314.67 2702.68 2314.67 2712.61 2304.73L2723.87 2293.48C2733.81 2283.54 2733.81 2267.43 2723.87 2257.5L2712.61 2246.24C2702.68 2236.31 2686.57 2236.31 2676.64 2246.24L2665.38 2257.5C2655.44 2267.43 2655.44 2283.54 2665.38 2293.48Z" fill="#EBEBEB"/>
<path d="M2659.85 2335.24L2665.4 2340.78C2675.33 2350.72 2691.44 2350.72 2701.37 2340.78L2706.92 2335.24C2716.85 2325.3 2716.85 2309.19 2706.92 2299.26L2701.37 2293.72C2691.44 2283.78 2675.33 2283.78 2665.4 2293.72L2659.85 2299.26C2649.92 2309.19 2649.92 2325.3 2659.85 2335.24Z" fill="#E6E6E6"/>
<path d="M1116.12 838.92H1360.6C1366.43 838.92 1371.16 834.192 1371.16 828.36V778.2C1371.16 772.368 1366.43 767.64 1360.6 767.64H1116.12C1110.29 767.64 1105.56 772.368 1105.56 778.2V828.36C1105.56 834.192 1110.29 838.92 1116.12 838.92Z" fill="#F5F5F5"/>
<path d="M1240.12 750.6H1484.6C1490.43 750.6 1495.16 745.872 1495.16 740.04V689.88C1495.16 684.048 1490.43 679.32 1484.6 679.32H1240.12C1234.29 679.32 1229.56 684.048 1229.56 689.88V740.04C1229.56 745.872 1234.29 750.6 1240.12 750.6Z" fill="#F5F5F5"/>
<path d="M962.2 750.6H1206.68C1212.51 750.6 1217.24 745.872 1217.24 740.04V689.88C1217.24 684.048 1212.51 679.32 1206.68 679.32H962.2C956.368 679.32 951.64 684.048 951.64 689.88V740.04C951.64 745.872 956.368 750.6 962.2 750.6Z" fill="#F0F0F0"/>
<path d="M2561 3238.68C3417.66 3238.68 4112.12 3198.14 4112.12 3148.12C4112.12 3098.11 3417.66 3057.56 2561 3057.56C1704.34 3057.56 1009.88 3098.11 1009.88 3148.12C1009.88 3198.14 1704.34 3238.68 2561 3238.68Z" fill="#F5F5F5"/>
<path d="M3702.92 500.92H3234.92C3152.61 500.92 3085.88 567.647 3085.88 649.96V1920.2C3085.88 2002.51 3152.61 2069.24 3234.92 2069.24H3702.92C3785.23 2069.24 3851.96 2002.51 3851.96 1920.2V649.96C3851.96 567.647 3785.23 500.92 3702.92 500.92Z" fill="#90CAF9"/>
<path opacity="0.3" d="M3704.6 500.92H3233.24C3151.86 500.92 3085.88 566.895 3085.88 648.28V1921.88C3085.88 2003.26 3151.86 2069.24 3233.24 2069.24H3704.6C3785.98 2069.24 3851.96 2003.26 3851.96 1921.88V648.28C3851.96 566.895 3785.98 500.92 3704.6 500.92Z" fill="black"/>
<path d="M3851.96 577.88V889H3085.88V577.88C3085.88 557.469 3093.99 537.894 3108.42 523.461C3122.85 509.028 3142.43 500.92 3162.84 500.92H3775C3795.41 500.92 3814.99 509.028 3829.42 523.461C3843.85 537.894 3851.96 557.469 3851.96 577.88Z" fill="#90CAF9"/>
<path d="M3628.84 1822.52H3309C3265.52 1822.52 3230.28 1857.76 3230.28 1901.24V1907.24C3230.28 1950.72 3265.52 1985.96 3309 1985.96H3628.84C3672.32 1985.96 3707.56 1950.72 3707.56 1907.24V1901.24C3707.56 1857.76 3672.32 1822.52 3628.84 1822.52Z" fill="#90CAF9"/>
<path d="M3345 1916.76C3345 1931.64 3333.08 1941.56 3314.44 1943.08L3311.96 1955.4H3300.76L3303.24 1943.08C3294.08 1942.52 3285.23 1939.57 3277.56 1934.52L3285 1920.68C3291.23 1925.14 3298.51 1927.89 3306.12 1928.68L3309.96 1909.8C3299.56 1906.68 3288.12 1902.52 3288.12 1889C3288.12 1874.12 3300.36 1864.04 3319.32 1862.76L3321.8 1850.44H3333L3330.52 1862.84C3337.77 1863.41 3344.79 1865.6 3351.08 1869.24L3344.28 1883.08C3339.28 1879.83 3333.57 1877.83 3327.64 1877.24L3323.72 1896.92C3334.04 1899.88 3345 1903.88 3345 1916.76ZM3313 1893.72L3316.2 1877.72C3309.88 1878.92 3306.28 1882.36 3306.2 1886.68C3306.12 1891 3309.16 1892.04 3313 1893.72ZM3326.84 1919.64C3326.84 1916.44 3324.28 1914.36 3320.36 1912.92L3317.32 1928.28C3323.56 1927 3327 1923.88 3327 1919.64H3326.84Z" fill="white"/>
<path d="M3658.36 1488.12H3262.92V1504.12H3658.36V1488.12Z" fill="#90CAF9"/>
<path d="M3658.36 1225.4H3262.92V1241.4H3658.36V1225.4Z" fill="#90CAF9"/>
<path d="M3658.36 972.2H3262.92V988.2H3658.36V972.2Z" fill="#90CAF9"/>
<path d="M3506.13 1154.77C3533 1127.9 3533 1084.34 3506.13 1057.47C3479.26 1030.6 3435.7 1030.6 3408.83 1057.47C3381.96 1084.34 3381.96 1127.9 3408.83 1154.77C3435.7 1181.63 3479.26 1181.63 3506.13 1154.77Z" fill="#90CAF9"/>
<path d="M3506.68 1091.24L3467.16 1130.84L3448.68 1149.32L3430.2 1130.84L3448.68 1112.36L3488.2 1072.76L3506.68 1091.24Z" fill="white"/>
<path d="M3467.16 1130.84L3448.68 1149.32L3409.48 1110.12L3427.96 1091.64L3448.68 1112.36L3467.16 1130.84Z" fill="white"/>
<path d="M3457.48 1428.76C3495.48 1428.76 3526.28 1397.96 3526.28 1359.96C3526.28 1321.96 3495.48 1291.16 3457.48 1291.16C3419.48 1291.16 3388.68 1321.96 3388.68 1359.96C3388.68 1397.96 3419.48 1428.76 3457.48 1428.76Z" fill="#90CAF9"/>
<path d="M3506.68 1345.08L3467.16 1384.68L3448.68 1403.16L3430.2 1384.68L3448.68 1366.2L3488.2 1326.6L3506.68 1345.08Z" fill="white"/>
<path d="M3467.16 1384.68L3448.68 1403.16L3409.48 1363.96L3427.96 1345.48L3448.68 1366.2L3467.16 1384.68Z" fill="white"/>
<path d="M3457.48 1701C3495.48 1701 3526.28 1670.2 3526.28 1632.2C3526.28 1594.2 3495.48 1563.4 3457.48 1563.4C3419.48 1563.4 3388.68 1594.2 3388.68 1632.2C3388.68 1670.2 3419.48 1701 3457.48 1701Z" fill="#90CAF9"/>
<path d="M3506.68 1617.32L3467.16 1656.92L3448.68 1675.4L3430.2 1656.92L3448.68 1638.44L3488.2 1598.84L3506.68 1617.32Z" fill="white"/>
<path d="M3467.16 1656.92L3448.68 1675.4L3409.48 1636.2L3427.96 1617.72L3448.68 1638.44L3467.16 1656.92Z" fill="white"/>
<path d="M3367.32 778.76L3380.2 799.32L3403.72 805.16L3388.12 823.8L3389.8 848.04L3367.32 838.92L3344.76 848.04L3346.44 823.8L3330.84 805.16L3354.44 799.32L3367.32 778.76Z" fill="white"/>
<path d="M3457.48 778.76L3470.36 799.32L3493.96 805.16L3478.36 823.8L3480.04 848.04L3457.48 838.92L3435 848.04L3436.68 823.8L3421.08 805.16L3444.6 799.32L3457.48 778.76Z" fill="white"/>
<path d="M3547.72 778.76L3560.52 799.32L3584.12 805.16L3568.52 823.8L3570.2 848.04L3547.72 838.92L3525.16 848.04L3526.84 823.8L3511.24 805.16L3534.84 799.32L3547.72 778.76Z" fill="white"/>
<path d="M4607.04 679H4139.04C4056.73 679 3990 745.728 3990 828.04V2098.28C3990 2180.59 4056.73 2247.32 4139.04 2247.32H4607.04C4689.35 2247.32 4756.08 2180.59 4756.08 2098.28V828.04C4756.08 745.728 4689.35 679 4607.04 679Z" fill="#90CAF9"/>
<path opacity="0.3" d="M4608.72 679H4137.36C4055.98 679 3990 744.975 3990 826.36V2099.96C3990 2181.34 4055.98 2247.32 4137.36 2247.32H4608.72C4690.1 2247.32 4756.08 2181.34 4756.08 2099.96V826.36C4756.08 744.975 4690.1 679 4608.72 679Z" fill="#1100FF"/>
<path d="M4756.08 755.96V1067.08H3990V755.96C3990 735.549 3998.11 715.974 4012.54 701.541C4026.97 687.108 4046.55 679 4066.96 679H4679.12C4699.53 679 4719.11 687.108 4733.54 701.541C4747.97 715.974 4756.08 735.549 4756.08 755.96Z" fill="#90CAF9"/>
<path d="M4532.96 2000.6H4213.12C4169.64 2000.6 4134.4 2035.84 4134.4 2079.32V2085.32C4134.4 2128.8 4169.64 2164.04 4213.12 2164.04H4532.96C4576.44 2164.04 4611.68 2128.8 4611.68 2085.32V2079.32C4611.68 2035.84 4576.44 2000.6 4532.96 2000.6Z" fill="#90CAF9"/>
<path d="M4249.12 2094.84C4249.12 2109.72 4237.2 2119.64 4218.56 2121.16L4216.08 2133.48H4204.88L4207.36 2121.16C4198.2 2120.6 4189.35 2117.65 4181.68 2112.6L4189.12 2098.76C4195.35 2103.22 4202.62 2105.97 4210.24 2106.76L4214.08 2087.88C4203.68 2084.76 4192.24 2080.6 4192.24 2067.08C4192.24 2052.2 4204.48 2042.12 4223.44 2040.84L4225.92 2028.52H4237.12L4234.64 2040.92C4241.89 2041.49 4248.91 2043.68 4255.2 2047.32L4248.4 2061.16C4243.4 2057.91 4237.69 2055.91 4231.76 2055.32L4227.84 2075C4238.16 2077.96 4249.12 2081.96 4249.12 2094.84ZM4217.12 2071.8L4220.32 2055.8C4214 2057 4210.4 2060.44 4210.32 2064.76C4210.24 2069.08 4213.28 2070.12 4217.12 2071.8ZM4230.96 2097.72C4230.96 2094.52 4228.4 2092.44 4224.48 2091L4221.44 2106.36C4227.68 2105.08 4231.12 2101.96 4231.12 2097.72H4230.96Z" fill="white"/>
<path d="M4562.48 1666.2H4167.04V1682.2H4562.48V1666.2Z" fill="#90CAF9"/>
<path d="M4562.48 1403.48H4167.04V1419.48H4562.48V1403.48Z" fill="#90CAF9"/>
<path d="M4562.48 1150.28H4167.04V1166.28H4562.48V1150.28Z" fill="#90CAF9"/>
<path d="M4410.25 1332.85C4437.12 1305.98 4437.12 1262.42 4410.25 1235.55C4383.38 1208.68 4339.82 1208.68 4312.95 1235.55C4286.08 1262.42 4286.08 1305.98 4312.95 1332.85C4339.82 1359.71 4383.38 1359.71 4410.25 1332.85Z" fill="#90CAF9"/>
<path d="M4410.8 1269.32L4371.28 1308.92L4352.8 1327.4L4334.32 1308.92L4352.8 1290.44L4392.32 1250.84L4410.8 1269.32Z" fill="white"/>
<path d="M4371.28 1308.92L4352.8 1327.4L4313.6 1288.2L4332.08 1269.72L4352.8 1290.44L4371.28 1308.92Z" fill="white"/>
<path d="M4361.6 1606.84C4399.6 1606.84 4430.4 1576.04 4430.4 1538.04C4430.4 1500.04 4399.6 1469.24 4361.6 1469.24C4323.6 1469.24 4292.8 1500.04 4292.8 1538.04C4292.8 1576.04 4323.6 1606.84 4361.6 1606.84Z" fill="#90CAF9"/>
<path d="M4410.8 1523.16L4371.28 1562.76L4352.8 1581.24L4334.32 1562.76L4352.8 1544.28L4392.32 1504.68L4410.8 1523.16Z" fill="white"/>
<path d="M4371.28 1562.76L4352.8 1581.24L4313.6 1542.04L4332.08 1523.56L4352.8 1544.28L4371.28 1562.76Z" fill="white"/>
<path d="M4361.6 1879.08C4399.6 1879.08 4430.4 1848.28 4430.4 1810.28C4430.4 1772.28 4399.6 1741.48 4361.6 1741.48C4323.6 1741.48 4292.8 1772.28 4292.8 1810.28C4292.8 1848.28 4323.6 1879.08 4361.6 1879.08Z" fill="#90CAF9"/>
<path d="M4410.8 1795.4L4371.28 1835L4352.8 1853.48L4334.32 1835L4352.8 1816.52L4392.32 1776.92L4410.8 1795.4Z" fill="white"/>
<path d="M4371.28 1835L4352.8 1853.48L4313.6 1814.28L4332.08 1795.8L4352.8 1816.52L4371.28 1835Z" fill="white"/>
<path d="M4238.44 956.84L4251.32 977.4L4274.84 983.24L4259.24 1001.88L4260.92 1026.12L4238.44 1017L4215.88 1026.12L4217.56 1001.88L4201.96 983.24L4225.56 977.4L4238.44 956.84Z" fill="white"/>
<path d="M4328.6 956.84L4341.48 977.4L4365.08 983.24L4349.48 1001.88L4351.16 1026.12L4328.6 1017L4306.12 1026.12L4307.8 1001.88L4292.2 983.24L4315.72 977.4L4328.6 956.84Z" fill="white"/>
<path d="M4418.84 956.84L4431.64 977.4L4455.24 983.24L4439.64 1001.88L4441.32 1026.12L4418.84 1017L4396.28 1026.12L4397.96 1001.88L4382.36 983.24L4405.96 977.4L4418.84 956.84Z" fill="white"/>
<path d="M4509.48 957L4522.28 977.56L4545.88 983.4L4530.28 1002.04L4531.96 1026.28L4509.48 1017.16L4486.92 1026.28L4488.6 1002.04L4473 983.4L4496.6 977.56L4509.48 957Z" fill="white"/>
<path d="M2802.84 411.641H2334.84C2252.53 411.641 2185.8 478.368 2185.8 560.681V1830.92C2185.8 1913.23 2252.53 1979.96 2334.84 1979.96H2802.84C2885.15 1979.96 2951.88 1913.23 2951.88 1830.92V560.681C2951.88 478.368 2885.15 411.641 2802.84 411.641Z" fill="#90CAF9"/>
<path opacity="0.5" d="M2797.88 411.641H2339.8C2298.96 411.641 2259.79 427.866 2230.91 456.746C2202.02 485.627 2185.8 524.797 2185.8 565.641V1825.96C2185.8 1846.19 2189.79 1866.22 2197.53 1884.91C2205.27 1903.6 2216.62 1920.58 2230.93 1934.88C2245.24 1949.18 2262.23 1960.53 2280.92 1968.26C2299.62 1976 2319.65 1979.97 2339.88 1979.96H2797.88C2818.11 1979.97 2838.14 1976 2856.84 1968.26C2875.53 1960.53 2892.52 1949.18 2906.83 1934.88C2921.13 1920.58 2932.49 1903.6 2940.23 1884.91C2947.97 1866.22 2951.96 1846.19 2951.96 1825.96V565.641C2951.96 545.41 2947.97 525.378 2940.23 506.689C2932.49 488 2921.13 471.019 2906.83 456.718C2892.52 442.417 2875.53 431.075 2856.84 423.34C2838.14 415.606 2818.11 411.63 2797.88 411.641Z" fill="white"/>
<path d="M2951.96 489V800.04H2185.8V489C2185.8 468.589 2193.91 449.014 2208.34 434.581C2222.77 420.148 2242.35 412.04 2262.76 412.04H2874.92C2895.34 412.04 2914.92 420.146 2929.37 434.576C2943.81 449.007 2951.94 468.582 2951.96 489Z" fill="#90CAF9"/>
<path d="M2735.24 1733.24H2415.4C2371.92 1733.24 2336.68 1768.48 2336.68 1811.96V1817.96C2336.68 1861.44 2371.92 1896.68 2415.4 1896.68H2735.24C2778.72 1896.68 2813.96 1861.44 2813.96 1817.96V1811.96C2813.96 1768.48 2778.72 1733.24 2735.24 1733.24Z" fill="#90CAF9"/>
<path d="M2764.84 1398.84H2369.4V1414.84H2764.84V1398.84Z" fill="#90CAF9"/>
<path d="M2764.84 1136.12H2369.4V1152.12H2764.84V1136.12Z" fill="#90CAF9"/>
<path d="M2764.84 882.92H2369.4V898.92H2764.84V882.92Z" fill="#90CAF9"/>
<path d="M2628.02 1286.48C2636.75 1249.5 2613.84 1212.45 2576.86 1203.72C2539.88 1194.99 2502.83 1217.89 2494.1 1254.87C2485.37 1291.85 2508.27 1328.91 2545.26 1337.64C2582.24 1346.37 2619.29 1323.46 2628.02 1286.48Z" fill="#90CAF9"/>
<path d="M2610.36 1255.88L2570.76 1295.4L2552.28 1313.88L2533.8 1295.4L2552.28 1277L2591.88 1237.4L2610.36 1255.88Z" fill="white"/>
<path d="M2570.76 1295.4L2552.28 1313.88L2513.16 1274.68L2531.56 1256.28L2552.28 1277L2570.76 1295.4Z" fill="white"/>
<path d="M2593.42 1606.49C2628.52 1591.95 2645.19 1551.7 2630.65 1516.6C2616.11 1481.49 2575.87 1464.82 2540.76 1479.36C2505.66 1493.9 2488.99 1534.15 2503.53 1569.25C2518.07 1604.36 2558.31 1621.03 2593.42 1606.49Z" fill="#90CAF9"/>
<path d="M2616.36 1528.04L2576.76 1567.64L2558.28 1586.12L2539.8 1567.64L2558.28 1549.16L2597.88 1509.56L2616.36 1528.04Z" fill="white"/>
<path d="M2576.76 1567.64L2558.28 1586.12L2519.16 1546.92L2537.56 1528.44L2558.28 1549.16L2576.76 1567.64Z" fill="white"/>
<path d="M2561.08 1085.64C2598.68 1085.64 2629.16 1055.16 2629.16 1017.56C2629.16 979.961 2598.68 949.48 2561.08 949.48C2523.48 949.48 2493 979.961 2493 1017.56C2493 1055.16 2523.48 1085.64 2561.08 1085.64Z" fill="#263238"/>
<path opacity="0.5" d="M2561.08 1085.64C2598.68 1085.64 2629.16 1055.16 2629.16 1017.56C2629.16 979.961 2598.68 949.48 2561.08 949.48C2523.48 949.48 2493 979.961 2493 1017.56C2493 1055.16 2523.48 1085.64 2561.08 1085.64Z" fill="white"/>
<path d="M2581.28 979.064L2522.62 1037.73L2540.89 1056L2599.55 997.336L2581.28 979.064Z" fill="white"/>
<path d="M2522.66 997.359L2581.33 1056.02L2599.6 1037.75L2540.94 979.087L2522.66 997.359Z" fill="white"/>
<path d="M2875.4 497.72V680.28L2913.96 641.8V497.72H2875.4Z" fill="#90CAF9"/>
<path d="M2952.44 497.72V680.28L2913.96 641.8V497.72H2952.44Z" fill="#90CAF9"/>
<path d="M2519.4 682L2532.28 702.64L2555.88 708.48L2540.28 727.12L2541.96 751.28L2519.4 742.24L2496.92 751.28L2498.6 727.12L2483 708.48L2506.6 702.64L2519.4 682Z" fill="white"/>
<path d="M2610.4 682L2623.28 702.64L2646.88 708.48L2631.28 727.12L2632.96 751.28L2610.4 742.24L2587.92 751.28L2589.6 727.12L2574 708.48L2597.6 702.64L2610.4 682Z" fill="white"/>
<path d="M2453.96 1827.72C2453.96 1842.6 2442.04 1852.52 2423.4 1854.12L2420.92 1866.36H2409.72L2412.2 1854.12C2403.04 1853.5 2394.19 1850.52 2386.52 1845.48L2393.96 1831.64C2400.19 1836.1 2407.46 1838.85 2415.08 1839.64L2418.92 1820.76C2408.52 1817.64 2397.08 1813.48 2397.08 1799.96C2397.08 1785.08 2409.32 1775.08 2428.28 1773.72L2430.76 1761.4H2441.96L2439.48 1773.8C2446.72 1774.37 2453.75 1776.56 2460.04 1780.2L2453.24 1794.04C2448.21 1790.81 2442.47 1788.83 2436.52 1788.28L2432.68 1807.88C2442.92 1810.84 2453.96 1814.84 2453.96 1827.72ZM2421.96 1804.68L2425.16 1788.68C2418.84 1789.88 2415.24 1793.4 2415.16 1797.64C2415.08 1801.88 2418.04 1803 2422.04 1804.68H2421.96ZM2435.8 1830.6C2435.8 1827.4 2433.24 1825.4 2429.32 1823.96L2426.28 1839.24C2432.44 1838.04 2435.88 1834.84 2435.88 1830.6H2435.8Z" fill="white"/>
<path d="M1887.08 500.92H1419.08C1336.77 500.92 1270.04 567.647 1270.04 649.96V1920.2C1270.04 2002.51 1336.77 2069.24 1419.08 2069.24H1887.08C1969.39 2069.24 2036.12 2002.51 2036.12 1920.2V649.96C2036.12 567.647 1969.39 500.92 1887.08 500.92Z" fill="#263238"/>
<path opacity="0.7" d="M1884.76 500.92H1421.4C1337.81 500.92 1270.04 568.686 1270.04 652.28V1917.88C1270.04 2001.47 1337.81 2069.24 1421.4 2069.24H1884.76C1968.35 2069.24 2036.12 2001.47 2036.12 1917.88V652.28C2036.12 568.686 1968.35 500.92 1884.76 500.92Z" fill="white"/>
<path d="M2036.12 577.88V889H1270.04V577.88C1270.04 557.469 1278.15 537.894 1292.58 523.461C1307.01 509.028 1326.59 500.92 1347 500.92H1959.16C1979.57 500.92 1999.15 509.028 2013.58 523.461C2028.01 537.894 2036.12 557.469 2036.12 577.88Z" fill="#90CAF9"/>
<path d="M2036.12 577.88V889H1270.04V577.88C1270.04 557.469 1278.15 537.894 1292.58 523.461C1307.01 509.028 1326.59 500.92 1347 500.92H1959.16C1979.57 500.92 1999.15 509.028 2013.58 523.461C2028.01 537.894 2036.12 557.469 2036.12 577.88Z" fill="#90CAF9"/>
<path d="M1689.84 1422.43C1716.42 1395.84 1716.42 1352.74 1689.84 1326.15C1663.25 1299.56 1620.14 1299.56 1593.56 1326.15C1566.97 1352.74 1566.97 1395.84 1593.56 1422.43C1620.14 1449.01 1663.25 1449.01 1689.84 1422.43Z" fill="#263238"/>
<path opacity="0.5" d="M1689.84 1422.43C1716.42 1395.84 1716.42 1352.74 1689.84 1326.15C1663.25 1299.56 1620.14 1299.56 1593.56 1326.15C1566.97 1352.74 1566.97 1395.84 1593.56 1422.43C1620.14 1449.01 1663.25 1449.01 1689.84 1422.43Z" fill="white"/>
<path d="M1661.84 1335.82L1603.17 1394.48L1621.45 1412.75L1680.11 1354.09L1661.84 1335.82Z" fill="white"/>
<path d="M1603.18 1354.16L1661.84 1412.83L1680.11 1394.55L1621.45 1335.89L1603.18 1354.16Z" fill="white"/>
<path d="M1644.84 1694.68C1682.84 1694.68 1713.64 1663.88 1713.64 1625.88C1713.64 1587.88 1682.84 1557.08 1644.84 1557.08C1606.84 1557.08 1576.04 1587.88 1576.04 1625.88C1576.04 1663.88 1606.84 1694.68 1644.84 1694.68Z" fill="#90CAF9"/>
<path d="M1694.12 1611L1654.52 1650.6L1636.04 1669.08L1617.56 1650.6L1636.04 1632.12L1675.64 1592.52L1694.12 1611Z" fill="white"/>
<path d="M1654.52 1650.6L1636.04 1669.08L1596.92 1629.88L1615.32 1611.4L1636.04 1632.12L1654.52 1650.6Z" fill="white"/>
<path d="M1813 1822.52H1493.16C1449.68 1822.52 1414.44 1857.76 1414.44 1901.24V1907.24C1414.44 1950.72 1449.68 1985.96 1493.16 1985.96H1813C1856.48 1985.96 1891.72 1950.72 1891.72 1907.24V1901.24C1891.72 1857.76 1856.48 1822.52 1813 1822.52Z" fill="#90CAF9"/>
<path d="M1517.88 1919.72C1517.88 1934.6 1505.96 1944.52 1487.24 1946.04L1484.84 1958.36H1473.64L1476.12 1946.04C1466.94 1945.46 1458.06 1942.51 1450.36 1937.48L1457.88 1923.64C1464.11 1928.1 1471.39 1930.85 1479 1931.64L1482.76 1912.76C1472.44 1909.64 1461 1905.48 1461 1891.96C1461 1877.08 1473.16 1867 1492.2 1865.72L1494.68 1853.4H1505.8L1503.4 1865.8C1510.65 1866.37 1517.67 1868.56 1523.96 1872.2L1517.08 1886.04C1512.08 1882.78 1506.38 1880.78 1500.44 1880.2L1496.52 1899.88C1506.84 1902.84 1517.88 1906.84 1517.88 1919.72ZM1485.88 1896.68L1489.08 1880.68C1482.68 1881.88 1479.16 1885.32 1479 1889.64C1478.84 1893.96 1481.88 1895 1485.96 1897L1485.88 1896.68ZM1499.72 1922.6C1499.72 1919.4 1497.16 1917.32 1493.24 1915.88L1490.2 1931.24C1496.28 1929.96 1499.8 1926.84 1499.8 1922.6H1499.72Z" fill="white"/>
<path d="M1842.6 1488.12H1447.16V1504.12H1842.6V1488.12Z" fill="#90CAF9"/>
<path d="M1842.6 1225.4H1447.16V1241.4H1842.6V1225.4Z" fill="#90CAF9"/>
<path d="M1842.6 972.2H1447.16V988.2H1842.6V972.2Z" fill="#90CAF9"/>
<path d="M1689.87 1154.94C1716.46 1128.36 1716.46 1085.25 1689.87 1058.66C1663.28 1032.08 1620.18 1032.08 1593.59 1058.66C1567.01 1085.25 1567.01 1128.36 1593.59 1154.94C1620.18 1181.53 1663.28 1181.53 1689.87 1154.94Z" fill="#263238"/>
<path opacity="0.5" d="M1689.87 1154.94C1716.46 1128.36 1716.46 1085.25 1689.87 1058.66C1663.28 1032.08 1620.18 1032.08 1593.59 1058.66C1567.01 1085.25 1567.01 1128.36 1593.59 1154.94C1620.18 1181.53 1663.28 1181.53 1689.87 1154.94Z" fill="white"/>
<path d="M1661.87 1068.34L1603.21 1127L1621.48 1145.27L1680.14 1086.61L1661.87 1068.34Z" fill="white"/>
<path d="M1603.22 1086.61L1661.88 1145.27L1680.15 1127L1621.49 1068.34L1603.22 1086.61Z" fill="white"/>
<path d="M1639.4 781L1652.28 801.64L1675.88 807.48L1660.28 826.12L1661.96 850.28L1639.4 841.24L1616.92 850.28L1618.6 826.12L1603 807.48L1626.6 801.64L1639.4 781Z" fill="white"/>
<path d="M2641.72 3121.96L2703.08 3133.16L2749.48 3019.96L2682.44 2993.16L2641.72 3121.96Z" fill="#FFC2BC"/>
<path opacity="0.1" d="M2663.72 3050.12L2681.24 2997.48L2712.12 3005L2749.48 3019.96L2729.48 3069.24L2663.72 3050.12Z" fill="black"/>
<path d="M2629.72 3100.68C2629.72 3100.68 2627.32 3098.52 2624.2 3096.04C2621.08 3093.56 2619.16 3092.2 2616.2 3090.12C2610.48 3085.79 2603.72 3083.03 2596.6 3082.12C2594.38 3082.17 2592.24 3082.95 2590.52 3084.36C2589.52 3085.09 2588.78 3086.12 2588.42 3087.3C2588.06 3088.49 2588.09 3089.76 2588.52 3090.92C2593.47 3096.12 2600.04 3099.48 2607.16 3100.44L2612.84 3101.64C2618.13 3102.6 2623.47 3103.27 2628.84 3103.64C2629.16 3103.64 2629.47 3103.55 2629.74 3103.38C2630.01 3103.21 2630.22 3102.97 2630.36 3102.68C2630.53 3102.33 2630.56 3101.92 2630.44 3101.55C2630.32 3101.18 2630.06 3100.87 2629.72 3100.68ZM2616.92 3099.08C2605.4 3097.16 2592.92 3093.56 2591.56 3089.48C2591.56 3088.92 2591.08 3087.88 2592.84 3086.28C2593.33 3085.83 2593.92 3085.48 2594.55 3085.26C2595.18 3085.04 2595.85 3084.95 2596.52 3085C2597.62 3085.02 2598.72 3085.15 2599.8 3085.4C2607.21 3088.26 2614.13 3092.29 2620.28 3097.32C2621.48 3098.2 2622.6 3099.16 2623.72 3100.12C2621.56 3099.88 2619.24 3099.48 2617 3099.08H2616.92Z" fill="#90CAF9"/>
<path d="M2626.6 3075.48C2624.6 3072.99 2621.75 3071.34 2618.6 3070.84C2614.04 3070.12 2612.12 3071.88 2611.4 3073.56C2609.64 3077.16 2612.36 3083.88 2616.36 3090.12C2617.92 3092.52 2619.63 3094.82 2621.48 3097C2623.35 3099.23 2625.44 3101.27 2627.72 3103.08C2627.95 3103.17 2628.21 3103.17 2628.44 3103.08C2628.7 3103.16 2628.98 3103.16 2629.24 3103.08C2629.49 3103 2629.72 3102.85 2629.9 3102.65C2630.08 3102.46 2630.21 3102.22 2630.28 3101.96C2630.63 3099.6 2630.85 3097.22 2630.92 3094.84C2631.64 3088.09 2630.12 3081.29 2626.6 3075.48ZM2627.32 3098.44C2626.52 3097.64 2625.64 3096.84 2624.84 3095.88C2618.52 3088.92 2612.6 3078.2 2614.12 3074.52C2614.12 3074.52 2614.76 3073.08 2617.8 3073.56H2618.68C2620.67 3074.04 2622.44 3075.16 2623.72 3076.76C2626.76 3082.39 2628.12 3088.78 2627.64 3095.16C2627.56 3096.44 2627.48 3097.4 2627.32 3098.44Z" fill="#90CAF9"/>
<path d="M2637.8 3096.2L2711.96 3113.96C2713.27 3114.22 2714.45 3114.93 2715.3 3115.97C2716.15 3117 2716.61 3118.3 2716.6 3119.64L2714.36 3178.68C2714.18 3181.28 2712.97 3183.71 2711.01 3185.43C2709.05 3187.15 2706.49 3188.03 2703.88 3187.88C2703.16 3187.97 2702.44 3187.97 2701.72 3187.88C2675.08 3181.08 2651.72 3174.04 2618.36 3166.12C2579.08 3156.76 2587.88 3163.48 2541.56 3153.08C2513.64 3146.76 2516.68 3116.28 2528.92 3117.64C2584.92 3124.28 2594.44 3110.6 2620.28 3097.72C2625.77 3095.23 2631.96 3094.69 2637.8 3096.2Z" fill="#263238"/>
<path d="M3083.32 3133.08H3142.04L3159.4 3035.8L3087.56 3022.36L3083.32 3133.08Z" fill="#FFC2BC"/>
<path opacity="0.1" d="M3087.56 3022.36L3159.4 3035.8L3147.72 3101.32L3085.16 3098.76L3087.56 3022.36Z" fill="black"/>
<path d="M3172.04 3083.4L3066.6 3077.4L3063.4 3035.8L3181.4 3043.88L3172.04 3083.4Z" fill="#90CAF9"/>
<path opacity="0.5" d="M3172.04 3083.4L3066.6 3077.4L3063.4 3035.8L3181.4 3043.88L3172.04 3083.4Z" fill="white"/>
<path d="M3074.76 3134.6C3074.76 3134.6 3072.04 3133.08 3068.52 3131.32C3065 3129.56 3063.24 3128.84 3060.04 3127.64C3053.79 3124.59 3046.79 3123.39 3039.88 3124.2C3037.84 3124.71 3036.09 3126.01 3035 3127.8C3034.31 3128.8 3033.94 3129.99 3033.94 3131.2C3033.94 3132.41 3034.31 3133.6 3035 3134.6C3040.61 3138.54 3047.47 3140.27 3054.28 3139.48H3059.64C3064.5 3139.17 3069.33 3138.59 3074.12 3137.72C3074.41 3137.63 3074.68 3137.46 3074.89 3137.24C3075.1 3137.02 3075.25 3136.74 3075.32 3136.44C3075.43 3136.11 3075.43 3135.76 3075.33 3135.43C3075.23 3135.1 3075.03 3134.81 3074.76 3134.6ZM3062.68 3136.12C3051.8 3136.92 3040.04 3136.12 3037.48 3132.76C3037 3132.2 3036.6 3131.32 3037.48 3129.4C3037.78 3128.82 3038.22 3128.32 3038.74 3127.93C3039.27 3127.54 3039.88 3127.28 3040.52 3127.16C3041.5 3127.04 3042.5 3127.04 3043.48 3127.16C3051.01 3128.22 3058.31 3130.51 3065.08 3133.96C3066.42 3134.44 3067.7 3135.06 3068.92 3135.8L3062.68 3136.12Z" fill="#90CAF9"/>
<path d="M3075.72 3136.04C3075.49 3133.65 3075.11 3131.27 3074.6 3128.92C3073.42 3122.06 3070.22 3115.71 3065.4 3110.68C3064.23 3109.68 3062.86 3108.94 3061.39 3108.5C3059.91 3108.06 3058.37 3107.93 3056.84 3108.12C3052.44 3108.52 3051.16 3110.68 3051 3112.52C3050.28 3116.52 3054.6 3122.52 3060.04 3127.64C3061.93 3129.55 3063.96 3131.32 3066.12 3132.92C3068.36 3134.69 3070.81 3136.2 3073.4 3137.4C3073.61 3137.48 3073.83 3137.48 3074.04 3137.4C3074.3 3137.48 3074.58 3137.48 3074.84 3137.4C3075.1 3137.28 3075.32 3137.09 3075.48 3136.85C3075.63 3136.61 3075.72 3136.33 3075.72 3136.04ZM3053.88 3113C3053.88 3112.6 3053.88 3111.48 3057 3111.16H3057.8C3059.8 3111.12 3061.74 3111.84 3063.24 3113.16C3067.36 3118 3070.13 3123.86 3071.24 3130.12C3071.48 3131.12 3071.64 3132.14 3071.72 3133.16L3068.84 3131.24C3061.56 3125.72 3053.56 3116.68 3053.88 3113Z" fill="#90CAF9"/>
<path d="M3081 3128.28L3152.52 3127.88C3153.82 3127.88 3155.09 3128.33 3156.1 3129.14C3157.12 3129.96 3157.83 3131.09 3158.12 3132.36L3171.4 3190.44C3171.68 3191.66 3171.73 3192.92 3171.52 3194.16C3171.32 3195.39 3170.87 3196.57 3170.21 3197.64C3169.55 3198.7 3168.69 3199.62 3167.67 3200.35C3166.65 3201.08 3165.5 3201.6 3164.28 3201.88H3162.28C3136.52 3201.88 3113.56 3200.28 3081.48 3200.52C3043.64 3200.52 3053.24 3205.16 3008.76 3206.04C2981.96 3206.6 2976.76 3176.12 2988.28 3174.6C3040.28 3167.72 3045.56 3151.96 3065.56 3133.24C3069.94 3129.78 3075.42 3128.01 3081 3128.28Z" fill="#263238"/>
<path d="M2950.92 1695.88L2673.96 2991.88L2776.04 3019C2852.36 2851.96 2916.36 2681 2964.04 2547C2986.68 2483.56 2996.04 2423.88 3013.08 2367.96C3033.72 2301.48 3061.48 2240.36 3075.56 2184.52C3149.56 1892.2 3143.64 1745.8 3143.64 1745.8L3159.64 1707.24L2950.92 1695.88Z" fill="#263238"/>
<path opacity="0.3" d="M3121 1974.04C3111 2033 3096.52 2103.4 3075.8 2185.16C3069.08 2211.72 3024.04 2339.64 3013.32 2368.6C3000.84 2181.4 3043.64 1864.6 3043.64 1864.6L3121 1974.04Z" fill="black"/>
<path d="M3035.96 1702.52L3056.84 2414.52L3075.16 3038.52L3171.16 3045.16C3197.96 2892.44 3217.64 2753.96 3231.72 2629.16C3241 2547.64 3225.32 2488.04 3230.28 2418.2C3231.16 2406.6 3232.04 2394.68 3233.08 2382.52C3250.06 2182.55 3251.22 1981.55 3236.52 1781.4C3233.72 1743.24 3231.8 1717.4 3231.8 1717.4L3035.72 1692.36L3035.96 1702.52Z" fill="#263238"/>
<path d="M2762.52 3055.48L2661.56 3024.36L2668.44 2983.24L2781.08 3019.4L2762.52 3055.48Z" fill="#90CAF9"/>
<path opacity="0.5" d="M2762.52 3055.48L2661.56 3024.36L2668.44 2983.24L2781.08 3019.4L2762.52 3055.48Z" fill="white"/>
<path d="M3022.2 1250.92C3003.39 1278.77 2989.36 1309.57 2980.68 1342.04C2976.4 1356.67 2973.04 1371.55 2970.6 1386.6L2963.64 1405.72L2901.88 1381.16L2892.12 1377.32C2907.16 1309.56 2965.4 1248.28 3008.6 1249.32C3013.19 1249.18 3017.77 1249.72 3022.2 1250.92Z" fill="#90CAF9"/>
<path opacity="0.2" d="M3022.2 1250.92C3003.39 1278.77 2989.36 1309.57 2980.68 1342.04C2976.4 1356.67 2973.04 1371.55 2970.6 1386.6L2963.64 1405.72L2901.88 1381.16L2892.12 1377.32C2907.16 1309.56 2965.4 1248.28 3008.6 1249.32C3013.19 1249.18 3017.77 1249.72 3022.2 1250.92Z" fill="white"/>
<path d="M2945 1689.8C2952.44 1673.16 2951.48 1640.76 2976.04 1634.6C3008.68 1626.6 3035.56 1624.2 3164.04 1635.08C3224.68 1640.28 3238.12 1688.68 3236.04 1713.56C3235.8 1716.87 3234.67 1720.05 3232.76 1722.76L3230.2 1726.44C3224.2 1728.76 2949.24 1698.28 2946.52 1699.96C2945.36 1698.57 2944.61 1696.88 2944.34 1695.09C2944.07 1693.3 2944.3 1691.47 2945 1689.8Z" fill="#90CAF9"/>
<path opacity="0.2" d="M2945 1689.8C2952.44 1673.16 2951.48 1640.76 2976.04 1634.6C3008.68 1626.6 3035.56 1624.2 3164.04 1635.08C3224.68 1640.28 3238.12 1688.68 3236.04 1713.56C3235.8 1716.87 3234.67 1720.05 3232.76 1722.76L3230.2 1726.44C3224.2 1728.76 2949.24 1698.28 2946.52 1699.96C2945.36 1698.57 2944.61 1696.88 2944.34 1695.09C2944.07 1693.3 2944.3 1691.47 2945 1689.8Z" fill="white"/>
<path d="M3011.88 1250.44C3010.12 1253.72 2955.48 1259.4 2959.8 1498.44C2960.36 1529.24 2952.52 1594.44 2952.52 1594.44L2944.52 1614.36C2941.31 1622.45 2939.89 1631.13 2940.36 1639.82C2940.83 1648.51 2943.18 1656.99 2947.24 1664.68L2951.24 1672.12L3228.28 1700.28H3236.28C3236.28 1700.28 3254.12 1555.64 3277.96 1458.92C3285.96 1427.4 3293.96 1388.68 3293.96 1388.68C3288.33 1352.24 3285.66 1315.4 3285.96 1278.52C3285.96 1278.52 3285.96 1278.12 3285.96 1278.04C3252.39 1268.09 3218.14 1260.61 3183.48 1255.64C3146.67 1250.03 3109.51 1247.01 3072.28 1246.6C3037.64 1248.44 3011.96 1250.36 3011.88 1250.44Z" fill="#90CAF9"/>
<path d="M3183.16 1130.6C3173.24 1165.88 3160.84 1230.92 3183.96 1256.84L3166.44 1275.16C3159.45 1282.32 3150.65 1287.45 3140.97 1289.99C3131.29 1292.53 3121.1 1292.38 3111.5 1289.57C3101.89 1286.76 3093.23 1281.38 3086.45 1274.03C3079.67 1266.67 3075.02 1257.6 3073 1247.8C3113.56 1241.4 3105 1200.68 3112.36 1161.4L3183.16 1130.6Z" fill="#FFC2BC"/>
<path opacity="0.2" d="M3090.84 1121C3098.84 1149.16 3110.68 1194.44 3102.2 1225.72C3138.6 1228.92 3162.76 1195.88 3164.28 1185.32C3159.8 1172.88 3156.27 1160.13 3153.72 1147.16L3090.84 1121Z" fill="black"/>
<path d="M3193.88 1075.48C3189.48 1135.48 3189 1160.92 3158.36 1191.32C3112.28 1237.16 3039.56 1218.68 3025.88 1158.68C3013.56 1104.6 3022.76 1015.72 3081.88 992.44C3094.86 987.306 3108.93 985.566 3122.77 987.383C3136.6 989.201 3149.75 994.518 3160.96 1002.83C3172.17 1011.14 3181.08 1022.18 3186.84 1034.89C3192.6 1047.6 3195.02 1061.57 3193.88 1075.48Z" fill="#FFC2BC"/>
<path d="M3228.52 1047.64C3222.42 1070.32 3218.38 1093.51 3216.44 1116.92H3193.56C3191.5 1118.97 3190.05 1121.55 3189.39 1124.38C3188.72 1127.21 3188.87 1130.17 3189.8 1132.92C3185.94 1131.23 3182.66 1128.45 3180.36 1124.92C3178.71 1121.45 3177.89 1117.64 3177.96 1113.8C3177.39 1099.07 3175.82 1084.39 3173.24 1069.88C3161.48 1065.08 3147.88 1066.36 3136.92 1059.96C3112.25 1045.91 3090.8 1026.83 3073.96 1003.96C3064.86 1008.23 3056.76 1014.37 3050.21 1022C3043.66 1029.63 3038.8 1038.56 3035.96 1048.2C3033.3 1048.72 3030.54 1048.45 3028.04 1047.41C3025.53 1046.37 3023.39 1044.61 3021.88 1042.36C3018.97 1037.78 3017.34 1032.5 3017.16 1027.08C3015.56 1012.94 3019.2 998.709 3027.4 987.08C3033.45 979.098 3042.27 973.674 3052.12 971.88C3056.3 971.952 3060.48 971.44 3064.52 970.36C3068.68 968.44 3072.52 963.48 3076.52 960.92C3085.82 955.786 3096.04 952.536 3106.6 951.355C3117.15 950.175 3127.84 951.087 3138.04 954.04C3163.37 962.294 3186.29 976.601 3204.84 995.72C3215.32 1006.04 3232.44 1033.8 3228.52 1047.64Z" fill="#263238"/>
<path d="M3214.76 1133.16C3208.89 1143.2 3199.29 1150.51 3188.04 1153.48C3173.16 1157.24 3166.04 1143.88 3170.44 1129.96C3174.44 1117.4 3187.08 1100.6 3201.8 1102.68C3206.95 1103.6 3211.53 1106.52 3214.53 1110.81C3217.53 1115.1 3218.71 1120.41 3217.8 1125.56C3217.34 1128.28 3216.31 1130.87 3214.76 1133.16Z" fill="#FFC2BC"/>
<path d="M3101 1090.52C3101 1095.8 3098.04 1099.88 3094.68 1099.96C3091.32 1100.04 3088.52 1095.64 3088.52 1090.44C3088.52 1085.24 3091.48 1081.08 3094.84 1081C3098.2 1080.92 3101 1085.32 3101 1090.52Z" fill="#263238"/>
<path d="M3041.64 1089.88C3041.64 1095.16 3038.68 1099.24 3035.24 1099.32C3031.8 1099.4 3029.08 1095 3029.16 1089.72C3029.24 1084.44 3032.04 1080.36 3035.48 1080.28C3038.92 1080.2 3041.88 1084.52 3041.64 1089.88Z" fill="#263238"/>
<path d="M3065 1100.76C3060.16 1112.69 3053.73 1123.91 3045.88 1134.12C3048.54 1136.03 3051.59 1137.34 3054.81 1137.96C3058.02 1138.58 3061.34 1138.5 3064.52 1137.72L3065 1100.76Z" fill="#EC837E"/>
<path d="M3083.16 1155.48C3080.2 1156.75 3077.12 1157.72 3073.96 1158.36C3073.61 1158.43 3073.25 1158.36 3072.95 1158.17C3072.65 1157.97 3072.44 1157.67 3072.36 1157.32C3072.33 1156.99 3072.41 1156.65 3072.6 1156.37C3072.79 1156.09 3073.08 1155.89 3073.4 1155.8C3079.87 1154.61 3085.96 1151.91 3091.19 1147.92C3096.42 1143.93 3100.63 1138.77 3103.48 1132.84C3103.56 1132.51 3103.76 1132.23 3104.04 1132.05C3104.33 1131.87 3104.67 1131.81 3105 1131.88C3105.15 1131.9 3105.29 1131.95 3105.42 1132.02C3105.55 1132.1 3105.66 1132.2 3105.75 1132.32C3105.84 1132.44 3105.9 1132.57 3105.94 1132.72C3105.98 1132.86 3105.98 1133.01 3105.96 1133.16C3101.58 1143.3 3093.39 1151.32 3083.16 1155.48Z" fill="#263238"/>
<path d="M3121.8 1060.84C3121.46 1060.96 3121.08 1060.98 3120.73 1060.89C3120.38 1060.81 3120.05 1060.62 3119.8 1060.36C3117.42 1057.91 3114.48 1056.07 3111.23 1055C3107.99 1053.93 3104.53 1053.65 3101.16 1054.2C3100.57 1054.3 3099.96 1054.17 3099.46 1053.85C3098.95 1053.52 3098.59 1053.02 3098.44 1052.44C3098.32 1052.19 3098.26 1051.92 3098.25 1051.64C3098.25 1051.36 3098.3 1051.09 3098.4 1050.83C3098.51 1050.58 3098.67 1050.35 3098.87 1050.16C3099.06 1049.96 3099.3 1049.82 3099.56 1049.72C3103.63 1049.02 3107.8 1049.32 3111.73 1050.59C3115.66 1051.86 3119.22 1054.06 3122.12 1057C3122.56 1057.4 3122.84 1057.93 3122.93 1058.51C3123.02 1059.1 3122.9 1059.69 3122.6 1060.2C3122.52 1060.36 3122.41 1060.5 3122.27 1060.61C3122.13 1060.72 3121.97 1060.8 3121.8 1060.84Z" fill="#263238"/>
<path d="M3025.96 1063.64C3025.54 1063.81 3025.09 1063.85 3024.65 1063.77C3024.21 1063.68 3023.8 1063.47 3023.48 1063.16C3023.25 1062.93 3023.06 1062.66 3022.94 1062.35C3022.81 1062.05 3022.75 1061.73 3022.75 1061.4C3022.75 1061.07 3022.81 1060.75 3022.94 1060.45C3023.06 1060.14 3023.25 1059.87 3023.48 1059.64C3026.51 1055.9 3030.39 1052.95 3034.81 1051.04C3039.23 1049.13 3044.04 1048.32 3048.84 1048.68C3049.16 1048.7 3049.48 1048.78 3049.77 1048.93C3050.06 1049.07 3050.31 1049.28 3050.52 1049.52C3050.73 1049.77 3050.89 1050.06 3050.98 1050.36C3051.08 1050.67 3051.11 1051 3051.08 1051.32C3050.98 1051.99 3050.63 1052.6 3050.09 1053.02C3049.55 1053.44 3048.88 1053.63 3048.2 1053.56C3044.24 1053.32 3040.28 1054.04 3036.66 1055.65C3033.04 1057.27 3029.86 1059.73 3027.4 1062.84C3026.99 1063.22 3026.5 1063.5 3025.96 1063.64Z" fill="#263238"/>
<path d="M3174.2 1237.72L3196.36 1258.6C3196.36 1258.6 3116.36 1314.6 3115 1311C3109.49 1303.28 3103.48 1295.93 3097 1289L3174.2 1237.72Z" fill="#90CAF9"/>
<path d="M3093.32 1235.8L3065.08 1247C3065.08 1247 3069.88 1307.48 3072.36 1304.6C3080.3 1299.33 3088.58 1294.6 3097.16 1290.44L3093.32 1235.8Z" fill="#90CAF9"/>
<path opacity="0.2" d="M3174.2 1237.72L3196.36 1258.6C3196.36 1258.6 3116.36 1314.6 3115 1311C3109.49 1303.28 3103.48 1295.93 3097 1289L3174.2 1237.72Z" fill="white"/>
<path opacity="0.2" d="M3093.32 1235.8L3065.08 1247C3065.08 1247 3069.88 1307.48 3072.36 1304.6C3080.3 1299.33 3088.58 1294.6 3097.16 1290.44L3093.32 1235.8Z" fill="white"/>
<path d="M3078.28 1485.48C3083.4 1493.08 3125.08 1485.48 3125.08 1485.48L3160.84 1487.96C3162.77 1487.98 3164.64 1487.31 3166.11 1486.06C3167.58 1484.81 3168.55 1483.07 3168.84 1481.16L3178.76 1435.96C3178.9 1434.91 3178.63 1433.85 3178 1433C3177.37 1432.15 3176.44 1431.58 3175.4 1431.4L3147.16 1426.36C3135.8 1424.28 3124.08 1426.75 3114.52 1433.24L3084.6 1453.56L3078.28 1485.48Z" fill="#FFC2BC"/>
<path d="M3086.12 1451.32L3084.28 1486.12C3084.28 1486.12 2923.48 1546.52 2877.4 1520.12C2847.16 1502.84 2877.4 1429.56 2901.88 1381L2963.64 1404.12L2943.24 1457L3086.12 1451.32Z" fill="#FFC2BC"/>
<g opacity="0.1">
<path d="M3078.28 1485.48C3083.4 1493.08 3125.08 1485.48 3125.08 1485.48L3160.84 1487.96C3162.77 1487.98 3164.64 1487.31 3166.11 1486.06C3167.58 1484.81 3168.55 1483.07 3168.84 1481.16L3178.76 1435.96C3178.9 1434.91 3178.63 1433.85 3178 1433C3177.37 1432.15 3176.44 1431.58 3175.4 1431.4L3147.16 1426.36C3135.8 1424.28 3124.08 1426.75 3114.52 1433.24L3084.6 1453.56L3078.28 1485.48Z" fill="black"/>
<path d="M3086.12 1451.32L3084.28 1486.12C3084.28 1486.12 2923.48 1546.52 2877.4 1520.12C2847.16 1502.84 2877.4 1429.56 2901.88 1381L2963.64 1404.12L2943.24 1457L3086.12 1451.32Z" fill="black"/>
</g>
<path d="M3276.44 1304.44L3157.88 1467.64L2984.2 1435.64L2976.2 1469.88C2976.2 1469.88 3144.2 1561.4 3190.36 1534.6C3236.52 1507.8 3313.56 1345.56 3313.56 1345.56L3276.44 1304.44Z" fill="#FFC2BC"/>
<path d="M2976.36 1469.8C2971.16 1477.32 2929.56 1469.24 2929.56 1469.24L2893.8 1471.24C2891.85 1471.26 2889.95 1470.56 2888.48 1469.28C2887.01 1467.99 2886.05 1466.22 2885.8 1464.28L2876.44 1419.08C2876.3 1418.03 2876.57 1416.97 2877.2 1416.12C2877.83 1415.27 2878.76 1414.7 2879.8 1414.52L2908.2 1409.8C2919.6 1407.89 2931.29 1410.53 2940.76 1417.16L2984.04 1436.76L2976.36 1469.8Z" fill="#FFC2BC"/>
<path d="M3298.92 1289C3326.84 1321.96 3318.68 1403.56 3278.44 1455.4L3180.44 1397.8C3180.44 1397.8 3237.96 1300.68 3269.64 1281.56C3283.24 1273.56 3289 1277.08 3298.92 1289Z" fill="#90CAF9"/>
<path opacity="0.2" d="M3298.92 1289C3326.84 1321.96 3318.68 1403.56 3278.44 1455.4L3180.44 1397.8C3180.44 1397.8 3237.96 1300.68 3269.64 1281.56C3283.24 1273.56 3289 1277.08 3298.92 1289Z" fill="white"/>
<path d="M2416.6 3143.64L2478.76 3152.2L2542.28 3028.2L2473.48 3016.76L2416.6 3143.64Z" fill="#FFC2BC"/>
<path opacity="0.2" d="M2473.48 3016.76L2542.28 3028.2L2507.64 3095.64L2442.52 3085.88L2473.48 3016.76Z" fill="black"/>
<path d="M2497 3129L2420.12 3124.84C2418.85 3124.73 2417.59 3125.08 2416.56 3125.83C2415.53 3126.58 2414.81 3127.68 2414.52 3128.92L2398.92 3184.92C2398.59 3186.09 2398.5 3187.32 2398.65 3188.52C2398.8 3189.73 2399.19 3190.9 2399.79 3191.95C2400.39 3193.01 2401.2 3193.94 2402.16 3194.68C2403.13 3195.42 2404.23 3195.97 2405.4 3196.28H2407.56C2432.44 3197.24 2450.36 3196.68 2481.88 3198.36C2501.16 3199.4 2559.08 3204.6 2585.88 3206.36C2612.68 3208.12 2617.32 3181.64 2606.6 3178.68C2558.6 3165.4 2522.6 3148.36 2507.64 3133.8C2504.86 3130.86 2501.04 3129.14 2497 3129Z" fill="#263238"/>
<path d="M2500.76 3137C2500.46 3136.93 2500.19 3136.75 2500 3136.5C2499.81 3136.26 2499.71 3135.95 2499.72 3135.64C2499.66 3135.35 2499.7 3135.06 2499.83 3134.79C2499.96 3134.53 2500.17 3134.32 2500.44 3134.2C2502.76 3132.92 2523.96 3121.48 2530.76 3125.4C2531.53 3125.84 2532.15 3126.48 2532.56 3127.26C2532.97 3128.04 2533.15 3128.92 2533.08 3129.8C2533.26 3131.33 2533.02 3132.89 2532.38 3134.3C2531.75 3135.7 2530.75 3136.92 2529.48 3137.8C2525.79 3140.03 2521.43 3140.91 2517.16 3140.28C2511.59 3139.83 2506.08 3138.73 2500.76 3137ZM2527.24 3128.04C2519.53 3129.03 2512.07 3131.45 2505.24 3135.16C2512.45 3138.08 2520.51 3138.08 2527.72 3135.16C2528.51 3134.54 2529.13 3133.73 2529.54 3132.81C2529.94 3131.89 2530.11 3130.88 2530.04 3129.88C2530.04 3129.53 2529.97 3129.19 2529.84 3128.88C2529.7 3128.56 2529.5 3128.27 2529.24 3128.04C2528.58 3127.88 2527.9 3127.88 2527.24 3128.04Z" fill="#90CAF9"/>
<path d="M2500.6 3138.04C2500.4 3137.86 2500.24 3137.63 2500.13 3137.39C2500.02 3137.14 2499.96 3136.87 2499.96 3136.6C2499.96 3135.64 2502.2 3117.56 2509.88 3112.04C2510.79 3111.31 2511.85 3110.79 2512.98 3110.51C2514.12 3110.24 2515.3 3110.21 2516.44 3110.44C2517.57 3110.49 2518.64 3110.93 2519.48 3111.69C2520.31 3112.45 2520.85 3113.48 2521 3114.6C2521.88 3121.32 2508.52 3134.6 2501.8 3137.8H2501.08L2500.6 3138.04ZM2515.16 3112.76C2513.94 3112.76 2512.75 3113.18 2511.8 3113.96C2507.03 3119.39 2504.01 3126.14 2503.16 3133.32C2509.96 3128.84 2518.6 3118.68 2517.96 3114.52C2517.96 3114.12 2517.96 3113 2515.96 3112.84H2515.16V3112.76Z" fill="#90CAF9"/>
<path d="M2085 2783.48L2130.52 2785.16C2206.33 2781.63 2281.6 2770.46 2355.16 2751.8C2421 2735.8 2530.12 2685.4 2530.12 2685.4C2495 2835.64 2431.72 3064.6 2431.72 3064.6L2529.48 3075.88C2529.48 3075.88 2784.04 2590.92 2671.72 2535.4C2571.32 2481.8 2182.92 2517 2182.92 2517L2142.92 2475L1871.48 2497C1871.48 2497 1819.56 2783.08 2085 2783.48Z" fill="#263238"/>
<path d="M2535.72 3095.64L2423.88 3061.72L2437.32 3015.08L2558.52 3061.24L2535.72 3095.64Z" fill="#90CAF9"/>
<path opacity="0.5" d="M2535.72 3095.64L2423.88 3061.72L2437.32 3015.08L2558.52 3061.24L2535.72 3095.64Z" fill="white"/>
<path opacity="0.4" d="M2118.68 2677.4C2145.96 2757.4 2353.24 2749.4 2382.12 2745.56C2211.48 2778.44 2179.32 2782.92 2130.52 2785.16L2085 2783.48C2070.78 2783.47 2056.59 2782.43 2042.52 2780.36C2063.64 2642.84 2085.72 2580.84 2118.68 2677.4Z" fill="black"/>
<path d="M1559.88 3005.48L1551.88 3068.36L1696.92 3092.04L1704.92 3029.08L1559.88 3005.48Z" fill="#FFC2BC"/>
<path d="M1564.76 3077.08L1609.88 3014.28C1610.6 3013.26 1610.96 3012.02 1610.89 3010.77C1610.81 3009.52 1610.32 3008.33 1609.48 3007.4L1571 2964.28C1569.33 2962.45 1567.01 2961.35 1564.53 2961.23C1562.06 2961.11 1559.64 2961.98 1557.8 2963.64C1557.35 2964.16 1557 2964.76 1556.76 2965.4C1542.52 2985.88 1533.32 3001.24 1514.92 3026.92C1503.72 3042.52 1468.04 3088.68 1452.6 3110.2C1437.16 3131.72 1456.44 3150.2 1464.68 3142.2C1501.88 3108.76 1535.24 3087.56 1555.8 3083C1559.42 3082.2 1562.61 3080.09 1564.76 3077.08Z" fill="#263238"/>
<path d="M1555.08 3075.48C1555.33 3075.32 1555.62 3075.24 1555.92 3075.24C1556.22 3075.24 1556.51 3075.32 1556.76 3075.48C1557.03 3075.6 1557.24 3075.81 1557.38 3076.07C1557.51 3076.33 1557.54 3076.63 1557.48 3076.92C1557.48 3079.64 1555.64 3103.64 1548.68 3107.16C1547.94 3107.63 1547.08 3107.88 1546.2 3107.88C1545.32 3107.88 1544.46 3107.63 1543.72 3107.16C1542.37 3106.46 1541.22 3105.43 1540.39 3104.15C1539.56 3102.87 1539.08 3101.4 1539 3099.88C1539.09 3095.56 1540.67 3091.4 1543.48 3088.12C1546.88 3083.5 1550.77 3079.27 1555.08 3075.48ZM1554.28 3080.28C1547.88 3084.78 1543.47 3091.57 1541.96 3099.24C1542.08 3100.25 1542.42 3101.21 1542.98 3102.06C1543.54 3102.91 1544.28 3103.61 1545.16 3104.12C1546.2 3104.68 1547 3104.6 1547.16 3104.12C1547.81 3103.85 1548.34 3103.37 1548.68 3102.76C1551.92 3095.68 1553.81 3088.05 1554.28 3080.28Z" fill="#90CAF9"/>
<path d="M1555.16 3075C1555.65 3074.8 1556.19 3074.8 1556.68 3075C1557.4 3075.64 1571.24 3087.56 1571.8 3097C1571.91 3098.13 1571.77 3099.28 1571.39 3100.35C1571.02 3101.43 1570.42 3102.41 1569.64 3103.24C1568.99 3104.18 1568.04 3104.86 1566.94 3105.16C1565.85 3105.47 1564.68 3105.38 1563.64 3104.92C1557.4 3102.04 1553.48 3083.64 1554.44 3076.28V3075.64C1554.51 3075.49 1554.6 3075.35 1554.73 3075.24C1554.85 3075.13 1555 3075.05 1555.16 3075ZM1569.24 3097.72C1567.18 3090.78 1563.09 3084.62 1557.48 3080.04C1557.52 3088.27 1560.34 3096.25 1565.48 3102.68C1565.7 3102.8 1565.95 3102.87 1566.2 3102.9C1566.46 3102.92 1566.71 3102.88 1566.95 3102.8C1567.19 3102.72 1567.42 3102.59 1567.6 3102.41C1567.79 3102.24 1567.94 3102.03 1568.04 3101.8V3101.08C1568.72 3100.09 1569.05 3098.91 1569 3097.72H1569.24Z" fill="#90CAF9"/>
<path opacity="0.2" d="M1704.84 3029L1696.84 3092.04L1622.04 3079.8L1630.12 3016.84L1704.84 3029Z" fill="black"/>
<path d="M2124.44 2617.88C2146.52 2652.84 2222.84 3074.6 2080.36 3168.84C1975.4 3238.04 1645 3107.08 1645 3107.08L1655.56 3002.36C1655.56 3002.36 1923.96 3052.6 1957.16 3025.56C1990.36 2998.52 1879.56 2705.56 1874.12 2637C1868.68 2568.44 2124.44 2617.88 2124.44 2617.88Z" fill="#263238"/>
<path d="M1637.64 3114.68L1641.24 2997.8L1689.72 2998.68L1676.76 3127.72L1637.64 3114.68Z" fill="#90CAF9"/>
<path opacity="0.5" d="M1637.64 3114.68L1641.24 2997.8L1689.72 2998.68L1676.76 3127.72L1637.64 3114.68Z" fill="white"/>
<path d="M2154.36 2486.04C2145.8 2470.04 2119.72 2438.6 2094.6 2434.2C2061.24 2428.36 2054.12 2427.08 1925.4 2446.84C1864.68 2456.12 1860.28 2503.8 1863.64 2528.52C1864.1 2531.83 1865.45 2534.96 1867.56 2537.56L1870.36 2541C1876.6 2542.92 2150.36 2494.84 2153.16 2496.36C2154.3 2494.92 2155.01 2493.19 2155.22 2491.37C2155.43 2489.55 2155.13 2487.7 2154.36 2486.04Z" fill="#90CAF9"/>
<path opacity="0.2" d="M2154.36 2486.04C2145.8 2470.04 2119.72 2438.6 2094.6 2434.2C2061.24 2428.36 2054.12 2427.08 1925.4 2446.84C1864.68 2456.12 1860.28 2503.8 1863.64 2528.52C1864.1 2531.83 1865.45 2534.96 1867.56 2537.56L1870.36 2541C1876.6 2542.92 2150.36 2494.84 2153.16 2496.36C2154.3 2494.92 2155.01 2493.19 2155.22 2491.37C2155.43 2489.55 2155.13 2487.7 2154.36 2486.04Z" fill="white"/>
<path d="M2451.48 2025C2469.23 2023.7 2486.42 2018.22 2501.64 2009C2512.13 2001.64 2521.08 1992.29 2527.96 1981.48C2530.16 1978.25 2531.1 1974.32 2530.6 1970.44C2529.45 1961.36 2525.85 1952.76 2520.2 1945.56C2518.65 1943.69 2516.44 1942.48 2514.03 1942.2C2511.61 1941.92 2509.18 1942.58 2507.24 1944.04C2497.96 1950.68 2487.4 1957.64 2479.08 1964.12C2455.64 1968.52 2433.4 1990.12 2431.48 2013.88C2437.8 2017 2445.08 2021.64 2451.48 2025Z" fill="#FFC2BC"/>
<path d="M2461.72 1993.56L2468.12 2024.52C2468.12 2024.52 2314.12 2133.56 2284.76 2135.16C2264.6 2136.28 2241.24 2137.32 2217.08 2138.12C2189.4 2139.08 2160.52 2139.64 2134.28 2139.48C2086.84 2139.08 2048.04 2135.96 2040.12 2127.64C2016.12 2102.28 2041.8 2062.28 2079.32 2062.68C2128.2 2063.16 2213.64 2074.76 2294.76 2071.64C2322.52 2070.6 2461.72 1993.56 2461.72 1993.56Z" fill="#FFC2BC"/>
<path opacity="0.2" d="M2217 2138.12C2189.32 2139.08 2160.44 2139.64 2134.2 2139.48L2105 2097.72C2143.63 2107.29 2181.16 2120.83 2217 2138.12Z" fill="black"/>
<path d="M2121 2053.72C2121 2053.72 2053.08 2040.84 2041.56 2073.64C2030.04 2106.44 2060.28 2164.84 2154.68 2154.6L2164.28 2054.76L2121 2053.72Z" fill="#90CAF9"/>
<path opacity="0.2" d="M2121 2053.72C2121 2053.72 2053.08 2040.84 2041.56 2073.64C2030.04 2106.44 2060.28 2164.84 2154.68 2154.6L2164.28 2054.76L2121 2053.72Z" fill="white"/>
<path d="M2069.08 2054.52C2070.92 2057.72 2122.6 2125.64 2129.8 2178.6C2135 2216.84 2129.8 2258.6 2129.08 2301.16C2128.52 2331.88 2139.4 2397.16 2139.4 2397.16L2147.96 2416.84C2151.42 2424.82 2153.11 2433.46 2152.92 2442.16C2152.73 2450.86 2150.65 2459.42 2146.84 2467.24L2143.08 2475.24L1867 2512.2L1865.32 2511.32C1865.32 2511.32 1840.76 2490.76 1848.92 2464.6V2444.36C1859.96 2408.28 1856.92 2361.8 1829.56 2265.88C1820.84 2234.6 1811.16 2196.2 1811.16 2196.2C1818.44 2127.08 1795.96 2092.2 1795.72 2092.2C1795.48 2092.2 1795.72 2091.8 1795.72 2091.72C1828.95 2080.75 1862.94 2072.2 1897.4 2066.12C1934.01 2059.27 1971.07 2055.05 2008.28 2053.48C2043.32 2053.4 2069 2054.44 2069.08 2054.52Z" fill="#90CAF9"/>
<path d="M2041.8 1811.24C2059.16 1831.32 2062.92 1859.24 2070.28 1885.08C2076.28 1905.88 2089.32 1948.12 2081.24 1968.12C2072.04 1990.92 2026.76 1971.64 2011.72 1991C1951.88 2068.36 1915.72 2035.08 1892.76 2015.96C1881.24 2006.52 1837.48 1997.16 1826.2 1987.48C1814.92 1977.8 1795.64 1972.92 1803.96 1935.32C1837.24 1784.68 1892.52 1775.8 1966.28 1779.88C1994.52 1781.4 2022.76 1789.16 2041.8 1811.24Z" fill="#263238"/>
<path d="M1894.04 1940.2C1905.16 1975.16 1919.64 2039.72 1897.32 2066.44L1915.4 2084.2C1922.61 2091.24 1931.61 2096.16 1941.42 2098.45C1951.23 2100.73 1961.48 2100.28 1971.05 2097.15C1980.63 2094.01 1989.16 2088.31 1995.72 2080.67C2002.29 2073.03 2006.63 2063.74 2008.28 2053.8C1967.56 2048.76 1974.84 2007.8 1966.2 1968.68L1894.04 1940.2Z" fill="#FFC2BC"/>
<path opacity="0.2" d="M1986.04 1927.4C1978.52 1955.8 1968.6 2001.48 1978.04 2032.44C1941.72 2036.84 1916.52 2004.52 1914.76 1994.04C1918.82 1981.47 1921.89 1968.6 1923.96 1955.56L1986.04 1927.4Z" fill="black"/>
<path d="M1881.64 1885.4C1887.88 1945.24 1889.24 1970.68 1920.84 2000.12C1968.36 2044.44 2040.84 2023.64 2052.2 1963.24C2062.76 1908.84 2050.76 1820.28 1991.08 1798.84C1977.94 1794.07 1963.79 1792.73 1949.99 1794.97C1936.19 1797.2 1923.19 1802.93 1912.22 1811.6C1901.25 1820.27 1892.69 1831.61 1887.34 1844.52C1881.98 1857.44 1880.02 1871.51 1881.64 1885.4Z" fill="#FFC2BC"/>
<path d="M1896.04 1916.84C1900.72 1924.85 1903.21 1933.96 1903.24 1943.24C1905.87 1941.23 1907.75 1938.39 1908.57 1935.19C1909.4 1931.98 1909.13 1928.59 1907.8 1925.56C1905.88 1919.24 1902.6 1916.2 1896.04 1916.84Z" fill="#263238"/>
<path d="M1862.52 1943.72C1868.74 1953.55 1878.56 1960.56 1889.88 1963.24C1904.92 1966.52 1911.64 1952.92 1906.76 1939.24C1902.44 1926.84 1889.24 1910.44 1874.76 1912.92C1869.63 1914.01 1865.15 1917.1 1862.29 1921.49C1859.42 1925.88 1858.41 1931.23 1859.48 1936.36C1859.98 1939 1861.01 1941.5 1862.52 1943.72Z" fill="#FFC2BC"/>
<path d="M1967.24 1899.4C1967.24 1904.68 1970.44 1908.68 1973.8 1908.68C1977.16 1908.68 1979.88 1904.12 1979.64 1898.92C1979.4 1893.72 1976.36 1889.64 1973 1889.72C1969.64 1889.8 1967 1894.2 1967.24 1899.4Z" fill="#263238"/>
<path d="M2026.52 1897C2026.52 1902.2 2029.72 1906.28 2033.16 1906.2C2036.6 1906.12 2039.24 1901.72 2038.92 1896.44C2038.6 1891.16 2035.8 1887.16 2032.36 1887.16C2028.92 1887.16 2026.04 1891.56 2026.52 1897Z" fill="#263238"/>
<path d="M2030.84 1887.48L2043.16 1883.64C2043.16 1883.64 2037.32 1893.16 2030.84 1887.48Z" fill="#263238"/>
<path d="M2011.24 1906.6C2016.45 1918.37 2023.23 1929.38 2031.4 1939.32C2028.8 1941.33 2025.79 1942.75 2022.59 1943.48C2019.38 1944.21 2016.06 1944.24 2012.84 1943.56L2011.24 1906.6Z" fill="#EC837E"/>
<path d="M1994.84 1961.88C1997.83 1963.06 2000.95 1963.92 2004.12 1964.44C2004.29 1964.47 2004.46 1964.48 2004.63 1964.44C2004.8 1964.41 2004.96 1964.34 2005.1 1964.24C2005.24 1964.15 2005.36 1964.02 2005.46 1963.88C2005.55 1963.73 2005.61 1963.57 2005.64 1963.4C2005.67 1963.07 2005.59 1962.73 2005.4 1962.45C2005.21 1962.17 2004.92 1961.97 2004.6 1961.88C1998.09 1960.93 1991.89 1958.44 1986.54 1954.61C1981.18 1950.78 1976.81 1945.73 1973.8 1939.88C1973.69 1939.57 1973.48 1939.31 1973.21 1939.13C1972.93 1938.96 1972.61 1938.88 1972.28 1938.92C1971.98 1938.98 1971.71 1939.15 1971.53 1939.41C1971.35 1939.66 1971.27 1939.97 1971.32 1940.28C1976.05 1950.27 1984.49 1958.02 1994.84 1961.88Z" fill="#263238"/>
<path d="M1953 1860.52C1953.35 1860.62 1953.73 1860.62 1954.08 1860.52C1954.43 1860.42 1954.75 1860.23 1955 1859.96C1957.31 1857.45 1960.18 1855.54 1963.38 1854.37C1966.59 1853.2 1970.02 1852.81 1973.4 1853.24C1974 1853.32 1974.61 1853.17 1975.11 1852.83C1975.61 1852.5 1975.97 1851.99 1976.12 1851.4C1976.22 1851.14 1976.27 1850.86 1976.26 1850.58C1976.25 1850.3 1976.18 1850.02 1976.06 1849.77C1975.94 1849.51 1975.77 1849.29 1975.56 1849.1C1975.35 1848.91 1975.11 1848.77 1974.84 1848.68C1970.75 1848.11 1966.58 1848.54 1962.69 1849.93C1958.81 1851.32 1955.32 1853.64 1952.52 1856.68C1952.08 1857.08 1951.8 1857.62 1951.73 1858.21C1951.66 1858.79 1951.79 1859.39 1952.12 1859.88C1952.21 1860.05 1952.33 1860.19 1952.48 1860.31C1952.64 1860.42 1952.81 1860.49 1953 1860.52Z" fill="#263238"/>
<path d="M2049 1860.28C2049.43 1860.41 2049.88 1860.43 2050.32 1860.33C2050.75 1860.23 2051.15 1860.02 2051.48 1859.72C2051.95 1859.24 2052.22 1858.59 2052.22 1857.92C2052.22 1857.25 2051.95 1856.6 2051.48 1856.12C2048.34 1852.48 2044.36 1849.65 2039.89 1847.88C2035.42 1846.11 2030.58 1845.45 2025.8 1845.96C2025.48 1845.99 2025.16 1846.08 2024.88 1846.24C2024.59 1846.39 2024.34 1846.6 2024.14 1846.86C2023.94 1847.11 2023.79 1847.4 2023.7 1847.72C2023.62 1848.03 2023.6 1848.36 2023.64 1848.68C2023.76 1849.35 2024.14 1849.94 2024.69 1850.33C2025.25 1850.72 2025.93 1850.88 2026.6 1850.76C2030.55 1850.44 2034.52 1851.06 2038.19 1852.56C2041.86 1854.06 2045.12 1856.4 2047.72 1859.4C2048.03 1859.84 2048.48 1860.15 2049 1860.28Z" fill="#263238"/>
<path d="M1971.56 1890.04L1983.88 1886.12C1983.88 1886.12 1977.96 1895.96 1971.56 1890.04Z" fill="#263238"/>
<path d="M1938.84 1826.92C1956.52 1848.52 1892.6 1905 1896.04 1916.84C1878.68 1917.96 1865.8 1881.56 1864.92 1862.68C1864.03 1843.61 1869.99 1824.86 1881.72 1809.8C1889.16 1800.28 1902.92 1798.52 1915 1796.92C1918.5 1796.18 1922.14 1796.45 1925.48 1797.72C1927.49 1798.81 1929.2 1800.38 1930.46 1802.29C1931.72 1804.21 1932.48 1806.4 1932.68 1808.68C1933.56 1815.09 1935.65 1821.28 1938.84 1826.92Z" fill="#263238"/>
<path d="M1915 1796.92C1926.52 1806.06 1935.01 1818.46 1939.36 1832.51C1943.72 1846.56 1943.73 1861.59 1939.4 1875.64C1947.16 1869.32 1953.57 1861.51 1958.28 1852.68C1960.75 1848.08 1961.9 1842.88 1961.59 1837.67C1961.28 1832.46 1959.52 1827.43 1956.52 1823.16C1964.96 1829.38 1972.09 1837.22 1977.49 1846.21C1982.88 1855.21 1986.44 1865.18 1987.96 1875.56C1991.57 1872.9 1994.56 1869.48 1996.7 1865.54C1998.84 1861.6 2000.09 1857.24 2000.36 1852.76C2000.74 1848.36 2000.14 1843.93 1998.62 1839.78C1997.1 1835.64 1994.69 1831.88 1991.56 1828.76C1997.71 1834.14 2002.4 1840.99 2005.19 1848.67C2007.99 1856.35 2008.8 1864.6 2007.56 1872.68C2011.64 1869.53 2014.9 1865.44 2017.06 1860.76C2019.21 1856.08 2020.21 1850.95 2019.96 1845.8C2019.52 1840.3 2017.85 1834.96 2015.08 1830.19C2012.32 1825.41 2008.52 1821.32 2003.96 1818.2C2012.36 1822.83 2019.39 1829.58 2024.36 1837.78C2029.33 1845.98 2032.06 1855.34 2032.28 1864.92C2050.52 1847.24 2044.36 1821.88 2021.96 1807.96C1989.14 1790.38 1950.72 1786.42 1915 1796.92Z" fill="#263238"/>
<path d="M1906.2 2047L1884.76 2068.52C1884.76 2068.52 1966.52 2121.96 1967.72 2118.36C1972.94 2110.36 1978.69 2102.72 1984.92 2095.48L1906.2 2047Z" fill="#90CAF9"/>
<path d="M1987 2042.44L2015.56 2052.84C2015.56 2052.84 2012.76 2113.4 2010.12 2110.6C2002.06 2105.51 1993.67 2100.96 1985 2097L1987 2042.44Z" fill="#90CAF9"/>
<path opacity="0.2" d="M1906.2 2047L1884.76 2068.52C1884.76 2068.52 1966.52 2121.96 1967.72 2118.36C1972.94 2110.36 1978.69 2102.72 1984.92 2095.48L1906.2 2047Z" fill="white"/>
<path opacity="0.2" d="M1987 2042.44L2015.56 2052.84C2015.56 2052.84 2012.76 2113.4 2010.12 2110.6C2002.06 2105.51 1993.67 2100.96 1985 2097L1987 2042.44Z" fill="white"/>
<path d="M1466.6 2299.32L1397.72 2305.88L1421.72 2359.96C1440.4 2351.77 1458.27 2341.84 1475.08 2330.28L1466.6 2299.32Z" fill="#FFC2BC"/>
<path d="M1372.28 2347.24L1373.4 2349.24C1375.51 2352.9 1378.57 2355.91 1382.27 2357.95C1385.96 2360 1390.14 2361 1394.36 2360.84L1421.8 2359.96L1397.8 2305.88L1381 2315.48C1378.33 2316.98 1375.99 2319 1374.11 2321.42C1372.22 2323.83 1370.84 2326.59 1370.03 2329.54C1369.22 2332.5 1369 2335.58 1369.39 2338.62C1369.77 2341.65 1370.76 2344.58 1372.28 2347.24Z" fill="#FFC2BC"/>
<path d="M1482.04 2328.28C1482.04 2328.28 1602.44 2339.32 1715.16 2286.12C1715.16 2286.12 1790.92 2223 1831.88 2169.96C1892.68 2091.08 1836.12 2067.32 1791.24 2118.2C1757.96 2155.96 1680.84 2228.92 1680.84 2228.92C1583.96 2284.92 1458.12 2302.36 1458.12 2302.36C1433.72 2337.56 1482.04 2328.28 1482.04 2328.28Z" fill="#FFC2BC"/>
<path d="M1866.76 2088.2C1895.4 2111.16 1852.68 2171.16 1797 2243.32L1727.96 2153.72C1727.96 2153.72 1815.56 2047.16 1866.76 2088.2Z" fill="#90CAF9"/>
<path opacity="0.2" d="M1866.76 2088.2C1895.4 2111.16 1852.68 2171.16 1797 2243.32L1727.96 2153.72C1727.96 2153.72 1815.56 2047.16 1866.76 2088.2Z" fill="white"/>
</g>
<path d="M1561.23 690.696C1561.03 688.634 1560.15 687.031 1558.6 685.889C1557.05 684.747 1554.94 684.176 1552.28 684.176C1550.47 684.176 1548.95 684.432 1547.7 684.943C1546.46 685.438 1545.51 686.128 1544.84 687.014C1544.19 687.901 1543.87 688.906 1543.87 690.031C1543.84 690.969 1544.03 691.787 1544.46 692.486C1544.9 693.185 1545.51 693.79 1546.27 694.301C1547.04 694.795 1547.93 695.23 1548.93 695.605C1549.94 695.963 1551.01 696.27 1552.15 696.526L1556.86 697.651C1559.14 698.162 1561.24 698.844 1563.15 699.696C1565.06 700.548 1566.71 701.597 1568.11 702.841C1569.51 704.085 1570.59 705.551 1571.36 707.239C1572.14 708.926 1572.54 710.861 1572.56 713.043C1572.54 716.247 1571.72 719.026 1570.1 721.378C1568.5 723.713 1566.18 725.528 1563.15 726.824C1560.13 728.102 1556.49 728.741 1552.23 728.741C1548 728.741 1544.32 728.094 1541.18 726.798C1538.07 725.503 1535.63 723.585 1533.87 721.045C1532.13 718.489 1531.22 715.327 1531.14 711.56H1541.85C1541.97 713.315 1542.47 714.781 1543.36 715.957C1544.26 717.116 1545.46 717.994 1546.96 718.591C1548.48 719.17 1550.19 719.46 1552.1 719.46C1553.98 719.46 1555.61 719.187 1556.99 718.642C1558.38 718.097 1559.47 717.338 1560.23 716.366C1561 715.395 1561.38 714.278 1561.38 713.017C1561.38 711.841 1561.03 710.852 1560.34 710.051C1559.65 709.25 1558.65 708.568 1557.32 708.006C1556.01 707.443 1554.4 706.932 1552.49 706.472L1546.78 705.04C1542.37 703.966 1538.88 702.287 1536.33 700.003C1533.77 697.719 1532.5 694.642 1532.52 690.773C1532.5 687.602 1533.34 684.832 1535.05 682.463C1536.77 680.094 1539.13 678.244 1542.13 676.915C1545.13 675.585 1548.54 674.92 1552.36 674.92C1556.24 674.92 1559.64 675.585 1562.53 676.915C1565.45 678.244 1567.72 680.094 1569.34 682.463C1570.95 684.832 1571.79 687.577 1571.84 690.696H1561.23ZM1598.53 688.727V696.909H1574.88V688.727H1598.53ZM1580.25 679.318H1591.14V715.932C1591.14 716.937 1591.29 717.722 1591.6 718.284C1591.91 718.83 1592.33 719.213 1592.88 719.435C1593.44 719.656 1594.09 719.767 1594.82 719.767C1595.33 719.767 1595.84 719.724 1596.36 719.639C1596.87 719.537 1597.26 719.46 1597.53 719.409L1599.24 727.514C1598.7 727.685 1597.93 727.881 1596.94 728.102C1595.95 728.341 1594.75 728.486 1593.34 728.537C1590.71 728.639 1588.41 728.29 1586.43 727.489C1584.47 726.687 1582.95 725.443 1581.86 723.756C1580.77 722.068 1580.23 719.937 1580.25 717.364V679.318ZM1614.66 728.741C1612.16 728.741 1609.92 728.307 1607.96 727.438C1606 726.551 1604.45 725.247 1603.31 723.526C1602.19 721.787 1601.62 719.622 1601.62 717.031C1601.62 714.849 1602.02 713.017 1602.82 711.534C1603.63 710.051 1604.72 708.858 1606.1 707.955C1607.48 707.051 1609.05 706.369 1610.8 705.909C1612.57 705.449 1614.43 705.125 1616.38 704.938C1618.66 704.699 1620.5 704.477 1621.9 704.273C1623.3 704.051 1624.31 703.727 1624.94 703.301C1625.57 702.875 1625.89 702.244 1625.89 701.409V701.256C1625.89 699.636 1625.38 698.384 1624.35 697.497C1623.35 696.611 1621.92 696.168 1620.06 696.168C1618.1 696.168 1616.54 696.602 1615.38 697.472C1614.22 698.324 1613.45 699.398 1613.08 700.693L1603 699.875C1603.51 697.489 1604.52 695.426 1606.02 693.688C1607.52 691.932 1609.46 690.585 1611.82 689.648C1614.21 688.693 1616.97 688.216 1620.11 688.216C1622.29 688.216 1624.38 688.472 1626.37 688.983C1628.38 689.494 1630.17 690.287 1631.72 691.361C1633.28 692.435 1634.52 693.815 1635.42 695.503C1636.33 697.173 1636.78 699.176 1636.78 701.511V728H1626.45V722.554H1626.14C1625.51 723.781 1624.67 724.864 1623.61 725.801C1622.55 726.722 1621.28 727.446 1619.8 727.974C1618.32 728.486 1616.61 728.741 1614.66 728.741ZM1617.78 721.224C1619.38 721.224 1620.8 720.909 1622.03 720.278C1623.25 719.631 1624.22 718.761 1624.92 717.67C1625.61 716.58 1625.96 715.344 1625.96 713.963V709.795C1625.62 710.017 1625.15 710.222 1624.56 710.409C1623.98 710.58 1623.32 710.741 1622.59 710.895C1621.86 711.031 1621.12 711.159 1620.39 711.278C1619.66 711.381 1618.99 711.474 1618.4 711.56C1617.12 711.747 1616 712.045 1615.05 712.455C1614.09 712.864 1613.35 713.418 1612.82 714.116C1612.29 714.798 1612.03 715.651 1612.03 716.673C1612.03 718.156 1612.57 719.29 1613.64 720.074C1614.73 720.841 1616.11 721.224 1617.78 721.224ZM1643.07 728V688.727H1653.63V695.58H1654.04C1654.75 693.142 1655.96 691.301 1657.64 690.057C1659.33 688.795 1661.27 688.165 1663.47 688.165C1664.02 688.165 1664.61 688.199 1665.24 688.267C1665.87 688.335 1666.42 688.429 1666.9 688.548V698.213C1666.39 698.06 1665.68 697.923 1664.78 697.804C1663.87 697.685 1663.05 697.625 1662.3 697.625C1660.69 697.625 1659.26 697.974 1658 698.673C1656.76 699.355 1655.77 700.31 1655.04 701.537C1654.32 702.764 1653.96 704.179 1653.96 705.781V728H1643.07ZM1693.23 688.727V696.909H1669.58V688.727H1693.23ZM1674.95 679.318H1685.84V715.932C1685.84 716.937 1685.99 717.722 1686.3 718.284C1686.61 718.83 1687.03 719.213 1687.58 719.435C1688.14 719.656 1688.79 719.767 1689.52 719.767C1690.03 719.767 1690.54 719.724 1691.05 719.639C1691.57 719.537 1691.96 719.46 1692.23 719.409L1693.94 727.514C1693.4 727.685 1692.63 727.881 1691.64 728.102C1690.65 728.341 1689.45 728.486 1688.04 728.537C1685.41 728.639 1683.11 728.29 1681.13 727.489C1679.17 726.687 1677.65 725.443 1676.56 723.756C1675.47 722.068 1674.93 719.937 1674.95 717.364V679.318ZM1715.64 728.767C1711.6 728.767 1708.12 727.949 1705.21 726.312C1702.31 724.659 1700.08 722.324 1698.51 719.307C1696.94 716.273 1696.16 712.685 1696.16 708.543C1696.16 704.503 1696.94 700.957 1698.51 697.906C1700.08 694.855 1702.28 692.477 1705.13 690.773C1707.99 689.068 1711.35 688.216 1715.2 688.216C1717.8 688.216 1720.21 688.634 1722.44 689.469C1724.69 690.287 1726.65 691.523 1728.32 693.176C1730.01 694.83 1731.32 696.909 1732.26 699.415C1733.2 701.903 1733.66 704.818 1733.66 708.159V711.151H1700.5V704.401H1723.41C1723.41 702.832 1723.07 701.443 1722.39 700.233C1721.71 699.023 1720.76 698.077 1719.55 697.395C1718.36 696.696 1716.97 696.347 1715.38 696.347C1713.73 696.347 1712.26 696.73 1710.99 697.497C1709.72 698.247 1708.74 699.261 1708.02 700.54C1707.3 701.801 1706.94 703.207 1706.92 704.759V711.176C1706.92 713.119 1707.28 714.798 1707.99 716.213C1708.73 717.628 1709.76 718.719 1711.09 719.486C1712.42 720.253 1713.99 720.636 1715.82 720.636C1717.03 720.636 1718.14 720.466 1719.14 720.125C1720.15 719.784 1721.01 719.273 1721.72 718.591C1722.44 717.909 1722.99 717.074 1723.36 716.085L1733.43 716.75C1732.92 719.17 1731.87 721.284 1730.29 723.091C1728.72 724.881 1726.69 726.278 1724.2 727.284C1721.73 728.273 1718.88 728.767 1715.64 728.767ZM1738.61 728V688.727H1749.17V695.58H1749.58C1750.3 693.142 1751.5 691.301 1753.19 690.057C1754.87 688.795 1756.82 688.165 1759.02 688.165C1759.56 688.165 1760.15 688.199 1760.78 688.267C1761.41 688.335 1761.96 688.429 1762.44 688.548V698.213C1761.93 698.06 1761.22 697.923 1760.32 697.804C1759.42 697.685 1758.59 697.625 1757.84 697.625C1756.24 697.625 1754.81 697.974 1753.54 698.673C1752.3 699.355 1751.31 700.31 1750.58 701.537C1749.86 702.764 1749.5 704.179 1749.5 705.781V728H1738.61Z" fill="white"/>
<path d="M2512.91 547.636V600H2503.35L2480.56 567.043H2480.18V600H2469.11V547.636H2478.83L2501.43 580.568H2501.89V547.636H2512.91ZM2537.43 600.767C2533.46 600.767 2530.03 599.923 2527.13 598.236C2524.25 596.531 2522.03 594.162 2520.46 591.128C2518.89 588.077 2518.1 584.54 2518.1 580.517C2518.1 576.46 2518.89 572.915 2520.46 569.881C2522.03 566.83 2524.25 564.46 2527.13 562.773C2530.03 561.068 2533.46 560.216 2537.43 560.216C2541.41 560.216 2544.83 561.068 2547.71 562.773C2550.61 564.46 2552.84 566.83 2554.41 569.881C2555.98 572.915 2556.76 576.46 2556.76 580.517C2556.76 584.54 2555.98 588.077 2554.41 591.128C2552.84 594.162 2550.61 596.531 2547.71 598.236C2544.83 599.923 2541.41 600.767 2537.43 600.767ZM2537.49 592.33C2539.29 592.33 2540.8 591.818 2542.01 590.795C2543.22 589.756 2544.13 588.341 2544.75 586.551C2545.38 584.761 2545.69 582.724 2545.69 580.44C2545.69 578.156 2545.38 576.119 2544.75 574.33C2544.13 572.54 2543.22 571.125 2542.01 570.085C2540.8 569.045 2539.29 568.526 2537.49 568.526C2535.66 568.526 2534.13 569.045 2532.88 570.085C2531.66 571.125 2530.73 572.54 2530.1 574.33C2529.48 576.119 2529.18 578.156 2529.18 580.44C2529.18 582.724 2529.48 584.761 2530.1 586.551C2530.73 588.341 2531.66 589.756 2532.88 590.795C2534.13 591.818 2535.66 592.33 2537.49 592.33ZM2561.89 600V547.636H2572.78V567.324H2573.12C2573.59 566.267 2574.28 565.193 2575.19 564.102C2576.11 562.994 2577.3 562.074 2578.77 561.341C2580.25 560.591 2582.09 560.216 2584.29 560.216C2587.15 560.216 2589.79 560.966 2592.21 562.466C2594.64 563.949 2596.57 566.19 2598.02 569.19C2599.47 572.173 2600.19 575.915 2600.19 580.415C2600.19 584.795 2599.48 588.494 2598.07 591.511C2596.67 594.511 2594.76 596.787 2592.34 598.338C2589.94 599.872 2587.25 600.639 2584.26 600.639C2582.15 600.639 2580.35 600.29 2578.87 599.591C2577.4 598.892 2576.2 598.014 2575.26 596.957C2574.33 595.884 2573.61 594.801 2573.12 593.71H2572.63V600H2561.89ZM2572.55 580.364C2572.55 582.699 2572.88 584.736 2573.52 586.474C2574.17 588.213 2575.11 589.568 2576.34 590.54C2577.56 591.494 2579.06 591.972 2580.81 591.972C2582.58 591.972 2584.08 591.486 2585.31 590.514C2586.54 589.526 2587.47 588.162 2588.1 586.423C2588.75 584.668 2589.07 582.648 2589.07 580.364C2589.07 578.097 2588.75 576.102 2588.12 574.381C2587.49 572.659 2586.56 571.312 2585.34 570.341C2584.11 569.369 2582.6 568.884 2580.81 568.884C2579.04 568.884 2577.54 569.352 2576.31 570.29C2575.1 571.227 2574.17 572.557 2573.52 574.278C2572.88 576 2572.55 578.028 2572.55 580.364ZM2623.2 600.767C2619.16 600.767 2615.68 599.949 2612.77 598.312C2609.87 596.659 2607.64 594.324 2606.07 591.307C2604.5 588.273 2603.71 584.685 2603.71 580.543C2603.71 576.503 2604.5 572.957 2606.07 569.906C2607.64 566.855 2609.84 564.477 2612.69 562.773C2615.55 561.068 2618.91 560.216 2622.76 560.216C2625.35 560.216 2627.77 560.634 2630 561.469C2632.25 562.287 2634.21 563.523 2635.88 565.176C2637.57 566.83 2638.88 568.909 2639.82 571.415C2640.75 573.903 2641.22 576.818 2641.22 580.159V583.151H2608.06V576.401H2630.97C2630.97 574.832 2630.63 573.443 2629.95 572.233C2629.27 571.023 2628.32 570.077 2627.11 569.395C2625.92 568.696 2624.53 568.347 2622.94 568.347C2621.29 568.347 2619.82 568.73 2618.54 569.497C2617.28 570.247 2616.29 571.261 2615.58 572.54C2614.86 573.801 2614.5 575.207 2614.48 576.759V583.176C2614.48 585.119 2614.84 586.798 2615.55 588.213C2616.29 589.628 2617.32 590.719 2618.65 591.486C2619.98 592.253 2621.55 592.636 2623.38 592.636C2624.59 592.636 2625.69 592.466 2626.7 592.125C2627.71 591.784 2628.57 591.273 2629.28 590.591C2630 589.909 2630.54 589.074 2630.92 588.085L2640.99 588.75C2640.48 591.17 2639.43 593.284 2637.85 595.091C2636.28 596.881 2634.25 598.278 2631.76 599.284C2629.29 600.273 2626.44 600.767 2623.2 600.767ZM2657.06 547.636V600H2646.17V547.636H2657.06Z" fill="white"/>
<path d="M3333.75 635.636V688H3324.19L3301.41 655.043H3301.02V688H3289.95V635.636H3299.67L3322.27 668.568H3322.73V635.636H3333.75ZM3358.28 688.767C3354.3 688.767 3350.87 687.923 3347.97 686.236C3345.09 684.531 3342.87 682.162 3341.3 679.128C3339.73 676.077 3338.95 672.54 3338.95 668.517C3338.95 664.46 3339.73 660.915 3341.3 657.881C3342.87 654.83 3345.09 652.46 3347.97 650.773C3350.87 649.068 3354.3 648.216 3358.28 648.216C3362.25 648.216 3365.67 649.068 3368.55 650.773C3371.45 652.46 3373.69 654.83 3375.25 657.881C3376.82 660.915 3377.61 664.46 3377.61 668.517C3377.61 672.54 3376.82 676.077 3375.25 679.128C3373.69 682.162 3371.45 684.531 3368.55 686.236C3365.67 687.923 3362.25 688.767 3358.28 688.767ZM3358.33 680.33C3360.13 680.33 3361.64 679.818 3362.85 678.795C3364.06 677.756 3364.97 676.341 3365.59 674.551C3366.22 672.761 3366.53 670.724 3366.53 668.44C3366.53 666.156 3366.22 664.119 3365.59 662.33C3364.97 660.54 3364.06 659.125 3362.85 658.085C3361.64 657.045 3360.13 656.526 3358.33 656.526C3356.5 656.526 3354.97 657.045 3353.72 658.085C3352.5 659.125 3351.57 660.54 3350.94 662.33C3350.32 664.119 3350.02 666.156 3350.02 668.44C3350.02 670.724 3350.32 672.761 3350.94 674.551C3351.57 676.341 3352.5 677.756 3353.72 678.795C3354.97 679.818 3356.5 680.33 3358.33 680.33ZM3382.73 688V635.636H3393.62V655.324H3393.96C3394.43 654.267 3395.12 653.193 3396.03 652.102C3396.95 650.994 3398.14 650.074 3399.61 649.341C3401.09 648.591 3402.93 648.216 3405.13 648.216C3407.99 648.216 3410.64 648.966 3413.06 650.466C3415.48 651.949 3417.41 654.19 3418.86 657.19C3420.31 660.173 3421.03 663.915 3421.03 668.415C3421.03 672.795 3420.33 676.494 3418.91 679.511C3417.51 682.511 3415.6 684.787 3413.18 686.338C3410.78 687.872 3408.09 688.639 3405.1 688.639C3402.99 688.639 3401.19 688.29 3399.71 687.591C3398.24 686.892 3397.04 686.014 3396.1 684.957C3395.17 683.884 3394.45 682.801 3393.96 681.71H3393.47V688H3382.73ZM3393.39 668.364C3393.39 670.699 3393.72 672.736 3394.37 674.474C3395.01 676.213 3395.95 677.568 3397.18 678.54C3398.41 679.494 3399.9 679.972 3401.65 679.972C3403.43 679.972 3404.93 679.486 3406.15 678.514C3407.38 677.526 3408.31 676.162 3408.94 674.423C3409.59 672.668 3409.91 670.648 3409.91 668.364C3409.91 666.097 3409.6 664.102 3408.97 662.381C3408.33 660.659 3407.41 659.312 3406.18 658.341C3404.95 657.369 3403.44 656.884 3401.65 656.884C3399.88 656.884 3398.38 657.352 3397.15 658.29C3395.94 659.227 3395.01 660.557 3394.37 662.278C3393.72 664 3393.39 666.028 3393.39 668.364ZM3444.04 688.767C3440 688.767 3436.52 687.949 3433.61 686.312C3430.71 684.659 3428.48 682.324 3426.91 679.307C3425.34 676.273 3424.56 672.685 3424.56 668.543C3424.56 664.503 3425.34 660.957 3426.91 657.906C3428.48 654.855 3430.68 652.477 3433.53 650.773C3436.39 649.068 3439.75 648.216 3443.6 648.216C3446.2 648.216 3448.61 648.634 3450.84 649.469C3453.09 650.287 3455.05 651.523 3456.72 653.176C3458.41 654.83 3459.72 656.909 3460.66 659.415C3461.6 661.903 3462.06 664.818 3462.06 668.159V671.151H3428.9V664.401H3451.81C3451.81 662.832 3451.47 661.443 3450.79 660.233C3450.11 659.023 3449.16 658.077 3447.95 657.395C3446.76 656.696 3445.37 656.347 3443.78 656.347C3442.13 656.347 3440.66 656.73 3439.39 657.497C3438.12 658.247 3437.14 659.261 3436.42 660.54C3435.7 661.801 3435.34 663.207 3435.32 664.759V671.176C3435.32 673.119 3435.68 674.798 3436.39 676.213C3437.13 677.628 3438.16 678.719 3439.49 679.486C3440.82 680.253 3442.39 680.636 3444.22 680.636C3445.43 680.636 3446.54 680.466 3447.54 680.125C3448.55 679.784 3449.41 679.273 3450.12 678.591C3450.84 677.909 3451.39 677.074 3451.76 676.085L3461.83 676.75C3461.32 679.17 3460.27 681.284 3458.69 683.091C3457.12 684.881 3455.09 686.278 3452.6 687.284C3450.13 688.273 3447.28 688.767 3444.04 688.767ZM3477.9 635.636V688H3467.01V635.636H3477.9ZM3499.18 688V635.636H3519.84C3523.81 635.636 3527.19 636.395 3529.99 637.912C3532.78 639.412 3534.91 641.5 3536.38 644.176C3537.86 646.835 3538.6 649.903 3538.6 653.381C3538.6 656.858 3537.85 659.926 3536.35 662.585C3534.85 665.244 3532.68 667.315 3529.83 668.798C3527.01 670.281 3523.58 671.023 3519.56 671.023H3506.39V662.151H3517.77C3519.9 662.151 3521.65 661.784 3523.03 661.051C3524.43 660.301 3525.47 659.27 3526.15 657.957C3526.85 656.628 3527.2 655.102 3527.2 653.381C3527.2 651.642 3526.85 650.125 3526.15 648.83C3525.47 647.517 3524.43 646.503 3523.03 645.787C3521.64 645.054 3519.86 644.688 3517.72 644.688H3510.25V688H3499.18ZM3554.32 635.636V688H3543.43V635.636H3554.32ZM3586.07 671.278V648.727H3596.96V688H3586.51V680.866H3586.1C3585.21 683.168 3583.74 685.017 3581.68 686.415C3579.63 687.812 3577.13 688.511 3574.18 688.511C3571.56 688.511 3569.25 687.915 3567.25 686.722C3565.26 685.528 3563.7 683.832 3562.58 681.634C3561.47 679.435 3560.91 676.801 3560.89 673.733V648.727H3571.78V671.79C3571.8 674.108 3572.42 675.94 3573.65 677.287C3574.87 678.634 3576.52 679.307 3578.58 679.307C3579.89 679.307 3581.12 679.009 3582.26 678.412C3583.41 677.798 3584.33 676.895 3585.02 675.702C3585.74 674.509 3586.09 673.034 3586.07 671.278ZM3636.19 659.926L3626.22 660.54C3626.05 659.687 3625.68 658.92 3625.12 658.239C3624.56 657.54 3623.82 656.986 3622.9 656.577C3621.99 656.151 3620.91 655.938 3619.65 655.938C3617.96 655.938 3616.54 656.295 3615.38 657.011C3614.22 657.71 3613.64 658.648 3613.64 659.824C3613.64 660.761 3614.02 661.554 3614.77 662.202C3615.52 662.849 3616.8 663.369 3618.63 663.761L3625.74 665.193C3629.55 665.977 3632.4 667.239 3634.28 668.977C3636.15 670.716 3637.09 673 3637.09 675.83C3637.09 678.403 3636.33 680.662 3634.81 682.605C3633.31 684.548 3631.25 686.065 3628.63 687.156C3626.02 688.23 3623.01 688.767 3619.6 688.767C3614.4 688.767 3610.26 687.685 3607.17 685.52C3604.11 683.338 3602.31 680.372 3601.78 676.622L3612.49 676.06C3612.82 677.645 3613.6 678.855 3614.84 679.69C3616.09 680.509 3617.68 680.918 3619.63 680.918C3621.53 680.918 3623.07 680.551 3624.23 679.818C3625.4 679.068 3626 678.105 3626.02 676.929C3626 675.94 3625.58 675.131 3624.76 674.5C3623.95 673.852 3622.68 673.358 3620.98 673.017L3614.18 671.662C3610.34 670.895 3607.49 669.565 3605.61 667.673C3603.76 665.781 3602.83 663.369 3602.83 660.438C3602.83 657.915 3603.51 655.741 3604.87 653.918C3606.25 652.094 3608.19 650.688 3610.68 649.699C3613.18 648.71 3616.11 648.216 3619.47 648.216C3624.43 648.216 3628.34 649.264 3631.18 651.361C3634.05 653.457 3635.72 656.312 3636.19 659.926Z" fill="white"/>
<path d="M4304.59 847.696C4304.39 845.634 4303.51 844.031 4301.96 842.889C4300.41 841.747 4298.3 841.176 4295.64 841.176C4293.84 841.176 4292.31 841.432 4291.07 841.943C4289.82 842.438 4288.87 843.128 4288.2 844.014C4287.56 844.901 4287.23 845.906 4287.23 847.031C4287.2 847.969 4287.39 848.787 4287.82 849.486C4288.26 850.185 4288.87 850.79 4289.64 851.301C4290.4 851.795 4291.29 852.23 4292.3 852.605C4293.3 852.963 4294.38 853.27 4295.52 853.526L4300.22 854.651C4302.51 855.162 4304.6 855.844 4306.51 856.696C4308.42 857.548 4310.07 858.597 4311.47 859.841C4312.87 861.085 4313.95 862.551 4314.72 864.239C4315.5 865.926 4315.9 867.861 4315.92 870.043C4315.9 873.247 4315.09 876.026 4313.47 878.378C4311.86 880.713 4309.55 882.528 4306.51 883.824C4303.49 885.102 4299.86 885.741 4295.59 885.741C4291.37 885.741 4287.68 885.094 4284.55 883.798C4281.43 882.503 4278.99 880.585 4277.24 878.045C4275.5 875.489 4274.59 872.327 4274.5 868.56H4285.21C4285.33 870.315 4285.84 871.781 4286.72 872.957C4287.63 874.116 4288.83 874.994 4290.33 875.591C4291.84 876.17 4293.56 876.46 4295.47 876.46C4297.34 876.46 4298.97 876.187 4300.35 875.642C4301.75 875.097 4302.83 874.338 4303.6 873.366C4304.36 872.395 4304.75 871.278 4304.75 870.017C4304.75 868.841 4304.4 867.852 4303.7 867.051C4303.02 866.25 4302.01 865.568 4300.68 865.006C4299.37 864.443 4297.76 863.932 4295.85 863.472L4290.15 862.04C4285.73 860.966 4282.25 859.287 4279.69 857.003C4277.13 854.719 4275.86 851.642 4275.88 847.773C4275.86 844.602 4276.71 841.832 4278.41 839.463C4280.13 837.094 4282.49 835.244 4285.49 833.915C4288.49 832.585 4291.9 831.92 4295.72 831.92C4299.61 831.92 4303 832.585 4305.9 833.915C4308.81 835.244 4311.08 837.094 4312.7 839.463C4314.32 841.832 4315.15 844.577 4315.2 847.696H4304.59ZM4338.75 885.767C4334.72 885.767 4331.26 884.915 4328.37 883.21C4325.49 881.489 4323.27 879.102 4321.72 876.051C4320.18 873 4319.42 869.489 4319.42 865.517C4319.42 861.494 4320.19 857.966 4321.74 854.932C4323.31 851.881 4325.54 849.503 4328.42 847.798C4331.3 846.077 4334.72 845.216 4338.7 845.216C4342.12 845.216 4345.12 845.838 4347.7 847.082C4350.27 848.327 4352.31 850.074 4353.81 852.324C4355.31 854.574 4356.13 857.216 4356.29 860.25H4346.01C4345.72 858.29 4344.95 856.713 4343.71 855.52C4342.48 854.31 4340.87 853.705 4338.87 853.705C4337.19 853.705 4335.71 854.165 4334.45 855.085C4333.21 855.989 4332.24 857.31 4331.54 859.048C4330.84 860.787 4330.49 862.892 4330.49 865.364C4330.49 867.869 4330.83 870 4331.51 871.756C4332.21 873.511 4333.19 874.849 4334.45 875.77C4335.71 876.69 4337.19 877.151 4338.87 877.151C4340.12 877.151 4341.24 876.895 4342.22 876.384C4343.23 875.872 4344.06 875.131 4344.7 874.159C4345.37 873.17 4345.8 871.986 4346.01 870.605H4356.29C4356.12 873.605 4355.3 876.247 4353.83 878.531C4352.38 880.798 4350.38 882.571 4347.82 883.849C4345.27 885.128 4342.24 885.767 4338.75 885.767ZM4378.84 885.767C4374.87 885.767 4371.44 884.923 4368.54 883.236C4365.66 881.531 4363.44 879.162 4361.87 876.128C4360.3 873.077 4359.52 869.54 4359.52 865.517C4359.52 861.46 4360.3 857.915 4361.87 854.881C4363.44 851.83 4365.66 849.46 4368.54 847.773C4371.44 846.068 4374.87 845.216 4378.84 845.216C4382.82 845.216 4386.24 846.068 4389.12 847.773C4392.02 849.46 4394.25 851.83 4395.82 854.881C4397.39 857.915 4398.17 861.46 4398.17 865.517C4398.17 869.54 4397.39 873.077 4395.82 876.128C4394.25 879.162 4392.02 881.531 4389.12 883.236C4386.24 884.923 4382.82 885.767 4378.84 885.767ZM4378.9 877.33C4380.7 877.33 4382.21 876.818 4383.42 875.795C4384.63 874.756 4385.54 873.341 4386.16 871.551C4386.79 869.761 4387.1 867.724 4387.1 865.44C4387.1 863.156 4386.79 861.119 4386.16 859.33C4385.54 857.54 4384.63 856.125 4383.42 855.085C4382.21 854.045 4380.7 853.526 4378.9 853.526C4377.07 853.526 4375.54 854.045 4374.29 855.085C4373.07 856.125 4372.14 857.54 4371.51 859.33C4370.89 861.119 4370.59 863.156 4370.59 865.44C4370.59 867.724 4370.89 869.761 4371.51 871.551C4372.14 873.341 4373.07 874.756 4374.29 875.795C4375.54 876.818 4377.07 877.33 4378.9 877.33ZM4428.28 868.278V845.727H4439.17V885H4428.72V877.866H4428.31C4427.42 880.168 4425.95 882.017 4423.88 883.415C4421.84 884.812 4419.34 885.511 4416.39 885.511C4413.77 885.511 4411.46 884.915 4409.46 883.722C4407.47 882.528 4405.91 880.832 4404.78 878.634C4403.68 876.435 4403.11 873.801 4403.1 870.733V845.727H4413.99V868.79C4414.01 871.108 4414.63 872.94 4415.86 874.287C4417.08 875.634 4418.73 876.307 4420.79 876.307C4422.1 876.307 4423.33 876.009 4424.47 875.412C4425.61 874.798 4426.53 873.895 4427.23 872.702C4427.95 871.509 4428.3 870.034 4428.28 868.278ZM4466.62 845.727V853.909H4442.96V845.727H4466.62ZM4448.33 836.318H4459.23V872.932C4459.23 873.937 4459.38 874.722 4459.69 875.284C4459.99 875.83 4460.42 876.213 4460.96 876.435C4461.53 876.656 4462.17 876.767 4462.91 876.767C4463.42 876.767 4463.93 876.724 4464.44 876.639C4464.95 876.537 4465.35 876.46 4465.62 876.409L4467.33 884.514C4466.79 884.685 4466.02 884.881 4465.03 885.102C4464.04 885.341 4462.84 885.486 4461.42 885.537C4458.8 885.639 4456.5 885.29 4454.52 884.489C4452.56 883.687 4451.04 882.443 4449.94 880.756C4448.85 879.068 4448.32 876.937 4448.33 874.364V836.318Z" fill="white"/>
<defs>
<filter id="filter0_f_2108_1044" x="1077.44" y="239.443" width="5261.11" height="4291.11" filterUnits="userSpaceOnUse" color-interpolation-filters="sRGB">
<feFlood flood-opacity="0" result="BackgroundImageFix"/>
<feBlend mode="normal" in="SourceGraphic" in2="BackgroundImageFix" result="shape"/>
<feGaussianBlur stdDeviation="284.278" result="effect1_foregroundBlur_2108_1044"/>
</filter>
<linearGradient id="paint0_linear_2108_1044" x1="3708" y1="808" x2="3708" y2="3962" gradientUnits="userSpaceOnUse">
<stop stop-color="#16B6F0" stop-opacity="0.36"/>
<stop offset="1" stop-color="#1653F0" stop-opacity="0.6"/>
</linearGradient>
<linearGradient id="paint1_linear_2108_1044" x1="1049.5" y1="3665.68" x2="1049.5" y2="6441.82" gradientUnits="userSpaceOnUse">
<stop stop-color="#EAF0FF" stop-opacity="0.05"/>
<stop offset="1" stop-color="#EAF0FF"/>
</linearGradient>
<clipPath id="clip0_2108_1044">
<rect width="5371" height="3529" fill="white"/>
</clipPath>
</defs>
</svg>
