<svg width="5371" height="3529" viewBox="0 0 5371 3529" fill="none" xmlns="http://www.w3.org/2000/svg">
<g clip-path="url(#clip0_2109_17564)">
<rect width="5371" height="3529" fill="#EAF0FF"/>
<g filter="url(#filter0_f_2109_17564)">
<ellipse cx="3708" cy="2385" rx="2062" ry="1577" fill="url(#paint0_linear_2109_17564)" fill-opacity="0.5"/>
</g>
<rect y="589" width="2099" height="6141" fill="url(#paint1_linear_2109_17564)"/>
</g>
<path d="M4686 2893.2H686V2895.2H4686V2893.2Z" fill="#EBEBEB"/>
<path d="M1370.64 2969.36H1105.68V2971.36H1370.64V2969.36Z" fill="#EBEBEB"/>
<path d="M2486 2970.4H2055.12V2972.4H2486V2970.4Z" fill="#EBEBEB"/>
<path d="M1685.68 3010.64H1532.16V3012.64H1685.68V3010.64Z" fill="#EBEBEB"/>
<path d="M4254 3009.68H4100.16V3011.68H4254V3009.68Z" fill="#EBEBEB"/>
<path d="M4028.88 3009.68H3786.56V3011.68H4028.88V3009.68Z" fill="#EBEBEB"/>
<path d="M3653.12 2996.48H3312.64V2998.48H3653.12V2996.48Z" fill="#EBEBEB"/>
<path d="M2582 2536.4H1037.28C1025.18 2536.38 1013.58 2531.56 1005.03 2522.99C996.482 2514.43 991.68 2502.82 991.68 2490.72V319.28C991.786 307.248 996.634 295.744 1005.17 287.266C1013.71 278.788 1025.25 274.021 1037.28 274H2582C2594.12 274 2605.73 278.813 2614.3 287.379C2622.87 295.946 2627.68 307.565 2627.68 319.68V2490.72C2627.68 2502.84 2622.87 2514.45 2614.3 2523.02C2605.73 2531.59 2594.12 2536.4 2582 2536.4ZM1037.28 275.6C1025.71 275.621 1014.62 280.233 1006.45 288.422C998.271 296.611 993.68 307.709 993.68 319.28V2490.72C993.68 2502.29 998.271 2513.39 1006.45 2521.58C1014.62 2529.77 1025.71 2534.38 1037.28 2534.4H2582C2593.58 2534.38 2604.68 2529.77 2612.86 2521.58C2621.05 2513.4 2625.66 2502.3 2625.68 2490.72V319.28C2625.66 307.702 2621.05 296.604 2612.86 288.417C2604.68 280.23 2593.58 275.621 2582 275.6H1037.28Z" fill="#EBEBEB"/>
<path d="M4312.48 2536.4H2767.68C2755.57 2536.38 2743.96 2531.56 2735.4 2523C2726.84 2514.44 2722.02 2502.83 2722 2490.72V319.28C2722.13 307.241 2726.99 295.737 2735.54 287.261C2744.09 278.785 2755.64 274.02 2767.68 274H4312.48C4324.5 274.042 4336.02 278.818 4344.54 287.294C4353.06 295.77 4357.89 307.262 4358 319.28V2490.72C4358 2502.81 4353.21 2514.4 4344.68 2522.96C4336.15 2531.53 4324.57 2536.36 4312.48 2536.4ZM2767.68 275.6C2756.1 275.621 2745 280.23 2736.82 288.417C2728.63 296.604 2724.02 307.702 2724 319.28V2490.72C2724.02 2502.3 2728.63 2513.4 2736.82 2521.58C2745 2529.77 2756.1 2534.38 2767.68 2534.4H4312.48C4324.06 2534.38 4335.16 2529.77 4343.34 2521.58C4351.53 2513.4 4356.14 2502.3 4356.16 2490.72V319.28C4356.14 307.702 4351.53 296.604 4343.34 288.417C4335.16 280.23 4324.06 275.621 4312.48 275.6H2767.68Z" fill="#EBEBEB"/>
<path d="M3103.76 2893.2H3330.32V1766H3103.76V2893.2Z" fill="#E6E6E6"/>
<path d="M3146.72 2893.2H3103.68V2770.8H3191.84L3146.72 2893.2Z" fill="#F0F0F0"/>
<path d="M3950.48 2893.2H4177.04V1766H3950.48V2893.2Z" fill="#E6E6E6"/>
<path d="M3103.76 2818.08H3988.08V1766H3103.76V2818.08Z" fill="#F0F0F0"/>
<path d="M3137.12 2460.48V2665.04H3531.44V2460.48H3137.12Z" fill="#E6E6E6"/>
<path d="M3560.32 2460.48V2665.04H3954.64V2460.48H3560.32Z" fill="#E6E6E6"/>
<path d="M3718.48 2494.72H3796.48C3813.25 2494.73 3829.85 2491.32 3845.26 2484.69C3860.67 2478.05 3874.56 2468.35 3886.08 2456.16H3628.88C3640.4 2468.35 3654.29 2478.05 3669.7 2484.69C3685.11 2491.32 3701.71 2494.73 3718.48 2494.72Z" fill="#F0F0F0"/>
<path d="M3291.28 2494.72H3369.28C3386.05 2494.73 3402.65 2491.32 3418.06 2484.69C3433.47 2478.05 3447.36 2468.35 3458.88 2456.16H3201.68C3213.2 2468.35 3227.09 2478.05 3242.5 2484.69C3257.91 2491.32 3274.51 2494.73 3291.28 2494.72Z" fill="#F0F0F0"/>
<path d="M3137.04 2142.48V2347.04H3531.36V2142.48H3137.04Z" fill="#E6E6E6"/>
<path d="M3560.32 2142.56V2347.12H3954.64V2142.56H3560.32Z" fill="#E6E6E6"/>
<path d="M3718.48 2176.72H3796.48C3813.25 2176.68 3829.84 2173.23 3845.23 2166.58C3860.62 2159.92 3874.49 2150.2 3886 2138H3628.88C3640.4 2150.21 3654.28 2159.93 3669.69 2166.59C3685.1 2173.25 3701.7 2176.7 3718.48 2176.72Z" fill="#F0F0F0"/>
<path d="M3291.28 2176.72H3369.28C3386.04 2176.73 3402.64 2173.32 3418.04 2166.7C3433.45 2160.09 3447.34 2150.4 3458.88 2138.24H3201.68C3213.22 2150.4 3227.11 2160.09 3242.52 2166.7C3257.92 2173.32 3274.51 2176.73 3291.28 2176.72Z" fill="#F0F0F0"/>
<path d="M3137.12 1824.56V2029.12H3531.44V1824.56H3137.12Z" fill="#E6E6E6"/>
<path d="M3560.32 1824.56V2029.12H3954.64V1824.56H3560.32Z" fill="#E6E6E6"/>
<path d="M3718.48 1858.8H3796.48C3813.25 1858.81 3829.85 1855.4 3845.26 1848.77C3860.67 1842.13 3874.56 1832.43 3886.08 1820.24H3628.88C3640.4 1832.43 3654.29 1842.13 3669.7 1848.77C3685.11 1855.4 3701.71 1858.81 3718.48 1858.8Z" fill="#F0F0F0"/>
<path d="M3291.28 1858.8H3369.28C3386.05 1858.81 3402.65 1855.4 3418.06 1848.77C3433.47 1842.13 3447.36 1832.43 3458.88 1820.24H3201.68C3213.2 1832.43 3227.09 1842.13 3242.5 1848.77C3257.91 1855.4 3274.51 1858.81 3291.28 1858.8Z" fill="#F0F0F0"/>
<path d="M3945.04 2893.2H3988.08V2770.8H3899.92L3945.04 2893.2Z" fill="#F0F0F0"/>
<path d="M3982.32 992.16L4016.96 1086.88H3982.32L3769.76 992.16H3982.32Z" fill="#F5F5F5"/>
<path d="M4016.96 992.16V1086.88L3804.48 992.16H4016.96Z" fill="#E6E6E6"/>
<path d="M3148.96 992.16L3183.6 1086.88H3148.96L2936.48 992.16H3148.96Z" fill="#F5F5F5"/>
<path d="M3183.6 992.16V1086.88L2971.12 992.16H3183.6Z" fill="#E6E6E6"/>
<path d="M4172.96 924.48H3941.84V996.56H4172.96V924.48Z" fill="#E6E6E6"/>
<path d="M2792.8 996.64L3941.84 996.64V924.56L2792.8 924.56V996.64Z" fill="#F5F5F5"/>
<path d="M3708.48 674C3708.48 674 3710.8 924.56 3797.28 924.56C3883.76 924.56 3886 674 3886 674H3708.48Z" fill="#F0F0F0"/>
<path d="M3172.24 842.8C3172.24 842.8 3178.32 924.48 3410.96 924.48C3643.6 924.48 3649.68 842.8 3649.68 842.8H3172.24Z" fill="#F0F0F0"/>
<path d="M2480.88 2893.2H2496.32L2540.56 2675.2L2548.56 2636.96L2596.56 2399.36H2782L2882.24 2893.2H2897.76L2795.6 2390.32C2795.26 2388.6 2794.34 2387.05 2792.98 2385.94C2791.62 2384.83 2789.91 2384.23 2788.16 2384.24H2590.4C2588.65 2384.23 2586.96 2384.83 2585.62 2385.94C2584.27 2387.06 2583.36 2388.6 2583.04 2390.32L2540.64 2598.96L2532.64 2637.12L2480.88 2893.2Z" fill="#F0F0F0"/>
<path d="M2183.84 2893.2H2199.28L2299.6 2399.36H2484.56L2532.56 2637.12L2540.56 2675.2L2584.88 2893.2H2600.32L2548.32 2637.2L2540.32 2599.2L2497.92 2390.56C2497.51 2388.88 2496.56 2387.38 2495.21 2386.28C2493.87 2385.18 2492.21 2384.55 2490.48 2384.48H2293.44C2291.69 2384.47 2289.98 2385.07 2288.62 2386.18C2287.26 2387.29 2286.34 2388.84 2286 2390.56L2183.84 2893.2Z" fill="#F0F0F0"/>
<path d="M2809.68 2326.64H2271.52C2259.18 2326.66 2247.35 2331.57 2238.62 2340.3C2229.89 2349.03 2224.98 2360.86 2224.96 2373.2V2374.8C2224.96 2379.32 2226.76 2383.65 2229.95 2386.85C2233.15 2390.04 2237.48 2391.84 2242 2391.84H2839.2C2843.72 2391.84 2848.05 2390.04 2851.25 2386.85C2854.44 2383.65 2856.24 2379.32 2856.24 2374.8V2373.2C2856.22 2360.86 2851.31 2349.03 2842.58 2340.3C2833.85 2331.57 2822.02 2326.66 2809.68 2326.64Z" fill="#F0F0F0"/>
<path d="M1940.8 2893.2H1956.24L2000.48 2675.2L2008.48 2636.96L2056.48 2399.36H2241.44L2342 2893.2H2357.52L2255.36 2390.32C2255.02 2388.6 2254.1 2387.05 2252.74 2385.94C2251.38 2384.83 2249.67 2384.23 2247.92 2384.24H2050.32C2048.57 2384.23 2046.88 2384.83 2045.54 2385.94C2044.19 2387.06 2043.28 2388.6 2042.96 2390.32L2000.56 2598.96L1992.56 2637.12L1940.8 2893.2Z" fill="#F0F0F0"/>
<path d="M1643.76 2893.2H1659.28L1759.52 2399.36H1944.56L1992.56 2637.12L2000.56 2675.2L2044.88 2893.2H2060.32L2008.32 2637.2L2000.32 2599.2L1958 2390.32C1957.59 2388.64 1956.64 2387.13 1955.29 2386.04C1953.95 2384.94 1952.29 2384.31 1950.56 2384.24H1753.36C1751.61 2384.23 1749.9 2384.83 1748.54 2385.94C1747.18 2387.05 1746.26 2388.6 1745.92 2390.32L1643.76 2893.2Z" fill="#F0F0F0"/>
<path d="M2270 2326.64H1731.44C1719.1 2326.66 1707.27 2331.57 1698.54 2340.3C1689.81 2349.03 1684.9 2360.86 1684.88 2373.2V2374.8C1684.88 2379.32 1686.68 2383.65 1689.87 2386.85C1693.07 2390.04 1697.4 2391.84 1701.92 2391.84H2299.2C2301.43 2391.84 2303.65 2391.4 2305.71 2390.54C2307.77 2389.68 2309.64 2388.43 2311.22 2386.84C2312.8 2385.26 2314.04 2383.38 2314.89 2381.31C2315.74 2379.25 2316.17 2377.03 2316.16 2374.8V2373.2C2316.14 2360.93 2311.28 2349.16 2302.64 2340.44C2294 2331.72 2282.27 2326.77 2270 2326.64Z" fill="#F0F0F0"/>
<path d="M1360.64 1694.8H2133.84V456.16H1360.64V1694.8Z" fill="#E6E6E6"/>
<path d="M1310.16 1694.8H2110.24V456.16H1310.16V1694.8Z" fill="#F0F0F0"/>
<path d="M1360.64 1788.64H2133.84V1694.72H1360.64V1788.64Z" fill="#E6E6E6"/>
<path d="M1226 1788.64H2026.08V1694.72H1226V1788.64Z" fill="#F0F0F0"/>
<path d="M2039.44 1624.08V526.88H1380.8V1624.08H2039.44Z" fill="#FAFAFA"/>
<path d="M2045.12 1624L1813.44 526.88H1617.44L1849.12 1624H2045.12Z" fill="white"/>
<path d="M1991.76 1492.96C1993.1 1492.96 1994.38 1492.43 1995.32 1491.48C1996.27 1490.54 1996.8 1489.26 1996.8 1487.92V572.88C1996.8 571.543 1996.27 570.261 1995.32 569.316C1994.38 568.371 1993.1 567.84 1991.76 567.84C1990.42 567.84 1989.14 568.371 1988.2 569.316C1987.25 570.261 1986.72 571.543 1986.72 572.88V1487.92C1986.72 1489.26 1987.25 1490.54 1988.2 1491.48C1989.14 1492.43 1990.42 1492.96 1991.76 1492.96Z" fill="#F0F0F0"/>
<path d="M1807.04 1624L1575.36 526.88H1498.96L1730.56 1624H1807.04Z" fill="white"/>
<path d="M1389.84 1624.08V526.88H1380.88V1624.08H1389.84Z" fill="#E6E6E6"/>
<path opacity="0.6" d="M1293.36 581.2H2066.56L2073.12 554.32H1299.92L1293.36 581.2Z" fill="#F0F0F0"/>
<path opacity="0.6" d="M1293.36 643.68H2066.56L2073.12 616.88H1299.92L1293.36 643.68Z" fill="#F0F0F0"/>
<path opacity="0.6" d="M1293.36 706.24H2066.56L2073.12 679.36H1299.92L1293.36 706.24Z" fill="#F0F0F0"/>
<path opacity="0.6" d="M1293.36 768.72H2066.56L2073.12 741.92H1299.92L1293.36 768.72Z" fill="#F0F0F0"/>
<path opacity="0.6" d="M1293.36 831.28H2066.56L2073.12 804.48H1299.92L1293.36 831.28Z" fill="#F0F0F0"/>
<path opacity="0.6" d="M1293.36 893.84H2066.56L2073.12 866.96H1299.92L1293.36 893.84Z" fill="#F0F0F0"/>
<path d="M2686 3254.48C3542.66 3254.48 4237.12 3213.93 4237.12 3163.92C4237.12 3113.9 3542.66 3073.36 2686 3073.36C1829.34 3073.36 1134.88 3113.9 1134.88 3163.92C1134.88 3213.93 1829.34 3254.48 2686 3254.48Z" fill="#F5F5F5"/>
<path d="M2630.96 1935.84H2142.24C2135.35 1935.84 2129.76 1941.43 2129.76 1948.32V2152.16C2129.76 2159.05 2135.35 2164.64 2142.24 2164.64H2630.96C2637.85 2164.64 2643.44 2159.05 2643.44 2152.16V1948.32C2643.44 1941.43 2637.85 1935.84 2630.96 1935.84Z" fill="#90CAF9"/>
<path opacity="0.6" d="M2630.96 1935.84H2142.24C2135.35 1935.84 2129.76 1941.43 2129.76 1948.32V2152.16C2129.76 2159.05 2135.35 2164.64 2142.24 2164.64H2630.96C2637.85 2164.64 2643.44 2159.05 2643.44 2152.16V1948.32C2643.44 1941.43 2637.85 1935.84 2630.96 1935.84Z" fill="white"/>
<path opacity="0.1" d="M2630.88 1935.84H2142C2138.69 1935.84 2135.52 1937.15 2133.17 1939.5C2130.83 1941.84 2129.52 1945.01 2129.52 1948.32V2013.68L2383.92 2063.76C2385.48 2064.08 2387.08 2064.08 2388.64 2063.76L2643.12 2013.68V1948.32C2643.12 1945.05 2641.84 1941.91 2639.55 1939.58C2637.26 1937.25 2634.15 1935.9 2630.88 1935.84Z" fill="black"/>
<path d="M2641.6 1852.16H2492.32V1827.12C2492.3 1816.77 2488.18 1806.85 2480.86 1799.54C2473.55 1792.22 2463.63 1788.1 2453.28 1788.08H2319.92C2309.57 1788.1 2299.66 1792.22 2292.34 1799.54C2285.02 1806.85 2280.9 1816.77 2280.88 1827.12V1852.16H2131.68C2128.41 1852.16 2125.28 1853.46 2122.97 1855.77C2120.66 1858.08 2119.36 1861.21 2119.36 1864.48V1987.76C2119.38 1990.61 2120.37 1993.36 2122.18 1995.56C2123.98 1997.76 2126.49 1999.27 2129.28 1999.84L2384.24 2050C2385.8 2050.24 2387.4 2050.24 2388.96 2050L2643.92 1999.84C2646.72 1999.27 2649.24 1997.76 2651.05 1995.57C2652.87 1993.37 2653.89 1990.61 2653.92 1987.76V1864.48C2653.92 1861.21 2652.62 1858.08 2650.31 1855.77C2648 1853.46 2644.87 1852.16 2641.6 1852.16ZM2310.56 1827.12C2310.58 1824.64 2311.57 1822.26 2313.32 1820.5C2315.07 1818.73 2317.44 1817.72 2319.92 1817.68H2453.28C2455.76 1817.72 2458.13 1818.73 2459.88 1820.5C2461.63 1822.26 2462.62 1824.64 2462.64 1827.12V1852.16H2310.64L2310.56 1827.12Z" fill="#90CAF9"/>
<path opacity="0.6" d="M2641.6 1852.16H2492.32V1827.12C2492.3 1816.77 2488.18 1806.85 2480.86 1799.54C2473.55 1792.22 2463.63 1788.1 2453.28 1788.08H2319.92C2309.57 1788.1 2299.66 1792.22 2292.34 1799.54C2285.02 1806.85 2280.9 1816.77 2280.88 1827.12V1852.16H2131.68C2128.41 1852.16 2125.28 1853.46 2122.97 1855.77C2120.66 1858.08 2119.36 1861.21 2119.36 1864.48V1987.76C2119.38 1990.61 2120.37 1993.36 2122.18 1995.56C2123.98 1997.76 2126.49 1999.27 2129.28 1999.84L2384.24 2050C2385.8 2050.24 2387.4 2050.24 2388.96 2050L2643.92 1999.84C2646.72 1999.27 2649.24 1997.76 2651.05 1995.57C2652.87 1993.37 2653.89 1990.61 2653.92 1987.76V1864.48C2653.92 1861.21 2652.62 1858.08 2650.31 1855.77C2648 1853.46 2644.87 1852.16 2641.6 1852.16ZM2310.56 1827.12C2310.58 1824.64 2311.57 1822.26 2313.32 1820.5C2315.07 1818.73 2317.44 1817.72 2319.92 1817.68H2453.28C2455.76 1817.72 2458.13 1818.73 2459.88 1820.5C2461.63 1822.26 2462.62 1824.64 2462.64 1827.12V1852.16H2310.64L2310.56 1827.12Z" fill="white"/>
<path d="M2412.96 2016.32H2360.32C2353.78 2016.32 2348.48 2021.62 2348.48 2028.16V2061.44C2348.48 2067.98 2353.78 2073.28 2360.32 2073.28H2412.96C2419.5 2073.28 2424.8 2067.98 2424.8 2061.44V2028.16C2424.8 2021.62 2419.5 2016.32 2412.96 2016.32Z" fill="#90CAF9"/>
<path opacity="0.3" d="M2412.96 2016.32H2360.32C2353.78 2016.32 2348.48 2021.62 2348.48 2028.16V2061.44C2348.48 2067.98 2353.78 2073.28 2360.32 2073.28H2412.96C2419.5 2073.28 2424.8 2067.98 2424.8 2061.44V2028.16C2424.8 2021.62 2419.5 2016.32 2412.96 2016.32Z" fill="white"/>
<path d="M2630.96 464.16H2142.24C2135.35 464.16 2129.76 469.747 2129.76 476.64V680.48C2129.76 687.372 2135.35 692.96 2142.24 692.96H2630.96C2637.85 692.96 2643.44 687.372 2643.44 680.48V476.64C2643.44 469.747 2637.85 464.16 2630.96 464.16Z" fill="#90CAF9"/>
<path opacity="0.6" d="M2630.96 464.16H2142.24C2135.35 464.16 2129.76 469.747 2129.76 476.64V680.48C2129.76 687.372 2135.35 692.96 2142.24 692.96H2630.96C2637.85 692.96 2643.44 687.372 2643.44 680.48V476.64C2643.44 469.747 2637.85 464.16 2630.96 464.16Z" fill="white"/>
<path opacity="0.1" d="M2630.88 464.16H2142C2138.69 464.16 2135.52 465.475 2133.17 467.815C2130.83 470.156 2129.52 473.33 2129.52 476.64V542L2383.92 592.08C2385.48 592.399 2387.08 592.399 2388.64 592.08L2643.12 542V476.64C2643.12 473.371 2641.84 470.233 2639.55 467.899C2637.26 465.565 2634.15 464.223 2630.88 464.16Z" fill="black"/>
<path d="M2641.6 380.48H2492.32V355.44C2492.3 345.092 2488.18 335.175 2480.86 327.858C2473.55 320.541 2463.63 316.421 2453.28 316.4H2319.92C2309.57 316.421 2299.66 320.541 2292.34 327.858C2285.02 335.175 2280.9 345.092 2280.88 355.44V380.48H2131.68C2128.41 380.48 2125.28 381.778 2122.97 384.088C2120.66 386.399 2119.36 389.532 2119.36 392.8V516.08C2119.36 518.93 2120.35 521.692 2122.16 523.895C2123.97 526.097 2126.48 527.605 2129.28 528.16L2384.24 578C2385.8 578.319 2387.4 578.319 2388.96 578L2643.92 527.84C2646.69 527.315 2649.19 525.865 2651.02 523.727C2652.85 521.59 2653.9 518.893 2654 516.08V392.8C2654 391.175 2653.68 389.567 2653.05 388.067C2652.43 386.567 2651.52 385.205 2650.36 384.06C2649.21 382.915 2647.84 382.009 2646.34 381.395C2644.84 380.78 2643.22 380.469 2641.6 380.48ZM2310.56 355.44C2310.56 352.95 2311.54 350.561 2313.3 348.793C2315.05 347.025 2317.43 346.021 2319.92 346H2453.28C2455.76 346.021 2458.12 347.014 2459.88 348.764C2461.63 350.515 2462.62 352.884 2462.64 355.36V380.4H2310.64L2310.56 355.44Z" fill="#90CAF9"/>
<path opacity="0.6" d="M2641.6 380.48H2492.32V355.44C2492.3 345.092 2488.18 335.175 2480.86 327.858C2473.55 320.541 2463.63 316.421 2453.28 316.4H2319.92C2309.57 316.421 2299.66 320.541 2292.34 327.858C2285.02 335.175 2280.9 345.092 2280.88 355.44V380.48H2131.68C2128.41 380.48 2125.28 381.778 2122.97 384.088C2120.66 386.399 2119.36 389.532 2119.36 392.8V516.08C2119.36 518.93 2120.35 521.692 2122.16 523.895C2123.97 526.097 2126.48 527.605 2129.28 528.16L2384.24 578C2385.8 578.319 2387.4 578.319 2388.96 578L2643.92 527.84C2646.69 527.315 2649.19 525.865 2651.02 523.727C2652.85 521.59 2653.9 518.893 2654 516.08V392.8C2654 391.175 2653.68 389.567 2653.05 388.067C2652.43 386.567 2651.52 385.205 2650.36 384.06C2649.21 382.915 2647.84 382.009 2646.34 381.395C2644.84 380.78 2643.22 380.469 2641.6 380.48ZM2310.56 355.44C2310.56 352.95 2311.54 350.561 2313.3 348.793C2315.05 347.025 2317.43 346.021 2319.92 346H2453.28C2455.76 346.021 2458.12 347.014 2459.88 348.764C2461.63 350.515 2462.62 352.884 2462.64 355.36V380.4H2310.64L2310.56 355.44Z" fill="white"/>
<path d="M2412.96 544.72H2360.32C2353.78 544.72 2348.48 550.021 2348.48 556.56V589.84C2348.48 596.379 2353.78 601.68 2360.32 601.68H2412.96C2419.5 601.68 2424.8 596.379 2424.8 589.84V556.56C2424.8 550.021 2419.5 544.72 2412.96 544.72Z" fill="#90CAF9"/>
<path opacity="0.3" d="M2412.96 544.72H2360.32C2353.78 544.72 2348.48 550.021 2348.48 556.56V589.84C2348.48 596.379 2353.78 601.68 2360.32 601.68H2412.96C2419.5 601.68 2424.8 596.379 2424.8 589.84V556.56C2424.8 550.021 2419.5 544.72 2412.96 544.72Z" fill="white"/>
<path d="M1869.68 1935.84H1380.96C1374.07 1935.84 1368.48 1941.43 1368.48 1948.32V2152.16C1368.48 2159.05 1374.07 2164.64 1380.96 2164.64H1869.68C1876.57 2164.64 1882.16 2159.05 1882.16 2152.16V1948.32C1882.16 1941.43 1876.57 1935.84 1869.68 1935.84Z" fill="#90CAF9"/>
<path opacity="0.6" d="M1869.68 1935.84H1380.96C1374.07 1935.84 1368.48 1941.43 1368.48 1948.32V2152.16C1368.48 2159.05 1374.07 2164.64 1380.96 2164.64H1869.68C1876.57 2164.64 1882.16 2159.05 1882.16 2152.16V1948.32C1882.16 1941.43 1876.57 1935.84 1869.68 1935.84Z" fill="white"/>
<path opacity="0.1" d="M1870 1935.84H1380.96C1377.65 1935.84 1374.48 1937.15 1372.14 1939.5C1369.79 1941.84 1368.48 1945.01 1368.48 1948.32V2013.68L1622.88 2063.76C1624.46 2064.08 1626.1 2064.08 1627.68 2063.76L1882.16 2013.68V1948.32C1882.16 1945.06 1880.89 1941.94 1878.62 1939.61C1876.35 1937.27 1873.25 1935.92 1870 1935.84Z" fill="black"/>
<path d="M1880.24 1852.16H1730.96V1827.12C1730.94 1816.77 1726.82 1806.85 1719.5 1799.54C1712.19 1792.22 1702.27 1788.1 1691.92 1788.08H1558.64C1548.29 1788.1 1538.37 1792.22 1531.06 1799.54C1523.74 1806.85 1519.62 1816.77 1519.6 1827.12V1852.16H1370.32C1367.05 1852.16 1363.92 1853.46 1361.61 1855.77C1359.3 1858.08 1358 1861.21 1358 1864.48V1987.76C1358.02 1990.61 1359.01 1993.36 1360.82 1995.56C1362.62 1997.76 1365.13 1999.27 1367.92 1999.84L1622.88 2050C1624.47 2050.24 1626.09 2050.24 1627.68 2050L1882.64 1999.84C1885.43 1999.27 1887.94 1997.76 1889.74 1995.56C1891.55 1993.36 1892.54 1990.61 1892.56 1987.76V1864.48C1892.56 1861.21 1891.26 1858.08 1888.95 1855.77C1886.64 1853.46 1883.51 1852.16 1880.24 1852.16ZM1549.2 1827.12C1549.24 1824.63 1550.25 1822.25 1552.01 1820.49C1553.77 1818.73 1556.15 1817.72 1558.64 1817.68H1691.92C1694.41 1817.72 1696.79 1818.73 1698.55 1820.49C1700.31 1822.25 1701.32 1824.63 1701.36 1827.12V1852.16H1549.36L1549.2 1827.12Z" fill="#90CAF9"/>
<path opacity="0.6" d="M1880.24 1852.16H1730.96V1827.12C1730.94 1816.77 1726.82 1806.85 1719.5 1799.54C1712.19 1792.22 1702.27 1788.1 1691.92 1788.08H1558.64C1548.29 1788.1 1538.37 1792.22 1531.06 1799.54C1523.74 1806.85 1519.62 1816.77 1519.6 1827.12V1852.16H1370.32C1367.05 1852.16 1363.92 1853.46 1361.61 1855.77C1359.3 1858.08 1358 1861.21 1358 1864.48V1987.76C1358.02 1990.61 1359.01 1993.36 1360.82 1995.56C1362.62 1997.76 1365.13 1999.27 1367.92 1999.84L1622.88 2050C1624.47 2050.24 1626.09 2050.24 1627.68 2050L1882.64 1999.84C1885.43 1999.27 1887.94 1997.76 1889.74 1995.56C1891.55 1993.36 1892.54 1990.61 1892.56 1987.76V1864.48C1892.56 1861.21 1891.26 1858.08 1888.95 1855.77C1886.64 1853.46 1883.51 1852.16 1880.24 1852.16ZM1549.2 1827.12C1549.24 1824.63 1550.25 1822.25 1552.01 1820.49C1553.77 1818.73 1556.15 1817.72 1558.64 1817.68H1691.92C1694.41 1817.72 1696.79 1818.73 1698.55 1820.49C1700.31 1822.25 1701.32 1824.63 1701.36 1827.12V1852.16H1549.36L1549.2 1827.12Z" fill="white"/>
<path d="M1651.6 2016.32H1598.96C1592.42 2016.32 1587.12 2021.62 1587.12 2028.16V2061.44C1587.12 2067.98 1592.42 2073.28 1598.96 2073.28H1651.6C1658.14 2073.28 1663.44 2067.98 1663.44 2061.44V2028.16C1663.44 2021.62 1658.14 2016.32 1651.6 2016.32Z" fill="#90CAF9"/>
<path opacity="0.3" d="M1651.6 2016.32H1598.96C1592.42 2016.32 1587.12 2021.62 1587.12 2028.16V2061.44C1587.12 2067.98 1592.42 2073.28 1598.96 2073.28H1651.6C1658.14 2073.28 1663.44 2067.98 1663.44 2061.44V2028.16C1663.44 2021.62 1658.14 2016.32 1651.6 2016.32Z" fill="white"/>
<path d="M1869.68 464.16H1380.96C1374.07 464.16 1368.48 469.747 1368.48 476.64V680.48C1368.48 687.372 1374.07 692.96 1380.96 692.96H1869.68C1876.57 692.96 1882.16 687.372 1882.16 680.48V476.64C1882.16 469.747 1876.57 464.16 1869.68 464.16Z" fill="#90CAF9"/>
<path opacity="0.6" d="M1869.68 464.16H1380.96C1374.07 464.16 1368.48 469.747 1368.48 476.64V680.48C1368.48 687.372 1374.07 692.96 1380.96 692.96H1869.68C1876.57 692.96 1882.16 687.372 1882.16 680.48V476.64C1882.16 469.747 1876.57 464.16 1869.68 464.16Z" fill="white"/>
<path opacity="0.1" d="M1870 464.16H1380.96C1377.65 464.16 1374.48 465.475 1372.14 467.815C1369.79 470.156 1368.48 473.33 1368.48 476.64V542L1622.88 592.08C1624.46 592.401 1626.1 592.401 1627.68 592.08L1882.16 542V476.64C1882.16 473.385 1880.89 470.258 1878.62 467.927C1876.35 465.595 1873.25 464.243 1870 464.16Z" fill="black"/>
<path d="M1880.24 380.48H1730.96V355.44C1730.94 345.092 1726.82 335.175 1719.5 327.858C1712.19 320.541 1702.27 316.421 1691.92 316.4H1558.64C1548.29 316.421 1538.37 320.541 1531.06 327.858C1523.74 335.175 1519.62 345.092 1519.6 355.44V380.48H1370.32C1367.05 380.48 1363.92 381.778 1361.61 384.088C1359.3 386.399 1358 389.532 1358 392.8V516.08C1358 518.93 1358.99 521.692 1360.8 523.895C1362.61 526.097 1365.12 527.605 1367.92 528.16L1622.88 578C1624.46 578.321 1626.1 578.321 1627.68 578L1882.64 527.84C1885.44 527.285 1887.95 525.777 1889.76 523.575C1891.57 521.372 1892.56 518.61 1892.56 515.76V392.8C1892.56 389.532 1891.26 386.399 1888.95 384.088C1886.64 381.778 1883.51 380.48 1880.24 380.48ZM1549.2 355.44C1549.22 352.943 1550.22 350.554 1551.99 348.788C1553.75 347.022 1556.14 346.021 1558.64 346H1691.92C1694.4 346.02 1696.78 347.011 1698.54 348.759C1700.31 350.508 1701.32 352.877 1701.36 355.36V380.4H1549.36L1549.2 355.44Z" fill="#90CAF9"/>
<path opacity="0.6" d="M1880.24 380.48H1730.96V355.44C1730.94 345.092 1726.82 335.175 1719.5 327.858C1712.19 320.541 1702.27 316.421 1691.92 316.4H1558.64C1548.29 316.421 1538.37 320.541 1531.06 327.858C1523.74 335.175 1519.62 345.092 1519.6 355.44V380.48H1370.32C1367.05 380.48 1363.92 381.778 1361.61 384.088C1359.3 386.399 1358 389.532 1358 392.8V516.08C1358 518.93 1358.99 521.692 1360.8 523.895C1362.61 526.097 1365.12 527.605 1367.92 528.16L1622.88 578C1624.46 578.321 1626.1 578.321 1627.68 578L1882.64 527.84C1885.44 527.285 1887.95 525.777 1889.76 523.575C1891.57 521.372 1892.56 518.61 1892.56 515.76V392.8C1892.56 389.532 1891.26 386.399 1888.95 384.088C1886.64 381.778 1883.51 380.48 1880.24 380.48ZM1549.2 355.44C1549.22 352.943 1550.22 350.554 1551.99 348.788C1553.75 347.022 1556.14 346.021 1558.64 346H1691.92C1694.4 346.02 1696.78 347.011 1698.54 348.759C1700.31 350.508 1701.32 352.877 1701.36 355.36V380.4H1549.36L1549.2 355.44Z" fill="white"/>
<path d="M1651.6 544.72H1598.96C1592.42 544.72 1587.12 550.021 1587.12 556.56V589.84C1587.12 596.379 1592.42 601.68 1598.96 601.68H1651.6C1658.14 601.68 1663.44 596.379 1663.44 589.84V556.56C1663.44 550.021 1658.14 544.72 1651.6 544.72Z" fill="#90CAF9"/>
<path opacity="0.3" d="M1651.6 544.72H1598.96C1592.42 544.72 1587.12 550.021 1587.12 556.56V589.84C1587.12 596.379 1592.42 601.68 1598.96 601.68H1651.6C1658.14 601.68 1663.44 596.379 1663.44 589.84V556.56C1663.44 550.021 1658.14 544.72 1651.6 544.72Z" fill="white"/>
<path d="M1806 1428.8H1380.96C1377.63 1428.8 1374.43 1427.48 1372.08 1425.12C1369.72 1422.77 1368.4 1419.57 1368.4 1416.24V1212.48C1368.41 1210.8 1368.77 1209.14 1369.44 1207.6C1369.77 1206.88 1370.14 1206.19 1370.56 1205.52C1371.01 1204.84 1371.54 1204.22 1372.16 1203.68C1374.49 1201.34 1377.66 1200.01 1380.96 1200H1783.28C1779.93 1227.92 1778.84 1256.06 1780 1284.16C1780 1288.72 1780 1293.28 1780.72 1297.76C1781.28 1306.16 1781.92 1314.64 1782.88 1323.04C1787 1358.98 1794.74 1394.42 1806 1428.8Z" fill="#90CAF9"/>
<path opacity="0.6" d="M1806 1428.8H1380.96C1377.63 1428.8 1374.43 1427.48 1372.08 1425.12C1369.72 1422.77 1368.4 1419.57 1368.4 1416.24V1212.48C1368.41 1210.8 1368.77 1209.14 1369.44 1207.6C1369.77 1206.88 1370.14 1206.19 1370.56 1205.52C1371.01 1204.84 1371.54 1204.22 1372.16 1203.68C1374.49 1201.34 1377.66 1200.01 1380.96 1200H1783.28C1779.93 1227.92 1778.84 1256.06 1780 1284.16C1780 1288.72 1780 1293.28 1780.72 1297.76C1781.28 1306.16 1781.92 1314.64 1782.88 1323.04C1787 1358.98 1794.74 1394.42 1806 1428.8Z" fill="white"/>
<path opacity="0.1" d="M1783.28 1200C1779.93 1227.92 1778.84 1256.06 1780 1284.16C1780 1288.72 1780 1293.28 1780.72 1297.76L1663.44 1320.8L1627.6 1327.84C1626.05 1328.24 1624.43 1328.24 1622.88 1327.84L1587.12 1320.88L1368.48 1277.84V1212.4C1368.51 1210.75 1368.83 1209.13 1369.44 1207.6C1369.77 1206.88 1370.14 1206.19 1370.56 1205.52C1371.01 1204.84 1371.54 1204.22 1372.16 1203.68C1374.49 1201.34 1377.66 1200.01 1380.96 1200H1783.28Z" fill="black"/>
<path d="M1800 1116.32H1731.04V1091.28C1731 1080.93 1726.86 1071.01 1719.53 1063.69C1712.2 1056.38 1702.27 1052.26 1691.92 1052.24H1558.64C1548.29 1052.24 1538.36 1056.35 1531.03 1063.67C1523.71 1071 1519.6 1080.93 1519.6 1091.28V1116.32H1370.32C1368.7 1116.32 1367.1 1116.64 1365.61 1117.26C1364.11 1117.88 1362.75 1118.78 1361.61 1119.93C1360.46 1121.07 1359.56 1122.43 1358.94 1123.93C1358.32 1125.42 1358 1127.02 1358 1128.64V1251.84C1358 1254.71 1359 1257.49 1360.82 1259.71C1362.65 1261.93 1365.18 1263.44 1368 1264H1368.48L1587.12 1307.12L1622.88 1314.08C1624.44 1314.4 1626.04 1314.4 1627.6 1314.08L1663.44 1307.04L1780 1284.08C1778.84 1255.98 1779.93 1227.84 1783.28 1199.92C1786.6 1171.65 1792.19 1143.69 1800 1116.32ZM1549.2 1091.28C1549.24 1088.8 1550.25 1086.43 1552.02 1084.68C1553.78 1082.93 1556.16 1081.94 1558.64 1081.92H1691.92C1694.4 1081.94 1696.76 1082.93 1698.52 1084.68C1700.27 1086.44 1701.26 1088.8 1701.28 1091.28V1116.32H1549.28L1549.2 1091.28Z" fill="#90CAF9"/>
<path opacity="0.6" d="M1800 1116.32H1731.04V1091.28C1731 1080.93 1726.86 1071.01 1719.53 1063.69C1712.2 1056.38 1702.27 1052.26 1691.92 1052.24H1558.64C1548.29 1052.24 1538.36 1056.35 1531.03 1063.67C1523.71 1071 1519.6 1080.93 1519.6 1091.28V1116.32H1370.32C1368.7 1116.32 1367.1 1116.64 1365.61 1117.26C1364.11 1117.88 1362.75 1118.78 1361.61 1119.93C1360.46 1121.07 1359.56 1122.43 1358.94 1123.93C1358.32 1125.42 1358 1127.02 1358 1128.64V1251.84C1358 1254.71 1359 1257.49 1360.82 1259.71C1362.65 1261.93 1365.18 1263.44 1368 1264H1368.48L1587.12 1307.12L1622.88 1314.08C1624.44 1314.4 1626.04 1314.4 1627.6 1314.08L1663.44 1307.04L1780 1284.08C1778.84 1255.98 1779.93 1227.84 1783.28 1199.92C1786.6 1171.65 1792.19 1143.69 1800 1116.32ZM1549.2 1091.28C1549.24 1088.8 1550.25 1086.43 1552.02 1084.68C1553.78 1082.93 1556.16 1081.94 1558.64 1081.92H1691.92C1694.4 1081.94 1696.76 1082.93 1698.52 1084.68C1700.27 1086.44 1701.26 1088.8 1701.28 1091.28V1116.32H1549.28L1549.2 1091.28Z" fill="white"/>
<path d="M1651.6 1280.48H1598.96C1592.42 1280.48 1587.12 1285.78 1587.12 1292.32V1325.6C1587.12 1332.14 1592.42 1337.44 1598.96 1337.44H1651.6C1658.14 1337.44 1663.44 1332.14 1663.44 1325.6V1292.32C1663.44 1285.78 1658.14 1280.48 1651.6 1280.48Z" fill="#90CAF9"/>
<path opacity="0.3" d="M1651.6 1280.48H1598.96C1592.42 1280.48 1587.12 1285.78 1587.12 1292.32V1325.6C1587.12 1332.14 1592.42 1337.44 1598.96 1337.44H1651.6C1658.14 1337.44 1663.44 1332.14 1663.44 1325.6V1292.32C1663.44 1285.78 1658.14 1280.48 1651.6 1280.48Z" fill="white"/>
<path d="M2903.52 2164.56H3392.24C3399.13 2164.56 3404.72 2158.97 3404.72 2152.08V1948.24C3404.72 1941.35 3399.13 1935.76 3392.24 1935.76H2903.52C2896.63 1935.76 2891.04 1941.35 2891.04 1948.24V2152.08C2891.04 2158.97 2896.63 2164.56 2903.52 2164.56Z" fill="#90CAF9"/>
<path opacity="0.6" d="M2903.52 2164.56H3392.24C3399.13 2164.56 3404.72 2158.97 3404.72 2152.08V1948.24C3404.72 1941.35 3399.13 1935.76 3392.24 1935.76H2903.52C2896.63 1935.76 2891.04 1941.35 2891.04 1948.24V2152.08C2891.04 2158.97 2896.63 2164.56 2903.52 2164.56Z" fill="white"/>
<path opacity="0.1" d="M2903.6 1935.84H3392.24C3395.55 1935.84 3398.72 1937.15 3401.06 1939.5C3403.4 1941.84 3404.72 1945.01 3404.72 1948.32V2013.68L3150 2063.76C3148.44 2064.08 3146.84 2064.08 3145.28 2063.76L2890.8 2013.68V1948.32C2890.8 1946.65 2891.13 1945 2891.78 1943.47C2892.43 1941.93 2893.37 1940.54 2894.57 1939.38C2895.76 1938.22 2897.17 1937.3 2898.73 1936.7C2900.28 1936.09 2901.93 1935.8 2903.6 1935.84Z" fill="black"/>
<path d="M2892.96 1852.16H3042.24V1827.12C3042.26 1816.77 3046.38 1806.85 3053.7 1799.54C3061.02 1792.22 3070.93 1788.1 3081.28 1788.08H3214.64C3224.99 1788.1 3234.91 1792.22 3242.22 1799.54C3249.54 1806.85 3253.66 1816.77 3253.68 1827.12V1852.16H3402.88C3404.5 1852.16 3406.1 1852.48 3407.59 1853.1C3409.09 1853.72 3410.45 1854.62 3411.59 1855.77C3412.74 1856.91 3413.64 1858.27 3414.26 1859.77C3414.88 1861.26 3415.2 1862.86 3415.2 1864.48V1987.76C3415.18 1990.61 3414.19 1993.36 3412.38 1995.56C3410.58 1997.76 3408.07 1999.27 3405.28 1999.84L3150 2050C3148.41 2050.24 3146.79 2050.24 3145.2 2050L2890.24 1999.84C2887.45 1999.27 2884.94 1997.76 2883.14 1995.56C2881.33 1993.36 2880.34 1990.61 2880.32 1987.76V1864.48C2880.32 1862.83 2880.65 1861.21 2881.29 1859.69C2881.93 1858.17 2882.86 1856.8 2884.04 1855.65C2885.22 1854.5 2886.62 1853.6 2888.15 1853C2889.68 1852.4 2891.32 1852.12 2892.96 1852.16ZM3224 1827.12C3223.98 1824.64 3222.99 1822.26 3221.24 1820.5C3219.49 1818.73 3217.12 1817.72 3214.64 1817.68H3081.28C3078.79 1817.72 3076.41 1818.73 3074.65 1820.49C3072.89 1822.25 3071.88 1824.63 3071.84 1827.12V1852.16H3223.84L3224 1827.12Z" fill="#90CAF9"/>
<path opacity="0.6" d="M2892.96 1852.16H3042.24V1827.12C3042.26 1816.77 3046.38 1806.85 3053.7 1799.54C3061.02 1792.22 3070.93 1788.1 3081.28 1788.08H3214.64C3224.99 1788.1 3234.91 1792.22 3242.22 1799.54C3249.54 1806.85 3253.66 1816.77 3253.68 1827.12V1852.16H3402.88C3404.5 1852.16 3406.1 1852.48 3407.59 1853.1C3409.09 1853.72 3410.45 1854.62 3411.59 1855.77C3412.74 1856.91 3413.64 1858.27 3414.26 1859.77C3414.88 1861.26 3415.2 1862.86 3415.2 1864.48V1987.76C3415.18 1990.61 3414.19 1993.36 3412.38 1995.56C3410.58 1997.76 3408.07 1999.27 3405.28 1999.84L3150 2050C3148.41 2050.24 3146.79 2050.24 3145.2 2050L2890.24 1999.84C2887.45 1999.27 2884.94 1997.76 2883.14 1995.56C2881.33 1993.36 2880.34 1990.61 2880.32 1987.76V1864.48C2880.32 1862.83 2880.65 1861.21 2881.29 1859.69C2881.93 1858.17 2882.86 1856.8 2884.04 1855.65C2885.22 1854.5 2886.62 1853.6 2888.15 1853C2889.68 1852.4 2891.32 1852.12 2892.96 1852.16ZM3224 1827.12C3223.98 1824.64 3222.99 1822.26 3221.24 1820.5C3219.49 1818.73 3217.12 1817.72 3214.64 1817.68H3081.28C3078.79 1817.72 3076.41 1818.73 3074.65 1820.49C3072.89 1822.25 3071.88 1824.63 3071.84 1827.12V1852.16H3223.84L3224 1827.12Z" fill="white"/>
<path d="M3121.6 2073.28H3174.24C3180.78 2073.28 3186.08 2067.98 3186.08 2061.44V2028.16C3186.08 2021.62 3180.78 2016.32 3174.24 2016.32H3121.6C3115.06 2016.32 3109.76 2021.62 3109.76 2028.16V2061.44C3109.76 2067.98 3115.06 2073.28 3121.6 2073.28Z" fill="#90CAF9"/>
<path opacity="0.3" d="M3121.6 2073.28H3174.24C3180.78 2073.28 3186.08 2067.98 3186.08 2061.44V2028.16C3186.08 2021.62 3180.78 2016.32 3174.24 2016.32H3121.6C3115.06 2016.32 3109.76 2021.62 3109.76 2028.16V2061.44C3109.76 2067.98 3115.06 2073.28 3121.6 2073.28Z" fill="white"/>
<path d="M2903.52 692.88L3392.24 692.88C3399.13 692.88 3404.72 687.292 3404.72 680.4V476.56C3404.72 469.667 3399.13 464.08 3392.24 464.08L2903.52 464.08C2896.63 464.08 2891.04 469.667 2891.04 476.56V680.4C2891.04 687.292 2896.63 692.88 2903.52 692.88Z" fill="#90CAF9"/>
<path opacity="0.6" d="M2903.52 692.88L3392.24 692.88C3399.13 692.88 3404.72 687.292 3404.72 680.4V476.56C3404.72 469.667 3399.13 464.08 3392.24 464.08L2903.52 464.08C2896.63 464.08 2891.04 469.667 2891.04 476.56V680.4C2891.04 687.292 2896.63 692.88 2903.52 692.88Z" fill="white"/>
<path opacity="0.1" d="M2903.6 464.16H3392.24C3395.55 464.16 3398.72 465.475 3401.06 467.815C3403.41 470.156 3404.72 473.33 3404.72 476.64V542L3150 592.08C3148.44 592.399 3146.84 592.399 3145.28 592.08L2891.12 542V476.64C2891.12 473.33 2892.43 470.156 2894.78 467.815C2897.12 465.475 2900.29 464.16 2903.6 464.16Z" fill="black"/>
<path d="M2892.96 380.48H3042.24V355.44C3042.26 345.092 3046.38 335.175 3053.7 327.858C3061.02 320.541 3070.93 316.421 3081.28 316.4H3214.64C3219.79 316.368 3224.9 317.354 3229.67 319.301C3234.43 321.248 3238.77 324.117 3242.43 327.744C3246.09 331.372 3248.99 335.686 3250.98 340.438C3252.96 345.191 3253.99 350.289 3254 355.44V380.48H3403.2C3406.47 380.48 3409.6 381.778 3411.91 384.088C3414.22 386.399 3415.52 389.532 3415.52 392.8V516.08C3415.52 518.93 3414.53 521.692 3412.72 523.895C3410.91 526.097 3408.4 527.605 3405.6 528.16L3150 578C3148.42 578.321 3146.78 578.321 3145.2 578L2890.24 527.84C2887.44 527.285 2884.93 525.777 2883.12 523.575C2881.31 521.372 2880.32 518.61 2880.32 515.76V392.8C2880.32 391.155 2880.65 389.526 2881.29 388.01C2881.93 386.494 2882.86 385.122 2884.04 383.973C2885.22 382.825 2886.62 381.924 2888.15 381.324C2889.68 380.724 2891.32 380.437 2892.96 380.48ZM3224 355.44C3224 352.95 3223.02 350.561 3221.26 348.793C3219.51 347.025 3217.13 346.021 3214.64 346H3081.28C3078.8 346.02 3076.42 347.011 3074.66 348.759C3072.89 350.508 3071.88 352.877 3071.84 355.36V380.4H3223.84L3224 355.44Z" fill="#90CAF9"/>
<path opacity="0.6" d="M2892.96 380.48H3042.24V355.44C3042.26 345.092 3046.38 335.175 3053.7 327.858C3061.02 320.541 3070.93 316.421 3081.28 316.4H3214.64C3219.79 316.368 3224.9 317.354 3229.67 319.301C3234.43 321.248 3238.77 324.117 3242.43 327.744C3246.09 331.372 3248.99 335.686 3250.98 340.438C3252.96 345.191 3253.99 350.289 3254 355.44V380.48H3403.2C3406.47 380.48 3409.6 381.778 3411.91 384.088C3414.22 386.399 3415.52 389.532 3415.52 392.8V516.08C3415.52 518.93 3414.53 521.692 3412.72 523.895C3410.91 526.097 3408.4 527.605 3405.6 528.16L3150 578C3148.42 578.321 3146.78 578.321 3145.2 578L2890.24 527.84C2887.44 527.285 2884.93 525.777 2883.12 523.575C2881.31 521.372 2880.32 518.61 2880.32 515.76V392.8C2880.32 391.155 2880.65 389.526 2881.29 388.01C2881.93 386.494 2882.86 385.122 2884.04 383.973C2885.22 382.825 2886.62 381.924 2888.15 381.324C2889.68 380.724 2891.32 380.437 2892.96 380.48ZM3224 355.44C3224 352.95 3223.02 350.561 3221.26 348.793C3219.51 347.025 3217.13 346.021 3214.64 346H3081.28C3078.8 346.02 3076.42 347.011 3074.66 348.759C3072.89 350.508 3071.88 352.877 3071.84 355.36V380.4H3223.84L3224 355.44Z" fill="white"/>
<path d="M3121.6 601.6H3174.24C3180.78 601.6 3186.08 596.299 3186.08 589.76V556.48C3186.08 549.941 3180.78 544.64 3174.24 544.64H3121.6C3115.06 544.64 3109.76 549.941 3109.76 556.48V589.76C3109.76 596.299 3115.06 601.6 3121.6 601.6Z" fill="#90CAF9"/>
<path opacity="0.3" d="M3121.6 601.6H3174.24C3180.78 601.6 3186.08 596.299 3186.08 589.76V556.48C3186.08 549.941 3180.78 544.64 3174.24 544.64H3121.6C3115.06 544.64 3109.76 549.941 3109.76 556.48V589.76C3109.76 596.299 3115.06 601.6 3121.6 601.6Z" fill="white"/>
<path d="M2967.52 1428.8H3392.32C3395.64 1428.78 3398.81 1427.45 3401.15 1425.09C3403.49 1422.74 3404.8 1419.56 3404.8 1416.24V1212.48C3404.79 1210.8 3404.43 1209.14 3403.76 1207.6C3403.47 1206.87 3403.09 1206.17 3402.64 1205.52C3402.19 1204.84 3401.66 1204.22 3401.04 1203.68C3399.89 1202.51 3398.52 1201.59 3397.01 1200.95C3395.5 1200.32 3393.88 1200 3392.24 1200H2990C2993.35 1227.92 2994.44 1256.06 2993.28 1284.16C2993.28 1288.72 2993.28 1293.28 2992.56 1297.76C2992.08 1306.16 2991.36 1314.64 2990.4 1323.04C2986.36 1358.97 2978.69 1394.41 2967.52 1428.8Z" fill="#90CAF9"/>
<path opacity="0.6" d="M2967.52 1428.8H3392.32C3395.64 1428.78 3398.81 1427.45 3401.15 1425.09C3403.49 1422.74 3404.8 1419.56 3404.8 1416.24V1212.48C3404.79 1210.8 3404.43 1209.14 3403.76 1207.6C3403.47 1206.87 3403.09 1206.17 3402.64 1205.52C3402.19 1204.84 3401.66 1204.22 3401.04 1203.68C3399.89 1202.51 3398.52 1201.59 3397.01 1200.95C3395.5 1200.32 3393.88 1200 3392.24 1200H2990C2993.35 1227.92 2994.44 1256.06 2993.28 1284.16C2993.28 1288.72 2993.28 1293.28 2992.56 1297.76C2992.08 1306.16 2991.36 1314.64 2990.4 1323.04C2986.36 1358.97 2978.69 1394.41 2967.52 1428.8Z" fill="white"/>
<path opacity="0.1" d="M2990 1200C2993.35 1227.92 2994.44 1256.06 2993.28 1284.16C2993.28 1288.72 2993.28 1293.28 2992.56 1297.76L3110 1320.8L3145.84 1327.84C3147.39 1328.24 3149.01 1328.24 3150.56 1327.84L3186.32 1320.88L3404.96 1277.84V1212.4C3404.93 1210.75 3404.61 1209.13 3404 1207.6C3403.71 1206.87 3403.33 1206.17 3402.88 1205.52C3402.43 1204.84 3401.9 1204.22 3401.28 1203.68C3400.13 1202.51 3398.76 1201.59 3397.25 1200.95C3395.74 1200.32 3394.12 1200 3392.48 1200H2990Z" fill="black"/>
<path d="M2973.2 1116.32H3042.24V1091.28C3042.26 1080.93 3046.38 1071.01 3053.7 1063.7C3061.01 1056.38 3070.93 1052.26 3081.28 1052.24H3214.56C3224.92 1052.24 3234.86 1056.35 3242.19 1063.67C3249.53 1070.99 3253.66 1080.92 3253.68 1091.28V1116.32H3402.88C3406.15 1116.32 3409.28 1117.62 3411.59 1119.93C3413.9 1122.24 3415.2 1125.37 3415.2 1128.64V1251.84C3415.2 1254.7 3414.22 1257.47 3412.41 1259.69C3410.6 1261.9 3408.08 1263.43 3405.28 1264H3404.72L3186.08 1307.12L3150 1314C3148.44 1314.32 3146.84 1314.32 3145.28 1314L3109.44 1306.96L2992.88 1284C2995.15 1227.29 2988.4 1170.59 2972.88 1116L2973.2 1116.32ZM3224 1091.28C3223.96 1088.8 3222.95 1086.43 3221.18 1084.68C3219.42 1082.93 3217.04 1081.94 3214.56 1081.92H3081.28C3078.8 1081.94 3076.44 1082.93 3074.68 1084.68C3072.93 1086.44 3071.94 1088.8 3071.92 1091.28V1116.32H3223.92L3224 1091.28Z" fill="#90CAF9"/>
<path opacity="0.6" d="M2973.2 1116.32H3042.24V1091.28C3042.26 1080.93 3046.38 1071.01 3053.7 1063.7C3061.01 1056.38 3070.93 1052.26 3081.28 1052.24H3214.56C3224.92 1052.24 3234.86 1056.35 3242.19 1063.67C3249.53 1070.99 3253.66 1080.92 3253.68 1091.28V1116.32H3402.88C3406.15 1116.32 3409.28 1117.62 3411.59 1119.93C3413.9 1122.24 3415.2 1125.37 3415.2 1128.64V1251.84C3415.2 1254.7 3414.22 1257.47 3412.41 1259.69C3410.6 1261.9 3408.08 1263.43 3405.28 1264H3404.72L3186.08 1307.12L3150 1314C3148.44 1314.32 3146.84 1314.32 3145.28 1314L3109.44 1306.96L2992.88 1284C2995.15 1227.29 2988.4 1170.59 2972.88 1116L2973.2 1116.32ZM3224 1091.28C3223.96 1088.8 3222.95 1086.43 3221.18 1084.68C3219.42 1082.93 3217.04 1081.94 3214.56 1081.92H3081.28C3078.8 1081.94 3076.44 1082.93 3074.68 1084.68C3072.93 1086.44 3071.94 1088.8 3071.92 1091.28V1116.32H3223.92L3224 1091.28Z" fill="white"/>
<path d="M3121.6 1337.52H3174.24C3180.78 1337.52 3186.08 1332.22 3186.08 1325.68V1292.4C3186.08 1285.86 3180.78 1280.56 3174.24 1280.56H3121.6C3115.06 1280.56 3109.76 1285.86 3109.76 1292.4V1325.68C3109.76 1332.22 3115.06 1337.52 3121.6 1337.52Z" fill="#90CAF9"/>
<path opacity="0.3" d="M3121.6 1337.52H3174.24C3180.78 1337.52 3186.08 1332.22 3186.08 1325.68V1292.4C3186.08 1285.86 3180.78 1280.56 3174.24 1280.56H3121.6C3115.06 1280.56 3109.76 1285.86 3109.76 1292.4V1325.68C3109.76 1332.22 3115.06 1337.52 3121.6 1337.52Z" fill="white"/>
<path d="M2763.6 1150.32H2061.36C2051.46 1150.32 2043.44 1158.34 2043.44 1168.24V1461.12C2043.44 1471.02 2051.46 1479.04 2061.36 1479.04H2763.6C2773.5 1479.04 2781.52 1471.02 2781.52 1461.12V1168.24C2781.52 1158.34 2773.5 1150.32 2763.6 1150.32Z" fill="#90CAF9"/>
<path d="M2508.24 1098H2316.64C2302.11 1097.98 2288.19 1092.2 2277.91 1081.93C2267.64 1071.65 2261.86 1057.73 2261.84 1043.2V994C2261.86 979.472 2267.64 965.546 2277.91 955.274C2288.19 945.001 2302.11 939.221 2316.64 939.2H2508.24C2522.77 939.2 2536.71 944.973 2546.99 955.25C2557.27 965.527 2563.04 979.466 2563.04 994V1042.96C2563.07 1050.18 2561.68 1057.33 2558.94 1064C2556.2 1070.68 2552.17 1076.75 2547.07 1081.86C2541.98 1086.98 2535.93 1091.04 2529.27 1093.81C2522.6 1096.57 2515.46 1098 2508.24 1098ZM2316.64 979.44C2312.78 979.481 2309.1 981.026 2306.36 983.745C2303.63 986.465 2302.06 990.144 2302 994V1042.96C2302 1046.88 2303.56 1050.65 2306.33 1053.42C2309.11 1056.2 2312.87 1057.76 2316.8 1057.76H2508.4C2512.33 1057.76 2516.09 1056.2 2518.87 1053.42C2521.64 1050.65 2523.2 1046.88 2523.2 1042.96V994C2523.2 990.075 2521.64 986.31 2518.87 983.535C2516.09 980.759 2512.33 979.2 2508.4 979.2L2316.64 979.44Z" fill="#90CAF9"/>
<path opacity="0.2" d="M2763.52 1150.32H2061.44C2059.08 1150.31 2056.74 1150.76 2054.56 1151.66C2052.37 1152.56 2050.39 1153.88 2048.72 1155.54C2047.04 1157.21 2045.72 1159.18 2044.81 1161.36C2043.91 1163.54 2043.44 1165.88 2043.44 1168.24V1262.24L2409.04 1334.24C2411.28 1334.73 2413.6 1334.73 2415.84 1334.24L2781.52 1262.24V1168.24C2781.52 1165.88 2781.05 1163.54 2780.15 1161.36C2779.24 1159.18 2777.92 1157.21 2776.24 1155.54C2774.57 1153.88 2772.59 1152.56 2770.4 1151.66C2768.22 1150.76 2765.88 1150.31 2763.52 1150.32Z" fill="black"/>
<path d="M2782 1242L2415.68 1314C2413.4 1314.4 2411.08 1314.4 2408.8 1314L2042.48 1242C2038.46 1241.21 2034.83 1239.04 2032.22 1235.88C2029.61 1232.71 2028.17 1228.74 2028.16 1224.64V1047.84C2028.16 1045.52 2028.62 1043.22 2029.51 1041.07C2030.39 1038.93 2031.7 1036.98 2033.34 1035.34C2034.98 1033.7 2036.93 1032.39 2039.07 1031.51C2041.22 1030.62 2043.52 1030.16 2045.84 1030.16H2778.8C2781.12 1030.16 2783.42 1030.62 2785.57 1031.51C2787.71 1032.39 2789.66 1033.7 2791.3 1035.34C2792.94 1036.98 2794.25 1038.93 2795.13 1041.07C2796.02 1043.22 2796.48 1045.52 2796.48 1047.84V1224.96C2796.4 1229.03 2794.91 1232.95 2792.28 1236.06C2789.64 1239.16 2786.01 1241.26 2782 1242Z" fill="#90CAF9"/>
<path d="M2450.4 1266.08H2374.64C2365.27 1266.08 2357.68 1273.67 2357.68 1283.04V1330.96C2357.68 1340.33 2365.27 1347.92 2374.64 1347.92H2450.4C2459.77 1347.92 2467.36 1340.33 2467.36 1330.96V1283.04C2467.36 1273.67 2459.77 1266.08 2450.4 1266.08Z" fill="#90CAF9"/>
<path opacity="0.4" d="M2450.4 1266.08H2374.64C2365.27 1266.08 2357.68 1273.67 2357.68 1283.04V1330.96C2357.68 1340.33 2365.27 1347.92 2374.64 1347.92H2450.4C2459.77 1347.92 2467.36 1340.33 2467.36 1330.96V1283.04C2467.36 1273.67 2459.77 1266.08 2450.4 1266.08Z" fill="black"/>
<path d="M3733.2 1331.68C3742.4 1350.64 3749.2 1368.56 3757.2 1387.28C3765.2 1406 3771.04 1424.64 3777.28 1443.76C3789.93 1482.53 3799.27 1522.3 3805.2 1562.64C3806 1567.68 3806.4 1573.12 3806.96 1578.64L3807.76 1586.64C3807.76 1588.08 3807.76 1589.12 3807.76 1590.8V1596C3808.03 1608.13 3806.98 1620.25 3804.64 1632.16C3800.67 1652.85 3795.03 1673.19 3787.76 1692.96C3774.1 1730.55 3757.07 1766.83 3736.88 1801.36L3696.24 1784.16C3705.28 1747.68 3714.4 1710.48 3721.28 1674.56C3724.64 1657.35 3727.02 1639.96 3728.4 1622.48C3728.87 1615.33 3728.71 1608.16 3727.92 1601.04L3727.04 1596L3725.92 1589.6C3725.04 1585.36 3724.48 1581.12 3723.44 1576.8C3715.47 1541.49 3705.15 1506.74 3692.56 1472.8C3686.48 1455.44 3679.76 1438.16 3673.04 1420.8C3666.32 1403.44 3658.88 1386 3652 1370L3733.2 1331.68Z" fill="#7F3E3B"/>
<path d="M3698 1773.52L3666.8 1803.92L3734.88 1835.92C3734.88 1835.92 3751.36 1807.12 3740 1781.04L3698 1773.52Z" fill="#7F3E3B"/>
<path d="M3641.68 1849.28L3699.12 1872.8L3734.88 1835.6L3666.8 1803.92L3641.68 1849.28Z" fill="#7F3E3B"/>
<path opacity="0.2" d="M2476.48 1816.48C2589.68 1803.8 2696.59 1757.84 2783.67 1684.41C2870.76 1610.98 2934.11 1513.38 2965.73 1403.94C2997.35 1294.51 2995.81 1178.16 2961.31 1069.6C2926.81 961.035 2860.89 865.143 2771.9 794.041C2682.9 722.94 2574.82 679.824 2461.32 670.143C2347.82 660.462 2234 684.652 2134.25 739.654C2034.49 794.656 1953.29 878.001 1900.9 979.15C1848.51 1080.3 1827.29 1194.71 1839.92 1307.92C1848.31 1383.12 1871.43 1455.92 1907.96 1522.18C1944.5 1588.44 1993.73 1646.85 2052.84 1694.08C2111.95 1741.3 2179.79 1776.42 2252.48 1797.42C2325.17 1818.43 2401.29 1824.9 2476.48 1816.48Z" fill="#90CAF9"/>
<path opacity="0.1" d="M2057.36 790.32L2933.36 1490C2937.12 1482 2940.64 1474 2944.08 1466C2966.03 1413.77 2980.06 1358.54 2985.68 1302.16L2229.04 698C2166.95 718.708 2108.87 749.936 2057.36 790.32Z" fill="white"/>
<path opacity="0.1" d="M1855.28 1096.96L2678.8 1754.96C2757.05 1714.15 2824.87 1655.9 2877.04 1584.72L1977.68 866C1919.72 932.59 1877.84 1011.61 1855.28 1096.96Z" fill="white"/>
<path d="M3831.36 1890.96C3830.31 1876.4 3825.54 1862.35 3817.52 1850.16C3811.69 1841.19 3803.53 1833.97 3793.92 1829.28L3739.28 1802.48C3702.96 1784.48 3666.4 1766.96 3629.84 1749.44C3593.28 1731.92 3556.48 1714.72 3519.84 1697.36C3483.2 1680 3446.24 1663.12 3409.2 1646.56C3335.28 1613.07 3260.88 1580.48 3186 1548.8C3148.56 1532.8 3111.04 1517.44 3073.2 1502.4C3062.15 1498.05 3053.17 1489.66 3048.08 1478.94C3042.98 1468.21 3042.15 1455.95 3045.76 1444.64C3096.41 1284.95 3084.88 1112.01 3013.47 960.458C2942.06 808.905 2816.04 689.915 2660.64 627.308C2505.24 564.701 2331.93 563.098 2175.4 622.819C2018.88 682.54 1890.68 799.178 1816.48 949.384C1742.27 1099.59 1727.54 1272.28 1775.23 1432.89C1822.92 1593.49 1929.51 1730.16 2073.66 1815.53C2217.81 1900.9 2388.89 1928.67 2552.64 1893.29C2716.4 1857.91 2860.75 1761.99 2956.8 1624.72C2963.6 1614.96 2973.85 1608.16 2985.48 1605.68C2997.11 1603.19 3009.25 1605.23 3019.44 1611.36C3054.43 1632.16 3089.57 1652.61 3124.88 1672.72C3195.44 1712.93 3266.53 1752.13 3338.16 1790.32C3373.92 1809.68 3410.16 1828.32 3445.76 1847.28C3481.36 1866.24 3517.76 1884.72 3554 1903.28C3590.24 1921.84 3626 1940 3662.72 1957.92L3717.2 1984.96C3726.77 1989.77 3737.48 1991.88 3748.16 1991.04C3762.7 1990.01 3776.72 1985.24 3788.88 1977.2C3803.37 1968.3 3815.06 1955.47 3822.57 1940.21C3830.09 1924.95 3833.14 1907.88 3831.36 1890.96ZM2180.4 1714C2087.4 1668.11 2010.1 1595.67 1958.27 1505.85C1906.44 1416.02 1882.42 1312.84 1889.23 1209.36C1896.04 1105.88 1933.39 1006.74 1996.55 924.489C2059.71 842.234 2145.84 780.557 2244.05 747.256C2342.26 713.955 2448.15 710.526 2548.31 737.405C2648.47 764.283 2738.41 820.26 2806.76 898.257C2875.1 976.254 2918.79 1072.77 2932.28 1175.59C2945.77 1278.41 2928.47 1382.93 2882.56 1475.92C2852.09 1537.66 2809.76 1592.79 2757.98 1638.17C2706.2 1683.55 2645.99 1718.28 2580.79 1740.39C2515.59 1762.5 2446.67 1771.55 2377.97 1767.02C2309.27 1762.49 2242.14 1744.48 2180.4 1714Z" fill="#90CAF9"/>
<path d="M3431.52 1084.4C3431.52 1089.12 3429.04 1092.96 3425.92 1092.96C3422.8 1092.96 3420.32 1089.12 3420.32 1084.4C3420.32 1079.68 3422.8 1075.76 3425.92 1075.76C3429.04 1075.76 3431.52 1079.6 3431.52 1084.4Z" fill="#263238"/>
<path d="M3429.44 1092.96C3423.82 1107.45 3416.23 1121.1 3406.88 1133.52C3410.12 1135.84 3413.82 1137.41 3417.73 1138.15C3421.64 1138.88 3425.67 1138.75 3429.52 1137.76L3429.44 1092.96Z" fill="#630F0F"/>
<path d="M3448.32 1058C3448.9 1057.98 3449.46 1057.79 3449.93 1057.44C3450.39 1057.09 3450.73 1056.6 3450.91 1056.05C3451.09 1055.49 3451.08 1054.9 3450.91 1054.35C3450.73 1053.79 3450.38 1053.31 3449.92 1052.96C3446.38 1050.31 3442.27 1048.54 3437.92 1047.79C3433.57 1047.04 3429.1 1047.33 3424.88 1048.64C3424.5 1048.74 3424.15 1048.92 3423.85 1049.17C3423.54 1049.42 3423.29 1049.73 3423.12 1050.08C3422.94 1050.43 3422.84 1050.81 3422.82 1051.2C3422.8 1051.59 3422.86 1051.98 3423 1052.35C3423.14 1052.71 3423.36 1053.04 3423.64 1053.32C3423.91 1053.6 3424.24 1053.81 3424.61 1053.95C3424.97 1054.1 3425.37 1054.16 3425.76 1054.14C3426.15 1054.12 3426.53 1054.02 3426.88 1053.84C3430.24 1052.84 3433.78 1052.65 3437.23 1053.27C3440.68 1053.9 3443.93 1055.33 3446.72 1057.44C3447.17 1057.81 3447.74 1058.01 3448.32 1058Z" fill="#263238"/>
<path d="M3593.36 1120.08C3584.88 1163.12 3576.48 1241.92 3606.56 1270.56C3606.56 1270.56 3594.8 1314.16 3514.96 1314.16C3426.96 1314.16 3472.96 1270.56 3472.96 1270.56C3520.96 1259.12 3519.68 1223.52 3511.28 1190.56L3593.36 1120.08Z" fill="#7F3E3B"/>
<path d="M3622 1243.6C3628.64 1245.76 3620 1285.28 3620 1285.28C3620 1285.28 3609.04 1312.88 3472.88 1303.28C3462.4 1302.48 3466.4 1264.56 3476.4 1259.04C3508.64 1241.44 3600.56 1236.56 3622 1243.6Z" fill="#263238"/>
<path d="M3898.56 2896.48C3905.92 2895.76 3916.64 2882.24 3919.68 2877.28C3919.81 2877.06 3919.89 2876.81 3919.89 2876.56C3919.89 2876.31 3919.81 2876.06 3919.68 2875.84C3919.55 2875.6 3919.35 2875.41 3919.1 2875.3C3918.86 2875.18 3918.59 2875.15 3918.32 2875.2C3917.52 2875.2 3898.16 2878.88 3893.44 2886.4C3892.94 2887.19 3892.61 2888.07 3892.48 2889C3892.34 2889.92 3892.39 2890.86 3892.64 2891.76C3893.68 2895.28 3895.68 2896.24 3897.28 2896.48H3898.56ZM3915.44 2878.64C3910.24 2885.84 3901.68 2894.24 3897.6 2893.68C3897.2 2893.68 3896 2893.68 3895.28 2890.96C3895.12 2890.44 3895.09 2889.89 3895.17 2889.35C3895.25 2888.81 3895.45 2888.29 3895.76 2887.84C3901.27 2882.91 3908.12 2879.71 3915.44 2878.64Z" fill="#90CAF9"/>
<path d="M3914.64 2878.64C3916.07 2878.52 3917.49 2878.28 3918.88 2877.92C3919.12 2877.84 3919.33 2877.71 3919.5 2877.53C3919.66 2877.34 3919.78 2877.12 3919.84 2876.88C3919.89 2876.63 3919.87 2876.37 3919.78 2876.14C3919.7 2875.9 3919.55 2875.68 3919.36 2875.52C3918.88 2875.04 3905.92 2864 3897.12 2864.88C3896.06 2864.95 3895.03 2865.24 3894.09 2865.74C3893.15 2866.23 3892.33 2866.92 3891.68 2867.76C3890.93 2868.49 3890.46 2869.46 3890.35 2870.5C3890.25 2871.54 3890.52 2872.58 3891.12 2873.44C3894 2878 3906.64 2879.44 3914.64 2878.64ZM3915.28 2875.84C3907.28 2876.8 3895.6 2875.2 3893.36 2871.92C3893.36 2871.92 3892.72 2870.88 3893.84 2869.44C3894.29 2868.91 3894.84 2868.48 3895.46 2868.16C3896.07 2867.85 3896.75 2867.66 3897.44 2867.6C3904.07 2868.52 3910.28 2871.39 3915.28 2875.84Z" fill="#90CAF9"/>
<path d="M3348.56 3106.88C3354.62 3106.86 3360.67 3106.32 3366.64 3105.28C3366.91 3105.21 3367.15 3105.06 3367.35 3104.87C3367.54 3104.67 3367.69 3104.43 3367.76 3104.16C3367.81 3103.87 3367.76 3103.58 3367.64 3103.32C3367.51 3103.06 3367.3 3102.85 3367.04 3102.72C3366.16 3102.16 3345.68 3090.48 3335.84 3093.12C3334 3093.59 3332.42 3094.77 3331.44 3096.4C3330.81 3097.29 3330.48 3098.35 3330.48 3099.44C3330.48 3100.53 3330.81 3101.59 3331.44 3102.48C3334 3106 3341.04 3106.88 3348.56 3106.88ZM3362.16 3103.2C3351.2 3104.72 3336.32 3104.64 3333.6 3100.88C3333.2 3100.4 3332.88 3099.52 3333.6 3097.76C3333.89 3097.27 3334.29 3096.84 3334.75 3096.51C3335.22 3096.18 3335.76 3095.95 3336.32 3095.84C3342.64 3094.16 3354.96 3099.52 3362.16 3103.2Z" fill="#90CAF9"/>
<path d="M3366 3105.28C3366.29 3105.36 3366.59 3105.36 3366.88 3105.28C3367.06 3105.12 3367.21 3104.93 3367.31 3104.7C3367.4 3104.48 3367.45 3104.24 3367.44 3104C3367.44 3103.36 3365.76 3087.52 3358.32 3081.36C3357.22 3080.44 3355.94 3079.75 3354.57 3079.34C3353.19 3078.93 3351.75 3078.8 3350.32 3078.96C3346.48 3079.36 3345.44 3081.28 3345.12 3082.88C3344.08 3089.52 3358.16 3102.24 3365.2 3105.44L3366 3105.28ZM3351.68 3081.28C3353.47 3081.33 3355.18 3081.98 3356.56 3083.12C3361 3088.19 3363.79 3094.5 3364.56 3101.2C3357.28 3096.88 3347.76 3086.88 3348.56 3082.88C3348.56 3082.88 3348.56 3081.6 3351.28 3081.36L3351.68 3081.28Z" fill="#90CAF9"/>
<path d="M3430.96 3103.92H3372.24L3366.32 2967.76H3425.12L3430.96 3103.92Z" fill="#7F3E3B"/>
<path d="M3971.04 2834.24L3925.2 2870.96L3808.56 2790L3854.48 2753.28L3971.04 2834.24Z" fill="#7F3E3B"/>
<path d="M3916.8 2868.64L3963.68 2822.16C3964.52 2821.35 3965.61 2820.85 3966.77 2820.73C3967.93 2820.62 3969.1 2820.89 3970.08 2821.52L4015.12 2850.48C4016.21 2851.19 4017.13 2852.13 4017.8 2853.25C4018.47 2854.36 4018.88 2855.61 4019 2856.91C4019.11 2858.2 4018.93 2859.51 4018.47 2860.72C4018 2861.94 4017.27 2863.03 4016.32 2863.92C3999.68 2879.92 3990.8 2886.8 3970.16 2907.2C3957.52 2919.84 3926.56 2957.44 3909.04 2974.8C3891.52 2992.16 3872 2977.12 3877.68 2968.4C3902.88 2929.52 3911.44 2897.44 3912.56 2877.92C3912.8 2874.41 3914.31 2871.12 3916.8 2868.64Z" fill="#263238"/>
<path d="M3372.56 3097.12H3436.56C3437.72 3097.11 3438.85 3097.51 3439.75 3098.24C3440.66 3098.97 3441.28 3099.98 3441.52 3101.12L3453.12 3153.36C3453.41 3154.62 3453.41 3155.92 3453.13 3157.18C3452.84 3158.43 3452.27 3159.61 3451.46 3160.61C3450.65 3161.61 3449.62 3162.42 3448.45 3162.96C3447.28 3163.51 3446.01 3163.78 3444.72 3163.76C3421.52 3163.76 3388.08 3162.08 3358.96 3162.08C3324.96 3162.08 3295.6 3163.92 3255.68 3163.92C3231.68 3163.92 3224.88 3139.52 3234.96 3137.28C3280.96 3127.28 3318.48 3126.16 3358.16 3101.68C3362.44 3098.85 3367.43 3097.27 3372.56 3097.12Z" fill="#263238"/>
<path d="M3722.4 1288.16C3773.36 1312.16 3794.4 1476.64 3794.4 1476.64L3677.2 1522.64C3659.01 1478.11 3644.27 1432.24 3633.12 1385.44C3616.72 1311.2 3670 1263.2 3722.4 1288.16Z" fill="#90CAF9"/>
<path opacity="0.3" d="M3722.4 1288.16C3773.36 1312.16 3794.4 1476.64 3794.4 1476.64L3677.2 1522.64C3659.01 1478.11 3644.27 1432.24 3633.12 1385.44C3616.72 1311.2 3670 1263.2 3722.4 1288.16Z" fill="white"/>
<path opacity="0.2" d="M3646.48 1336.4C3642.49 1334.46 3638.3 1332.93 3634 1331.84C3629.32 1349.38 3629.16 1367.82 3633.52 1385.44C3644.62 1432.24 3659.33 1478.11 3677.52 1522.64L3716.16 1507.52C3709.04 1464.56 3687.2 1355.92 3646.48 1336.4Z" fill="black"/>
<path d="M3382.56 1286.88C3382.56 1286.88 3320 1357.52 3379.04 1794.88H3693.44C3695.6 1746.88 3665.28 1511.2 3711.84 1283.84C3677.07 1277.15 3641.9 1272.72 3606.56 1270.56C3562.06 1268 3517.46 1268 3472.96 1270.56C3442.45 1273.63 3412.22 1279.09 3382.56 1286.88Z" fill="#90CAF9"/>
<path opacity="0.3" d="M3382.56 1286.88C3382.56 1286.88 3320 1357.52 3379.04 1794.88H3693.44C3695.6 1746.88 3665.28 1511.2 3711.84 1283.84C3677.07 1277.15 3641.9 1272.72 3606.56 1270.56C3562.06 1268 3517.46 1268 3472.96 1270.56C3442.45 1273.63 3412.22 1279.09 3382.56 1286.88Z" fill="white"/>
<path opacity="0.2" d="M3446 1380.64C3431.76 1337.92 3397.52 1324.24 3362.64 1349.6C3355.6 1391.04 3350.64 1457.84 3356.32 1563.76L3417.68 1563.2C3417.68 1563.2 3467.04 1444.24 3446 1380.64Z" fill="black"/>
<path d="M3434.48 1363.12C3431.92 1384.56 3428.4 1404 3424.48 1424.24C3420.56 1444.48 3416 1464.24 3410.8 1484.16C3400.53 1524.87 3386.55 1564.56 3369.04 1602.72C3364.48 1612.56 3359.2 1622.24 3353.6 1631.92C3350.72 1636.8 3347.84 1641.68 3344.56 1646.48C3340.31 1653.15 3335.29 1659.3 3329.6 1664.8C3318.56 1675.04 3305.47 1682.81 3291.2 1687.6C3279.61 1691.66 3267.62 1694.48 3255.44 1696C3233.7 1698.7 3211.72 1698.96 3189.92 1696.8C3179.25 1695.95 3168.85 1694.59 3158.72 1692.72C3148.32 1690.88 3138.48 1688.96 3127.76 1686.16L3132.96 1642.32C3169.47 1640.79 3205.73 1635.42 3241.12 1626.32C3248.32 1624.19 3255.31 1621.4 3262 1618C3266.39 1615.99 3270.24 1612.94 3273.2 1609.12C3272.56 1609.68 3278.4 1600 3281.84 1593.12C3285.28 1586.24 3289.12 1577.12 3292.4 1569.12C3299.12 1552.64 3304.88 1535.2 3310.16 1517.36C3315.44 1499.52 3320.08 1481.36 3324.4 1462.96C3328.72 1444.56 3332.4 1426 3336.4 1406.96C3340.4 1387.92 3343.28 1369.04 3346.16 1351.36L3434.48 1363.12Z" fill="#7F3E3B"/>
<path d="M3461.12 1330C3477.68 1383.68 3410.48 1543.68 3410.48 1543.68L3268.96 1508.08C3277.62 1457.51 3292.2 1408.13 3312.4 1360.96C3358 1261.12 3441.2 1265.28 3461.12 1330Z" fill="#90CAF9"/>
<path opacity="0.3" d="M3461.12 1330C3477.68 1383.68 3410.48 1543.68 3410.48 1543.68L3268.96 1508.08C3277.62 1457.51 3292.2 1408.13 3312.4 1360.96C3358 1261.12 3441.2 1265.28 3461.12 1330Z" fill="white"/>
<path d="M3134.96 1642.56L3068.4 1640.88L3100.4 1710.08C3100.4 1710.08 3127.44 1713.68 3149.68 1677.12L3173.12 1649.2L3146.16 1643.76C3142.47 1643.04 3138.72 1642.64 3134.96 1642.56Z" fill="#7F3E3B"/>
<path d="M3026.4 1653.76L3064.56 1711.12L3100.48 1710.08L3068.4 1640.88L3026.4 1653.76Z" fill="#7F3E3B"/>
<path opacity="0.2" d="M3366.4 2967.84L3369.36 3038H3428.16L3425.12 2967.84H3366.4Z" fill="black"/>
<path opacity="0.2" d="M3854.48 2753.28L3808.56 2790L3868.72 2831.76L3914.64 2795.04L3854.48 2753.28Z" fill="black"/>
<path d="M3590 1074C3586.48 1132.24 3587.44 1166.48 3558 1196.4C3513.84 1241.36 3441.92 1214.8 3428 1156.4C3415.44 1104.08 3423.36 1017.68 3480.32 994.4C3492.88 989.204 3506.56 987.315 3520.06 988.912C3533.56 990.51 3546.42 995.541 3557.42 1003.52C3568.42 1011.51 3577.19 1022.18 3582.9 1034.52C3588.6 1046.85 3591.05 1060.45 3590 1074Z" fill="#7F3E3B"/>
<path d="M3637.04 1019.92C3637.04 1019.92 3667.68 1029.04 3658.08 1064C3643.6 1117.12 3609.52 1178.24 3565.52 1182.08C3510.72 1186.96 3486 1130.4 3478.8 1071.92C3446 1049.44 3421.68 1028.4 3429.52 1005.04C3441.52 969.04 3485.04 938 3554.32 946C3623.6 954 3658.08 998.8 3637.04 1019.92Z" fill="#263238"/>
<path d="M3512.16 1083.92C3511.1 1098.36 3505.3 1112.06 3495.68 1122.88C3482.88 1136.96 3469.44 1128.16 3467.2 1111.04C3465.2 1095.52 3469.36 1069.52 3485.04 1061.76C3500.72 1054 3513.2 1066.48 3512.16 1083.92Z" fill="#7F3E3B"/>
<path d="M3490.56 1794.88C3490.56 1794.88 3470.72 2191.04 3509.36 2358.88C3570.56 2624.64 3839.6 2837.6 3839.6 2837.6L3926 2768.4C3926 2768.4 3704.64 2603.68 3684.72 2382.4C3666.88 2183.68 3693.28 1955.44 3693.28 1794.88H3490.56Z" fill="#90CAF9"/>
<path opacity="0.2" d="M3490.56 1794.88C3490.56 1794.88 3470.72 2191.04 3509.36 2358.88C3570.56 2624.64 3839.6 2837.6 3839.6 2837.6L3926 2768.4C3926 2768.4 3704.64 2603.68 3684.72 2382.4C3666.88 2183.68 3693.28 1955.44 3693.28 1794.88H3490.56Z" fill="black"/>
<path opacity="0.2" d="M3520.08 1912.24C3512.08 1896.8 3496.48 1942.8 3485.6 2001.84C3485.6 2083.28 3487.04 2175.92 3494.16 2254.4C3548.48 2154 3536.96 1944.24 3520.08 1912.24Z" fill="black"/>
<path d="M3800.4 2820.56L3833.2 2846L3932.96 2765.12L3903.04 2738L3800.4 2820.56Z" fill="#2C6BDB"/>
<path opacity="0.4" d="M3800.4 2820.56L3833.2 2846L3932.96 2765.12L3903.04 2738L3800.4 2820.56Z" fill="#FAFAFA"/>
<path d="M3379.04 1794.88C3379.04 1794.88 3290.56 2170.08 3284.32 2349.28C3277.36 2550.32 3347.44 3024.4 3347.44 3024.4H3447.04C3447.04 3024.4 3459.28 2546.64 3463.76 2363.52C3468.56 2163.92 3585.68 1794.88 3585.68 1794.88H3379.04Z" fill="#90CAF9"/>
<path opacity="0.2" d="M3379.04 1794.88C3379.04 1794.88 3290.56 2170.08 3284.32 2349.28C3277.36 2550.32 3347.44 3024.4 3347.44 3024.4H3447.04C3447.04 3024.4 3459.28 2546.64 3463.76 2363.52C3468.56 2163.92 3585.68 1794.88 3585.68 1794.88H3379.04Z" fill="black"/>
<path d="M3328.32 2984.72C3327.84 2984.72 3333.92 3026.08 3333.92 3026.08H3455.04L3458.32 2989.2L3328.32 2984.72Z" fill="#2C6BDB"/>
<path opacity="0.4" d="M3328.32 2984.72C3327.84 2984.72 3333.92 3026.08 3333.92 3026.08H3455.04L3458.32 2989.2L3328.32 2984.72Z" fill="#FAFAFA"/>
<defs>
<filter id="filter0_f_2109_17564" x="1077.44" y="239.443" width="5261.11" height="4291.11" filterUnits="userSpaceOnUse" color-interpolation-filters="sRGB">
<feFlood flood-opacity="0" result="BackgroundImageFix"/>
<feBlend mode="normal" in="SourceGraphic" in2="BackgroundImageFix" result="shape"/>
<feGaussianBlur stdDeviation="284.278" result="effect1_foregroundBlur_2109_17564"/>
</filter>
<linearGradient id="paint0_linear_2109_17564" x1="3708" y1="808" x2="3708" y2="3962" gradientUnits="userSpaceOnUse">
<stop stop-color="#16B6F0" stop-opacity="0.36"/>
<stop offset="1" stop-color="#1653F0" stop-opacity="0.6"/>
</linearGradient>
<linearGradient id="paint1_linear_2109_17564" x1="1049.5" y1="3665.68" x2="1049.5" y2="6441.82" gradientUnits="userSpaceOnUse">
<stop stop-color="#EAF0FF" stop-opacity="0.05"/>
<stop offset="1" stop-color="#EAF0FF"/>
</linearGradient>
<clipPath id="clip0_2109_17564">
<rect width="5371" height="3529" fill="white"/>
</clipPath>
</defs>
</svg>
