<svg width="3622" height="3294" viewBox="0 0 3622 3294" fill="none" xmlns="http://www.w3.org/2000/svg">
<path d="M530.295 3016.53C1237.31 3385.94 2383.78 3385.94 3090.8 3016.53C3797.82 2647.13 3797.9 2048.25 3090.8 1678.85C2383.7 1309.45 1237.31 1309.45 530.295 1678.85C-176.723 2048.25 -176.807 2647.13 530.295 3016.53Z" fill="#F5F5F5"/>
<path d="M2363.09 2923.11C2576.3 2923.11 2749.14 2840.74 2749.14 2739.13C2749.14 2637.51 2576.3 2555.14 2363.09 2555.14C2149.88 2555.14 1977.04 2637.51 1977.04 2739.13C1977.04 2840.74 2149.88 2923.11 2363.09 2923.11Z" fill="#EBEBEB"/>
<path d="M3046.99 2503.51C3211.48 2503.51 3344.83 2439.96 3344.83 2361.57C3344.83 2283.18 3211.48 2219.63 3046.99 2219.63C2882.49 2219.63 2749.14 2283.18 2749.14 2361.57C2749.14 2439.96 2882.49 2503.51 3046.99 2503.51Z" fill="#EBEBEB"/>
<path d="M924.167 2321.79C907.349 2233 845.796 2106.44 770.705 2035.89C698.473 1968.12 591.259 1944.49 548.542 1975.77C505.825 2007.05 533.827 2074.66 616.738 2157.06C710.329 2249.98 890.027 2507.8 924.167 2653.86V2321.79Z" fill="#90CAF9"/>
<g opacity="0.2">
<path d="M924.167 2321.79C907.349 2233 845.796 2106.44 770.705 2035.89C698.473 1968.12 591.259 1944.49 548.542 1975.77C505.825 2007.05 533.827 2074.66 616.738 2157.06C710.329 2249.98 890.027 2507.8 924.167 2653.86V2321.79Z" fill="black"/>
</g>
<path d="M924.167 2535.46C923.113 2535.45 922.102 2535.04 921.327 2534.33C920.551 2533.62 920.065 2532.64 919.962 2531.59C898.772 2307.92 742.367 2056.49 592.016 2004.11C590.966 2003.73 590.107 2002.95 589.62 2001.94C589.133 2000.94 589.058 1999.78 589.409 1998.72C589.79 1997.67 590.566 1996.82 591.571 1996.33C592.576 1995.84 593.731 1995.77 594.791 1996.12C750.692 2050.35 906.676 2300.27 928.539 2530.84C928.634 2531.95 928.292 2533.05 927.585 2533.92C926.879 2534.78 925.864 2535.34 924.755 2535.46H924.167Z" fill="white"/>
<path d="M924.167 2761.24C924.167 2761.24 895.072 2784.45 798.034 2775.37C700.995 2766.29 650.962 2696.91 650.962 2667.15C650.962 2637.38 740.181 2632.25 759.521 2558.42C739.848 2579.5 713.676 2593.39 685.186 2597.86C634.733 2607.36 594.202 2591.21 582.682 2499.3C607.549 2502.94 632.918 2500.84 656.849 2493.17C696.791 2480.3 706.293 2458.35 695.866 2453.64C685.439 2448.94 629.772 2453.64 594.118 2440.11C558.465 2426.57 585.709 2240.9 609.086 2227.7C632.463 2214.5 743.04 2245.61 764.566 2262.26C783.738 2277.06 810.647 2302.71 798.202 2356.94C812.944 2343.16 824.433 2326.27 831.837 2307.5C842.264 2282.27 849.832 2288.16 865.473 2297.83C874.865 2303.12 883.017 2310.36 889.383 2319.07C895.75 2327.77 900.184 2337.73 902.388 2348.28C906.172 2371.83 900.033 2453.06 866.902 2479.46C866.902 2479.46 898.688 2483.5 924.671 2429.85C924.671 2429.85 975.124 2450.2 986.56 2483.16C997.997 2516.12 1010.44 2677.49 924.167 2761.24Z" fill="#90CAF9"/>
<path d="M932.744 2779.57C931.716 2779.56 930.726 2779.18 929.954 2778.5C929.182 2777.82 928.68 2776.89 928.539 2775.87C906.34 2594.16 768.182 2355.43 632.715 2265.79C631.778 2265.17 631.128 2264.2 630.907 2263.09C630.687 2261.99 630.913 2260.84 631.538 2259.9C632.162 2258.97 633.133 2258.32 634.237 2258.1C635.341 2257.88 636.487 2258.1 637.424 2258.73C774.573 2349.96 914.917 2591.13 936.864 2774.86C937.007 2775.97 936.707 2777.08 936.029 2777.97C935.352 2778.85 934.351 2779.43 933.248 2779.57H932.744Z" fill="white"/>
<path d="M941.237 2804.97C936.22 2801.49 932.086 2796.89 929.165 2791.53C926.245 2786.17 924.619 2780.21 924.419 2774.11V765.142C924.762 758.821 926.594 752.669 929.765 747.19C932.936 741.71 937.356 737.057 942.666 733.609L2204 5.23244C2209.27 1.92564 2215.34 0.118554 2221.56 0.00563667C2227.79 -0.107281 2233.92 1.47822 2239.31 4.59157C2244.7 7.70492 2249.13 12.2283 2252.14 17.6751C2255.15 23.122 2256.62 29.2861 2256.38 35.5044L976.554 2804.29C971.135 2807.18 965.112 2808.74 958.976 2808.86C952.839 2808.97 946.762 2807.64 941.237 2804.97Z" fill="#E0E0E0"/>
<path d="M958.307 803.319L1470.66 468.057L1436.52 448.296L942.414 733.609C937.104 737.057 932.684 741.71 929.513 747.19C926.342 752.669 924.51 758.821 924.167 765.143V783.558L958.307 803.319Z" fill="#37474F"/>
<path opacity="0.2" d="M958.307 803.319L1470.66 468.057L1436.52 448.296L942.414 733.609C937.104 737.057 932.684 741.71 929.513 747.19C926.342 752.669 924.51 758.821 924.167 765.143V783.558L958.307 803.319Z" fill="#37474F"/>
<path d="M1129.43 862.433L929.464 747.4C926.206 752.823 924.383 758.987 924.167 765.311V2773.94C923.95 2780.15 925.429 2786.3 928.444 2791.74C931.459 2797.17 935.898 2801.68 941.283 2804.79C946.668 2807.89 952.796 2809.47 959.01 2809.35C965.224 2809.23 971.289 2807.43 976.554 2804.13L1129.43 2716.25V862.433Z" fill="#263238"/>
<path opacity="0.4" d="M1129.43 862.433L929.464 747.4C926.206 752.823 924.383 758.987 924.167 765.311V2773.94C923.95 2780.15 925.429 2786.3 928.444 2791.74C931.459 2797.17 935.898 2801.68 941.283 2804.79C946.668 2807.89 952.796 2809.47 959.01 2809.35C965.224 2809.23 971.289 2807.43 976.554 2804.13L1129.43 2716.25V862.433Z" fill="#263238"/>
<path d="M976.554 2804.29L2237.89 2075.92C2243.2 2072.47 2247.62 2067.82 2250.79 2062.34C2253.96 2056.86 2255.79 2050.71 2256.13 2044.38V35.5045C2256.13 23.9002 2247.72 19.1912 2237.89 24.9934L976.554 753.37C971.244 756.818 966.824 761.471 963.653 766.951C960.482 772.43 958.65 778.582 958.307 784.903V2793.78C958.307 2805.39 966.464 2810.1 976.554 2804.29Z" fill="#455A64"/>
<path opacity="0.1" d="M976.554 2804.29L2237.89 2075.92C2243.2 2072.47 2247.62 2067.82 2250.79 2062.34C2253.96 2056.86 2255.79 2050.71 2256.13 2044.38V35.5045C2256.13 23.9002 2247.72 19.1912 2237.89 24.9934L976.554 753.37C971.244 756.818 966.824 761.471 963.653 766.951C960.482 772.43 958.65 778.582 958.307 784.903V2793.78C958.307 2805.39 966.464 2810.1 976.554 2804.29Z" fill="#455A64"/>
<path d="M1063.08 1248.91L1365.8 1074C1385.9 1062.4 1402.21 1070.64 1402.21 1092.42C1401.31 1104.64 1397.55 1116.49 1391.22 1126.99C1384.9 1137.5 1376.19 1146.36 1365.8 1152.88L1063.08 1327.78C1042.9 1339.38 1026.67 1331.14 1026.67 1309.37C1027.55 1297.13 1031.31 1285.28 1037.63 1274.77C1043.96 1264.27 1052.68 1255.4 1063.08 1248.91Z" fill="#90CAF9"/>
<path d="M1063.08 1373.02L1263.46 1257.31C1283.56 1245.71 1299.88 1253.95 1299.88 1275.73C1298.98 1287.96 1295.21 1299.8 1288.89 1310.31C1282.56 1320.81 1273.85 1329.68 1263.46 1336.19L1063.08 1451.89C1042.9 1463.5 1026.67 1455.26 1026.67 1433.48C1027.55 1421.25 1031.31 1409.39 1037.63 1398.89C1043.96 1388.38 1052.68 1379.52 1063.08 1373.02Z" fill="#90CAF9"/>
<path d="M1041.22 1585.43L1080.4 1562.81C1088.81 1558.18 1094.95 1561.97 1094.95 1571.22V1616.46C1094.68 1621.51 1093.22 1626.43 1090.69 1630.81C1088.16 1635.19 1084.64 1638.92 1080.4 1641.68L1041.22 1663.97C1032.81 1668.68 1026.67 1664.89 1026.67 1655.56V1610.32C1027 1605.33 1028.49 1600.48 1031.01 1596.16C1033.54 1591.84 1037.03 1588.17 1041.22 1585.43Z" fill="#90CAF9"/>
<path opacity="0.2" d="M1041.22 1585.43L1080.4 1562.81C1088.81 1558.18 1094.95 1561.97 1094.95 1571.22V1616.46C1094.68 1621.51 1093.22 1626.43 1090.69 1630.81C1088.16 1635.19 1084.64 1638.92 1080.4 1641.68L1041.22 1663.97C1032.81 1668.68 1026.67 1664.89 1026.67 1655.56V1610.32C1027 1605.33 1028.49 1600.48 1031.01 1596.16C1033.54 1591.84 1037.03 1588.17 1041.22 1585.43Z" fill="black"/>
<path d="M1041.22 1743.26L1080.4 1720.64C1088.81 1715.93 1094.95 1719.72 1094.95 1729.05V1774.29C1094.66 1779.34 1093.19 1784.25 1090.67 1788.63C1088.14 1793.01 1084.63 1796.74 1080.4 1799.52L1041.22 1822.14C1032.81 1826.76 1026.67 1822.98 1026.67 1813.73V1768.49C1026.93 1763.43 1028.38 1758.51 1030.91 1754.13C1033.44 1749.74 1036.97 1746.02 1041.22 1743.26Z" fill="#90CAF9"/>
<g opacity="0.2">
<path d="M1041.22 1743.26L1080.4 1720.64C1088.81 1715.93 1094.95 1719.72 1094.95 1729.05V1774.29C1094.66 1779.34 1093.19 1784.25 1090.67 1788.63C1088.14 1793.01 1084.63 1796.74 1080.4 1799.52L1041.22 1822.14C1032.81 1826.76 1026.67 1822.98 1026.67 1813.73V1768.49C1026.93 1763.43 1028.38 1758.51 1030.91 1754.13C1033.44 1749.74 1036.97 1746.02 1041.22 1743.26Z" fill="black"/>
</g>
<path d="M1147.34 1701.72L1384.13 1564.91C1394.22 1559.11 1402.38 1563.23 1402.38 1574.16C1401.92 1580.27 1400.03 1586.19 1396.86 1591.43C1393.69 1596.68 1389.33 1601.1 1384.13 1604.35L1147.34 1741.16C1137.25 1746.96 1129.09 1742.84 1129.09 1731.91C1129.55 1725.8 1131.44 1719.88 1134.61 1714.64C1137.78 1709.39 1142.14 1704.97 1147.34 1701.72Z" fill="#90CAF9"/>
<path opacity="0.2" d="M1147.34 1701.72L1384.13 1564.91C1394.22 1559.11 1402.38 1563.23 1402.38 1574.16C1401.92 1580.27 1400.03 1586.19 1396.86 1591.43C1393.69 1596.68 1389.33 1601.1 1384.13 1604.35L1147.34 1741.16C1137.25 1746.96 1129.09 1742.84 1129.09 1731.91C1129.55 1725.8 1131.44 1719.88 1134.61 1714.64C1137.78 1709.39 1142.14 1704.97 1147.34 1701.72Z" fill="black"/>
<path d="M1041.22 1901.01L1080.4 1878.39C1088.81 1873.68 1094.95 1877.47 1094.95 1886.8V1932.04C1094.66 1937.09 1093.2 1942 1090.67 1946.38C1088.15 1950.76 1084.63 1954.49 1080.4 1957.27L1041.22 1979.89C1032.81 1984.51 1026.67 1980.73 1026.67 1971.48V1926.24C1026.93 1921.18 1028.38 1916.26 1030.91 1911.88C1033.44 1907.49 1036.97 1903.77 1041.22 1901.01Z" fill="#E0E0E0"/>
<path d="M1147.34 1859.47L1384.13 1722.83C1394.22 1717.03 1402.38 1721.15 1402.38 1732.08C1401.94 1738.19 1400.05 1744.12 1396.88 1749.36C1393.71 1754.61 1389.34 1759.03 1384.13 1762.27L1147.34 1899.08C1137.25 1904.88 1129.09 1900.76 1129.09 1889.83C1129.52 1883.69 1131.4 1877.74 1134.57 1872.46C1137.74 1867.19 1142.12 1862.74 1147.34 1859.47Z" fill="#F0F0F0"/>
<path d="M1041.22 2059.18L1080.4 2036.56C1088.81 2031.86 1094.95 2035.64 1094.95 2044.97V2090.21C1094.66 2095.26 1093.2 2100.17 1090.67 2104.55C1088.15 2108.93 1084.63 2112.66 1080.4 2115.44L1041.22 2138.06C1032.81 2142.68 1026.67 2138.9 1026.67 2129.65V2084.41C1026.93 2079.36 1028.38 2074.43 1030.91 2070.05C1033.44 2065.66 1036.97 2061.94 1041.22 2059.18Z" fill="#E0E0E0"/>
<path d="M1147.34 2017.64L1384.13 1880.92C1394.22 1875.03 1402.38 1879.23 1402.38 1890.08C1401.94 1896.21 1400.05 1902.14 1396.88 1907.4C1393.71 1912.66 1389.34 1917.1 1384.13 1920.35L1147.34 2057.08C1137.25 2062.88 1129.09 2058.76 1129.09 2047.83C1129.55 2041.72 1131.44 2035.8 1134.61 2030.56C1137.78 2025.31 1142.14 2020.89 1147.34 2017.64Z" fill="#F0F0F0"/>
<path d="M1041.22 2216.93L1080.4 2194.31C1088.81 2189.61 1094.95 2193.39 1094.95 2202.72V2247.96C1094.66 2253.01 1093.2 2257.92 1090.67 2262.3C1088.15 2266.69 1084.63 2270.41 1080.4 2273.19L1041.22 2295.81C1032.81 2300.43 1026.67 2296.65 1026.67 2287.4V2242.16C1026.93 2237.11 1028.38 2232.18 1030.91 2227.8C1033.44 2223.41 1036.97 2219.69 1041.22 2216.93Z" fill="#E0E0E0"/>
<path d="M1147.34 2175.39L1384.13 2038.67C1394.22 2032.78 1402.38 2036.98 1402.38 2047.83C1401.94 2053.96 1400.05 2059.89 1396.88 2065.15C1393.71 2070.41 1389.34 2074.85 1384.13 2078.1L1147.34 2214.83C1137.25 2220.63 1129.09 2216.51 1129.09 2205.58C1129.55 2199.47 1131.44 2193.55 1134.61 2188.31C1137.78 2183.06 1142.14 2178.64 1147.34 2175.39Z" fill="#F0F0F0"/>
<path d="M1044.83 2372.16L1213.01 2274.87C1223.1 2269.07 1231.26 2273.19 1231.26 2284.12C1230.8 2290.23 1228.91 2296.15 1225.74 2301.4C1222.57 2306.64 1218.21 2311.06 1213.01 2314.31L1044.83 2411.6C1034.83 2417.4 1026.67 2413.28 1026.67 2402.43C1027.11 2396.32 1028.99 2390.39 1032.14 2385.13C1035.3 2379.87 1039.64 2375.43 1044.83 2372.16Z" fill="#90CAF9"/>
<path d="M1044.83 2451.04L1384.13 2255.2C1394.22 2249.39 1402.38 2253.51 1402.38 2264.36C1401.94 2270.49 1400.05 2276.42 1396.88 2281.68C1393.71 2286.94 1389.34 2291.38 1384.13 2294.63L1044.83 2490.48C1034.83 2496.28 1026.67 2492.16 1026.67 2481.31C1027.11 2475.19 1028.99 2469.27 1032.14 2464.01C1035.3 2458.75 1039.64 2454.31 1044.83 2451.04Z" fill="#90CAF9"/>
<path opacity="0.8" d="M1044.83 2451.04L1384.13 2255.2C1394.22 2249.39 1402.38 2253.51 1402.38 2264.36C1401.94 2270.49 1400.05 2276.42 1396.88 2281.68C1393.71 2286.94 1389.34 2291.38 1384.13 2294.63L1044.83 2490.48C1034.83 2496.28 1026.67 2492.16 1026.67 2481.31C1027.11 2475.19 1028.99 2469.27 1032.14 2464.01C1035.3 2458.75 1039.64 2454.31 1044.83 2451.04Z" fill="white"/>
<path d="M1044.83 2451.04L1281.71 2314.31C1291.72 2308.51 1299.88 2312.63 1299.88 2323.56C1299.42 2329.66 1297.54 2335.57 1294.39 2340.81C1291.23 2346.06 1286.89 2350.49 1281.71 2353.75L1044.83 2490.48C1034.83 2496.28 1026.67 2492.16 1026.67 2481.31C1027.11 2475.19 1028.99 2469.27 1032.14 2464.01C1035.3 2458.75 1039.64 2454.31 1044.83 2451.04Z" fill="#90CAF9"/>
<path d="M1044.83 2530.08L1213.01 2432.79C1223.1 2426.99 1231.26 2431.11 1231.26 2442.04C1230.8 2448.15 1228.91 2454.07 1225.74 2459.31C1222.57 2464.56 1218.21 2468.98 1213.01 2472.23L1044.83 2569.52C1034.83 2575.32 1026.67 2571.2 1026.67 2560.35C1027.11 2554.24 1028.99 2548.31 1032.14 2543.05C1035.3 2537.79 1039.64 2533.35 1044.83 2530.08Z" fill="#90CAF9"/>
<path d="M1147.34 1543.89L1384.13 1407.16C1394.22 1401.36 1402.38 1405.48 1402.38 1416.41C1401.92 1422.52 1400.03 1428.44 1396.86 1433.68C1393.69 1438.93 1389.33 1443.35 1384.13 1446.6L1147.34 1583.33C1137.25 1589.13 1129.09 1585.01 1129.09 1574.16C1129.54 1568.03 1131.42 1562.1 1134.59 1556.84C1137.76 1551.58 1142.13 1547.14 1147.34 1543.89Z" fill="#90CAF9"/>
<path opacity="0.2" d="M1147.34 1543.89L1384.13 1407.16C1394.22 1401.36 1402.38 1405.48 1402.38 1416.41C1401.92 1422.52 1400.03 1428.44 1396.86 1433.68C1393.69 1438.93 1389.33 1443.35 1384.13 1446.6L1147.34 1583.33C1137.25 1589.13 1129.09 1585.01 1129.09 1574.16C1129.54 1568.03 1131.42 1562.1 1134.59 1556.84C1137.76 1551.58 1142.13 1547.14 1147.34 1543.89Z" fill="black"/>
<path d="M1044.83 2530.08L1213.01 2432.79C1223.1 2426.99 1231.26 2431.11 1231.26 2442.04C1230.8 2448.15 1228.91 2454.07 1225.74 2459.31C1222.57 2464.56 1218.21 2468.98 1213.01 2472.23L1044.83 2569.52C1034.83 2575.32 1026.67 2571.2 1026.67 2560.35C1027.11 2554.24 1028.99 2548.31 1032.14 2543.05C1035.3 2537.79 1039.64 2533.35 1044.83 2530.08Z" fill="#90CAF9"/>
<path d="M1044.83 2608.7L1384.13 2412.86C1394.22 2407.06 1402.38 2411.18 1402.38 2422.03C1401.94 2428.15 1400.05 2434.09 1396.88 2439.35C1393.71 2444.61 1389.34 2449.05 1384.13 2452.3L1044.83 2647.81C1034.83 2653.69 1026.67 2649.49 1026.67 2638.64C1027.16 2632.58 1029.06 2626.72 1032.21 2621.53C1035.37 2616.33 1039.69 2611.94 1044.83 2608.7Z" fill="#90CAF9"/>
<path opacity="0.8" d="M1044.83 2608.7L1384.13 2412.86C1394.22 2407.06 1402.38 2411.18 1402.38 2422.03C1401.94 2428.15 1400.05 2434.09 1396.88 2439.35C1393.71 2444.61 1389.34 2449.05 1384.13 2452.3L1044.83 2647.81C1034.83 2653.69 1026.67 2649.49 1026.67 2638.64C1027.16 2632.58 1029.06 2626.72 1032.21 2621.53C1035.37 2616.33 1039.69 2611.94 1044.83 2608.7Z" fill="white"/>
<path d="M1044.83 2608.7L1349.99 2432.12C1360.08 2426.32 1368.24 2430.44 1368.24 2441.37C1367.78 2447.48 1365.89 2453.4 1362.72 2458.64C1359.55 2463.89 1355.19 2468.31 1349.99 2471.56L1044.83 2648.14C1034.83 2654.03 1026.67 2649.82 1026.67 2638.98C1027.11 2632.86 1028.99 2626.93 1032.14 2621.67C1035.3 2616.41 1039.64 2611.97 1044.83 2608.7Z" fill="#90CAF9"/>
<path d="M2238.05 24.9932L1470.66 468.057V2518.98L2238.05 2076C2243.36 2072.55 2247.78 2067.9 2250.95 2062.42C2254.13 2056.94 2255.96 2050.79 2256.3 2044.47V35.5043C2256.22 24.2364 2247.81 19.1911 2238.05 24.9932Z" fill="#EBEBEB"/>
<path opacity="0.6" d="M2238.05 24.9932L1470.66 468.057V2518.98L2238.05 2076C2243.36 2072.55 2247.78 2067.9 2250.95 2062.42C2254.13 2056.94 2255.96 2050.79 2256.3 2044.47V35.5043C2256.22 24.2364 2247.81 19.1911 2238.05 24.9932Z" fill="#FAFAFA"/>
<path d="M1470.66 546.932V704.682L1402.38 783.558H1470.66V941.308L2187.94 527.171V132.795L1470.66 546.932Z" fill="#90CAF9"/>
<g opacity="0.6">
<path d="M1564.5 552.398L1855.11 384.22C1869.16 375.811 1880.34 382.707 1880.34 398.936C1879.88 407.754 1877.35 416.34 1872.97 424.007C1868.59 431.673 1862.47 438.207 1855.11 443.082L1564.5 610.839C1550.38 619.248 1539.28 612.353 1539.28 596.124C1539.78 587.374 1542.33 578.864 1546.71 571.272C1551.09 563.681 1557.18 557.217 1564.5 552.398Z" fill="white"/>
</g>
<path d="M1548.11 680.129L2110.57 355.378C2115.62 352.519 2119.66 354.537 2119.66 360.003C2119.44 363.062 2118.5 366.027 2116.93 368.657C2115.35 371.287 2113.17 373.507 2110.57 375.139L1548.11 699.469C1543.06 702.328 1539.02 700.31 1539.02 694.844C1539.3 691.858 1540.27 688.977 1541.84 686.425C1543.42 683.873 1545.56 681.719 1548.11 680.129Z" fill="#90CAF9"/>
<path d="M1548.11 680.129L2110.57 355.378C2115.62 352.519 2119.66 354.537 2119.66 360.003C2119.44 363.062 2118.5 366.027 2116.93 368.657C2115.35 371.287 2113.17 373.507 2110.57 375.139L1548.11 699.469C1543.06 702.328 1539.02 700.31 1539.02 694.844C1539.3 691.858 1540.27 688.977 1541.84 686.425C1543.42 683.873 1545.56 681.719 1548.11 680.129Z" fill="#90CAF9"/>
<path opacity="0.6" d="M1548.11 680.129L2110.57 355.378C2115.62 352.519 2119.66 354.537 2119.66 360.003C2119.44 363.062 2118.5 366.027 2116.93 368.657C2115.35 371.287 2113.17 373.507 2110.57 375.139L1548.11 699.469C1543.06 702.328 1539.02 700.31 1539.02 694.844C1539.3 691.858 1540.27 688.977 1541.84 686.425C1543.42 683.873 1545.56 681.719 1548.11 680.129Z" fill="white"/>
<path d="M1548.11 738.991L2110.57 414.24C2115.62 411.297 2119.66 413.399 2119.66 418.865C2119.44 421.913 2118.5 424.866 2116.92 427.482C2115.35 430.099 2113.17 432.304 2110.57 433.917L1548.11 758.668C1543.06 761.611 1539.02 759.508 1539.02 754.043C1539.24 750.995 1540.18 748.042 1541.76 745.425C1543.33 742.809 1545.51 740.604 1548.11 738.991Z" fill="#90CAF9"/>
<path opacity="0.6" d="M1548.11 738.991L2110.57 414.24C2115.62 411.297 2119.66 413.399 2119.66 418.865C2119.44 421.913 2118.5 424.866 2116.92 427.482C2115.35 430.099 2113.17 432.304 2110.57 433.917L1548.11 758.668C1543.06 761.611 1539.02 759.508 1539.02 754.043C1539.24 750.995 1540.18 748.042 1541.76 745.425C1543.33 742.809 1545.51 740.604 1548.11 738.991Z" fill="white"/>
<path opacity="0.6" d="M1548.11 797.853L2110.57 473.102C2115.62 470.243 2119.66 472.261 2119.66 477.727C2119.44 480.786 2118.5 483.751 2116.93 486.381C2115.35 489.011 2113.17 491.231 2110.57 492.863L1548.11 817.614C1543.06 820.473 1539.02 818.455 1539.02 812.989C1539.24 809.93 1540.18 806.965 1541.75 804.335C1543.33 801.705 1545.51 799.484 1548.11 797.853Z" fill="white"/>
<path d="M1569.3 963.508L1608.73 940.804C1617.14 936.095 1623.28 939.879 1623.28 949.213V994.452C1623 999.503 1621.54 1004.42 1619.01 1008.8C1616.49 1013.18 1612.96 1016.91 1608.73 1019.68L1569.55 1042.3C1561.14 1046.92 1555 1043.14 1555 1033.89V988.734C1555.23 983.702 1556.65 978.794 1559.13 974.411C1561.61 970.028 1565.1 966.292 1569.3 963.508Z" fill="#90CAF9"/>
<path opacity="0.2" d="M1569.3 963.508L1608.73 940.804C1617.14 936.095 1623.28 939.879 1623.28 949.213V994.452C1623 999.503 1621.54 1004.42 1619.01 1008.8C1616.49 1013.18 1612.96 1016.91 1608.73 1019.68L1569.55 1042.3C1561.14 1046.92 1555 1043.14 1555 1033.89V988.734C1555.23 983.702 1556.65 978.794 1559.13 974.411C1561.61 970.028 1565.1 966.292 1569.3 963.508Z" fill="white"/>
<path d="M1675.42 921.968L1912.21 785.156C1922.3 779.353 1930.46 783.474 1930.46 794.405C1930 800.517 1928.11 806.434 1924.94 811.679C1921.77 816.924 1917.41 821.348 1912.21 824.593L1675.42 961.406C1665.32 967.208 1657.17 963.087 1657.17 952.156C1657.63 946.045 1659.52 940.127 1662.69 934.882C1665.86 929.637 1670.22 925.213 1675.42 921.968Z" fill="#90CAF9"/>
<path opacity="0.8" d="M1675.42 921.968L1912.21 785.156C1922.3 779.353 1930.46 783.474 1930.46 794.405C1930 800.517 1928.11 806.434 1924.94 811.679C1921.77 816.924 1917.41 821.348 1912.21 824.593L1675.42 961.406C1665.32 967.208 1657.17 963.087 1657.17 952.156C1657.63 946.045 1659.52 940.127 1662.69 934.882C1665.86 929.637 1670.22 925.213 1675.42 921.968Z" fill="white"/>
<path d="M1563.83 1104.78L2160.86 760.013C2165.91 757.07 2169.94 759.172 2169.94 764.554C2169.73 767.615 2168.8 770.582 2167.22 773.213C2165.64 775.844 2163.46 778.063 2160.86 779.69L1563.83 1124.45C1558.78 1127.4 1554.75 1125.29 1554.75 1119.83C1554.97 1116.78 1555.9 1113.83 1557.48 1111.21C1559.06 1108.6 1561.23 1106.39 1563.83 1104.78Z" fill="#90CAF9"/>
<path d="M1563.83 1163.89L2160.86 819.127C2165.91 816.268 2169.94 818.286 2169.94 823.752C2169.72 826.811 2168.79 829.776 2167.21 832.406C2165.63 835.036 2163.46 837.257 2160.86 838.888L1563.83 1183.65C1558.78 1186.51 1554.75 1184.49 1554.75 1179.03C1554.97 1175.97 1555.9 1173 1557.48 1170.37C1559.06 1167.74 1561.23 1165.52 1563.83 1163.89Z" fill="#90CAF9"/>
<path d="M1563.83 1223.09L2160.86 878.326C2165.91 875.383 2169.94 877.485 2169.94 882.867C2169.73 885.927 2168.8 888.895 2167.22 891.526C2165.64 894.157 2163.46 896.376 2160.86 898.003L1563.83 1242.77C1558.78 1245.71 1554.75 1243.61 1554.75 1238.23C1554.96 1235.16 1555.89 1232.2 1557.47 1229.57C1559.05 1226.94 1561.23 1224.72 1563.83 1223.09Z" fill="#90CAF9"/>
<path d="M1563.83 1282.37L2160.86 937.609C2165.91 934.749 2169.94 936.768 2169.94 942.233C2169.72 945.293 2168.79 948.257 2167.21 950.887C2165.63 953.517 2163.46 955.738 2160.86 957.369L1563.83 1302.13C1558.78 1304.99 1554.75 1302.97 1554.75 1297.51C1554.97 1294.45 1555.9 1291.48 1557.48 1288.85C1559.06 1286.22 1561.23 1284 1563.83 1282.37Z" fill="#90CAF9"/>
<path d="M1563.83 1104.78L2160.86 760.013C2165.91 757.07 2169.94 759.172 2169.94 764.554C2169.73 767.615 2168.8 770.582 2167.22 773.213C2165.64 775.844 2163.46 778.063 2160.86 779.69L1563.83 1124.45C1558.78 1127.4 1554.75 1125.29 1554.75 1119.83C1554.97 1116.78 1555.9 1113.83 1557.48 1111.21C1559.06 1108.6 1561.23 1106.39 1563.83 1104.78Z" fill="#E0E0E0"/>
<path d="M1563.83 1163.89L2160.86 819.127C2165.91 816.268 2169.94 818.286 2169.94 823.752C2169.72 826.811 2168.79 829.776 2167.21 832.406C2165.63 835.036 2163.46 837.257 2160.86 838.888L1563.83 1183.65C1558.78 1186.51 1554.75 1184.49 1554.75 1179.03C1554.97 1175.97 1555.9 1173 1557.48 1170.37C1559.06 1167.74 1561.23 1165.52 1563.83 1163.89Z" fill="#E0E0E0"/>
<path d="M1563.83 1223.09L2160.86 878.326C2165.91 875.383 2169.94 877.485 2169.94 882.867C2169.73 885.927 2168.8 888.895 2167.22 891.526C2165.64 894.157 2163.46 896.376 2160.86 898.003L1563.83 1242.77C1558.78 1245.71 1554.75 1243.61 1554.75 1238.23C1554.96 1235.16 1555.89 1232.2 1557.47 1229.57C1559.05 1226.94 1561.23 1224.72 1563.83 1223.09Z" fill="#E0E0E0"/>
<path d="M1563.83 1282.37L2160.86 937.609C2165.91 934.749 2169.94 936.768 2169.94 942.233C2169.72 945.293 2168.79 948.257 2167.21 950.887C2165.63 953.517 2163.46 955.738 2160.86 957.369L1563.83 1302.13C1558.78 1304.99 1554.75 1302.97 1554.75 1297.51C1554.97 1294.45 1555.9 1291.48 1557.48 1288.85C1559.06 1286.22 1561.23 1284 1563.83 1282.37Z" fill="#E0E0E0"/>
<path opacity="0.8" d="M1563.83 1104.78L2160.86 760.013C2165.91 757.07 2169.94 759.172 2169.94 764.554C2169.73 767.615 2168.8 770.582 2167.22 773.213C2165.64 775.844 2163.46 778.063 2160.86 779.69L1563.83 1124.45C1558.78 1127.4 1554.75 1125.29 1554.75 1119.83C1554.97 1116.78 1555.9 1113.83 1557.48 1111.21C1559.06 1108.6 1561.23 1106.39 1563.83 1104.78Z" fill="#E0E0E0"/>
<path opacity="0.8" d="M1563.83 1163.89L2160.86 819.127C2165.91 816.268 2169.94 818.286 2169.94 823.752C2169.72 826.811 2168.79 829.776 2167.21 832.406C2165.63 835.036 2163.46 837.257 2160.86 838.888L1563.83 1183.65C1558.78 1186.51 1554.75 1184.49 1554.75 1179.03C1554.97 1175.97 1555.9 1173 1557.48 1170.37C1559.06 1167.74 1561.23 1165.52 1563.83 1163.89Z" fill="#E0E0E0"/>
<path opacity="0.8" d="M1563.83 1223.09L2160.86 878.326C2165.91 875.383 2169.94 877.485 2169.94 882.867C2169.73 885.927 2168.8 888.895 2167.22 891.526C2165.64 894.157 2163.46 896.376 2160.86 898.003L1563.83 1242.77C1558.78 1245.71 1554.75 1243.61 1554.75 1238.23C1554.96 1235.16 1555.89 1232.2 1557.47 1229.57C1559.05 1226.94 1561.23 1224.72 1563.83 1223.09Z" fill="#E0E0E0"/>
<path opacity="0.8" d="M1563.83 1282.37L2160.86 937.609C2165.91 934.749 2169.94 936.768 2169.94 942.233C2169.72 945.293 2168.79 948.257 2167.21 950.887C2165.63 953.517 2163.46 955.738 2160.86 957.369L1563.83 1302.13C1558.78 1304.99 1554.75 1302.97 1554.75 1297.51C1554.97 1294.45 1555.9 1291.48 1557.48 1288.85C1559.06 1286.22 1561.23 1284 1563.83 1282.37Z" fill="#E0E0E0"/>
<path d="M1563.83 1533.63L2160.86 1188.87C2165.91 1185.92 2169.94 1188.02 2169.94 1193.41C2169.73 1196.47 2168.8 1199.43 2167.22 1202.07C2165.64 1204.7 2163.46 1206.92 2160.86 1208.54L1563.83 1553.31C1558.78 1556.25 1554.75 1554.15 1554.75 1548.68C1554.97 1545.63 1555.9 1542.68 1557.48 1540.06C1559.06 1537.45 1561.23 1535.24 1563.83 1533.63Z" fill="#E0E0E0"/>
<path d="M1563.83 1592.74L2160.86 1247.98C2165.91 1245.12 2169.94 1247.14 2169.94 1252.6C2169.72 1255.66 2168.79 1258.63 2167.21 1261.26C2165.63 1263.89 2163.46 1266.11 2160.86 1267.74L1563.83 1612.5C1558.78 1615.36 1554.75 1613.35 1554.75 1607.88C1554.97 1604.82 1555.9 1601.86 1557.48 1599.23C1559.06 1596.6 1561.23 1594.37 1563.83 1592.74Z" fill="#E0E0E0"/>
<path d="M1563.83 1651.94L2160.86 1307.18C2165.91 1304.24 2169.94 1306.34 2169.94 1311.72C2169.73 1314.78 2168.8 1317.75 2167.22 1320.38C2165.64 1323.01 2163.46 1325.23 2160.86 1326.86L1563.83 1671.62C1558.78 1674.56 1554.75 1672.46 1554.75 1667.08C1554.96 1664.02 1555.89 1661.05 1557.47 1658.42C1559.05 1655.79 1561.23 1653.57 1563.83 1651.94Z" fill="#E0E0E0"/>
<path d="M1563.83 1711.22L2160.86 1366.46C2165.91 1363.6 2169.94 1365.62 2169.94 1371.09C2169.72 1374.15 2168.79 1377.11 2167.21 1379.74C2165.63 1382.37 2163.46 1384.59 2160.86 1386.22L1563.83 1730.99C1558.78 1733.84 1554.75 1731.83 1554.75 1726.36C1554.97 1723.3 1555.9 1720.34 1557.48 1717.71C1559.06 1715.08 1561.23 1712.86 1563.83 1711.22Z" fill="#E0E0E0"/>
<path opacity="0.8" d="M1563.83 1533.63L2160.86 1188.87C2165.91 1185.92 2169.94 1188.02 2169.94 1193.41C2169.73 1196.47 2168.8 1199.43 2167.22 1202.07C2165.64 1204.7 2163.46 1206.92 2160.86 1208.54L1563.83 1553.31C1558.78 1556.25 1554.75 1554.15 1554.75 1548.68C1554.97 1545.63 1555.9 1542.68 1557.48 1540.06C1559.06 1537.45 1561.23 1535.24 1563.83 1533.63Z" fill="#E0E0E0"/>
<path opacity="0.8" d="M1563.83 1592.74L2160.86 1247.98C2165.91 1245.12 2169.94 1247.14 2169.94 1252.6C2169.72 1255.66 2168.79 1258.63 2167.21 1261.26C2165.63 1263.89 2163.46 1266.11 2160.86 1267.74L1563.83 1612.5C1558.78 1615.36 1554.75 1613.35 1554.75 1607.88C1554.97 1604.82 1555.9 1601.86 1557.48 1599.23C1559.06 1596.6 1561.23 1594.37 1563.83 1592.74Z" fill="#E0E0E0"/>
<path opacity="0.8" d="M1563.83 1651.94L2160.86 1307.18C2165.91 1304.24 2169.94 1306.34 2169.94 1311.72C2169.73 1314.78 2168.8 1317.75 2167.22 1320.38C2165.64 1323.01 2163.46 1325.23 2160.86 1326.86L1563.83 1671.62C1558.78 1674.56 1554.75 1672.46 1554.75 1667.08C1554.96 1664.02 1555.89 1661.05 1557.47 1658.42C1559.05 1655.79 1561.23 1653.57 1563.83 1651.94Z" fill="#E0E0E0"/>
<path opacity="0.8" d="M1563.83 1711.22L2160.86 1366.46C2165.91 1363.6 2169.94 1365.62 2169.94 1371.09C2169.72 1374.15 2168.79 1377.11 2167.21 1379.74C2165.63 1382.37 2163.46 1384.59 2160.86 1386.22L1563.83 1730.99C1558.78 1733.84 1554.75 1731.83 1554.75 1726.36C1554.97 1723.3 1555.9 1720.34 1557.48 1717.71C1559.06 1715.08 1561.23 1712.86 1563.83 1711.22Z" fill="#E0E0E0"/>
<path d="M1563.83 1970.89L2160.86 1626.13C2165.91 1623.18 2169.94 1625.29 2169.94 1630.67C2169.73 1633.73 2168.8 1636.7 2167.22 1639.33C2165.64 1641.96 2163.46 1644.18 2160.86 1645.8L1563.83 1990.57C1558.78 1993.51 1554.75 1991.41 1554.75 1985.94C1554.97 1982.89 1555.9 1979.94 1557.48 1977.32C1559.06 1974.71 1561.23 1972.5 1563.83 1970.89Z" fill="#E0E0E0"/>
<path d="M1563.83 2030L2160.86 1685.24C2165.91 1682.38 2169.94 1684.4 2169.94 1689.87C2169.72 1692.93 2168.79 1695.89 2167.21 1698.52C2165.63 1701.15 2163.46 1703.37 2160.86 1705L1563.83 2049.77C1558.78 2052.62 1554.75 2050.61 1554.75 2045.14C1554.97 2042.08 1555.9 2039.12 1557.48 2036.49C1559.06 2033.86 1561.23 2031.64 1563.83 2030Z" fill="#E0E0E0"/>
<path d="M1563.83 2089.2L2160.86 1744.44C2165.91 1741.5 2169.94 1743.6 2169.94 1748.98C2169.73 1752.04 2168.8 1755.01 2167.22 1757.64C2165.64 1760.27 2163.46 1762.49 2160.86 1764.12L1563.83 2108.88C1558.78 2111.82 1554.75 2109.72 1554.75 2104.34C1554.96 2101.28 1555.89 2098.31 1557.47 2095.68C1559.05 2093.05 1561.23 2090.83 1563.83 2089.2Z" fill="#E0E0E0"/>
<path d="M1563.83 2148.49L2160.86 1803.72C2165.91 1800.86 2169.94 1802.88 2169.94 1808.35C2169.72 1811.41 2168.79 1814.37 2167.21 1817C2165.63 1819.63 2163.46 1821.85 2160.86 1823.48L1563.83 2168.25C1558.78 2171.11 1554.75 2169.09 1554.75 2163.62C1554.97 2160.56 1555.9 2157.6 1557.48 2154.97C1559.06 2152.34 1561.23 2150.12 1563.83 2148.49Z" fill="#E0E0E0"/>
<path opacity="0.8" d="M1563.83 1970.89L2160.86 1626.13C2165.91 1623.18 2169.94 1625.29 2169.94 1630.67C2169.73 1633.73 2168.8 1636.7 2167.22 1639.33C2165.64 1641.96 2163.46 1644.18 2160.86 1645.8L1563.83 1990.57C1558.78 1993.51 1554.75 1991.41 1554.75 1985.94C1554.97 1982.89 1555.9 1979.94 1557.48 1977.32C1559.06 1974.71 1561.23 1972.5 1563.83 1970.89Z" fill="#E0E0E0"/>
<path opacity="0.8" d="M1563.83 2030L2160.86 1685.24C2165.91 1682.38 2169.94 1684.4 2169.94 1689.87C2169.72 1692.93 2168.79 1695.89 2167.21 1698.52C2165.63 1701.15 2163.46 1703.37 2160.86 1705L1563.83 2049.77C1558.78 2052.62 1554.75 2050.61 1554.75 2045.14C1554.97 2042.08 1555.9 2039.12 1557.48 2036.49C1559.06 2033.86 1561.23 2031.64 1563.83 2030Z" fill="#E0E0E0"/>
<path opacity="0.8" d="M1563.83 2089.2L2160.86 1744.44C2165.91 1741.5 2169.94 1743.6 2169.94 1748.98C2169.73 1752.04 2168.8 1755.01 2167.22 1757.64C2165.64 1760.27 2163.46 1762.49 2160.86 1764.12L1563.83 2108.88C1558.78 2111.82 1554.75 2109.72 1554.75 2104.34C1554.96 2101.28 1555.89 2098.31 1557.47 2095.68C1559.05 2093.05 1561.23 2090.83 1563.83 2089.2Z" fill="#E0E0E0"/>
<path opacity="0.8" d="M1563.83 2148.49L2160.86 1803.72C2165.91 1800.86 2169.94 1802.88 2169.94 1808.35C2169.72 1811.41 2168.79 1814.37 2167.21 1817C2165.63 1819.63 2163.46 1821.85 2160.86 1823.48L1563.83 2168.25C1558.78 2171.11 1554.75 2169.09 1554.75 2163.62C1554.97 2160.56 1555.9 2157.6 1557.48 2154.97C1559.06 2152.34 1561.23 2150.12 1563.83 2148.49Z" fill="#E0E0E0"/>
<path d="M1569.3 1397.32L1608.73 1374.7C1617.14 1370.08 1623.28 1373.86 1623.28 1383.11V1428.52C1623.02 1433.57 1621.57 1438.49 1619.04 1442.88C1616.51 1447.26 1612.98 1450.99 1608.73 1453.74L1569.55 1476.36C1561.14 1480.99 1555 1477.29 1555 1467.96V1422.72C1555.21 1417.66 1556.62 1412.72 1559.1 1408.3C1561.59 1403.89 1565.08 1400.13 1569.3 1397.32Z" fill="#90CAF9"/>
<path opacity="0.2" d="M1569.3 1397.32L1608.73 1374.7C1617.14 1370.08 1623.28 1373.86 1623.28 1383.11V1428.52C1623.02 1433.57 1621.57 1438.49 1619.04 1442.88C1616.51 1447.26 1612.98 1450.99 1608.73 1453.74L1569.55 1476.36C1561.14 1480.99 1555 1477.29 1555 1467.96V1422.72C1555.21 1417.66 1556.62 1412.72 1559.1 1408.3C1561.59 1403.89 1565.08 1400.13 1569.3 1397.32Z" fill="white"/>
<path d="M1675.42 1355.78L1912.21 1219.05C1922.3 1213.25 1930.46 1217.37 1930.46 1228.22C1930.01 1234.34 1928.13 1240.28 1924.96 1245.54C1921.79 1250.8 1917.42 1255.24 1912.21 1258.49L1675.42 1394.88C1665.32 1400.68 1657.17 1396.56 1657.17 1385.72C1657.66 1379.65 1659.57 1373.78 1662.74 1368.58C1665.91 1363.39 1670.25 1359 1675.42 1355.78Z" fill="#90CAF9"/>
<path opacity="0.8" d="M1675.42 1355.78L1912.21 1219.05C1922.3 1213.25 1930.46 1217.37 1930.46 1228.22C1930.01 1234.34 1928.13 1240.28 1924.96 1245.54C1921.79 1250.8 1917.42 1255.24 1912.21 1258.49L1675.42 1394.88C1665.32 1400.68 1657.17 1396.56 1657.17 1385.72C1657.66 1379.65 1659.57 1373.78 1662.74 1368.58C1665.91 1363.39 1670.25 1359 1675.42 1355.78Z" fill="white"/>
<path d="M1569.3 1831.22L1608.73 1808.6C1617.14 1803.89 1623.28 1807.67 1623.28 1817.01V1862.25C1623.01 1867.3 1621.56 1872.22 1619.03 1876.6C1616.5 1880.99 1612.97 1884.71 1608.73 1887.47L1569.55 1910.09C1561.14 1914.72 1555 1910.93 1555 1901.69V1856.45C1555.23 1851.41 1556.65 1846.51 1559.13 1842.12C1561.61 1837.74 1565.1 1834 1569.3 1831.22Z" fill="#90CAF9"/>
<path opacity="0.2" d="M1569.3 1831.22L1608.73 1808.6C1617.14 1803.89 1623.28 1807.67 1623.28 1817.01V1862.25C1623.01 1867.3 1621.56 1872.22 1619.03 1876.6C1616.5 1880.99 1612.97 1884.71 1608.73 1887.47L1569.55 1910.09C1561.14 1914.72 1555 1910.93 1555 1901.69V1856.45C1555.23 1851.41 1556.65 1846.51 1559.13 1842.12C1561.61 1837.74 1565.1 1834 1569.3 1831.22Z" fill="white"/>
<path d="M1675.42 1790.1L1912.21 1653.29C1922.3 1647.49 1930.46 1651.61 1930.46 1662.54C1930.01 1668.66 1928.12 1674.59 1924.95 1679.85C1921.78 1685.11 1917.41 1689.55 1912.21 1692.81L1675.42 1829.54C1665.32 1835.34 1657.17 1831.22 1657.17 1820.29C1657.63 1814.18 1659.52 1808.26 1662.69 1803.01C1665.86 1797.77 1670.22 1793.35 1675.42 1790.1Z" fill="#90CAF9"/>
<path opacity="0.8" d="M1675.42 1790.1L1912.21 1653.29C1922.3 1647.49 1930.46 1651.61 1930.46 1662.54C1930.01 1668.66 1928.12 1674.59 1924.95 1679.85C1921.78 1685.11 1917.41 1689.55 1912.21 1692.81L1675.42 1829.54C1665.32 1835.34 1657.17 1831.22 1657.17 1820.29C1657.63 1814.18 1659.52 1808.26 1662.69 1803.01C1665.86 1797.77 1670.22 1793.35 1675.42 1790.1Z" fill="white"/>
<path d="M1625.05 2213.15L1664.23 2190.53C1672.64 2185.91 1678.86 2189.69 1678.86 2198.94V2244.18C1678.59 2249.24 1677.12 2254.16 1674.58 2258.55C1672.03 2262.93 1668.49 2266.65 1664.23 2269.41L1625.05 2292.03C1617.06 2296.73 1610.5 2292.95 1610.5 2283.62V2238.38C1610.79 2233.33 1612.26 2228.42 1614.79 2224.04C1617.31 2219.66 1620.82 2215.93 1625.05 2213.15Z" fill="#90CAF9"/>
<path d="M1563.83 2366.86L1725.53 2273.53C1730.58 2270.67 1734.61 2272.69 1734.61 2278.15C1734.4 2281.21 1733.46 2284.17 1731.88 2286.8C1730.31 2289.43 1728.13 2291.66 1725.53 2293.29L1563.83 2386.63C1558.78 2389.48 1554.75 2387.47 1554.75 2382C1554.97 2378.94 1555.9 2375.98 1557.48 2373.35C1559.06 2370.72 1561.23 2368.5 1563.83 2366.86Z" fill="#E0E0E0"/>
<path d="M1842.58 2087.52L1881.77 2064.9C1889.76 2060.28 1896.32 2064.06 1896.32 2073.31V2118.55C1896.04 2123.6 1894.58 2128.52 1892.06 2132.9C1889.53 2137.28 1886.01 2141.01 1881.77 2143.78L1842.58 2166.4C1834.18 2171.02 1827.95 2167.32 1827.95 2157.99V2112.75C1828.23 2107.69 1829.71 2102.77 1832.25 2098.38C1834.79 2094 1838.33 2090.28 1842.58 2087.52Z" fill="#90CAF9"/>
<path d="M1781.28 2241.24L1942.99 2147.9C1948.03 2144.95 1952.07 2147.06 1952.07 2152.52C1951.85 2155.57 1950.91 2158.52 1949.34 2161.14C1947.76 2163.76 1945.58 2165.96 1942.99 2167.57L1781.28 2261C1776.24 2263.94 1772.2 2261.84 1772.2 2256.46C1772.4 2253.38 1773.33 2250.4 1774.91 2247.75C1776.48 2245.1 1778.67 2242.87 1781.28 2241.24Z" fill="#E0E0E0"/>
<path d="M2060.04 1961.89L2099.22 1939.27C2107.21 1934.56 2113.77 1938.35 2113.77 1947.68V1992.92C2113.48 1997.97 2112.02 2002.88 2109.49 2007.26C2106.97 2011.64 2103.45 2015.37 2099.22 2018.15L2060.04 2040.77C2051.63 2045.39 2045.49 2041.61 2045.49 2032.36V1987.12C2045.75 1982.06 2047.2 1977.14 2049.73 1972.76C2052.26 1968.37 2055.79 1964.65 2060.04 1961.89Z" fill="#90CAF9"/>
<path opacity="0.2" d="M1625.05 2213.15L1664.23 2190.53C1672.64 2185.91 1678.86 2189.69 1678.86 2198.94V2244.18C1678.59 2249.24 1677.12 2254.16 1674.58 2258.55C1672.03 2262.93 1668.49 2266.65 1664.23 2269.41L1625.05 2292.03C1617.06 2296.73 1610.5 2292.95 1610.5 2283.62V2238.38C1610.79 2233.33 1612.26 2228.42 1614.79 2224.04C1617.31 2219.66 1620.82 2215.93 1625.05 2213.15Z" fill="white"/>
<path opacity="0.2" d="M1842.58 2087.52L1881.77 2064.9C1889.76 2060.28 1896.32 2064.06 1896.32 2073.31V2118.55C1896.04 2123.6 1894.58 2128.52 1892.06 2132.9C1889.53 2137.28 1886.01 2141.01 1881.77 2143.78L1842.58 2166.4C1834.18 2171.02 1827.95 2167.32 1827.95 2157.99V2112.75C1828.23 2107.69 1829.71 2102.77 1832.25 2098.38C1834.79 2094 1838.33 2090.28 1842.58 2087.52Z" fill="white"/>
<path opacity="0.2" d="M2060.04 1961.89L2099.22 1939.27C2107.21 1934.56 2113.77 1938.35 2113.77 1947.68V1992.92C2113.48 1997.97 2112.02 2002.88 2109.49 2007.26C2106.97 2011.64 2103.45 2015.37 2099.22 2018.15L2060.04 2040.77C2051.63 2045.39 2045.49 2041.61 2045.49 2032.36V1987.12C2045.75 1982.06 2047.2 1977.14 2049.73 1972.76C2052.26 1968.37 2055.79 1964.65 2060.04 1961.89Z" fill="white"/>
<path d="M1998.74 2115.61L2160.44 2022.27C2165.48 2019.33 2169.52 2021.43 2169.52 2026.81C2169.31 2029.87 2168.38 2032.84 2166.8 2035.47C2165.22 2038.1 2163.04 2040.32 2160.44 2041.95L1998.74 2135.28C1993.78 2138.23 1989.66 2136.13 1989.66 2130.66C1989.89 2127.62 1990.84 2124.67 1992.41 2122.06C1993.99 2119.44 1996.16 2117.24 1998.74 2115.61Z" fill="#E0E0E0"/>
<mask id="mask0_2102_1029" style="mask-type:luminance" maskUnits="userSpaceOnUse" x="1026" y="690" width="343" height="443">
<path d="M1197.46 712.587C1103.11 765.731 1026.67 898.171 1026.67 1008.33C1026.67 1118.48 1103.11 1163.72 1197.46 1109.23C1291.8 1054.74 1368.24 922.388 1368.24 813.409C1368.24 704.43 1291.72 659.359 1197.46 712.587Z" fill="white"/>
</mask>
<g mask="url(#mask0_2102_1029)">
<path d="M1197.46 712.587C1103.11 765.731 1026.67 898.171 1026.67 1008.33C1026.67 1118.48 1103.11 1163.72 1197.46 1109.23C1291.8 1054.74 1368.24 922.388 1368.24 813.409C1368.24 704.43 1291.72 659.359 1197.46 712.587Z" fill="#FAFAFA"/>
<path d="M1280.2 1052.05L1143.47 1088.72C1141.12 1089.48 1138.61 1089.65 1136.17 1089.21C1133.73 1088.76 1131.45 1087.71 1129.52 1086.16C1127.59 1084.61 1126.08 1082.6 1125.12 1080.31C1124.17 1078.03 1123.8 1075.54 1124.05 1073.08V840.318C1124.53 821.052 1130.96 802.408 1142.47 786.945C1153.97 771.483 1169.98 759.96 1188.29 753.958L1235.04 741.429C1270.61 731.927 1299.45 755.136 1299.45 793.228V1026.07C1299.3 1031.85 1297.37 1037.45 1293.93 1042.1C1290.48 1046.75 1285.69 1050.22 1280.2 1052.05Z" fill="#37474F"/>
<path d="M1286.76 1112.26L1272.38 1048.77C1272.38 1048.77 1272.38 963.087 1260.19 955.183C1247.99 947.279 1244.46 945.765 1244.46 945.765C1260.1 940.383 1293.06 936.347 1303.32 966.451C1313.16 994.873 1327.88 1064.92 1334.86 1099.4L1286.76 1112.26Z" fill="#F28F8F"/>
<path d="M1285.58 1112.6L1236.81 946.522C1258.42 938.113 1286.17 931.134 1299.62 953.417C1311.73 973.43 1331.07 1078.29 1334.86 1099.4L1285.58 1112.6Z" fill="#90CAF9"/>
<g opacity="0.4">
<path d="M1285.58 1112.6L1236.81 946.522C1258.42 938.113 1286.17 931.134 1299.62 953.417C1311.73 973.43 1331.07 1078.29 1334.86 1099.4L1285.58 1112.6Z" fill="black"/>
</g>
<path d="M1292.14 1110.83L1244.21 1123.7C1246.14 1109.93 1250.68 1096.66 1257.58 1084.6C1267.17 1070.77 1280.98 1060.42 1296.93 1055.08C1293.48 1073.46 1291.87 1092.13 1292.14 1110.83Z" fill="#90CAF9"/>
<path d="M1292.14 1110.83L1244.21 1123.7C1246.14 1109.93 1250.68 1096.66 1257.58 1084.6C1267.17 1070.77 1280.98 1060.42 1296.93 1055.08C1293.48 1073.46 1291.87 1092.13 1292.14 1110.83Z" fill="#90CAF9"/>
<g opacity="0.7">
<path d="M1292.14 1110.83L1244.21 1123.7C1246.14 1109.93 1250.68 1096.66 1257.58 1084.6C1267.17 1070.77 1280.98 1060.42 1296.93 1055.08C1293.48 1073.46 1291.87 1092.13 1292.14 1110.83Z" fill="black"/>
</g>
<path d="M1281.88 1113.61L1147.34 1149.51L1132.54 1103.68C1132.54 1103.68 1171.81 1011.77 1123.29 988.146C1129.43 983.521 1181.14 963.339 1181.14 963.339L1236.72 946.522C1247.32 943.663 1290.12 962.667 1300.97 1004.8C1304.84 1019.68 1303.49 1033.05 1281.71 1110.58C1281.96 1111.59 1281.88 1112.6 1281.88 1113.61Z" fill="#90CAF9"/>
<path d="M1270.78 770.02C1280.03 773.383 1291.47 795.246 1290.37 847.97C1289.45 892.705 1275.99 906.832 1269.27 912.214C1259.19 917.258 1248.08 919.879 1236.81 919.866V946.522C1236.81 946.522 1254.3 963.34 1253.21 976.121C1252.11 988.903 1227.98 997.984 1211.67 990.416C1199.75 983.699 1189.45 974.457 1181.48 963.34V901.955C1180.25 903.37 1178.75 904.527 1177.07 905.358C1175.39 906.189 1173.56 906.677 1171.69 906.795C1169.82 906.912 1167.95 906.656 1166.18 906.042C1164.41 905.427 1162.78 904.467 1161.38 903.216C1158.76 901.419 1156.52 899.112 1154.8 896.434C1153.08 893.756 1151.91 890.761 1151.37 887.624C1150.83 884.488 1150.93 881.276 1151.65 878.176C1152.37 875.077 1153.71 872.154 1155.58 869.581C1163.99 858.565 1178.7 856.967 1184.42 867.983C1191.54 850.706 1204.28 836.336 1220.58 827.2C1247.15 811.055 1261.61 796.676 1270.78 770.02Z" fill="#FFA8A7"/>
<path d="M1244.12 849.231C1244.16 850.825 1243.7 852.392 1242.82 853.717C1241.93 855.041 1240.65 856.059 1239.16 856.631C1238.53 856.85 1237.86 856.911 1237.19 856.81C1236.53 856.709 1235.91 856.449 1235.37 856.052C1234.83 855.654 1234.4 855.132 1234.11 854.53C1233.81 853.927 1233.67 853.263 1233.7 852.594C1233.66 851 1234.12 849.433 1235.01 848.109C1235.89 846.784 1237.17 845.766 1238.66 845.195C1239.29 844.976 1239.97 844.914 1240.63 845.015C1241.29 845.116 1241.92 845.376 1242.45 845.774C1242.99 846.171 1243.43 846.694 1243.72 847.296C1244.01 847.898 1244.15 848.562 1244.12 849.231Z" fill="#37474F"/>
<path d="M1245.47 886.566L1257.58 887.407C1257.22 889.253 1256.26 890.927 1254.84 892.162C1253.43 893.397 1251.64 894.121 1249.76 894.219C1246.39 893.966 1244.46 890.35 1245.47 886.566Z" fill="#F28F8F"/>
<path d="M1286.84 820.641L1276.33 815.68C1276.96 814.054 1278.16 812.716 1279.71 811.925C1281.27 811.133 1283.06 810.943 1284.74 811.391C1285.49 811.854 1286.14 812.463 1286.66 813.181C1287.17 813.9 1287.54 814.713 1287.73 815.575C1287.93 816.436 1287.95 817.328 1287.8 818.198C1287.64 819.067 1287.32 819.898 1286.84 820.641Z" fill="#37474F"/>
<path d="M1228.99 840.318L1239.5 829.638C1238.94 829.071 1238.27 828.629 1237.53 828.34C1236.79 828.051 1236 827.922 1235.2 827.961C1234.41 828.001 1233.63 828.209 1232.92 828.57C1232.21 828.932 1231.59 829.439 1231.09 830.059C1229.63 831.279 1228.63 832.958 1228.25 834.821C1227.87 836.684 1228.13 838.622 1228.99 840.318Z" fill="#37474F"/>
<path d="M1284.4 834.432C1284.45 836.029 1284 837.601 1283.11 838.928C1282.22 840.255 1280.94 841.27 1279.44 841.831C1278.8 842.053 1278.12 842.114 1277.45 842.009C1276.78 841.904 1276.15 841.636 1275.61 841.229C1275.07 840.822 1274.64 840.288 1274.35 839.674C1274.07 839.061 1273.94 838.387 1273.98 837.711C1273.95 836.119 1274.41 834.558 1275.3 833.235C1276.19 831.913 1277.46 830.893 1278.94 830.311C1279.58 830.089 1280.26 830.028 1280.93 830.133C1281.6 830.238 1282.23 830.506 1282.77 830.913C1283.31 831.321 1283.74 831.855 1284.03 832.468C1284.31 833.082 1284.44 833.756 1284.4 834.432Z" fill="#37474F"/>
<path d="M1259.85 837.795L1260.61 871.178L1277.17 861.256L1259.85 837.795Z" fill="#F28F8F"/>
<path d="M1236.81 919.866C1223.52 921.547 1196.11 920.454 1191.82 910.027C1193.38 915.149 1196.8 919.501 1201.41 922.22C1209.82 927.602 1236.81 928.779 1236.81 928.779V919.866Z" fill="#F28F8F"/>
<path d="M1148.1 1149.43L1142.46 1129.41L1157.26 1146.99L1148.1 1149.43Z" fill="#90CAF9"/>
<path d="M1137.08 1152.37C1131.04 1123.6 1122.86 1095.33 1112.61 1067.78C1098.48 1029.01 1114.29 995.545 1123.79 988.146C1133.3 980.746 1181.65 963.339 1181.65 963.339C1199.14 1013.12 1203.93 1079.8 1204.35 1134.38L1137.08 1152.37Z" fill="#90CAF9"/>
<path opacity="0.4" d="M1137.08 1152.37C1131.04 1123.6 1122.86 1095.33 1112.61 1067.78C1098.48 1029.01 1114.29 995.545 1123.79 988.146C1133.3 980.746 1181.65 963.339 1181.65 963.339C1199.14 1013.12 1203.93 1079.8 1204.35 1134.38L1137.08 1152.37Z" fill="black"/>
<path d="M1113.2 1158.76L1065.18 1171.63C1063.84 1170.72 1062.58 1169.71 1061.4 1168.6C1061.4 1168.6 1084.1 1080.98 1091.33 1051.89C1098.57 1022.79 1104.12 1002.78 1123.63 988.146C1158.69 1010.93 1142.46 1074.25 1142.46 1074.25L1113.2 1158.76Z" fill="#90CAF9"/>
<path opacity="0.4" d="M1113.2 1158.76L1065.18 1171.63C1063.84 1170.72 1062.58 1169.71 1061.4 1168.6C1061.4 1168.6 1084.1 1080.98 1091.33 1051.89C1098.57 1022.79 1104.12 1002.78 1123.63 988.146C1158.69 1010.93 1142.46 1074.25 1142.46 1074.25L1113.2 1158.76Z" fill="black"/>
</g>
<path d="M414.085 598.815V432.235C413.58 399.945 434.602 367.571 477.235 343.017C561.324 294.33 698.052 294.33 782.309 343.017C824.942 367.571 845.964 399.945 845.46 432.235V598.226C845.46 630.348 824.774 687.781 782.309 712.251C698.22 760.938 561.492 760.938 477.235 712.251C435.191 688.033 414.169 631.021 414.085 599.151V598.815Z" fill="#E0E0E0"/>
<path d="M629.772 225.545L985.72 431.058L629.772 636.571L273.824 431.058L629.772 225.545Z" fill="#E0E0E0"/>
<path d="M451.672 533.73L626.997 433.665C627.72 433.25 628.518 432.983 629.345 432.877C630.172 432.771 631.011 432.829 631.815 433.048C632.62 433.267 633.373 433.641 634.032 434.151C634.692 434.661 635.244 435.296 635.658 436.019C636.072 436.742 636.34 437.54 636.446 438.367C636.552 439.194 636.493 440.033 636.275 440.837C636.056 441.641 635.681 442.395 635.172 443.054C634.662 443.713 634.027 444.266 633.304 444.68L464.201 540.962L451.672 533.73Z" fill="#E0E0E0"/>
<path d="M985.72 431.058V445.773L629.772 651.202V636.571L985.72 431.058Z" fill="#E0E0E0"/>
<path d="M273.824 431.058V445.773L629.772 651.202V636.571L273.824 431.058Z" fill="#E0E0E0"/>
<path d="M442.843 543.316L453.69 549.539C455.33 546.861 457.614 544.635 460.333 543.064L464.117 540.878L451.756 533.814C448.105 536.267 445.057 539.516 442.843 543.316Z" fill="#E0E0E0"/>
<path d="M845.88 526.499L629.772 673.233L414.253 526.835L629.772 651.202L845.88 526.499Z" fill="#E0E0E0"/>
<path d="M428.968 716.371C431.984 717.927 435.329 718.739 438.723 718.739C442.116 718.739 445.461 717.927 448.477 716.371L464.538 820.052C464.538 839.645 413.664 839.645 413.664 820.052L428.968 716.371Z" fill="#E0E0E0"/>
<path d="M428.043 775.57L424.848 832.414C423.799 832.096 422.785 831.673 421.821 831.152L428.043 775.57Z" fill="#E0E0E0"/>
<path d="M452.093 832.834L445.365 740.336L455.372 831.488C454.307 832.002 453.211 832.451 452.093 832.834Z" fill="#E0E0E0"/>
<path d="M440.657 834.684H437.461L439.143 761.274L440.657 834.684Z" fill="#E0E0E0"/>
<path d="M438.638 725.032C442.366 724.939 445.975 723.707 448.981 721.5C450.259 720.557 451.128 719.16 451.409 717.597C451.691 716.033 451.364 714.421 450.495 713.091C449.577 711.783 448.185 710.884 446.615 710.585C445.044 710.287 443.42 710.613 442.086 711.494C441.286 712.269 440.215 712.703 439.101 712.703C437.986 712.703 436.916 712.269 436.116 711.494C435.462 710.911 434.694 710.472 433.86 710.203C433.027 709.934 432.147 709.841 431.276 709.931C430.405 710.02 429.562 710.29 428.801 710.723C428.04 711.157 427.378 711.744 426.856 712.447C426.335 713.15 425.965 713.955 425.772 714.808C425.578 715.662 425.564 716.547 425.731 717.407C425.898 718.266 426.242 719.082 426.742 719.801C427.241 720.52 427.885 721.128 428.632 721.584C431.526 723.749 435.025 724.955 438.638 725.032Z" fill="#E0E0E0"/>
<path d="M439.059 708.887C439.883 708.898 440.701 708.745 441.466 708.438C442.231 708.13 442.927 707.673 443.513 707.094C444.1 706.516 444.566 705.826 444.884 705.065C445.202 704.305 445.366 703.489 445.366 702.664V555.677C445.374 552.372 446.248 549.127 447.9 546.265C449.552 543.403 451.926 541.024 454.783 539.364L633.304 437.617C634.722 436.805 635.763 435.468 636.204 433.895C636.644 432.321 636.448 430.638 635.658 429.208C635.264 428.498 634.733 427.873 634.096 427.369C633.459 426.866 632.728 426.493 631.946 426.274C631.163 426.055 630.346 425.994 629.54 426.093C628.733 426.193 627.955 426.451 627.249 426.853L448.309 528.769C443.539 531.523 439.576 535.481 436.816 540.248C434.057 545.014 432.597 550.422 432.584 555.93V702.917C432.616 703.734 432.81 704.537 433.153 705.28C433.496 706.022 433.982 706.69 434.583 707.244C435.185 707.799 435.89 708.229 436.658 708.511C437.426 708.793 438.242 708.921 439.059 708.887Z" fill="#E0E0E0"/>
<path d="M452.849 702.664C452.866 699.933 452.071 697.259 450.566 694.98C449.061 692.701 446.913 690.921 444.395 689.864C441.876 688.807 439.101 688.522 436.42 689.045C433.74 689.567 431.275 690.874 429.338 692.799C427.401 694.725 426.079 697.182 425.54 699.859C425.001 702.536 425.269 705.314 426.31 707.838C427.351 710.363 429.119 712.522 431.389 714.041C433.658 715.56 436.328 716.371 439.059 716.371C440.866 716.382 442.657 716.036 444.33 715.352C446.003 714.668 447.523 713.66 448.805 712.386C450.087 711.112 451.104 709.598 451.798 707.929C452.492 706.261 452.849 704.472 452.849 702.664Z" fill="#E0E0E0"/>
<path d="M425.436 703.421C426.011 704.844 426.885 706.126 428 707.18C429.114 708.235 430.443 709.036 431.895 709.531C433.347 710.026 434.889 710.202 436.416 710.047C437.942 709.893 439.417 709.411 440.74 708.635C442.429 707.617 443.827 706.181 444.796 704.464C445.766 702.748 446.276 700.81 446.276 698.838C446.276 696.867 445.766 694.929 444.796 693.212C443.827 691.496 442.429 690.059 440.74 689.042C443.313 689.397 445.732 690.475 447.715 692.152C449.698 693.828 451.164 696.033 451.943 698.511C452.722 700.988 452.78 703.636 452.113 706.145C451.445 708.654 450.078 710.922 448.171 712.685C446.264 714.448 443.895 715.632 441.341 716.101C438.787 716.57 436.152 716.303 433.744 715.333C431.335 714.362 429.252 712.727 427.736 710.618C426.221 708.509 425.336 706.014 425.184 703.421H425.436Z" fill="#E0E0E0"/>
<path d="M2875.19 621.519L2810.19 584.099L2845.93 576.531L2881.5 601.338L2875.19 621.519Z" fill="#E0E0E0"/>
<path d="M2761.42 286.593C2761.42 185.687 2699.62 138.849 2623.68 182.66L2511.51 247.408C2435.83 291.218 2373.86 409.279 2373.86 510.522C2373.86 514.642 2373.86 518.93 2373.86 522.546C2373.86 524.817 2373.86 526.751 2373.86 528.937C2373.86 531.123 2374.28 532.889 2374.45 534.823C2374.61 536.757 2374.95 539.28 2375.29 541.466C2376.98 553.416 2379.97 565.145 2384.2 576.447C2385.97 580.652 2387.82 584.856 2389.83 588.388C2390.77 590.338 2391.83 592.221 2393.03 594.022L2394.12 595.788C2395.99 598.8 2398.16 601.617 2400.6 604.196C2401.94 605.71 2403.2 607.308 2404.63 608.737L2409.01 612.942C2410.52 614.119 2411.95 615.548 2413.55 616.726C2415.06 617.942 2416.66 619.039 2418.34 620.005L2423.3 622.864C2429.73 626.333 2436.69 628.692 2443.9 629.844C2444.46 629.708 2445.03 629.708 2445.58 629.844C2447.52 629.844 2449.28 630.264 2451.22 630.264C2453.26 630.432 2455.31 630.432 2457.36 630.264C2462.76 630.323 2468.15 629.73 2473.42 628.498C2476.57 627.872 2479.68 627.086 2482.75 626.144C2492.58 623.133 2502.01 618.955 2510.84 613.698L2623.01 548.95C2630.7 544.486 2638.06 539.484 2645.04 533.982C2645.04 532.637 2645.04 531.46 2645.04 530.198C2645.04 528.937 2645.04 526.246 2645.04 524.733C2645.04 521.369 2645.04 517.921 2645.04 514.474C2644.79 428.451 2696.59 326.956 2761.42 286.593Z" fill="#E0E0E0"/>
<path d="M2780.34 213.857L2715.17 176.353C2715.59 176.353 2721.82 221.677 2721.82 221.677L2770.17 227.395L2780.34 213.857Z" fill="#E0E0E0"/>
<path d="M2479.22 654.566L2419.01 620.426L2455.25 604.869L2479.22 654.566Z" fill="#E0E0E0"/>
<path d="M2511.51 614.708C2511.08 639.627 2503.07 663.825 2488.55 684.081C2485.86 687.612 2489.98 690.724 2493.01 689.126C2506.75 681.994 2518.93 672.188 2528.83 660.284C2547.85 637.806 2561.15 611.063 2567.6 582.333L2511.51 614.708Z" fill="#E0E0E0"/>
<path d="M2489.23 688.958L2554.4 726.462C2554.4 726.462 2590.97 695.601 2590.97 633.123L2520.26 628.33C2520.26 628.33 2518.57 669.029 2489.23 688.958Z" fill="#E0E0E0"/>
<path d="M2662.79 505.14C2662.79 508.279 2662.79 511.306 2662.79 514.222C2662.79 515.903 2662.79 517.333 2662.79 518.931C2662.79 520.528 2662.79 521.874 2663.29 523.387C2663.79 524.901 2663.29 526.751 2663.88 528.433C2664.85 535.881 2666.6 543.209 2669.09 550.296C2669.45 551.587 2669.9 552.851 2670.44 554.08C2671.05 555.769 2671.75 557.425 2672.54 559.041C2673.19 560.603 2673.95 562.12 2674.81 563.582C2675.48 565.047 2676.26 566.453 2677.16 567.786L2678.01 569.132C2679.49 571.448 2681.12 573.667 2682.88 575.774C2683.8 577 2684.81 578.153 2685.91 579.222L2689.11 582.333C2690.2 583.356 2691.35 584.311 2692.55 585.192C2693.7 586.083 2694.91 586.897 2696.17 587.631C2697.43 588.388 2698.61 589.145 2699.95 589.817L2703.82 591.667L2707.86 593.097C2710.32 593.842 2712.82 594.459 2715.34 594.947H2716.6C2718 595.075 2719.41 595.075 2720.81 594.947C2722.32 595.118 2723.84 595.118 2725.35 594.947C2728.96 594.945 2732.57 594.579 2736.11 593.854C2738.95 593.372 2741.76 592.727 2744.52 591.92C2751.9 589.657 2758.99 586.524 2765.63 582.586L2849.71 533.982C2857.22 529.654 2864.28 524.613 2870.82 518.931C2873.18 516.912 2875.53 514.726 2877.88 512.54C2882.12 508.591 2886.14 504.408 2889.91 500.011L2895.29 495.133C2896.72 493.452 2898.07 491.686 2899.5 489.92C2899.84 489.309 2900.27 488.744 2900.76 488.238C2906.36 480.835 2911.52 473.114 2916.23 465.114C2917.49 463.011 2918.67 460.825 2919.93 458.639C2921.19 456.453 2922.37 454.266 2923.54 451.996C2924.72 449.725 2925.82 447.455 2926.99 445.269L2930.19 438.373C2931.28 436.103 2932.29 433.665 2933.3 431.478C2935.06 427.442 2936.66 423.069 2938.09 419.201C2938.09 418.444 2938.68 417.688 2938.93 416.931C2939.86 414.576 2940.61 412.222 2941.37 409.867C2942.89 405.327 2944.23 400.786 2945.58 396.077C2948.53 385.025 2950.75 373.788 2952.22 362.441C2952.22 360.507 2952.64 358.657 2952.89 356.723C2953.14 354.789 2952.89 353.444 2953.31 351.762C2953.73 350.08 2953.31 348.399 2953.31 346.717C2953.31 343.577 2953.31 340.466 2953.31 337.383C2953.31 261.703 2906.98 226.302 2849.97 259.18L2765.88 307.868C2709.12 340.578 2662.79 429.124 2662.79 505.14Z" fill="#E0E0E0"/>
<path d="M2983.67 291.47L2919 254.303L2894.62 271.541L2970.05 317.202L2983.67 291.47Z" fill="#E0E0E0"/>
<path d="M2761.67 625.051L2696.67 587.631L2747.63 572.411L2761.67 625.051Z" fill="#E0E0E0"/>
<path d="M2837.52 542.139C2837.52 555.593 2854.34 573.924 2873.6 577.372C2876.2 577.877 2875.53 583.595 2872.42 585.781C2860.94 592.014 2847.7 594.206 2834.83 592.004C2826.47 591.754 2818.33 589.287 2811.24 584.854C2804.14 580.421 2798.36 574.182 2794.47 566.777L2837.52 542.139Z" fill="#90CAF9"/>
<path d="M2688.77 220.079L2576.51 284.912C2500.83 328.722 2438.94 446.782 2438.94 547.941C2438.94 552.146 2438.94 556.35 2438.94 560.05C2438.94 562.32 2438.94 564.254 2438.94 566.441C2438.94 568.627 2439.36 570.309 2439.61 572.243C2439.87 574.177 2440.12 576.868 2440.46 578.97C2441.97 590.875 2444.79 602.577 2448.86 613.867C2450.63 618.155 2452.48 622.276 2454.5 625.891C2455.43 627.817 2456.49 629.672 2457.69 631.441C2458.05 632.055 2458.44 632.645 2458.87 633.207C2460.7 636.385 2462.84 639.371 2465.26 642.12C2466.61 643.634 2467.95 645.316 2469.38 646.661L2473.67 650.866C2475.18 652.043 2476.7 653.472 2478.21 654.65C2479.73 655.847 2481.34 656.943 2483 657.929L2488.05 660.788C2494.45 664.243 2501.39 666.603 2508.57 667.768C2509.11 667.582 2509.7 667.582 2510.25 667.768C2512.18 667.768 2514.03 667.768 2515.88 667.768C2517.93 667.892 2519.98 667.892 2522.02 667.768C2527.42 667.791 2532.81 667.198 2538.08 666.002C2541.23 665.376 2544.35 664.59 2547.42 663.647C2557.22 660.611 2566.64 656.464 2575.5 651.286C2575.09 676.195 2567.04 700.377 2552.46 720.575C2549.77 724.191 2553.89 727.302 2557 725.705C2570.76 718.565 2582.95 708.728 2592.82 696.778C2611.79 674.3 2625.09 647.596 2631.59 618.912L2623.18 623.537L2687.34 586.538C2693.55 582.96 2699.53 579 2705.25 574.681C2704.76 572.547 2704.39 570.385 2704.16 568.207C2704.16 566.777 2703.65 564.675 2703.48 562.488C2703.18 560.624 2702.98 558.742 2702.9 556.854V555.845C2702.81 554.445 2702.81 553.041 2702.9 551.641C2702.9 548.446 2702.9 545.082 2702.9 541.719C2702.9 456.621 2753.35 360.675 2818.27 323.088L2825.41 318.883C2824.74 221.593 2763.61 176.858 2688.77 220.079Z" fill="#F0F0F0"/>
<path d="M2915.39 296.432L2831.3 345.035C2774.37 377.998 2727.95 466.543 2727.95 542.56C2727.95 545.671 2727.95 548.698 2727.95 551.641C2727.95 554.584 2727.95 554.752 2727.95 556.35C2727.95 557.948 2727.95 559.293 2728.37 560.807C2728.51 562.471 2728.74 564.127 2729.05 565.768C2729.97 573.253 2731.72 580.614 2734.26 587.715C2734.58 589.018 2735.03 590.286 2735.61 591.499C2736.18 593.166 2736.85 594.795 2737.62 596.376C2738.3 597.958 2739.06 599.502 2739.9 601.001C2740.59 602.468 2741.4 603.875 2742.33 605.206C2742.53 605.683 2742.78 606.135 2743.09 606.551C2744.69 608.906 2746.29 611.092 2747.97 613.194C2748.94 614.401 2749.98 615.552 2751.08 616.642L2754.27 619.753C2755.36 620.776 2756.52 621.73 2757.72 622.612C2758.83 623.52 2760.01 624.335 2761.25 625.051C2762.51 625.807 2763.69 626.564 2765.04 627.237L2768.91 629.087L2772.94 630.516C2775.4 631.261 2777.9 631.879 2780.43 632.366H2781.69C2783.09 632.495 2784.49 632.495 2785.89 632.366C2787.43 632.579 2788.98 632.579 2790.52 632.366C2794.13 632.387 2797.73 632.049 2801.28 631.357C2804.12 630.869 2806.92 630.224 2809.69 629.423C2817.08 627.193 2824.17 624.058 2830.79 620.089L2859.22 603.776C2863.16 611.103 2868.97 617.257 2876.06 621.614C2883.15 625.97 2891.26 628.374 2899.58 628.582C2912.46 630.753 2925.7 628.532 2937.17 622.276C2940.19 620.342 2940.95 614.624 2938.26 613.867C2919 610.419 2902.27 592.088 2902.27 578.634L2915.05 571.234C2922.54 566.885 2929.61 561.845 2936.16 556.182C2938.51 554.164 2940.87 551.977 2943.14 549.791C2947.4 545.844 2951.45 541.661 2955.25 537.262C2956.76 535.496 2958.27 533.814 2959.79 531.796C2961.3 529.778 2962.56 528.433 2963.99 526.667L2965.25 524.985C2970.85 517.582 2976.02 509.861 2980.73 501.861L2984.51 495.386C2985.77 493.199 2986.95 491.013 2988.13 488.743C2989.3 486.472 2990.31 484.202 2991.49 482.016L2994.77 475.12C2995.86 472.766 2996.79 470.411 2997.8 468.225C2999.56 464.189 3001.24 459.816 3002.67 455.948L3003.43 453.678C3004.35 451.323 3005.2 448.969 3005.87 446.614C3007.47 441.989 3008.73 437.533 3010.16 432.824C3013.12 421.772 3015.33 410.535 3016.8 399.188C3016.8 397.254 3017.22 395.404 3017.39 393.47C3017.56 391.536 3017.39 390.107 3017.81 388.509C3018.23 386.911 3017.81 385.145 3017.81 383.464C3017.81 380.352 3017.81 377.157 3017.81 374.046C3018.73 298.618 2972.32 263.553 2915.39 296.432Z" fill="#F0F0F0"/>
<path d="M2239.82 1408.76C2208.03 1398.84 2175.41 1424.57 2154.05 1476.53C2132.69 1528.5 2087.87 1660.69 2081.23 1695.92C2074.59 1731.15 2224.94 1807.84 2220.73 1805.82C2216.53 1803.81 2239.82 1408.76 2239.82 1408.76Z" fill="#263238"/>
<path d="M2169.94 2631.91C2165.4 2633.59 2164.31 2642.17 2163.63 2659.16C2163.13 2672.02 2160.36 2694.47 2175.41 2698.93C2190.46 2703.39 2212.57 2701.12 2222.24 2689.01C2234.27 2673.87 2242.43 2660.59 2259.58 2642.09C2274.55 2626.11 2290.61 2611.14 2296.66 2588.69C2302.13 2568.34 2297.59 2559.6 2283.71 2553.71C2264.71 2545.3 2234.77 2572.04 2219.89 2576.25C2207.02 2579.86 2174.4 2630.23 2169.94 2631.91Z" fill="#263238"/>
<path d="M2169.94 2616.19V2637.04C2177.77 2642.05 2186.82 2644.83 2196.1 2645.08C2205.39 2645.33 2214.58 2643.05 2222.67 2638.47C2223.59 2636.45 2228.13 2608.62 2228.13 2608.62L2169.94 2616.19Z" fill="#FFA8A7"/>
<path d="M2338.88 2752.16C2338.88 2752.16 2332.91 2770.32 2329.71 2785.8C2327.1 2798.41 2323.49 2819.43 2327.86 2829.02C2332.23 2838.6 2349.55 2844.66 2376.21 2844.41C2393.53 2844.41 2420.53 2856.09 2438.94 2866.35C2457.36 2876.61 2497.8 2881.24 2517.9 2878.88C2541.61 2876.11 2566.25 2862.06 2570.12 2852.48C2573.99 2842.89 2568.86 2832.38 2512.86 2808.5C2512.35 2808.5 2434.99 2783.27 2407.83 2753.25L2338.88 2752.16Z" fill="#263238"/>
<path d="M2338.88 2729.62C2338.88 2729.62 2338.88 2745.1 2338.88 2753.93C2338.88 2762.75 2349.3 2775.96 2376.38 2775.03C2395.38 2774.36 2408.59 2769.23 2407.83 2753.59V2730.97L2338.88 2729.62Z" fill="#FFA8A7"/>
<path d="M2156.32 2339.28C2160.97 2302.32 2169.22 2265.91 2180.96 2230.56C2180.96 2230.56 2173.56 2136.8 2169.94 2047.92C2166.07 1951.89 2169.94 1831.14 2168.34 1807.25C2168.34 1807.25 2478.21 1744.52 2483.76 1855.52C2489.31 1966.52 2471.48 2249.06 2467.87 2297.83C2464.25 2346.6 2455.76 2389.74 2445.67 2468.78C2435.58 2547.82 2407.83 2730.97 2407.83 2730.97C2397.11 2736.43 2385.21 2739.17 2373.18 2738.93C2361.16 2738.7 2349.37 2735.5 2338.88 2729.62C2338.88 2729.62 2317.1 2507.63 2319.37 2451.37C2321.14 2409.59 2328.32 2368.21 2340.73 2328.27L2329.71 2157.15C2324.5 2077.52 2319.03 2039.42 2317.77 2004.69L2311.13 2001.33C2311.13 2001.33 2304.32 2138.73 2300.7 2187.5C2297.08 2236.27 2289.26 2283.03 2275.47 2373.59C2263.2 2452.13 2226.79 2618.37 2226.79 2618.37C2191.38 2637.55 2170.28 2615.94 2170.28 2615.94C2170.28 2615.94 2146.9 2407.4 2156.32 2339.28Z" fill="#455A64"/>
<path d="M2317.77 2004.95C2317.77 2004.95 2242.59 1967.86 2205.01 1934.48C2205.01 1934.48 2239.9 1983.67 2285.82 2005.54C2285.82 2005.54 2302.13 2176.15 2302.04 2172.79L2311.46 2004.61L2317.77 2004.95Z" fill="#37474F"/>
<path d="M2384.7 1373.61L2366.37 1474.51L2275.22 1467.87L2294.31 1353.43L2384.7 1373.61Z" fill="#FFA8A7"/>
<path d="M2178.94 1460.47C2187.94 1433.06 2222.75 1403.21 2257.56 1410.02C2309.34 1418.78 2360.36 1431.51 2410.18 1448.11C2442.05 1459.46 2471.06 1487.04 2473.75 1591.99L2489.9 1904.46L2451.3 1912.87L2437.85 1842.07L2431.63 1912.87C2391.26 1922.96 2321.22 1914.64 2275.22 1904.46C2179.36 1883.52 2167.84 1843.75 2167.84 1843.75C2167.84 1843.75 2166.58 1667.92 2169.44 1591.99C2172.13 1527.07 2172.72 1478.97 2178.94 1460.47Z" fill="#37474F"/>
<path d="M2452.14 1254.03C2452.14 1254.03 2474.26 1286.74 2471.4 1290.19C2466.29 1293.64 2460.59 1296.12 2454.58 1297.51L2452.14 1254.03Z" fill="#FFA8A7"/>
<path d="M2384.7 1150.44C2405.98 1161.2 2442.73 1181.05 2452.82 1258.83C2463.24 1338.71 2449.54 1364.44 2438.77 1375.04C2431.46 1382.19 2391.77 1382.61 2371.92 1376.64C2346.7 1369.15 2291.03 1347.88 2265.47 1306.84C2235.36 1258.58 2228.64 1193.91 2262.61 1168.18C2310.29 1132.02 2366.71 1141.36 2384.7 1150.44Z" fill="#FFA8A7"/>
<path d="M2457.27 1177.18C2450.29 1196.35 2438.52 1243.27 2389.58 1262.86C2389.58 1262.86 2382.6 1232.93 2357.46 1236.12C2332.32 1239.32 2328.03 1271.36 2343.5 1291.29C2358.97 1311.21 2373.94 1303.98 2373.94 1303.98C2373.94 1303.98 2377.3 1346.87 2348.71 1366.29C2348.71 1366.29 2314.15 1388.16 2277.57 1371.34C2260.76 1363.77 2237.8 1324.33 2224.18 1291.96C2195.25 1223.51 2191.13 1168.6 2234.77 1151.28C2240.16 1120.17 2254.2 1108.48 2282.37 1102.67C2343 1090.15 2388.82 1130 2439.78 1123.02C2466.44 1119.32 2465.26 1155.31 2457.27 1177.18Z" fill="#37474F"/>
<path d="M2233.76 1161.7L2205.17 1144.05C2206.28 1142.06 2207.78 1140.33 2209.58 1138.94C2211.37 1137.56 2213.43 1136.55 2215.63 1135.98C2217.83 1135.41 2220.12 1135.29 2222.36 1135.63C2224.61 1135.96 2226.76 1136.75 2228.69 1137.95C2230.62 1139.14 2232.29 1140.71 2233.6 1142.57C2234.91 1144.42 2235.82 1146.52 2236.3 1148.74C2236.77 1150.96 2236.79 1153.26 2236.36 1155.48C2235.92 1157.71 2235.04 1159.83 2233.76 1161.7Z" fill="#37474F"/>
<path d="M2377.98 1410.36L2388.4 1440.54C2388.4 1440.54 2380.75 1454 2348.21 1454.67C2315.67 1455.34 2280.94 1445 2270.18 1431.13C2267.72 1428.41 2265.91 1425.18 2264.86 1421.68C2263.82 1418.17 2263.56 1414.48 2264.12 1410.86C2264.12 1410.86 2277.07 1382.27 2289.35 1383.53L2287.33 1395.98C2287.33 1395.98 2290.1 1406.15 2319.62 1413.97C2365.53 1426.16 2377.98 1410.36 2377.98 1410.36Z" fill="#455A64"/>
<path d="M2639.49 1610.99C2652.61 1595.94 2657.66 1562.56 2675.15 1539.68C2692.64 1516.81 2699.11 1500.08 2706.01 1510.08C2715.17 1523.29 2694.49 1549.77 2699.11 1552.13C2703.74 1554.48 2720.81 1589.63 2722.57 1608.97C2724.34 1628.31 2673.04 1677.08 2673.04 1677.08L2639.49 1610.99Z" fill="#FFA8A7"/>
<path d="M2377.98 1410.36C2380.09 1410.31 2382.18 1410.85 2384.02 1411.9C2385.85 1412.95 2387.37 1414.48 2388.4 1416.33C2393.55 1425.61 2398.15 1435.19 2402.19 1445L2388.4 1440.54L2377.98 1410.36Z" fill="#455A64"/>
<path d="M2697.68 1549.44C2697.68 1549.44 2759.66 1544.06 2768.65 1549.44C2777.65 1554.82 2774.96 1581.64 2768.65 1598.13C2762.35 1614.61 2730.73 1625.29 2701.38 1645.13C2701.38 1642.1 2697.68 1549.44 2697.68 1549.44Z" fill="#FFA8A7"/>
<path d="M2402.19 1445.34C2428.85 1454.67 2452.14 1465.35 2477.03 1512.1C2508.99 1572.14 2569.53 1668.17 2569.53 1668.17L2639.24 1606.7C2639.24 1606.7 2649.75 1596.53 2669.34 1628.9C2675.09 1637.62 2678.72 1647.55 2679.96 1657.91C2681.2 1668.27 2680.01 1678.78 2676.49 1688.6C2676.49 1688.6 2596.02 1783.04 2580.63 1797.42C2565.24 1811.79 2539.76 1800.61 2523.2 1777.99C2506.63 1755.37 2401.94 1624.61 2401.94 1624.61C2401.94 1624.61 2345.1 1549.1 2402.19 1445.34Z" fill="#37474F"/>
<path d="M3121.24 1288.34H2922.7C2915.21 1288.34 2908.02 1285.37 2902.73 1280.07C2897.43 1274.77 2894.45 1267.58 2894.45 1260.09V944.672C2894.45 919.85 2904.31 896.045 2921.86 878.493C2939.41 860.941 2963.22 851.081 2988.04 851.081H3056.15C3080.93 851.148 3104.67 861.038 3122.17 878.582C3139.67 896.127 3149.49 919.894 3149.49 944.672V1260.09C3149.49 1267.58 3146.51 1274.77 3141.22 1280.07C3135.92 1285.37 3128.73 1288.34 3121.24 1288.34Z" fill="#37474F"/>
<path d="M2889.24 1180.71C2869.98 1237.47 2837.69 1400.77 2837.69 1400.77C2837.69 1400.77 2770.42 1483.01 2748.47 1502.94C2736.45 1514.04 2709.37 1533.97 2709.37 1533.97L2758.56 1570.12C2802.98 1535.96 2844.7 1498.43 2883.35 1457.87C2891.95 1448.72 2897.98 1437.46 2900.84 1425.24L2934.48 1280.94C2934.48 1280.94 2934.48 1164.9 2952.22 1149.68C2969.96 1134.46 2975.09 1131.26 2975.09 1131.26C2952.3 1129.58 2904.37 1136.06 2889.24 1180.71Z" fill="#F28F8F"/>
<path d="M2985.6 1129.58C2954.24 1125.97 2914.04 1126.64 2894.45 1161.7C2874.86 1196.77 2842.23 1378.07 2842.23 1378.07C2842.23 1378.07 2873.09 1402.03 2906.39 1401.61L2985.6 1129.58Z" fill="#90CAF9"/>
<path d="M2898.4 1298.52C2904.05 1325.54 2906.23 1353.18 2904.88 1380.76C2902.44 1417.08 2877.38 1480.49 2877.38 1480.49C2877.38 1480.49 2896.97 1502.01 2952.22 1493.35C2997.21 1486.37 2981.31 1350.4 2955.5 1324.33C2940.44 1308.78 2920.02 1299.55 2898.4 1298.52Z" fill="#90CAF9"/>
<path opacity="0.3" d="M2898.4 1298.52C2904.05 1325.54 2906.23 1353.18 2904.88 1380.76C2902.44 1417.08 2877.38 1480.49 2877.38 1480.49C2877.38 1480.49 2896.97 1502.01 2952.22 1493.35C2997.21 1486.37 2981.31 1350.4 2955.5 1324.33C2940.44 1308.78 2920.02 1299.55 2898.4 1298.52Z" fill="black"/>
<path d="M3002.34 2258.81C3002.69 2265.01 3001.14 2271.18 2997.88 2276.47C2989.56 2290.21 2979.78 2303.01 2968.7 2314.65C2953.14 2331.46 2929.85 2351.22 2913.12 2365.77C2903.87 2374.18 2903.53 2386.12 2916.82 2390.41C2941.58 2396.44 2967.72 2392.8 2989.89 2380.23C3006.71 2371.32 3030.09 2329.78 3043.88 2323.9C3059.77 2316.75 3068.6 2313.22 3073.98 2305.9C3078.05 2301.74 3080.59 2296.33 3081.18 2290.54C3081.78 2284.75 3080.4 2278.93 3077.26 2274.03C3069.78 2260.07 3058.51 2238.63 3053.88 2241.07L3055.31 2245.44C3051.7 2256.79 3020.75 2269.99 3004.86 2266.88L3002.34 2258.81Z" fill="#37474F"/>
<path d="M3164.37 1784.38C3171.52 1708.7 3192.04 1586.94 3171.02 1496.8L2891.84 1511.6C2884.11 1600.48 2875.03 1877.97 2884.78 1909.76C2896.05 1947.26 2996.7 2206.84 3002.5 2259.06C3002.9 2265.19 3001.34 2271.29 2998.05 2276.47C2989.74 2290.24 2979.96 2303.07 2968.87 2314.73C2961.3 2323.14 2952.05 2331.55 2942.3 2339.96C2941.48 2341.16 2940.99 2342.55 2940.87 2343.99C2940.87 2352.4 2962.06 2355.01 2974.5 2351.39C2990.02 2345.91 3003.39 2335.64 3012.68 2322.05C3019.83 2312.54 3035.89 2294.3 3046.31 2280.59C3049.79 2276.36 3052.76 2271.73 3055.14 2266.8C3057.93 2260.64 3058.41 2253.69 3056.49 2247.21L3055.82 2245.1C3050.36 2228.08 3046.97 2210.46 3045.73 2192.63C3041.86 2135.37 3032.02 2003.1 3022.94 1967.86C3016.63 1942.19 3007.05 1917.43 2994.43 1894.2L3026.3 1646.22C3026.3 1646.22 3029.66 1864.85 3039.59 1920.61C3047.41 1965.26 3050.43 2021.09 3059.6 2097.7C3068.01 2171.02 3077.76 2300.18 3077.76 2300.18C3078.01 2300.23 3078.27 2300.23 3078.52 2300.18V2361.9H3130.74V2326.08C3130.74 2309.91 3132.09 2293.76 3134.78 2277.81C3143.18 2229.04 3160.67 2117.46 3164.29 2079.7C3170.01 2019.83 3148.4 1944.57 3148.4 1944.57C3148.4 1944.57 3157.4 1858.21 3164.37 1784.38Z" fill="#FFA8A7"/>
<path d="M3065.99 1132.19C3065.99 1132.19 3141.08 1140.6 3150.08 1144.89C3079.61 1194.42 3136.71 1304.66 3136.71 1304.66L3109.72 1389.33C3139.74 1427.76 3165.64 1450.63 3181.7 1492.76C3199.52 1539.85 3215.33 1609.9 3211.13 1753.44C3143.86 1803.89 2939.19 1798.42 2859.47 1753.44C2859.47 1753.44 2872.92 1626.72 2888.82 1528.25C2899.33 1463.25 2924.13 1392.44 2919.93 1368.48C2888.31 1271.27 2886.29 1253.78 2892.01 1232.09C2907.74 1171.04 2969.96 1129.75 2985.27 1129.75L3065.99 1132.19Z" fill="#90CAF9"/>
<path opacity="0.6" d="M3065.99 1132.19C3065.99 1132.19 3141.08 1140.6 3150.08 1144.89C3079.61 1194.42 3136.71 1304.66 3136.71 1304.66L3109.72 1389.33C3139.74 1427.76 3165.64 1450.63 3181.7 1492.76C3199.52 1539.85 3215.33 1609.9 3211.13 1753.44C3143.86 1803.89 2939.19 1798.42 2859.47 1753.44C2859.47 1753.44 2872.92 1626.72 2888.82 1528.25C2899.33 1463.25 2924.13 1392.44 2919.93 1368.48C2888.31 1271.27 2886.29 1253.78 2892.01 1232.09C2907.74 1171.04 2969.96 1129.75 2985.27 1129.75L3065.99 1132.19Z" fill="white"/>
<path d="M3078.02 2335.75V2328.27C3071.46 2353.41 3058.34 2376.36 3040.01 2394.78C3023.19 2410 3000.49 2427.66 2994.6 2444.73C2988.71 2461.8 3021.59 2469.45 3043.29 2467.27C3064.31 2464.7 3083.68 2454.56 3097.78 2438.76C3111.57 2422.95 3111.32 2412.19 3117.71 2403.44C3124.1 2394.7 3138.98 2385.11 3142.43 2375.02C3143.5 2365.61 3142.47 2356.07 3139.4 2347.1C3136.96 2337.77 3134.27 2327.43 3130.99 2328.27V2334.07C3123.43 2340.02 3114.05 2343.2 3104.42 2343.07C3097.1 2343.24 3077.93 2341.64 3078.02 2335.75Z" fill="#37474F"/>
<path d="M3130.74 2333.9C3123.17 2339.86 3113.79 2343.03 3104.17 2342.9C3096.43 2342.9 3077.6 2341.64 3077.68 2335.75V2328.27C3071.12 2353.41 3058 2376.37 3039.67 2394.78L3026.97 2406.13C3018.06 2416.06 3020.58 2424.72 3041.52 2426.48C3062.46 2428.25 3080.87 2415.64 3096.68 2396.21C3110.16 2376.68 3121.58 2355.8 3130.74 2333.9Z" fill="#FFA8A7"/>
<path d="M2936.33 902.628C2922.87 910.616 2906.22 944.672 2907.82 1015.47C2909.25 1075.68 2928.76 1090.57 2938.6 1094.85C2948.44 1099.14 2967.27 1096.54 2985.6 1093.51V1129.58C2985.6 1129.58 2960.38 1159.1 2961.81 1175.66C2963.23 1192.23 2998.47 1196.1 3022.27 1179.95C3039.45 1166.63 3054.23 1150.48 3065.99 1132.19L3065.57 1049.19C3065.57 1049.19 3076.42 1059.62 3094.75 1043.64C3109.89 1030.44 3114.93 1008.07 3103.16 996.134C3100.1 993.26 3096.4 991.159 3092.37 990.005C3088.33 988.852 3084.08 988.679 3079.97 989.502C3075.85 990.325 3072 992.119 3068.72 994.735C3065.44 997.352 3062.83 1000.71 3061.11 1004.54C3061.11 1004.54 3050.94 976.205 3008.64 962.499C2970.47 949.801 2949.7 935.422 2936.33 902.628Z" fill="#FFA8A7"/>
<path d="M2975.09 1000.42C2975.09 1001.9 2975.53 1003.35 2976.35 1004.59C2977.16 1005.83 2978.33 1006.8 2979.69 1007.38C2981.05 1007.96 2982.56 1008.13 2984.02 1007.86C2985.47 1007.59 2986.82 1006.91 2987.89 1005.88C2988.96 1004.86 2989.71 1003.54 2990.04 1002.09C2990.37 1000.65 2990.26 999.139 2989.74 997.752C2989.22 996.365 2988.3 995.161 2987.1 994.29C2985.9 993.42 2984.48 992.921 2983 992.855C2981.98 992.832 2980.97 993.01 2980.02 993.379C2979.07 993.747 2978.21 994.298 2977.48 995.001C2976.74 995.704 2976.15 996.544 2975.74 997.475C2975.33 998.405 2975.11 999.407 2975.09 1000.42Z" fill="#37474F"/>
<path d="M2973.07 1051.38L2955.5 1057.01C2955.81 1058.19 2956.35 1059.29 2957.09 1060.24C2957.84 1061.2 2958.77 1062 2959.83 1062.59C2960.89 1063.18 2962.06 1063.55 2963.27 1063.67C2964.47 1063.8 2965.69 1063.68 2966.85 1063.32C2969.22 1062.51 2971.19 1060.82 2972.35 1058.6C2973.51 1056.37 2973.77 1053.79 2973.07 1051.38Z" fill="#F28F8F"/>
<path d="M2913.03 977.13L2928.34 966.535C2927.69 965.5 2926.84 964.608 2925.84 963.912C2924.84 963.217 2923.7 962.732 2922.51 962.488C2921.31 962.244 2920.08 962.246 2918.88 962.494C2917.69 962.741 2916.56 963.229 2915.56 963.928C2913.51 965.372 2912.1 967.556 2911.63 970.019C2911.16 972.482 2911.66 975.032 2913.03 977.13Z" fill="#37474F"/>
<path d="M2997.12 982.848L2981.73 972.253C2982.38 971.221 2983.23 970.33 2984.23 969.633C2985.23 968.936 2986.36 968.447 2987.55 968.196C2988.75 967.945 2989.98 967.936 2991.17 968.171C2992.37 968.406 2993.51 968.879 2994.52 969.562C2996.55 971.035 2997.95 973.226 2998.44 975.691C2998.92 978.157 2998.45 980.715 2997.12 982.848Z" fill="#37474F"/>
<path d="M2916.57 994.873C2916.55 996.358 2916.97 997.816 2917.78 999.063C2918.59 1000.31 2919.74 1001.29 2921.11 1001.89C2922.47 1002.48 2923.97 1002.66 2925.44 1002.4C2926.9 1002.15 2928.26 1001.47 2929.34 1000.44C2930.41 999.424 2931.17 998.107 2931.51 996.66C2931.84 995.212 2931.74 993.698 2931.22 992.306C2930.71 990.914 2929.79 989.705 2928.59 988.831C2927.39 987.957 2925.95 987.455 2924.47 987.389C2922.43 987.344 2920.46 988.104 2918.98 989.505C2917.5 990.907 2916.63 992.836 2916.57 994.873Z" fill="#37474F"/>
<path d="M2952.22 990.584L2951.04 1036.16L2927.08 1028.76L2952.22 990.584Z" fill="#F28F8F"/>
<path d="M2985.6 1093.51C3004.94 1090.9 3044.46 1079.47 3051.02 1063.74C3048.53 1071.71 3043.66 1078.72 3037.06 1083.84C3025.12 1094.01 2985.6 1105.53 2985.6 1105.53V1093.51Z" fill="#F28F8F"/>
<path d="M3122.75 1343.17L3069.69 1414.98L3109.72 1389.33L3122.75 1343.17Z" fill="#90CAF9"/>
<path d="M2704.75 1533.97C2693.39 1548.6 2686.41 1577.02 2680.44 1586.61C2674.47 1596.19 2667.33 1604.52 2680.44 1606.28C2693.56 1608.05 2712.73 1582.4 2719.88 1566.84C2723.5 1558.07 2730.33 1551.01 2738.97 1547.08C2732.83 1544.98 2736.03 1520.34 2731.74 1516.9C2731.74 1516.9 2709.37 1526.06 2704.75 1533.97Z" fill="#F28F8F"/>
<path d="M2701.38 1644.96C2713.24 1636.13 2713.66 1625.29 2715.93 1608.05C2718.2 1590.81 2765.71 1572.14 2767.22 1585.01C2768.74 1597.87 2773.03 1608.64 2758.81 1624.28C2744.6 1639.92 2723.08 1656.57 2701.38 1644.96Z" fill="#F28F8F"/>
<path d="M3065.99 1132.19C3065.99 1132.19 3136.29 1138.33 3150.08 1144.89C3163.87 1151.45 3186.83 1191.14 3166.31 1248.74C3145.79 1306.34 3127.12 1374.11 3129.23 1387.74C3131.33 1401.36 3180.35 1471.82 3180.35 1471.82C3166.83 1481.81 3151.53 1489.14 3135.28 1493.44L3110.05 1438.61L3115.94 1496.88C3090.6 1503.04 3064.57 1505.87 3038.49 1505.29C3038.49 1505.29 3014.7 1281.45 3065.99 1132.19Z" fill="#90CAF9"/>
<path d="M3239.21 1406.74C3244.85 1373.61 3239.21 1362.76 3227.61 1330.3L3168.75 1368.39C3173.57 1380.65 3176.41 1393.59 3177.16 1406.74C3176.65 1416.33 3163.62 1511.35 3151.43 1544.48C3149.23 1550.37 3144.91 1555.23 3139.32 1558.1C3127.19 1565.5 3116.2 1574.62 3106.69 1585.18C3097.69 1593.58 3090.46 1595.1 3091.39 1597.96C3092.78 1601.06 3095.26 1603.53 3098.36 1604.92C3101.47 1606.3 3104.97 1606.48 3108.2 1605.44C3115.53 1603.06 3122.55 1599.85 3129.14 1595.85C3123.3 1608.22 3115.52 1619.58 3106.1 1629.49C3084.49 1652.53 3082.56 1667.5 3122.92 1670.61C3148.15 1672.54 3169.25 1658.42 3192.04 1604.18C3199.1 1584.3 3204.92 1563.99 3209.45 1543.38C3221.72 1496.38 3233.66 1440.12 3239.21 1406.74Z" fill="#FFA8A7"/>
<path d="M3150.08 1144.89C3178.42 1157.58 3186.49 1182.64 3197 1219.47C3207.51 1256.3 3240.48 1366.8 3240.48 1366.8C3240.48 1366.8 3212.22 1400.43 3173.2 1391.01L3122.75 1268.5C3122.75 1268.5 3099.21 1188.53 3150.08 1144.89Z" fill="#90CAF9"/>
</svg>
