<svg width="5371" height="3529" viewBox="0 0 5371 3529" fill="none" xmlns="http://www.w3.org/2000/svg">
<g clip-path="url(#clip0_2108_1067)">
<rect width="5371" height="3529" fill="#EAF0FF"/>
<g filter="url(#filter0_f_2108_1067)">
<ellipse cx="3708" cy="2385" rx="2062" ry="1577" fill="url(#paint0_linear_2108_1067)" fill-opacity="0.5"/>
</g>
<rect y="589" width="2099" height="6141" fill="url(#paint1_linear_2108_1067)"/>
</g>
<path d="M4039.03 3062.71C3291.17 3492.33 2078.71 3492.33 1330.86 3062.71C583.005 2633.09 583.09 1936.65 1330.86 1507.12C2078.63 1077.59 3291.26 1077.59 4039.03 1507.12C4786.79 1936.65 4786.88 2633.18 4039.03 3062.71Z" fill="#FAFAFA"/>
<path d="M2903.39 2284.92C2746.24 2194.24 2491.48 2194.24 2334.33 2284.92C2201.13 2361.91 2180.94 2479.19 2273.5 2568.51C2268.27 2569.87 2263.24 2571.91 2258.53 2574.58L1762.36 2861.16C1741.31 2873.31 1741.31 2893.07 1762.36 2905.22L1793.5 2923.18C1805.18 2929.13 1818.18 2932.04 1831.28 2931.67C1844.39 2931.3 1857.19 2927.64 1868.52 2921.05L2330.48 2618.46C2332.37 2617.23 2334.14 2615.82 2335.78 2614.27C2493.02 2704.18 2746.41 2703.93 2903.3 2613.5C3060.19 2523.08 3060.96 2375.68 2903.39 2284.92Z" fill="#E6E6E6"/>
<path d="M4007.97 1954.96L3375.61 2320.85C3367.72 2324.85 3359 2326.94 3350.16 2326.94C3341.31 2326.94 3332.59 2324.85 3324.71 2320.85L2224.66 1685.66C2210.63 1677.62 2210.63 1664.44 2224.66 1656.32L2857.02 1290.43C2864.91 1286.43 2873.63 1284.34 2882.47 1284.34C2891.32 1284.34 2900.03 1286.43 2907.92 1290.43L4007.97 1925.62C4022 1933.66 4022 1946.83 4007.97 1954.96Z" fill="#E6E6E6"/>
<path d="M1192.01 2646.95L1022.89 2549.26C1002.44 2537.45 1002.44 2518.29 1022.89 2506.48L2199.76 1826.98C2211.24 1821.16 2223.93 1818.12 2236.8 1818.12C2249.68 1818.12 2262.37 1821.16 2273.84 1826.98L2443.06 1924.68C2463.5 1936.48 2463.5 1955.65 2443.06 1967.45L1266.1 2646.95C1254.62 2652.78 1241.93 2655.81 1229.06 2655.81C1216.18 2655.81 1203.49 2652.78 1192.01 2646.95Z" fill="#E6E6E6"/>
<path d="M4009.68 2841.14C4182.27 2841.14 4322.19 2764.7 4322.19 2670.39C4322.19 2576.09 4182.27 2499.64 4009.68 2499.64C3837.09 2499.64 3697.18 2576.09 3697.18 2670.39C3697.18 2764.7 3837.09 2841.14 4009.68 2841.14Z" fill="#E6E6E6"/>
<path d="M4146.47 2500.84C4149.47 2462.94 4183.17 2386.72 4226.46 2340.69C4269.75 2294.67 4334.34 2263.7 4377.02 2282.26C4416.8 2299.37 4408.08 2352.84 4355.55 2384.32C4303.02 2415.8 4225.01 2454.56 4198.23 2514.18L4146.47 2585.87V2500.84Z" fill="#90CAF9"/>
<path opacity="0.1" d="M4146.47 2500.84C4149.47 2462.94 4183.17 2386.72 4226.46 2340.69C4269.75 2294.67 4334.34 2263.7 4377.02 2282.26C4416.8 2299.37 4408.08 2352.84 4355.55 2384.32C4303.02 2415.8 4225.01 2454.56 4198.23 2514.18L4146.47 2585.87V2500.84Z" fill="black"/>
<path d="M4139.46 2552.42C4140.08 2552.43 4140.68 2552.23 4141.17 2551.86C4141.67 2551.49 4142.03 2550.96 4142.2 2550.37C4177.96 2423.16 4290.96 2326.49 4355.38 2308.36C4356.02 2308.09 4356.53 2307.6 4356.83 2306.97C4357.13 2306.35 4357.19 2305.64 4357 2304.98C4356.81 2304.32 4356.38 2303.75 4355.8 2303.37C4355.22 2303 4354.52 2302.86 4353.84 2302.97C4288.23 2321.53 4173.08 2419.74 4136.81 2548.92C4136.7 2549.27 4136.67 2549.64 4136.72 2550.01C4136.76 2550.37 4136.88 2550.73 4137.06 2551.05C4137.25 2551.36 4137.49 2551.64 4137.79 2551.87C4138.08 2552.09 4138.42 2552.25 4138.77 2552.34L4139.46 2552.42Z" fill="white"/>
<path d="M4152.12 2636.34C4159.9 2615.56 4188.73 2582.54 4233.13 2556.87C4282.24 2528.55 4342.29 2518.55 4357.86 2494.59C4376.6 2465.93 4353.58 2435.57 4305.25 2437.62C4256.92 2439.67 4167.77 2498.1 4146.47 2595.2L4152.12 2636.34Z" fill="#90CAF9"/>
<path d="M4144.68 2613.59C4145.21 2613.6 4145.72 2613.45 4146.17 2613.16C4146.61 2612.87 4146.95 2612.45 4147.16 2611.96C4195.75 2504.43 4283.35 2472.35 4322.87 2470.38C4323.6 2470.38 4324.29 2470.09 4324.81 2469.58C4325.32 2469.07 4325.61 2468.37 4325.61 2467.65C4325.61 2466.92 4325.32 2466.22 4324.81 2465.71C4324.29 2465.2 4323.6 2464.91 4322.87 2464.91C4279.16 2467.05 4191.98 2499.9 4142.37 2609.65C4142.21 2609.99 4142.13 2610.35 4142.12 2610.72C4142.11 2611.09 4142.17 2611.46 4142.31 2611.8C4142.44 2612.15 4142.65 2612.46 4142.91 2612.72C4143.17 2612.99 4143.48 2613.19 4143.82 2613.33C4144.09 2613.47 4144.38 2613.56 4144.68 2613.59Z" fill="white"/>
<path d="M1036.83 2289.62C1036.83 2289.62 1028.28 2211 988.755 2149.92C949.232 2088.84 895.851 2050.86 845.72 2046.84C795.589 2042.82 755.126 2089.01 808.764 2120.75C862.402 2152.49 957.701 2184.74 1001.59 2303.22L1036.83 2289.62Z" fill="#90CAF9"/>
<path opacity="0.1" d="M1036.83 2289.62C1036.83 2289.62 1028.28 2211 988.755 2149.92C949.232 2088.84 895.851 2050.86 845.72 2046.84C795.589 2042.82 755.126 2089.01 808.764 2120.75C862.402 2152.49 957.701 2184.74 1001.59 2303.22L1036.83 2289.62Z" fill="black"/>
<path d="M1022.12 2269.18H1022.63C1022.96 2269.04 1023.26 2268.85 1023.51 2268.6C1023.76 2268.35 1023.96 2268.06 1024.1 2267.73C1024.23 2267.4 1024.3 2267.05 1024.3 2266.7C1024.3 2266.34 1024.23 2265.99 1024.09 2265.67C971.218 2135.29 870.101 2080.89 824.59 2070.28C823.923 2070.21 823.254 2070.39 822.709 2070.78C822.164 2071.17 821.781 2071.74 821.633 2072.4C821.485 2073.05 821.583 2073.74 821.907 2074.32C822.232 2074.91 822.76 2075.36 823.392 2075.58C868.305 2085.85 967.026 2139.4 1019.12 2267.64C1019.38 2268.19 1019.81 2268.64 1020.36 2268.92C1020.9 2269.2 1021.52 2269.29 1022.12 2269.18Z" fill="white"/>
<path d="M781.56 2268.49C786.436 2279.44 798.669 2285.09 809.362 2289.54C820.917 2292.66 831.113 2299.52 838.363 2309.04C850.425 2329.83 830.664 2359.09 843.581 2379.28C846.611 2383.37 850.456 2386.79 854.873 2389.32C859.29 2391.85 864.184 2393.44 869.245 2393.99C877.527 2395.19 885.864 2395.96 894.225 2396.3C898.203 2396.2 902.173 2395.89 906.116 2395.36C917.616 2392.77 929.648 2394.07 940.335 2399.04C956.846 2408.28 961.893 2429.15 971.902 2445.23C978.125 2454.72 986.323 2462.74 995.934 2468.77C1005.55 2474.79 1016.35 2478.67 1027.59 2480.14C1037.17 2482.07 1047.09 2481.42 1056.34 2478.25L1057.96 2477.23C1059 2476.12 1059.98 2474.95 1060.87 2473.72V2473.21C1063.78 2462.43 1058.99 2451.22 1058.82 2440.1V2438.05C1058.82 2425.13 1059.67 2412.38 1059.93 2399.38C1060.5 2375.6 1060.73 2351.81 1060.61 2328.03C1060.61 2312.63 1062.33 2295.7 1055.82 2281.15C1048.55 2265.16 1030.59 2264.81 1023.83 2249.07C1021.09 2242.83 1019.64 2236.15 1016.99 2229.82C1012.91 2220.56 1006.36 2212.6 998.066 2206.8C989.768 2201.01 980.036 2197.61 969.935 2196.97C938.453 2195.35 910.051 2220.76 878.912 2218.45C870.826 2217.36 862.802 2215.84 854.874 2213.91C829.209 2209.12 800.038 2216.39 785.751 2237.87C782.6 2242.24 780.57 2247.32 779.839 2252.66C779.109 2258 779.699 2263.43 781.56 2268.49Z" fill="#90CAF9"/>
<path d="M1063.78 2423.85C1064.12 2423.77 1064.45 2423.62 1064.73 2423.41C1065.01 2423.2 1065.25 2422.93 1065.43 2422.63C1065.6 2422.32 1065.72 2421.99 1065.76 2421.64C1065.8 2421.29 1065.76 2420.93 1065.66 2420.59C1022.46 2257.71 850.938 2234.27 811.073 2237.1C810.725 2237.12 810.384 2237.21 810.07 2237.36C809.757 2237.52 809.477 2237.73 809.246 2237.99C809.016 2238.25 808.839 2238.56 808.727 2238.89C808.615 2239.22 808.569 2239.57 808.592 2239.92C808.544 2240.28 808.572 2240.64 808.674 2240.99C808.775 2241.33 808.949 2241.65 809.183 2241.93C809.417 2242.2 809.707 2242.42 810.032 2242.58C810.358 2242.73 810.713 2242.82 811.073 2242.83C850.339 2240 1018.18 2263.02 1060.61 2422.48C1060.89 2423.04 1061.36 2423.49 1061.94 2423.75C1062.52 2424 1063.18 2424.03 1063.78 2423.85Z" fill="white"/>
<path d="M873.18 2341.38C873.732 2341.28 874.24 2341.01 874.634 2340.61C890.471 2326.89 909.139 2316.83 929.309 2311.15C949.478 2305.47 970.652 2304.31 991.321 2307.76C992.031 2307.83 992.744 2307.64 993.315 2307.21C993.887 2306.78 994.275 2306.15 994.401 2305.45C994.449 2305.1 994.427 2304.74 994.336 2304.4C994.245 2304.06 994.088 2303.75 993.873 2303.47C993.658 2303.19 993.39 2302.96 993.084 2302.78C992.778 2302.61 992.44 2302.5 992.091 2302.45C970.607 2298.93 948.61 2300.19 927.671 2306.15C906.731 2312.11 887.366 2322.62 870.956 2336.93C870.708 2337.18 870.511 2337.47 870.376 2337.79C870.242 2338.12 870.172 2338.46 870.172 2338.81C870.172 2339.16 870.242 2339.51 870.376 2339.83C870.511 2340.15 870.708 2340.45 870.956 2340.69C871.257 2340.96 871.611 2341.16 871.994 2341.28C872.378 2341.39 872.782 2341.43 873.18 2341.38Z" fill="white"/>
<path d="M3984.87 1836.48L3373.9 2190.04C3366.27 2193.88 3357.84 2195.88 3349.3 2195.88C3340.76 2195.88 3332.34 2193.88 3324.71 2190.04L2261.36 1576.24C2247.75 1568.46 2247.75 1555.71 2261.36 1547.93L2872.76 1194.28C2880.38 1190.44 2888.79 1188.44 2897.31 1188.44C2905.84 1188.44 2914.25 1190.44 2921.86 1194.28L3984.87 1808.08C3998.05 1815.95 3998.05 1828.61 3984.87 1836.48Z" fill="#37474F"/>
<path d="M3658 1998.59C3647.4 2003.98 3635.67 2006.79 3623.78 2006.79C3611.89 2006.79 3600.16 2003.98 3589.56 1998.59C3570.74 1987.73 3570.74 1970.1 3589.56 1959.24C3600.15 1953.81 3611.88 1950.98 3623.78 1950.98C3635.68 1950.98 3647.41 1953.81 3658 1959.24C3676.9 1970.1 3676.9 1987.73 3658 1998.59Z" fill="#263238"/>
<path d="M3373.47 2190.04L3984.87 1836.48C3997.02 1829.46 3998.31 1818.51 3988.72 1810.81C3994.8 1815.62 3999.79 1821.66 4003.38 1828.53C4006.96 1835.4 4009.05 1842.94 4009.51 1850.68V1873.78C4009.08 1882.35 4006.61 1890.69 4002.33 1898.12C3998.05 1905.56 3992.07 1911.87 3984.87 1916.55L3373.9 2270.12C3366.35 2274.14 3357.9 2276.17 3349.34 2276.02V2196.2C3357.77 2196.2 3366.07 2194.08 3373.47 2190.04Z" fill="#455A64"/>
<path d="M2261.35 1656.14C2254.18 1651.46 2248.21 1645.14 2243.95 1637.7C2239.68 1630.27 2237.23 1621.93 2236.8 1613.37V1590.27C2237.25 1582.52 2239.34 1574.96 2242.92 1568.07C2246.5 1561.19 2251.5 1555.14 2257.59 1550.32C2248.01 1558.19 2249.04 1569.06 2261.35 1575.99L3324.28 2189.79C3331.86 2193.82 3340.34 2195.85 3348.92 2195.69V2275.51C3340.34 2275.67 3331.86 2273.63 3324.28 2269.6L2261.35 1656.14Z" fill="#263238"/>
<path d="M3271.41 2115.96L3847.74 1782.33C3849.56 1781.75 3851.14 1780.6 3852.26 1779.07C3853.38 1777.53 3853.99 1775.68 3853.99 1773.77C3853.99 1771.87 3853.38 1770.01 3852.26 1768.48C3851.14 1766.94 3849.56 1765.8 3847.74 1765.22L2995.86 1272.47C2991.31 1270.14 2986.26 1268.93 2981.15 1268.93C2976.03 1268.93 2970.99 1270.14 2966.44 1272.47L2389.85 1606.1C2388.03 1606.68 2386.45 1607.82 2385.33 1609.36C2384.21 1610.9 2383.6 1612.75 2383.6 1614.65C2383.6 1616.56 2384.21 1618.41 2385.33 1619.95C2386.45 1621.49 2388.03 1622.63 2389.85 1623.21L3241.9 2115.96C3246.47 2118.28 3251.53 2119.49 3256.65 2119.49C3261.78 2119.49 3266.84 2118.28 3271.41 2115.96Z" fill="#FAFAFA"/>
<path d="M2479.24 1621.24L2754.53 1780.87C2760.28 1783.78 2766.62 1785.3 2773.06 1785.3C2779.49 1785.3 2785.84 1783.78 2791.58 1780.87L3275.77 1501.39C3278.01 1500.63 3279.95 1499.19 3281.32 1497.27C3282.7 1495.36 3283.44 1493.06 3283.44 1490.7C3283.44 1488.34 3282.7 1486.04 3281.32 1484.12C3279.95 1482.2 3278.01 1480.76 3275.77 1480L3000.14 1320.71C2994.4 1317.81 2988.06 1316.29 2981.62 1316.29C2975.18 1316.29 2968.84 1317.81 2963.1 1320.71L2479.24 1599.85C2477.01 1600.61 2475.07 1602.05 2473.69 1603.97C2472.32 1605.89 2471.58 1608.19 2471.58 1610.55C2471.58 1612.91 2472.32 1615.21 2473.69 1617.13C2475.07 1619.04 2477.01 1620.48 2479.24 1621.24Z" fill="#EBEBEB"/>
<path d="M2681.39 1545.19L2752.05 1558.96C2756.47 1559.88 2761.05 1559.47 2765.23 1557.77L2825.11 1532.1C2834.61 1528 2848.12 1532.1 2847.95 1538.86L2847.01 1581.63C2847.01 1584.37 2849.24 1586.94 2853.09 1588.56L2913.99 1613.46C2923.66 1617.39 2921.35 1626.03 2909.97 1628.09L2838.54 1641C2836.67 1641.18 2834.86 1641.76 2833.24 1642.71C2831.61 1643.65 2830.21 1644.94 2829.13 1646.48L2806.98 1687.63C2803.38 1694.13 2788.41 1695.5 2781.31 1689.94L2738.54 1654.78C2735.11 1652.3 2730.95 1651.07 2726.73 1651.27L2652.05 1651.78C2640.16 1651.78 2633.31 1644.08 2640.41 1638.61L2685.07 1604.39C2685.71 1604.03 2686.26 1603.54 2686.71 1602.96C2687.16 1602.38 2687.49 1601.72 2687.68 1601.01C2687.87 1600.3 2687.92 1599.56 2687.82 1598.84C2687.73 1598.11 2687.49 1597.41 2687.12 1596.77L2663.17 1555.97C2659.41 1549.13 2670.1 1542.97 2681.39 1545.19Z" fill="#FAFAFA"/>
<path d="M2838.54 1455.02L2990.13 1367.51C2993.11 1365.76 2996.45 1364.72 2999.89 1364.48C3003.34 1364.24 3006.79 1364.81 3009.98 1366.14C3014.77 1368.96 3013.66 1374.1 3007.58 1377.6L2856.08 1465.12C2853.09 1466.85 2849.75 1467.87 2846.31 1468.11C2842.87 1468.34 2839.43 1467.79 2836.23 1466.49C2831.44 1463.66 2832.55 1458.53 2838.54 1455.02Z" fill="#FAFAFA"/>
<path d="M2876.87 1477.09L3028.37 1389.58C3031.35 1387.83 3034.69 1386.79 3038.13 1386.55C3041.58 1386.31 3045.03 1386.88 3048.22 1388.21C3053.01 1391.03 3051.98 1396.17 3045.82 1399.67L2894.32 1487.19C2891.33 1488.92 2887.99 1489.94 2884.55 1490.18C2881.11 1490.41 2877.67 1489.86 2874.47 1488.56C2869.6 1485.73 2870.71 1480.6 2876.87 1477.09Z" fill="#FAFAFA"/>
<path d="M2915.02 1499.17L3066.53 1411.65C3069.49 1409.88 3072.84 1408.83 3076.29 1408.59C3079.73 1408.36 3083.19 1408.93 3086.37 1410.28C3091.25 1413.1 3090.14 1418.24 3083.98 1421.75L2932.64 1509.26C2929.66 1510.99 2926.32 1512.01 2922.88 1512.25C2919.44 1512.48 2915.99 1511.93 2912.8 1510.63C2907.84 1507.81 2908.86 1502.67 2915.02 1499.17Z" fill="#FAFAFA"/>
<path d="M2953.18 1521.15L3104.76 1433.72C3107.72 1431.95 3111.05 1430.9 3114.48 1430.67C3117.92 1430.43 3121.36 1431.01 3124.53 1432.35C3129.4 1435.09 3128.29 1440.22 3122.22 1443.82L2970.63 1531.25C2967.66 1533.02 2964.32 1534.07 2960.87 1534.3C2957.42 1534.54 2953.96 1533.96 2950.78 1532.61C2945.99 1529.88 2947.1 1524.74 2953.18 1521.15Z" fill="#FAFAFA"/>
<path d="M2991.41 1543.22L3142.92 1455.79C3145.89 1454.02 3149.23 1452.97 3152.68 1452.74C3156.13 1452.5 3159.58 1453.08 3162.77 1454.42C3167.56 1457.16 3166.53 1462.29 3160.37 1465.89L3008.87 1553.32C3005.9 1555.09 3002.56 1556.14 2999.11 1556.37C2995.66 1556.61 2992.2 1556.03 2989.02 1554.69C2983.97 1551.95 2985.26 1546.82 2991.41 1543.22Z" fill="#FAFAFA"/>
<path d="M3029.57 1565.29L3180.73 1477.86C3183.7 1476.09 3187.04 1475.04 3190.49 1474.81C3193.94 1474.57 3197.4 1475.15 3200.58 1476.5C3205.37 1479.23 3204.34 1484.37 3198.18 1487.96L3047.02 1575.56C3044.05 1577.33 3040.71 1578.38 3037.26 1578.62C3033.81 1578.85 3030.36 1578.28 3027.17 1576.93C3022.38 1574.02 3023.41 1568.89 3029.57 1565.29Z" fill="#FAFAFA"/>
<path d="M2818.95 1817.66L2831.44 1824.93C2834.89 1826.66 2838.7 1827.56 2842.56 1827.56C2846.42 1827.56 2850.23 1826.66 2853.68 1824.93L3144.54 1657.17C3150.7 1653.58 3150.7 1647.85 3144.54 1644.34L3131.97 1637.07C3128.52 1635.34 3124.71 1634.44 3120.85 1634.44C3116.99 1634.44 3113.18 1635.34 3109.73 1637.07L2818.87 1804.83C2817.52 1805.28 2816.35 1806.15 2815.53 1807.31C2814.7 1808.46 2814.26 1809.85 2814.27 1811.27C2814.28 1812.69 2814.74 1814.08 2815.58 1815.22C2816.42 1816.37 2817.6 1817.22 2818.95 1817.66Z" fill="#E0E0E0"/>
<path d="M3340.19 1516.7L3352.68 1523.97C3358.84 1527.48 3358.84 1533.21 3352.68 1536.81L3235.91 1604.22C3232.46 1605.95 3228.65 1606.85 3224.79 1606.85C3220.93 1606.85 3217.12 1605.95 3213.67 1604.22L3201.18 1596.95C3195.02 1593.44 3195.02 1587.71 3201.18 1584.11L3317.61 1516.7C3321.1 1514.92 3324.97 1513.98 3328.9 1513.98C3332.82 1513.98 3336.69 1514.92 3340.19 1516.7Z" fill="#E0E0E0"/>
<path d="M2896.2 1862.06L3172.18 2021.26C3177.92 2024.17 3184.26 2025.68 3190.7 2025.68C3197.13 2025.68 3203.48 2024.17 3209.22 2021.26L3693.42 1741.78C3695.65 1741.02 3697.59 1739.58 3698.97 1737.66C3700.34 1735.74 3701.08 1733.44 3701.08 1731.08C3701.08 1728.72 3700.34 1726.42 3698.97 1724.51C3697.59 1722.59 3695.65 1721.15 3693.42 1720.39L3417.78 1561.1C3412.04 1558.19 3405.7 1556.68 3399.26 1556.68C3392.83 1556.68 3386.48 1558.19 3380.74 1561.1L2896.2 1840.76C2894 1841.53 2892.09 1842.97 2890.74 1844.88C2889.39 1846.79 2888.66 1849.07 2888.66 1851.41C2888.66 1853.74 2889.39 1856.02 2890.74 1857.93C2892.09 1859.84 2894 1861.28 2896.2 1862.06Z" fill="#EBEBEB"/>
<path d="M3098.61 1785.92L3169.35 1799.78C3173.77 1800.69 3178.35 1800.28 3182.53 1798.58L3242.41 1772.92C3251.99 1768.81 3265.51 1772.92 3265.34 1779.59L3264.4 1822.36C3264.4 1825.1 3266.53 1827.67 3270.38 1829.21L3331.38 1854.1C3341.05 1858.12 3338.65 1866.76 3327.36 1868.82L3256.01 1881.56C3254.15 1881.76 3252.35 1882.35 3250.72 1883.3C3249.1 1884.24 3247.7 1885.51 3246.6 1887.04L3224.45 1928.18C3220.94 1934.69 3205.97 1936.06 3198.78 1930.49L3156.01 1895.33C3152.55 1892.86 3148.36 1891.63 3144.12 1891.83L3069.43 1892.34C3057.63 1892.34 3050.7 1884.64 3057.8 1879.17L3102.46 1844.95C3103.72 1844.2 3104.65 1842.99 3105.05 1841.57C3105.45 1840.15 3105.28 1838.63 3104.59 1837.33L3080.56 1796.53C3076.71 1789.94 3087.4 1783.78 3098.61 1785.92Z" fill="#FAFAFA"/>
<path d="M3255.93 1695.84L3407.43 1608.32C3410.41 1606.57 3413.75 1605.53 3417.19 1605.3C3420.64 1605.06 3424.09 1605.63 3427.28 1606.95C3432.15 1609.78 3431.04 1614.91 3424.88 1618.42L3273.38 1705.93C3270.39 1707.66 3267.05 1708.68 3263.61 1708.92C3260.17 1709.16 3256.72 1708.6 3253.53 1707.3C3249.17 1704.48 3249.77 1699.35 3255.93 1695.84Z" fill="#FAFAFA"/>
<path d="M3294.08 1717.91L3445.93 1630.39C3448.9 1628.64 3452.24 1627.61 3455.69 1627.37C3459.13 1627.13 3462.59 1627.7 3465.77 1629.03C3470.57 1631.85 3469.45 1636.98 3463.38 1640.49L3311.79 1728C3308.83 1729.78 3305.49 1730.84 3302.05 1731.11C3298.6 1731.38 3295.14 1730.84 3291.94 1729.54C3286.9 1726.55 3288.01 1721.42 3294.08 1717.91Z" fill="#FAFAFA"/>
<path d="M3332.32 1739.9L3483.82 1652.55C3486.79 1650.78 3490.14 1649.73 3493.58 1649.49C3497.03 1649.26 3500.49 1649.83 3503.67 1651.18C3508.46 1653.92 3507.44 1659.05 3501.28 1662.65L3349.77 1750.08C3346.79 1751.8 3343.45 1752.83 3340.01 1753.06C3336.57 1753.3 3333.12 1752.75 3329.93 1751.44C3325.05 1748.62 3326.16 1743.49 3332.32 1739.9Z" fill="#FAFAFA"/>
<path d="M3370.47 1761.97L3521.98 1674.54C3524.95 1672.77 3528.29 1671.72 3531.74 1671.48C3535.19 1671.24 3538.64 1671.82 3541.83 1673.17C3546.7 1675.91 3545.59 1681.04 3539.43 1684.63L3387.93 1772.32C3384.96 1774.09 3381.61 1775.14 3378.17 1775.38C3374.72 1775.61 3371.26 1775.03 3368.08 1773.69C3363.29 1770.69 3364.32 1765.56 3370.47 1761.97Z" fill="#FAFAFA"/>
<path d="M3408.63 1784.04L3560.22 1696.61C3563.17 1694.84 3566.5 1693.79 3569.93 1693.55C3573.37 1693.31 3576.81 1693.89 3579.98 1695.24C3584.86 1697.98 3583.74 1703.11 3577.67 1706.7L3426.08 1794.13C3423.11 1795.9 3419.77 1796.95 3416.32 1797.19C3412.87 1797.43 3409.42 1796.85 3406.23 1795.5C3401.44 1792.76 3402.55 1787.63 3408.63 1784.04Z" fill="#FAFAFA"/>
<path d="M3446.87 1806.54L3598.37 1719.11C3601.34 1717.34 3604.68 1716.29 3608.13 1716.05C3611.58 1715.81 3615.04 1716.39 3618.22 1717.74C3623.01 1720.48 3621.98 1725.61 3615.82 1729.2L3464.32 1816.63C3461.35 1818.4 3458.01 1819.45 3454.56 1819.69C3451.11 1819.93 3447.66 1819.35 3444.47 1818C3439.6 1815.09 3440.71 1809.7 3446.87 1806.54Z" fill="#FAFAFA"/>
<path d="M3236.17 2058.47L3248.74 2065.74C3252.19 2067.48 3256 2068.38 3259.86 2068.38C3263.72 2068.38 3267.53 2067.48 3270.98 2065.74L3561.84 1897.99C3563.19 1897.54 3564.37 1896.68 3565.2 1895.53C3566.03 1894.38 3566.48 1892.99 3566.48 1891.57C3566.48 1890.15 3566.03 1888.76 3565.2 1887.61C3564.37 1886.46 3563.19 1885.6 3561.84 1885.15L3549.27 1877.88C3545.82 1876.15 3542.01 1875.25 3538.15 1875.25C3534.29 1875.25 3530.48 1876.15 3527.03 1877.88L3236.17 2045.64C3234.82 2046.09 3233.64 2046.95 3232.81 2048.1C3231.98 2049.25 3231.53 2050.64 3231.53 2052.06C3231.53 2053.48 3231.98 2054.86 3232.81 2056.01C3233.64 2057.17 3234.82 2058.03 3236.17 2058.47Z" fill="#E0E0E0"/>
<path d="M3757.4 1757.52L3769.98 1764.79C3776.14 1768.3 3776.14 1774.03 3769.98 1777.62L3653.21 1845.03C3649.76 1846.76 3645.95 1847.67 3642.09 1847.67C3638.23 1847.67 3634.42 1846.76 3630.97 1845.03L3618.39 1837.76C3617.04 1837.31 3615.87 1836.45 3615.04 1835.3C3614.2 1834.15 3613.76 1832.77 3613.76 1831.35C3613.76 1829.92 3614.2 1828.54 3615.04 1827.39C3615.87 1826.24 3617.04 1825.38 3618.39 1824.93L3735.25 1757.52C3738.68 1755.79 3742.48 1754.89 3746.33 1754.89C3750.17 1754.89 3753.97 1755.79 3757.4 1757.52Z" fill="#E0E0E0"/>
<path d="M2618.51 1397.54C2616.17 1398.68 2613.6 1399.28 2610.99 1399.28C2608.38 1399.28 2605.8 1398.68 2603.46 1397.54C2602.57 1397.22 2601.81 1396.65 2601.26 1395.88C2600.72 1395.11 2600.43 1394.2 2600.43 1393.26C2600.43 1392.32 2600.72 1391.4 2601.26 1390.64C2601.81 1389.87 2602.57 1389.29 2603.46 1388.98C2605.8 1387.83 2608.38 1387.24 2610.99 1387.24C2613.6 1387.24 2616.17 1387.83 2618.51 1388.98C2622.71 1391.29 2622.71 1395.14 2618.51 1397.54Z" fill="#263238"/>
<path d="M2594.48 1465.89C2589.81 1468.25 2584.65 1469.48 2579.42 1469.48C2574.19 1469.48 2569.03 1468.25 2564.36 1465.89C2562.66 1465.19 2561.21 1464.01 2560.18 1462.49C2559.16 1460.96 2558.61 1459.17 2558.61 1457.33C2558.61 1455.5 2559.16 1453.7 2560.18 1452.18C2561.21 1450.66 2562.66 1449.47 2564.36 1448.78C2569.03 1446.42 2574.19 1445.19 2579.42 1445.19C2584.65 1445.19 2589.81 1446.42 2594.48 1448.78C2596.18 1449.47 2597.63 1450.66 2598.65 1452.18C2599.68 1453.7 2600.23 1455.5 2600.23 1457.33C2600.23 1459.17 2599.68 1460.96 2598.65 1462.49C2597.63 1464.01 2596.18 1465.19 2594.48 1465.89Z" fill="#263238"/>
<path d="M2616.12 1435.6C2610.56 1432.35 2610.9 1427.05 2616.8 1423.63L2715.87 1366.4C2719.09 1364.75 2722.65 1363.89 2726.26 1363.89C2729.88 1363.89 2733.44 1364.75 2736.66 1366.4C2742.13 1369.56 2741.87 1374.95 2735.97 1378.37L2636.91 1435.52C2633.69 1437.16 2630.13 1438.02 2626.52 1438.03C2622.91 1438.05 2619.35 1437.22 2616.12 1435.6Z" fill="#263238"/>
<path d="M2375.82 598.696V618.799L2306.35 658.921L2202.16 718.804L1282.35 1250.48C1276.9 1253.9 1272.4 1258.64 1269.26 1264.25C1265.88 1269.78 1264 1276.09 1263.79 1282.56V2505.03C1263.79 2571.5 1217.08 2598.45 1159.59 2564.91C1102.1 2531.38 1055.31 2450.88 1055.31 2384.41V1161.85C1055.67 1155.42 1057.53 1149.17 1060.76 1143.59C1063.98 1138.02 1068.48 1133.29 1073.87 1129.77L2097.79 538.556L2196.94 481.41C2200.25 486.986 2202.08 493.319 2202.24 499.803V518.452L1108.61 1151.5C1103.47 1154.69 1099.21 1159.1 1096.2 1164.33C1092.46 1170.08 1090.36 1176.73 1090.13 1183.58V2404.43C1090.13 2448.74 1121.27 2502.55 1159.68 2524.71C1198.09 2546.86 1229.14 2528.9 1229.14 2484.58V1262.11C1229.44 1255.71 1231.25 1249.47 1234.41 1243.89C1237.58 1238.32 1242.02 1233.57 1247.36 1230.03L2370.43 581.586C2373.66 586.736 2375.51 592.626 2375.82 598.696Z" fill="#E0E0E0"/>
<path d="M2271.54 539.839V598.696L1213.15 1210.02C1207.71 1213.47 1203.16 1218.16 1199.88 1223.71C1196.59 1229.25 1194.66 1235.49 1194.24 1241.92V2464.39C1194.24 2486.55 1178.76 2495.53 1159.59 2484.41C1149.5 2477.87 1141.1 2469.03 1135.06 2458.63C1129.03 2448.22 1125.53 2436.54 1124.86 2424.53V1201.97C1125.08 1195.51 1126.93 1189.22 1130.25 1183.67C1133.44 1178.09 1137.93 1173.36 1143.34 1169.89L2266.32 521.532C2269.57 527.098 2271.36 533.395 2271.54 539.839Z" fill="#E0E0E0"/>
<path d="M1303.91 1284.01C1300.59 1289.53 1298.73 1295.8 1298.52 1302.24V2514.18C1298.54 2522.99 1297.97 2531.8 1296.81 2540.53C1296.47 2542.81 1296.13 2545.04 1295.78 2547.2C1295.78 2549.26 1295.01 2551.22 1294.59 2553.28C1294.16 2555.33 1293.73 2556.87 1293.22 2558.58C1292.7 2560.29 1292.36 2561.92 1291.85 2563.54C1286.18 2584.36 1272.86 2602.26 1254.55 2613.67C1229.66 2627.96 1196.29 2626.25 1159.59 2605.12C1082.6 2560.81 1020.58 2448.23 1020.58 2353.78V1141.75C1020.79 1135.31 1022.64 1129.04 1025.97 1123.53L1060.79 1143.55C1057.41 1149.07 1055.52 1155.38 1055.31 1161.85V2384.32C1055.31 2450.79 1102.02 2531.63 1159.59 2564.83C1217.17 2598.02 1263.79 2571.16 1263.79 2504.94V1282.22C1264 1275.74 1265.88 1269.44 1269.26 1263.91L1303.91 1284.01Z" fill="#EBEBEB"/>
<path d="M1234.45 1243.89C1231.13 1249.41 1229.28 1255.68 1229.06 1262.11V2484.58C1229.06 2528.9 1197.92 2546.86 1159.59 2524.71C1121.27 2502.55 1090.04 2448.74 1090.04 2404.43V1183.24C1090.28 1176.39 1092.38 1169.73 1096.12 1163.99L1130.34 1183.67C1127.02 1189.22 1125.17 1195.51 1124.95 1201.97V2424.44C1125.62 2436.45 1129.11 2448.14 1135.15 2458.54C1141.18 2468.95 1149.59 2477.78 1159.68 2484.33C1178.84 2495.45 1194.32 2486.47 1194.32 2464.31V1241.92C1194.53 1235.45 1196.42 1229.14 1199.8 1223.62L1234.45 1243.89Z" fill="#EBEBEB"/>
<path d="M2196.94 481.41L2097.96 538.556L1073.87 1129.77C1068.41 1133.17 1063.9 1137.91 1060.79 1143.55L1025.97 1123.53C1029.08 1117.87 1033.58 1113.1 1039.06 1109.67L2063.06 518.452L2082.82 506.989L2102.84 495.697L2119.95 485.773L2130.13 479.87L2149.03 469.006C2154.54 466.074 2160.67 464.484 2166.91 464.365C2173.16 464.246 2179.34 465.602 2184.96 468.322C2190.02 471.571 2194.15 476.082 2196.94 481.41Z" fill="#FAFAFA"/>
<path d="M2439.98 621.793L2341 678.939L2167.25 779.2L1317.09 1270.16C1311.61 1273.61 1307.08 1278.37 1303.91 1284.01L1269.69 1263.91C1272.76 1258.47 1277.1 1253.86 1282.35 1250.48L2202.07 719.146L2306.27 659.263L2375.73 619.141L2391.9 609.817L2393.7 608.876C2399.04 606.318 2404.88 604.99 2410.81 604.99C2416.73 604.99 2422.57 606.318 2427.92 608.876L2429.71 609.988C2433.95 613.135 2437.45 617.163 2439.98 621.793Z" fill="#FAFAFA"/>
<path d="M2266.32 521.532L1143.34 1169.89C1137.93 1173.36 1133.44 1178.09 1130.25 1183.67L1096.03 1163.99C1099.04 1158.75 1103.3 1154.35 1108.44 1151.16L2202.07 518.11L2218.15 508.786C2223.67 505.853 2229.79 504.263 2236.04 504.144C2242.28 504.025 2248.46 505.381 2254.08 508.101C2259.26 511.435 2263.48 516.065 2266.32 521.532Z" fill="#FAFAFA"/>
<path d="M2370.68 581.586L1247.36 1230.03C1241.87 1233.46 1237.33 1238.23 1234.19 1243.89L1199.46 1223.79C1202.74 1218.08 1207.46 1213.33 1213.15 1210.02L2271.88 598.695L2323.21 569.267C2328.73 566.349 2334.86 564.773 2341.1 564.669C2347.34 564.565 2353.52 565.935 2359.14 568.668C2364.03 571.912 2368.01 576.361 2370.68 581.586Z" fill="#FAFAFA"/>
<path d="M2445.03 640.186V1852.13C2445.03 1901.84 2427.92 1936.65 2400.28 1952.05L1252.92 2614.53C1263.08 2608.42 1271.89 2600.31 1278.82 2590.7C1285.75 2581.08 1290.64 2570.15 1293.22 2558.58C1293.73 2556.87 1294.16 2555.07 1294.59 2553.28C1295.01 2551.48 1295.36 2549.26 1295.78 2547.2C1296.21 2545.15 1296.47 2542.84 1296.81 2540.53C1297.97 2531.8 1298.54 2522.99 1298.52 2514.18V1302.24C1298.73 1295.8 1300.59 1289.53 1303.91 1284.01C1307.08 1278.37 1311.61 1273.61 1317.09 1270.16L2167.25 779.286L2341 679.024L2439.98 621.879C2443.2 627.448 2444.94 633.752 2445.03 640.186Z" fill="#F5F5F5"/>
<path d="M1421.37 1290.26L1592.46 1191.28C1602.73 1185.38 1610.94 1190.08 1610.94 1201.97V1440.05C1610.61 1446.48 1608.76 1452.73 1605.55 1458.31C1602.34 1463.88 1597.85 1468.62 1592.46 1472.13L1421.37 1571.11C1411.1 1577.01 1402.8 1572.22 1402.8 1560.42V1322.34C1403.15 1315.91 1405.02 1309.65 1408.24 1304.08C1411.47 1298.5 1415.96 1293.77 1421.37 1290.26Z" fill="#455A64"/>
<path d="M1402.8 1662.05L2341.08 1120.36V1160.48L1402.8 1702.17V1662.05Z" fill="#90CAF9"/>
<path opacity="0.4" d="M1402.8 1662.05L2341.08 1120.36V1160.48L1402.8 1702.17V1662.05Z" fill="white"/>
<path d="M1413.92 1776L1600.25 1668.46C1606.32 1664.87 1611.28 1667.78 1611.28 1674.88V2050.43C1611.08 2054.28 1609.98 2058.03 1608.06 2061.37C1606.15 2064.72 1603.47 2067.56 1600.25 2069.68L1413.92 2177.21C1407.76 2180.81 1402.8 2177.9 1402.8 2170.8V1795.24C1403.01 1791.39 1404.12 1787.63 1406.05 1784.28C1407.98 1780.94 1410.68 1778.1 1413.92 1776Z" fill="#F0F0F0"/>
<path d="M1413.92 2217.16L1600.25 2109.54C1606.32 2106.04 1611.28 2108.95 1611.28 2115.96V2409.9L1402.8 2530.52V2236.67C1402.97 2232.76 1404.06 2228.96 1405.99 2225.56C1407.93 2222.17 1410.65 2219.29 1413.92 2217.16Z" fill="#F0F0F0"/>
<path d="M1657.22 1635.44L1843.46 1527.91C1849.62 1524.4 1854.58 1527.22 1854.58 1534.33V2030.5C1854.37 2034.36 1853.25 2038.11 1851.32 2041.45C1849.39 2044.8 1846.69 2047.64 1843.46 2049.75L1657.22 2157.28C1651.06 2160.79 1646.1 2157.96 1646.1 2150.86V1654.69C1646.32 1650.84 1647.44 1647.09 1649.37 1643.75C1651.31 1640.4 1653.99 1637.56 1657.22 1635.44Z" fill="#F0F0F0"/>
<path d="M1900.43 1495.14L2086.67 1387.36C2092.83 1383.76 2097.79 1386.67 2097.79 1393.77V1769.32C2097.59 1773.18 2096.47 1776.94 2094.54 1780.28C2092.61 1783.63 2089.91 1786.47 2086.67 1788.57L1900.43 1896.36C1894.27 1899.95 1889.31 1897.05 1889.31 1889.95V1514.39C1889.51 1510.53 1890.63 1506.78 1892.56 1503.43C1894.49 1500.09 1897.19 1497.25 1900.43 1495.14Z" fill="#F0F0F0"/>
<path d="M2143.73 1354.68L2329.96 1247.14C2336.12 1243.55 2341.09 1246.46 2341.09 1253.56V1749.73C2340.86 1753.59 2339.74 1757.34 2337.81 1760.68C2335.88 1764.02 2333.19 1766.86 2329.96 1768.98L2143.73 1876.51C2137.57 1880.02 2132.61 1877.2 2132.61 1870.1V1373.92C2132.81 1370.07 2133.92 1366.31 2135.85 1362.96C2137.79 1359.62 2140.49 1356.78 2143.73 1354.68Z" fill="#F0F0F0"/>
<path d="M1657.22 2197.32L1843.46 2089.78C1849.62 2086.19 1854.58 2089.1 1854.58 2096.2V2269.69L1646.1 2390.14V2216.56C1646.3 2212.71 1647.41 2208.95 1649.35 2205.6C1651.28 2202.26 1653.98 2199.42 1657.22 2197.32Z" fill="#F0F0F0"/>
<path d="M1888.97 1955.73V2249.67L2097.45 2129.31V1835.37C2097.45 1828.27 2092.48 1825.44 2086.33 1828.95L1900.09 1936.48C1896.85 1938.59 1894.16 1941.43 1892.23 1944.78C1890.29 1948.12 1889.18 1951.87 1888.97 1955.73Z" fill="#F0F0F0"/>
<path d="M2143.64 1916.46L2329.96 1808.93C2336.12 1805.34 2341.09 1808.25 2341.09 1815.35V1988.84L2132.61 2109.2V1935.71C2132.81 1931.86 2133.91 1928.12 2135.83 1924.77C2137.74 1921.43 2140.42 1918.58 2143.64 1916.46Z" fill="#F0F0F0"/>
<path d="M1692.21 2217.16L1808.98 2149.75C1815.14 2146.16 1820.1 2149.07 1820.1 2156.17V2251.38C1819.9 2255.24 1818.79 2259 1816.85 2262.34C1814.92 2265.69 1812.22 2268.53 1808.98 2270.63L1692.21 2337.87C1686.05 2341.38 1681.09 2338.55 1681.09 2331.45V2236.75C1681.24 2232.84 1682.32 2229.01 1684.26 2225.6C1686.2 2222.19 1688.92 2219.3 1692.21 2217.16Z" fill="#E0E0E0"/>
<path d="M2178.46 1936.65L2295.23 1869.24C2301.31 1865.65 2306.35 1868.56 2306.35 1875.66V1970.36C2306.12 1974.21 2305 1977.96 2303.07 1981.3C2301.14 1984.64 2298.45 1987.49 2295.23 1989.61L2178.46 2057.02C2172.3 2060.53 2167.34 2057.7 2167.34 2050.6V1955.9C2167.54 1952.04 2168.65 1948.29 2170.59 1944.94C2172.52 1941.6 2175.22 1938.76 2178.46 1936.65Z" fill="#E0E0E0"/>
<path d="M1448.66 1796.1L1565.43 1728.6C1571.59 1725.1 1576.55 1728 1576.55 1735.02V1829.81C1576.33 1833.66 1575.21 1837.41 1573.27 1840.75C1571.34 1844.09 1568.66 1846.94 1565.43 1849.05L1448.66 1916.46C1442.58 1919.97 1437.54 1917.15 1437.54 1910.05V1815.09C1437.78 1811.28 1438.92 1807.58 1440.85 1804.28C1442.78 1800.98 1445.45 1798.18 1448.66 1796.1Z" fill="#E0E0E0"/>
<path d="M1444.98 1938.62L1569.19 1866.93C1573.3 1864.62 1576.55 1866.51 1576.55 1871.21V1874.2C1576.42 1876.77 1575.68 1879.27 1574.41 1881.5C1573.13 1883.73 1571.34 1885.63 1569.19 1887.04L1444.98 1958.73C1440.87 1961.12 1437.54 1958.73 1437.54 1954.45V1951.45C1437.68 1948.88 1438.43 1946.38 1439.73 1944.15C1441.02 1941.92 1442.82 1940.03 1444.98 1938.62Z" fill="#E0E0E0"/>
<path d="M1444.98 1978.74L1569.19 1907.05C1573.3 1904.74 1576.55 1906.63 1576.55 1911.33V1914.33C1576.42 1916.89 1575.68 1919.39 1574.41 1921.62C1573.13 1923.85 1571.34 1925.75 1569.19 1927.16L1444.98 1998.85C1440.87 2001.24 1437.54 1998.85 1437.54 1994.57V1991.58C1437.68 1989 1438.43 1986.5 1439.73 1984.27C1441.02 1982.04 1442.82 1980.15 1444.98 1978.74Z" fill="#E0E0E0"/>
<path d="M1444.98 2018.86L1569.19 1947.18C1573.3 1944.87 1576.55 1946.75 1576.55 1951.45V1954.45C1576.42 1957.01 1575.68 1959.51 1574.41 1961.74C1573.13 1963.97 1571.34 1965.87 1569.19 1967.28L1444.98 2038.97C1440.87 2041.36 1437.54 2039.4 1437.54 2034.69V2031.7C1437.68 2029.12 1438.43 2026.62 1439.73 2024.39C1441.02 2022.16 1442.82 2020.27 1444.98 2018.86Z" fill="#E0E0E0"/>
<path d="M1444.98 2058.99L1569.19 1987.3C1573.3 1984.99 1576.55 1986.87 1576.55 1991.58V1994.74C1576.42 1997.31 1575.68 1999.81 1574.41 2002.04C1573.13 2004.27 1571.34 2006.16 1569.19 2007.57L1444.98 2079.26C1440.87 2081.66 1437.54 2079.69 1437.54 2074.98V2071.73C1437.7 2069.17 1438.45 2066.69 1439.74 2064.48C1441.04 2062.26 1442.83 2060.38 1444.98 2058.99Z" fill="#E0E0E0"/>
<path d="M1444.98 2099.11L1569.19 2027.42C1573.3 2025.11 1576.55 2026.99 1576.55 2031.7V2034.69C1576.42 2037.26 1575.68 2039.76 1574.41 2041.99C1573.13 2044.22 1571.34 2046.11 1569.19 2047.52L1444.98 2119.21C1440.87 2121.61 1437.54 2119.64 1437.54 2114.93V2111.94C1437.68 2109.37 1438.43 2106.87 1439.73 2104.64C1441.02 2102.41 1442.82 2100.51 1444.98 2099.11Z" fill="#E0E0E0"/>
<path d="M1692.21 1655.63L1808.98 1588.22C1815.14 1584.63 1820.1 1587.54 1820.1 1594.64V1689.34C1819.89 1693.19 1818.78 1696.95 1816.85 1700.29C1814.91 1703.64 1812.22 1706.48 1808.98 1708.59L1692.21 1776C1686.05 1779.5 1681.09 1776.68 1681.09 1769.58V1674.88C1681.29 1671.02 1682.4 1667.27 1684.34 1663.92C1686.27 1660.57 1688.97 1657.73 1692.21 1655.63Z" fill="#E0E0E0"/>
<path d="M1688.19 1797.98L1812.4 1726.29C1816.51 1723.9 1819.85 1725.78 1819.85 1730.57V1733.48C1819.71 1736.05 1818.96 1738.56 1817.66 1740.79C1816.37 1743.02 1814.57 1744.91 1812.4 1746.31L1688.19 1818C1684.17 1820.4 1680.83 1818 1680.83 1813.72V1810.81C1680.96 1808.25 1681.7 1805.75 1682.97 1803.52C1684.25 1801.29 1686.04 1799.39 1688.19 1797.98Z" fill="#E0E0E0"/>
<path d="M1688.19 1838.36L1812.4 1766.67C1816.51 1764.28 1819.85 1766.16 1819.85 1770.95V1773.86C1819.71 1776.43 1818.96 1778.94 1817.66 1781.17C1816.37 1783.4 1814.57 1785.29 1812.4 1786.69L1688.19 1858.38C1684.17 1860.77 1680.83 1858.81 1680.83 1854.1V1851.19C1680.96 1848.63 1681.7 1846.13 1682.97 1843.9C1684.25 1841.67 1686.04 1839.77 1688.19 1838.36Z" fill="#E0E0E0"/>
<path d="M1688.19 1878.48L1812.4 1806.54C1816.51 1804.14 1819.85 1806.02 1819.85 1810.81V1813.72C1819.71 1816.3 1818.96 1818.8 1817.66 1821.03C1816.37 1823.26 1814.57 1825.15 1812.4 1826.55L1688.19 1898.24C1684.17 1900.64 1680.83 1898.67 1680.83 1893.97V1891.06C1681 1888.53 1681.75 1886.09 1683.03 1883.9C1684.31 1881.72 1686.07 1879.87 1688.19 1878.48Z" fill="#E0E0E0"/>
<path d="M1688.19 1918.6L1812.4 1846.91C1816.51 1844.52 1819.85 1846.4 1819.85 1851.19V1854.1C1819.71 1856.68 1818.96 1859.18 1817.66 1861.41C1816.37 1863.64 1814.57 1865.53 1812.4 1866.93L1688.19 1938.62C1684.17 1941.02 1680.83 1939.05 1680.83 1934.34V1931.44C1680.96 1928.87 1681.7 1926.37 1682.97 1924.14C1684.25 1921.91 1686.04 1920.01 1688.19 1918.6Z" fill="#E0E0E0"/>
<path d="M1688.19 1958.73L1812.4 1887.04C1816.51 1884.64 1819.85 1886.52 1819.85 1891.31V1894.22C1819.71 1896.8 1818.96 1899.3 1817.66 1901.53C1816.37 1903.76 1814.57 1905.65 1812.4 1907.05L1688.19 1978.74C1684.17 1981.14 1680.83 1979.17 1680.83 1974.47V1971.56C1680.96 1968.99 1681.7 1966.49 1682.97 1964.26C1684.25 1962.03 1686.04 1960.13 1688.19 1958.73Z" fill="#E0E0E0"/>
<path d="M1688.19 1998.85L1812.4 1927.16C1816.51 1924.76 1819.85 1926.73 1819.85 1931.44V1934.34C1819.72 1936.92 1818.98 1939.43 1817.68 1941.66C1816.39 1943.9 1814.58 1945.79 1812.4 1947.18L1688.19 2018.86C1684.17 2021.26 1680.83 2019.38 1680.83 2014.59V2011.85C1680.96 2009.26 1681.69 2006.73 1682.96 2004.47C1684.24 2002.22 1686.03 2000.29 1688.19 1998.85Z" fill="#E0E0E0"/>
<path d="M1688.19 2038.97L1812.4 1967.28C1816.51 1964.88 1819.85 1966.85 1819.85 1971.56V1974.47C1819.72 1977.04 1818.98 1979.55 1817.68 1981.79C1816.39 1984.02 1814.58 1985.91 1812.4 1987.3L1688.19 2058.99C1684.17 2061.38 1680.83 2059.5 1680.83 2054.71V2051.8C1680.98 2049.24 1681.72 2046.75 1683 2044.52C1684.28 2042.29 1686.05 2040.39 1688.19 2038.97Z" fill="#E0E0E0"/>
<path d="M1688.19 2079.09L1812.4 2007.4C1816.51 2005.01 1819.85 2006.97 1819.85 2011.68V2014.59C1819.72 2017.16 1818.98 2019.67 1817.68 2021.91C1816.39 2024.14 1814.58 2026.03 1812.4 2027.42L1688.19 2099.11C1684.17 2101.5 1680.83 2099.62 1680.83 2094.83V2091.92C1680.98 2089.36 1681.72 2086.87 1683 2084.64C1684.28 2082.41 1686.05 2080.51 1688.19 2079.09Z" fill="#E0E0E0"/>
<path d="M1448.66 2237.52L1565.43 2170.03C1571.59 2166.52 1576.55 2169.43 1576.55 2176.44V2271.23C1576.34 2275.09 1575.22 2278.84 1573.29 2282.18C1571.36 2285.53 1568.67 2288.37 1565.43 2290.48L1448.66 2357.89C1442.58 2361.4 1437.54 2358.57 1437.54 2351.47V2256.77C1437.74 2252.91 1438.86 2249.16 1440.79 2245.82C1442.72 2242.47 1445.42 2239.63 1448.66 2237.52Z" fill="#E0E0E0"/>
<path d="M1444.98 2379.7L1569.19 2308.01C1573.3 2305.7 1576.55 2307.59 1576.55 2312.29V2315.29C1576.42 2317.85 1575.68 2320.35 1574.41 2322.58C1573.13 2324.81 1571.34 2326.71 1569.19 2328.12L1444.98 2399.81C1440.87 2402.2 1437.54 2400.23 1437.54 2395.53V2392.53C1437.68 2389.96 1438.43 2387.46 1439.73 2385.23C1441.02 2383 1442.82 2381.11 1444.98 2379.7Z" fill="#E0E0E0"/>
<path d="M1444.98 2420.17L1569.19 2348.48C1573.3 2346.17 1576.55 2348.05 1576.55 2352.76V2355.75C1576.42 2358.32 1575.68 2360.82 1574.41 2363.05C1573.13 2365.28 1571.34 2367.17 1569.19 2368.58L1444.98 2440.27C1440.87 2442.67 1437.54 2440.7 1437.54 2435.99V2433C1437.68 2430.43 1438.43 2427.92 1439.73 2425.69C1441.02 2423.47 1442.82 2421.57 1444.98 2420.17Z" fill="#E0E0E0"/>
<path d="M1444.98 2460.37L1569.19 2388.26C1573.3 2385.95 1576.55 2387.83 1576.55 2392.53V2395.53C1576.42 2398.1 1575.68 2400.6 1574.41 2402.83C1573.13 2405.05 1571.34 2406.95 1569.19 2408.36L1444.98 2480.05C1440.87 2482.45 1437.54 2480.48 1437.54 2475.77V2472.86C1437.71 2470.35 1438.48 2467.9 1439.77 2465.74C1441.07 2463.57 1442.85 2461.73 1444.98 2460.37Z" fill="#E0E0E0"/>
<path d="M1935.16 1515.16L2051.94 1447.75C2058.09 1444.24 2063.06 1447.07 2063.06 1454.17V1548.87C2062.85 1552.73 2061.74 1556.48 2059.81 1559.83C2057.88 1563.17 2055.18 1566.01 2051.94 1568.12L1935.16 1635.44C1929.09 1638.95 1924.04 1636.04 1924.04 1629.03V1534.41C1924.28 1530.56 1925.4 1526.82 1927.33 1523.48C1929.26 1520.14 1931.94 1517.29 1935.16 1515.16Z" fill="#E0E0E0"/>
<path d="M1931.74 1657.77L2055.96 1586.08C2059.98 1583.77 2063.31 1586.08 2063.31 1590.36V1593.35C2063.16 1595.91 2062.42 1598.41 2061.14 1600.63C2059.87 1602.86 2058.09 1604.76 2055.96 1606.18L1931.74 1678.22C1927.64 1680.53 1924.3 1678.22 1924.3 1673.94V1670.94C1924.39 1668.31 1925.12 1665.74 1926.41 1663.45C1927.71 1661.16 1929.54 1659.21 1931.74 1657.77Z" fill="#E0E0E0"/>
<path d="M1931.74 1697.89L2055.96 1626.2C2059.98 1623.89 2063.31 1626.2 2063.31 1630.48V1633.47C2063.16 1636.04 2062.42 1638.53 2061.14 1640.76C2059.87 1642.98 2058.09 1644.88 2055.96 1646.31L1931.74 1718C1927.64 1720.3 1924.3 1718 1924.3 1713.72V1710.72C1924.45 1708.15 1925.2 1705.65 1926.49 1703.42C1927.78 1701.19 1929.58 1699.3 1931.74 1697.89Z" fill="#E0E0E0"/>
<path d="M1931.74 1738.1L2055.96 1666.41C2059.98 1664.1 2063.31 1665.98 2063.31 1670.69V1673.68C2063.16 1676.24 2062.42 1678.74 2061.14 1680.96C2059.87 1683.19 2058.09 1685.09 2055.96 1686.51L1931.74 1758.12C1927.64 1760.43 1924.3 1758.12 1924.3 1753.84V1750.85C1924.46 1748.29 1925.22 1745.8 1926.51 1743.59C1927.8 1741.38 1929.59 1739.5 1931.74 1738.1Z" fill="#E0E0E0"/>
<path d="M1931.74 1778.13L2055.96 1706.45C2059.98 1704.14 2063.31 1706.02 2063.31 1710.72V1713.72C2063.16 1716.28 2062.42 1718.77 2061.14 1721C2059.87 1723.23 2058.09 1725.13 2055.96 1726.55L1931.74 1797.98C1927.64 1800.29 1924.3 1798.41 1924.3 1793.7V1790.71C1924.48 1788.18 1925.25 1785.73 1926.54 1783.55C1927.84 1781.37 1929.61 1779.51 1931.74 1778.13Z" fill="#E0E0E0"/>
<path d="M1931.74 1818.26L2055.7 1746.65C2059.72 1744.34 2063.06 1746.23 2063.06 1750.93V1753.93C2062.91 1756.49 2062.16 1758.98 2060.89 1761.21C2059.61 1763.43 2057.83 1765.33 2055.7 1766.76L1931.74 1838.36C1927.64 1840.67 1924.3 1838.79 1924.3 1834.08V1831.09C1924.45 1828.52 1925.2 1826.01 1926.49 1823.78C1927.78 1821.56 1929.58 1819.66 1931.74 1818.26Z" fill="#E0E0E0"/>
<path d="M2178.46 1374.78L2295.23 1307.37C2301.31 1303.78 2306.35 1306.68 2306.35 1313.78V1408.49C2306.12 1412.34 2305 1416.08 2303.07 1419.42C2301.14 1422.77 2298.45 1425.61 2295.23 1427.73L2178.46 1495.14C2172.3 1498.65 2167.34 1495.83 2167.34 1488.73V1394.03C2167.54 1390.17 2168.65 1386.41 2170.59 1383.07C2172.52 1379.72 2175.22 1376.88 2178.46 1374.78Z" fill="#E0E0E0"/>
<path d="M2174.7 1517.3L2298.91 1445.61C2303.02 1443.3 2306.35 1445.19 2306.35 1449.89V1452.88C2306.21 1455.46 2305.46 1457.96 2304.16 1460.19C2302.87 1462.42 2301.07 1464.31 2298.91 1465.72L2174.7 1537.41C2170.67 1539.8 2167.34 1537.83 2167.34 1533.13V1530.13C2167.49 1527.57 2168.23 1525.08 2169.51 1522.85C2170.79 1520.63 2172.56 1518.73 2174.7 1517.3Z" fill="#E0E0E0"/>
<path d="M2174.7 1557.51L2298.91 1485.73C2303.02 1483.42 2306.35 1485.31 2306.35 1490.01V1493.01C2306.21 1495.58 2305.46 1498.08 2304.16 1500.31C2302.87 1502.54 2301.07 1504.43 2298.91 1505.84L2174.7 1577.53C2170.67 1579.92 2167.34 1577.95 2167.34 1573.25V1570.34C2167.47 1567.77 2168.2 1565.27 2169.48 1563.04C2170.76 1560.81 2172.55 1558.92 2174.7 1557.51Z" fill="#E0E0E0"/>
<path d="M2174.7 1597.63L2298.91 1525.86C2303.02 1523.55 2306.35 1525.43 2306.35 1530.13V1532.79C2306.21 1535.36 2305.46 1537.86 2304.16 1540.09C2302.87 1542.32 2301.07 1544.21 2298.91 1545.62L2174.7 1617.31C2170.67 1619.7 2167.34 1617.73 2167.34 1613.03V1610.12C2167.52 1607.61 2168.28 1605.18 2169.56 1603.01C2170.83 1600.85 2172.59 1599.01 2174.7 1597.63Z" fill="#E0E0E0"/>
<path d="M2174.7 1637.75L2298.91 1565.98C2303.02 1563.67 2306.35 1565.98 2306.35 1570.26V1573.25C2306.21 1575.82 2305.46 1578.32 2304.16 1580.55C2302.87 1582.78 2301.07 1584.68 2298.91 1586.08L2174.7 1657.77C2170.67 1660.17 2167.34 1657.77 2167.34 1653.49V1650.58C2167.47 1648.02 2168.2 1645.52 2169.48 1643.29C2170.76 1641.06 2172.55 1639.16 2174.7 1637.75Z" fill="#E0E0E0"/>
<path d="M2174.7 1678.22L2298.91 1606.44C2303.02 1604.13 2306.35 1606.44 2306.35 1610.72V1613.71C2306.21 1616.29 2305.46 1618.79 2304.16 1621.02C2302.87 1623.25 2301.07 1625.14 2298.91 1626.55L2174.7 1697.89C2170.67 1700.29 2167.34 1697.89 2167.34 1693.61V1690.71C2167.52 1688.2 2168.28 1685.77 2169.56 1683.6C2170.83 1681.43 2172.59 1679.59 2174.7 1678.22Z" fill="#E0E0E0"/>
<path d="M2174.7 1718L2298.91 1646.31C2303.02 1643.91 2306.35 1645.79 2306.35 1650.58V1653.49C2306.21 1656.07 2305.47 1658.57 2304.17 1660.8C2302.88 1663.03 2301.08 1664.92 2298.91 1666.32L2174.7 1738.1C2170.67 1740.49 2167.34 1738.1 2167.34 1733.82V1730.91C2167.46 1728.33 2168.19 1725.82 2169.47 1723.57C2170.75 1721.33 2172.54 1719.42 2174.7 1718Z" fill="#E0E0E0"/>
<path d="M2174.7 1758.12L2298.91 1686.77C2303.02 1684.38 2306.35 1686.26 2306.35 1691.05V1693.96C2306.21 1696.53 2305.47 1699.04 2304.17 1701.27C2302.88 1703.5 2301.08 1705.39 2298.91 1706.79L2174.7 1778.48C2170.67 1780.87 2167.34 1778.48 2167.34 1774.2V1771.29C2167.42 1768.67 2168.13 1766.1 2169.41 1763.81C2170.69 1761.52 2172.51 1759.56 2174.7 1758.12Z" fill="#E0E0E0"/>
<path d="M2174.7 1797.98L2298.91 1726.29C2303.02 1723.9 2306.35 1725.78 2306.35 1730.57V1733.48C2306.21 1736.05 2305.47 1738.56 2304.17 1740.79C2302.88 1743.02 2301.08 1744.91 2298.91 1746.31L2174.7 1818C2170.67 1820.4 2167.34 1818.51 2167.34 1813.72V1810.81C2167.48 1808.25 2168.21 1805.75 2169.49 1803.52C2170.77 1801.29 2172.55 1799.4 2174.7 1797.98Z" fill="#E0E0E0"/>
<path d="M1935.16 1956.59L2051.94 1889.18C2058.09 1885.67 2063.06 1888.49 2063.06 1895.59V1990.29C2062.85 1994.15 2061.74 1997.91 2059.81 2001.25C2057.88 2004.6 2055.18 2007.44 2051.94 2009.54L1935.16 2077.04C1929.09 2080.54 1924.04 2077.64 1924.04 2070.62V1975.83C1924.28 1971.98 1925.4 1968.24 1927.33 1964.9C1929.26 1961.56 1931.94 1958.71 1935.16 1956.59Z" fill="#E0E0E0"/>
<path d="M1931.74 2099.19L2055.96 2027.5C2059.98 2025.2 2063.31 2027.08 2063.31 2031.78V2034.78C2063.16 2037.34 2062.42 2039.83 2061.14 2042.06C2059.87 2044.28 2058.09 2046.18 2055.96 2047.61L1931.74 2119.3C1927.64 2121.61 1924.3 2119.72 1924.3 2115.02V2112.03C1924.45 2109.45 1925.2 2106.95 1926.49 2104.72C1927.78 2102.49 1929.58 2100.6 1931.74 2099.19Z" fill="#E0E0E0"/>
<path d="M1931.74 2139.32L2055.96 2067.63C2059.98 2065.32 2063.31 2067.63 2063.31 2071.9V2074.9C2063.16 2077.46 2062.42 2079.95 2061.14 2082.18C2059.87 2084.41 2058.09 2086.31 2055.96 2087.73L1931.74 2159.42C1927.64 2161.73 1924.3 2159.85 1924.3 2155.14V2152.15C1924.45 2149.57 1925.2 2147.07 1926.49 2144.84C1927.78 2142.61 1929.58 2140.72 1931.74 2139.32Z" fill="#E0E0E0"/>
<path d="M1931.74 2179.44L2055.96 2107.75C2059.98 2105.44 2063.31 2107.75 2063.31 2112.03V2115.02C2063.16 2117.58 2062.42 2120.07 2061.14 2122.3C2059.87 2124.53 2058.09 2126.43 2055.96 2127.85L1931.74 2199.54C1927.64 2201.85 1924.3 2199.97 1924.3 2195.26V2192.27C1924.45 2189.7 1925.2 2187.19 1926.49 2184.96C1927.78 2182.74 1929.58 2180.84 1931.74 2179.44Z" fill="#E0E0E0"/>
<path d="M1686.22 1396.42C1684.51 1395.85 1683.65 1394.23 1683.65 1391.55C1683.76 1388.94 1684.28 1386.37 1685.19 1383.93L1694.43 1354.51C1695.02 1351.85 1696.36 1349.41 1698.28 1347.49C1698.91 1347.15 1699.62 1346.97 1700.34 1346.97C1701.05 1346.97 1701.76 1347.15 1702.39 1347.49C1707.15 1349.48 1712.33 1350.24 1717.45 1349.7C1722.58 1349.17 1727.49 1347.35 1731.73 1344.41C1739.38 1339.95 1745.38 1333.14 1748.84 1324.99C1752.84 1314.99 1754.73 1304.27 1754.4 1293.51V1120.96C1754.24 1115.98 1755.15 1111.02 1757.05 1106.42C1759.11 1102.17 1762.46 1098.69 1766.64 1096.49L1785.63 1085.54C1789.9 1083.06 1792.98 1082.72 1794.78 1084.6C1797.04 1088 1798.01 1092.1 1797.52 1096.15V1269.3C1797.82 1293.6 1792.68 1317.66 1782.46 1339.71C1773.15 1360 1757.75 1376.89 1738.4 1388.04C1717.82 1399.96 1700.42 1402.75 1686.22 1396.42Z" fill="#455A64"/>
<path d="M1840.29 1292.48C1824.95 1276.74 1817.28 1246.6 1817.28 1202.06C1816.41 1161.87 1824.26 1121.98 1840.29 1085.12C1853.96 1053.59 1877.3 1027.23 1906.93 1009.84C1935.93 992.726 1958.26 992.726 1973.4 1008.3C1988.54 1023.87 1996.42 1054.06 1996.42 1098.63C1997.29 1138.82 1989.44 1178.72 1973.4 1215.58C1959.77 1247.05 1936.49 1273.38 1906.93 1290.77C1877.85 1307.54 1855.63 1308.11 1840.29 1292.48ZM1942.26 1199.75C1950.97 1175.04 1955.03 1148.94 1954.24 1122.76C1954.24 1091.9 1950.25 1070.92 1942.26 1059.8C1934.31 1048.67 1922.59 1047.65 1906.93 1056.63C1890.34 1066.8 1877.77 1082.4 1871.35 1100.77C1862.66 1125.48 1858.63 1151.59 1859.45 1177.76C1859.45 1208.56 1863.39 1229.61 1871.35 1240.64C1879.3 1251.68 1891.19 1252.79 1906.93 1243.64C1923.46 1233.56 1935.95 1218.04 1942.26 1199.75Z" fill="#455A64"/>
<path d="M2020.2 1215.32C2017.94 1212.02 2016.97 1208 2017.46 1204.03V969.372C2017.32 964.356 2018.25 959.368 2020.2 954.743C2021.97 950.773 2024.97 947.476 2028.75 945.333L2104.03 901.789C2122.97 890.896 2137.23 889.414 2146.81 897.341C2156.39 905.268 2161.09 920.952 2160.92 944.392C2160.93 956.792 2158.99 969.118 2155.19 980.921C2151.87 991.868 2146.5 1002.09 2139.36 1011.03C2156.99 1009.84 2165.8 1024.66 2165.8 1055.52C2165.79 1070.66 2163.52 1085.71 2159.04 1100.17C2154.54 1114.77 2147.56 1128.48 2138.42 1140.72C2129.25 1153.04 2117.59 1163.3 2104.2 1170.84L2028.92 1214.38C2024.9 1216.69 2021.99 1217.03 2020.2 1215.32ZM2097.19 1014.8C2104.06 1010.78 2109.59 1004.83 2113.1 997.688C2117.1 989.524 2119.07 980.513 2118.83 971.425C2118.83 960.646 2117.04 954.315 2113.53 951.321C2110.02 948.327 2104.55 949.61 2097.19 953.802L2060.06 975.36V1036.61L2097.19 1014.8ZM2101.3 1124.81C2108.94 1120.5 2114.95 1113.8 2118.41 1105.73C2122.18 1097.05 2124.08 1087.66 2123.97 1078.19C2123.97 1066.9 2121.83 1059.62 2117.55 1056.46C2113.27 1053.29 2107.2 1053.89 2099.5 1058.34L2060.06 1081.01V1148.68L2101.3 1124.81Z" fill="#455A64"/>
<path d="M2203.87 1112.75C2194.11 1115.61 2183.68 1115.19 2174.18 1111.55C2173.06 1111.06 2172.1 1110.26 2171.42 1109.25C2170.74 1108.23 2170.36 1107.04 2170.33 1105.82C2170.44 1103.68 2170.87 1101.58 2171.62 1099.57L2182.22 1067.75C2182.65 1065.47 2183.83 1063.39 2185.56 1061.85C2186.15 1061.53 2186.81 1061.37 2187.48 1061.37C2188.16 1061.37 2188.82 1061.53 2189.41 1061.85C2196.53 1063.75 2203.98 1064.04 2211.22 1062.7C2220 1061.13 2228.43 1058 2236.12 1053.46C2245.03 1048.66 2252.63 1041.76 2258.28 1033.36C2263.23 1025.14 2265.72 1015.67 2265.46 1006.07C2265.89 1000.7 2264.67 995.326 2261.95 990.673C2259.45 987.405 2255.76 985.254 2251.69 984.684C2244.74 983.758 2237.74 983.301 2230.73 983.316C2221.33 983.535 2211.94 982.441 2202.84 980.065C2194.98 977.67 2188.3 972.421 2184.11 965.351C2178.5 954.858 2175.95 943.002 2176.75 931.132C2176.44 907.353 2182.59 883.935 2194.54 863.379C2205.68 843.863 2221.8 827.656 2241.25 816.413C2266.92 801.613 2286.33 797.764 2299.85 804.693C2300.93 805.242 2301.85 806.057 2302.52 807.06C2303.19 808.063 2303.6 809.221 2303.7 810.425C2303.59 812.559 2303.16 814.665 2302.42 816.67L2291.9 848.493C2291.47 850.754 2290.3 852.804 2288.56 854.311C2287.97 854.648 2287.31 854.826 2286.63 854.826C2285.96 854.826 2285.29 854.648 2284.71 854.311C2274.27 849.805 2261.61 851.83 2246.73 860.384C2238.14 864.806 2230.98 871.558 2226.07 879.865C2221.15 888.173 2218.67 897.699 2218.92 907.35C2218.54 912.522 2219.67 917.695 2222.17 922.235C2224.14 925.264 2227.21 927.411 2230.73 928.223C2236.6 929.285 2242.56 929.772 2248.52 929.678H2255.71C2265.72 929.716 2275.66 931.244 2285.22 934.212C2292.53 936.874 2298.5 942.316 2301.82 949.354C2306.27 960.186 2308.23 971.881 2307.55 983.572C2307.57 1006.2 2301.67 1028.43 2290.44 1048.07C2278.98 1068.44 2262.1 1085.22 2241.68 1096.58C2230 1103.91 2217.24 1109.37 2203.87 1112.75Z" fill="#455A64"/>
<path d="M3272.86 289.528L3238.13 269.424C3235.61 268.252 3232.82 267.776 3230.05 268.047C3227.28 268.318 3224.64 269.325 3222.39 270.964L2780.37 526.75C2773.91 530.98 2768.53 536.667 2764.67 543.353C2760.81 550.039 2758.57 557.538 2758.13 565.247V1476.32C2757.83 1479.08 2758.28 1481.87 2759.42 1484.39C2760.57 1486.92 2762.36 1489.1 2764.63 1490.7L2798.85 1510.71H2799.36C2801.82 1511.71 2804.49 1512.06 2807.12 1511.75C2809.75 1511.43 2812.26 1510.46 2814.42 1508.92L2931.19 1441.51V1511.74C2931.19 1524.15 2933.16 1531.33 2936.41 1533.3L2970.63 1553.23C2974.56 1555.37 2980.29 1549.9 2986.71 1536.12L3069.52 1360.75L3255.76 1252.62C3262.22 1248.39 3267.59 1242.7 3271.46 1236.02C3275.32 1229.33 3277.56 1221.83 3278 1214.12V303.814C3278.42 301.193 3278.18 298.507 3277.28 296.007C3276.38 293.508 3274.86 291.279 3272.86 289.528Z" fill="#90CAF9"/>
<path opacity="0.4" d="M3272.01 289.015C3269.55 288.136 3266.92 287.856 3264.33 288.198C3261.74 288.54 3259.27 289.495 3257.12 290.982L2815.02 546.854C2808.59 550.85 2803.3 556.414 2799.62 563.022L2764.89 542.919C2768.54 536.292 2773.84 530.722 2780.28 526.75L3222.31 270.879C3225.28 269.055 3228.66 268.024 3232.14 267.884C3234.21 267.846 3236.24 268.347 3238.05 269.339L3272.01 289.015Z" fill="white"/>
<path opacity="0.2" d="M2937.01 1533.64C2933.84 1531.67 2931.87 1524.49 2931.87 1512.08V1441.93L2966.86 1421.57V1531.93C2966.86 1543.74 2968.66 1550.92 2971.48 1553.32L2937.01 1533.64Z" fill="black"/>
<path opacity="0.1" d="M2799.53 1510.8L2764.8 1490.78C2762.58 1489.16 2760.83 1486.99 2759.7 1484.49C2758.58 1481.98 2758.12 1479.23 2758.38 1476.5V565.247C2758.7 557.337 2761.05 549.644 2765.23 542.919L2799.96 563.022C2795.81 569.753 2793.48 577.447 2793.2 585.35V1496.43C2792.88 1499.17 2793.3 1501.95 2794.41 1504.48C2795.52 1507 2797.29 1509.19 2799.53 1510.8Z" fill="black"/>
<path d="M2880.8 589.029L3191.25 409.38C3201.52 403.477 3209.82 408.268 3209.82 420.073V617.431C3209.47 623.874 3207.6 630.143 3204.38 635.732C3201.15 641.321 3196.66 646.07 3191.25 649.596L2880.8 829.245C2870.62 835.148 2862.32 830.357 2862.32 818.552V621.109C2862.68 614.688 2864.53 608.44 2867.74 602.868C2870.95 597.296 2875.43 592.556 2880.8 589.029Z" fill="#455A64"/>
<path d="M3209.82 699.47C3209.36 705.702 3207.45 711.74 3204.22 717.091C3201 722.443 3196.55 726.957 3191.25 730.267L2880.8 909.489C2870.62 915.391 2862.32 911.199 2862.32 900.078C2862.79 893.87 2864.7 887.858 2867.91 882.524C2871.12 877.19 2875.53 872.683 2880.8 869.367L3191.25 690.146C3201.52 684.243 3209.82 688.435 3209.82 699.47Z" fill="#455A64"/>
<path d="M3209.82 779.97C3209.36 786.202 3207.45 792.24 3204.22 797.591C3201 802.943 3196.55 807.457 3191.25 810.767L2880.8 990.416C2870.62 996.319 2862.32 992.127 2862.32 981.006C2862.79 974.798 2864.7 968.786 2867.91 963.451C2871.12 958.117 2875.53 953.611 2880.8 950.295L3191.25 770.646C3201.52 764.486 3209.82 768.678 3209.82 779.97Z" fill="#455A64"/>
<path d="M3209.82 859.957C3209.36 866.189 3207.45 872.227 3204.22 877.578C3201 882.93 3196.55 887.444 3191.25 890.754L2880.8 1070.4C2870.62 1076.31 2862.32 1072.11 2862.32 1060.99C2862.79 1054.78 2864.7 1048.77 2867.91 1043.44C2871.12 1038.1 2875.53 1033.6 2880.8 1030.28L3191.25 850.632C3201.52 844.729 3209.82 848.921 3209.82 859.957Z" fill="#455A64"/>
<path d="M3209.82 940.2C3209.36 946.432 3207.45 952.47 3204.22 957.821C3201 963.173 3196.55 967.687 3191.25 970.997L2880.8 1150.22C2870.62 1156.12 2862.32 1151.93 2862.32 1140.81C2862.79 1134.6 2864.7 1128.59 2867.91 1123.25C2871.12 1117.92 2875.53 1113.41 2880.8 1110.1L3191.25 930.448C3201.52 925.4 3209.82 929.164 3209.82 940.2Z" fill="#455A64"/>
<path d="M2862.32 1221.14C2862.32 1232.17 2870.88 1236.36 2880.8 1230.46L2913.31 1211.73C2918.58 1208.41 2922.99 1203.9 2926.2 1198.57C2929.41 1193.24 2931.33 1187.22 2931.79 1181.02C2931.79 1169.89 2923.23 1165.7 2913.31 1171.61L2880.8 1190.34C2875.52 1193.66 2871.1 1198.18 2867.89 1203.53C2864.68 1208.88 2862.77 1214.91 2862.32 1221.14Z" fill="#455A64"/>
<path d="M2978.84 1153.98C2978.84 1165.02 2987.39 1169.21 2997.4 1163.31L3191.25 1051.24C3196.55 1047.93 3201 1043.42 3204.22 1038.06C3207.45 1032.71 3209.36 1026.68 3209.82 1020.44C3209.82 1009.41 3201.26 1005.22 3191.25 1011.12L2997.4 1123.19C2992.1 1126.5 2987.66 1131.01 2984.43 1136.36C2981.21 1141.71 2979.29 1147.75 2978.84 1153.98Z" fill="#455A64"/>
<path d="M2862.32 1301.81C2862.32 1312.84 2870.88 1317.04 2880.8 1311.13L2913.31 1292.4C2918.58 1289.08 2922.99 1284.58 2926.2 1279.24C2929.41 1273.91 2931.33 1267.89 2931.79 1261.69C2931.79 1250.57 2923.23 1246.37 2913.31 1252.28L2880.8 1271.01C2875.52 1274.34 2871.1 1278.86 2867.89 1284.21C2864.68 1289.56 2862.77 1295.59 2862.32 1301.81Z" fill="#455A64"/>
<path d="M2978.84 1234.23C2978.84 1245.26 2987.39 1249.45 2997.4 1243.55L3191.25 1131.48C3196.55 1128.17 3201 1123.66 3204.22 1118.31C3207.45 1112.96 3209.36 1106.92 3209.82 1100.69C3209.82 1089.65 3201.26 1085.46 3191.25 1091.36L2997.4 1203.43C2992.1 1206.74 2987.66 1211.25 2984.43 1216.6C2981.21 1221.96 2979.29 1227.99 2978.84 1234.23Z" fill="#455A64"/>
<path d="M2862.32 1381.62C2862.32 1392.66 2870.88 1396.85 2880.8 1390.95L2913.31 1372.21C2918.58 1368.9 2922.99 1364.39 2926.2 1359.06C2929.41 1353.72 2931.33 1347.71 2931.79 1341.5C2931.79 1330.38 2923.23 1326.19 2913.31 1332.09L2880.8 1350.83C2875.52 1354.15 2871.1 1358.67 2867.89 1364.02C2864.68 1369.37 2862.77 1375.4 2862.32 1381.62Z" fill="#455A64"/>
<path d="M2978.84 1314.47C2978.84 1325.5 2987.39 1329.7 2997.4 1323.79L3191.25 1211.73C3196.54 1208.43 3200.98 1203.92 3204.2 1198.59C3207.43 1193.25 3209.35 1187.23 3209.82 1181.02C3209.82 1169.89 3201.26 1165.7 3191.25 1171.61L2997.4 1283.67C2992.1 1286.98 2987.66 1291.5 2984.43 1296.85C2981.21 1302.2 2979.29 1308.24 2978.84 1314.47Z" fill="#455A64"/>
<path d="M3690.08 529.745L3655.86 509.641C3653.34 508.468 3650.55 507.993 3647.78 508.263C3645.01 508.534 3642.37 509.542 3640.12 511.181L3197.84 766.881C3191.38 771.111 3186 776.798 3182.14 783.484C3178.28 790.169 3176.04 797.668 3175.6 805.378V1716.46C3175.3 1719.21 3175.75 1722 3176.89 1724.53C3178.04 1727.05 3179.83 1729.23 3182.1 1730.83L3216.75 1750.85H3217.17C3219.64 1751.85 3222.33 1752.2 3224.98 1751.89C3227.62 1751.58 3230.15 1750.6 3232.32 1749.05L3349.09 1681.64V1751.87C3349.09 1764.28 3351.06 1771.46 3354.22 1773.43L3388.44 1793.36H3388.87C3392.8 1795.5 3398.53 1790.03 3404.86 1776.25L3487.76 1600.88L3674 1492.75C3680.46 1488.52 3685.83 1482.83 3689.7 1476.15C3693.56 1469.46 3695.8 1461.96 3696.24 1454.25V544.031C3696.55 541.319 3696.14 538.575 3695.06 536.069C3693.98 533.563 3692.26 531.382 3690.08 529.745Z" fill="#90CAF9"/>
<path opacity="0.4" d="M3689.14 529.231C3686.68 528.353 3684.05 528.073 3681.46 528.415C3678.87 528.757 3676.4 529.711 3674.25 531.199L3232.06 787.071C3225.64 791.066 3220.34 796.63 3216.66 803.239L3181.93 783.135C3185.61 776.527 3190.91 770.963 3197.33 766.967L3639.43 511.095C3642.4 509.254 3645.79 508.222 3649.27 508.101C3651.31 508.073 3653.31 508.574 3655.09 509.555L3689.14 529.231Z" fill="white"/>
<path opacity="0.2" d="M3354.13 1773.86C3350.97 1771.89 3349 1764.7 3349 1752.3V1682.15L3383.73 1662.05V1772.32C3383.73 1784.12 3385.53 1791.31 3388.44 1793.7L3354.13 1773.86Z" fill="black"/>
<path opacity="0.1" d="M3216.66 1751.02L3182.01 1731C3179.78 1729.39 3178.02 1727.22 3176.89 1724.72C3175.76 1722.21 3175.32 1719.45 3175.6 1716.71V805.634C3175.88 797.732 3178.21 790.037 3182.36 783.307L3217.09 803.41C3212.94 810.141 3210.61 817.835 3210.33 825.738V1736.82C3210.04 1739.53 3210.47 1742.27 3211.58 1744.77C3212.7 1747.26 3214.45 1749.42 3216.66 1751.02Z" fill="black"/>
<path d="M3298.02 829.245L3608.47 649.596C3618.65 643.694 3626.94 648.484 3626.94 660.29V858.16C3626.6 864.594 3624.75 870.857 3621.54 876.444C3618.33 882.031 3613.85 886.786 3608.47 890.326L3298.02 1069.98C3287.75 1075.88 3279.45 1071.09 3279.45 1059.28V861.326C3279.8 854.894 3281.66 848.636 3284.89 843.062C3288.12 837.487 3292.61 832.753 3298.02 829.245Z" fill="#455A64"/>
<path d="M3626.94 939.687C3626.5 945.91 3624.59 951.939 3621.38 957.289C3618.17 962.639 3613.75 967.159 3608.47 970.484L3298.02 1149.71C3287.75 1155.61 3279.45 1151.42 3279.45 1140.29C3279.92 1134.08 3281.84 1128.06 3285.07 1122.72C3288.29 1117.39 3292.73 1112.88 3298.02 1109.58L3608.47 930.362C3618.65 924.459 3626.94 928.651 3626.94 939.687Z" fill="#455A64"/>
<path d="M3626.94 1019.93C3626.5 1026.15 3624.59 1032.18 3621.38 1037.53C3618.17 1042.88 3613.75 1047.4 3608.47 1050.73L3298.02 1229.95C3287.75 1235.85 3279.45 1231.66 3279.45 1220.54C3279.92 1214.32 3281.84 1208.3 3285.07 1202.97C3288.29 1197.63 3292.73 1193.13 3298.02 1189.83L3608.47 1010.95C3618.65 1004.7 3626.94 1008.89 3626.94 1019.93Z" fill="#455A64"/>
<path d="M3626.94 1100.17C3626.46 1106.35 3624.53 1112.33 3621.32 1117.63C3618.12 1122.93 3613.71 1127.41 3608.47 1130.71L3298.02 1310.36C3287.75 1316.27 3279.45 1312.07 3279.45 1300.95C3279.92 1294.74 3281.84 1288.72 3285.07 1283.38C3288.29 1278.04 3292.73 1273.54 3298.02 1270.24L3608.47 1090.85C3618.65 1084.95 3626.94 1089.14 3626.94 1100.17Z" fill="#455A64"/>
<path d="M3626.94 1180.42C3626.5 1186.64 3624.59 1192.67 3621.38 1198.02C3618.17 1203.37 3613.75 1207.89 3608.47 1211.21L3298.02 1390.86C3287.75 1396.77 3279.45 1392.57 3279.45 1381.45C3279.92 1375.24 3281.84 1369.21 3285.07 1363.88C3288.29 1358.54 3292.73 1354.04 3298.02 1350.74L3608.47 1171.09C3618.65 1164.93 3626.94 1169.38 3626.94 1180.42Z" fill="#455A64"/>
<path d="M3279.45 1461.35C3279.45 1472.39 3288.01 1476.58 3298.02 1470.68L3330.44 1451.94C3335.73 1448.64 3340.16 1444.14 3343.39 1438.81C3346.61 1433.47 3348.54 1427.45 3349 1421.23C3349 1410.11 3340.45 1405.92 3330.44 1411.82L3298.02 1430.56C3292.72 1433.87 3288.27 1438.38 3285.05 1443.73C3281.82 1449.08 3279.9 1455.12 3279.45 1461.35Z" fill="#455A64"/>
<path d="M3396.05 1394.2C3396.05 1405.23 3404.61 1409.43 3414.62 1403.52L3608.47 1291.46C3613.75 1288.13 3618.17 1283.61 3621.38 1278.26C3624.59 1272.91 3626.5 1266.88 3626.95 1260.66C3626.95 1249.62 3618.39 1245.43 3608.47 1251.34L3414.53 1363.4C3409.25 1366.73 3404.83 1371.25 3401.62 1376.6C3398.41 1381.95 3396.5 1387.98 3396.05 1394.2Z" fill="#455A64"/>
<path d="M3279.45 1541.34C3279.45 1552.38 3288.01 1556.57 3298.02 1550.66L3330.44 1531.93C3335.73 1528.63 3340.16 1524.13 3343.39 1518.79C3346.61 1513.46 3348.54 1507.44 3349 1501.22C3349 1490.1 3340.45 1485.91 3330.44 1491.81L3298.02 1510.54C3292.72 1513.85 3288.27 1518.37 3285.05 1523.72C3281.82 1529.07 3279.9 1535.11 3279.45 1541.34Z" fill="#455A64"/>
<path d="M3396.05 1474.44C3396.05 1485.48 3404.61 1489.67 3414.62 1483.77L3608.47 1371.7C3613.75 1368.38 3618.17 1363.86 3621.38 1358.51C3624.59 1353.16 3626.5 1347.13 3626.95 1340.9C3626.95 1329.87 3618.39 1325.68 3608.47 1331.58L3414.53 1443.65C3409.25 1446.97 3404.83 1451.49 3401.62 1456.84C3398.41 1462.19 3396.5 1468.22 3396.05 1474.44Z" fill="#455A64"/>
<path d="M3279.45 1621.84C3279.45 1632.88 3288.01 1637.07 3298.02 1631.16L3330.44 1612.43C3335.73 1609.13 3340.16 1604.63 3343.39 1599.29C3346.61 1593.96 3348.54 1587.94 3349 1581.72C3349 1570.6 3340.45 1566.41 3330.44 1572.31L3298.02 1591.04C3292.72 1594.35 3288.27 1598.87 3285.05 1604.22C3281.82 1609.57 3279.9 1615.61 3279.45 1621.84Z" fill="#455A64"/>
<path d="M3396.05 1554.69C3396.05 1565.72 3404.61 1569.91 3414.62 1564.01L3608.47 1451.94C3613.74 1448.63 3618.15 1444.12 3621.36 1438.79C3624.57 1433.45 3626.48 1427.44 3626.95 1421.23C3626.95 1410.11 3618.39 1405.92 3608.47 1411.82L3414.53 1524.23C3409.3 1527.52 3404.9 1531.99 3401.69 1537.27C3398.49 1542.56 3396.55 1548.52 3396.05 1554.69Z" fill="#455A64"/>
<path d="M4142.11 176.606L4096.09 150.257H4095.66C4075.38 138.88 4047.58 140.591 4016.78 158.299C3954.76 194.143 3904.55 281.23 3904.55 352.833C3904.55 388.506 3917.04 413.657 3937.31 425.377L3978.89 449.159L3988.81 432.05C4000.14 429.566 4011.02 425.353 4021.06 419.56C4083 383.801 4133.3 296.714 4133.3 225.111C4133.27 215.453 4132.09 205.834 4129.79 196.453L4142.11 176.606Z" fill="#90CAF9"/>
<path d="M3904.8 352.234C3904.8 387.993 3917.29 413.144 3937.57 424.864L3979.14 448.646L3989.07 432.05C4000.39 429.495 4011.26 425.256 4021.32 419.474C4056.76 397.166 4085.54 365.724 4104.64 328.452L3942.1 234.35C3919.27 269.564 3906.38 310.296 3904.8 352.234Z" fill="#263238"/>
<path d="M4142.2 176.606L4096.51 150.257H4096.09C4075.81 138.794 4048.01 140.505 4017.21 158.299C3986.39 177.272 3960.62 203.424 3942.1 234.521L4104.64 328.623C4122.33 297.21 4132.19 261.997 4133.38 225.966C4133.35 216.309 4132.17 206.689 4129.88 197.308L4142.2 176.606Z" fill="#455A64"/>
<path d="M4060.41 183.022C3998.48 218.78 3948.17 305.867 3948.17 377.898C3948.17 449.929 3998.48 478.502 4060.41 442.657C4122.35 406.813 4173.08 319.384 4173.08 247.781C4173.08 176.178 4122.43 146.921 4060.41 183.022Z" fill="#37474F"/>
<path d="M4068.63 242.306C4071.95 241.148 4075.52 240.882 4078.98 241.536C4081.8 242.189 4084.39 243.577 4086.5 245.557C4088.54 247.543 4090.09 249.973 4091.04 252.657C4092.12 255.39 4092.76 258.278 4092.92 261.212C4092.98 262.64 4092.65 264.057 4091.98 265.318C4091.46 266.443 4090.63 267.393 4089.58 268.056L4081.03 272.932C4079.66 273.787 4078.63 273.958 4077.95 273.531C4077.11 272.994 4076.46 272.22 4076.07 271.306C4075.48 270.202 4074.68 269.226 4073.71 268.433C4072.74 267.64 4071.62 267.047 4070.42 266.687C4068.51 266.411 4066.56 266.527 4064.69 267.027C4062.82 267.527 4061.08 268.401 4059.56 269.595C4057.38 270.817 4055.37 272.312 4053.57 274.044C4051.69 275.777 4050.02 277.73 4048.61 279.861C4047.19 281.921 4046.07 284.166 4045.27 286.534C4044.49 288.792 4044.09 291.161 4044.07 293.549C4043.89 295.721 4044.37 297.896 4045.44 299.794C4045.94 300.455 4046.59 300.992 4047.33 301.363C4048.07 301.734 4048.89 301.929 4049.72 301.932C4052.28 302.046 4054.85 301.787 4057.33 301.162L4068.63 298.51C4072.61 297.456 4076.74 296.995 4080.86 297.142C4083.97 297.197 4086.98 298.279 4089.41 300.221C4091.72 302.311 4093.33 305.058 4094.03 308.092C4095 312.27 4095.46 316.55 4095.4 320.838C4095.34 325.658 4094.71 330.453 4093.52 335.125C4092.27 340.092 4090.5 344.911 4088.22 349.497C4085.86 354.216 4082.99 358.663 4079.66 362.756C4076.36 366.88 4072.6 370.612 4068.45 373.878V386.453C4068.43 387.855 4068.08 389.231 4067.43 390.474C4066.99 391.62 4066.22 392.606 4065.2 393.297L4055.37 398.943C4055.05 399.231 4054.64 399.391 4054.21 399.391C4053.78 399.391 4053.37 399.231 4053.06 398.943C4052.71 398.545 4052.45 398.083 4052.29 397.584C4052.13 397.084 4052.07 396.557 4052.11 396.034V383.373C4048.85 384.52 4045.39 385.042 4041.93 384.913C4038.89 384.779 4035.94 383.834 4033.38 382.176C4030.89 380.38 4028.91 377.961 4027.65 375.161C4026.09 371.51 4025.27 367.583 4025.25 363.612C4025.17 362.182 4025.5 360.759 4026.19 359.506C4026.68 358.366 4027.48 357.387 4028.5 356.683L4037.06 351.806C4038.43 351.036 4039.45 350.78 4040.22 351.122C4041.07 351.662 4041.71 352.478 4042.02 353.432C4042.62 354.703 4043.31 355.932 4044.07 357.11C4044.88 358.225 4046.02 359.062 4047.32 359.506C4049.01 359.9 4050.77 359.9 4052.46 359.506C4055.19 358.872 4057.8 357.772 4060.16 356.255C4062.62 354.825 4064.97 353.194 4067.17 351.379C4069.35 349.542 4071.33 347.477 4073.07 345.219C4074.75 342.983 4076.13 340.539 4077.18 337.948C4078.22 335.396 4078.75 332.663 4078.72 329.906C4078.84 328.885 4078.75 327.849 4078.46 326.863C4078.16 325.877 4077.67 324.962 4077.01 324.175C4076.29 323.605 4075.47 323.183 4074.59 322.934C4073.71 322.684 4072.79 322.612 4071.88 322.72C4068.98 322.879 4066.12 323.337 4063.32 324.089C4059.9 324.945 4056.05 325.714 4051.6 326.57C4048.13 327.389 4044.55 327.649 4040.99 327.34C4038.23 327.152 4035.61 326.037 4033.55 324.175C4031.4 321.954 4029.87 319.212 4029.1 316.219C4028.04 311.765 4027.55 307.194 4027.65 302.617C4027.64 297.736 4028.28 292.876 4029.53 288.159C4030.72 283.36 4032.38 278.689 4034.49 274.215C4036.59 269.752 4039.17 265.535 4042.19 261.64C4045.08 257.842 4048.35 254.346 4051.94 251.203V238.627C4051.98 237.237 4052.3 235.869 4052.88 234.607C4053.37 233.467 4054.17 232.488 4055.19 231.784L4065.03 226.138C4065.33 225.855 4065.73 225.698 4066.14 225.698C4066.56 225.698 4066.96 225.855 4067.26 226.138C4067.63 226.519 4067.91 226.977 4068.09 227.479C4068.27 227.981 4068.33 228.516 4068.28 229.046L4068.63 242.306Z" fill="#FAFAFA"/>
<path d="M4142.11 1013.69L4096.09 987.337H4095.66C4075.38 975.873 4047.58 977.584 4016.78 995.378C3954.76 1031.14 3904.55 1118.22 3904.55 1189.83C3904.55 1225.59 3917.04 1250.65 3937.31 1262.46L3978.89 1286.15L3988.81 1269.56C4000.13 1267.03 4011 1262.82 4021.06 1257.07C4083 1221.22 4133.3 1134.14 4133.3 1062.53C4133.26 1052.88 4132.08 1043.26 4129.79 1033.87L4142.11 1013.69Z" fill="#90CAF9"/>
<path d="M3904.8 1189.66C3904.8 1225.41 3917.29 1250.48 3937.57 1262.29L3979.14 1285.98L3989.07 1269.39C4000.39 1266.83 4011.26 1262.59 4021.32 1256.81C4056.79 1234.46 4085.58 1202.96 4104.64 1165.62L3942.1 1071.52C3919.25 1106.81 3906.36 1147.63 3904.8 1189.66Z" fill="#263238"/>
<path d="M4142.2 1013.69L4096.51 987.337H4096.09C4075.81 975.873 4048.01 977.584 4017.21 995.378C3986.43 1014.42 3960.72 1040.63 3942.27 1071.77L4104.81 1165.87C4122.65 1134.18 4132.55 1098.63 4133.64 1062.28C4133.6 1052.62 4132.43 1043 4130.13 1033.62L4142.2 1013.69Z" fill="#455A64"/>
<path d="M4060.41 1020.1C3998.48 1055.86 3948.17 1142.95 3948.17 1214.55C3948.17 1286.15 3998.48 1315.15 4060.41 1279.39C4122.35 1243.64 4173.08 1156.38 4173.08 1084.95C4173.08 1013.51 4122.43 984.343 4060.41 1020.1Z" fill="#37474F"/>
<path d="M4117.56 1175.28L4003.35 1241.24C4001.98 1242.01 4000.96 1241.24 4000.96 1238.93V1137.64C4000.93 1136.66 4001.13 1135.68 4001.55 1134.79C4001.96 1133.9 4002.58 1133.12 4003.35 1132.51L4117.56 1066.55C4118.84 1065.78 4119.95 1066.55 4119.95 1068.86V1170.24C4119.97 1171.21 4119.76 1172.16 4119.34 1173.04C4118.93 1173.91 4118.32 1174.68 4117.56 1175.28Z" fill="#FAFAFA"/>
<path d="M4082.91 1093.24C4081.63 1094.01 4080.52 1093.24 4080.52 1090.93V1075.54L4040.39 1098.72V1114.12C4040.41 1115.11 4040.2 1116.09 4039.76 1116.98C4039.33 1117.87 4038.7 1118.65 4037.91 1119.25C4036.63 1120.02 4035.52 1119.25 4035.52 1116.94V1097.78C4035.51 1096.81 4035.71 1095.85 4036.13 1094.98C4036.54 1094.1 4037.16 1093.33 4037.91 1092.73L4082.91 1067.07C4084.28 1066.3 4085.31 1067.07 4085.31 1069.38V1087.94C4085.38 1088.95 4085.19 1089.97 4084.78 1090.89C4084.36 1091.82 4083.72 1092.63 4082.91 1093.24Z" fill="#FAFAFA"/>
<path d="M4082.91 1074.17L4037.91 1099.83C4036.63 1100.6 4035.52 1099.83 4035.52 1097.52V1088.97C4035.51 1087.99 4035.72 1087.02 4036.14 1086.13C4036.55 1085.24 4037.16 1084.46 4037.91 1083.83L4082.91 1058.17C4084.28 1057.4 4085.31 1058.17 4085.31 1060.48V1069.03C4085.33 1070.02 4085.13 1070.99 4084.72 1071.88C4084.3 1072.77 4083.68 1073.56 4082.91 1074.17Z" fill="#FAFAFA"/>
<path d="M4076.75 1137.39L4044.07 1156.21C4043.13 1156.81 4042.36 1156.21 4042.36 1154.5V1148.34C4042.35 1147.63 4042.5 1146.94 4042.79 1146.3C4043.09 1145.66 4043.53 1145.1 4044.07 1144.66L4076.75 1125.84C4077.78 1125.24 4078.55 1125.84 4078.55 1127.46V1133.62C4078.57 1134.35 4078.41 1135.06 4078.1 1135.72C4077.79 1136.37 4077.33 1136.94 4076.75 1137.39Z" fill="#37474F"/>
<path d="M4142.11 595.188L4096.09 568.754H4095.66C4075.38 557.291 4047.58 559.002 4016.78 576.795C3954.76 612.64 3904.55 699.641 3904.55 771.244C3904.55 807.003 3917.04 832.154 3937.31 843.874L3978.89 867.57L3988.81 850.974C4000.14 848.49 4011.02 844.278 4021.06 838.484C4083 802.64 4133.3 715.639 4133.3 644.036C4133.27 634.35 4132.09 624.701 4129.79 615.292L4142.11 595.188Z" fill="#90CAF9"/>
<path d="M3904.8 771.415C3904.8 807.174 3917.29 832.325 3937.57 844.045L3979.14 867.742L3989.07 851.146C4000.39 848.662 4011.27 844.449 4021.32 838.656C4056.84 816.183 4085.63 784.526 4104.64 747.034L3942.1 652.933C3919.19 688.33 3906.3 729.276 3904.8 771.415Z" fill="#263238"/>
<path d="M4142.2 595.188L4096.51 568.754H4096.09C4075.81 557.376 4048.01 559.002 4017.21 576.796C3986.43 595.839 3960.72 622.05 3942.27 653.189L4104.81 747.291C4122.55 715.743 4132.41 680.381 4133.56 644.207C4133.52 634.521 4132.34 624.873 4130.05 615.463L4142.2 595.188Z" fill="#455A64"/>
<path d="M4060.41 601.519C3998.48 637.363 3948.17 724.364 3948.17 795.967C3948.17 867.57 3998.48 896.656 4060.41 860.812C4122.35 824.968 4173.08 737.966 4173.08 666.363C4173.08 594.76 4122.43 566.102 4060.41 601.519Z" fill="#37474F"/>
<path d="M4019.09 715.468C4019.09 699.214 4027.65 681.249 4038.26 674.918C4048.86 668.588 4057.42 677.057 4057.42 693.396C4057.42 709.736 4048.86 727.615 4038.26 733.946C4027.65 740.276 4019.09 731.807 4019.09 715.468Z" fill="white"/>
<path d="M4072.47 797.593L4001.98 838.313L4005.75 791.433C4007.37 771.501 4017.9 751.055 4030.39 743.869L4043.99 735.999C4056.48 728.813 4067 737.026 4068.63 755.162L4072.47 797.593Z" fill="white"/>
<path d="M4065.63 666.62C4065.63 650.366 4074.19 632.401 4084.79 626.071C4095.4 619.74 4103.96 628.21 4103.96 644.549C4103.96 660.889 4095.4 678.768 4084.79 685.098C4074.19 691.429 4065.63 682.96 4065.63 666.62Z" fill="white"/>
<path d="M4118.84 748.745L4075.64 773.725L4073.67 751.312C4072.22 735.571 4065.12 725.648 4055.71 725.648C4059.02 713.382 4066.49 702.648 4076.84 695.278L4090.44 687.494C4102.93 680.222 4113.45 688.435 4115.08 706.571L4118.84 748.745Z" fill="white"/>
<path d="M2971.14 2343.94C2971.14 2290.9 2936.07 2237.87 2865.92 2197.4C2725.7 2116.39 2498.06 2116.39 2358.11 2197.4C2287.96 2237.87 2252.89 2290.9 2252.89 2343.94V2441.72C2252.89 2494.76 2287.96 2547.8 2358.11 2588.35C2498.32 2669.28 2725.96 2669.28 2865.92 2588.35C2936.07 2547.8 2971.14 2494.76 2971.14 2441.72V2343.94ZM2375.47 2227.43C2438.09 2191.24 2522.1 2171.4 2612.01 2171.4C2701.92 2171.4 2785.93 2191.24 2848.55 2227.43C2905.18 2260.11 2936.41 2301.51 2936.41 2343.94C2936.41 2386.38 2905.18 2427.78 2848.55 2460.46C2785.93 2496.65 2701.67 2516.58 2612.01 2516.58C2522.36 2516.58 2438.09 2496.65 2375.47 2460.46C2318.84 2427.78 2287.62 2386.38 2287.62 2343.94C2287.62 2301.51 2318.84 2259.94 2375.47 2227.43Z" fill="#90CAF9"/>
<path opacity="0.3" d="M2358.02 2490.91C2498.32 2571.84 2725.88 2571.84 2865.92 2490.91C3005.96 2409.99 3006.13 2278.67 2865.92 2197.74C2725.7 2116.82 2498.06 2116.73 2358.02 2197.74C2217.98 2278.76 2217.81 2409.64 2358.02 2490.91ZM2287.62 2344.29C2287.62 2301.51 2318.76 2260.45 2375.39 2227.77C2438.01 2191.58 2522.1 2171.74 2612.01 2171.74C2701.92 2171.74 2785.93 2191.58 2848.55 2227.77C2905.18 2260.45 2936.32 2301.85 2936.32 2344.29C2936.32 2386.72 2905.18 2428.12 2848.55 2460.8C2785.93 2496.65 2701.67 2516.58 2612.01 2516.58C2522.36 2516.58 2438.01 2496.65 2375.39 2460.46C2318.76 2427.78 2287.62 2386.38 2287.62 2343.94V2344.29Z" fill="white"/>
<path d="M2287.62 2343.94C2287.83 2361.22 2292.67 2378.12 2301.65 2392.88C2315.85 2368.24 2340.91 2345.06 2375.47 2325.21C2438.01 2289.02 2522.1 2269.09 2612.01 2269.09C2701.92 2269.09 2785.93 2289.02 2848.55 2325.21C2878.6 2341.03 2904.06 2364.34 2922.46 2392.88C2931.38 2378.1 2936.19 2361.2 2936.41 2343.94C2936.41 2301.17 2905.18 2260.11 2848.55 2227.43C2785.93 2191.33 2701.92 2171.4 2612.01 2171.4C2522.1 2171.4 2438.01 2191.33 2375.47 2227.43C2318.76 2259.94 2287.62 2301.51 2287.62 2343.94Z" fill="#90CAF9"/>
<path opacity="0.1" d="M2287.62 2343.94C2287.83 2361.22 2292.67 2378.12 2301.65 2392.88C2315.85 2368.24 2340.91 2345.06 2375.47 2325.21C2438.01 2289.02 2522.1 2269.09 2612.01 2269.09C2701.92 2269.09 2785.93 2289.02 2848.55 2325.21C2878.6 2341.03 2904.06 2364.34 2922.46 2392.88C2931.38 2378.1 2936.19 2361.2 2936.41 2343.94C2936.41 2301.17 2905.18 2260.11 2848.55 2227.43C2785.93 2191.33 2701.92 2171.4 2612.01 2171.4C2522.1 2171.4 2438.01 2191.33 2375.47 2227.43C2318.76 2259.94 2287.62 2301.51 2287.62 2343.94Z" fill="black"/>
<path opacity="0.4" d="M2375.39 2271.66C2438.01 2235.56 2522.1 2215.62 2612.01 2215.62C2701.92 2215.62 2785.93 2235.56 2848.55 2271.66C2895.26 2298.69 2924.6 2331.54 2933.5 2365.76C2924.94 2399.98 2895.26 2433.17 2848.55 2459.86C2785.93 2496.65 2701.67 2516.58 2612.01 2516.58C2522.36 2516.58 2438.01 2496.65 2375.39 2460.46C2328.68 2433.51 2299.34 2400.58 2290.53 2366.36C2299.59 2331.54 2328.68 2298.69 2375.39 2271.66Z" fill="white"/>
<path opacity="0.1" d="M2527.41 2545.49V2643.19C2468 2635.83 2410.55 2617.22 2358.11 2588.35C2287.96 2547.8 2252.89 2494.76 2252.89 2441.72V2343.94C2252.91 2333.14 2254.35 2322.38 2257.16 2311.95C2240.05 2375.08 2273.76 2441.9 2358.02 2490.57C2410.48 2519.47 2467.97 2538.11 2527.41 2545.49Z" fill="black"/>
<path d="M2368.72 2552.76C2368.28 2544.04 2365.79 2535.54 2361.45 2527.96C2357.11 2520.38 2351.04 2513.93 2343.74 2509.14C2341.21 2507.29 2338.25 2506.14 2335.14 2505.81C2332.03 2505.48 2328.88 2505.98 2326.03 2507.25L2205.49 2576.46C2202.9 2578.22 2200.85 2580.66 2199.55 2583.52C2198.25 2586.37 2197.76 2589.52 2198.14 2592.63C2198.51 2601.32 2200.92 2609.81 2205.17 2617.4C2209.42 2624.99 2215.39 2631.48 2222.6 2636.34C2225.14 2638.2 2228.12 2639.35 2231.25 2639.67C2234.38 2639.98 2237.54 2639.46 2240.4 2638.14L2361.27 2569.19C2363.87 2567.36 2365.92 2564.88 2367.23 2561.99C2368.54 2559.1 2369.05 2555.92 2368.72 2552.76Z" fill="#37474F"/>
<path d="M2361.27 2569.1C2363.85 2567.29 2365.9 2564.81 2367.21 2561.94C2368.51 2559.07 2369.04 2555.9 2368.72 2552.76C2368.61 2546.27 2367.18 2539.87 2364.52 2533.94L2208.57 2623.08C2212.31 2628.4 2217.09 2632.91 2222.6 2636.34C2225.14 2638.2 2228.12 2639.35 2231.25 2639.67C2234.38 2639.98 2237.54 2639.46 2240.4 2638.14L2361.27 2569.19V2569.1Z" fill="#263238"/>
<path d="M2242.96 2636.34C2242.41 2624.97 2239.17 2613.89 2233.52 2604.01C2227.87 2594.12 2219.97 2585.71 2210.45 2579.46C2207.21 2577.09 2203.4 2575.62 2199.41 2575.18C2195.41 2574.75 2191.38 2575.37 2187.7 2576.97L1786.74 2790.84L1846.62 2896.58L2233.64 2657.05C2236.86 2654.71 2239.42 2651.57 2241.05 2647.94C2242.69 2644.3 2243.35 2640.31 2242.96 2636.34Z" fill="#90CAF9"/>
<path opacity="0.1" d="M1846.19 2896.49L2233.21 2656.96C2236.56 2654.63 2239.23 2651.43 2240.93 2647.72C2242.63 2644 2243.3 2639.9 2242.88 2635.83C2242.39 2623.66 2238.64 2611.84 2232.01 2601.61L1815.4 2841.66L1846.19 2896.49Z" fill="black"/>
<path d="M1816 2892.99C1803.5 2884.79 1793.11 2873.77 1785.68 2860.81C1778.25 2847.84 1773.98 2833.31 1773.22 2818.39C1773.22 2791.01 1792.56 2779.98 1816 2793.75C1828.49 2801.92 1838.88 2812.93 1846.31 2825.88C1853.74 2838.83 1858.01 2853.35 1858.77 2868.26C1858.94 2896.07 1839.69 2907.1 1816 2892.99Z" fill="#90CAF9"/>
<g opacity="0.2">
<path d="M1816 2892.99C1803.5 2884.79 1793.11 2873.77 1785.68 2860.81C1778.25 2847.84 1773.98 2833.31 1773.22 2818.39C1773.22 2791.01 1792.56 2779.98 1816 2793.75C1828.49 2801.92 1838.88 2812.93 1846.31 2825.88C1853.74 2838.83 1858.01 2853.35 1858.77 2868.26C1858.94 2896.07 1839.69 2907.1 1816 2892.99Z" fill="black"/>
</g>
<path d="M4179.32 1948.2C4183.69 1785.66 4170.77 1746.57 4127.4 1716.71L4110.29 1810.81C4110.29 1810.81 4130.05 1922.03 4127.91 1958.9C4126.11 1991.4 4122.95 2032.12 4115.25 2058.39C4113.84 2063.01 4110.8 2066.96 4106.69 2069.51C4097.73 2075.89 4089.72 2083.53 4082.91 2092.18C4076.41 2099.02 4070.85 2100.73 4071.7 2102.87C4072.95 2105.26 4075.06 2107.09 4077.59 2107.99C4080.13 2108.9 4082.92 2108.81 4085.39 2107.75C4090.94 2105.55 4096.2 2102.67 4101.05 2099.19C4097.21 2109.17 4091.81 2118.47 4085.05 2126.74C4069.57 2145.65 4068.88 2157.28 4100.11 2157.62C4119.7 2157.62 4135.35 2145.73 4150.07 2102.62C4155.75 2086.81 4160.36 2070.63 4163.84 2054.2C4171.16 2019.21 4176.33 1983.82 4179.32 1948.2Z" fill="#FFA8A7"/>
<path d="M4090.95 1704.39C4104.26 1702.01 4117.98 1704.02 4130.04 1710.12C4142.11 1716.21 4151.87 1726.06 4157.85 1738.18C4175.99 1770.61 4180.44 1826.47 4182.49 1881.99C4182.49 1881.99 4146.47 1912.19 4103.19 1897.39L4090.95 1704.39Z" fill="#90CAF9"/>
<path d="M4151.78 2599.22C4155.03 2600.5 4155.88 2606.74 4156.4 2619.15C4156.4 2628.56 4158.71 2644.81 4147.84 2648.32C4136.98 2651.83 4120.64 2649.86 4113.62 2641.05C4105.07 2629.93 4098.82 2620.26 4086.25 2606.83C4075.3 2595.11 4063.49 2584.16 4059.13 2567.74C4055.11 2552.85 4058.45 2546.43 4068.54 2542.07C4082.48 2536.17 4104.38 2555.59 4115.33 2558.58C4124.57 2561.15 4148.44 2598.02 4151.78 2599.22Z" fill="#263238"/>
<path d="M4151.78 2587.75V2602.98C4146.05 2606.65 4139.43 2608.69 4132.63 2608.87C4125.83 2609.05 4119.11 2607.37 4113.2 2604.01C4112.51 2602.55 4109.17 2582.19 4109.17 2582.19L4151.78 2587.75Z" fill="#FFA8A7"/>
<path d="M4028.08 2687.67C4030.78 2695.84 4033.03 2704.15 4034.83 2712.57C4036.72 2721.81 4039.45 2737.2 4036.2 2744.13C4032.95 2751.06 4020.38 2755.6 4000.79 2755.43C3984.53 2757.41 3968.9 2762.87 3954.93 2771.42C3936.72 2779.15 3916.9 2782.3 3897.19 2780.58C3880.08 2778.61 3861.77 2768.51 3858.95 2761.33C3856.13 2754.14 3859.89 2746.61 3900.87 2729.16C3900.87 2729.16 3957.84 2710.6 3977.86 2688.7L4028.08 2687.67Z" fill="#263238"/>
<path d="M4028.08 2670.56V2688.36C4028.08 2694.86 4020.55 2704.53 4000.7 2703.76C3986.84 2703.24 3977.09 2699.56 3977.69 2688.1V2671.59L4028.08 2670.56Z" fill="#FFA8A7"/>
<path d="M4161.7 2385.18C4158.31 2358.13 4152.26 2331.48 4143.65 2305.62C4143.65 2305.62 4149.13 2237.18 4151.69 2171.99C4154.51 2101.76 4151.69 2013.39 4152.89 1995.85C4152.89 1995.85 3926.19 1950 3921.91 2031.27C3917.63 2112.54 3930.47 2319.22 3933.55 2354.89C3936.63 2390.57 3942.1 2422.05 3949.71 2479.88C3957.33 2537.71 3977.43 2671.76 3977.43 2671.76C3985.27 2675.75 3993.96 2677.75 4002.75 2677.57C4011.54 2677.39 4020.15 2675.04 4027.82 2670.73C4027.82 2670.73 4043.82 2508.19 4042.11 2467.22C4040.82 2436.7 4035.59 2406.48 4026.54 2377.31C4026.54 2377.31 4030.81 2310.32 4034.58 2252.07C4038.34 2193.81 4042.45 2165.83 4043.13 2140.85L4048.01 2138.46C4048.01 2138.46 4052.97 2238.98 4055.71 2274.65C4058.45 2310.32 4064.26 2344.54 4074.36 2410.76C4083.34 2468.24 4109.94 2589.89 4109.94 2589.89C4135.61 2603.92 4151.35 2588.1 4151.35 2588.1C4151.35 2588.1 4168.63 2435.05 4161.7 2385.18Z" fill="#37474F"/>
<path d="M4043.56 2140.17C4043.56 2140.17 4098.57 2113.05 4126.11 2088.84C4126.11 2088.84 4100.45 2124.86 4067 2140.77C4067 2140.77 4055.02 2265.67 4055.11 2263.19L4048.18 2140.17H4043.56Z" fill="#263238"/>
<path d="M3994.63 1678.64L4008.06 1752.47L4074.7 1747.59L4060.75 1663.93L3994.63 1678.64Z" fill="#FFA8A7"/>
<path d="M4145.19 1742.21C4138.52 1722.1 4113.11 1700.29 4087.62 1704.99C4049.87 1711.46 4012.66 1720.79 3976.32 1732.88C3952.97 1741.44 3931.75 1761.37 3929.78 1838.1C3929.78 1838.1 3922 2017.07 3921.83 2051.97C3970.52 2071.08 4023.55 2076.32 4075.04 2067.11C4145.19 2051.8 4153.66 2022.71 4153.66 2022.71C4153.66 2022.71 4154.51 1894.39 4152.46 1838.45C4150.32 1790.97 4149.72 1755.98 4145.19 1742.21Z" fill="#F5F5F5"/>
<path d="M3943.13 1588.82C3943.13 1588.82 3926.02 1615.77 3928.33 1618.33C3930.64 1620.9 3943.3 1622.95 3943.3 1622.95L3943.13 1588.82Z" fill="#FFA8A7"/>
<path d="M3990.09 1514.22C3954.85 1522.78 3945.01 1538.35 3942.87 1594.64C3940.73 1653.58 3947.15 1671.63 3955.1 1679.67C3960.41 1684.89 3989.32 1685.23 4003.95 1680.87C4022.17 1675.39 4063.15 1659.82 4081.89 1629.54C4103.87 1594.21 4108.83 1546.9 4083.94 1528.08C4049.03 1501.9 4004.46 1510.89 3990.09 1514.22Z" fill="#FFA8A7"/>
<path d="M3943.3 1528.94C3951.4 1540.74 3962.84 1549.85 3976.15 1555.11C3982.91 1562.81 3979.14 1592.84 3991.03 1597.89C3991.03 1597.89 3996.17 1575.99 4014.56 1578.3C4032.95 1580.61 4036.03 1603.96 4024.74 1618.67C4013.45 1633.39 4002.5 1628 4002.5 1628C4002.5 1628 4003.78 1659.05 4017.98 1676.33C4032.73 1679.2 4047.96 1678.5 4062.38 1674.28C4080 1670.09 4104.56 1647.33 4114.56 1623.64C4135.78 1573.59 4136.29 1528.94 4104.3 1516.28C4100.36 1493.43 4082.14 1483.6 4061.52 1479.4C4017.13 1470.25 3988.55 1497.97 3954.42 1495.49C3934.83 1493.86 3931.15 1508.15 3943.3 1528.94Z" fill="#263238"/>
<path d="M4105.07 1523.63L4125.94 1510.63C4125.14 1509.15 4124.05 1507.85 4122.73 1506.81C4121.4 1505.78 4119.89 1505.02 4118.26 1504.59C4116.64 1504.16 4114.94 1504.07 4113.28 1504.32C4111.62 1504.57 4110.02 1505.15 4108.6 1506.04C4107.17 1506.93 4105.94 1508.1 4104.98 1509.48C4104.03 1510.86 4103.36 1512.43 4103.03 1514.07C4102.7 1515.72 4102.71 1517.42 4103.06 1519.06C4103.41 1520.71 4104.09 1522.26 4105.07 1523.63Z" fill="#263238"/>
<path d="M3694.01 1865.82C3704.96 1870.7 3834.14 1966.17 3854.33 1955.05C3874.52 1943.93 3977.77 1823.13 3977.77 1823.13C3986.5 1809.64 3991.15 1793.91 3991.15 1777.84C3991.15 1761.76 3986.5 1746.03 3977.77 1732.54C3957.59 1736.9 3939.66 1748.42 3927.3 1764.96C3910.19 1791.14 3835.08 1884.73 3835.08 1884.73C3816.6 1875.49 3798.12 1866.08 3779.82 1856.58C3764.68 1848.71 3749.45 1840.93 3734.65 1832.46C3730.48 1830.58 3726.56 1828.16 3723.01 1825.27C3715.66 1818.09 3716.94 1800.55 3717.11 1791.05C3717.05 1786.62 3717.25 1782.2 3717.71 1777.79C3718.39 1772.32 3719.42 1759.06 3709.58 1763.25C3707.75 1764.17 3706.16 1765.52 3704.96 1767.18C3703.41 1769.19 3702.23 1771.45 3701.46 1773.86C3699.57 1779.59 3700.17 1785.92 3698.55 1791.65C3698.35 1792.53 3697.9 1793.33 3697.26 1793.96C3696.85 1794.33 3696.36 1794.6 3695.83 1794.76C3695.29 1794.92 3694.74 1794.97 3694.18 1794.9C3679.98 1794.47 3666.47 1774.54 3659.97 1763.93C3657.6 1758.9 3653.86 1754.63 3649.19 1751.62C3645.07 1750.37 3640.65 1750.54 3636.64 1752.09C3632.63 1753.64 3629.25 1756.48 3627.03 1760.17C3620.88 1769.41 3618.35 1780.58 3619.93 1791.57C3621.2 1806.48 3627.79 1820.45 3638.49 1830.92C3654.85 1845.67 3673.63 1857.48 3694.01 1865.82Z" fill="#FFA8A7"/>
<path d="M3989.32 1728.69C3975.12 1730.31 3955.1 1727.66 3927.22 1757.69C3904.7 1783.39 3883.71 1810.38 3864.34 1838.53C3868.02 1853.31 3875.87 1866.71 3886.96 1877.14C3898.05 1887.58 3911.9 1894.61 3926.87 1897.39C3926.87 1897.39 3975.72 1847.26 3989.32 1819.71C4002.92 1792.16 4006.18 1747.34 3989.32 1728.69Z" fill="#90CAF9"/>
<defs>
<filter id="filter0_f_2108_1067" x="1077.44" y="239.443" width="5261.11" height="4291.11" filterUnits="userSpaceOnUse" color-interpolation-filters="sRGB">
<feFlood flood-opacity="0" result="BackgroundImageFix"/>
<feBlend mode="normal" in="SourceGraphic" in2="BackgroundImageFix" result="shape"/>
<feGaussianBlur stdDeviation="284.278" result="effect1_foregroundBlur_2108_1067"/>
</filter>
<linearGradient id="paint0_linear_2108_1067" x1="3708" y1="808" x2="3708" y2="3962" gradientUnits="userSpaceOnUse">
<stop stop-color="#16B6F0" stop-opacity="0.36"/>
<stop offset="1" stop-color="#1653F0" stop-opacity="0.6"/>
</linearGradient>
<linearGradient id="paint1_linear_2108_1067" x1="1049.5" y1="3665.68" x2="1049.5" y2="6441.82" gradientUnits="userSpaceOnUse">
<stop stop-color="#EAF0FF" stop-opacity="0.05"/>
<stop offset="1" stop-color="#EAF0FF"/>
</linearGradient>
<clipPath id="clip0_2108_1067">
<rect width="5371" height="3529" fill="white"/>
</clipPath>
</defs>
</svg>
