<svg width="5371" height="3529" viewBox="0 0 5371 3529" fill="none" xmlns="http://www.w3.org/2000/svg">
<g clip-path="url(#clip0_2108_1179)">
<rect width="5371" height="3529" fill="#EAF0FF"/>
<g filter="url(#filter0_f_2108_1179)">
<ellipse cx="3708" cy="2385" rx="2062" ry="1577" fill="url(#paint0_linear_2108_1179)" fill-opacity="0.5"/>
</g>
<rect y="589" width="2099" height="6141" fill="url(#paint1_linear_2108_1179)"/>
</g>
<path d="M2731.51 3409.47C3612.16 3409.47 4326.06 2997.3 4326.06 2488.85C4326.06 1980.41 3612.16 1568.23 2731.51 1568.23C1850.86 1568.23 1136.96 1980.41 1136.96 2488.85C1136.96 2997.3 1850.86 3409.47 2731.51 3409.47Z" fill="#F5F5F5"/>
<path d="M2592.23 3014.1L1936.1 2635.1C1919.85 2625.76 1919.85 2610.6 1936.1 2601.27L2647.19 2190.94C2656.27 2186.33 2666.31 2183.93 2676.49 2183.93C2686.67 2183.93 2696.71 2186.33 2705.79 2190.94L3362.27 2569.93C3378.44 2579.27 3378.44 2594.36 3362.27 2603.77L2650.84 3014.1C2641.76 3018.71 2631.72 3021.11 2621.54 3021.11C2611.35 3021.11 2601.31 3018.71 2592.23 3014.1Z" fill="#E0E0E0"/>
<path d="M3721.16 2983.17C3891.79 2983.17 4030.11 2903.3 4030.11 2804.77C4030.11 2706.25 3891.79 2626.38 3721.16 2626.38C3550.53 2626.38 3412.21 2706.25 3412.21 2804.77C3412.21 2903.3 3550.53 2983.17 3721.16 2983.17Z" fill="#E0E0E0"/>
<path d="M1535.71 2848.56L1260.67 2689.79C1245.17 2680.86 1245.17 2666.3 1260.67 2657.37L2860.5 1733.71C2869.21 1729.3 2878.83 1727 2888.59 1727C2898.35 1727 2907.97 1729.3 2916.68 1733.71L3191.72 1892.48C3207.22 1901.48 3207.22 1915.96 3191.72 1924.9L1591.89 2848.56C1583.19 2853 1573.57 2855.31 1563.8 2855.31C1554.04 2855.31 1544.41 2853 1535.71 2848.56Z" fill="#E0E0E0"/>
<path d="M2524.35 2534.13L2760.82 2397.42C2785.18 2383.34 2797.36 2364.87 2797.36 2346.46C2797.36 2328.05 2797.36 2313.57 2797.36 2313.57L2552.03 2175.23C2545.2 2170.78 2539.51 2164.79 2535.42 2157.73C2531.33 2150.68 2528.95 2142.77 2528.48 2134.63V1882.26L2115.64 2120.89V2373.12C2116.12 2381.26 2118.5 2389.18 2122.59 2396.23C2126.68 2403.28 2132.37 2409.28 2139.2 2413.73L2347.91 2533.99C2396.57 2562.28 2475.62 2562.28 2524.35 2534.13Z" fill="#263238"/>
<path d="M2214.79 2424.7V2457.45L2139.06 2413.87C2132.25 2409.4 2126.57 2403.41 2122.49 2396.36C2118.41 2389.3 2116.05 2381.39 2115.58 2373.26V2120.89L2194.22 2075.48C2195.91 2095.44 2197.67 2116.09 2199.29 2136.39L2144.14 2168.33V2356.75C2144.58 2364.89 2146.94 2372.81 2151.02 2379.86C2155.1 2386.92 2160.79 2392.91 2167.62 2397.35L2214.79 2424.7Z" fill="black"/>
<path d="M2144.07 2356.68C2144.53 2364.82 2146.9 2372.74 2150.99 2379.8C2155.08 2386.85 2160.78 2392.84 2167.62 2397.29L2347.78 2501.1C2396.57 2529.26 2475.62 2529.26 2524.35 2501.1L2760.88 2364.39C2809.68 2336.31 2809.68 2290.69 2760.88 2262.88L2580.59 2158.99C2573.75 2154.55 2568.06 2148.55 2563.97 2141.5C2559.88 2134.45 2557.5 2126.53 2557.04 2118.39V1929.57L2144.2 2168.2L2144.07 2356.68Z" fill="#455A64"/>
<path d="M2628.57 2186.54L2580.66 2158.86C2573.82 2154.41 2568.13 2148.42 2564.04 2141.36C2559.95 2134.31 2557.57 2126.39 2557.11 2118.25V1929.57L2144.27 2168.2V2356.68C2144.73 2364.82 2147.1 2372.74 2151.2 2379.8C2155.29 2386.85 2160.98 2392.84 2167.82 2397.29L2215.2 2424.36L2628.57 2186.54Z" fill="#37474F"/>
<path d="M2797.43 2313.57V2346.6C2797.43 2365.07 2785.18 2383.41 2760.88 2397.56L2524.42 2534.06C2498.5 2547.92 2469.55 2555.1 2440.16 2554.97V2522.56C2469.55 2522.68 2498.5 2515.5 2524.42 2501.64L2760.88 2364.87C2785.32 2350.52 2797.43 2332.04 2797.43 2313.57Z" fill="#37474F"/>
<path d="M1480.96 2639.84C1489.89 2644.16 1499.71 2646.31 1509.62 2646.12C1519.53 2645.93 1529.26 2643.41 1538.02 2638.76L3135.21 1716.65C3143.78 1711.07 3150.91 1703.55 3156.03 1694.69C3161.15 1685.84 3164.1 1675.9 3164.65 1665.69V412.908C3164.32 403.026 3161.67 393.36 3156.9 384.694C3152.14 376.028 3145.4 368.606 3137.24 363.03C3128.33 358.715 3118.52 356.563 3108.62 356.752C3098.72 356.94 3089 359.462 3080.25 364.113L1483.06 1286.22C1474.5 1291.79 1467.38 1299.31 1462.28 1308.15C1457.18 1316.99 1454.23 1326.92 1453.69 1337.11V2590.23C1454.07 2600.05 1456.73 2609.65 1461.46 2618.26C1466.2 2626.87 1472.87 2634.26 1480.96 2639.84Z" fill="#455A64"/>
<path d="M1538.02 2638.69L3135.21 1716.65C3143.76 1711.06 3150.88 1703.53 3155.98 1694.68C3161.09 1685.83 3164.03 1675.89 3164.58 1665.69V412.908C3164.58 394.162 3151.45 386.514 3135.21 395.921L1538.02 1317.89C1529.45 1323.48 1522.32 1331 1517.2 1339.85C1512.09 1348.71 1509.13 1358.64 1508.58 1368.85V2621.57C1508.58 2640.52 1521.77 2648.1 1538.02 2638.69Z" fill="#37474F"/>
<path d="M1533.68 2672.33C1525.33 2675.92 1516.3 2677.68 1507.21 2677.49C1498.11 2677.3 1489.17 2675.17 1480.96 2671.24C1472.76 2665.66 1465.99 2658.22 1461.19 2649.53C1456.4 2640.84 1453.71 2631.15 1453.35 2621.23V2542.86L1508.58 2574.8V2653.17C1508.58 2670.3 1519.74 2678.21 1533.68 2672.33Z" fill="#37474F"/>
<path d="M1508.58 2574.8V2653.11C1508.58 2671.85 1522.11 2679.5 1538.02 2670.09L3135.21 1747.99C3143.73 1742.35 3150.81 1734.79 3155.86 1725.91C3160.92 1717.04 3163.81 1707.09 3164.31 1696.89V1618.45L1508.58 2574.8Z" fill="#455A64"/>
<path d="M1563.8 2427.2V1387.26C1564.14 1381.15 1565.92 1375.19 1568.98 1369.89C1572.05 1364.59 1576.33 1360.08 1581.47 1356.74L3091.69 484.783C3101.44 479.166 3109.36 483.7 3109.36 494.935V1534.87C3109.03 1541 3107.26 1546.96 3104.19 1552.28C3101.12 1557.6 3096.84 1562.11 3091.69 1565.46L1581.4 2437.42C1571.65 2443.04 1563.8 2438.43 1563.8 2427.2Z" fill="#90CAF9"/>
<path d="M1563.8 2427.2V1387.26C1564.14 1381.15 1565.92 1375.19 1568.98 1369.89C1572.05 1364.59 1576.33 1360.08 1581.47 1356.74L3091.69 484.783C3101.44 479.166 3109.36 483.7 3109.36 494.935V1534.87C3109.03 1541 3107.26 1546.96 3104.19 1552.28C3101.12 1557.6 3096.84 1562.11 3091.69 1565.46L1581.4 2437.42C1571.65 2443.04 1563.8 2438.43 1563.8 2427.2Z" fill="#90CAF9"/>
<path opacity="0.8" d="M1563.8 2427.2V1387.26C1564.14 1381.15 1565.92 1375.19 1568.98 1369.89C1572.05 1364.59 1576.33 1360.08 1581.47 1356.74L3091.69 484.783C3101.44 479.166 3109.36 483.7 3109.36 494.935V1534.87C3109.03 1541 3107.26 1546.96 3104.19 1552.28C3101.12 1557.6 3096.84 1562.11 3091.69 1565.46L1581.4 2437.42C1571.65 2443.04 1563.8 2438.43 1563.8 2427.2Z" fill="white"/>
<path d="M2336.55 2125.9C2329.49 2130.54 2323.61 2136.77 2319.39 2144.1C2315.17 2151.42 2312.73 2159.62 2312.25 2168.06C2312.25 2183.56 2323.15 2189.85 2336.55 2182.07C2343.64 2177.47 2349.54 2171.26 2353.78 2163.95C2358.01 2156.63 2360.46 2148.42 2360.91 2139.98C2360.91 2124.41 2350.01 2118.12 2336.55 2125.9Z" fill="#90CAF9"/>
<path d="M1517.24 1339.89C1512.01 1348.71 1509.04 1358.68 1508.58 1368.92V2574.8L1453.35 2542.86V1337.11C1453.71 1326.86 1456.7 1316.86 1462.01 1308.08L1517.24 1339.89Z" fill="#263238"/>
<path d="M1871.67 1447.5L2774.35 926.379L2810.49 947.224C2815.43 950.458 2819.54 954.807 2822.49 959.92C2825.44 965.034 2827.15 970.769 2827.48 976.663V1642.75C2827.15 1648.63 2825.44 1654.36 2822.49 1659.46C2819.54 1664.56 2815.43 1668.9 2810.49 1672.12L1941.44 2173.48C1936.19 2176.09 1930.39 2177.45 1924.52 2177.45C1918.65 2177.45 1912.86 2176.09 1907.6 2173.48L1888.45 2162.38C1883.51 2159.16 1879.4 2154.82 1876.45 2149.72C1873.5 2144.61 1871.79 2138.89 1871.46 2133L1871.67 1447.5Z" fill="#90CAF9"/>
<path opacity="0.2" d="M1871.67 1447.5L2774.35 926.379L2810.49 947.224C2815.43 950.458 2819.54 954.807 2822.49 959.92C2825.44 965.034 2827.15 970.769 2827.48 976.663V1642.75C2827.15 1648.63 2825.44 1654.36 2822.49 1659.46C2819.54 1664.56 2815.43 1668.9 2810.49 1672.12L1941.44 2173.48C1936.19 2176.09 1930.39 2177.45 1924.52 2177.45C1918.65 2177.45 1912.86 2176.09 1907.6 2173.48L1888.45 2162.38C1883.51 2159.16 1879.4 2154.82 1876.45 2149.72C1873.5 2144.61 1871.79 2138.89 1871.46 2133L1871.67 1447.5Z" fill="black"/>
<path d="M2769.07 867.77L2772.73 865.74L2758.72 857.619C2757.53 856.937 2756.28 856.349 2755 855.859L2357.73 708.796C2352.26 707.023 2346.38 707.011 2340.9 708.759C2335.42 710.507 2330.63 713.928 2327.21 718.541L1882.83 1367.3C1875.88 1378.47 1871.92 1391.24 1871.33 1404.39V1447.5L1884.86 1455.48L2773.74 926.311V883.201C2773.67 877.72 2772.05 872.371 2769.07 867.77Z" fill="#90CAF9"/>
<path opacity="0.1" d="M2345.41 721.451C2343.64 722.836 2342.09 724.478 2340.81 726.323L1896.37 1375.28C1892.72 1381.02 1889.94 1387.27 1888.11 1393.83L1874.58 1385.84C1875.58 1382.5 1876.78 1379.23 1878.16 1376.03C1878.77 1374.68 1879.38 1373.39 1880.06 1372.1V1371.49C1880.76 1370.14 1881.55 1368.82 1882.43 1367.57L2326.8 718.608C2327.47 717.647 2328.22 716.741 2329.03 715.901L2331.4 713.735L2345.41 721.451Z" fill="black"/>
<path opacity="0.35" d="M2772.59 865.673C2771.39 864.942 2770.12 864.33 2768.8 863.845L2371.47 716.579C2367.1 715.126 2362.43 714.811 2357.91 715.664C2353.38 716.516 2349.15 718.508 2345.61 721.452L2332.08 713.466C2335.65 710.55 2339.89 708.576 2344.42 707.725C2348.95 706.874 2353.62 707.172 2358 708.593L2755.27 855.792C2756.56 856.277 2757.81 856.889 2758.99 857.619L2772.59 865.673Z" fill="white"/>
<path d="M1878.44 1375.76C1879.04 1374.4 1879.65 1373.12 1880.33 1371.83C1879.45 1373.12 1878.84 1374.4 1878.44 1375.76Z" fill="#90CAF9"/>
<path d="M2341.01 726.324L1896.57 1375.28C1889.65 1386.56 1885.74 1399.42 1885.2 1412.64V1455.75L2787.89 934.635V891.525C2787.57 885.685 2785.61 880.053 2782.25 875.268C2778.89 870.483 2774.25 866.736 2768.87 864.454L2371.47 716.646C2366.02 714.819 2360.13 714.772 2354.66 716.512C2349.18 718.251 2344.4 721.688 2341.01 726.324Z" fill="#90CAF9"/>
<path opacity="0.05" d="M2787.82 891.525C2787.64 886.127 2785.98 880.882 2783.01 876.365L1888.32 1394.17C1886.41 1400.15 1885.36 1406.37 1885.2 1412.64V1455.75L2787.89 934.636L2787.82 891.525Z" fill="black"/>
<path d="M2271.71 1537.58C2290 1580.79 2299.41 1627.23 2299.39 1674.15V1700.48L1962.22 1876.44V1471.18C1962.2 1463.37 1963.09 1455.58 1964.86 1447.97C1965.54 1444.99 1966.42 1442.08 1967.3 1439.17L1968.78 1434.84C1970.37 1430.56 1972.27 1426.4 1974.47 1422.39C1978.07 1415.68 1982.43 1409.42 1987.46 1403.71C1988.88 1402.02 1990.44 1400.39 1992 1398.84C1993.55 1397.28 1995.25 1395.72 1996.94 1394.24C2013.08 1379.98 2033.3 1371.15 2054.73 1369C2076.17 1366.85 2097.73 1371.49 2116.39 1382.26C2116.39 1382.26 2122.35 1379.82 2133.31 1375.49C2182.45 1406.05 2223.31 1448.23 2252.29 1498.32C2259.54 1511.01 2266.03 1524.11 2271.71 1537.58Z" fill="#E0E0E0"/>
<path d="M3354.55 2575.01L2621.6 2999.14V2959.35L3354.48 2535.21L3354.55 2575.01Z" fill="#F5F5F5"/>
<path d="M2271.71 1537.58C2266.03 1524.14 2259.54 1511.05 2252.29 1498.39C2246.92 1489.14 2241.14 1480.12 2234.96 1471.32C2233.27 1468.88 2231.51 1466.45 2229.68 1464.08C2227.85 1461.71 2226.43 1459.68 2224.74 1457.31C2223.05 1454.94 2221.9 1453.66 2220.41 1451.9L2218.99 1450.14L2213.44 1443.37C2212.64 1442.35 2211.78 1441.38 2210.87 1440.46C2209.45 1438.77 2207.89 1437.07 2206.4 1435.45C2203.02 1431.73 2199.63 1428.07 2195.91 1424.62C2193.88 1422.52 2191.85 1420.49 2189.75 1418.6C2189.18 1417.98 2188.57 1417.39 2187.92 1416.84L2182.24 1411.63C2180.01 1409.6 2177.77 1407.63 2175.47 1405.74C2173.17 1403.84 2171.75 1402.56 2169.79 1401C2168.88 1400.18 2167.93 1399.41 2166.94 1398.7C2164.78 1396.94 2162.55 1395.25 2160.18 1393.56C2157.81 1391.87 2154.42 1389.23 2151.45 1386.79C2148.47 1384.35 2145.42 1382.53 2142.38 1380.56L2133.17 1374.61L2131.41 1373.53L2123.5 1368.79C2121.13 1367.43 2118.69 1366.15 2116.32 1365C2112.2 1363 2107.97 1361.22 2103.67 1359.65C2098.97 1358 2094.18 1356.62 2089.32 1355.52L2084.51 1354.58C2078.12 1353.5 2071.64 1352.96 2065.16 1352.95H2059.95C2057.39 1353.02 2054.84 1353.22 2052.3 1353.56L2048.03 1354.1L2045.26 1354.51C2044.19 1354.65 2043.13 1354.85 2042.08 1355.12H2041.67L2036.94 1356.2C2035.72 1356.48 2034.53 1356.81 2033.35 1357.21L2031.52 1357.76C2030.26 1358.12 2028.97 1358.52 2027.66 1358.97C2024.21 1360.08 2020.82 1361.39 2017.51 1362.9C2015.48 1363.78 2013.45 1364.79 2011.42 1365.81C2010.8 1366.06 2010.21 1366.38 2009.66 1366.76C2008.58 1367.3 2007.43 1367.91 2006.35 1368.58L2003.16 1370.55C1999.27 1372.92 1995.52 1375.51 1991.93 1378.33C1991.93 1378.33 1991.52 1378.67 1991.39 1378.8C1989.56 1380.29 1987.73 1381.78 1985.91 1383.47L1982.12 1387.06C1981.37 1387.74 1980.7 1388.48 1980.02 1389.16C1976.67 1392.67 1973.53 1396.38 1970.61 1400.26C1969.39 1401.88 1968.24 1403.51 1967.16 1405.2C1966.08 1406.89 1964.59 1409.12 1963.37 1411.22C1962.16 1413.19 1961.05 1415.23 1960.05 1417.31C1958.62 1420.09 1957.33 1422.93 1956.2 1425.84C1955.65 1427.19 1955.05 1428.61 1954.57 1430.1C1954.1 1431.59 1954.1 1431.39 1953.9 1432C1953.15 1434.16 1952.54 1436.33 1951.93 1438.77C1951.32 1441.2 1950.78 1443.1 1950.38 1445.53C1950 1447.01 1949.71 1448.5 1949.5 1450C1949.46 1450.56 1949.46 1451.13 1949.5 1451.69C1949.5 1453.18 1949.02 1454.6 1948.89 1456.02C1948.75 1457.45 1948.48 1459.88 1948.41 1461.84C1948.35 1463.81 1948.41 1467.19 1948.41 1469.97V1793.26H1983.2V1471.25C1983.18 1456.77 1986.97 1442.54 1994.2 1430C2001.43 1417.45 2011.84 1407.04 2024.38 1399.8C2036.91 1392.56 2051.14 1388.75 2065.62 1388.76C2080.1 1388.77 2094.32 1392.59 2106.85 1399.85C2165.38 1433.8 2211.56 1485.53 2238.68 1547.52L2279.97 1557.34C2276.99 1550.71 2274.42 1544.07 2271.71 1537.58Z" fill="#EBEBEB"/>
<path d="M2804.27 1651.34C2804 1651.82 2803.68 1652.28 2803.32 1652.7L2427.1 1533.45C2412.82 1527.14 2396.75 1526.19 2381.83 1530.78C2366.91 1535.36 2354.15 1545.18 2345.88 1558.42L1943.74 2156.15L1928.85 2164.74C1927.2 2165.9 1925.28 2166.63 1923.27 2166.85C1921.26 2167.08 1919.22 2166.79 1917.35 2166.03L2330.93 1550.16C2339.22 1536.95 2351.98 1527.16 2366.89 1522.57C2381.79 1517.97 2397.85 1518.88 2412.14 1525.12L2804.27 1651.34Z" fill="#90CAF9"/>
<path opacity="0.4" d="M2308.8 1617.1L2309.74 1616.28L1943.68 2156.15L1928.79 2164.74C1927.12 2165.88 1925.2 2166.6 1923.2 2166.82C1921.19 2167.05 1919.16 2166.77 1917.28 2166.03L2294.45 1608.37L2308.8 1617.1Z" fill="white"/>
<path opacity="0.4" d="M2804.27 1651.34C2804 1651.82 2803.68 1652.28 2803.32 1652.7L2427.1 1533.38C2412.82 1527.06 2396.73 1526.12 2381.81 1530.72C2366.89 1535.32 2354.13 1545.16 2345.89 1558.42L2331 1549.76C2339.29 1536.55 2352.06 1526.77 2366.97 1522.19C2381.88 1517.62 2397.94 1518.57 2412.21 1524.85L2804.27 1651.34Z" fill="white"/>
<path d="M2826.8 972.332C2825.99 967.459 2823.42 966.106 2820.03 968.407C2818.36 969.655 2816.9 971.163 2815.7 972.874L2813.81 975.513L2442.6 1539.88L2387.17 1617.1C2383.6 1621.6 2378.87 1625.04 2373.5 1627.05C2368.12 1629.07 2362.29 1629.58 2356.65 1628.53L2308.8 1617.16L1943.34 1482.69C1940.88 1482.19 1938.35 1482.19 1935.89 1482.69C1934.94 1482.88 1934.01 1483.18 1933.12 1483.57L1946.65 1475.58L2296.82 1604.17L2342.91 1620.68C2348.55 1621.75 2354.38 1621.24 2359.76 1619.22C2365.15 1617.21 2369.87 1613.76 2373.43 1609.25L2428.86 1532.09L2801.9 965.091C2803.03 963.547 2804.46 962.237 2806.09 961.233L2773.81 942.622L2787.35 934.839L2809.68 947.698C2814.03 950.458 2817.78 954.059 2820.72 958.289C2823.67 962.519 2825.73 967.293 2826.8 972.332Z" fill="#90CAF9"/>
<path opacity="0.4" d="M2442.6 1539.81L2387.17 1617.03C2383.6 1621.53 2378.87 1624.97 2373.49 1626.99C2368.12 1629 2362.29 1629.51 2356.65 1628.47L2308.8 1617.1L2309.74 1616.28L2312.05 1612.63L2343.38 1620.07C2349.03 1621.14 2354.86 1620.63 2360.24 1618.62C2365.62 1616.6 2370.34 1613.15 2373.9 1608.64L2428.79 1532.3L2442.6 1539.81Z" fill="white"/>
<path opacity="0.1" d="M2810.15 947.088L2787.82 934.229L2774.28 942.012L2806.57 960.624C2804.92 961.613 2803.49 962.925 2802.37 964.481L2429.33 1531.48L2428.79 1532.23L2442.32 1539.74L2813.54 975.378L2815.43 972.738C2816.63 971.028 2818.09 969.52 2819.76 968.271C2823.08 965.97 2825.65 967.324 2826.53 972.197C2825.61 967.133 2823.68 962.304 2820.87 957.993C2818.06 953.682 2814.41 949.974 2810.15 947.088Z" fill="black"/>
<path d="M1950.99 1493.45L1871.67 1447.5V2133C1872 2138.89 1873.7 2144.61 1876.66 2149.72C1879.61 2154.82 1883.72 2159.16 1888.65 2162.38L1907.81 2173.41C1913.06 2176.04 1918.85 2177.41 1924.73 2177.41C1930.6 2177.41 1936.39 2176.04 1941.65 2173.41L1951.19 2167.86L1950.99 1493.45Z" fill="#90CAF9"/>
<path opacity="0.15" d="M1950.99 1493.45L1871.67 1447.5V2133C1872 2138.89 1873.7 2144.61 1876.66 2149.72C1879.61 2154.82 1883.72 2159.16 1888.65 2162.38L1907.81 2173.41C1913.06 2176.04 1918.85 2177.41 1924.73 2177.41C1930.6 2177.41 1936.39 2176.04 1941.65 2173.41L1951.19 2167.86L1950.99 1493.45Z" fill="black"/>
<path d="M2813.81 975.513V1634.15C2813.63 1640.25 2811.81 1646.19 2808.53 1651.34C2806.04 1655.71 2802.65 1659.49 2798.58 1662.44L2797.97 1662.85L2796.82 1663.59L1928.11 2165.08C1927.07 2165.73 1925.96 2166.25 1924.79 2166.64C1924.72 2165.63 1924.72 2164.61 1924.79 2163.59V1497.65C1924.64 1495.26 1925.07 1492.88 1926.05 1490.69C1927.02 1488.51 1928.51 1486.6 1930.39 1485.12C1932.27 1483.65 1934.48 1482.65 1936.83 1482.21C1939.18 1481.77 1941.6 1481.92 1943.88 1482.62L2309.34 1617.1L2357.19 1628.47C2362.83 1629.51 2368.66 1629 2374.04 1626.99C2379.41 1624.97 2384.14 1621.53 2387.71 1617.03L2443.14 1539.81L2813.81 975.513Z" fill="#455A64"/>
<path d="M2827.14 976.596V1642.75C2826.93 1648.84 2825.11 1654.77 2821.86 1659.94C2819.34 1664.3 2815.95 1668.1 2811.91 1671.1H2811.24C2810.89 1671.38 2810.53 1671.62 2810.15 1671.85L1941.44 2173.34C1939.78 2174.52 1937.85 2175.26 1935.83 2175.5C1933.81 2175.74 1931.76 2175.46 1929.87 2174.69C1928.43 2173.85 1927.21 2172.67 1926.33 2171.26C1925.44 2169.84 1924.92 2168.24 1924.79 2166.57C1924.72 2165.56 1924.72 2164.54 1924.79 2163.53V1497.58C1924.64 1495.19 1925.07 1492.81 1926.05 1490.63C1927.02 1488.45 1928.51 1486.53 1930.39 1485.06C1932.27 1483.58 1934.48 1482.58 1936.83 1482.14C1939.18 1481.71 1941.6 1481.85 1943.88 1482.55L2309.34 1617.03L2357.19 1628.4C2362.83 1629.45 2368.66 1628.93 2374.04 1626.92C2379.41 1624.9 2384.14 1621.46 2387.71 1616.96L2443.14 1539.74L2814.35 975.378L2816.24 972.739C2822 964.144 2827.14 965.971 2827.14 976.596Z" fill="#90CAF9"/>
<path d="M2810.15 1671.92L2811.3 1671.17L2811.91 1670.77C2815.97 1667.8 2819.36 1664.02 2821.86 1659.67C2825.06 1654.58 2826.88 1648.75 2827.14 1642.75L2442.66 1539.88L2699.84 1735.47L2810.15 1671.92Z" fill="#90CAF9"/>
<path opacity="0.2" d="M2810.15 1671.92L2811.3 1671.17L2811.91 1670.77C2815.97 1667.8 2819.36 1664.02 2821.86 1659.67C2825.06 1654.58 2826.88 1648.75 2827.14 1642.75L2442.66 1539.88L2699.84 1735.47L2810.15 1671.92Z" fill="black"/>
<path d="M1924.46 2163.86C1924.21 2166.03 1924.57 2168.23 1925.5 2170.2C1926.44 2172.17 1927.9 2173.85 1929.73 2175.03C1931.61 2175.83 1933.66 2176.13 1935.69 2175.91C1937.72 2175.68 1939.65 2174.94 1941.31 2173.75L2240.44 2001.1L2308.73 1617.44L1924.32 2152.9L1924.46 2163.86Z" fill="#90CAF9"/>
<path opacity="0.15" d="M2345.41 1558.35L1929.46 2174.76C1927.63 2173.58 1926.17 2171.9 1925.23 2169.93C1924.3 2167.96 1923.94 2165.76 1924.19 2163.59V2152.56L2330.25 1550.23L2345.41 1558.35Z" fill="black"/>
<path d="M2821.86 1659.67C2819.36 1664.02 2815.97 1667.8 2811.91 1670.77L2811.3 1671.17L1941.44 2173.41C1939.79 2174.6 1937.85 2175.35 1935.83 2175.57C1933.8 2175.8 1931.75 2175.49 1929.87 2174.69L2345.88 1558.22C2354.21 1544.9 2367.06 1535.03 2382.08 1530.42C2397.1 1525.81 2413.27 1526.76 2427.64 1533.11L2821.86 1659.67Z" fill="#90CAF9"/>
<path d="M2821.86 1659.67C2819.38 1664.03 2815.98 1667.82 2811.91 1670.77L2811.3 1671.17L1941.44 2173.41C1939.77 2174.56 1937.84 2175.29 1935.82 2175.51C1933.8 2175.74 1931.75 2175.46 1929.87 2174.69L1941.44 2156.28L2796.14 1663.05L2796.82 1662.64C2800.42 1660.01 2803.48 1656.7 2805.82 1652.9L2821.86 1659.67Z" fill="#90CAF9"/>
<path opacity="0.15" d="M1874.51 1385.57L1888.05 1393.56C1886.19 1399.75 1885.23 1406.18 1885.2 1412.64V1455.69L1871.67 1447.7V1404.59C1871.71 1398.15 1872.66 1391.74 1874.51 1385.57Z" fill="black"/>
<path d="M1947.13 1475.31L1933.32 1483.3L1919.38 1475.24L1885.07 1455.48L1898.4 1447.56L1947.13 1475.31Z" fill="#90CAF9"/>
<path opacity="0.1" d="M1947.74 1475.58L1898.74 1447.56L1885.2 1455.48L1919.52 1475.24L1933.46 1483.3L1936.1 1482.49C1938.55 1481.98 1941.08 1481.98 1943.54 1482.49L1971.29 1492.77L2290.12 1610.13L2295.13 1602.75L1947.74 1475.58Z" fill="black"/>
<path d="M3352.86 2536.5L2619.98 2960.63L2473.52 2876.04C2420.02 2845.22 2375.58 2800.84 2344.69 2747.37C2313.79 2693.9 2297.54 2633.24 2297.56 2571.49V1675.44C2297.61 1628.52 2288.22 1582.08 2269.95 1538.86C2264.27 1525.42 2257.78 1512.34 2250.53 1499.68C2219.7 1446.27 2175.35 1401.92 2121.94 1371.09C2105.03 1361.15 2085.87 1355.68 2066.27 1355.18C2046.66 1354.68 2027.25 1359.18 2009.86 1368.25L2097.17 1317.89L2419.18 1131.98L2736.93 947.359L2737.87 946.818C2755.62 936.453 2775.8 930.991 2796.35 930.991C2816.9 930.991 2837.08 936.453 2854.82 946.818C2908.31 977.655 2952.74 1022.04 2983.63 1075.5C3014.52 1128.97 3030.78 1189.62 3030.78 1251.37V2147.49C3030.78 2209.23 3047.04 2269.89 3077.93 2323.35C3108.82 2376.82 3153.25 2421.2 3206.74 2452.04L3352.86 2536.5Z" fill="white"/>
<path d="M2796.41 930.982V937.75C2815.77 937.774 2834.76 942.96 2851.44 952.774C2903.86 983.008 2947.39 1026.52 2977.65 1078.92C3007.91 1131.33 3023.83 1190.78 3023.81 1251.3V2147.49C3023.92 2210.36 3040.53 2272.1 3071.96 2326.55C3103.4 2381 3148.56 2426.25 3202.95 2457.79L3339.32 2536.57L2619.98 2952.78L2476.84 2870.15C2424.54 2839.83 2381.12 2796.3 2350.93 2743.92C2320.73 2691.54 2304.83 2632.15 2304.8 2571.69V1675.44C2304.78 1612.53 2288.17 1550.73 2256.66 1496.28C2225.15 1441.83 2179.85 1396.64 2125.32 1365.27C2106.59 1354.27 2085.26 1348.47 2063.53 1348.49C2061.57 1348.49 2059.61 1348.49 2057.58 1348.49L2100.55 1323.72L2422.56 1137.74L2740.65 953.113L2741.46 952.639C2758.22 942.901 2777.24 937.742 2796.62 937.682V930.914M2796.62 930.914C2776.05 930.973 2755.87 936.434 2738.08 946.751L2737.13 947.292L2419.18 1131.98L2097.17 1317.9L2009.86 1368.25C2026.46 1359.69 2044.86 1355.21 2063.53 1355.19C2084.07 1355.2 2104.23 1360.69 2121.94 1371.09C2175.35 1401.92 2219.7 1446.27 2250.53 1499.68C2257.78 1512.34 2264.27 1525.42 2269.95 1538.86C2288.38 1582.04 2297.93 1628.49 2298.04 1675.44V2571.69C2298.01 2633.44 2314.27 2694.11 2345.16 2747.57C2376.05 2801.04 2420.49 2845.42 2474 2876.24L2620.45 2960.84L3353.33 2536.7L3206.81 2452.1C3153.32 2421.27 3108.89 2376.88 3078 2323.42C3047.11 2269.96 3030.85 2209.3 3030.85 2147.56V1251.3C3030.85 1189.55 3014.59 1128.9 2983.7 1075.43C2952.81 1021.97 2908.38 977.588 2854.89 946.751C2837.16 936.389 2817.01 930.902 2796.48 930.847L2796.62 930.914Z" fill="#F5F5F5"/>
<path d="M2621.6 2959.35L2475.15 2874.48C2421.65 2843.65 2377.21 2799.27 2346.32 2745.81C2315.43 2692.34 2299.17 2631.68 2299.19 2569.93V1674.15C2299.11 1634.34 2292.24 1594.84 2278.88 1557.34L2237.6 1547.53L2239.83 1552.67C2255.94 1591.14 2264.22 1632.44 2264.2 1674.15V2570.41C2264.32 2638.17 2282.22 2704.72 2316.1 2763.41C2349.98 2822.1 2398.66 2870.87 2457.28 2904.87L2604.48 2989.53L2621.6 2999.14V2959.35Z" fill="#F0F0F0"/>
<path d="M2484.22 1427.74L2799.93 1245.62C2802.33 1244.15 2804.15 1241.9 2805.06 1239.24C2805.98 1236.59 2805.94 1233.69 2804.94 1231.06C2800.68 1220.71 2795.81 1210.76 2790.59 1200.61C2786.06 1192.15 2781.25 1183.89 2776.11 1175.84C2774.6 1173.56 2772.27 1171.93 2769.61 1171.3C2766.94 1170.68 2764.14 1171.09 2761.76 1172.46L2445.98 1354.71C2444.9 1355.21 2443.93 1355.92 2443.13 1356.81C2442.33 1357.69 2441.72 1358.72 2441.34 1359.85C2440.95 1360.98 2440.8 1362.17 2440.89 1363.36C2440.97 1364.54 2441.3 1365.7 2441.85 1366.76L2446.32 1373.53C2453.82 1385.59 2460.6 1398.09 2466.62 1410.95C2468.45 1414.94 2470.28 1419.01 2471.97 1423.13C2472.39 1424.3 2473.06 1425.37 2473.94 1426.25C2474.81 1427.14 2475.87 1427.83 2477.03 1428.26C2478.2 1428.7 2479.44 1428.88 2480.68 1428.79C2481.92 1428.7 2483.13 1428.34 2484.22 1427.74Z" fill="#90CAF9"/>
<path d="M2277.73 1388.28L2860.3 1052.06C2861.42 1051.52 2862.39 1050.72 2863.12 1049.72C2863.85 1048.72 2864.33 1047.56 2864.5 1046.34C2864.67 1045.11 2864.54 1043.86 2864.12 1042.7C2863.69 1041.53 2862.99 1040.5 2862.06 1039.67L2856.04 1033.85C2853.83 1031.95 2851.09 1030.76 2848.19 1030.45C2845.29 1030.13 2842.36 1030.71 2839.8 1032.09L2257.43 1368.38C2256.26 1368.82 2255.24 1369.57 2254.47 1370.56C2253.71 1371.54 2253.23 1372.72 2253.09 1373.96C2252.95 1375.2 2253.15 1376.45 2253.68 1377.58C2254.21 1378.71 2255.04 1379.67 2256.08 1380.36L2262.03 1386.11C2264.09 1388.08 2266.71 1389.35 2269.53 1389.73C2272.35 1390.12 2275.22 1389.61 2277.73 1388.28Z" fill="#E0E0E0"/>
<path d="M2217.63 1348.82C2213.91 1346.25 2210.19 1343.68 2206.33 1341.18C2200.58 1337.45 2194.69 1333.87 2188.67 1330.48C2185.96 1328.9 2183.19 1327.48 2180.34 1326.22C2175.67 1324.05 2175.67 1320.33 2180.34 1317.49L2763.18 980.996C2766.24 978.916 2769.63 977.36 2773.2 976.394L2774.42 976.867C2780.22 979.235 2785.85 981.993 2791.27 985.124C2800.34 990.471 2809.2 996.223 2817.73 1002.25C2818.75 1002.8 2819.59 1003.64 2820.16 1004.66C2820.73 1005.67 2820.99 1006.83 2820.93 1007.99C2820.86 1009.15 2820.47 1010.27 2819.8 1011.22C2819.13 1012.16 2818.2 1012.9 2817.12 1013.35L2234.42 1349.77C2231.78 1351.07 2228.84 1351.66 2225.9 1351.5C2222.96 1351.33 2220.11 1350.41 2217.63 1348.82Z" fill="#90CAF9"/>
<path opacity="0.4" d="M2217.63 1348.82C2213.91 1346.25 2210.19 1343.68 2206.33 1341.18C2200.58 1337.45 2194.69 1333.87 2188.67 1330.48C2185.96 1328.9 2183.19 1327.48 2180.34 1326.22C2175.67 1324.05 2175.67 1320.33 2180.34 1317.49L2763.18 980.996C2766.24 978.916 2769.63 977.36 2773.2 976.394L2774.42 976.867C2780.22 979.235 2785.85 981.993 2791.27 985.124C2800.34 990.471 2809.2 996.223 2817.73 1002.25C2818.75 1002.8 2819.59 1003.64 2820.16 1004.66C2820.73 1005.67 2820.99 1006.83 2820.93 1007.99C2820.86 1009.15 2820.47 1010.27 2819.8 1011.22C2819.13 1012.16 2818.2 1012.9 2817.12 1013.35L2234.42 1349.77C2231.78 1351.07 2228.84 1351.66 2225.9 1351.5C2222.96 1351.33 2220.11 1350.41 2217.63 1348.82Z" fill="black"/>
<path d="M2765.69 1667.86V1417.45C2765.69 1409.4 2765.28 1388.14 2764.4 1380.23C2763.55 1367.88 2762.02 1355.59 2759.8 1343.41C2759.69 1342.22 2759.27 1341.08 2758.58 1340.11C2757.89 1339.14 2756.95 1338.37 2755.87 1337.87C2754.78 1337.38 2753.59 1337.18 2752.4 1337.29C2751.21 1337.41 2750.08 1337.84 2749.11 1338.54L2367.2 1558.96C2364.75 1560.55 2362.81 1562.82 2361.61 1565.48C2360.41 1568.14 2360 1571.1 2360.44 1573.99C2363.84 1593.21 2365.66 1612.67 2365.85 1632.19C2365.85 1633.34 2365.85 1667.38 2365.85 1668.53V1898.64C2365.85 1904.19 2369.77 1906.49 2374.65 1903.71L2756.96 1683.35C2759.54 1681.65 2761.68 1679.36 2763.2 1676.66C2764.72 1673.97 2765.57 1670.95 2765.69 1667.86Z" fill="#90CAF9"/>
<path opacity="0.8" d="M2765.69 1667.86V1417.45C2765.69 1409.4 2765.28 1388.14 2764.4 1380.23C2763.55 1367.88 2762.02 1355.59 2759.8 1343.41C2759.69 1342.22 2759.27 1341.08 2758.58 1340.11C2757.89 1339.14 2756.95 1338.37 2755.87 1337.87C2754.78 1337.38 2753.59 1337.18 2752.4 1337.29C2751.21 1337.41 2750.08 1337.84 2749.11 1338.54L2367.2 1558.96C2364.75 1560.55 2362.81 1562.82 2361.61 1565.48C2360.41 1568.14 2360 1571.1 2360.44 1573.99C2363.84 1593.21 2365.66 1612.67 2365.85 1632.19C2365.85 1633.34 2365.85 1667.38 2365.85 1668.53V1898.64C2365.85 1904.19 2369.77 1906.49 2374.65 1903.71L2756.96 1683.35C2759.54 1681.65 2761.68 1679.36 2763.2 1676.66C2764.72 1673.97 2765.57 1670.95 2765.69 1667.86Z" fill="white"/>
<path d="M2649.01 1532.3L2582.28 1666.03L2606.51 1697.77L2470.82 1581.84L2365.71 1839.42V1898.7C2365.71 1904.25 2369.64 1906.55 2374.51 1903.78L2756.96 1683.35C2759.51 1681.68 2761.63 1679.43 2763.14 1676.78C2764.66 1674.14 2765.53 1671.17 2765.69 1668.13V1629.21L2649.01 1532.3Z" fill="#90CAF9"/>
<path d="M2507.84 1890.31L2823.35 1708.12C2828.22 1705.35 2832.15 1707.58 2832.15 1713.2V1756.38C2831.99 1759.43 2831.11 1762.4 2829.58 1765.05C2828.05 1767.7 2825.92 1769.94 2823.35 1771.61L2507.84 1954.06C2502.96 1956.84 2499.04 1954.61 2499.04 1948.99V1905.81C2499.16 1902.71 2500.02 1899.69 2501.55 1896.99C2503.08 1894.29 2505.24 1892 2507.84 1890.31Z" fill="#90CAF9"/>
<path d="M2441.38 2023.98L2890.15 1764.91C2895.02 1762.06 2898.95 1764.36 2898.95 1769.98V1781.42C2898.78 1784.47 2897.9 1787.44 2896.37 1790.09C2894.84 1792.73 2892.71 1794.98 2890.15 1796.65L2441.38 2055.58C2436.5 2058.42 2432.58 2056.12 2432.58 2050.51V2039.07C2432.78 2036.04 2433.67 2033.1 2435.2 2030.48C2436.73 2027.87 2438.84 2025.64 2441.38 2023.98Z" fill="#E0E0E0"/>
<path d="M2410.38 2105.39L2915.12 1813.97C2919.99 1811.2 2923.92 1813.43 2923.92 1819.05V1830.48C2923.76 1833.54 2922.88 1836.51 2921.35 1839.16C2919.82 1841.8 2917.69 1844.05 2915.12 1845.71L2410.38 2137.13C2405.51 2139.91 2401.58 2137.67 2401.58 2132.06V2120.62C2401.75 2117.57 2402.64 2114.6 2404.17 2111.96C2405.7 2109.31 2407.82 2107.06 2410.38 2105.39Z" fill="#E0E0E0"/>
<path d="M2374.78 2221.26L2530.44 2131.38C2535.25 2128.6 2539.17 2130.91 2539.17 2136.46V2306.53C2539.01 2309.57 2538.14 2312.54 2536.63 2315.19C2535.11 2317.83 2532.99 2320.08 2530.44 2321.76L2374.78 2411.63C2369.98 2414.41 2366.05 2412.17 2366.05 2406.56V2236.48C2366.21 2233.44 2367.08 2230.47 2368.6 2227.83C2370.12 2225.18 2372.23 2222.93 2374.78 2221.26Z" fill="#90CAF9"/>
<path opacity="0.5" d="M2374.78 2221.26L2530.44 2131.38C2535.25 2128.6 2539.17 2130.91 2539.17 2136.46V2306.53C2539.01 2309.57 2538.14 2312.54 2536.63 2315.19C2535.11 2317.83 2532.99 2320.08 2530.44 2321.76L2374.78 2411.63C2369.98 2414.41 2366.05 2412.17 2366.05 2406.56V2236.48C2366.21 2233.44 2367.08 2230.47 2368.6 2227.83C2370.12 2225.18 2372.23 2222.93 2374.78 2221.26Z" fill="white"/>
<path d="M2588.03 2098.15L2743.69 2008.27C2748.57 2005.5 2752.49 2007.8 2752.49 2013.35V2183.49C2752.32 2186.54 2751.43 2189.51 2749.9 2192.15C2748.37 2194.79 2746.25 2197.04 2743.69 2198.72L2588.03 2288.53C2583.16 2291.3 2579.24 2289.07 2579.24 2283.45V2113.38C2579.4 2110.32 2580.28 2107.35 2581.81 2104.71C2583.34 2102.06 2585.47 2099.81 2588.03 2098.15Z" fill="#90CAF9"/>
<path d="M2801.22 1975.04L2956.88 1885.24C2961.75 1882.39 2965.68 1884.69 2965.68 1890.31V2060.39C2965.51 2063.44 2964.63 2066.41 2963.1 2069.05C2961.57 2071.7 2959.44 2073.95 2956.88 2075.61L2801.22 2165.42C2796.35 2168.2 2792.42 2165.96 2792.42 2160.35V1990.27C2792.58 1987.22 2793.46 1984.25 2794.99 1981.6C2796.52 1978.95 2798.66 1976.71 2801.22 1975.04Z" fill="#90CAF9"/>
<path opacity="0.3" d="M2801.22 1975.04L2956.88 1885.24C2961.75 1882.39 2965.68 1884.69 2965.68 1890.31V2060.39C2965.51 2063.44 2964.63 2066.41 2963.1 2069.05C2961.57 2071.7 2959.44 2073.95 2956.88 2075.61L2801.22 2165.42C2796.35 2168.2 2792.42 2165.96 2792.42 2160.35V1990.27C2792.58 1987.22 2793.46 1984.25 2794.99 1981.6C2796.52 1978.95 2798.66 1976.71 2801.22 1975.04Z" fill="black"/>
<path d="M2933.46 2184.58L2418.03 2482.36C2413.16 2485.13 2409.23 2482.83 2409.23 2477.28V2465.84C2409.41 2462.79 2410.29 2459.83 2411.82 2457.19C2413.35 2454.54 2415.48 2452.29 2418.03 2450.62L2933.46 2152.83C2938.27 2150.06 2942.26 2152.36 2942.26 2157.91V2169.35C2942.1 2172.4 2941.22 2175.37 2939.69 2178.02C2938.16 2180.66 2936.03 2182.91 2933.46 2184.58Z" fill="#E0E0E0"/>
<path d="M2420.6 2544.21L2936.1 2246.43C2938.59 2244.8 2940.61 2242.54 2941.96 2239.88C2943.3 2237.22 2943.92 2234.25 2943.75 2231.27C2943.41 2227.96 2943.14 2224.5 2942.87 2221.26C2943.01 2220.12 2942.8 2218.97 2942.27 2217.95C2941.75 2216.93 2940.92 2216.1 2939.91 2215.56C2938.9 2215.02 2937.75 2214.79 2936.61 2214.91C2935.48 2215.04 2934.4 2215.5 2933.53 2216.25L2418.23 2514.03C2415.68 2515.65 2413.59 2517.89 2412.13 2520.54C2410.68 2523.19 2409.91 2526.17 2409.91 2529.19C2409.91 2532.57 2410.38 2535.96 2410.72 2539.34C2410.7 2540.5 2411.01 2541.63 2411.61 2542.62C2412.21 2543.6 2413.08 2544.4 2414.12 2544.91C2415.15 2545.42 2416.31 2545.63 2417.46 2545.5C2418.61 2545.38 2419.7 2544.93 2420.6 2544.21Z" fill="#E0E0E0"/>
<path d="M2704.64 2443.44L2389 2625.7C2386.58 2627.24 2384.72 2629.5 2383.67 2632.16C2382.63 2634.82 2382.45 2637.75 2383.17 2640.52C2407.63 2715.53 2456.59 2780.15 2522.18 2823.99C2524.79 2825.51 2527.74 2826.35 2530.75 2826.43C2533.77 2826.52 2536.76 2825.84 2539.44 2824.47L2855.36 2642.08C2856.42 2641.65 2857.32 2640.93 2857.96 2639.98C2858.6 2639.04 2858.94 2637.93 2858.94 2636.8C2858.94 2635.66 2858.6 2634.55 2857.96 2633.61C2857.32 2632.67 2856.42 2631.94 2855.36 2631.52C2789.83 2587.65 2740.9 2523.07 2716.42 2448.11C2716.14 2446.9 2715.56 2445.77 2714.75 2444.83C2713.94 2443.89 2712.91 2443.16 2711.75 2442.7C2710.59 2442.24 2709.34 2442.07 2708.11 2442.2C2706.87 2442.33 2705.68 2442.75 2704.64 2443.44Z" fill="#90CAF9"/>
<path opacity="0.8" d="M2704.64 2443.44L2389 2625.7C2386.58 2627.24 2384.72 2629.5 2383.67 2632.16C2382.63 2634.82 2382.45 2637.75 2383.17 2640.52C2407.63 2715.53 2456.59 2780.15 2522.18 2823.99C2524.79 2825.51 2527.74 2826.35 2530.75 2826.43C2533.77 2826.52 2536.76 2825.84 2539.44 2824.47L2855.36 2642.08C2856.42 2641.65 2857.32 2640.93 2857.96 2639.98C2858.6 2639.04 2858.94 2637.93 2858.94 2636.8C2858.94 2635.66 2858.6 2634.55 2857.96 2633.61C2857.32 2632.67 2856.42 2631.94 2855.36 2631.52C2789.83 2587.65 2740.9 2523.07 2716.42 2448.11C2716.14 2446.9 2715.56 2445.77 2714.75 2444.83C2713.94 2443.89 2712.91 2443.16 2711.75 2442.7C2710.59 2442.24 2709.34 2442.07 2708.11 2442.2C2706.87 2442.33 2705.68 2442.75 2704.64 2443.44Z" fill="white"/>
<path opacity="0.8" d="M2855.63 2631.52C2835.24 2617.89 2816.32 2602.17 2799.19 2584.62C2746.54 2580.29 2662.75 2562.82 2662.75 2562.82L2638.18 2646.14L2694.49 2665.96C2646.64 2669.75 2499.24 2634.22 2499.24 2634.22C2488.62 2684.58 2489.16 2770.93 2489.63 2799.36C2499.98 2808.21 2510.85 2816.44 2522.19 2823.99C2524.79 2825.51 2527.74 2826.35 2530.75 2826.43C2533.77 2826.52 2536.76 2825.84 2539.44 2824.47L2855.36 2642.07C2856.43 2641.68 2857.35 2640.98 2858.01 2640.05C2858.68 2639.13 2859.05 2638.02 2859.08 2636.89C2859.1 2635.75 2858.79 2634.63 2858.18 2633.67C2857.56 2632.72 2856.68 2631.97 2855.63 2631.52Z" fill="#90CAF9"/>
<path opacity="0.8" d="M2668.17 2525.47C2671.36 2530.43 2676.3 2534.02 2682.02 2535.53C2687.73 2537.03 2693.8 2536.34 2699.03 2533.59C2703.78 2530.53 2707.2 2525.79 2708.59 2520.31C2709.99 2514.84 2709.25 2509.04 2706.54 2504.08C2703.7 2498.95 2699 2495.11 2693.41 2493.34C2687.81 2491.58 2681.76 2492.03 2676.49 2494.6C2671.49 2497.77 2667.86 2502.7 2666.32 2508.41C2664.77 2514.13 2665.43 2520.21 2668.17 2525.47Z" fill="#90CAF9"/>
<path d="M2836.28 2494.4L3019.01 2389.03C3020.14 2388.39 3021.14 2387.51 3021.92 2386.47C3022.7 2385.42 3023.25 2384.22 3023.55 2382.95C3023.84 2381.67 3023.86 2380.35 3023.62 2379.07C3023.37 2377.79 3022.86 2376.57 3022.12 2375.49C3015.89 2365.81 3010.07 2355.8 3004.79 2345.51C3004.23 2344.3 3003.41 2343.23 3002.4 2342.36C3001.39 2341.48 3000.21 2340.84 2998.93 2340.45C2997.66 2340.07 2996.31 2339.96 2994.99 2340.13C2993.67 2340.3 2992.4 2340.75 2991.26 2341.45L2808.8 2446.76C2806.43 2448.15 2804.67 2450.39 2803.87 2453.03C2803.08 2455.66 2803.32 2458.5 2804.54 2460.97C2809.81 2471.26 2815.63 2481.27 2821.86 2491.02C2823.41 2493.28 2825.74 2494.89 2828.41 2495.51C2831.08 2496.14 2833.89 2495.74 2836.28 2494.4Z" fill="#90CAF9"/>
<path d="M2837.97 2556.87L3087.16 2413.05C3088.26 2412.49 3089.22 2411.68 3089.94 2410.67C3090.67 2409.67 3091.14 2408.51 3091.33 2407.28C3091.51 2406.06 3091.4 2404.81 3091.01 2403.63C3090.61 2402.46 3089.94 2401.4 3089.05 2400.53L3083.91 2394.65C3082.02 2392.57 3079.49 2391.18 3076.72 2390.69C3073.96 2390.2 3071.1 2390.64 3068.61 2391.94L2819.49 2536.09C2818.36 2536.67 2817.38 2537.49 2816.63 2538.51C2815.88 2539.53 2815.37 2540.7 2815.14 2541.95C2814.92 2543.19 2814.99 2544.48 2815.34 2545.69C2815.7 2546.91 2816.33 2548.02 2817.19 2548.95C2818.88 2550.91 2820.58 2552.88 2822.34 2554.77C2824.36 2556.78 2826.98 2558.07 2829.8 2558.45C2832.62 2558.82 2835.49 2558.27 2837.97 2556.87Z" fill="#E0E0E0"/>
<path d="M2857.39 2588.47C2859.69 2590.41 2861.95 2592.31 2864.16 2594.16C2866.59 2595.89 2869.45 2596.92 2872.42 2597.12C2875.4 2597.32 2878.37 2596.7 2881.01 2595.31L3130.47 2451.56C3131.55 2451.11 3132.48 2450.36 3133.17 2449.41C3133.85 2448.45 3134.25 2447.33 3134.34 2446.16C3134.42 2444.99 3134.18 2443.82 3133.64 2442.78C3133.1 2441.74 3132.29 2440.87 3131.28 2440.26C3128.85 2438.37 3126.55 2436.4 3124.52 2434.51C3122.2 2432.69 3119.42 2431.57 3116.5 2431.29C3113.57 2431 3110.62 2431.55 3108 2432.88L2858.54 2576.7C2857.44 2577.18 2856.48 2577.95 2855.77 2578.92C2855.06 2579.9 2854.62 2581.05 2854.5 2582.25C2854.39 2583.45 2854.59 2584.66 2855.1 2585.75C2855.61 2586.85 2856.4 2587.79 2857.39 2588.47Z" fill="#E0E0E0"/>
<path d="M2727.65 2779.33L3043.57 2597C3046.28 2595.6 3049.29 2594.87 3052.34 2594.87C3055.39 2594.87 3058.39 2595.6 3061.1 2597L3071.05 2602.69C3075.92 2605.53 3075.92 2610.06 3071.05 2612.84L2755.13 2795.23C2752.41 2796.63 2749.39 2797.36 2746.33 2797.36C2743.27 2797.36 2740.26 2796.63 2737.54 2795.23L2727.65 2789.55C2722.78 2786.5 2722.78 2782.1 2727.65 2779.33Z" fill="#E0E0E0"/>
<path d="M2641.23 1496.02L2956.81 1313.77C2961.68 1310.92 2965.61 1313.22 2965.61 1318.84V1362.02C2965.44 1365.07 2964.56 1368.04 2963.03 1370.69C2961.5 1373.33 2959.37 1375.58 2956.81 1377.25L2641.3 1559.44C2636.42 1562.21 2632.5 1559.98 2632.5 1554.36V1511.25C2632.66 1508.2 2633.53 1505.24 2635.05 1502.59C2636.56 1499.95 2638.68 1497.7 2641.23 1496.02Z" fill="#FAFAFA"/>
<path d="M2637.31 1563.97C2635.93 1563.99 2634.57 1563.64 2633.38 1562.95C2631.96 1562.04 2630.82 1560.75 2630.07 1559.24C2629.32 1557.73 2628.99 1556.04 2629.12 1554.36V1511.25C2629.29 1507.62 2630.33 1504.08 2632.14 1500.92C2633.95 1497.77 2636.49 1495.09 2639.54 1493.11L2955.12 1311.13C2956.48 1310.08 2958.11 1309.46 2959.82 1309.35C2961.53 1309.23 2963.24 1309.63 2964.72 1310.48C2966.21 1311.34 2967.41 1312.61 2968.17 1314.15C2968.93 1315.69 2969.22 1317.41 2968.99 1319.11V1362.29C2968.82 1365.93 2967.78 1369.48 2965.95 1372.64C2964.13 1375.79 2961.57 1378.46 2958.5 1380.43L2643.19 1562.35C2641.42 1563.42 2639.38 1563.98 2637.31 1563.97ZM2642.92 1498.93C2640.94 1500.35 2639.31 1502.19 2638.14 1504.32C2636.97 1506.45 2636.29 1508.82 2636.15 1511.25V1554.36C2636.15 1555.98 2636.63 1556.86 2637.03 1557.13C2637.44 1557.41 2638.39 1557.13 2639.81 1556.46L2955.39 1374.34C2957.42 1372.95 2959.12 1371.12 2960.35 1368.99C2961.58 1366.86 2962.31 1364.48 2962.5 1362.02V1318.84C2962.5 1317.15 2962.02 1316.34 2961.62 1316.07C2961.13 1315.96 2960.62 1315.95 2960.13 1316.06C2959.64 1316.16 2959.17 1316.37 2958.77 1316.68L2642.92 1498.93Z" fill="#E0E0E0"/>
<path d="M2641.23 1591.72L2956.81 1409.46C2961.68 1406.69 2965.61 1408.92 2965.61 1414.54V1457.72C2965.45 1460.77 2964.57 1463.74 2963.04 1466.39C2961.51 1469.03 2959.38 1471.28 2956.81 1472.94L2641.3 1655.13C2636.42 1657.97 2632.5 1655.67 2632.5 1650.06V1606.95C2632.67 1603.9 2633.54 1600.94 2635.06 1598.3C2636.58 1595.65 2638.69 1593.4 2641.23 1591.72Z" fill="#FAFAFA"/>
<path d="M2637.31 1659.73C2635.92 1659.76 2634.56 1659.38 2633.38 1658.65C2631.96 1657.73 2630.82 1656.45 2630.07 1654.94C2629.32 1653.43 2628.99 1651.74 2629.12 1650.06V1606.94C2629.29 1603.31 2630.33 1599.77 2632.14 1596.62C2633.95 1593.47 2636.49 1590.79 2639.54 1588.81L2955.12 1406.55C2956.48 1405.51 2958.11 1404.89 2959.82 1404.77C2961.53 1404.66 2963.24 1405.05 2964.72 1405.91C2966.21 1406.76 2967.41 1408.04 2968.17 1409.57C2968.93 1411.11 2969.22 1412.84 2968.99 1414.54V1457.72C2968.82 1461.37 2967.78 1464.92 2965.95 1468.09C2964.13 1471.26 2961.58 1473.94 2958.5 1475.92L2643.19 1658.04C2641.44 1659.16 2639.39 1659.75 2637.31 1659.73ZM2960.74 1411.63C2959.93 1411.68 2959.16 1411.96 2958.5 1412.44L2643.19 1594.69C2641.22 1596.1 2639.59 1597.93 2638.42 1600.05C2637.25 1602.17 2636.57 1604.53 2636.43 1606.94V1650.06C2636.43 1651.75 2636.9 1652.56 2637.31 1652.83C2637.71 1653.1 2638.66 1652.83 2640.08 1652.22L2955.66 1470.03C2957.71 1468.66 2959.41 1466.83 2960.64 1464.7C2961.87 1462.56 2962.6 1460.17 2962.77 1457.72V1414.54C2962.77 1412.91 2962.29 1412.03 2961.89 1411.76L2960.74 1411.63Z" fill="#E0E0E0"/>
<path d="M1838.37 2783.12L1897.66 2748.6C1897.66 2748.6 1917.96 2619.4 1897.66 2507.73C1869.16 2350.72 1760.61 2298.88 1722.03 2315.39C1683.46 2331.91 1675.4 2378.88 1747.95 2468.41C1790.45 2521.07 1836.27 2636.86 1838.37 2783.12Z" fill="#90CAF9"/>
<g opacity="0.2">
<path d="M1838.37 2783.12L1897.66 2748.6C1897.66 2748.6 1917.96 2619.4 1897.66 2507.73C1869.16 2350.72 1760.61 2298.88 1722.03 2315.39C1683.46 2331.91 1675.4 2378.88 1747.95 2468.41C1790.45 2521.07 1836.27 2636.86 1838.37 2783.12Z" fill="black"/>
</g>
<path d="M1864.9 2716.59C1863.98 2716.49 1863.13 2716.02 1862.55 2715.3C1861.97 2714.58 1861.69 2713.65 1861.79 2712.73C1878.77 2564.72 1815.77 2404.46 1747.61 2340.91C1747.21 2340.62 1746.88 2340.24 1746.63 2339.81C1746.39 2339.38 1746.23 2338.9 1746.19 2338.41C1746.14 2337.92 1746.19 2337.42 1746.35 2336.95C1746.51 2336.48 1746.76 2336.05 1747.1 2335.68C1747.44 2335.32 1747.84 2335.03 1748.3 2334.83C1748.76 2334.64 1749.25 2334.54 1749.74 2334.55C1750.24 2334.56 1750.73 2334.67 1751.18 2334.88C1751.63 2335.09 1752.03 2335.39 1752.35 2335.77C1821.59 2400.74 1885.81 2563.16 1868.62 2713.47C1868.52 2714.37 1868.08 2715.2 1867.38 2715.78C1866.69 2716.35 1865.8 2716.65 1864.9 2716.59Z" fill="white"/>
<path d="M1706.8 2859.39C1699.09 2863.99 1682.31 2855.8 1676.08 2851.81C1665.37 2844.85 1656.61 2835.28 1650.63 2823.99C1644.13 2811.1 1641.77 2796.52 1643.86 2782.24C1644.94 2774.69 1646.52 2767.23 1648.6 2759.9L1654.35 2738.11C1656.67 2731.07 1657.57 2723.64 1656.99 2716.25C1654.76 2701.56 1641.43 2691.48 1629.31 2682.82C1615.78 2673.27 1601.84 2660.55 1601.5 2642.75C1602.14 2628.92 1607.35 2615.68 1616.32 2605.12C1624.58 2594.16 1634.46 2584.41 1641.9 2572.91C1647.76 2564.83 1650.68 2554.99 1650.16 2545.03C1649.22 2538.95 1647.06 2533.12 1643.8 2527.9C1636.32 2517.05 1629.71 2505.62 1624.03 2493.73C1619.43 2481.34 1619.7 2465.84 1629.25 2456.71C1637.74 2449.99 1648.54 2446.91 1659.29 2448.11C1678.11 2448.92 1696.31 2462.19 1711.27 2472.54C1726.23 2482.9 1737.87 2497.11 1754.99 2503.13C1777.39 2511.12 1807.17 2506.45 1822.06 2529.32C1834.99 2549.15 1825.65 2571.35 1824.36 2592.4C1822.33 2626.24 1854.21 2638.96 1869.84 2663.53C1874.69 2671.67 1876.76 2681.18 1875.73 2690.6C1875.13 2706.42 1871.64 2721.99 1865.44 2736.55C1857.96 2752.23 1849.58 2767.46 1840.33 2782.17C1839.86 2782.71 1707.95 2858.64 1706.8 2859.39Z" fill="#90CAF9"/>
<path d="M1785.38 2816.01C1784.92 2816 1784.46 2815.9 1784.04 2815.71C1783.61 2815.53 1783.23 2815.26 1782.91 2814.93C1782.59 2814.6 1782.34 2814.2 1782.17 2813.77C1782 2813.34 1781.92 2812.88 1781.93 2812.42C1784.5 2672.67 1715.13 2520.05 1666.27 2476.33C1665.62 2475.67 1665.25 2474.79 1665.25 2473.86C1665.25 2472.94 1665.62 2472.05 1666.27 2471.39C1666.59 2471.06 1666.97 2470.8 1667.39 2470.62C1667.82 2470.44 1668.27 2470.35 1668.74 2470.35C1669.2 2470.35 1669.65 2470.44 1670.08 2470.62C1670.5 2470.8 1670.88 2471.06 1671.21 2471.39C1721.08 2515.92 1791.81 2671.04 1789.24 2812.76C1789.15 2813.7 1788.7 2814.57 1787.97 2815.18C1787.25 2815.78 1786.32 2816.08 1785.38 2816.01Z" fill="white"/>
<path d="M1760.61 2651.55C1760.28 2651.65 1759.92 2651.65 1759.59 2651.55C1726.36 2643.24 1692.32 2638.56 1658.08 2637.61C1657.15 2637.56 1656.29 2637.16 1655.65 2636.49C1655.01 2635.83 1654.64 2634.94 1654.62 2634.02C1654.61 2633.55 1654.7 2633.09 1654.88 2632.66C1655.06 2632.22 1655.32 2631.83 1655.66 2631.51C1656 2631.18 1656.4 2630.93 1656.84 2630.77C1657.28 2630.61 1657.74 2630.54 1658.21 2630.57C1693.12 2631.52 1727.82 2636.28 1761.69 2644.78C1762.14 2644.91 1762.56 2645.12 1762.93 2645.41C1763.3 2645.7 1763.61 2646.06 1763.83 2646.47C1764.06 2646.88 1764.2 2647.33 1764.25 2647.79C1764.3 2648.26 1764.26 2648.73 1764.13 2649.18C1763.9 2649.92 1763.42 2650.55 1762.78 2650.98C1762.14 2651.42 1761.38 2651.61 1760.61 2651.55Z" fill="white"/>
<path d="M3645.36 821.276L3307.99 1015.78C3305.07 1017.66 3302.65 1020.2 3300.9 1023.2C3299.16 1026.2 3298.16 1029.58 3297.97 1033.04V1442.56C3298.18 1446.01 3299.2 1449.38 3300.95 1452.36C3302.7 1455.35 3305.14 1457.88 3308.06 1459.75L3326.26 1470.03C3329.41 1471.63 3332.89 1472.47 3336.41 1472.47C3339.94 1472.47 3343.42 1471.63 3346.57 1470.03L3683.94 1275.6C3686.86 1273.7 3689.28 1271.14 3691.02 1268.13C3692.77 1265.12 3693.77 1261.74 3693.96 1258.27V848.82C3693.76 845.368 3692.75 842.011 3691.01 839.024C3689.27 836.036 3686.85 833.503 3683.94 831.63L3665.67 821.343C3662.53 819.734 3659.05 818.889 3655.52 818.877C3651.99 818.865 3648.51 819.687 3645.36 821.276Z" fill="#90CAF9"/>
<path d="M3336.28 1464.15V1054.7C3336.47 1051.22 3337.47 1047.84 3339.21 1044.83C3340.95 1041.82 3343.38 1039.26 3346.3 1037.37L3683.67 842.932C3689.22 839.751 3693.68 842.323 3693.68 848.685V1258.13C3693.5 1261.61 3692.49 1264.99 3690.75 1268C3689.01 1271.01 3686.59 1273.57 3683.67 1275.46L3346.3 1469.9C3340.75 1473.08 3336.28 1470.51 3336.28 1464.15Z" fill="#90CAF9"/>
<path opacity="0.2" d="M3346.3 1469.9C3343.14 1471.46 3339.67 1472.27 3336.14 1472.27C3332.62 1472.27 3329.15 1471.46 3325.99 1469.9L3308.06 1460.02C3305.13 1458.18 3302.68 1455.67 3300.93 1452.69C3299.17 1449.71 3298.16 1446.35 3297.97 1442.9V1033.04C3298.13 1029.44 3299.23 1025.94 3301.15 1022.89L3339.26 1044.88C3337.42 1047.84 3336.4 1051.22 3336.28 1054.7V1464.15C3336.28 1469.97 3340.27 1473.55 3346.3 1469.9Z" fill="black"/>
<path opacity="0.4" d="M3693.55 846.858C3692.74 841.85 3688.68 840.09 3683.67 842.932L3346.3 1037.37C3343.43 1039.25 3341.1 1041.84 3339.53 1044.88L3301.36 1022.89C3303.01 1020.1 3305.34 1017.77 3308.13 1016.12L3645.57 821.614C3648.7 819.988 3652.18 819.14 3655.72 819.14C3659.25 819.14 3662.73 819.988 3665.87 821.614L3684.07 831.901C3686.62 833.589 3688.77 835.793 3690.4 838.37C3692.04 840.947 3693.11 843.839 3693.55 846.858Z" fill="white"/>
<path d="M3253.1 1310.58C3246.81 1306.86 3217.44 1290.28 3215.88 1289.33C3214.71 1288.61 3213.71 1287.64 3212.96 1286.48C3212.21 1285.33 3211.72 1284.02 3211.53 1282.66C3211.34 1281.29 3211.46 1279.9 3211.87 1278.59C3212.29 1277.27 3212.98 1276.07 3213.92 1275.05L3298.85 1169L3336.28 1190.46L3251.41 1296.44C3250.51 1297.44 3249.83 1298.63 3249.43 1299.91C3249.02 1301.2 3248.89 1302.56 3249.05 1303.9C3249.21 1305.23 3249.66 1306.52 3250.36 1307.68C3251.06 1308.83 3251.99 1309.82 3253.1 1310.58Z" fill="#90CAF9"/>
<path opacity="0.4" d="M3253.1 1310.58C3246.81 1306.86 3217.44 1290.28 3215.88 1289.33C3214.71 1288.61 3213.71 1287.64 3212.96 1286.48C3212.21 1285.33 3211.72 1284.02 3211.53 1282.66C3211.34 1281.29 3211.46 1279.9 3211.87 1278.59C3212.29 1277.27 3212.98 1276.07 3213.92 1275.05L3298.85 1169L3336.28 1190.46L3251.41 1296.44C3250.51 1297.44 3249.83 1298.63 3249.43 1299.91C3249.02 1301.2 3248.89 1302.56 3249.05 1303.9C3249.21 1305.23 3249.66 1306.52 3250.36 1307.68C3251.06 1308.83 3251.99 1309.82 3253.1 1310.58Z" fill="white"/>
<path d="M3336.28 1190.59L3251.41 1296.58C3250.18 1297.78 3249.32 1299.32 3248.95 1301.01C3248.57 1302.69 3248.69 1304.45 3249.29 1306.07C3249.89 1307.69 3250.95 1309.1 3252.33 1310.12C3253.72 1311.15 3255.37 1311.76 3257.1 1311.87L3336.28 1320.47L3360.58 1253.6L3336.28 1190.59Z" fill="#90CAF9"/>
<path d="M3616.46 1122.71C3615.78 1132.73 3613.92 1142.64 3610.91 1152.22C3608.27 1160.83 3604.71 1169.14 3600.29 1176.99C3596.43 1183.85 3591.72 1190.19 3586.28 1195.87C3581.82 1200.66 3576.61 1204.68 3570.85 1207.78C3564.55 1211.91 3557.01 1213.7 3549.53 1212.86C3545.18 1211.96 3541.28 1209.56 3538.5 1206.09C3536.88 1209.54 3535.18 1212.86 3533.42 1216.58C3531.53 1220.34 3529.26 1223.9 3526.66 1227.21C3523.7 1230.96 3520.36 1234.41 3516.71 1237.49C3512.24 1241.18 3507.35 1244.34 3502.16 1246.9C3496.62 1250.18 3490.12 1251.47 3483.75 1250.56C3478.16 1249.28 3473.29 1245.85 3470.21 1241.01C3466.07 1234.47 3463.3 1227.14 3462.09 1219.49C3460.3 1208.83 3459.69 1198 3460.26 1187.21C3460.69 1175.26 3462.16 1163.37 3464.66 1151.68C3466.89 1141.19 3470.13 1130.95 3474.34 1121.09C3478 1112.39 3482.87 1104.25 3488.82 1096.93C3493.93 1090.49 3500.31 1085.19 3507.57 1081.36C3509.98 1079.68 3512.7 1078.49 3515.57 1077.88C3518.44 1077.26 3521.4 1077.23 3524.29 1077.77C3528.04 1079.41 3531.11 1082.28 3533.02 1085.9V1082.24C3533.14 1079.13 3534 1076.09 3535.52 1073.37C3536.68 1070.89 3538.57 1068.81 3540.94 1067.42L3555.42 1059.97C3556.21 1059.46 3557.16 1059.24 3558.1 1059.35C3559.04 1059.46 3559.91 1059.9 3560.56 1060.58C3561.36 1061.5 3561.94 1062.59 3562.27 1063.76C3562.59 1064.93 3562.66 1066.15 3562.46 1067.35L3559.01 1153.91C3558.58 1156.2 3558.69 1158.55 3559.34 1160.78C3559.99 1163.02 3561.15 1165.07 3562.73 1166.77C3564.16 1167.73 3565.84 1168.25 3567.57 1168.25C3569.29 1168.25 3570.98 1167.73 3572.41 1166.77C3576.64 1164.35 3580.06 1160.72 3582.22 1156.35C3585.45 1149.85 3587.27 1142.75 3587.57 1135.5C3588.24 1128.06 3588.72 1120.28 3589.05 1112.29C3589.39 1104.3 3589.39 1096.93 3589.05 1090.16C3588.85 1078.02 3587.03 1065.95 3583.64 1054.29C3581.49 1046.09 3576.74 1038.8 3570.1 1033.51C3563.43 1029.09 3555.34 1027.33 3547.43 1028.57C3535.84 1030.37 3524.65 1034.22 3514.41 1039.94C3503.58 1045.49 3493.71 1052.73 3485.17 1061.4C3476.34 1070.37 3468.69 1080.45 3462.43 1091.38C3455.86 1102.85 3450.53 1114.99 3446.53 1127.58C3442.39 1140.57 3439.48 1153.92 3437.86 1167.45C3437.39 1171.17 3436.92 1175.97 3436.64 1181.79C3436.37 1187.61 3436.04 1193.84 3435.76 1200.2C3435.49 1206.56 3435.29 1212.72 3435.16 1218.61C3435.02 1224.5 3435.16 1229.3 3435.16 1232.89C3435.44 1243.81 3437.38 1254.63 3440.91 1264.97C3443.53 1272.94 3448.2 1280.08 3454.44 1285.68C3460.41 1290.57 3467.91 1293.2 3475.63 1293.12C3485.7 1292.73 3495.54 1289.95 3504.32 1285C3511.19 1281.56 3517.82 1277.65 3524.15 1273.29C3529.38 1269.7 3534.31 1265.69 3538.91 1261.32C3542.85 1257.67 3546.51 1253.73 3549.87 1249.54C3552.91 1245.75 3555.76 1241.96 3558.26 1238.31C3560.77 1234.65 3562.05 1232.69 3563.27 1231.13C3564.64 1229.51 3566.32 1228.17 3568.21 1227.21L3588.51 1216.72C3589.29 1216.15 3590.23 1215.84 3591.19 1215.84C3592.15 1215.84 3593.08 1216.15 3593.86 1216.72C3594.71 1217.7 3595.31 1218.86 3595.62 1220.12C3595.93 1221.38 3595.93 1222.7 3595.62 1223.96C3595.37 1226.35 3594.6 1228.65 3593.39 1230.73C3589.26 1238.37 3584.66 1246.49 3579.51 1254.95C3574.1 1263.75 3567.97 1272.08 3561.17 1279.86C3553.55 1288.51 3545.22 1296.5 3536.27 1303.75C3525.79 1312.17 3514.45 1319.45 3502.43 1325.47C3489.61 1332.88 3475.07 1336.8 3460.26 1336.84C3449.14 1336.58 3438.5 1332.25 3430.35 1324.66C3421.7 1316.12 3415.41 1305.49 3412.08 1293.8C3407.72 1279.4 3405.44 1264.45 3405.31 1249.4C3405.31 1245.68 3405.31 1240.67 3405.31 1234.38C3405.31 1228.09 3405.72 1221.45 3405.99 1214.48C3406.26 1207.51 3406.6 1200.95 3406.93 1194.72C3407.27 1188.49 3407.61 1183.49 3407.95 1179.9C3409.63 1161.95 3413.12 1144.22 3418.37 1126.98C3423.67 1109.1 3430.88 1091.86 3439.89 1075.54C3448.81 1059.37 3459.7 1044.36 3472.31 1030.87C3484.7 1017.58 3499.31 1006.54 3515.49 998.253C3530.07 989.827 3546.4 984.871 3563.2 983.77C3574.69 983.3 3585.91 987.276 3594.54 994.869C3603.19 1003.43 3609.18 1014.31 3611.79 1026.2C3615.55 1041.38 3617.53 1056.93 3617.68 1072.56C3617.68 1079.33 3617.68 1087.52 3617.28 1096.86C3616.87 1106.2 3617.14 1115.2 3616.46 1122.71ZM3489.16 1172.18C3488.02 1181.76 3489.4 1191.46 3493.16 1200.34C3493.8 1201.61 3494.73 1202.73 3495.85 1203.61C3496.98 1204.49 3498.29 1205.11 3499.69 1205.43C3501.08 1205.74 3502.53 1205.75 3503.93 1205.44C3505.33 1205.14 3506.64 1204.53 3507.77 1203.65C3515.15 1199.55 3520.8 1192.91 3523.68 1184.98C3527.73 1174.15 3529.89 1162.7 3530.04 1151.14C3531.14 1141.46 3529.79 1131.66 3526.11 1122.64C3523 1116.96 3517.99 1115.88 3511.16 1119.4C3503.88 1123.57 3498.37 1130.26 3495.66 1138.21C3491.52 1149.07 3489.32 1160.57 3489.16 1172.18Z" fill="#FAFAFA"/>
<path d="M3841.7 1633.54C3890.76 1633.54 3912.49 1642.41 3930.15 1689.44C3947.81 1736.48 3994.71 1844.16 3995.59 1876.17C3996.54 1909.4 3889.61 2010.1 3893.47 2008.41C3894.62 2007.87 3860.85 1947.5 3860.85 1947.5L3921.01 1873.73L3886.5 1773.64L3841.7 1633.54Z" fill="#FFB9A7"/>
<path d="M3859.02 1632.39C3880.27 1634.22 3901.05 1637.81 3916.82 1656.62C3932.59 1675.44 3972.04 1788.12 3972.04 1788.12C3972.04 1788.12 3953.57 1818.24 3897.6 1822.7L3867.55 1744.26L3859.02 1632.39Z" fill="#90CAF9"/>
<path opacity="0.4" d="M3859.02 1632.39C3880.27 1634.22 3901.05 1637.81 3916.82 1656.62C3932.59 1675.44 3972.04 1788.12 3972.04 1788.12C3972.04 1788.12 3953.57 1818.24 3897.6 1822.7L3867.55 1744.26L3859.02 1632.39Z" fill="black"/>
<path d="M3900.85 2729.11C3903.82 2731.95 3904.43 2734.73 3904.3 2745.22C3904.16 2755.71 3908.63 2767.41 3903.28 2777.16C3899.22 2784.47 3878.72 2789.48 3868.29 2783.93C3859.24 2777.99 3851.14 2770.71 3844.27 2762.34C3837.86 2754.97 3830.82 2748.17 3823.22 2742.04C3814.35 2735.27 3804.14 2731.07 3794.86 2725.05C3787.66 2720.38 3781.6 2714.13 3777.16 2706.78C3772.72 2699.43 3770 2691.17 3769.21 2682.61C3768.66 2677.01 3769.81 2671.37 3772.53 2666.44C3774.74 2663.81 3777.64 2661.86 3780.91 2660.79C3784.17 2659.73 3787.67 2659.6 3791.01 2660.42C3800.95 2661.97 3834.79 2680.72 3842.64 2686.34C3852.46 2693.17 3897.73 2726.13 3900.85 2729.11Z" fill="#263238"/>
<path d="M3851.71 2674.9C3851.84 2678.52 3851.63 2682.14 3851.1 2685.73C3850.77 2693.24 3819.09 2675.64 3806.1 2677.34H3805.76C3793.71 2683.16 3803.73 2700.01 3814.96 2708.67C3826.2 2717.33 3856.86 2739.87 3862 2743.66C3878.51 2756.59 3898.34 2746.1 3899.22 2739.33C3900.64 2721.6 3899.7 2702.92 3902.61 2674.7L3851.71 2674.9Z" fill="#FFB9A7"/>
<path d="M3713.72 2808.09C3719.61 2808.09 3722.24 2827.31 3723.33 2841.93C3724.14 2853.43 3728.47 2872.11 3724.41 2880.57C3720.35 2889.03 3704.92 2894.11 3681.03 2893.77C3665.6 2893.43 3641.37 2903.65 3624.72 2912.65C3608.07 2921.65 3589.06 2921.72 3571.05 2919.42C3549.87 2916.64 3528.01 2904.05 3524.69 2895.19C3521.38 2886.32 3525.84 2882.19 3576.2 2861.35C3576.67 2861.35 3629.26 2838.2 3653.82 2811.74L3713.72 2808.09Z" fill="#263238"/>
<path d="M3719.74 2769.51H3657.41C3656.66 2784.13 3655.51 2798.48 3653.82 2812.35C3629.26 2838.81 3576.67 2861.76 3576.2 2861.96C3569.43 2864.8 3563.2 2867.31 3557.92 2869.61C3556.5 2874.34 3558.33 2881.92 3580.6 2885.58C3610.44 2890.59 3691.05 2833.2 3709.99 2819.32C3711.43 2818.38 3712.8 2817.37 3714.12 2816.28C3715 2802.47 3717.03 2786.5 3719.74 2769.51Z" fill="#FFB9A7"/>
<path d="M3903.62 2679.57C3910.39 2607.29 3921.01 2517.48 3921.01 2482.76C3921.54 2449.74 3918.27 2416.77 3911.27 2384.49C3911.27 2384.49 3922.37 2243.86 3924.8 2164.41C3929.95 2014.3 3933.06 2007.46 3904.5 1928.55C3904.5 1928.55 3671.89 1906.49 3663.3 2005.43C3652.67 2128.67 3646.72 2335.02 3646.99 2393.7C3646.99 2437.42 3652.2 2484.79 3654.63 2583.87C3655.85 2635.58 3653.76 2703.66 3655.24 2769.24C3666.34 2787.51 3715.41 2779.39 3722.92 2770.6C3734.77 2694.8 3756.76 2592.67 3761.36 2552.54C3764.44 2517.12 3762.98 2481.46 3757.03 2446.42C3757.03 2446.42 3784.1 2236.62 3788.64 2204.54C3795.55 2238.31 3799.51 2272.61 3800.48 2307.07C3800.48 2321.01 3809.35 2366.22 3817.33 2444.86C3820.99 2480.87 3837.64 2585.9 3848.94 2674.97C3857.06 2688.77 3895.97 2693.24 3903.62 2679.57Z" fill="#455A64"/>
<path opacity="0.15" d="M3788.64 2204.47L3806.57 2102.95C3837.13 2098.23 3865.26 2083.47 3886.5 2060.99C3886.5 2060.99 3875.74 2101.6 3823.02 2115.61L3801.97 2207.85L3798.45 2291.91L3788.64 2204.47Z" fill="black"/>
<path d="M3753.24 1594.36L3760.28 1686.74L3830.94 1681.53L3825.93 1579.06L3753.24 1594.36Z" fill="#FFB9A7"/>
<path d="M3756.02 1378.26C3744.04 1376.68 3731.87 1377.99 3720.51 1382.11C3709.16 1386.22 3698.96 1393 3690.77 1401.88C3649.22 1448.65 3694.77 1483.1 3694.77 1483.1L3756.02 1378.26Z" fill="#263238"/>
<path d="M3683.8 1492.84C3683.8 1492.84 3665.73 1519.91 3668.1 1522.89C3672.25 1525.63 3676.82 1527.64 3681.64 1528.85L3683.8 1492.84Z" fill="#F29E8F"/>
<path d="M3738.96 1406.96C3721.43 1415.89 3691.25 1432.47 3683.26 1496.83C3675.14 1562.89 3690.03 1585.83 3698.76 1594.56C3704.85 1600.38 3736.19 1602.61 3752.56 1597.54C3772.87 1591.24 3817.47 1569.45 3838.38 1535.41C3862.95 1495.41 3868.09 1441.95 3839.94 1420.9C3800.48 1391.32 3753.78 1399.11 3738.96 1406.96Z" fill="#FFB9A7"/>
<path d="M3730.23 1482.89C3693.62 1464.28 3703.16 1415.69 3703.16 1415.69C3703.16 1415.69 3755.41 1341.24 3852.05 1389.29C3885.42 1406.01 3905.45 1443.98 3904.64 1488.44C3904.64 1502.19 3901.93 1515.8 3896.66 1528.5C3891.4 1541.2 3883.69 1552.73 3873.97 1562.45C3864.24 1572.17 3852.7 1579.87 3840 1585.13C3827.3 1590.38 3813.68 1593.08 3799.94 1593.07C3783.78 1593.07 3768.29 1586.65 3756.87 1575.23C3745.45 1563.81 3739.03 1548.32 3739.03 1532.16V1528.1L3742.14 1529.12C3747.14 1530.3 3752.36 1530.23 3757.32 1528.89C3762.29 1527.56 3766.84 1525 3770.57 1521.47C3786.61 1507.93 3788.57 1480.86 3768.27 1473.69C3747.96 1466.51 3737.34 1490.4 3737.34 1490.4L3729.49 1511.99C3727.59 1511.31 3725.84 1510.25 3724.35 1508.89C3722.86 1507.53 3721.66 1505.88 3720.8 1504.05C3719.95 1502.23 3719.46 1500.25 3719.37 1498.23C3719.28 1496.21 3719.59 1494.2 3720.28 1492.3C3721.09 1490.06 3722.41 1488.04 3724.13 1486.41C3725.86 1484.77 3727.95 1483.57 3730.23 1482.89Z" fill="#263238"/>
<path d="M3739.57 1578.45C3754.52 1578.45 3766.64 1566.33 3766.64 1551.38C3766.64 1536.43 3754.52 1524.31 3739.57 1524.31C3724.62 1524.31 3712.5 1536.43 3712.5 1551.38C3712.5 1566.33 3724.62 1578.45 3739.57 1578.45Z" fill="#263238"/>
<path d="M3895.23 1564.92C3910.18 1564.92 3922.3 1552.8 3922.3 1537.85C3922.3 1522.9 3910.18 1510.78 3895.23 1510.78C3880.28 1510.78 3868.16 1522.9 3868.16 1537.85C3868.16 1552.8 3880.28 1564.92 3895.23 1564.92Z" fill="#263238"/>
<path d="M3814.02 1612.29C3828.97 1612.29 3841.09 1600.17 3841.09 1585.22C3841.09 1570.27 3828.97 1558.15 3814.02 1558.15C3799.07 1558.15 3786.95 1570.27 3786.95 1585.22C3786.95 1600.17 3799.07 1612.29 3814.02 1612.29Z" fill="#263238"/>
<path d="M3773.41 1612.29C3792.1 1612.29 3807.25 1597.14 3807.25 1578.45C3807.25 1559.77 3792.1 1544.62 3773.41 1544.62C3754.72 1544.62 3739.57 1559.77 3739.57 1578.45C3739.57 1597.14 3754.72 1612.29 3773.41 1612.29Z" fill="#263238"/>
<path d="M3861.39 1605.52C3880.08 1605.52 3895.23 1590.37 3895.23 1571.69C3895.23 1553 3880.08 1537.85 3861.39 1537.85C3842.7 1537.85 3827.55 1553 3827.55 1571.69C3827.55 1590.37 3842.7 1605.52 3861.39 1605.52Z" fill="#263238"/>
<path d="M3881.69 1859.32C3916.34 1747.58 3911.67 1735.53 3904.91 1687.75C3900.64 1657.36 3887.11 1638.62 3856.31 1631.51L3828.7 1628.53C3830.87 1648.84 3764.88 1651.21 3756.83 1636.25L3705.39 1637.13C3690.84 1642.27 3657.34 1714.35 3651.93 1762.47C3647.53 1801.52 3678.12 1835.42 3678.12 1835.42C3679.27 1850.92 3668.24 1882.12 3668.24 1882.12C3668.24 1882.12 3662.76 1976.53 3659.64 2024.92C3659.64 2024.92 3686.71 2061.6 3805.76 2051.38C3886.97 2044.62 3929.68 2005.36 3929.68 2005.36C3922.18 1954.29 3905.94 1904.89 3881.69 1859.32Z" fill="#263238"/>
<path d="M3693.96 1899.92C3701.2 1886.39 3714.26 1744.26 3719.13 1695.67L3642.45 1734.79L3625.4 1872.85C3621.2 1881.99 3586.28 1955.96 3561.65 1983.84C3557.23 1988.72 3551.19 1991.82 3544.66 1992.57C3527.06 1994.67 3517.59 2000.83 3502.29 2006.72C3490.38 2011.32 3482.6 2010.17 3482.4 2013.49C3482.63 2017.08 3484.19 2020.46 3486.78 2022.96C3489.37 2025.46 3492.8 2026.91 3496.4 2027.02C3504.48 2027.54 3512.6 2027.09 3520.57 2025.67C3510.03 2035.18 3498.14 2043.09 3485.31 2049.15C3455.32 2063.5 3438.4 2076.22 3476.64 2094.83C3500.6 2106.34 3537.08 2098.96 3580.05 2054.23C3592.44 2041.44 3608.88 2020.39 3622.76 2002.39C3655.72 1960.43 3673.99 1937.35 3693.96 1899.92Z" fill="#FFB9A7"/>
<path d="M3638.05 1722.27C3641.1 1679.43 3656.73 1635.57 3705.06 1637.2C3722.04 1655.81 3724.14 1683.69 3720.28 1727.07C3717.03 1763.82 3710.54 1831.16 3710.54 1831.16C3694.7 1841.04 3643.27 1835.09 3626.01 1821.48L3638.05 1722.27Z" fill="#90CAF9"/>
<path opacity="0.4" d="M3638.05 1722.27C3641.1 1679.43 3656.73 1635.57 3705.06 1637.2C3722.04 1655.81 3724.14 1683.69 3720.28 1727.07C3717.03 1763.82 3710.54 1831.16 3710.54 1831.16C3694.7 1841.04 3643.27 1835.09 3626.01 1821.48L3638.05 1722.27Z" fill="black"/>
<defs>
<filter id="filter0_f_2108_1179" x="1077.44" y="239.443" width="5261.11" height="4291.11" filterUnits="userSpaceOnUse" color-interpolation-filters="sRGB">
<feFlood flood-opacity="0" result="BackgroundImageFix"/>
<feBlend mode="normal" in="SourceGraphic" in2="BackgroundImageFix" result="shape"/>
<feGaussianBlur stdDeviation="284.278" result="effect1_foregroundBlur_2108_1179"/>
</filter>
<linearGradient id="paint0_linear_2108_1179" x1="3708" y1="808" x2="3708" y2="3962" gradientUnits="userSpaceOnUse">
<stop stop-color="#16B6F0" stop-opacity="0.36"/>
<stop offset="1" stop-color="#1653F0" stop-opacity="0.6"/>
</linearGradient>
<linearGradient id="paint1_linear_2108_1179" x1="1049.5" y1="3665.68" x2="1049.5" y2="6441.82" gradientUnits="userSpaceOnUse">
<stop stop-color="#EAF0FF" stop-opacity="0.05"/>
<stop offset="1" stop-color="#EAF0FF"/>
</linearGradient>
<clipPath id="clip0_2108_1179">
<rect width="5371" height="3529" fill="white"/>
</clipPath>
</defs>
</svg>
