<svg width="5294" height="3529" viewBox="0 0 5294 3529" fill="none" xmlns="http://www.w3.org/2000/svg">
<path d="M0 0H5294V3529H0V0Z" fill="#D9D9D9"/>
<path d="M0 0H5294V3529H0V0Z" fill="url(#paint0_linear_2106_1920)" fill-opacity="0.2"/>
<path d="M4647 2893.2H647V2895.2H4647V2893.2Z" fill="#EBEBEB"/>
<path d="M4246.2 3021.92H3981.24V3023.92H4246.2V3021.92Z" fill="#EBEBEB"/>
<path d="M3296.76 3043.68H3227.24V3045.68H3296.76V3043.68Z" fill="#EBEBEB"/>
<path d="M3973.24 2947.68H3819.72V2949.68H3973.24V2947.68Z" fill="#EBEBEB"/>
<path d="M1412.2 2961.12H1066.68V2963.12H1412.2V2961.12Z" fill="#EBEBEB"/>
<path d="M1534.12 2961.12H1483.48V2963.12H1534.12V2961.12Z" fill="#EBEBEB"/>
<path d="M2448.2 2994.88H1698.76V2996.88H2448.2V2994.88Z" fill="#EBEBEB"/>
<path d="M2543 2536.4H998.279C986.177 2536.38 974.579 2531.56 966.03 2522.99C957.48 2514.43 952.679 2502.82 952.679 2490.72V319.28C952.784 307.248 957.632 295.744 966.17 287.266C974.708 278.788 986.246 274.021 998.279 274H2543C2555.11 274 2566.73 278.813 2575.3 287.379C2583.87 295.946 2588.68 307.565 2588.68 319.68V2490.72C2588.68 2502.83 2583.87 2514.45 2575.3 2523.02C2566.73 2531.59 2555.11 2536.4 2543 2536.4ZM998.279 275.6C986.708 275.621 975.618 280.233 967.444 288.422C959.27 296.611 954.679 307.709 954.679 319.28V2490.72C954.679 2502.29 959.27 2513.39 967.444 2521.58C975.618 2529.77 986.708 2534.38 998.279 2534.4H2543C2554.58 2534.38 2565.67 2529.77 2573.86 2521.58C2582.05 2513.4 2586.66 2502.3 2586.68 2490.72V319.28C2586.66 307.702 2582.05 296.604 2573.86 288.417C2565.67 280.23 2554.58 275.621 2543 275.6H998.279Z" fill="#EBEBEB"/>
<path d="M4273.48 2536.4H2728.68C2716.57 2536.38 2704.97 2531.56 2696.4 2523C2687.84 2514.43 2683.02 2502.83 2683 2490.72V319.28C2683.13 307.241 2687.99 295.737 2696.54 287.261C2705.09 278.785 2716.64 274.02 2728.68 274H4273.48C4285.5 274.042 4297.02 278.818 4305.54 287.294C4314.06 295.77 4318.9 307.262 4319 319.28V2490.72C4319 2502.81 4314.21 2514.4 4305.68 2522.96C4297.15 2531.53 4285.57 2536.36 4273.48 2536.4ZM2728.68 275.6C2717.1 275.621 2706 280.23 2697.82 288.417C2689.63 296.604 2685.02 307.702 2685 319.28V2490.72C2685.02 2502.3 2689.63 2513.4 2697.82 2521.58C2706 2529.77 2717.1 2534.38 2728.68 2534.4H4273.48C4285.06 2534.38 4296.16 2529.77 4304.34 2521.58C4312.53 2513.4 4317.14 2502.3 4317.16 2490.72V319.28C4317.14 307.702 4312.53 296.604 4304.34 288.417C4296.16 280.23 4285.06 275.621 4273.48 275.6H2728.68Z" fill="#EBEBEB"/>
<path d="M2799.24 2894.4H4209.56V1108.56L2799.24 1108.56V2894.4Z" fill="#F0F0F0"/>
<path d="M2849.08 1555.52L4159.72 1555.52V1173.6L2849.08 1173.6V1555.52Z" fill="#E0E0E0"/>
<path d="M4085.24 1555.44H4159.72V1235.36H4085.24V1555.44Z" fill="#EBEBEB"/>
<path d="M3725.24 1555.44H3799.72V1235.36H3725.24V1555.44Z" fill="#EBEBEB"/>
<path d="M3262.25 1542.73L3335.65 1555.38L3390.02 1239.95L3316.63 1227.3L3262.25 1542.73Z" fill="#EBEBEB"/>
<path d="M3993 1555.52H4067.48V1277.6H3993V1555.52Z" fill="#EBEBEB"/>
<path d="M3821.88 1555.52H3896.36V1277.6H3821.88V1555.52Z" fill="#EBEBEB"/>
<path d="M3389.96 1555.52H3464.44V1277.6H3389.96V1555.52Z" fill="#EBEBEB"/>
<path d="M3567.25 1539.25L3639.96 1555.41L3700.25 1284.11L3627.55 1267.95L3567.25 1539.25Z" fill="#EBEBEB"/>
<path d="M3928.68 1555.52H3965.88V1219.6H3928.68V1555.52Z" fill="#EBEBEB"/>
<path d="M3485.8 1555.52H3523V1219.6H3485.8V1555.52Z" fill="#EBEBEB"/>
<path d="M4159.8 1615.92H2849.16V1997.84H4159.8V1615.92Z" fill="#E0E0E0"/>
<path d="M2923.64 1677.76H2849.16V1997.84H2923.64V1677.76Z" fill="#EBEBEB"/>
<path d="M3283.64 1677.76H3209.16V1997.84H3283.64V1677.76Z" fill="#EBEBEB"/>
<path d="M3692.37 1669.66L3618.97 1682.31L3673.34 1997.74L3746.74 1985.09L3692.37 1669.66Z" fill="#EBEBEB"/>
<path d="M3015.88 1719.92H2941.4V1997.84H3015.88V1719.92Z" fill="#EBEBEB"/>
<path d="M3187 1719.92H3112.52V1997.84H3187V1719.92Z" fill="#EBEBEB"/>
<path d="M3618.92 1719.92H3544.44V1997.84H3618.92V1719.92Z" fill="#EBEBEB"/>
<path d="M3381.5 1710.27L3308.8 1726.43L3369.09 1997.73L3441.8 1981.57L3381.5 1710.27Z" fill="#EBEBEB"/>
<path d="M3080.2 1661.92H3043V1997.84H3080.2V1661.92Z" fill="#EBEBEB"/>
<path d="M3523.08 1661.92H3485.88V1997.84H3523.08V1661.92Z" fill="#EBEBEB"/>
<path d="M4085.24 1997.84H4159.72V1677.76H4085.24V1997.84Z" fill="#EBEBEB"/>
<path d="M3993 1997.84H4067.48V1719.92H3993V1997.84Z" fill="#EBEBEB"/>
<path d="M3821.88 1997.84H3896.36V1719.92H3821.88V1997.84Z" fill="#EBEBEB"/>
<path d="M3928.68 1997.84H3965.88V1661.92H3928.68V1997.84Z" fill="#EBEBEB"/>
<path d="M2849.08 2440.16H4159.72V2058.24H2849.08V2440.16Z" fill="#E0E0E0"/>
<path d="M3333 2440.16H3407.48V2120.08H3333V2440.16Z" fill="#EBEBEB"/>
<path d="M2870.04 2427.49L2943.44 2440.14L2997.81 2124.71L2924.41 2112.06L2870.04 2427.49Z" fill="#EBEBEB"/>
<path d="M3600.76 2440.16H3675.24V2162.24H3600.76V2440.16Z" fill="#EBEBEB"/>
<path d="M3429.64 2440.16H3504.12V2162.24H3429.64V2440.16Z" fill="#EBEBEB"/>
<path d="M2997.72 2440.16H3072.2V2162.24H2997.72V2440.16Z" fill="#EBEBEB"/>
<path d="M3175.05 2423.98L3247.76 2440.14L3308.05 2168.84L3235.35 2152.68L3175.05 2423.98Z" fill="#EBEBEB"/>
<path d="M3536.44 2440.16H3573.64V2104.24H3536.44V2440.16Z" fill="#EBEBEB"/>
<path d="M3093.64 2440.16H3130.84V2104.24H3093.64V2440.16Z" fill="#EBEBEB"/>
<path d="M3726.64 2427.45L3800.04 2440.1L3854.41 2124.67L3781.01 2112.02L3726.64 2427.45Z" fill="#EBEBEB"/>
<path d="M3854.28 2440.16H3928.76V2162.24H3854.28V2440.16Z" fill="#EBEBEB"/>
<path d="M4031.69 2423.93L4104.4 2440.08L4164.69 2168.78L4091.99 2152.62L4031.69 2423.93Z" fill="#EBEBEB"/>
<path d="M3950.2 2440.16H3987.4V2104.24H3950.2V2440.16Z" fill="#EBEBEB"/>
<path d="M3993.08 1108.48V1082H3950.12C3976.76 1000.86 3982.27 914.264 3966.12 830.401C3966.12 830.401 3966.76 940.241 3924.28 941.041C3859.4 942.161 3854.52 830.401 3854.52 830.401C3854.52 830.401 3838.52 990.401 3897.08 1082H3852.6V1108.48H3993.08Z" fill="#E0E0E0"/>
<path d="M3909.8 941.121C3930.48 941.121 3947.24 924.359 3947.24 903.681C3947.24 883.004 3930.48 866.241 3909.8 866.241C3889.12 866.241 3872.36 883.004 3872.36 903.681C3872.36 924.359 3889.12 941.121 3909.8 941.121Z" fill="#E0E0E0"/>
<path d="M3705.08 1108.48V1093.04L3659.72 1071.92L3682.36 1049.84L3625.96 850.398V974.878C3625.96 974.878 3633.96 974.878 3633.96 992.798C3633.96 1010.72 3608.28 1006.56 3608.28 991.758C3608.28 976.958 3616.68 974.878 3616.68 974.878V845.118L3565 1042.4L3588.2 1071.92L3541.8 1093.04V1108.48H3705.08Z" fill="#E0E0E0"/>
<path d="M3427.24 1108.48V1096.24L3385.4 1086.72V903.68L3349.56 853.6L3319 892.8V976.8L3303.16 954.88L3281 946.4L3265.16 981.04L3298.92 1086.72L3265.16 1096.24V1108.48H3427.24Z" fill="#E0E0E0"/>
<path d="M3149.72 1114.08L3098.44 853.6H2941.4L2978.6 1001.28L2923.56 1108.48L3149.72 1114.08Z" fill="#E0E0E0"/>
<path d="M2117 725.919H1073.48V779.519H2117V725.919Z" fill="#E0E0E0"/>
<path d="M1167.48 528.321H1121.48V725.921H1167.48V528.321Z" fill="#EBEBEB"/>
<path d="M1389.8 528.321H1343.8V725.921H1389.8V528.321Z" fill="#EBEBEB"/>
<path d="M1642.13 523.359L1596.8 531.173L1630.37 725.901L1675.7 718.087L1642.13 523.359Z" fill="#EBEBEB"/>
<path d="M1224.44 554.322H1178.44V725.922H1224.44V554.322Z" fill="#EBEBEB"/>
<path d="M1330.12 554.322H1284.12V725.922H1330.12V554.322Z" fill="#EBEBEB"/>
<path d="M1596.84 554.322H1550.84V725.922H1596.84V554.322Z" fill="#EBEBEB"/>
<path d="M1450.19 548.429L1405.28 558.409L1442.51 725.922L1487.41 715.942L1450.19 548.429Z" fill="#EBEBEB"/>
<path d="M1264.12 518.478H1241.16V725.918H1264.12V518.478Z" fill="#EBEBEB"/>
<path d="M1537.56 518.478H1514.6V725.918H1537.56V518.478Z" fill="#EBEBEB"/>
<path d="M2016.84 569.522H1792.84V724.162H2016.84V569.522Z" fill="#EBEBEB"/>
<path d="M1073.4 1179.84L2116.92 1179.84V1126.24L1073.4 1126.24V1179.84Z" fill="#E0E0E0"/>
<path d="M2022.92 1126.24H2068.92V928.641H2022.92V1126.24Z" fill="#EBEBEB"/>
<path d="M1800.6 1126.24H1846.6V928.641H1800.6V1126.24Z" fill="#EBEBEB"/>
<path d="M1514.74 1118.35L1560.08 1126.16L1593.64 931.435L1548.31 923.621L1514.74 1118.35Z" fill="#EBEBEB"/>
<path d="M1965.96 1126.16H2011.96V954.558H1965.96V1126.16Z" fill="#EBEBEB"/>
<path d="M1860.36 1126.16H1906.36V954.558H1860.36V1126.16Z" fill="#EBEBEB"/>
<path d="M1593.64 1126.16H1639.64V954.558H1593.64V1126.16Z" fill="#EBEBEB"/>
<path d="M1703.12 1116.18L1748.03 1126.16L1785.25 958.645L1740.35 948.666L1703.12 1116.18Z" fill="#EBEBEB"/>
<path d="M1926.28 1126.24H1949.24V918.801H1926.28V1126.24Z" fill="#EBEBEB"/>
<path d="M1652.84 1126.24H1675.8V918.801H1652.84V1126.24Z" fill="#EBEBEB"/>
<path d="M1173.56 1124.4H1397.56V969.76H1173.56V1124.4Z" fill="#EBEBEB"/>
<path d="M1898.04 1909.76H1022.92V2894.4H1898.04V1909.76Z" fill="#E0E0E0"/>
<path d="M1854.6 1948.96H1066.36V2107.52H1854.6V1948.96Z" fill="#EBEBEB"/>
<path d="M1854.6 2148.72H1066.36V2307.28H1854.6V2148.72Z" fill="#EBEBEB"/>
<path d="M1854.6 2348.48H1066.36V2821.28H1854.6V2348.48Z" fill="#EBEBEB"/>
<path d="M1497.16 1976.08H1423.8C1414.21 1976.08 1404.78 1973.58 1396.45 1968.82C1388.11 1964.07 1381.16 1957.22 1376.28 1948.96H1544.28C1539.44 1957.16 1532.55 1963.97 1524.29 1968.72C1516.04 1973.48 1506.69 1976.01 1497.16 1976.08Z" fill="#E0E0E0"/>
<path d="M1497.16 2175.6H1423.8C1414.21 2175.6 1404.78 2173.1 1396.45 2168.34C1388.11 2163.59 1381.16 2156.74 1376.28 2148.48H1544.28C1539.44 2156.68 1532.55 2163.49 1524.29 2168.25C1516.04 2173 1506.69 2175.53 1497.16 2175.6Z" fill="#E0E0E0"/>
<path d="M1497.16 2375.84H1423.8C1414.2 2375.84 1404.76 2373.33 1396.43 2368.56C1388.09 2363.79 1381.15 2356.92 1376.28 2348.64H1544.28C1539.45 2356.86 1532.57 2363.69 1524.31 2368.46C1516.05 2373.23 1506.7 2375.77 1497.16 2375.84Z" fill="#E0E0E0"/>
<path d="M2647 3254.48C3503.66 3254.48 4198.12 3213.94 4198.12 3163.92C4198.12 3113.91 3503.66 3073.36 2647 3073.36C1790.34 3073.36 1095.88 3113.91 1095.88 3163.92C1095.88 3213.94 1790.34 3254.48 2647 3254.48Z" fill="#F5F5F5"/>
<path d="M1509.8 2573.2C1508.12 2584.96 1539.96 2592.72 1565.8 2597.2C1563.72 2618.56 1549.8 2640.16 1529.88 2660.32C1505.16 2646.4 1469.96 2628.32 1463.48 2632.48C1457 2636.64 1492.44 2660.72 1515 2674.48C1498.89 2688.57 1481.81 2701.51 1463.88 2713.2C1452.84 2702.88 1439.88 2693.76 1431.88 2698.72C1423.88 2703.68 1426.04 2719.76 1429.96 2734.08C1403.08 2749.68 1383 2759.2 1383 2759.2C1375.19 2734.26 1369.2 2708.78 1365.08 2682.96C1366.44 2680.32 1367.8 2677.6 1369 2674.96C1373.32 2664.96 1369 2660.72 1361.96 2658.96C1359.91 2640.73 1359.78 2622.34 1361.56 2604.08C1391.88 2597.68 1428.84 2585.92 1415 2567.68C1407 2556.64 1391 2555.44 1375.48 2558.16C1377.67 2554.55 1380.18 2551.15 1383 2548C1438.36 2487.04 1476.92 2548 1476.92 2548C1508.92 2521.2 1554.2 2528.4 1563.96 2570.32C1546.36 2565.6 1511.88 2558.72 1509.8 2573.2Z" fill="#90CAF9"/>
<path opacity="0.3" d="M1509.8 2573.2C1508.12 2584.96 1539.96 2592.72 1565.8 2597.2C1563.72 2618.56 1549.8 2640.16 1529.88 2660.32C1505.16 2646.4 1469.96 2628.32 1463.48 2632.48C1457 2636.64 1492.44 2660.72 1515 2674.48C1498.89 2688.57 1481.81 2701.51 1463.88 2713.2C1452.84 2702.88 1439.88 2693.76 1431.88 2698.72C1423.88 2703.68 1426.04 2719.76 1429.96 2734.08C1403.08 2749.68 1383 2759.2 1383 2759.2C1375.19 2734.26 1369.2 2708.78 1365.08 2682.96C1366.44 2680.32 1367.8 2677.6 1369 2674.96C1373.32 2664.96 1369 2660.72 1361.96 2658.96C1359.91 2640.73 1359.78 2622.34 1361.56 2604.08C1391.88 2597.68 1428.84 2585.92 1415 2567.68C1407 2556.64 1391 2555.44 1375.48 2558.16C1377.67 2554.55 1380.18 2551.15 1383 2548C1438.36 2487.04 1476.92 2548 1476.92 2548C1508.92 2521.2 1554.2 2528.4 1563.96 2570.32C1546.36 2565.6 1511.88 2558.72 1509.8 2573.2Z" fill="white"/>
<path d="M1440.76 3021.12L1448.76 3020.48C1448.76 3016.32 1415.96 2608.24 1507.56 2569.76C1511.93 2567.71 1516.71 2566.72 1521.53 2566.84C1526.34 2566.97 1531.07 2568.21 1535.32 2570.48C1568.44 2587.68 1584.28 2659.12 1584.44 2659.84L1592.44 2658.16C1591.72 2655.04 1575.56 2582.32 1539.16 2563.36C1533.86 2560.56 1527.99 2559.01 1521.99 2558.84C1516 2558.68 1510.05 2559.89 1504.6 2562.4C1407.56 2603.12 1439 3004.08 1440.76 3021.12Z" fill="#90CAF9"/>
<path d="M1429.24 3012.24C1430.84 2993.92 1468.2 2562.16 1398.28 2516.24C1381.56 2505.2 1366.28 2502.88 1353.96 2509.28C1320.92 2526 1316.52 2596.56 1316.36 2599.6L1324.36 2600C1324.36 2599.36 1328.6 2531.04 1357.56 2516.4C1367.48 2511.44 1379.72 2513.6 1393.96 2522.88C1459.88 2566.16 1421.64 3007.04 1421.24 3011.52L1429.24 3012.24Z" fill="#90CAF9"/>
<path d="M1418.68 3047.2C1419.24 3033.12 1431 2702.64 1367 2674C1361.08 2671.21 1354.62 2669.77 1348.08 2669.77C1341.54 2669.77 1335.08 2671.21 1329.16 2674C1285.48 2693.2 1258.52 2774.64 1257.16 2778L1265.16 2780.48C1265.16 2779.68 1292.12 2699.04 1332.52 2681.28C1337.42 2678.95 1342.78 2677.74 1348.2 2677.74C1353.63 2677.74 1358.98 2678.95 1363.88 2681.28C1412.68 2703.44 1414.28 2953.28 1410.76 3047.2H1418.68Z" fill="#90CAF9"/>
<path d="M1434.92 3032.08L1442.92 3031.12C1431.72 2932.8 1410.28 2670.64 1445.32 2639.12C1447.03 2637.08 1449.29 2635.58 1451.83 2634.8C1454.37 2634.02 1457.08 2633.99 1459.64 2634.72C1483.08 2643.76 1497.4 2728.96 1500.92 2761.12L1508.92 2760.24C1507.56 2747.92 1494.76 2639.6 1462.52 2627.28C1458.59 2625.94 1454.36 2625.79 1450.35 2626.84C1446.34 2627.9 1442.72 2630.11 1439.96 2633.2C1394.6 2674 1433.24 3017.44 1434.92 3032.08Z" fill="#90CAF9"/>
<path d="M1568.36 2845.6H1281L1305 3167.52H1544.36L1568.36 2845.6Z" fill="#263238"/>
<path opacity="0.2" d="M1481.08 2845.6L1473.08 3167.52H1305L1281 2845.6H1481.08Z" fill="white"/>
<path d="M1529.24 2727.44C1532.28 2735.44 1554.6 2729.12 1572.12 2722.88C1578.12 2736.72 1576.76 2754.88 1571.56 2774.08C1551.56 2774.08 1523.56 2774.72 1521.08 2779.68C1518.6 2784.64 1548.6 2787.2 1567.24 2787.68C1562.15 2801.88 1556.05 2815.7 1549 2829.04C1538.6 2826.48 1527.56 2825.36 1524.44 2831.04C1521.32 2836.72 1528.12 2846 1535.4 2853.44C1524.2 2872.32 1515.08 2885.44 1515.08 2885.44C1501.72 2872.72 1489.29 2859.06 1477.88 2844.56C1477.88 2842.4 1477.88 2840.32 1477.88 2838.08C1477.16 2830.48 1473.08 2829.28 1468.2 2830.88C1460.64 2820.34 1454.23 2809.02 1449.08 2797.12C1465.64 2782.8 1484.36 2762.88 1469.56 2756.32C1460.68 2752.4 1450.84 2756.88 1441.96 2764.32C1442.05 2761.33 1442.42 2758.36 1443.08 2755.44C1456.28 2698.88 1501 2723.44 1501 2723.44C1511.64 2695.92 1541.96 2684.88 1562.36 2707.44C1549.24 2710.16 1525.56 2717.76 1529.24 2727.44Z" fill="#90CAF9"/>
<path opacity="0.3" d="M1529.24 2727.44C1532.28 2735.44 1554.6 2729.12 1572.12 2722.88C1578.12 2736.72 1576.76 2754.88 1571.56 2774.08C1551.56 2774.08 1523.56 2774.72 1521.08 2779.68C1518.6 2784.64 1548.6 2787.2 1567.24 2787.68C1562.15 2801.88 1556.05 2815.7 1549 2829.04C1538.6 2826.48 1527.56 2825.36 1524.44 2831.04C1521.32 2836.72 1528.12 2846 1535.4 2853.44C1524.2 2872.32 1515.08 2885.44 1515.08 2885.44C1501.72 2872.72 1489.29 2859.06 1477.88 2844.56C1477.88 2842.4 1477.88 2840.32 1477.88 2838.08C1477.16 2830.48 1473.08 2829.28 1468.2 2830.88C1460.64 2820.34 1454.23 2809.02 1449.08 2797.12C1465.64 2782.8 1484.36 2762.88 1469.56 2756.32C1460.68 2752.4 1450.84 2756.88 1441.96 2764.32C1442.05 2761.33 1442.42 2758.36 1443.08 2755.44C1456.28 2698.88 1501 2723.44 1501 2723.44C1511.64 2695.92 1541.96 2684.88 1562.36 2707.44C1549.24 2710.16 1525.56 2717.76 1529.24 2727.44Z" fill="white"/>
<path d="M1315.88 2765.68C1324.82 2766.42 1333.64 2768.28 1342.12 2771.2C1344.45 2765.11 1345.74 2758.68 1345.96 2752.16C1347.8 2694.16 1305.96 2718.64 1284.36 2701.6C1279.4 2697.22 1273.58 2693.92 1267.27 2691.93C1260.96 2689.93 1254.3 2689.27 1247.72 2690C1249.56 2693.21 1251.22 2696.52 1252.68 2699.92C1253.19 2701.19 1253.41 2702.56 1253.31 2703.93C1253.22 2705.3 1252.82 2706.63 1252.15 2707.82C1251.47 2709.01 1250.53 2710.03 1249.41 2710.81C1248.28 2711.59 1246.99 2712.11 1245.64 2712.32C1240.24 2713.41 1234.63 2712.74 1229.64 2710.4C1228.12 2709.61 1226.7 2708.64 1225.4 2707.52C1221.9 2713.6 1219.21 2720.11 1217.4 2726.88C1215.19 2734.97 1213.93 2743.3 1213.64 2751.68C1216.92 2752.39 1220.15 2753.3 1223.32 2754.4C1224.59 2754.94 1225.72 2755.77 1226.62 2756.82C1227.52 2757.86 1228.17 2759.1 1228.52 2760.44C1228.86 2761.77 1228.9 2763.17 1228.62 2764.53C1228.35 2765.88 1227.76 2767.15 1226.92 2768.24C1223.43 2771.57 1219.4 2774.27 1215 2776.24C1216.48 2785.51 1218.92 2794.6 1222.28 2803.36C1223.24 2803.36 1224.28 2803.36 1225.24 2803.84C1226.2 2804.32 1229.4 2804.8 1231.48 2805.36C1232.69 2805.67 1233.87 2806.1 1235 2806.64C1236.45 2807.26 1237.7 2808.25 1238.65 2809.5C1239.6 2810.75 1240.21 2812.23 1240.41 2813.79C1240.61 2815.35 1240.4 2816.93 1239.8 2818.39C1239.21 2819.84 1238.24 2821.12 1237 2822.08C1235.61 2823.04 1234.17 2823.92 1232.68 2824.72C1238.19 2834.3 1246.1 2842.27 1255.64 2847.84C1263.89 2844.03 1271.9 2839.73 1279.64 2834.96C1277.88 2832.64 1276.2 2830.32 1274.6 2827.92C1272.69 2825.29 1271.81 2822.04 1272.12 2818.8C1272.56 2815.58 1274.25 2812.66 1276.82 2810.66C1279.4 2808.67 1282.65 2807.78 1285.88 2808.16C1289.05 2808.66 1291.91 2810.35 1293.88 2812.88C1295.8 2815.76 1297.88 2818.48 1299.96 2820.88C1311.03 2812.72 1320.94 2803.08 1329.4 2792.24H1328.52C1323.28 2790.88 1317.92 2789.97 1312.52 2789.52C1310.86 2789.39 1309.24 2788.92 1307.76 2788.14C1306.28 2787.36 1304.98 2786.29 1303.93 2784.99C1302.88 2783.69 1302.1 2782.19 1301.65 2780.59C1301.2 2778.98 1301.07 2777.3 1301.29 2775.64C1301.51 2773.98 1302.06 2772.39 1302.91 2770.95C1303.77 2769.52 1304.9 2768.27 1306.25 2767.29C1307.6 2766.3 1309.14 2765.6 1310.76 2765.23C1312.39 2764.86 1314.08 2764.82 1315.72 2765.12L1315.88 2765.68Z" fill="#90CAF9"/>
<path opacity="0.5" d="M1315.88 2765.68C1324.82 2766.42 1333.64 2768.28 1342.12 2771.2C1344.45 2765.11 1345.74 2758.68 1345.96 2752.16C1347.8 2694.16 1305.96 2718.64 1284.36 2701.6C1279.4 2697.22 1273.58 2693.92 1267.27 2691.93C1260.96 2689.93 1254.3 2689.27 1247.72 2690C1249.56 2693.21 1251.22 2696.52 1252.68 2699.92C1253.19 2701.19 1253.41 2702.56 1253.31 2703.93C1253.22 2705.3 1252.82 2706.63 1252.15 2707.82C1251.47 2709.01 1250.53 2710.03 1249.41 2710.81C1248.28 2711.59 1246.99 2712.11 1245.64 2712.32C1240.24 2713.41 1234.63 2712.74 1229.64 2710.4C1228.12 2709.61 1226.7 2708.64 1225.4 2707.52C1221.9 2713.6 1219.21 2720.11 1217.4 2726.88C1215.19 2734.97 1213.93 2743.3 1213.64 2751.68C1216.92 2752.39 1220.15 2753.3 1223.32 2754.4C1224.59 2754.94 1225.72 2755.77 1226.62 2756.82C1227.52 2757.86 1228.17 2759.1 1228.52 2760.44C1228.86 2761.77 1228.9 2763.17 1228.62 2764.53C1228.35 2765.88 1227.76 2767.15 1226.92 2768.24C1223.43 2771.57 1219.4 2774.27 1215 2776.24C1216.48 2785.51 1218.92 2794.6 1222.28 2803.36C1223.24 2803.36 1224.28 2803.36 1225.24 2803.84C1226.2 2804.32 1229.4 2804.8 1231.48 2805.36C1232.69 2805.67 1233.87 2806.1 1235 2806.64C1236.45 2807.26 1237.7 2808.25 1238.65 2809.5C1239.6 2810.75 1240.21 2812.23 1240.41 2813.79C1240.61 2815.35 1240.4 2816.93 1239.8 2818.39C1239.21 2819.84 1238.24 2821.12 1237 2822.08C1235.61 2823.04 1234.17 2823.92 1232.68 2824.72C1238.19 2834.3 1246.1 2842.27 1255.64 2847.84C1263.89 2844.03 1271.9 2839.73 1279.64 2834.96C1277.88 2832.64 1276.2 2830.32 1274.6 2827.92C1272.69 2825.29 1271.81 2822.04 1272.12 2818.8C1272.56 2815.58 1274.25 2812.66 1276.82 2810.66C1279.4 2808.67 1282.65 2807.78 1285.88 2808.16C1289.05 2808.66 1291.91 2810.35 1293.88 2812.88C1295.8 2815.76 1297.88 2818.48 1299.96 2820.88C1311.03 2812.72 1320.94 2803.08 1329.4 2792.24H1328.52C1323.28 2790.88 1317.92 2789.97 1312.52 2789.52C1310.86 2789.39 1309.24 2788.92 1307.76 2788.14C1306.28 2787.36 1304.98 2786.29 1303.93 2784.99C1302.88 2783.69 1302.1 2782.19 1301.65 2780.59C1301.2 2778.98 1301.07 2777.3 1301.29 2775.64C1301.51 2773.98 1302.06 2772.39 1302.91 2770.95C1303.77 2769.52 1304.9 2768.27 1306.25 2767.29C1307.6 2766.3 1309.14 2765.6 1310.76 2765.23C1312.39 2764.86 1314.08 2764.82 1315.72 2765.12L1315.88 2765.68Z" fill="white"/>
<path d="M1299.24 2565.84C1294.29 2562.3 1288.92 2559.39 1283.24 2557.2C1284.7 2552.99 1286.84 2549.05 1289.56 2545.52C1314.04 2514.24 1325.16 2545.52 1344.12 2546C1348.6 2545.9 1353.05 2546.73 1357.18 2548.45C1361.32 2550.18 1365.04 2552.75 1368.12 2556C1365.73 2556.85 1363.41 2557.87 1361.16 2559.04C1360.34 2559.49 1359.64 2560.12 1359.09 2560.88C1358.55 2561.64 1358.18 2562.51 1358.01 2563.43C1357.85 2564.34 1357.88 2565.29 1358.12 2566.19C1358.36 2567.09 1358.8 2567.93 1359.4 2568.64C1361.82 2571.64 1365.12 2573.79 1368.84 2574.8C1369.98 2574.88 1371.13 2574.88 1372.28 2574.8C1371.45 2579.53 1370 2584.13 1367.96 2588.48C1365.53 2593.78 1362.52 2598.8 1359 2603.44C1356.95 2602.39 1354.84 2601.46 1352.68 2600.64C1351.78 2600.34 1350.82 2600.26 1349.88 2600.39C1348.94 2600.53 1348.05 2600.88 1347.27 2601.43C1346.49 2601.97 1345.85 2602.69 1345.4 2603.53C1344.95 2604.36 1344.71 2605.29 1344.68 2606.24C1344.91 2609.6 1345.77 2612.89 1347.24 2615.92C1342.31 2620.17 1336.94 2623.9 1331.24 2627.04C1330.68 2626.62 1330.1 2626.25 1329.48 2625.92C1328.2 2625.2 1326.84 2624.64 1325.56 2624L1323.16 2623.12C1322.14 2622.84 1321.06 2622.82 1320.03 2623.05C1318.99 2623.29 1318.04 2623.78 1317.24 2624.48C1316.42 2625.2 1315.8 2626.13 1315.46 2627.18C1315.13 2628.22 1315.08 2629.33 1315.32 2630.4C1315.62 2631.52 1316 2632.61 1316.44 2633.68C1309.33 2636.28 1301.67 2636.99 1294.2 2635.76C1291.5 2630.06 1289.12 2624.21 1287.08 2618.24C1289 2617.76 1290.92 2617.36 1292.76 2616.8C1294.93 2616.22 1296.83 2614.89 1298.12 2613.04C1298.77 2612.12 1299.21 2611.08 1299.43 2609.98C1299.65 2608.88 1299.63 2607.75 1299.38 2606.65C1299.14 2605.56 1298.66 2604.53 1297.99 2603.63C1297.31 2602.73 1296.46 2601.99 1295.48 2601.44C1294.56 2600.83 1293.52 2600.41 1292.44 2600.22C1291.35 2600.03 1290.23 2600.06 1289.16 2600.32C1286.92 2600.96 1284.6 2601.44 1282.28 2602C1280.04 2592.84 1279.05 2583.43 1279.32 2574H1279.96C1283.37 2575.61 1286.63 2577.51 1289.72 2579.68C1291.6 2580.88 1293.87 2581.28 1296.05 2580.8C1298.23 2580.32 1300.12 2579 1301.32 2577.12C1302.45 2575.32 1302.86 2573.16 1302.48 2571.08C1302.09 2568.99 1300.94 2567.12 1299.24 2565.84Z" fill="#90CAF9"/>
<path opacity="0.3" d="M1299.24 2565.84C1294.29 2562.3 1288.92 2559.39 1283.24 2557.2C1284.7 2552.99 1286.84 2549.05 1289.56 2545.52C1314.04 2514.24 1325.16 2545.52 1344.12 2546C1348.6 2545.9 1353.05 2546.73 1357.18 2548.45C1361.32 2550.18 1365.04 2552.75 1368.12 2556C1365.73 2556.85 1363.41 2557.87 1361.16 2559.04C1360.34 2559.49 1359.64 2560.12 1359.09 2560.88C1358.55 2561.64 1358.18 2562.51 1358.01 2563.43C1357.85 2564.34 1357.88 2565.29 1358.12 2566.19C1358.36 2567.09 1358.8 2567.93 1359.4 2568.64C1361.82 2571.64 1365.12 2573.79 1368.84 2574.8C1369.98 2574.88 1371.13 2574.88 1372.28 2574.8C1371.45 2579.53 1370 2584.13 1367.96 2588.48C1365.53 2593.78 1362.52 2598.8 1359 2603.44C1356.95 2602.39 1354.84 2601.46 1352.68 2600.64C1351.78 2600.34 1350.82 2600.26 1349.88 2600.39C1348.94 2600.53 1348.05 2600.88 1347.27 2601.43C1346.49 2601.97 1345.85 2602.69 1345.4 2603.53C1344.95 2604.36 1344.71 2605.29 1344.68 2606.24C1344.91 2609.6 1345.77 2612.89 1347.24 2615.92C1342.31 2620.17 1336.94 2623.9 1331.24 2627.04C1330.68 2626.62 1330.1 2626.25 1329.48 2625.92C1328.2 2625.2 1326.84 2624.64 1325.56 2624L1323.16 2623.12C1322.14 2622.84 1321.06 2622.82 1320.03 2623.05C1318.99 2623.29 1318.04 2623.78 1317.24 2624.48C1316.42 2625.2 1315.8 2626.13 1315.46 2627.18C1315.13 2628.22 1315.08 2629.33 1315.32 2630.4C1315.62 2631.52 1316 2632.61 1316.44 2633.68C1309.33 2636.28 1301.67 2636.99 1294.2 2635.76C1291.5 2630.06 1289.12 2624.21 1287.08 2618.24C1289 2617.76 1290.92 2617.36 1292.76 2616.8C1294.93 2616.22 1296.83 2614.89 1298.12 2613.04C1298.77 2612.12 1299.21 2611.08 1299.43 2609.98C1299.65 2608.88 1299.63 2607.75 1299.38 2606.65C1299.14 2605.56 1298.66 2604.53 1297.99 2603.63C1297.31 2602.73 1296.46 2601.99 1295.48 2601.44C1294.56 2600.83 1293.52 2600.41 1292.44 2600.22C1291.35 2600.03 1290.23 2600.06 1289.16 2600.32C1286.92 2600.96 1284.6 2601.44 1282.28 2602C1280.04 2592.84 1279.05 2583.43 1279.32 2574H1279.96C1283.37 2575.61 1286.63 2577.51 1289.72 2579.68C1291.6 2580.88 1293.87 2581.28 1296.05 2580.8C1298.23 2580.32 1300.12 2579 1301.32 2577.12C1302.45 2575.32 1302.86 2573.16 1302.48 2571.08C1302.09 2568.99 1300.94 2567.12 1299.24 2565.84Z" fill="white"/>
<path d="M1533.4 2623.84C1535.08 2635.6 1503.24 2643.36 1477.4 2647.84C1479.48 2669.2 1493.4 2690.72 1513.32 2710.88C1538.04 2696.96 1573.24 2678.88 1579.72 2683.12C1586.2 2687.36 1550.76 2711.36 1528.2 2725.04C1544.31 2739.13 1561.39 2752.07 1579.32 2763.76C1590.36 2753.44 1603.32 2744.4 1611.32 2749.28C1619.32 2754.16 1617.16 2770.4 1613.24 2784.64C1640.12 2800.64 1660.2 2809.84 1660.2 2809.84C1668.01 2784.89 1674 2759.41 1678.12 2733.6C1676.76 2730.88 1675.4 2728.24 1674.2 2725.6C1669.88 2715.6 1674.2 2711.28 1681.24 2709.6C1683.29 2691.34 1683.42 2672.92 1681.64 2654.64C1651.32 2648.32 1614.36 2636.48 1628.2 2618.24C1636.2 2607.28 1652.2 2606 1667.72 2608.8C1665.53 2605.16 1663.02 2601.73 1660.2 2598.56C1604.84 2537.6 1566.28 2598.56 1566.28 2598.56C1534.28 2571.76 1489 2579.04 1479.24 2620.88C1496.84 2616.16 1531.32 2609.28 1533.4 2623.84Z" fill="#90CAF9"/>
<path opacity="0.5" d="M1533.4 2623.84C1535.08 2635.6 1503.24 2643.36 1477.4 2647.84C1479.48 2669.2 1493.4 2690.72 1513.32 2710.88C1538.04 2696.96 1573.24 2678.88 1579.72 2683.12C1586.2 2687.36 1550.76 2711.36 1528.2 2725.04C1544.31 2739.13 1561.39 2752.07 1579.32 2763.76C1590.36 2753.44 1603.32 2744.4 1611.32 2749.28C1619.32 2754.16 1617.16 2770.4 1613.24 2784.64C1640.12 2800.64 1660.2 2809.84 1660.2 2809.84C1668.01 2784.89 1674 2759.41 1678.12 2733.6C1676.76 2730.88 1675.4 2728.24 1674.2 2725.6C1669.88 2715.6 1674.2 2711.28 1681.24 2709.6C1683.29 2691.34 1683.42 2672.92 1681.64 2654.64C1651.32 2648.32 1614.36 2636.48 1628.2 2618.24C1636.2 2607.28 1652.2 2606 1667.72 2608.8C1665.53 2605.16 1663.02 2601.73 1660.2 2598.56C1604.84 2537.6 1566.28 2598.56 1566.28 2598.56C1534.28 2571.76 1489 2579.04 1479.24 2620.88C1496.84 2616.16 1531.32 2609.28 1533.4 2623.84Z" fill="white"/>
<path d="M3131.8 451.759H1788.28C1742.33 451.759 1705.08 489.009 1705.08 534.959V3084.32C1705.08 3130.27 1742.33 3167.52 1788.28 3167.52H3131.8C3177.75 3167.52 3215 3130.27 3215 3084.32V534.959C3215 489.009 3177.75 451.759 3131.8 451.759Z" fill="#263238"/>
<path d="M3164.52 542.719V3071.68C3164.52 3076.58 3163.55 3081.43 3161.66 3085.95C3159.76 3090.47 3156.99 3094.57 3153.5 3098.01C3150.01 3101.45 3145.87 3104.16 3141.32 3105.99C3136.77 3107.81 3131.9 3108.71 3127 3108.64H1790.04C1785.59 3108.69 1781.17 3107.85 1777.06 3106.16C1772.94 3104.47 1769.2 3101.97 1766.07 3098.8C1762.95 3095.63 1760.49 3091.87 1758.85 3087.73C1757.2 3083.59 1756.41 3079.17 1756.52 3074.72V539.679C1756.36 535.753 1756.98 531.834 1758.34 528.147C1759.69 524.46 1761.77 521.077 1764.43 518.193C1767.1 515.309 1770.31 512.98 1773.89 511.341C1777.46 509.701 1781.32 508.783 1785.24 508.639H2119.48C2124.16 508.722 2128.7 510.197 2132.54 512.876C2136.37 515.555 2139.32 519.316 2141 523.679L2154.84 557.759C2156.55 562.091 2159.51 565.818 2163.34 568.467C2167.17 571.116 2171.7 572.568 2176.36 572.639H2745.4C2750.05 572.635 2754.6 571.239 2758.45 568.629C2762.3 566.02 2765.28 562.317 2767 557.999L2780.84 523.759C2782.57 519.417 2785.52 515.674 2789.35 512.988C2793.17 510.303 2797.69 508.791 2802.36 508.639H3131.8C3140.63 508.91 3149 512.631 3155.12 519.002C3161.23 525.373 3164.61 533.887 3164.52 542.719Z" fill="#90CAF9"/>
<path opacity="0.3" d="M3164.52 666.642H1756.52V2940.64H3164.52V666.642Z" fill="white"/>
<path d="M2157.8 1455.28C2333.87 1455.28 2476.6 1312.55 2476.6 1136.48C2476.6 960.413 2333.87 817.682 2157.8 817.682C1981.73 817.682 1839 960.413 1839 1136.48C1839 1312.55 1981.73 1455.28 2157.8 1455.28Z" fill="white"/>
<path opacity="0.6" d="M2428.68 531.358C2439.37 531.358 2448.04 522.69 2448.04 511.998C2448.04 501.305 2439.37 492.638 2428.68 492.638C2417.99 492.638 2409.32 501.305 2409.32 511.998C2409.32 522.69 2417.99 531.358 2428.68 531.358Z" fill="white"/>
<path opacity="0.6" d="M2487 512.001C2487 514.453 2486.27 516.851 2484.91 518.89C2483.55 520.929 2481.61 522.518 2479.35 523.457C2477.08 524.396 2474.59 524.641 2472.18 524.163C2469.78 523.684 2467.57 522.503 2465.83 520.769C2464.1 519.035 2462.92 516.825 2462.44 514.42C2461.96 512.015 2462.21 509.521 2463.14 507.256C2464.08 504.99 2465.67 503.053 2467.71 501.691C2469.75 500.328 2472.15 499.601 2474.6 499.601C2476.23 499.59 2477.85 499.904 2479.36 500.523C2480.87 501.142 2482.24 502.055 2483.39 503.209C2484.55 504.363 2485.46 505.734 2486.08 507.243C2486.7 508.752 2487.01 510.37 2487 512.001Z" fill="white"/>
<path opacity="0.6" d="M1915.4 610.558H1932.76V587.358H1915.4V610.558Z" fill="white"/>
<path opacity="0.6" d="M1887 610.558H1904.36V579.678H1887V610.558Z" fill="white"/>
<path opacity="0.6" d="M1858.68 610.558H1876.04V571.918H1858.68V610.558Z" fill="white"/>
<path opacity="0.6" d="M1830.36 610.558H1847.72V564.158H1830.36V610.558Z" fill="white"/>
<path opacity="0.6" d="M3008.84 578.878H2998.52V602.078H3008.84V578.878Z" fill="white"/>
<path opacity="0.6" d="M3015.88 610.558H3098.04V570.478H3015.88V610.558Z" fill="white"/>
<path d="M2199 1082C2132.92 1082.8 2033.96 1088 1951.72 1108.72C1951.72 1108.72 1963.8 1169.36 1976.92 1251.84C1981.8 1282.56 1986.84 1315.84 1991.48 1350.96C1992.12 1356.16 1992.84 1361.36 1993.48 1366.96L1994.44 1374.96C1995.72 1385.44 1997 1396 1998.2 1406.48C1998.2 1408.8 1998.76 1411.12 1999 1413.44C2045.35 1440.01 2097.63 1454.51 2151.04 1455.61C2204.45 1456.72 2257.28 1444.39 2304.68 1419.76C2304.04 1313.2 2297.48 1177.92 2272.28 1083.76C2272.36 1082.88 2243 1081.52 2199 1082Z" fill="#90CAF9"/>
<path opacity="0.6" d="M2199 1082C2132.92 1082.8 2033.96 1088 1951.72 1108.72C1951.72 1108.72 1963.8 1169.36 1976.92 1251.84C1981.8 1282.56 1986.84 1315.84 1991.48 1350.96C1992.12 1356.16 1992.84 1361.36 1993.48 1366.96L1994.44 1374.96C1995.72 1385.44 1997 1396 1998.2 1406.48C1998.2 1408.8 1998.76 1411.12 1999 1413.44C2045.35 1440.01 2097.63 1454.51 2151.04 1455.61C2204.45 1456.72 2257.28 1444.39 2304.68 1419.76C2304.04 1313.2 2297.48 1177.92 2272.28 1083.76C2272.36 1082.88 2243 1081.52 2199 1082Z" fill="white"/>
<path d="M2059.24 1095.04C2085.64 1119.04 2150.2 1110.16 2150.2 1110.16C2150.2 1110.16 2190.2 1099.12 2182.2 1086.16C2158.2 1082.24 2146.92 1071.12 2142.2 1056.96C2139.64 1048.16 2138.83 1038.95 2139.8 1029.84C2139.8 1024.8 2140.92 1019.68 2141.8 1014.64L2061.8 955.519C2072.28 994.879 2085.08 1066.72 2059.24 1095.04Z" fill="#EBB376"/>
<path opacity="0.2" d="M2080.2 993.438C2083.4 1041.44 2122.76 1054.56 2142.04 1057.44C2139.48 1048.64 2138.67 1039.43 2139.64 1030.32L2080.2 993.438Z" fill="black"/>
<path d="M2179.48 832.721C2179.48 832.721 2206.84 903.041 2174.44 939.681C2142.04 976.321 2111.72 840.801 2111.72 840.801L2179.48 832.721Z" fill="#263238"/>
<path d="M2075.16 1022.64C2085.96 1032.8 2099.8 1039.14 2114.54 1040.7C2129.29 1042.26 2144.15 1038.95 2156.84 1031.28C2173.39 1021.62 2185.66 1006.04 2191.16 987.678C2191.96 985.118 2192.52 982.558 2193.08 979.678C2202.12 930.878 2190.76 851.678 2137.08 833.038C2125.26 828.855 2112.57 827.767 2100.21 829.877C2087.86 831.987 2076.24 837.225 2066.48 845.092C2056.72 852.959 2049.14 863.194 2044.46 874.821C2039.77 886.449 2038.14 899.082 2039.72 911.518C2045.72 965.038 2047 996.718 2075.16 1022.64Z" fill="#EBB376"/>
<path d="M2121.96 922.562C2121.96 926.962 2124.6 930.562 2127.48 930.562C2130.36 930.562 2132.44 926.802 2132.28 922.562C2132.12 918.322 2129.56 914.562 2126.68 914.962C2123.8 915.362 2121.72 918.162 2121.96 922.562Z" fill="#263238"/>
<path d="M2171.24 920.081C2171.24 924.401 2173.96 928.081 2176.84 928.081C2179.72 928.081 2181.8 924.241 2181.56 920.081C2181.32 915.921 2178.84 912.081 2175.96 912.481C2173.08 912.881 2171 915.921 2171.24 920.081Z" fill="#263238"/>
<path d="M2155.64 923.038C2161.53 936.112 2169.2 948.308 2178.44 959.278C2175.55 961.579 2172.18 963.216 2168.59 964.074C2165 964.931 2161.26 964.987 2157.64 964.238L2155.64 923.038Z" fill="#D58745"/>
<path d="M2105.8 907.439C2106.28 907.469 2106.76 907.375 2107.2 907.165C2107.63 906.955 2108 906.636 2108.28 906.239C2110.03 903.535 2112.39 901.279 2115.16 899.653C2117.94 898.028 2121.07 897.077 2124.28 896.879C2124.62 896.879 2124.95 896.813 2125.26 896.684C2125.57 896.555 2125.85 896.367 2126.09 896.129C2126.33 895.891 2126.52 895.609 2126.64 895.298C2126.77 894.988 2126.84 894.655 2126.84 894.319C2126.84 893.983 2126.77 893.65 2126.64 893.339C2126.52 893.029 2126.33 892.746 2126.09 892.509C2125.85 892.271 2125.57 892.082 2125.26 891.954C2124.95 891.825 2124.62 891.759 2124.28 891.759C2120.23 891.951 2116.28 893.102 2112.76 895.119C2109.24 897.136 2106.25 899.96 2104.04 903.359C2103.65 903.916 2103.49 904.601 2103.6 905.271C2103.7 905.941 2104.06 906.546 2104.6 906.959C2104.98 907.173 2105.38 907.335 2105.8 907.439Z" fill="#263238"/>
<path d="M2191.56 902C2192.06 902.159 2192.59 902.159 2193.08 902C2193.67 901.678 2194.11 901.137 2194.31 900.493C2194.5 899.85 2194.44 899.155 2194.12 898.56C2192.24 894.941 2189.51 891.829 2186.17 889.489C2182.83 887.149 2178.97 885.651 2174.92 885.12C2174.59 885.075 2174.25 885.101 2173.92 885.196C2173.6 885.291 2173.3 885.454 2173.04 885.673C2172.79 885.892 2172.58 886.162 2172.43 886.467C2172.29 886.771 2172.21 887.103 2172.2 887.44C2172.18 888.102 2172.4 888.749 2172.83 889.253C2173.26 889.756 2173.86 890.08 2174.52 890.16C2177.7 890.673 2180.72 891.925 2183.33 893.814C2185.95 895.703 2188.08 898.178 2189.56 901.04C2189.79 901.349 2190.1 901.598 2190.44 901.765C2190.79 901.932 2191.18 902.013 2191.56 902Z" fill="#263238"/>
<path d="M2075.8 842.96L2081 866.16C2077.21 868.449 2074.42 872.084 2073.19 876.34C2071.96 880.596 2072.37 885.16 2074.36 889.12C2083.88 908.16 2075.72 940 2061.72 953.68C2061.72 953.68 2060.44 945.2 2053.72 947.92C2047 950.64 2053.08 995.12 2069.32 1015.04C2049.16 996.942 2034.02 973.927 2025.4 948.24C2009.96 906 2009.4 874 2016.2 856.32L2075.8 842.96Z" fill="#263238"/>
<path d="M2018.76 956.88C2025.36 968.585 2036.31 977.211 2049.24 980.88C2066.44 985.68 2075.08 970.32 2070.36 954C2066.04 939.6 2051.88 919.2 2034.52 922C2030.76 922.569 2027.2 924.071 2024.17 926.369C2021.13 928.667 2018.72 931.687 2017.16 935.154C2015.59 938.622 2014.92 942.426 2015.2 946.221C2015.48 950.016 2016.7 953.68 2018.76 956.88Z" fill="#EBB376"/>
<path d="M2081 866C2081 866 2138.92 886.56 2171.88 856C2204.84 825.44 2166.76 784 2166.76 784C2158.77 792.241 2148.1 797.349 2136.68 798.4C2118.2 799.68 2075.56 788.56 2041.24 806.4C2006.92 824.24 1994.04 873.36 2025.24 895.76L2081 866Z" fill="#263238"/>
<path d="M2127 971.759C2129.99 976.346 2134.4 979.829 2139.56 981.678C2144.72 983.526 2150.33 983.639 2155.56 981.999" stroke="#263238" stroke-width="0.5" stroke-linecap="round" stroke-linejoin="round"/>
<path d="M2176.52 1106L2168.52 1144C2168.52 1144 2212.76 1328.56 2222.28 1424L2206.28 1440L2180.92 1424C2180.92 1424 2178.68 1229.04 2156.28 1147.12L2116.28 1114.24L2148.28 1104.08L2176.52 1106Z" fill="#90CAF9"/>
<path d="M2068.28 1058.88L2145 1093.44L2149.48 1065.76L2177.72 1075.68C2182.59 1077.4 2186.74 1080.7 2189.52 1085.04C2192.3 1089.39 2193.56 1094.54 2193.08 1099.68L2189.88 1130.16L2151 1109.04L2131.56 1136.48L2039.4 1092.08L2068.28 1058.88Z" fill="#90CAF9"/>
<path opacity="0.7" d="M2068.28 1058.88L2145 1093.44L2149.48 1065.76L2177.72 1075.68C2182.59 1077.4 2186.74 1080.7 2189.52 1085.04C2192.3 1089.39 2193.56 1094.54 2193.08 1099.68L2189.88 1130.16L2151 1109.04L2131.56 1136.48L2039.4 1092.08L2068.28 1058.88Z" fill="white"/>
<path d="M2272.52 1082.88L2183 1078.56C2198.44 1150.56 2195.48 1334 2195.48 1334C2113.64 1146.24 2041.24 1087.36 2041.24 1087.36L1951.72 1108.8C1955.56 1158.08 1974.92 1304.72 1988.84 1406.96C2037.23 1437.21 2092.86 1453.9 2149.91 1455.31C2206.96 1456.72 2263.34 1442.78 2313.16 1414.96C2320.2 1188.88 2272.52 1082.88 2272.52 1082.88Z" fill="#263238"/>
<path opacity="0.1" d="M2313.88 1338C2309.56 1164.8 2272.52 1083.12 2272.52 1083.12L2183 1078.56C2196.2 1140.32 2195.88 1284.32 2195.56 1323.84C2195.56 1330.32 2195.56 1333.92 2195.56 1333.92L2190.92 1323.28C2110.92 1144 2041.4 1087.28 2041.4 1087.28L2035.24 1088.8L1951.96 1108.8C1954.12 1136.72 1961.24 1195.84 1969.48 1260.8C1972.2 1281.36 1974.92 1302.4 1977.48 1323.2C1980.04 1344 1982.76 1362.32 1985.48 1380.8C1986.68 1389.92 1987.88 1398.72 1989.08 1407.28C2037.49 1437.55 2093.15 1454.26 2150.23 1455.67C2207.31 1457.07 2263.72 1443.13 2313.56 1415.28C2313.56 1411.52 2313.56 1407.28 2313.96 1403.84C2314.39 1380.32 2314.36 1358.37 2313.88 1338Z" fill="white"/>
<path opacity="0.2" d="M2228.6 1162.48L2249.32 1198.96C2249.32 1198.96 2227.8 1339.44 2193.32 1388.32V1359.28L2059.4 1204.88L2083.4 1167.76L2023 1179.6C2023 1179.6 2017.4 1123.6 2035.32 1088.8L2041.48 1087.36C2041.48 1087.36 2113.88 1146.32 2195.64 1334C2195.64 1334 2198.68 1150.48 2183.24 1078.56C2183.24 1078.56 2225.88 1101.68 2256.28 1162.48H2228.6Z" fill="white"/>
<path opacity="0.2" d="M2313.96 1403.2C2314.33 1380.05 2314.33 1358.24 2313.96 1337.76L2195.88 1323.84L2191.08 1323.28L2116.36 1314.48L2017.32 1194L1977.72 1322.8C1980.44 1342.48 1983 1361.92 1985.72 1380.4C1986.92 1389.52 1988.12 1398.32 1989.32 1406.88C2024.55 1428.93 2063.77 1443.83 2104.76 1450.72C2145.46 1431.05 2184.94 1408.96 2223 1384.56C2260.76 1394 2291.32 1399.76 2313.96 1403.2Z" fill="black"/>
<path d="M2272.52 1082.96C2282.97 1115.9 2291.49 1149.43 2298.04 1183.36C2303.8 1213.06 2307.97 1243.05 2310.52 1273.2L2129.24 1334L2121.24 1368.48C2121.24 1368.48 2284.36 1388.24 2373.4 1371.36C2393.79 1352.57 2411.68 1331.22 2426.6 1307.84C2407 1227.92 2307.48 1091.12 2272.52 1082.96Z" fill="#263238"/>
<path opacity="0.1" d="M2272.52 1082.88C2282.19 1113.06 2290.2 1143.75 2296.52 1174.8C2297.16 1177.68 2297.72 1180.48 2298.28 1183.36C2304 1213.07 2308.16 1243.06 2310.76 1273.2L2192.6 1312.8L2129.4 1333.92L2121.4 1368.4C2121.4 1368.4 2146.36 1371.52 2182.12 1374.16C2203.88 1375.84 2229.56 1377.28 2256.12 1377.92C2295.36 1379.59 2334.66 1377.42 2373.48 1371.44C2393.9 1352.65 2411.81 1331.3 2426.76 1307.92C2407 1227.92 2307.48 1091.12 2272.52 1082.88Z" fill="white"/>
<path opacity="0.2" d="M2362.92 1272.64C2332.15 1312.39 2296.17 1347.83 2255.96 1378C2229.4 1377.36 2203.72 1375.92 2181.96 1374.24C2177.99 1361.29 2176.1 1347.79 2176.36 1334.24L2192.36 1313.12L2310.52 1273.52C2307.92 1243.38 2303.76 1213.39 2298.04 1183.68C2297.48 1180.8 2296.92 1178 2296.28 1175.12L2296.92 1174.4C2296.92 1174.4 2349.72 1214.48 2362.92 1272.64Z" fill="black"/>
<path d="M2147.24 1314.88C2147.24 1314.88 2111.16 1285.84 2097.08 1281.44C2083 1277.04 2055.64 1298.16 2055.64 1298.16L2090.84 1348.4L2147.24 1314.88Z" fill="#EBB376"/>
<path d="M2309.24 1308.72L2362.92 1272.64C2362.92 1272.64 2322.44 1243.6 2317.16 1242.72C2311.88 1241.84 2285.16 1272.64 2285.16 1272.64L2309.24 1308.72Z" fill="#EBB376"/>
<path d="M1952.04 1108.8C1899.8 1134.4 1974.52 1382.32 2039.32 1432.72C2104.12 1483.12 2323.96 1308.32 2323.96 1308.32L2290.76 1261.76C2290.76 1261.76 2119 1322 2096.44 1316.08C2073.88 1310.16 2013.24 1181.6 1993.48 1151.84C1980.48 1132.99 1963.83 1116.94 1944.52 1104.64" fill="#263238"/>
<path opacity="0.1" d="M1952.04 1108.8C1899.8 1134.4 1974.52 1382.32 2039.32 1432.72C2104.12 1483.12 2323.96 1308.32 2323.96 1308.32L2290.76 1261.76C2290.76 1261.76 2119 1322 2096.44 1316.08C2073.88 1310.16 2013.24 1181.6 1993.48 1151.84C1980.48 1132.99 1963.83 1116.94 1944.52 1104.64" fill="white"/>
<path d="M2910.44 988.402H2613.56C2603.41 988.381 2593.67 984.337 2586.49 977.155C2579.31 969.973 2575.26 960.238 2575.24 950.082C2575.26 939.933 2579.31 930.206 2586.49 923.037C2593.68 915.868 2603.41 911.842 2613.56 911.842H2910.44C2920.58 911.842 2930.31 915.871 2937.48 923.042C2944.65 930.214 2948.68 939.94 2948.68 950.082C2948.68 960.231 2944.66 969.966 2937.49 977.15C2930.32 984.334 2920.59 988.381 2910.44 988.402Z" fill="#90CAF9"/>
<path d="M3045.72 1078.96H2589.72C2585.81 1078.96 2582.07 1077.41 2579.31 1074.65C2576.55 1071.89 2575 1068.14 2575 1064.24C2575 1062.31 2575.38 1060.4 2576.12 1058.62C2576.86 1056.84 2577.95 1055.22 2579.31 1053.86C2580.68 1052.5 2582.31 1051.42 2584.09 1050.69C2585.88 1049.96 2587.79 1049.59 2589.72 1049.6H3045.72C3047.65 1049.59 3049.56 1049.96 3051.35 1050.69C3053.13 1051.42 3054.75 1052.5 3056.12 1053.86C3057.49 1055.22 3058.58 1056.84 3059.32 1058.62C3060.06 1060.4 3060.44 1062.31 3060.44 1064.24C3060.44 1068.14 3058.89 1071.89 3056.13 1074.65C3053.37 1077.41 3049.62 1078.96 3045.72 1078.96Z" fill="#90CAF9"/>
<path d="M2852.36 1147.28H2589.96C2588.03 1147.29 2586.12 1146.92 2584.34 1146.19C2582.55 1145.46 2580.93 1144.38 2579.56 1143.02C2578.19 1141.66 2577.1 1140.04 2576.36 1138.26C2575.62 1136.48 2575.24 1134.57 2575.24 1132.64C2575.24 1128.74 2576.79 1124.99 2579.55 1122.23C2582.31 1119.47 2586.06 1117.92 2589.96 1117.92H2852.36C2854.29 1117.92 2856.2 1118.3 2857.98 1119.04C2859.76 1119.78 2861.38 1120.87 2862.74 1122.24C2864.1 1123.6 2865.18 1125.23 2865.91 1127.01C2866.64 1128.8 2867.01 1130.71 2867 1132.64C2867 1134.56 2866.62 1136.47 2865.89 1138.24C2865.15 1140.02 2864.07 1141.63 2862.71 1142.99C2861.35 1144.35 2859.74 1145.43 2857.96 1146.17C2856.19 1146.9 2854.28 1147.28 2852.36 1147.28Z" fill="#90CAF9"/>
<path opacity="0.2" d="M2726.28 1327.28H2610.92C2606.21 1327.31 2601.55 1326.41 2597.19 1324.63C2592.83 1322.85 2588.87 1320.23 2585.53 1316.91C2582.19 1313.6 2579.54 1309.65 2577.74 1305.31C2575.93 1300.96 2575 1296.3 2575 1291.6C2575 1282.14 2578.76 1273.06 2585.45 1266.37C2592.14 1259.68 2601.22 1255.92 2610.68 1255.92H2726.04C2730.73 1255.91 2735.37 1256.82 2739.7 1258.61C2744.04 1260.4 2747.98 1263.03 2751.29 1266.35C2754.61 1269.66 2757.23 1273.6 2759.02 1277.93C2760.81 1282.27 2761.73 1286.91 2761.72 1291.6C2761.72 1301.02 2757.99 1310.06 2751.35 1316.74C2744.71 1323.43 2735.7 1327.22 2726.28 1327.28Z" fill="black"/>
<path d="M2314.68 1551.68H1793.56V2857.52H2314.68V1551.68Z" fill="#90CAF9"/>
<g opacity="0.3">
<path d="M2177.8 1896.64H1881.8C1879.87 1896.64 1877.95 1896.26 1876.17 1895.52C1874.38 1894.78 1872.76 1893.7 1871.39 1892.33C1870.02 1890.96 1868.94 1889.34 1868.2 1887.55C1867.46 1885.77 1867.08 1883.85 1867.08 1881.92C1867.08 1879.99 1867.46 1878.08 1868.2 1876.3C1868.94 1874.52 1870.03 1872.9 1871.39 1871.54C1872.76 1870.18 1874.39 1869.1 1876.17 1868.37C1877.96 1867.64 1879.87 1867.27 1881.8 1867.28H2177.8C2179.73 1867.27 2181.64 1867.64 2183.43 1868.37C2185.21 1869.1 2186.83 1870.18 2188.2 1871.54C2189.57 1872.9 2190.66 1874.52 2191.4 1876.3C2192.14 1878.08 2192.52 1879.99 2192.52 1881.92C2192.52 1885.83 2190.97 1889.57 2188.21 1892.33C2185.45 1895.09 2181.7 1896.64 2177.8 1896.64Z" fill="white"/>
<path d="M2064.44 1964.96H1882.04C1878.13 1964.96 1874.39 1963.41 1871.63 1960.65C1868.87 1957.89 1867.32 1954.15 1867.32 1950.24C1867.32 1948.31 1867.7 1946.4 1868.44 1944.62C1869.18 1942.84 1870.27 1941.22 1871.63 1939.86C1873 1938.5 1874.62 1937.42 1876.41 1936.69C1878.2 1935.96 1880.11 1935.59 1882.04 1935.6H2064.44C2068.33 1935.6 2072.06 1937.14 2074.82 1939.88C2077.58 1942.63 2079.14 1946.35 2079.16 1950.24C2079.16 1954.15 2077.61 1957.89 2074.85 1960.65C2072.09 1963.41 2068.34 1964.96 2064.44 1964.96Z" fill="white"/>
</g>
<g opacity="0.3">
<path d="M2097.8 2101.04H1881.8C1877.89 2101.04 1874.15 2099.49 1871.39 2096.73C1868.63 2093.97 1867.08 2090.23 1867.08 2086.32C1867.08 2084.39 1867.46 2082.48 1868.2 2080.7C1868.94 2078.92 1870.03 2077.3 1871.39 2075.94C1872.76 2074.58 1874.39 2073.5 1876.17 2072.77C1877.96 2072.04 1879.87 2071.67 1881.8 2071.68H2097.8C2099.73 2071.67 2101.64 2072.04 2103.43 2072.77C2105.21 2073.5 2106.83 2074.58 2108.2 2075.94C2109.57 2077.3 2110.66 2078.92 2111.4 2080.7C2112.14 2082.48 2112.52 2084.39 2112.52 2086.32C2112.52 2090.23 2110.97 2093.97 2108.21 2096.73C2105.45 2099.49 2101.7 2101.04 2097.8 2101.04Z" fill="white"/>
<path d="M2144.44 2169.36H1882.04C1880.11 2169.37 1878.2 2169 1876.41 2168.27C1874.62 2167.54 1873 2166.46 1871.63 2165.1C1870.27 2163.74 1869.18 2162.12 1868.44 2160.34C1867.7 2158.56 1867.32 2156.65 1867.32 2154.72C1867.32 2150.82 1868.87 2147.07 1871.63 2144.31C1874.39 2141.55 1878.13 2140 1882.04 2140H2144.44C2148.34 2140 2152.09 2141.55 2154.85 2144.31C2157.61 2147.07 2159.16 2150.82 2159.16 2154.72C2159.14 2158.61 2157.58 2162.33 2154.82 2165.08C2152.06 2167.82 2148.33 2169.36 2144.44 2169.36Z" fill="white"/>
</g>
<g opacity="0.3">
<path d="M2177.8 2305.44H1881.8C1879.87 2305.45 1877.96 2305.08 1876.17 2304.35C1874.39 2303.62 1872.76 2302.54 1871.39 2301.18C1870.03 2299.82 1868.94 2298.2 1868.2 2296.42C1867.46 2294.64 1867.08 2292.73 1867.08 2290.8C1867.08 2286.9 1868.63 2283.15 1871.39 2280.39C1874.15 2277.63 1877.89 2276.08 1881.8 2276.08H2177.8C2181.7 2276.08 2185.45 2277.63 2188.21 2280.39C2190.97 2283.15 2192.52 2286.9 2192.52 2290.8C2192.52 2292.73 2192.14 2294.64 2191.4 2296.42C2190.66 2298.2 2189.57 2299.82 2188.2 2301.18C2186.83 2302.54 2185.21 2303.62 2183.43 2304.35C2181.64 2305.08 2179.73 2305.45 2177.8 2305.44Z" fill="white"/>
<path d="M1984.44 2373.84H1882.04C1878.13 2373.84 1874.39 2372.29 1871.63 2369.53C1868.87 2366.77 1867.32 2363.02 1867.32 2359.12C1867.32 2357.19 1867.7 2355.28 1868.44 2353.5C1869.18 2351.72 1870.27 2350.1 1871.63 2348.74C1873 2347.38 1874.62 2346.3 1876.41 2345.57C1878.2 2344.84 1880.11 2344.47 1882.04 2344.48H1984.44C1988.33 2344.48 1992.06 2346.02 1994.82 2348.76C1997.58 2351.51 1999.14 2355.23 1999.16 2359.12C1999.14 2363.02 1997.58 2366.75 1994.82 2369.5C1992.07 2372.26 1988.33 2373.82 1984.44 2373.84Z" fill="white"/>
</g>
<g opacity="0.3">
<path d="M2017.8 2509.92H1881.8C1879.87 2509.92 1877.95 2509.54 1876.17 2508.8C1874.38 2508.06 1872.76 2506.97 1871.39 2505.61C1870.02 2504.24 1868.94 2502.62 1868.2 2500.83C1867.46 2499.04 1867.08 2497.13 1867.08 2495.2C1867.08 2493.27 1867.46 2491.36 1868.2 2489.58C1868.94 2487.8 1870.03 2486.18 1871.39 2484.82C1872.76 2483.46 1874.39 2482.38 1876.17 2481.65C1877.96 2480.92 1879.87 2480.55 1881.8 2480.56H2017.8C2019.73 2480.55 2021.64 2480.92 2023.43 2481.65C2025.21 2482.38 2026.83 2483.46 2028.2 2484.82C2029.57 2486.18 2030.66 2487.8 2031.4 2489.58C2032.14 2491.36 2032.52 2493.27 2032.52 2495.2C2032.52 2497.13 2032.14 2499.04 2031.4 2500.83C2030.66 2502.62 2029.57 2504.24 2028.21 2505.61C2026.84 2506.97 2025.22 2508.06 2023.43 2508.8C2021.65 2509.54 2019.73 2509.92 2017.8 2509.92Z" fill="white"/>
<path d="M2144.44 2578H1882.04C1878.13 2578 1874.39 2576.45 1871.63 2573.69C1868.87 2570.93 1867.32 2567.18 1867.32 2563.28C1867.32 2561.35 1867.7 2559.44 1868.44 2557.66C1869.18 2555.88 1870.27 2554.26 1871.63 2552.9C1873 2551.54 1874.62 2550.46 1876.41 2549.73C1878.2 2549 1880.11 2548.63 1882.04 2548.64H2144.44C2148.33 2548.64 2152.06 2550.18 2154.82 2552.92C2157.58 2555.67 2159.14 2559.39 2159.16 2563.28C2159.16 2567.18 2157.61 2570.93 2154.85 2573.69C2152.09 2576.45 2148.34 2578 2144.44 2578Z" fill="white"/>
</g>
<path opacity="0.3" d="M2344.28 2857.6H3124.92V1551.76H2344.28V2857.6Z" fill="white"/>
<g opacity="0.2">
<path d="M2467.4 1692.16H2683.4C2685.42 1692.31 2687.45 1692.04 2689.36 1691.37C2691.27 1690.7 2693.02 1689.64 2694.5 1688.26C2695.98 1686.89 2697.17 1685.22 2697.98 1683.36C2698.79 1681.51 2699.2 1679.5 2699.2 1677.48C2699.2 1675.46 2698.79 1673.45 2697.98 1671.6C2697.17 1669.74 2695.98 1668.07 2694.5 1666.69C2693.02 1665.32 2691.27 1664.26 2689.36 1663.59C2687.45 1662.92 2685.42 1662.65 2683.4 1662.8H2467.4C2465.38 1662.65 2463.35 1662.92 2461.44 1663.59C2459.53 1664.26 2457.78 1665.32 2456.3 1666.69C2454.81 1668.07 2453.63 1669.74 2452.82 1671.6C2452.01 1673.45 2451.59 1675.46 2451.59 1677.48C2451.59 1679.5 2452.01 1681.51 2452.82 1683.36C2453.63 1685.22 2454.81 1686.89 2456.3 1688.26C2457.78 1689.64 2459.53 1690.7 2461.44 1691.37C2463.35 1692.04 2465.38 1692.31 2467.4 1692.16Z" fill="black"/>
<path d="M2971.16 1812.72H2563.16C2561.14 1812.57 2559.11 1812.84 2557.2 1813.51C2555.29 1814.18 2553.54 1815.24 2552.06 1816.62C2550.58 1817.99 2549.39 1819.66 2548.58 1821.52C2547.77 1823.37 2547.36 1825.38 2547.36 1827.4C2547.36 1829.43 2547.77 1831.43 2548.58 1833.28C2549.39 1835.14 2550.58 1836.81 2552.06 1838.19C2553.54 1839.56 2555.29 1840.62 2557.2 1841.29C2559.11 1841.96 2561.14 1842.23 2563.16 1842.08H2971.16C2973.18 1842.23 2975.21 1841.96 2977.12 1841.29C2979.03 1840.62 2980.78 1839.56 2982.26 1838.19C2983.75 1836.81 2984.93 1835.14 2985.74 1833.28C2986.55 1831.43 2986.97 1829.43 2986.97 1827.4C2986.97 1825.38 2986.55 1823.37 2985.74 1821.52C2984.93 1819.66 2983.75 1817.99 2982.26 1816.62C2980.78 1815.24 2979.03 1814.18 2977.12 1813.51C2975.21 1812.84 2973.18 1812.57 2971.16 1812.72Z" fill="black"/>
<path d="M2467.4 1910.4H2969.8C2973.51 1910.13 2976.97 1908.46 2979.5 1905.74C2982.03 1903.02 2983.43 1899.44 2983.43 1895.72C2983.43 1892.01 2982.03 1888.43 2979.5 1885.7C2976.97 1882.98 2973.51 1881.32 2969.8 1881.04H2467.4C2465.38 1880.89 2463.35 1881.16 2461.44 1881.83C2459.53 1882.5 2457.78 1883.56 2456.3 1884.94C2454.81 1886.31 2453.63 1887.98 2452.82 1889.84C2452.01 1891.69 2451.59 1893.7 2451.59 1895.72C2451.59 1897.75 2452.01 1899.75 2452.82 1901.6C2453.63 1903.46 2454.81 1905.13 2456.3 1906.51C2457.78 1907.88 2459.53 1908.94 2461.44 1909.61C2463.35 1910.28 2465.38 1910.55 2467.4 1910.4Z" fill="black"/>
<path d="M2971.16 1962.56H2467.16C2465.14 1962.41 2463.11 1962.68 2461.2 1963.35C2459.29 1964.02 2457.54 1965.08 2456.06 1966.46C2454.57 1967.83 2453.39 1969.5 2452.58 1971.36C2451.77 1973.21 2451.36 1975.22 2451.36 1977.24C2451.36 1979.26 2451.77 1981.27 2452.58 1983.12C2453.39 1984.98 2454.57 1986.65 2456.06 1988.03C2457.54 1989.4 2459.29 1990.46 2461.2 1991.13C2463.11 1991.8 2465.14 1992.07 2467.16 1991.92H2971.16C2973.18 1992.07 2975.21 1991.8 2977.12 1991.13C2979.03 1990.46 2980.78 1989.4 2982.26 1988.03C2983.75 1986.65 2984.93 1984.98 2985.74 1983.12C2986.55 1981.27 2986.96 1979.26 2986.96 1977.24C2986.96 1975.22 2986.55 1973.21 2985.74 1971.36C2984.93 1969.5 2983.75 1967.83 2982.26 1966.46C2980.78 1965.08 2979.03 1964.02 2977.12 1963.35C2975.21 1962.68 2973.18 1962.41 2971.16 1962.56Z" fill="black"/>
<path d="M2467.4 2060.32H2969.8C2973.51 2060.05 2976.97 2058.38 2979.5 2055.66C2982.03 2052.93 2983.43 2049.36 2983.43 2045.64C2983.43 2041.92 2982.03 2038.34 2979.5 2035.62C2976.97 2032.9 2973.51 2031.23 2969.8 2030.96H2467.4C2465.38 2030.81 2463.35 2031.08 2461.44 2031.75C2459.53 2032.42 2457.78 2033.48 2456.3 2034.85C2454.81 2036.23 2453.63 2037.9 2452.82 2039.76C2452.01 2041.61 2451.59 2043.61 2451.59 2045.64C2451.59 2047.66 2452.01 2049.67 2452.82 2051.52C2453.63 2053.38 2454.81 2055.05 2456.3 2056.42C2457.78 2057.8 2459.53 2058.86 2461.44 2059.53C2463.35 2060.2 2465.38 2060.47 2467.4 2060.32Z" fill="black"/>
<path d="M2971.16 2112.48H2467.16C2465.14 2112.33 2463.11 2112.6 2461.2 2113.27C2459.29 2113.94 2457.54 2114.99 2456.06 2116.37C2454.57 2117.75 2453.39 2119.42 2452.58 2121.27C2451.77 2123.13 2451.36 2125.13 2451.36 2127.16C2451.36 2129.18 2451.77 2131.18 2452.58 2133.04C2453.39 2134.9 2454.57 2136.57 2456.06 2137.94C2457.54 2139.32 2459.29 2140.38 2461.2 2141.05C2463.11 2141.72 2465.14 2141.99 2467.16 2141.84H2971.16C2973.18 2141.99 2975.21 2141.72 2977.12 2141.05C2979.03 2140.38 2980.78 2139.32 2982.26 2137.94C2983.75 2136.57 2984.93 2134.9 2985.74 2133.04C2986.55 2131.18 2986.96 2129.18 2986.96 2127.16C2986.96 2125.13 2986.55 2123.13 2985.74 2121.27C2984.93 2119.42 2983.75 2117.75 2982.26 2116.37C2980.78 2114.99 2979.03 2113.94 2977.12 2113.27C2975.21 2112.6 2973.18 2112.33 2971.16 2112.48Z" fill="black"/>
<path d="M2467.4 2210H2857.8C2861.51 2209.73 2864.97 2208.06 2867.5 2205.34C2870.03 2202.62 2871.43 2199.04 2871.43 2195.32C2871.43 2191.61 2870.03 2188.03 2867.5 2185.3C2864.97 2182.58 2861.51 2180.92 2857.8 2180.64H2467.4C2465.38 2180.49 2463.35 2180.76 2461.44 2181.43C2459.53 2182.1 2457.78 2183.16 2456.3 2184.54C2454.81 2185.91 2453.63 2187.58 2452.82 2189.44C2452.01 2191.29 2451.59 2193.3 2451.59 2195.32C2451.59 2197.35 2452.01 2199.35 2452.82 2201.2C2453.63 2203.06 2454.81 2204.73 2456.3 2206.11C2457.78 2207.48 2459.53 2208.54 2461.44 2209.21C2463.35 2209.88 2465.38 2210.15 2467.4 2210Z" fill="black"/>
<path d="M2563.4 2360H2969.8C2973.51 2359.73 2976.97 2358.06 2979.5 2355.34C2982.03 2352.62 2983.44 2349.04 2983.44 2345.32C2983.44 2341.61 2982.03 2338.03 2979.5 2335.3C2976.97 2332.58 2973.51 2330.92 2969.8 2330.64H2563.4C2561.38 2330.49 2559.35 2330.76 2557.44 2331.43C2555.53 2332.1 2553.78 2333.16 2552.3 2334.54C2550.81 2335.91 2549.63 2337.58 2548.82 2339.44C2548.01 2341.29 2547.6 2343.3 2547.6 2345.32C2547.6 2347.35 2548.01 2349.35 2548.82 2351.2C2549.63 2353.06 2550.81 2354.73 2552.3 2356.11C2553.78 2357.48 2555.53 2358.54 2557.44 2359.21C2559.35 2359.88 2561.38 2360.15 2563.4 2360Z" fill="black"/>
<path d="M2971.16 2412.24H2467.16C2465.14 2412.09 2463.11 2412.36 2461.2 2413.03C2459.29 2413.7 2457.54 2414.76 2456.06 2416.13C2454.57 2417.51 2453.39 2419.18 2452.58 2421.04C2451.77 2422.89 2451.36 2424.89 2451.36 2426.92C2451.36 2428.94 2451.77 2430.95 2452.58 2432.8C2453.39 2434.66 2454.57 2436.33 2456.06 2437.7C2457.54 2439.08 2459.29 2440.14 2461.2 2440.81C2463.11 2441.48 2465.14 2441.75 2467.16 2441.6H2971.16C2973.18 2441.75 2975.21 2441.48 2977.12 2440.81C2979.03 2440.14 2980.78 2439.08 2982.26 2437.7C2983.75 2436.33 2984.93 2434.66 2985.74 2432.8C2986.55 2430.95 2986.96 2428.94 2986.96 2426.92C2986.96 2424.89 2986.55 2422.89 2985.74 2421.04C2984.93 2419.18 2983.75 2417.51 2982.26 2416.13C2980.78 2414.76 2979.03 2413.7 2977.12 2413.03C2975.21 2412.36 2973.18 2412.09 2971.16 2412.24Z" fill="black"/>
<path d="M2467.4 2509.92H2969.8C2973.51 2509.64 2976.97 2507.98 2979.5 2505.26C2982.03 2502.53 2983.43 2498.95 2983.43 2495.24C2983.43 2491.52 2982.03 2487.94 2979.5 2485.22C2976.97 2482.5 2973.51 2480.83 2969.8 2480.56H2467.4C2465.38 2480.41 2463.35 2480.68 2461.44 2481.35C2459.53 2482.02 2457.78 2483.08 2456.3 2484.45C2454.81 2485.83 2453.63 2487.5 2452.82 2489.36C2452.01 2491.21 2451.59 2493.21 2451.59 2495.24C2451.59 2497.26 2452.01 2499.27 2452.82 2501.12C2453.63 2502.98 2454.81 2504.65 2456.3 2506.02C2457.78 2507.4 2459.53 2508.46 2461.44 2509.13C2463.35 2509.8 2465.38 2510.07 2467.4 2509.92Z" fill="black"/>
<path d="M2867.16 2562H2467.16C2465.14 2561.85 2463.11 2562.12 2461.2 2562.79C2459.29 2563.46 2457.54 2564.52 2456.06 2565.89C2454.57 2567.27 2453.39 2568.94 2452.58 2570.8C2451.77 2572.65 2451.36 2574.65 2451.36 2576.68C2451.36 2578.7 2451.77 2580.71 2452.58 2582.56C2453.39 2584.42 2454.57 2586.09 2456.06 2587.46C2457.54 2588.84 2459.29 2589.9 2461.2 2590.57C2463.11 2591.24 2465.14 2591.51 2467.16 2591.36H2867.16C2869.18 2591.51 2871.21 2591.24 2873.12 2590.57C2875.03 2589.9 2876.78 2588.84 2878.26 2587.46C2879.75 2586.09 2880.93 2584.42 2881.74 2582.56C2882.55 2580.71 2882.96 2578.7 2882.96 2576.68C2882.96 2574.65 2882.55 2572.65 2881.74 2570.8C2880.93 2568.94 2879.75 2567.27 2878.26 2565.89C2876.78 2564.52 2875.03 2563.46 2873.12 2562.79C2871.21 2562.12 2869.18 2561.85 2867.16 2562Z" fill="black"/>
<path d="M2971.16 2712H2467.16C2465.14 2711.85 2463.11 2712.12 2461.2 2712.79C2459.29 2713.46 2457.54 2714.52 2456.06 2715.89C2454.57 2717.27 2453.39 2718.94 2452.58 2720.8C2451.77 2722.65 2451.36 2724.65 2451.36 2726.68C2451.36 2728.7 2451.77 2730.71 2452.58 2732.56C2453.39 2734.42 2454.57 2736.09 2456.06 2737.46C2457.54 2738.84 2459.29 2739.9 2461.2 2740.57C2463.11 2741.24 2465.14 2741.51 2467.16 2741.36H2971.16C2973.18 2741.51 2975.21 2741.24 2977.12 2740.57C2979.03 2739.9 2980.78 2738.84 2982.26 2737.46C2983.75 2736.09 2984.93 2734.42 2985.74 2732.56C2986.55 2730.71 2986.96 2728.7 2986.96 2726.68C2986.96 2724.65 2986.55 2722.65 2985.74 2720.8C2984.93 2718.94 2983.75 2717.27 2982.26 2715.89C2980.78 2714.52 2979.03 2713.46 2977.12 2712.79C2975.21 2712.12 2973.18 2711.85 2971.16 2712Z" fill="black"/>
</g>
<g opacity="0.3">
<path d="M2097.8 1692.16H1881.8C1879.87 1692.17 1877.96 1691.8 1876.17 1691.07C1874.39 1690.34 1872.76 1689.26 1871.39 1687.9C1870.03 1686.54 1868.94 1684.92 1868.2 1683.14C1867.46 1681.36 1867.08 1679.45 1867.08 1677.52C1867.08 1675.59 1867.46 1673.67 1868.2 1671.89C1868.94 1670.1 1870.02 1668.48 1871.39 1667.11C1872.76 1665.74 1874.38 1664.66 1876.17 1663.92C1877.95 1663.18 1879.87 1662.8 1881.8 1662.8H2097.8C2101.7 1662.8 2105.45 1664.35 2108.21 1667.11C2110.97 1669.87 2112.52 1673.61 2112.52 1677.52C2112.52 1679.45 2112.14 1681.36 2111.4 1683.14C2110.66 1684.92 2109.57 1686.54 2108.2 1687.9C2106.83 1689.26 2105.21 1690.34 2103.43 1691.07C2101.64 1691.8 2099.73 1692.17 2097.8 1692.16Z" fill="white"/>
<path d="M1984.44 1760.56H1882.04C1878.13 1760.56 1874.39 1759.01 1871.63 1756.25C1868.87 1753.49 1867.32 1749.74 1867.32 1745.84C1867.32 1743.91 1867.7 1742 1868.44 1740.22C1869.18 1738.44 1870.27 1736.82 1871.63 1735.46C1873 1734.1 1874.62 1733.02 1876.41 1732.29C1878.2 1731.56 1880.11 1731.19 1882.04 1731.2H1984.44C1988.33 1731.24 1992.04 1732.82 1994.77 1735.59C1997.5 1738.37 1999.02 1742.11 1999 1746C1998.94 1749.84 1997.38 1753.51 1994.66 1756.22C1991.95 1758.94 1988.28 1760.5 1984.44 1760.56Z" fill="white"/>
</g>
<path d="M3822.2 1280.88L3841.72 1245.44L3891.96 1172.4L3901.4 1111.92C3901.4 1111.92 3945.4 1127.92 3952.6 1140.96C3959.8 1154 3956.44 1218.56 3952.6 1226.48C3948.76 1234.4 3903.4 1265.52 3903.4 1265.52L3879.4 1311.92L3822.2 1280.88Z" fill="#EBB376"/>
<path d="M3599.48 1026.72C3599.48 1026.72 3762.04 1282 3781.08 1304.88C3800.12 1327.76 3821.08 1245.44 3821.08 1245.44L3903.32 1281.28C3903.32 1281.28 3880.12 1437.36 3816.84 1443.68C3753.56 1450 3618.52 1283.68 3618.52 1283.68L3599.48 1026.72Z" fill="#263238"/>
<path opacity="0.1" d="M3903.4 1281.28C3903.4 1281.28 3880.2 1437.36 3816.92 1443.76C3785.32 1446.88 3735.72 1406.88 3694.12 1366C3652.52 1325.12 3618.6 1283.44 3618.6 1283.44L3612.04 1195.44L3599.48 1026.32C3599.48 1026.32 3762.04 1281.6 3781.08 1304.48C3800.12 1327.36 3821.08 1245.04 3821.08 1245.04L3903.4 1281.28Z" fill="white"/>
<path opacity="0.2" d="M3694.12 1366C3652.44 1325.12 3618.6 1283.44 3618.6 1283.44L3612.04 1195.44C3659.71 1240.07 3688.98 1300.9 3694.12 1366Z" fill="black"/>
<path d="M3284.84 2395.84V2316.64C3284.84 2315.34 3284.39 2314.08 3283.58 2313.06C3282.76 2312.04 3281.63 2311.33 3280.36 2311.04L3223 2298C3221.76 2297.73 3220.49 2297.71 3219.24 2297.93C3218 2298.15 3216.81 2298.62 3215.75 2299.31C3214.69 2299.99 3213.77 2300.88 3213.05 2301.92C3212.33 2302.96 3211.82 2304.13 3211.56 2305.36C3211.48 2306.08 3211.48 2306.8 3211.56 2307.52C3211.56 2333.12 3213.32 2351.76 3213.16 2383.92C3213.16 2403.76 3210.68 2463.52 3210.6 2490.88C3210.52 2518.24 3237.48 2522 3239.96 2510.8C3251.16 2460.56 3266.52 2422.8 3281.08 2406.8C3283.66 2403.75 3285 2399.84 3284.84 2395.84Z" fill="#263238"/>
<path d="M3638.36 1666.64L3663.96 1800.8C3663.96 1800.8 3866.12 2128 3866.04 2316.88C3866.04 2542.56 3277.24 2412.4 3277.24 2412.4V2308.4C3277.24 2308.4 3629.24 2338.64 3661.24 2303.36C3699.72 2260.48 3462.44 1928.96 3462.44 1928.96L3638.36 1666.64Z" fill="#263238"/>
<path opacity="0.2" d="M3866.04 2316.96C3866.04 2441.36 3687 2457.6 3526.44 2447.12C3446.44 2441.4 3366.9 2430.58 3288.28 2414.72L3277.24 2412.4V2308.4L3290.2 2309.44C3330.2 2312.64 3454.76 2321.68 3549 2320.32C3605 2319.52 3650.36 2314.96 3661 2303.36C3679.88 2282.32 3632.2 2191.36 3578.84 2104.64C3523.56 2014.8 3462.2 1929.04 3462.2 1929.04L3539.48 1814L3638.52 1666.64L3664.12 1800.8C3664.12 1800.8 3866.12 2128 3866.04 2316.96Z" fill="white"/>
<path opacity="0.2" d="M3549 2320.4L3526.44 2447.12C3446.44 2441.4 3366.9 2430.58 3288.28 2414.72L3290.2 2309.52C3330.2 2312.72 3455 2322 3549 2320.4Z" fill="black"/>
<path opacity="0.2" d="M3539.64 1957.52C3539.64 1957.52 3572.52 2034.88 3578.68 2104.64C3523.4 2014.8 3462.04 1929.04 3462.04 1929.04L3539.32 1814L3580.04 1800.8C3580.04 1800.8 3589.08 1853.6 3539.64 1957.52Z" fill="black"/>
<path d="M3487 3093.28H3407.8C3406.5 3093.31 3405.25 3093.77 3404.24 3094.58C3403.23 3095.39 3402.51 3096.5 3402.2 3097.76L3389.4 3155.84C3389.13 3157.07 3389.11 3158.34 3389.33 3159.58C3389.56 3160.82 3390.02 3162 3390.71 3163.06C3391.39 3164.11 3392.28 3165.02 3393.32 3165.74C3394.36 3166.45 3395.53 3166.95 3396.76 3167.2C3397.48 3167.28 3398.2 3167.28 3398.92 3167.2C3424.52 3166.8 3443.16 3165.2 3475.4 3165.2C3495.16 3165.2 3555 3167.28 3582.36 3167.28C3609.72 3167.28 3613.24 3140.24 3602.04 3137.76C3551.8 3126.8 3514.04 3111.68 3498.04 3097.2C3494.99 3094.55 3491.04 3093.15 3487 3093.28Z" fill="#263238"/>
<path d="M3285.64 1670.96C3285.64 1670.96 3268.12 1736.64 3285.64 2037.76C3312.68 2500.08 3398.36 3115.52 3398.36 3115.52L3497.96 3097.44C3497.96 3097.44 3485.24 2176.8 3498.68 1922.72C3498.68 1922.72 3639.48 1796.4 3638.36 1666.72C3637.24 1537.04 3285.64 1670.96 3285.64 1670.96Z" fill="#263238"/>
<path opacity="0.2" d="M3285.64 1670.96C3285.64 1670.96 3268.12 1736.64 3285.64 2037.76C3312.68 2500.08 3398.36 3115.52 3398.36 3115.52L3497.96 3097.44C3497.96 3097.44 3485.24 2176.8 3498.68 1922.72C3498.68 1922.72 3639.48 1796.4 3638.36 1666.72C3637.24 1537.04 3285.64 1670.96 3285.64 1670.96Z" fill="white"/>
<path d="M3633.96 1629.44H3285.64V1670.96L3638.44 1666.64L3633.96 1629.44Z" fill="#263238"/>
<path d="M3397.64 1684.4H3410.04V1610.8H3397.64V1684.4Z" fill="#263238"/>
<path d="M3573.88 1684.4H3586.28V1610.8H3573.88V1684.4Z" fill="#263238"/>
<path d="M3475.24 1668.56H3539.64V1622.16H3475.24V1668.56Z" fill="white"/>
<path opacity="0.2" d="M3397.64 1684.4H3410.04V1610.8H3397.64V1684.4Z" fill="white"/>
<path opacity="0.2" d="M3573.88 1684.4H3586.28V1610.8H3573.88V1684.4Z" fill="white"/>
<path d="M3599.48 1026.72C3599.48 1026.72 3379.4 1016.32 3215.48 1057.68C3215.48 1057.68 3287.88 1422.16 3285.16 1629.44H3634.04C3634.04 1629.44 3656.6 1240.64 3599.48 1026.72Z" fill="#90CAF9"/>
<path opacity="0.6" d="M3633.96 1629.44H3285.16C3285.16 1606.88 3285.16 1582.56 3283.56 1556.96C3280.52 1497.12 3273.72 1430.8 3265.48 1366.64L3263.08 1347.92C3257.48 1306.24 3251.48 1265.92 3245.64 1229.12C3229.64 1130.32 3215.48 1057.68 3215.48 1057.68C3379.4 1016.32 3599.48 1026.64 3599.48 1026.64C3656.6 1240.64 3633.96 1629.44 3633.96 1629.44Z" fill="white"/>
<path d="M3343.96 1041.2C3375.56 1069.92 3452.92 1059.28 3452.92 1059.28C3452.92 1059.28 3500.92 1046.08 3491.16 1030.96C3462.68 1026.24 3448.92 1012.96 3443.16 995.92C3440.07 985.389 3439.09 974.351 3440.28 963.44C3440.76 957.349 3441.56 951.288 3442.68 945.28L3346.68 874.4C3359.56 921.2 3375 1007.28 3343.96 1041.2Z" fill="#EBB376"/>
<path opacity="0.2" d="M3369.08 919.439C3372.92 976.879 3420.12 992.72 3443.16 995.92C3440.07 985.388 3439.09 974.35 3440.28 963.439L3369.08 919.439Z" fill="black"/>
<path d="M3315.08 725.602C3315.08 725.602 3288.36 812.002 3330.2 853.042C3372.04 894.082 3396.68 729.522 3396.68 729.522L3315.08 725.602Z" fill="#263238"/>
<path d="M3455.88 943.682C3443.87 956.775 3427.89 965.559 3410.4 968.681C3392.91 971.803 3374.88 969.091 3359.08 960.962C3338.42 950.874 3322.39 933.274 3314.28 911.762C3313.16 908.882 3312.2 905.762 3311.32 902.642C3296.36 845.202 3303.32 749.602 3365.64 722.722C3386.99 713.43 3411.15 712.978 3432.83 721.465C3454.51 729.952 3471.95 746.686 3481.32 768.002C3486.89 780.568 3489.39 794.28 3488.6 808.002C3486.2 872.402 3487.72 910.242 3455.88 943.682Z" fill="#EBB376"/>
<path d="M3391.48 828.16C3391.96 833.28 3388.92 837.6 3385.48 837.68C3382.04 837.76 3379.24 833.52 3379.08 828.32C3378.92 823.12 3381.72 818.8 3385.08 818.8C3388.44 818.8 3391 822.8 3391.48 828.16Z" fill="#263238"/>
<path d="M3332.36 829.279C3332.84 834.479 3329.72 838.799 3326.36 838.879C3323 838.959 3320.12 834.719 3319.96 829.519C3319.8 824.319 3322.6 819.999 3325.96 819.919C3329.32 819.839 3332.28 824.319 3332.36 829.279Z" fill="#263238"/>
<path d="M3351 831.52C3345.14 847.652 3337.06 862.891 3327 876.8C3330.66 879.286 3334.82 880.946 3339.18 881.665C3343.55 882.383 3348.02 882.142 3352.28 880.959L3351 831.52Z" fill="#D58745"/>
<path d="M3409.48 808.639C3408.91 808.714 3408.34 808.643 3407.8 808.433C3407.27 808.223 3406.8 807.881 3406.44 807.439C3404.13 804.364 3401.13 801.873 3397.69 800.164C3394.24 798.455 3390.45 797.577 3386.6 797.598C3385.79 797.665 3384.98 797.41 3384.35 796.886C3383.72 796.362 3383.32 795.613 3383.24 794.799C3383.21 794.399 3383.25 793.997 3383.38 793.616C3383.5 793.234 3383.7 792.881 3383.96 792.576C3384.22 792.271 3384.54 792.021 3384.89 791.839C3385.25 791.658 3385.64 791.549 3386.04 791.519C3390.91 791.372 3395.74 792.401 3400.13 794.518C3404.51 796.634 3408.33 799.777 3411.24 803.679C3411.79 804.246 3412.1 805.007 3412.1 805.799C3412.1 806.59 3411.79 807.351 3411.24 807.919C3410.69 808.245 3410.1 808.488 3409.48 808.639Z" fill="#263238"/>
<path d="M3306.52 809.442C3305.95 809.637 3305.33 809.637 3304.76 809.442C3304.39 809.285 3304.06 809.056 3303.78 808.77C3303.5 808.484 3303.28 808.146 3303.13 807.774C3302.98 807.402 3302.91 807.005 3302.91 806.605C3302.92 806.204 3303 805.809 3303.16 805.442C3305.09 800.953 3308.07 796.999 3311.86 793.919C3315.65 790.84 3320.13 788.727 3324.92 787.762C3325.72 787.647 3326.53 787.852 3327.17 788.332C3327.81 788.811 3328.24 789.527 3328.36 790.322C3328.46 791.113 3328.24 791.911 3327.77 792.551C3327.29 793.191 3326.59 793.624 3325.8 793.762C3322.04 794.644 3318.53 796.4 3315.57 798.888C3312.61 801.376 3310.28 804.525 3308.76 808.082C3308.5 808.45 3308.17 808.761 3307.78 808.995C3307.4 809.229 3306.97 809.381 3306.52 809.442Z" fill="#263238"/>
<path d="M3439.88 729.039L3435.64 757.199C3440.35 759.626 3443.98 763.738 3445.81 768.718C3447.63 773.698 3447.51 779.182 3445.48 784.079C3435.72 807.679 3448.2 844.959 3466.12 860.159C3466.12 860.159 3466.92 849.919 3475.56 852.159C3484.2 854.399 3480.36 908.159 3462.68 933.679C3485.2 910.34 3501.3 881.566 3509.4 850.159C3524.28 798.319 3522.68 759.999 3512.52 739.519L3439.88 729.039Z" fill="#263238"/>
<path d="M3517.72 860.32C3514.37 867.654 3509.61 874.256 3503.71 879.747C3497.81 885.239 3490.88 889.511 3483.32 892.32C3463.16 899.52 3451.32 881.84 3455.8 862C3459.8 844.32 3474.92 818.8 3495.8 820.32C3516.68 821.84 3525.88 842 3517.72 860.32Z" fill="#EBB376"/>
<path d="M3347.56 896.642C3350.24 904.072 3352.35 911.694 3353.88 919.442C3355.27 919.522 3356.66 919.522 3358.04 919.442C3376.92 918.562 3385.4 911.922 3389.08 904.882C3390.79 901.371 3391.64 897.505 3391.56 893.602C3391.58 891.385 3391.28 889.176 3390.68 887.042C3379.29 892.78 3366.79 895.974 3354.04 896.402C3350.04 896.642 3347.56 896.642 3347.56 896.642Z" fill="#263238"/>
<path d="M3354.04 896.241L3356.04 902.961C3373.8 902.081 3386.2 899.121 3391.56 893.441C3391.58 891.224 3391.28 889.015 3390.68 886.881C3379.29 892.619 3366.79 895.813 3354.04 896.241Z" fill="white"/>
<path d="M3358.04 919.278C3376.92 918.398 3385.4 911.758 3389.08 904.718C3381.9 905.183 3374.86 906.917 3368.28 909.838C3363.95 911.816 3360.36 915.123 3358.04 919.278Z" fill="#DE5753"/>
<path d="M3435.64 757.202C3435.64 757.202 3368.2 786.722 3326.2 752.962C3284.2 719.202 3326.2 666.642 3326.2 666.642C3336.45 675.753 3349.61 680.915 3363.32 681.202C3385.48 681.202 3435.32 664.322 3478.04 682.242C3520.76 700.162 3540.12 758.242 3504.44 787.762L3435.64 757.202Z" fill="#263238"/>
<path d="M3484.44 1054.56L3475.24 1100.16C3475.24 1100.16 3528.2 1321.28 3539.64 1436.16L3520.28 1455.44L3489.88 1436.16C3489.88 1436.16 3487.16 1202.56 3460.36 1104.4L3412.36 1065.04L3450.2 1052.8L3484.44 1054.56Z" fill="#90CAF9"/>
<path d="M3354.76 997.838L3447 1039.28L3452.44 1006.08L3486.2 1018C3492.1 1020.04 3497.13 1024.03 3500.47 1029.3C3503.82 1034.58 3505.27 1040.83 3504.6 1047.04L3500.84 1083.52L3453.8 1058L3430.6 1090.88L3320.12 1037.68L3354.76 997.838Z" fill="#90CAF9"/>
<path opacity="0.7" d="M3354.76 997.838L3447 1039.28L3452.44 1006.08L3486.2 1018C3492.1 1020.04 3497.13 1024.03 3500.47 1029.3C3503.82 1034.58 3505.27 1040.83 3504.6 1047.04L3500.84 1083.52L3453.8 1058L3430.6 1090.88L3320.12 1037.68L3354.76 997.838Z" fill="white"/>
<path d="M3322.68 1032C3322.68 1032 3409.4 1102.56 3507.4 1327.52C3507.4 1327.52 3511 1107.68 3492.52 1021.44L3599.48 1026.64C3599.48 1026.64 3677.72 1199.52 3638.44 1572.96L3665.56 1759.68L3547.64 1809.04L3520.44 1722L3492.52 1807.36L3265.16 1776.96L3277.24 1541.2C3277.24 1541.2 3223 1151.68 3215.48 1058L3322.68 1032Z" fill="#263238"/>
<path opacity="0.1" d="M3665.56 1759.76L3547.64 1809.04L3520.44 1722L3492.52 1807.28L3404.52 1795.52L3265 1776.88L3271 1659.76L3277.08 1541.12C3277.08 1541.12 3267.32 1470.96 3255.4 1383.04C3249.24 1337.44 3242.6 1287.04 3236.36 1239.04C3226.44 1161.6 3217.88 1090.72 3215.32 1057.28L3315.08 1033.28L3322.52 1031.52C3322.52 1031.52 3409.24 1102.16 3507.24 1327.04C3507.24 1327.04 3510.84 1107.2 3492.36 1021.04L3599.32 1026.24C3599.32 1026.24 3677.56 1199.04 3638.28 1572.56L3665.56 1759.76Z" fill="white"/>
<path opacity="0.2" d="M3546.84 1122L3571.64 1165.76C3571.64 1165.76 3545.88 1333.76 3504.44 1392.64V1357.84L3343.96 1172.8L3372.76 1128.32L3300.76 1142.56C3300.76 1142.56 3294.04 1074.96 3315.48 1033.76L3322.92 1032C3322.92 1032 3409.64 1102.64 3507.64 1327.52C3507.64 1327.52 3511.24 1107.68 3492.76 1021.52C3492.76 1021.52 3543.88 1049.2 3580.28 1122H3546.84Z" fill="white"/>
<path opacity="0.2" d="M3255.56 1383.28C3249.4 1337.68 3242.76 1287.28 3236.52 1239.28L3262.04 1226.24C3262.04 1226.24 3284.92 1314 3255.56 1383.28Z" fill="black"/>
<path opacity="0.2" d="M3404.68 1795.76L3265.16 1777.12L3271.16 1660C3313.8 1680.72 3383 1724.24 3404.68 1795.76Z" fill="black"/>
<path d="M3215.48 1058C3215.48 1058 3044.68 1313.12 3061.56 1455.52C3078.44 1597.92 3285.56 1829.92 3285.56 1829.92L3351.56 1788.88C3351.56 1788.88 3185.96 1534.72 3171.24 1455.52C3163.24 1412.96 3261.96 1226.64 3261.96 1226.64C3261.96 1226.64 3255.4 1098 3215.48 1058Z" fill="#263238"/>
<path opacity="0.1" d="M3215.48 1058C3215.48 1058 3044.68 1313.12 3061.56 1455.52C3078.44 1597.92 3285.56 1829.92 3285.56 1829.92L3351.56 1788.88C3351.56 1788.88 3185.96 1534.72 3171.24 1455.52C3163.24 1412.96 3261.96 1226.64 3261.96 1226.64C3261.96 1226.64 3255.4 1098 3215.48 1058Z" fill="white"/>
<path d="M3751.48 1235.28L3766.84 1025.52L3903.4 1034.96L3919.56 967.76L3952.6 981.6L3883.48 1226.48L3751.48 1235.28Z" fill="#90CAF9"/>
<path opacity="0.7" d="M3751.48 1235.28L3766.84 1025.52L3903.4 1034.96L3919.56 967.76L3952.6 981.6L3883.48 1226.48L3751.48 1235.28Z" fill="white"/>
<path d="M3723.56 1265.52L3774.2 1048.24H3911.32L3959.88 969.84L3919.8 1202.32L3871.24 1253.2L3723.56 1265.52Z" fill="#90CAF9"/>
<path opacity="0.2" d="M3911.32 1048.24L3871.24 1253.2L3919.8 1202.32L3959.88 969.84L3911.32 1048.24Z" fill="black"/>
<path d="M3932.92 1126.08C3932.92 1126.08 3909.8 1134.08 3906.6 1147.52C3903.4 1160.96 3898.2 1245.6 3898.2 1245.6C3898.2 1245.6 3934.04 1237.6 3939.32 1218.16C3944.6 1198.72 3932.92 1126.08 3932.92 1126.08Z" fill="#EBB376"/>
<defs>
<linearGradient id="paint0_linear_2106_1920" x1="-1095.6" y1="264.76" x2="-1095.6" y2="3793.76" gradientUnits="userSpaceOnUse">
<stop stop-color="#EA00FF" stop-opacity="0.2"/>
<stop offset="1" stop-color="#1653F0"/>
</linearGradient>
</defs>
</svg>
