<svg width="5371" height="3529" viewBox="0 0 5371 3529" fill="none" xmlns="http://www.w3.org/2000/svg">
<g clip-path="url(#clip0_2108_1256)">
<rect width="5371" height="3529" fill="#EAF0FF"/>
<g filter="url(#filter0_f_2108_1256)">
<ellipse cx="3708" cy="2385" rx="2062" ry="1577" fill="url(#paint0_linear_2108_1256)" fill-opacity="0.5"/>
</g>
<rect y="589" width="2099" height="6141" fill="url(#paint1_linear_2108_1256)"/>
</g>
<path d="M2685.42 3387.31C3613.49 3387.31 4365.84 2993.78 4365.84 2508.33C4365.84 2022.89 3613.49 1629.36 2685.42 1629.36C1757.35 1629.36 1005 2022.89 1005 2508.33C1005 2993.78 1757.35 3387.31 2685.42 3387.31Z" fill="#F5F5F5"/>
<path d="M2109.26 2656.64L2202.04 2710.42C2212.7 2715.83 2224.49 2718.65 2236.44 2718.65C2248.39 2718.65 2260.18 2715.83 2270.84 2710.42L3170.07 2191.22C3189.05 2180.26 3189.05 2162.46 3170.07 2151.5L3077.52 2098.04C3066.86 2092.63 3055.08 2089.81 3043.13 2089.81C3031.17 2089.81 3019.39 2092.63 3008.73 2098.04L2109.5 2617.24C2090.27 2627.88 2090.27 2645.68 2109.26 2656.64Z" fill="#E0E0E0"/>
<path d="M3813.35 2835.62C4040.39 2835.62 4224.44 2734.86 4224.44 2610.57C4224.44 2486.28 4040.39 2385.52 3813.35 2385.52C3586.31 2385.52 3402.26 2486.28 3402.26 2610.57C3402.26 2734.86 3586.31 2835.62 3813.35 2835.62Z" fill="#E0E0E0"/>
<path d="M1278.9 2828.31C1407.75 2889.71 1616.67 2889.71 1745.51 2828.31C1874.36 2766.9 1874.36 2667.37 1745.51 2605.88C1616.67 2544.4 1407.75 2544.48 1278.9 2605.88C1150.05 2667.29 1150.05 2766.9 1278.9 2828.31Z" fill="#E0E0E0"/>
<path d="M3146 268.756C3143.77 252.868 3130.98 246.99 3115.57 255.966L2269.72 744.268C2260.78 750.12 2253.33 757.993 2247.99 767.253C2242.65 776.512 2239.57 786.898 2238.98 797.571V2664.35C2238.98 2682.38 2250.74 2690.64 2265.83 2683.97C2256.67 2687.88 2246.77 2689.73 2236.82 2689.4C2226.87 2689.07 2217.12 2686.57 2208.24 2682.06L2172.97 2661.81C2164 2655.97 2156.53 2648.11 2151.18 2638.85C2145.82 2629.58 2142.73 2619.19 2142.15 2608.51V741.806C2142.71 731.118 2145.8 720.716 2151.15 711.451C2156.51 702.187 2163.99 694.322 2172.97 688.503L3018.74 200.201C3028.26 195.347 3038.79 192.816 3049.48 192.816C3060.17 192.816 3070.7 195.347 3080.22 200.201L3115.57 220.378C3123.81 225.798 3130.78 232.921 3136.03 241.267C3141.28 249.612 3144.68 258.986 3146 268.756Z" fill="#455A64"/>
<path d="M3115.57 255.807L2269.72 744.267C2260.78 750.119 2253.33 757.992 2247.99 767.252C2242.65 776.511 2239.57 786.897 2238.98 797.57V2664.35C2238.98 2683.89 2252.8 2691.91 2269.72 2682.06L3115.57 2193.44C3124.51 2187.59 3131.95 2179.71 3137.29 2170.45C3142.63 2161.2 3145.72 2150.81 3146.31 2140.14V273.362C3146.31 254.138 3132.49 246.115 3115.57 255.807ZM3101.99 1964.27C3101.99 1981.03 3090.23 1991.67 3075.62 2000.09L2306.58 2444.07C2292.04 2452.49 2280.21 2445.74 2280.21 2428.9V975.827C2280.72 966.669 2283.37 957.758 2287.95 949.811C2292.53 941.864 2298.91 935.103 2306.58 930.071L3075.85 486.175C3090.47 477.755 3102.23 484.586 3102.23 501.348L3101.99 1964.27Z" fill="#37474F"/>
<path d="M2265.59 2683.65C2256.44 2687.56 2246.53 2689.41 2236.58 2689.09C2226.64 2688.76 2216.88 2686.25 2208 2681.75L2172.73 2661.49C2163.77 2655.65 2156.31 2647.78 2150.96 2638.52C2145.6 2629.26 2142.5 2618.87 2141.91 2608.19V741.805C2142.3 731.061 2145.42 720.593 2150.96 711.381L2247.8 766.987C2242.27 776.176 2239.15 786.615 2238.74 797.332V2664.11C2238.98 2682.06 2250.74 2690.33 2265.59 2683.65Z" fill="#263238"/>
<path d="M2692.65 541.225C2704.01 534.632 2713.3 539.954 2713.3 553.141C2712.89 560.299 2710.81 567.263 2707.23 573.471C2703.64 579.68 2698.65 584.96 2692.65 588.888C2681.29 595.402 2671.99 590.079 2671.99 576.972C2672.39 569.812 2674.47 562.846 2678.06 556.637C2681.65 550.427 2686.64 545.148 2692.65 541.225Z" fill="#263238"/>
<path d="M2678.67 2392.67C2673.54 2392.73 2668.49 2391.42 2664.05 2388.86C2653.56 2382.82 2648.16 2370.43 2648.16 2353.99C2649.15 2336.48 2654.23 2319.45 2663.01 2304.27C2671.78 2289.1 2684 2276.19 2698.69 2266.61C2712.9 2258.66 2726.57 2257.15 2736.97 2263.19C2747.38 2269.23 2752.86 2281.62 2752.86 2298.06C2751.9 2315.57 2746.82 2332.61 2738.04 2347.79C2729.26 2362.97 2717.03 2375.87 2702.34 2385.45C2695.22 2389.9 2687.06 2392.39 2678.67 2392.67ZM2722.04 2267.24C2715.06 2267.55 2708.27 2269.65 2702.34 2273.36C2688.81 2282.22 2677.55 2294.13 2669.46 2308.13C2661.38 2322.13 2656.69 2337.84 2655.79 2353.99C2655.79 2367.49 2660.08 2377.42 2668.02 2382.03C2675.97 2386.64 2686.69 2385.37 2698.37 2378.61C2711.91 2369.75 2723.18 2357.83 2731.26 2343.81C2739.35 2329.79 2744.03 2314.06 2744.92 2297.91C2744.92 2284.4 2740.63 2274.47 2732.68 2269.94C2729.32 2268.06 2725.5 2267.16 2721.64 2267.32L2722.04 2267.24Z" fill="#E6E6E6"/>
<path d="M2613.05 666.658L2771.93 574.749C2781.46 569.268 2789.16 573.16 2789.16 583.407C2788.74 589.195 2786.96 594.801 2783.97 599.77C2780.97 604.739 2776.85 608.931 2771.93 612.005L2613.05 703.914C2603.52 709.395 2595.81 705.503 2595.81 695.255C2596.23 689.468 2598.01 683.862 2601.01 678.893C2604 673.923 2608.13 669.731 2613.05 666.658Z" fill="#263238"/>
<path d="M3101.99 1964.43C3101.99 1981.19 3090.23 1991.83 3075.62 2000.25L2306.58 2444.23C2292.05 2452.65 2280.21 2445.9 2280.21 2429.06V975.828C2280.72 966.67 2283.37 957.759 2287.95 949.812C2292.53 941.865 2298.91 935.104 2306.58 930.072L3075.85 486.176C3090.47 477.755 3102.23 484.587 3102.23 501.348L3101.99 1964.43Z" fill="#90CAF9"/>
<path opacity="0.75" d="M3101.99 1964.43C3101.99 1981.19 3090.23 1991.83 3075.62 2000.25L2306.58 2444.23C2292.05 2452.65 2280.21 2445.9 2280.21 2429.06V975.828C2280.72 966.67 2283.37 957.759 2287.95 949.812C2292.53 941.865 2298.91 935.104 2306.58 930.072L3075.85 486.176C3090.47 477.755 3102.23 484.587 3102.23 501.348L3101.99 1964.43Z" fill="white"/>
<path d="M3075.85 486.176L2306.82 930.072C2299.15 935.104 2292.77 941.865 2288.19 949.812C2283.61 957.759 2280.96 966.67 2280.45 975.828V1074.01L3102.23 599.454V501.348C3101.99 484.587 3090.23 477.755 3075.85 486.176Z" fill="#90CAF9"/>
<path d="M2280.21 2321.89V2429.06C2280.21 2445.9 2292.05 2452.89 2306.58 2444.23L3075.85 2000.25C3090.47 1991.83 3102.23 1981.19 3102.23 1964.43V1847.49L2280.21 2321.89Z" fill="#90CAF9"/>
<path opacity="0.15" d="M2347.81 2323.56L2922.46 1991.51C2935.73 1983.57 2946.29 1990.08 2946.29 2005.42C2945.85 2013.75 2943.47 2021.86 2939.33 2029.1C2935.19 2036.34 2929.41 2042.51 2922.46 2047.12L2347.81 2379.17C2334.54 2387.11 2323.98 2380.6 2323.98 2365.27C2324.42 2356.94 2326.8 2348.83 2330.94 2341.58C2335.08 2334.34 2340.86 2328.17 2347.81 2323.56Z" fill="black"/>
<path d="M2987.52 1944.96V1961.88C2987.52 1965.7 2989.51 1968.32 2991.89 1967.76L3018.98 1961.49C3021.36 1960.93 3021.36 1962.28 3018.98 1964.51L2991.89 1989.45C2989.18 1992.44 2987.62 1996.3 2987.52 2000.33V2017.25C2987.52 2021.07 2989.43 2021.94 2991.73 2019.24L3055.99 1944.09C3058.22 1941.39 3058.22 1939.17 3055.99 1939.17L2991.73 1938.13C2989.43 1938.13 2987.52 1941.15 2987.52 1944.96Z" fill="#455A64"/>
<path d="M2459.42 1341.32L2418.59 1317.49C2417.78 1317.16 2417.11 1316.57 2416.68 1315.82L2409.21 1302.71L2433.05 1288.73L2432.33 1290.8L2459.42 1341.32Z" fill="#E0E0E0"/>
<path d="M2429.71 1290.96L2457.99 1339.89C2458.35 1340.7 2458.94 1341.37 2459.7 1341.82C2460.46 1342.26 2461.34 1342.46 2462.22 1342.38C2463.09 1342.3 2463.92 1341.95 2464.59 1341.38C2465.26 1340.8 2465.73 1340.03 2465.93 1339.18L2495.8 1252.91L2429.71 1290.96Z" fill="#F0F0F0"/>
<path d="M2725.14 936.506C2724.76 929.646 2722.78 922.971 2719.34 917.022C2715.91 911.073 2711.11 906.019 2705.36 902.269C2699.22 899.099 2692.41 897.445 2685.5 897.445C2678.59 897.445 2671.78 899.099 2665.64 902.269L2346.14 1086.72C2340.39 1090.48 2335.61 1095.54 2332.17 1101.49C2328.74 1107.43 2326.75 1114.1 2326.36 1120.96V1282.85C2326.73 1289.71 2328.72 1296.39 2332.16 1302.34C2335.59 1308.29 2340.38 1313.34 2346.14 1317.09C2352.28 1320.26 2359.09 1321.91 2366 1321.91C2372.91 1321.91 2379.72 1320.26 2385.86 1317.09L2707.42 1131.37C2725.22 1121.28 2725.38 1111.11 2725.38 1098.48L2725.14 936.506Z" fill="#F0F0F0"/>
<path d="M2326.36 1282.85C2326.73 1289.71 2328.72 1296.39 2332.16 1302.34C2335.59 1308.29 2340.38 1313.34 2346.14 1317.09C2351.69 1319.91 2357.78 1321.52 2363.99 1321.81C2370.21 1322.1 2376.42 1321.06 2382.21 1318.76C2372.91 1322.33 2365.84 1317.01 2365.84 1305.73V1143.76C2366.06 1136.88 2368.05 1130.17 2371.64 1124.3L2331.92 1101.5C2328.36 1107.39 2326.37 1114.09 2326.12 1120.96L2326.36 1282.85Z" fill="#E0E0E0"/>
<path d="M2724.42 931.025C2722.12 923.081 2714.49 919.983 2705.36 925.226L2385.62 1109.68C2379.77 1113.3 2374.97 1118.39 2371.72 1124.45L2332 1101.66C2335.29 1095.64 2340.08 1090.58 2345.9 1086.96L2665.64 902.507C2671.79 899.375 2678.6 897.742 2685.5 897.742C2692.4 897.742 2699.21 899.375 2705.36 902.507C2710.32 905.704 2714.57 909.884 2717.85 914.789C2721.13 919.694 2723.36 925.22 2724.42 931.025Z" fill="#FAFAFA"/>
<path d="M2418.91 1182.37L2647.37 1050.18C2653.96 1046.37 2659.28 1048.12 2659.28 1054.07C2658.81 1057.75 2657.49 1061.26 2655.42 1064.34C2653.35 1067.41 2650.59 1069.97 2647.37 1071.79L2418.91 1203.97C2412.31 1207.79 2406.99 1206.04 2406.99 1200.08C2407.46 1196.4 2408.78 1192.89 2410.85 1189.81C2412.92 1186.74 2415.68 1184.19 2418.91 1182.37Z" fill="#455A64"/>
<path d="M2418.91 1229.23L2577.78 1136.93C2584.45 1133.11 2589.78 1134.86 2589.78 1140.82C2589.3 1144.5 2587.96 1148.02 2585.88 1151.1C2583.8 1154.17 2581.02 1156.72 2577.78 1158.53L2418.91 1250.84C2412.31 1254.65 2406.99 1252.9 2406.99 1246.95C2407.46 1243.27 2408.78 1239.76 2410.85 1236.68C2412.92 1233.6 2415.68 1231.05 2418.91 1229.23Z" fill="#455A64"/>
<path d="M2418.91 1135.66L2647.37 1003.16C2653.96 999.343 2659.28 1001.09 2659.28 1007.05C2658.81 1010.72 2657.49 1014.24 2655.42 1017.31C2653.35 1020.39 2650.59 1022.94 2647.37 1024.76L2418.91 1157.26C2412.31 1161.08 2406.99 1159.33 2406.99 1153.37C2407.46 1149.7 2408.78 1146.18 2410.85 1143.11C2412.92 1140.03 2415.68 1137.48 2418.91 1135.66Z" fill="#455A64"/>
<path d="M2416.05 1358.56L2391.02 1344.26C2386.73 1342.3 2382 1341.52 2377.31 1342C2372.62 1342.47 2368.14 1344.18 2364.33 1346.96C2353.95 1353.42 2345.26 1362.27 2338.99 1372.78C2331.32 1384.65 2326.96 1398.37 2326.36 1412.49C2325.88 1417.2 2326.66 1421.96 2328.61 1426.27C2330.56 1430.58 2333.62 1434.3 2337.48 1437.04L2362.51 1451.42C2366.85 1453.63 2371.72 1454.58 2376.58 1454.17C2381.43 1453.77 2386.08 1452.02 2389.99 1449.11C2401.04 1441.92 2410.23 1432.22 2416.83 1420.81C2423.43 1409.39 2427.24 1396.58 2427.96 1383.42C2428.47 1378.58 2427.63 1373.69 2425.52 1369.3C2423.42 1364.91 2420.14 1361.19 2416.05 1358.56Z" fill="#455A64"/>
<path d="M2391.02 1344.1C2386.73 1342.15 2382 1341.37 2377.31 1341.84C2372.62 1342.31 2368.14 1344.03 2364.33 1346.8C2353.96 1353.28 2345.28 1362.13 2338.99 1372.62C2331.32 1384.5 2326.96 1398.21 2326.36 1412.34C2325.86 1417.05 2326.63 1421.81 2328.59 1426.12C2330.54 1430.44 2333.61 1434.15 2337.48 1436.88L2362.27 1451.1C2358.72 1448.28 2355.93 1444.63 2354.15 1440.48C2352.36 1436.32 2351.63 1431.78 2352.02 1427.27C2352.75 1414.1 2356.57 1401.28 2363.17 1389.86C2369.76 1378.43 2378.95 1368.72 2389.99 1361.5C2393.69 1358.89 2397.97 1357.23 2402.45 1356.66C2406.94 1356.09 2411.5 1356.64 2415.73 1358.24L2391.02 1344.1Z" fill="#37474F"/>
<path d="M2388.4 1373.17C2395.39 1369.12 2401.03 1372.38 2401.03 1380.4C2400.8 1384.79 2399.53 1389.06 2397.34 1392.87C2395.15 1396.68 2392.08 1399.92 2388.4 1402.33C2381.41 1406.3 2375.77 1403.04 2375.77 1395.02C2375.99 1390.64 2377.25 1386.37 2379.45 1382.57C2381.65 1378.77 2384.72 1375.55 2388.4 1373.17Z" fill="white"/>
<path d="M2390.07 1442.28C2399.88 1436.07 2407.88 1427.39 2413.27 1417.1V1416.07C2413.27 1402.8 2403.97 1397.48 2392.53 1404.07L2385.38 1408.21C2379.62 1411.98 2374.78 1417.01 2371.22 1422.9C2367.66 1428.8 2365.47 1435.43 2364.81 1442.28C2365.36 1442.9 2365.97 1443.46 2366.64 1443.95C2370.3 1445.92 2374.45 1446.8 2378.59 1446.51C2382.74 1446.21 2386.72 1444.75 2390.07 1442.28Z" fill="white"/>
<path d="M2459.42 1929L2418.59 1905.17C2417.8 1904.81 2417.14 1904.23 2416.68 1903.5L2409.21 1890.39L2433.05 1876.33L2432.33 1878.47L2459.42 1929Z" fill="#E0E0E0"/>
<path d="M2429.71 1878.63L2457.99 1927.57C2458.35 1928.37 2458.94 1929.05 2459.7 1929.49C2460.46 1929.94 2461.34 1930.14 2462.22 1930.06C2463.09 1929.98 2463.92 1929.63 2464.59 1929.05C2465.26 1928.48 2465.73 1927.71 2465.93 1926.85L2495.8 1840.58L2429.71 1878.63Z" fill="#F0F0F0"/>
<path d="M2725.14 1524.18C2724.76 1517.32 2722.78 1510.65 2719.34 1504.7C2715.91 1498.75 2711.11 1493.7 2705.36 1489.95C2699.21 1486.81 2692.4 1485.18 2685.5 1485.18C2678.6 1485.18 2671.79 1486.81 2665.64 1489.95L2345.9 1674.4C2340.15 1678.15 2335.36 1683.2 2331.92 1689.15C2328.48 1695.1 2326.5 1701.78 2326.12 1708.64V1870.53C2326.51 1877.39 2328.5 1884.06 2331.93 1890.01C2335.37 1895.95 2340.16 1901.01 2345.9 1904.77C2352.04 1907.94 2358.85 1909.59 2365.76 1909.59C2372.67 1909.59 2379.48 1907.94 2385.62 1904.77L2707.18 1719.04C2724.98 1708.88 2725.14 1698.71 2725.14 1686.16V1524.18Z" fill="#F0F0F0"/>
<path d="M2326.36 1870.53C2326.75 1877.39 2328.74 1884.06 2332.17 1890.01C2335.61 1895.95 2340.39 1901.01 2346.14 1904.77C2351.69 1907.59 2357.78 1909.2 2363.99 1909.49C2370.21 1909.77 2376.42 1908.73 2382.21 1906.44C2372.91 1909.93 2365.84 1904.69 2365.84 1893.41V1731.36C2366.09 1724.48 2368.08 1717.78 2371.64 1711.89L2331.92 1689.18C2328.36 1695.06 2326.36 1701.76 2326.12 1708.64L2326.36 1870.53Z" fill="#E0E0E0"/>
<path d="M2724.42 1518.86C2722.12 1510.44 2714.49 1507.82 2705.36 1513.06L2385.62 1697.52C2379.75 1701.11 2374.95 1706.21 2371.72 1712.29L2332 1689.49C2335.29 1683.48 2340.08 1678.41 2345.9 1674.8L2665.64 1490.26C2671.8 1487.17 2678.6 1485.56 2685.5 1485.56C2692.39 1485.56 2699.2 1487.17 2705.36 1490.26C2710.32 1493.48 2714.57 1497.67 2717.85 1502.59C2721.13 1507.51 2723.37 1513.05 2724.42 1518.86Z" fill="#FAFAFA"/>
<path d="M2418.91 1770.04L2647.37 1637.46C2653.96 1633.65 2659.28 1635.4 2659.28 1641.43C2658.8 1645.1 2657.47 1648.6 2655.4 1651.66C2653.34 1654.72 2650.58 1657.25 2647.37 1659.07L2418.91 1791.57C2412.31 1795.46 2406.99 1793.72 2406.99 1787.68C2407.47 1784.02 2408.8 1780.52 2410.87 1777.46C2412.94 1774.4 2415.69 1771.86 2418.91 1770.04Z" fill="#455A64"/>
<path d="M2418.91 1816.83L2577.78 1724.61C2584.45 1720.79 2589.78 1722.54 2589.78 1728.5C2589.3 1732.18 2587.96 1735.7 2585.88 1738.78C2583.8 1741.85 2581.02 1744.4 2577.78 1746.21L2418.91 1838.44C2412.31 1842.25 2406.99 1840.5 2406.99 1834.55C2407.46 1830.87 2408.78 1827.36 2410.85 1824.28C2412.92 1821.21 2415.68 1818.65 2418.91 1816.83Z" fill="#455A64"/>
<path d="M2418.91 1723.33L2647.37 1590.83C2653.96 1586.94 2659.28 1588.69 2659.28 1594.72C2658.81 1598.4 2657.49 1601.92 2655.42 1604.99C2653.35 1608.07 2650.59 1610.62 2647.37 1612.44L2418.91 1744.94C2412.31 1748.75 2406.99 1747.01 2406.99 1741.05C2407.46 1737.37 2408.78 1733.86 2410.85 1730.78C2412.92 1727.71 2415.68 1725.16 2418.91 1723.33Z" fill="#455A64"/>
<path d="M2416.05 1946.23L2391.02 1931.94C2386.73 1929.98 2382 1929.2 2377.31 1929.68C2372.62 1930.15 2368.14 1931.86 2364.33 1934.64C2353.95 1941.09 2345.26 1949.95 2338.99 1960.45C2331.32 1972.33 2326.96 1986.04 2326.36 2000.17C2325.88 2004.88 2326.66 2009.63 2328.61 2013.95C2330.56 2018.26 2333.62 2021.98 2337.48 2024.72L2362.51 2039.02C2366.84 2041.25 2371.71 2042.23 2376.57 2041.84C2381.43 2041.45 2386.08 2039.7 2389.99 2036.79C2401.05 2029.59 2410.25 2019.88 2416.85 2008.45C2423.44 1997.02 2427.25 1984.2 2427.96 1971.02C2428.47 1966.19 2427.62 1961.31 2425.52 1956.94C2423.41 1952.56 2420.13 1948.86 2416.05 1946.23Z" fill="#455A64"/>
<path d="M2391.02 1931.94C2386.73 1929.98 2382 1929.2 2377.31 1929.68C2372.62 1930.15 2368.14 1931.86 2364.33 1934.64C2353.96 1941.12 2345.28 1949.96 2338.99 1960.45C2331.32 1972.33 2326.96 1986.04 2326.36 2000.17C2325.86 2004.88 2326.63 2009.64 2328.59 2013.96C2330.54 2018.27 2333.61 2021.99 2337.48 2024.72L2362.27 2038.86C2358.71 2036.06 2355.91 2032.41 2354.12 2028.24C2352.33 2024.08 2351.61 2019.54 2352.02 2015.03C2352.57 2000.89 2356.93 1987.17 2364.65 1975.31C2370.91 1964.78 2379.6 1955.9 2389.99 1949.41C2393.69 1946.8 2397.97 1945.14 2402.45 1944.58C2406.94 1944.01 2411.5 1944.55 2415.73 1946.15L2391.02 1931.94Z" fill="#37474F"/>
<path d="M2388.4 1960.77C2395.39 1956.8 2401.03 1960.06 2401.03 1968.08C2400.8 1972.46 2399.53 1976.72 2397.34 1980.52C2395.14 1984.31 2392.08 1987.54 2388.4 1989.93C2381.41 1993.98 2375.77 1990.72 2375.77 1982.7C2376.01 1978.31 2377.27 1974.03 2379.47 1970.22C2381.66 1966.41 2384.72 1963.18 2388.4 1960.77Z" fill="white"/>
<path d="M2390.07 2029.96C2399.88 2023.72 2407.88 2015.01 2413.27 2004.7V2003.43C2413.27 1990.17 2403.97 1984.84 2392.53 1991.44L2385.38 1995.57C2379.62 1999.33 2374.78 2004.34 2371.22 2010.22C2367.66 2016.11 2365.47 2022.72 2364.81 2029.57C2365.34 2030.23 2365.95 2030.82 2366.64 2031.31C2370.27 2033.32 2374.4 2034.26 2378.55 2034.02C2382.7 2033.79 2386.69 2032.38 2390.07 2029.96Z" fill="white"/>
<path d="M2937.24 1373.73L2896.41 1349.9C2895.6 1349.57 2894.93 1348.98 2894.5 1348.23L2886.95 1335.12L2911.26 1321.14L2910.47 1323.29L2937.24 1373.73Z" fill="#90CAF9"/>
<g opacity="0.1">
<path d="M2937.24 1373.73L2896.41 1349.9C2895.6 1349.57 2894.93 1348.98 2894.5 1348.23L2886.95 1335.12L2911.26 1321.14L2910.47 1323.29L2937.24 1373.73Z" fill="black"/>
</g>
<path d="M2907.53 1323.37L2935.81 1372.3C2936.16 1373.11 2936.76 1373.78 2937.52 1374.23C2938.28 1374.67 2939.16 1374.87 2940.03 1374.79C2940.91 1374.71 2941.74 1374.36 2942.41 1373.79C2943.07 1373.21 2943.54 1372.44 2943.75 1371.59L2973.62 1285.4L2907.53 1323.37Z" fill="#90CAF9"/>
<path d="M3062.27 1050.58C3061.9 1043.73 3059.92 1037.06 3056.5 1031.11C3053.08 1025.16 3048.31 1020.1 3042.57 1016.34C3036.42 1013.21 3029.61 1011.58 3022.71 1011.58C3015.81 1011.58 3009 1013.21 3002.85 1016.34L2683.35 1201.11C2677.59 1204.84 2672.8 1209.88 2669.36 1215.82C2665.92 1221.75 2663.94 1228.42 2663.57 1235.27V1397.24C2663.94 1404.09 2665.92 1410.76 2669.36 1416.7C2672.8 1422.63 2677.59 1427.67 2683.35 1431.4C2689.5 1434.53 2696.31 1436.17 2703.21 1436.17C2710.12 1436.17 2716.92 1434.53 2723.07 1431.4L3044.08 1245.36C3061.79 1235.27 3061.95 1225.1 3061.95 1212.47L3062.27 1050.58Z" fill="#90CAF9"/>
<path d="M2769.86 1288.49L2998.24 1155.99C3004.84 1152.18 3010.24 1153.93 3010.24 1159.88C3009.76 1163.57 3008.42 1167.09 3006.34 1170.16C3004.26 1173.24 3001.49 1175.79 2998.24 1177.6L2769.86 1310.1C2763.27 1313.91 2757.87 1312.17 2757.87 1306.21C2758.35 1302.52 2759.68 1299 2761.76 1295.93C2763.85 1292.85 2766.62 1290.31 2769.86 1288.49Z" fill="#455A64"/>
<path d="M2839.05 1294.61L2997.93 1202.3C3004.52 1198.49 3009.92 1200.24 3009.92 1206.2C3009.44 1209.88 3008.11 1213.4 3006.02 1216.48C3003.94 1219.55 3001.17 1222.1 2997.93 1223.91L2839.05 1316.22C2832.46 1320.03 2827.06 1318.28 2827.06 1312.33C2827.54 1308.64 2828.87 1305.12 2830.95 1302.05C2833.04 1298.97 2835.81 1296.42 2839.05 1294.61Z" fill="#455A64"/>
<path d="M2769.86 1241.78L2998.24 1109.28C3004.84 1105.47 3010.24 1107.22 3010.24 1113.18C3009.76 1116.86 3008.42 1120.38 3006.34 1123.45C3004.26 1126.53 3001.49 1129.08 2998.24 1130.89L2769.86 1263.39C2763.27 1267.2 2757.87 1265.46 2757.87 1259.5C2758.35 1255.82 2759.68 1252.3 2761.76 1249.22C2763.85 1246.14 2766.62 1243.6 2769.86 1241.78Z" fill="#455A64"/>
<path opacity="0.1" d="M2663.57 1397.01C2663.94 1403.86 2665.92 1410.52 2669.36 1416.46C2672.8 1422.4 2677.59 1427.44 2683.35 1431.16C2688.93 1433.95 2695.02 1435.54 2701.25 1435.82C2707.47 1436.11 2713.69 1435.09 2719.5 1432.83C2710.2 1436.33 2703.13 1431 2703.13 1419.72V1257.83C2703.37 1250.95 2705.37 1244.25 2708.93 1238.37L2669.21 1215.57C2665.66 1221.46 2663.66 1228.16 2663.42 1235.03L2663.57 1397.01Z" fill="black"/>
<path opacity="0.3" d="M3061.63 1044.94C3059.33 1036.6 3051.7 1033.9 3042.57 1039.14L2722.75 1223.59C2716.92 1227.23 2712.13 1232.32 2708.85 1238.37L2669.13 1215.65C2672.41 1209.6 2677.2 1204.51 2683.04 1200.87L3002.69 1016.42C3008.85 1013.3 3015.65 1011.68 3022.55 1011.68C3029.45 1011.68 3036.26 1013.3 3042.41 1016.42C3047.39 1019.62 3051.66 1023.79 3054.96 1028.7C3058.27 1033.6 3060.54 1039.13 3061.63 1044.94Z" fill="white"/>
<path d="M3050.28 1312.32L3025.33 1298.03C3021.04 1296.07 3016.31 1295.29 3011.62 1295.77C3006.93 1296.24 3002.45 1297.95 2998.64 1300.73C2988.24 1307.16 2979.54 1316.02 2973.3 1326.54C2965.61 1338.41 2961.25 1352.13 2960.67 1366.26C2960.17 1370.96 2960.93 1375.72 2962.87 1380.03C2964.81 1384.34 2967.86 1388.06 2971.71 1390.81L2996.81 1405.19C3001.16 1407.39 3006.03 1408.35 3010.88 1407.94C3015.74 1407.53 3020.38 1405.78 3024.3 1402.88C3035.36 1395.68 3044.56 1385.97 3051.15 1374.54C3057.75 1363.11 3061.56 1350.29 3062.27 1337.11C3062.78 1332.27 3061.92 1327.39 3059.8 1323.01C3057.68 1318.63 3054.38 1314.93 3050.28 1312.32Z" fill="#455A64"/>
<path d="M3025.33 1298.11C3021.04 1296.15 3016.31 1295.37 3011.62 1295.85C3006.93 1296.32 3002.45 1298.03 2998.64 1300.81C2988.24 1307.24 2979.54 1316.1 2973.3 1326.62C2965.61 1338.49 2961.25 1352.21 2960.67 1366.34C2960.17 1371.04 2960.93 1375.8 2962.87 1380.11C2964.81 1384.42 2967.86 1388.14 2971.71 1390.89L2996.5 1405.11C2992.98 1402.27 2990.21 1398.62 2988.44 1394.46C2986.66 1390.31 2985.94 1385.78 2986.33 1381.28C2986.89 1367.14 2991.25 1353.42 2998.96 1341.56C3005.2 1331.01 3013.89 1322.13 3024.3 1315.66C3028 1313.05 3032.27 1311.39 3036.76 1310.83C3041.25 1310.26 3045.81 1310.8 3050.04 1312.4L3025.33 1298.11Z" fill="#37474F"/>
<path d="M3022.15 1328.21C3029.07 1324.16 3034.78 1327.5 3034.78 1335.52C3034.54 1339.9 3033.27 1344.15 3031.07 1347.95C3028.88 1351.74 3025.82 1354.97 3022.15 1357.37C3015.16 1361.42 3009.52 1358.16 3009.52 1350.06C3009.76 1345.68 3011.03 1341.42 3013.23 1337.63C3015.42 1333.83 3018.48 1330.6 3022.15 1328.21Z" fill="#90CAF9"/>
<path d="M3023.74 1397.48C3033.6 1391.27 3041.63 1382.55 3047.02 1372.22V1371.27C3047.02 1358 3037.72 1352.68 3026.28 1359.27L3019.13 1363.4C3013.37 1367.17 3008.53 1372.18 3004.96 1378.06C3001.38 1383.95 2999.17 1390.56 2998.48 1397.4C2999.08 1398.03 2999.72 1398.61 3000.39 1399.15C3004.04 1401.12 3008.17 1402.01 3012.31 1401.71C3016.44 1401.42 3020.41 1399.95 3023.74 1397.48Z" fill="#90CAF9"/>
<path d="M2925.56 1824.38L2902.6 1811.11C2902.37 1811.03 2902.16 1810.91 2901.98 1810.74C2901.81 1810.58 2901.66 1810.38 2901.57 1810.16L2897.28 1802.77L2910.94 1794.83L2910.54 1796.1L2925.56 1824.38Z" fill="#90CAF9"/>
<g opacity="0.1">
<path d="M2925.56 1824.38L2902.6 1811.11C2902.37 1811.03 2902.16 1810.91 2901.98 1810.74C2901.81 1810.58 2901.66 1810.38 2901.57 1810.16L2897.28 1802.77L2910.94 1794.83L2910.54 1796.1L2925.56 1824.38Z" fill="black"/>
</g>
<path d="M2909.04 1796.1L2924.92 1823.58C2925.15 1823.97 2925.49 1824.29 2925.89 1824.49C2926.29 1824.7 2926.74 1824.79 2927.19 1824.74C2927.64 1824.7 2928.07 1824.53 2928.43 1824.26C2928.79 1823.98 2929.06 1823.61 2929.21 1823.19L2945.97 1774.73L2909.04 1796.1Z" fill="#90CAF9"/>
<path d="M3033.36 1659.23C3032.97 1652.38 3030.98 1645.72 3027.54 1639.79C3024.11 1633.85 3019.32 1628.81 3013.58 1625.07C3007.42 1621.94 3000.62 1620.3 2993.72 1620.3C2986.81 1620.3 2980.01 1621.94 2973.86 1625.07L2860.66 1690.37C2854.92 1694.11 2850.15 1699.16 2846.73 1705.09C2843.3 1711.03 2841.33 1717.68 2840.96 1724.52V1767.74C2841.32 1774.59 2843.29 1781.27 2846.71 1787.22C2850.13 1793.17 2854.91 1798.22 2860.66 1801.98C2866.8 1805.15 2873.61 1806.8 2880.52 1806.8C2887.43 1806.8 2894.24 1805.15 2900.38 1801.98L3015.4 1735.41C3033.2 1725.32 3033.36 1715.15 3033.36 1702.6V1659.23Z" fill="#90CAF9"/>
<path opacity="0.1" d="M2841.2 1767.74C2841.55 1774.59 2843.52 1781.27 2846.95 1787.22C2850.37 1793.17 2855.15 1798.22 2860.9 1801.98C2866.46 1804.8 2872.56 1806.41 2878.79 1806.7C2885.02 1806.98 2891.24 1805.94 2897.04 1803.65C2887.75 1807.22 2880.68 1801.9 2880.68 1790.62V1747.4C2880.92 1740.53 2882.92 1733.83 2886.48 1727.94L2846.76 1705.14C2843.2 1711.03 2841.2 1717.73 2840.96 1724.6L2841.2 1767.74Z" fill="black"/>
<path opacity="0.3" d="M3032.64 1653.91C3030.34 1645.49 3022.71 1642.86 3013.58 1648.11L2900.38 1713.4C2894.53 1716.99 2889.73 1722.06 2886.48 1728.1L2846.76 1705.38C2850.08 1699.37 2854.86 1694.29 2860.66 1690.61L2973.86 1625.31C2980.02 1622.21 2986.82 1620.6 2993.72 1620.6C3000.61 1620.6 3007.41 1622.21 3013.58 1625.31C3018.54 1628.52 3022.79 1632.72 3026.07 1637.63C3029.35 1642.55 3031.58 1648.09 3032.64 1653.91Z" fill="white"/>
<path d="M2924.37 1735.17C2921.21 1737.22 2918.59 1739.99 2916.71 1743.25C2914.84 1746.5 2913.76 1750.16 2913.56 1753.92C2913.56 1760.75 2918.33 1763.61 2924.37 1760.11C2927.51 1758.07 2930.12 1755.32 2932 1752.07C2933.88 1748.83 2934.96 1745.19 2935.17 1741.45C2935.17 1734.53 2930.32 1731.75 2924.37 1735.17Z" fill="#455A64"/>
<path d="M2958.52 1715.39C2955.37 1717.44 2952.75 1720.21 2950.87 1723.47C2948.99 1726.73 2947.91 1730.38 2947.72 1734.14C2947.72 1740.97 2952.57 1743.83 2958.52 1740.33C2961.67 1738.29 2964.28 1735.54 2966.16 1732.29C2968.04 1729.05 2969.12 1725.41 2969.33 1721.67C2969.33 1714.75 2964.64 1711.97 2958.52 1715.39Z" fill="#455A64"/>
<path d="M2992.76 1695.61C2989.62 1697.65 2987.01 1700.41 2985.13 1703.65C2983.25 1706.89 2982.17 1710.54 2981.96 1714.28C2981.96 1721.19 2986.8 1723.97 2992.76 1720.55C2995.95 1718.48 2998.59 1715.67 3000.47 1712.37C3002.35 1709.07 3003.41 1705.36 3003.57 1701.57C3003.57 1694.97 2998.72 1692.19 2992.76 1695.61Z" fill="#455A64"/>
<path d="M3050.28 1770.92L3025.33 1756.62C3021.04 1754.66 3016.31 1753.88 3011.62 1754.36C3006.93 1754.83 3002.45 1756.54 2998.64 1759.32C2988.24 1765.75 2979.54 1774.61 2973.3 1785.13C2965.61 1797 2961.25 1810.72 2960.67 1824.85C2960.17 1829.56 2960.93 1834.31 2962.87 1838.62C2964.81 1842.93 2967.86 1846.65 2971.71 1849.4L2996.81 1863.78C3001.16 1865.99 3006.03 1866.94 3010.88 1866.53C3015.74 1866.13 3020.38 1864.37 3024.3 1861.47C3035.35 1854.28 3044.54 1844.58 3051.14 1833.17C3057.73 1821.75 3061.55 1808.94 3062.27 1795.78C3062.78 1790.93 3061.93 1786.03 3059.81 1781.64C3057.69 1777.25 3054.39 1773.53 3050.28 1770.92Z" fill="#455A64"/>
<path d="M3025.33 1756.62C3021.04 1754.66 3016.31 1753.88 3011.62 1754.36C3006.93 1754.83 3002.45 1756.54 2998.64 1759.32C2988.24 1765.75 2979.54 1774.61 2973.3 1785.13C2965.61 1797 2961.25 1810.72 2960.67 1824.85C2960.17 1829.56 2960.93 1834.31 2962.87 1838.62C2964.81 1842.93 2967.86 1846.65 2971.71 1849.4L2996.5 1863.62C2992.98 1860.78 2990.21 1857.13 2988.44 1852.97C2986.66 1848.82 2985.94 1844.29 2986.33 1839.79C2986.89 1825.65 2991.25 1811.93 2998.96 1800.07C3005.22 1789.54 3013.91 1780.66 3024.3 1774.17C3028 1771.57 3032.27 1769.91 3036.76 1769.34C3041.25 1768.77 3045.81 1769.31 3050.04 1770.92L3025.33 1756.62Z" fill="#37474F"/>
<path d="M3022.15 1786.81C3029.07 1782.83 3034.78 1786.09 3034.78 1794.11C3034.54 1798.49 3033.27 1802.75 3031.07 1806.54C3028.88 1810.34 3025.82 1813.56 3022.15 1815.96C3015.16 1820.01 3009.52 1816.75 3009.52 1808.65C3009.76 1804.27 3011.03 1800.01 3013.23 1796.22C3015.42 1792.42 3018.48 1789.2 3022.15 1786.81Z" fill="#90CAF9"/>
<path d="M3023.74 1855.99C3033.6 1849.78 3041.63 1841.06 3047.02 1830.73V1829.78C3047.02 1816.51 3037.72 1811.19 3026.28 1817.78L3019.13 1821.91C3013.37 1825.68 3008.53 1830.69 3004.96 1836.57C3001.38 1842.46 2999.17 1849.07 2998.48 1855.91C2999.08 1856.54 2999.72 1857.12 3000.39 1857.66C3004.04 1859.63 3008.17 1860.52 3012.31 1860.22C3016.44 1859.92 3020.41 1858.46 3023.74 1855.99Z" fill="#90CAF9"/>
<path d="M3739.87 1479.94L3699.04 1456.11C3698.25 1455.72 3697.58 1455.12 3697.14 1454.36L3689.67 1441.25L3713.9 1427.27L3713.1 1429.41L3739.87 1479.94Z" fill="#E0E0E0"/>
<path d="M3710.16 1429.57L3738.44 1478.51C3738.8 1479.31 3739.4 1479.99 3740.16 1480.43C3740.91 1480.88 3741.79 1481.08 3742.67 1481C3743.55 1480.92 3744.38 1480.57 3745.04 1479.99C3745.71 1479.42 3746.18 1478.65 3746.39 1477.79L3775.94 1391.76L3710.16 1429.57Z" fill="#F0F0F0"/>
<path d="M4005.27 1075.13C4004.89 1068.27 4002.9 1061.6 3999.46 1055.65C3996.02 1049.7 3991.24 1044.65 3985.49 1040.89C3979.35 1037.72 3972.54 1036.06 3965.63 1036.06C3958.72 1036.06 3951.91 1037.72 3945.77 1040.89L3626.04 1225.26C3620.29 1229.02 3615.51 1234.08 3612.07 1240.03C3608.63 1245.97 3606.64 1252.64 3606.26 1259.5V1421.39C3606.63 1428.25 3608.62 1434.93 3612.05 1440.88C3615.49 1446.83 3620.28 1451.88 3626.04 1455.63C3632.19 1458.76 3638.99 1460.4 3645.9 1460.4C3652.8 1460.4 3659.61 1458.76 3665.76 1455.63L3987.32 1269.83C4005.03 1259.74 4005.27 1249.57 4005.27 1236.94V1075.13Z" fill="#F0F0F0"/>
<path d="M3606.81 1421.47C3607.19 1428.33 3609.17 1435.01 3612.61 1440.96C3616.05 1446.91 3620.84 1451.96 3626.59 1455.71C3632.15 1458.5 3638.24 1460.08 3644.46 1460.36C3650.67 1460.63 3656.87 1459.59 3662.66 1457.3C3653.36 1460.87 3646.29 1455.55 3646.29 1444.27V1282.38C3646.53 1275.5 3648.53 1268.8 3652.09 1262.92L3612.38 1240.12C3608.82 1246.01 3606.82 1252.7 3606.58 1259.58L3606.81 1421.47Z" fill="#E0E0E0"/>
<path d="M4005.27 1069.48C4002.97 1061.14 3995.34 1058.44 3986.21 1063.69L3666.07 1248.14C3660.22 1251.75 3655.43 1256.85 3652.17 1262.91L3612.45 1240.2C3615.73 1234.15 3620.52 1229.06 3626.36 1225.42L3946.01 1040.97C3952.17 1037.85 3958.97 1036.22 3965.87 1036.22C3972.77 1036.22 3979.58 1037.85 3985.73 1040.97C3990.77 1044.13 3995.1 1048.29 3998.46 1053.2C4001.82 1058.1 4004.14 1063.65 4005.27 1069.48Z" fill="#F5F5F5"/>
<path d="M3699.36 1320.98L3927.74 1188.48C3934.41 1184.67 3939.74 1186.42 3939.74 1192.37C3939.26 1196.06 3937.92 1199.58 3935.84 1202.65C3933.76 1205.73 3930.98 1208.28 3927.74 1210.09L3699.36 1342.59C3692.77 1346.4 3687.44 1344.66 3687.44 1338.7C3687.92 1335.02 3689.24 1331.51 3691.31 1328.43C3693.38 1325.36 3696.13 1322.81 3699.36 1320.98Z" fill="#455A64"/>
<path d="M3699.36 1367.93L3858.23 1275.62C3864.83 1271.81 3870.23 1273.56 3870.23 1279.52C3869.75 1283.2 3868.41 1286.72 3866.33 1289.8C3864.25 1292.87 3861.48 1295.42 3858.23 1297.23L3699.36 1389.54C3692.77 1393.35 3687.44 1391.6 3687.44 1385.65C3687.92 1381.97 3689.24 1378.45 3691.31 1375.38C3693.38 1372.3 3696.13 1369.75 3699.36 1367.93Z" fill="#455A64"/>
<path d="M3699.36 1274.27L3927.74 1141.77C3934.41 1137.96 3939.74 1139.71 3939.74 1145.67C3939.26 1149.35 3937.92 1152.87 3935.84 1155.94C3933.76 1159.02 3930.98 1161.57 3927.74 1163.38L3699.36 1295.88C3692.77 1299.69 3687.44 1297.95 3687.44 1291.99C3687.92 1288.31 3689.24 1284.8 3691.31 1281.72C3693.38 1278.65 3696.13 1276.1 3699.36 1274.27Z" fill="#455A64"/>
<path d="M1500.37 858.339L1541.2 834.508C1542.01 834.149 1542.68 833.535 1543.11 832.76L1551.05 819.653L1526.74 805.672L1527.54 807.817L1500.37 858.339Z" fill="#90CAF9"/>
<g opacity="0.1">
<path d="M1500.37 858.339L1541.2 834.508C1542.01 834.149 1542.68 833.535 1543.11 832.76L1551.05 819.653L1526.74 805.672L1527.54 807.817L1500.37 858.339Z" fill="black"/>
</g>
<path d="M1530.08 807.897L1501.8 856.83C1501.44 857.636 1500.85 858.309 1500.09 858.756C1499.33 859.203 1498.45 859.401 1497.57 859.322C1496.7 859.243 1495.87 858.891 1495.2 858.316C1494.53 857.741 1494.06 856.971 1493.86 856.115L1463.99 769.926L1530.08 807.897Z" fill="#90CAF9"/>
<path d="M1375.34 535.11C1375.7 528.259 1377.69 521.593 1381.12 515.656C1384.56 509.719 1389.36 504.68 1395.12 500.952C1401.27 497.82 1408.07 496.188 1414.98 496.188C1421.88 496.188 1428.68 497.82 1434.84 500.952L1754.65 685.406C1760.39 689.152 1765.16 694.197 1768.58 700.131C1772 706.066 1773.98 712.723 1774.35 719.564V881.537C1773.98 888.378 1772 895.035 1768.58 900.97C1765.16 906.904 1760.39 911.949 1754.65 915.695C1748.5 918.827 1741.69 920.46 1734.79 920.46C1727.89 920.46 1721.08 918.827 1714.93 915.695L1393.21 729.891C1375.5 719.802 1375.34 709.634 1375.34 697.083V535.11Z" fill="#90CAF9"/>
<path d="M1667.75 773.025L1439.44 640.523C1432.85 636.71 1427.53 638.458 1427.53 644.415C1428 648.091 1429.32 651.607 1431.39 654.682C1433.46 657.757 1436.22 660.307 1439.44 662.13L1667.83 794.632C1674.5 798.445 1679.82 796.697 1679.82 790.739C1679.33 787.048 1677.98 783.524 1675.89 780.448C1673.79 777.371 1671 774.829 1667.75 773.025Z" fill="#455A64"/>
<path d="M1598.32 779.14L1439.44 686.834C1432.85 683.021 1427.53 684.768 1427.53 690.726C1427.98 694.43 1429.29 697.977 1431.36 701.081C1433.43 704.186 1436.2 706.761 1439.44 708.599L1598.32 800.906C1604.91 804.719 1610.31 802.971 1610.31 797.013C1609.86 793.302 1608.53 789.75 1606.45 786.645C1604.36 783.54 1601.58 780.969 1598.32 779.14Z" fill="#455A64"/>
<path d="M1667.75 726.316L1439.44 593.814C1432.85 590.001 1427.53 591.749 1427.53 597.706C1428 601.382 1429.32 604.898 1431.39 607.973C1433.46 611.048 1436.22 613.598 1439.44 615.421L1667.75 748.32C1674.42 752.133 1679.74 750.385 1679.74 744.427C1679.32 740.674 1678.01 737.074 1675.93 733.925C1673.84 730.776 1671.04 728.168 1667.75 726.316Z" fill="#455A64"/>
<path opacity="0.1" d="M1774.03 881.535C1773.66 888.376 1771.69 895.033 1768.26 900.968C1764.84 906.903 1760.07 911.947 1754.33 915.693C1748.77 918.517 1742.67 920.126 1736.44 920.414C1730.21 920.701 1723.99 919.661 1718.19 917.362C1727.48 920.857 1734.55 915.534 1734.55 904.334V742.361C1734.31 735.486 1732.31 728.787 1728.75 722.899L1768.47 700.18C1772.05 706.032 1774.04 712.709 1774.27 719.562L1774.03 881.535Z" fill="black"/>
<path opacity="0.3" d="M1375.89 529.55C1378.2 521.129 1385.82 518.508 1394.96 523.751L1714.85 708.602C1720.7 712.187 1725.5 717.257 1728.75 723.298L1768.47 700.579C1765.15 694.566 1760.37 689.486 1754.57 685.803L1434.6 500.952C1428.44 497.833 1421.64 496.207 1414.74 496.207C1407.84 496.207 1401.03 497.833 1394.88 500.952C1389.94 504.18 1385.71 508.38 1382.44 513.297C1379.18 518.214 1376.95 523.744 1375.89 529.55Z" fill="white"/>
<path d="M3391.7 948.421L3347.69 923.001C3346.81 922.642 3346.09 921.998 3345.62 921.174L3337.68 907.034L3363.81 891.941L3363.02 894.245L3391.7 948.421Z" fill="#263238"/>
<path d="M3359.68 894.087L3390.11 946.834C3390.58 947.491 3391.22 948.013 3391.95 948.346C3392.69 948.679 3393.5 948.812 3394.31 948.732C3395.11 948.651 3395.88 948.36 3396.54 947.887C3397.2 947.415 3397.72 946.777 3398.05 946.039L3429.83 853.098L3359.68 894.087Z" fill="#37474F"/>
<path d="M3720.97 266.293C3720.57 258.906 3718.44 251.717 3714.74 245.312C3711.04 238.907 3705.88 233.466 3699.68 229.434L3682.36 219.425C3675.77 216.057 3668.47 214.301 3661.07 214.301C3653.67 214.301 3646.37 216.057 3639.78 219.425L3230.6 455.751C3224.4 459.783 3219.24 465.224 3215.54 471.629C3211.84 478.035 3209.7 485.223 3209.31 492.61V887.255C3209.7 894.642 3211.84 901.831 3215.54 908.236C3219.24 914.641 3224.4 920.082 3230.6 924.114L3247.92 934.123C3254.51 937.491 3261.8 939.247 3269.2 939.247C3276.61 939.247 3283.9 937.491 3290.49 934.123L3701.66 696.367C3720.81 685.484 3720.97 674.522 3720.97 660.938V266.293Z" fill="#37474F"/>
<path d="M3209.31 887.255C3209.7 894.642 3211.84 901.831 3215.54 908.236C3219.24 914.641 3224.4 920.082 3230.6 924.114L3247.92 934.123C3253.91 937.153 3260.47 938.882 3267.18 939.197C3273.89 939.511 3280.59 938.405 3286.84 935.95C3276.83 939.684 3269.2 933.964 3269.2 921.89V527.165C3269.46 519.752 3271.62 512.53 3275.48 506.194L3215.58 471.639C3211.72 477.97 3209.56 485.195 3209.31 492.61V887.255Z" fill="#263238"/>
<path d="M3720.25 260.256C3717.79 251.2 3709.53 248.34 3699.68 253.98L3290.34 490.307C3284.04 494.209 3278.86 499.684 3275.32 506.194L3215.43 471.639C3218.99 465.146 3224.16 459.676 3230.44 455.751L3639.86 219.425C3646.47 216.124 3653.76 214.406 3661.15 214.406C3668.54 214.406 3675.83 216.124 3682.44 219.425L3699.84 229.434C3705.14 232.926 3709.69 237.457 3713.2 242.755C3716.71 248.052 3719.11 254.006 3720.25 260.256Z" fill="#455A64"/>
<path d="M3311.39 553.616C3311.53 551.321 3312.2 549.09 3313.36 547.103C3314.52 545.116 3316.13 543.429 3318.06 542.178L3655.75 347C3657.81 345.984 3660.08 345.455 3662.38 345.455C3664.68 345.455 3666.95 345.984 3669.01 347L3676.48 351.289C3678.39 352.559 3679.97 354.252 3681.12 356.236C3682.26 358.22 3682.93 360.442 3683.07 362.728V621.853C3682.93 624.15 3682.26 626.383 3681.12 628.381C3679.98 630.378 3678.39 632.085 3676.48 633.372L3338.71 828.549C3336.65 829.566 3334.38 830.094 3332.08 830.094C3329.78 830.094 3327.51 829.566 3325.45 828.549L3318.06 824.26C3316.13 822.991 3314.52 821.289 3313.36 819.29C3312.2 817.29 3311.53 815.048 3311.39 812.741V553.616Z" fill="#90CAF9"/>
<path opacity="0.4" d="M3311.39 553.616C3311.53 551.321 3312.2 549.09 3313.36 547.103C3314.52 545.116 3316.13 543.429 3318.06 542.178L3655.75 347C3657.81 345.984 3660.08 345.455 3662.38 345.455C3664.68 345.455 3666.95 345.984 3669.01 347L3676.48 351.289C3678.39 352.559 3679.97 354.252 3681.12 356.236C3682.26 358.22 3682.93 360.442 3683.07 362.728V621.853C3682.93 624.15 3682.26 626.383 3681.12 628.381C3679.98 630.378 3678.39 632.085 3676.48 633.372L3338.71 828.549C3336.65 829.566 3334.38 830.094 3332.08 830.094C3329.78 830.094 3327.51 829.566 3325.45 828.549L3318.06 824.26C3316.13 822.991 3314.52 821.289 3313.36 819.29C3312.2 817.29 3311.53 815.048 3311.39 812.741V553.616Z" fill="white"/>
<path d="M3342.37 563.946L3313.37 547.105C3312.17 549.076 3311.49 551.316 3311.39 553.619V812.744C3311.53 815.051 3312.2 817.293 3313.36 819.293C3314.52 821.292 3316.13 822.994 3318.06 824.263L3325.45 828.552C3327.51 829.568 3329.78 830.097 3332.08 830.097C3334.38 830.097 3336.65 829.568 3338.71 828.552L3342.37 826.407V563.946Z" fill="#90CAF9"/>
<path opacity="0.3" d="M3342.37 563.946L3313.37 547.105C3312.17 549.076 3311.49 551.316 3311.39 553.619V812.744C3311.53 815.051 3312.2 817.293 3313.36 819.293C3314.52 821.292 3316.13 822.994 3318.06 824.263L3325.45 828.552C3327.51 829.568 3329.78 830.097 3332.08 830.097C3334.38 830.097 3336.65 829.568 3338.71 828.552L3342.37 826.407V563.946Z" fill="black"/>
<path d="M3683.39 362.73V621.934C3683.26 624.085 3682.66 626.181 3681.63 628.075C3680.6 629.969 3679.17 631.614 3677.43 632.896H3677.04L3338.71 828.551C3338.06 829.002 3337.3 829.281 3336.51 829.365C3335.72 829.448 3334.92 829.332 3334.18 829.027C3333.48 828.558 3332.92 827.9 3332.57 827.128C3332.21 826.355 3332.09 825.5 3332.2 824.658V565.613C3332.13 564.686 3332.28 563.756 3332.66 562.905C3333.03 562.054 3333.61 561.308 3334.34 560.734C3335.07 560.16 3335.93 559.776 3336.85 559.615C3337.76 559.455 3338.7 559.523 3339.59 559.814L3481.78 593.575L3500.37 598.023C3502.57 598.428 3504.84 598.228 3506.94 597.444C3509.04 596.661 3510.88 595.324 3512.28 593.575L3533.81 563.548L3679.02 361.379C3681.41 357.884 3683.39 358.52 3683.39 362.73Z" fill="#90CAF9"/>
<path d="M3676.8 633.374H3677.19C3678.79 632.24 3680.11 630.777 3681.09 629.084C3682.32 627.095 3683.03 624.827 3683.15 622.491L3533.49 563.945L3633.66 658.555L3676.8 633.374Z" fill="#90CAF9"/>
<path opacity="0.2" d="M3676.8 633.374H3677.19C3678.79 632.24 3680.11 630.777 3681.09 629.084C3682.32 627.095 3683.03 624.827 3683.15 622.491L3533.49 563.945L3633.66 658.555L3676.8 633.374Z" fill="black"/>
<path d="M3332.12 824.657C3332.01 825.498 3332.13 826.354 3332.49 827.126C3332.84 827.899 3333.4 828.557 3334.1 829.026C3334.84 829.331 3335.64 829.447 3336.43 829.363C3337.22 829.28 3337.98 829 3338.63 828.549L3455.01 761.345L3481.62 593.494L3332.04 820.367L3332.12 824.657Z" fill="#90CAF9"/>
<path opacity="0.2" d="M3332.12 824.657C3332.01 825.498 3332.13 826.354 3332.49 827.126C3332.84 827.899 3333.4 828.557 3334.1 829.026C3334.84 829.331 3335.64 829.447 3336.43 829.363C3337.22 829.28 3337.98 829 3338.63 828.549L3455.01 761.345L3481.62 593.494L3332.04 820.367L3332.12 824.657Z" fill="black"/>
<path d="M3681.33 628.608C3680.35 630.301 3679.02 631.764 3677.43 632.897L3338.71 828.552C3338.06 829.002 3337.3 829.282 3336.51 829.365C3335.72 829.449 3334.92 829.333 3334.18 829.028L3496.08 570.618C3499.33 565.459 3504.32 561.636 3510.15 559.843C3515.98 558.05 3522.26 558.407 3527.85 560.847L3681.33 628.608Z" fill="#90CAF9"/>
<path opacity="0.3" d="M3334.82 559.338L3488.93 627.257C3494.5 629.79 3500.8 630.204 3506.65 628.419C3512.5 626.635 3517.5 622.775 3520.7 617.566L3681.64 359.076L3334.82 559.338Z" fill="black"/>
<path d="M3334.82 559.338L3489.72 617.248C3495.08 619.239 3500.96 619.349 3506.38 617.559C3511.81 615.769 3516.47 612.185 3519.59 607.398L3681.64 359.076L3334.82 559.338Z" fill="#90CAF9"/>
<path d="M3810.33 168.426L3774.9 147.375C3762.67 140.464 3745.83 141.497 3727.24 152.221C3689.83 173.828 3659.48 226.415 3659.48 269.709C3659.48 291.236 3667.03 306.409 3679.26 313.558L3712.54 332.623L3718.5 322.614C3725.36 320.968 3731.92 318.29 3737.96 314.67C3775.46 292.984 3805.8 240.396 3805.8 197.182C3805.79 191.344 3805.07 185.529 3803.66 179.865L3810.33 168.426Z" fill="#F28F8F"/>
<path d="M3760.92 171.921C3723.51 193.528 3693.16 246.115 3693.16 289.329C3693.16 332.543 3723.51 350.178 3760.92 328.492C3798.34 306.805 3828.76 254.297 3828.76 211.083C3828.76 167.869 3798.73 150.314 3760.92 171.921Z" fill="#FFA8A7"/>
<path d="M3736.69 252.074C3736.25 251.423 3736.08 250.625 3736.22 249.849C3736.37 248.862 3736.72 247.916 3737.25 247.069L3756.95 215.294L3758.78 212.593C3759.42 211.629 3760.26 210.816 3761.24 210.21L3772.36 203.696C3772.63 203.518 3772.95 203.424 3773.27 203.424C3773.6 203.424 3773.92 203.518 3774.19 203.696C3774.44 203.941 3774.64 204.24 3774.76 204.569C3774.88 204.899 3774.93 205.252 3774.9 205.603V285.04C3774.88 285.984 3774.64 286.91 3774.19 287.741C3773.77 288.558 3773.14 289.245 3772.36 289.727L3760.37 296.717C3760.12 296.911 3759.81 297.015 3759.49 297.015C3759.18 297.015 3758.87 296.911 3758.62 296.717C3758.37 296.472 3758.17 296.174 3758.05 295.844C3757.92 295.515 3757.87 295.162 3757.9 294.811V241.111L3746.94 258.508C3746.54 259.26 3745.9 259.85 3745.11 260.176C3744.88 260.363 3744.58 260.465 3744.28 260.465C3743.98 260.465 3743.68 260.363 3743.45 260.176L3736.69 252.074Z" fill="white"/>
<path d="M3896.92 2243.25C3877.62 2220.85 3862.05 2189.07 3855.14 2182.48C3835.04 2163.34 3814.62 1892.22 3814.62 1892.22C3861.57 1890.63 3886.75 1908.1 3894.85 1944.17C3902.96 1980.23 3935.13 2154.68 3935.13 2154.68" fill="#FFA8A7"/>
<path d="M3610.86 2263.43C3587.51 2310.62 3529.84 2452.65 3506.96 2550.91C3485.51 2642.9 3477.17 2706.61 3506.96 2728.85C3536.75 2751.1 3621.99 2737.59 3676 2622.65C3692.92 2586.66 3756.55 2475.61 3756.55 2475.61C3756.55 2475.61 3803.58 2458.69 3820.1 2445.98C3820.1 2445.98 3977.07 2450.5 4053.33 2434.94C4129.59 2419.37 4210.7 2326.11 4179.48 2316.97C4123.32 2300.45 4013.85 2288.45 3887.15 2280.27L3610.86 2263.43Z" fill="#37474F"/>
<path d="M3978.18 2415.23C3943.87 2423.18 3893.03 2412.53 3864.27 2404.19C3866.03 2394.09 3865.71 2383.74 3863.32 2373.77C3861.72 2387.21 3857.4 2400.19 3850.61 2411.9C3845.92 2414.6 3841.87 2416.82 3839.01 2418.25C3819.94 2428.02 3767.52 2454.79 3757.82 2446.37C3743.18 2427.48 3722.38 2414.3 3699.04 2409.12C3715.48 2420.16 3763.07 2454.24 3746.15 2493.8L3756.55 2475.61C3756.55 2475.61 3803.58 2458.69 3820.1 2445.98C3820.1 2445.98 3907.48 2448.52 3984.06 2443.28L4074.46 2380.68C4074.46 2380.68 4030.85 2378.14 3978.18 2415.23Z" fill="#263238"/>
<path d="M3890.25 2525.1C3873.8 2539.95 3848.7 2551.87 3831.07 2548.21C3813.43 2544.56 3788.17 2542.81 3778.32 2578C3767.12 2617.72 3730.66 2642.27 3710.64 2664.19C3690.62 2686.12 3696.9 2719 3707.38 2741.72C3725.02 2780.01 3750.75 2756.89 3765.05 2732.59C3779.35 2708.28 3821.29 2663.71 3841.55 2645.21C3864 2622.89 3887.89 2602.06 3913.04 2582.85L3890.25 2525.1Z" fill="#FFA8A7"/>
<path d="M4126.65 2314.03C4224.92 2304.02 4226.9 2364 4201.64 2404.59C4174.39 2448.28 4070.41 2502.22 4019.49 2528.11C3968.57 2554.01 3897.48 2594.68 3897.48 2594.68C3882.28 2578.46 3872.72 2557.76 3870.23 2535.66C3925.83 2496.58 3980.57 2396.17 4073.91 2380.68L4126.65 2314.03Z" fill="#37474F"/>
<path d="M3837.58 2548.85C3835.39 2548.8 3833.22 2548.59 3831.07 2548.21C3813.43 2544.48 3788.17 2542.81 3778.32 2578C3767.12 2617.72 3730.66 2642.27 3710.64 2664.19C3690.62 2686.12 3696.9 2719 3707.38 2741.72C3725.02 2780.01 3750.75 2756.89 3765.05 2732.59C3772.85 2720.38 3781.59 2708.8 3791.19 2697.95C3786.77 2703.21 3780.52 2706.59 3773.7 2707.4C3766.88 2708.21 3760.01 2706.39 3754.49 2702.32C3747.26 2696.05 3752.58 2673.96 3766.01 2659.11C3779.43 2644.25 3828.29 2547.66 3837.58 2548.85Z" fill="#263238"/>
<path d="M3849.81 2537.25C3867.77 2532.72 3894.14 2526.29 3905.02 2511.99C3915.9 2497.69 3938.46 2483.79 3969.05 2504.04C4003.68 2526.84 4047.06 2521.44 4076.61 2524.7C4106.16 2527.96 4122.92 2557.11 4129.91 2581.1C4141.75 2621.61 4107.75 2607.79 4081.05 2598.81C4054.36 2589.84 3992.32 2581.42 3966.03 2584.91C3939.74 2588.41 3873.8 2605.09 3873.8 2605.09L3849.81 2537.25Z" fill="#FFA8A7"/>
<path d="M4068.35 2594.92C4073.03 2596.11 4077.4 2597.3 4081.06 2598.57C4107.75 2607.55 4141.75 2621.37 4129.91 2580.86C4122.92 2557.03 4106.08 2527.8 4076.61 2524.46C4047.14 2521.12 4003.68 2526.6 3969.05 2503.81C3938.46 2483.79 3915.9 2497.61 3905.02 2511.75C3903.74 2513.35 3902.34 2514.83 3900.81 2516.2C3900.81 2516.2 3936 2527.08 3974.77 2538.28C4013.53 2549.48 4079.15 2568.87 4081.61 2578.87C4083.44 2586.34 4084.71 2595.4 4068.35 2594.92Z" fill="#263238"/>
<path d="M3490.83 2702.48C3496.55 2737.43 3535.72 2754.27 3619.68 2737.43C3703.65 2720.59 3884.53 2605.8 3884.53 2605.8C3884.53 2605.8 3895.65 2546.62 3849.73 2533.68C3849.73 2533.68 3807.95 2541.62 3739.79 2556.08C3709.02 2562.86 3678.64 2571.26 3648.76 2581.26C3602.68 2643.06 3554.7 2618.12 3537.54 2639.88C3508.71 2676.35 3490.83 2702.48 3490.83 2702.48Z" fill="#37474F"/>
<path d="M3706.83 2564.1C3672.06 2571.45 3638.82 2584.72 3608.56 2603.34C3608.56 2603.34 3651.54 2552.98 3717.95 2543.92L3706.83 2564.1Z" fill="#263238"/>
<path d="M3874.28 2112.74C3878.09 2148.48 3886.91 2280.27 3886.91 2280.27C3859.19 2373.77 3643.91 2354.94 3602.29 2281.62C3615.59 2251.17 3626.4 2219.69 3634.62 2187.49L3611.74 2087.48C3611.74 2087.48 3666.47 2037.59 3611.74 1935.75L3684.11 1914.06L3814.62 1892.22C3836.63 1893.41 3873.96 1943.85 3888.34 1980.71C3897.47 2004.31 3904.86 2052.21 3874.28 2112.74Z" fill="#90CAF9"/>
<path opacity="0.15" d="M3761.4 2343.66C3671.08 2339.85 3629.45 2284.32 3630.41 2269.71C3633.68 2248.29 3638.14 2227.08 3643.75 2206.16L3677.59 2219.42L3649.71 2178.75L3630.41 2092.08C3650.82 2062.14 3640.73 2007.96 3640.73 2007.96L3635.09 2004.62C3641.69 2060.23 3611.74 2087.48 3611.74 2087.48L3634.62 2187.49C3626.39 2219.63 3615.58 2251.06 3602.29 2281.46C3624.37 2320.55 3695.47 2344.14 3761.4 2343.66Z" fill="black"/>
<path d="M3760.37 1857.5L3712.7 1858.77C3696.98 1859.21 3681.33 1856.54 3666.64 1850.92C3651.95 1845.3 3638.51 1836.84 3627.09 1826.03C3615.67 1815.21 3606.49 1802.25 3600.08 1787.89C3593.67 1773.53 3590.16 1758.04 3589.73 1742.32C3589.22 1723.48 3592.41 1704.73 3599.14 1687.13C3605.87 1669.53 3616 1653.43 3628.96 1639.75C3641.91 1626.06 3657.43 1615.07 3674.64 1607.38C3691.84 1599.7 3710.39 1595.48 3729.23 1594.96C3748.06 1594.44 3766.82 1597.64 3784.41 1604.37C3802.01 1611.1 3818.12 1621.23 3831.8 1634.19C3845.48 1647.14 3856.48 1662.66 3864.16 1679.87C3871.85 1697.07 3876.07 1715.62 3876.58 1734.45C3877.46 1766.18 3865.71 1796.95 3843.93 1820.02C3822.14 1843.09 3792.09 1856.57 3760.37 1857.5Z" fill="#263238"/>
<path d="M3613.33 1672.57L3577.66 1660.1C3578.35 1657.69 3579.53 1655.44 3581.12 1653.5C3582.72 1651.57 3584.69 1649.98 3586.93 1648.84C3589.17 1647.7 3591.61 1647.03 3594.12 1646.88C3596.62 1646.72 3599.13 1647.09 3601.49 1647.95C3606.24 1649.76 3610.12 1653.32 3612.32 1657.9C3614.52 1662.48 3614.88 1667.73 3613.33 1672.57Z" fill="#263238"/>
<path d="M3612.93 1663.36L3601.97 1627.29C3604.3 1626.42 3606.8 1626.03 3609.29 1626.16C3611.78 1626.28 3614.22 1626.92 3616.46 1628.03C3618.69 1629.14 3620.67 1630.7 3622.28 1632.61C3623.89 1634.52 3625.09 1636.74 3625.8 1639.13C3627.22 1644.05 3626.68 1649.33 3624.27 1653.85C3621.87 1658.38 3617.8 1661.79 3612.93 1663.36Z" fill="#263238"/>
<path d="M3819.63 1656.77C3835.04 1665.34 3854.82 1702.92 3855.13 1782.91C3855.13 1850.67 3833.92 1867.99 3823.36 1873.07C3812.79 1878.16 3791.11 1875.85 3770.37 1873.07L3770.77 1901.12C3770.77 1901.12 3808.03 1941.87 3806.68 1960.53C3805.33 1979.2 3759.02 1988.89 3731.85 1971.42C3712.15 1957.08 3694.99 1939.55 3681.09 1919.54L3679.02 1825.65C3679.02 1825.65 3667.19 1837.8 3646.06 1820.33C3628.66 1805.87 3622.22 1780.61 3635.17 1767.1C3638.51 1763.75 3642.6 1761.24 3647.1 1759.79C3651.6 1758.34 3656.39 1757.99 3661.05 1758.77C3665.72 1759.55 3670.13 1761.43 3673.92 1764.26C3677.71 1767.09 3680.77 1770.79 3682.83 1775.05C3682.83 1775.05 3715.8 1775.05 3759.02 1750.03C3775.72 1740.32 3789.91 1726.82 3800.44 1710.62C3810.96 1694.42 3817.54 1675.97 3819.63 1656.77Z" fill="#FFA8A7"/>
<path d="M3779.03 1767.9C3779.19 1769.05 3779.11 1770.22 3778.8 1771.33C3778.49 1772.45 3777.95 1773.49 3777.22 1774.39C3776.49 1775.3 3775.59 1776.04 3774.56 1776.58C3773.53 1777.12 3772.41 1777.44 3771.25 1777.53C3770.09 1777.61 3768.93 1777.46 3767.83 1777.08C3766.74 1776.71 3765.73 1776.11 3764.88 1775.32C3764.02 1774.54 3763.33 1773.59 3762.86 1772.53C3762.38 1771.47 3762.13 1770.33 3762.11 1769.17C3761.96 1768.02 3762.04 1766.85 3762.35 1765.73C3762.66 1764.62 3763.2 1763.57 3763.93 1762.67C3764.65 1761.77 3765.56 1761.03 3766.59 1760.49C3767.62 1759.95 3768.74 1759.63 3769.9 1759.54C3771.06 1759.45 3772.22 1759.6 3773.31 1759.98C3774.41 1760.36 3775.42 1760.96 3776.27 1761.74C3777.13 1762.53 3777.82 1763.48 3778.29 1764.54C3778.76 1765.59 3779.02 1766.74 3779.03 1767.9Z" fill="#263238"/>
<path d="M3782.85 1825.25L3802.79 1831.05C3802.46 1832.39 3801.87 1833.64 3801.05 1834.75C3800.23 1835.85 3799.2 1836.77 3798.01 1837.46C3796.82 1838.15 3795.51 1838.59 3794.14 1838.76C3792.78 1838.93 3791.4 1838.82 3790.08 1838.44C3787.39 1837.61 3785.14 1835.77 3783.79 1833.31C3782.44 1830.85 3782.1 1827.96 3782.85 1825.25Z" fill="#F28F8F"/>
<path d="M3848.14 1739.86L3830.51 1728.42C3831.21 1727.24 3832.14 1726.21 3833.25 1725.4C3834.35 1724.59 3835.61 1724.01 3836.95 1723.7C3838.28 1723.39 3839.67 1723.35 3841.02 1723.59C3842.37 1723.82 3843.66 1724.33 3844.81 1725.08C3847.16 1726.64 3848.82 1729.05 3849.44 1731.8C3850.06 1734.55 3849.6 1737.44 3848.14 1739.86Z" fill="#263238"/>
<path d="M3844.73 1759.95C3844.85 1761.1 3844.74 1762.26 3844.4 1763.36C3844.06 1764.46 3843.51 1765.49 3842.76 1766.37C3842.02 1767.25 3841.11 1767.97 3840.08 1768.5C3839.06 1769.02 3837.93 1769.33 3836.78 1769.41C3834.51 1769.56 3832.27 1768.81 3830.55 1767.33C3828.82 1765.84 3827.75 1763.73 3827.57 1761.46C3827.49 1760.35 3827.62 1759.23 3827.97 1758.16C3828.32 1757.1 3828.88 1756.12 3829.61 1755.27C3830.34 1754.42 3831.23 1753.72 3832.23 1753.22C3833.23 1752.71 3834.32 1752.41 3835.43 1752.33C3836.55 1752.24 3837.67 1752.38 3838.74 1752.73C3839.8 1753.08 3840.78 1753.64 3841.63 1754.37C3842.48 1755.1 3843.18 1755.99 3843.68 1756.99C3844.18 1757.99 3844.49 1759.08 3844.57 1760.19L3844.73 1759.95Z" fill="#263238"/>
<path d="M3806.2 1751.93L3807.15 1807.38L3833.92 1798.32L3806.2 1751.93Z" fill="#F28F8F"/>
<path d="M3770.06 1872.99C3748.21 1870.69 3703.01 1859.01 3695.54 1841.22C3698.63 1850.09 3704.34 1857.82 3711.91 1863.38C3725.57 1874.5 3770.45 1886.18 3770.45 1886.18L3770.06 1872.99Z" fill="#F28F8F"/>
<path d="M3626.51 2507.22V2513.66C3626.47 2516.86 3627.28 2520.02 3628.86 2522.81C3630.43 2525.6 3632.72 2527.93 3635.49 2529.54L3807.71 2628.6C3810.46 2630.21 3813.58 2631.07 3816.77 2631.07C3819.95 2631.07 3823.08 2630.21 3825.82 2628.6L4141.75 2445.9C4144.54 2444.3 4146.85 2441.99 4148.45 2439.19C4150.04 2436.4 4150.85 2433.22 4150.8 2430.01V2425.64L3816.77 2618.43L3626.51 2507.22Z" fill="#EBEBEB"/>
<path d="M4150.8 2425.96L3963.49 2317.76C3961.84 2316.82 3959.98 2316.33 3958.09 2316.33C3956.19 2316.33 3954.33 2316.82 3952.68 2317.76L3627.71 2505.47C3627.34 2505.68 3627.04 2505.98 3626.83 2506.35C3626.62 2506.71 3626.51 2507.12 3626.51 2507.54C3626.51 2507.96 3626.62 2508.37 3626.83 2508.73C3627.04 2509.09 3627.34 2509.4 3627.71 2509.6L3816.77 2618.83L4150.8 2425.96Z" fill="#FAFAFA"/>
<path d="M3934.97 2154.36C3960.15 2190.98 4017.27 2270.58 4042.92 2316.18C4057.7 2342.47 4039.11 2367.97 3998.76 2357.17C3972.15 2350.1 3933.94 2286.31 3896.92 2243.09" fill="#FFA8A7"/>
<path d="M3815.1 2602.87L3714.05 2544.64L4009.48 2374.01L4111.08 2432L3815.1 2602.87Z" fill="#E0E0E0"/>
<path d="M3765.37 2440.73L3767.28 2441.85L3816.77 2470.44L3904.86 2419.6L3906.69 2418.57L3855.29 2388.86L3765.37 2440.73Z" fill="#E0E0E0"/>
<path d="M3767.28 2441.85L3816.77 2470.44L3904.86 2419.6L3855.29 2391.01L3767.28 2441.85Z" fill="#E6E6E6"/>
<path d="M3816.77 2618.75V2630.99C3819.95 2631 3823.08 2630.15 3825.82 2628.52L4141.75 2445.82C4144.54 2444.22 4146.85 2441.91 4148.45 2439.11C4150.04 2436.32 4150.85 2433.15 4150.8 2429.93V2425.56L3816.77 2618.75Z" fill="#EBEBEB"/>
<g opacity="0.5">
<path d="M3816.77 2618.75V2630.99C3819.95 2631 3823.08 2630.15 3825.82 2628.52L4141.75 2445.82C4144.54 2444.22 4146.86 2441.91 4148.45 2439.11C4150.04 2436.32 4150.85 2433.15 4150.8 2429.93V2425.56L3816.77 2618.75Z" fill="#E0E0E0"/>
</g>
<path d="M3821.85 2621.45C3824.83 2622.6 3828.04 2623.07 3831.23 2622.83C3834.42 2622.58 3837.51 2621.62 3840.28 2620.02L4154.85 2438.43C4157.6 2436.86 4159.96 2434.7 4161.76 2432.11C4163.56 2429.51 4164.76 2426.54 4165.26 2423.42L4199.73 2217.91C4199.81 2216.75 4199.81 2215.58 4199.73 2214.42C4199.74 2211.59 4199.19 2208.78 4198.12 2206.17C4197.04 2203.55 4195.46 2201.17 4193.46 2199.16L3866.57 2387.99C3864.51 2389.12 3862.73 2390.7 3861.36 2392.61C3859.99 2394.52 3859.05 2396.71 3858.63 2399.03L3821.85 2621.45Z" fill="#90CAF9"/>
<g opacity="0.7">
<path d="M3821.85 2621.46C3824.83 2622.61 3828.04 2623.08 3831.23 2622.83C3834.42 2622.58 3837.51 2621.62 3840.28 2620.03L4154.85 2438.43C4157.6 2436.87 4159.96 2434.71 4161.76 2432.11C4163.56 2429.51 4164.76 2426.54 4165.26 2423.42L4199.73 2217.92C4199.81 2216.75 4199.81 2215.58 4199.73 2214.42C4199.74 2211.59 4199.19 2208.79 4198.11 2206.17C4197.04 2203.55 4195.46 2201.17 4193.46 2199.17L3866.57 2387.99C3864.51 2389.13 3862.73 2390.71 3861.36 2392.62C3859.99 2394.53 3859.05 2396.72 3858.63 2399.03L3821.85 2621.46Z" fill="white"/>
</g>
<path d="M3816.77 2618.83L3818.91 2620.02C3819.86 2620.56 3820.84 2621.04 3821.85 2621.45L3859.11 2399.03C3859.53 2396.72 3860.46 2394.52 3861.84 2392.62C3863.21 2390.71 3864.99 2389.13 3867.05 2387.99L4193.94 2199.17C4192.6 2197.93 4191.13 2196.84 4189.57 2195.91L3861.97 2384.97C3859.9 2386.11 3858.11 2387.71 3856.74 2389.63C3855.36 2391.56 3854.44 2393.76 3854.02 2396.09L3816.77 2618.83Z" fill="#FAFAFA"/>
<path d="M3999.08 2431.84C4004 2414.65 4015.39 2400.05 4030.85 2391.08C4046.02 2382.27 4056.51 2386.32 4054.21 2400.06C4049.23 2417.24 4037.86 2431.85 4022.43 2440.89C4007.18 2449.63 3996.77 2445.58 3999.08 2431.84Z" fill="#90CAF9"/>
<path d="M3653.36 2470.05C3636.05 2458.13 3525.71 2377.82 3481.62 2343.66C3435.71 2308.07 3438.49 2296.63 3444.05 2270.98C3455.01 2220.29 3524.6 2060.7 3543.74 2013.36C3565.19 1960.53 3570.11 1953.86 3611.74 1935.75C3640.49 1958.47 3656.54 2014.15 3617.86 2090.89L3539.05 2276.3C3539.05 2276.3 3591.56 2331.9 3622.62 2361.3C3653.68 2390.69 3681.09 2423.65 3704.28 2426.2C3722.71 2428.18 3755.36 2429.45 3762.35 2435.89C3779.45 2453.13 3795.37 2471.49 3810.01 2490.86C3816.61 2501.66 3832.26 2523.67 3810.01 2530.58C3789.76 2536.93 3773.23 2528.27 3756.71 2516.99C3748.99 2511.41 3741.64 2505.34 3734.71 2498.8C3718.23 2500.64 3701.58 2497.34 3687.05 2489.35C3674.34 2482.36 3653.36 2470.05 3653.36 2470.05Z" fill="#FFA8A7"/>
<path d="M3594.9 2007.96H3597.2C3608.39 2007.95 3619.46 2005.71 3629.76 2001.36C3640.07 1997.01 3649.4 1990.64 3657.21 1982.64C3665.02 1974.63 3671.15 1965.14 3675.23 1954.73C3679.32 1944.31 3681.28 1933.19 3681.01 1922.01L3678.86 1832.64C3667.84 1832.63 3656.92 1834.79 3646.74 1839C3636.55 1843.21 3627.29 1849.39 3619.5 1857.18C3611.7 1864.97 3605.51 1874.22 3601.29 1884.41C3597.07 1894.59 3594.9 1905.5 3594.9 1916.53V2007.96Z" fill="#263238"/>
<path d="M1365.01 1711.18C1357.07 1728.26 1331.49 1753.04 1301.86 1721.11C1258.56 1674.32 1187.23 1508.22 1187.23 1508.22L1234.1 1486.53L1329.42 1616.97L1380.34 1673.53" fill="#FFA8A7"/>
<path d="M1377.64 1392.24C1355.16 1467.62 1309.96 1635.55 1309.96 1635.55L1365.01 1711.18C1374.84 1691.81 1383.23 1671.73 1390.11 1651.12C1399.72 1624.91 1431.5 1520.29 1431.5 1520.29C1431.5 1520.29 1424.75 1369.36 1448.34 1349.18C1461.07 1337.92 1475.77 1329.11 1491.71 1323.21C1454.14 1326.23 1398.14 1323.21 1377.64 1392.24Z" fill="#FFA8A7"/>
<path d="M1271.99 1403.12C1259.52 1379.93 1256.1 1378.89 1249.03 1373.81C1241.96 1368.73 1196.21 1361.97 1177.54 1360.38C1155.3 1358.48 1147.43 1362.61 1153.71 1381.67C1166.89 1422.5 1206.93 1509.17 1215.91 1521.17C1221.78 1529.11 1222.98 1536.26 1247.68 1538.72C1270.96 1540.95 1300.19 1542.22 1308.77 1542.77C1317.35 1543.33 1329.26 1545.39 1321.56 1520.13C1311.73 1491.51 1300.38 1463.42 1287.56 1436.01C1277.95 1415.59 1271.99 1403.12 1271.99 1403.12Z" fill="#263238"/>
<path d="M1187.23 1508.22C1177.94 1467.23 1150.69 1429.42 1166.1 1415.59L1174.04 1433.71C1174.04 1433.71 1225.04 1445.94 1249.67 1444.03C1274.29 1442.13 1294.39 1436.09 1301.14 1441.01C1315.44 1451.1 1319.57 1494 1278.58 1509.65C1244.11 1522.83 1187.23 1508.22 1187.23 1508.22Z" fill="#FFA8A7"/>
<path d="M1495.05 1309.78C1449.93 1310.26 1400.28 1326.7 1383.2 1362.05C1366.12 1397.4 1334.51 1526.81 1334.51 1526.81C1347.6 1538.78 1363.07 1547.88 1379.89 1553.52C1396.72 1559.15 1414.55 1561.2 1432.21 1559.53L1495.05 1309.78Z" fill="#90CAF9"/>
<path opacity="0.1" d="M1495.05 1309.78C1449.93 1310.26 1400.28 1326.7 1383.2 1362.05C1366.12 1397.4 1334.51 1526.81 1334.51 1526.81C1347.6 1538.78 1363.07 1547.88 1379.89 1553.52C1396.72 1559.15 1414.55 1561.2 1432.21 1559.53L1495.05 1309.78Z" fill="black"/>
<path d="M1691.1 2612.56H1628.66V2703.43H1691.1V2612.56Z" fill="#FFA8A7"/>
<path d="M1471.62 2500.07L1409.22 2502.22L1412.35 2593.04L1474.75 2590.9L1471.62 2500.07Z" fill="#FFA8A7"/>
<path d="M1686.97 1725.4C1686.97 1785.06 1694.91 2170.25 1694.91 2170.25C1696.34 2187.33 1712.39 2218.94 1708.97 2284.8C1704.21 2374.32 1696.5 2622.8 1696.5 2622.8C1696.5 2622.8 1667.19 2651.88 1625.88 2622.8C1625.88 2622.8 1569.4 2285.11 1558.2 2196.46C1548.43 2119.09 1531.91 1908.9 1531.91 1908.9L1500.13 2161.19C1500.13 2161.19 1510.3 2219.42 1512.53 2260.41C1514.75 2301.4 1475.9 2533.75 1475.9 2533.75C1465.8 2540.09 1454.21 2543.66 1442.29 2544.11C1430.37 2544.55 1418.54 2541.86 1407.99 2536.3C1407.99 2536.3 1384.15 2194.71 1377.48 2157.7C1370.81 2120.68 1395.04 1725.4 1395.04 1725.4H1686.97Z" fill="#37474F"/>
<path d="M1593 1312.32C1600.3 1314.07 1660.44 1328.21 1686.97 1337.19V1725.4C1643.2 1773.06 1490.6 1795.22 1395.04 1725.4V1421.15C1395.04 1372.54 1422.05 1314.15 1496.64 1309.94L1593 1312.32Z" fill="#EBEBEB"/>
<path d="M1614.2 1063.85C1619.22 1063.27 1624.3 1063.84 1629.06 1065.52C1633.83 1067.2 1638.14 1069.94 1641.69 1073.54C1653.53 1085.61 1651.06 1108.01 1641.69 1159.41L1605.15 1163.62L1614.2 1063.85Z" fill="#263238"/>
<path d="M1401.07 1048.99C1393.22 1049.02 1385.43 1047.46 1378.2 1044.38C1367 1037.95 1364.06 1050.66 1370.25 1061.7C1374.31 1069.63 1380.33 1076.39 1387.74 1081.33C1395.16 1086.26 1403.71 1089.22 1412.59 1089.9C1412.59 1088.31 1423.08 1061.3 1423.08 1061.3L1401.07 1048.99Z" fill="#263238"/>
<path d="M1596.89 1163.62C1602.29 1166.87 1610.07 1156.47 1616.75 1149.48C1623.42 1142.49 1645.27 1132.88 1656.47 1155.83C1667.67 1178.79 1646.85 1210.09 1629.62 1215.49C1600.07 1224.78 1595.62 1205.8 1595.62 1205.8L1593 1312.32C1586.49 1326.6 1576.56 1339.05 1564.09 1348.57C1551.62 1358.09 1536.99 1364.39 1521.5 1366.9C1468.99 1374.05 1479.8 1330.67 1497.04 1309.47V1276.98C1483.91 1279.06 1470.59 1279.75 1457.32 1279.04C1435.47 1275.7 1421.81 1258.47 1415.21 1234.87C1404.57 1197.06 1400.52 1166.48 1409.57 1091.89C1419.42 1010.22 1514.35 1009.43 1565.67 1041.68C1616.99 1073.93 1596.89 1163.62 1596.89 1163.62Z" fill="#FFA8A7"/>
<path d="M1596.89 1172.75C1599.59 1172.75 1609.99 1155.59 1616.75 1149.48C1626.12 1140.9 1614.05 1063.84 1614.05 1063.84C1614.05 1063.84 1623.5 1034.61 1604.99 1015.23C1586.48 995.846 1550.66 999.341 1524.52 998.229C1492.35 998.375 1460.48 991.969 1430.86 979.402C1393.69 963.515 1391.14 961.37 1386.3 977.655C1381.45 993.939 1379.94 1031.43 1402.19 1056.46L1420.7 1063.29C1420.7 1063.29 1430.63 1072.11 1465.34 1076.32C1497.36 1078.74 1529.54 1078.15 1561.46 1074.57C1571.55 1073.14 1573.69 1082.91 1579.09 1109.52C1583.78 1132.95 1587.75 1172.59 1596.89 1172.75Z" fill="#263238"/>
<path d="M1614.2 1069.88L1647.01 1052.25C1645.94 1050.06 1644.43 1048.11 1642.59 1046.52C1640.74 1044.93 1638.59 1043.73 1636.27 1042.98C1633.95 1042.24 1631.5 1041.98 1629.08 1042.2C1626.65 1042.43 1624.29 1043.14 1622.15 1044.3C1617.8 1046.74 1614.55 1050.75 1613.08 1055.51C1611.6 1060.27 1612 1065.41 1614.2 1069.88Z" fill="#263238"/>
<path d="M1496.72 1277.29C1496.72 1277.29 1545.33 1267.52 1562.33 1258.46C1572.45 1253.29 1580.76 1245.18 1586.16 1235.19C1583.6 1245.15 1579.06 1254.5 1572.82 1262.67C1560.43 1278.56 1497.04 1290.24 1497.04 1290.24L1496.72 1277.29Z" fill="#F28F8F"/>
<path d="M1508.39 1151.46C1508.47 1153.38 1509.11 1155.23 1510.23 1156.78C1511.35 1158.33 1512.9 1159.52 1514.69 1160.2C1516.48 1160.88 1518.43 1161.02 1520.3 1160.6C1522.17 1160.18 1523.88 1159.22 1525.2 1157.84C1526.53 1156.45 1527.42 1154.71 1527.77 1152.83C1528.11 1150.95 1527.9 1149 1527.15 1147.24C1526.4 1145.48 1525.15 1143.98 1523.55 1142.92C1521.95 1141.86 1520.08 1141.3 1518.17 1141.29C1516.85 1141.32 1515.56 1141.6 1514.36 1142.12C1513.16 1142.64 1512.07 1143.4 1511.16 1144.34C1510.25 1145.29 1509.54 1146.4 1509.07 1147.63C1508.59 1148.85 1508.36 1150.15 1508.39 1151.46Z" fill="#263238"/>
<path d="M1518.88 1114.68L1539.77 1126.2C1541.25 1123.34 1541.57 1120.02 1540.67 1116.93C1539.76 1113.84 1537.71 1111.22 1534.93 1109.6C1533.55 1108.84 1532.03 1108.36 1530.46 1108.21C1528.9 1108.05 1527.31 1108.22 1525.81 1108.69C1524.31 1109.17 1522.92 1109.94 1521.73 1110.97C1520.54 1112 1519.57 1113.27 1518.88 1114.68Z" fill="#263238"/>
<path d="M1501.17 1218.75L1479.16 1227.09C1479.63 1228.59 1480.41 1229.98 1481.43 1231.17C1482.46 1232.36 1483.71 1233.33 1485.12 1234.02C1486.54 1234.71 1488.07 1235.11 1489.64 1235.19C1491.21 1235.26 1492.78 1235.02 1494.26 1234.48C1497.2 1233.24 1499.56 1230.92 1500.85 1227.99C1502.14 1225.07 1502.25 1221.76 1501.17 1218.75Z" fill="#F28F8F"/>
<path d="M1421.49 1122.79L1440.55 1108.17C1439.66 1106.88 1438.52 1105.79 1437.19 1104.96C1435.87 1104.14 1434.39 1103.58 1432.84 1103.35C1431.29 1103.11 1429.72 1103.19 1428.2 1103.58C1426.69 1103.97 1425.27 1104.67 1424.03 1105.63C1421.5 1107.62 1419.82 1110.51 1419.35 1113.7C1418.88 1116.89 1419.64 1120.14 1421.49 1122.79Z" fill="#263238"/>
<path d="M1427.37 1148.68C1427.45 1150.6 1428.09 1152.45 1429.21 1154C1430.33 1155.55 1431.88 1156.74 1433.67 1157.42C1435.46 1158.1 1437.41 1158.24 1439.28 1157.82C1441.15 1157.4 1442.85 1156.44 1444.18 1155.06C1445.5 1153.68 1446.4 1151.93 1446.74 1150.05C1447.09 1148.17 1446.87 1146.22 1446.12 1144.46C1445.37 1142.7 1444.12 1141.2 1442.52 1140.14C1440.93 1139.08 1439.06 1138.52 1437.14 1138.52C1435.83 1138.54 1434.54 1138.82 1433.33 1139.34C1432.13 1139.86 1431.04 1140.62 1430.14 1141.56C1429.23 1142.51 1428.52 1143.63 1428.04 1144.85C1427.57 1146.07 1427.34 1147.37 1427.37 1148.68Z" fill="#263238"/>
<path d="M1477.02 1139.47L1473.84 1198.01L1443.26 1187.61L1477.02 1139.47Z" fill="#F28F8F"/>
<path d="M1628.66 2672.61V2663.71C1622.71 2666.26 1608.8 2719.32 1584.02 2741.8C1564.32 2759.75 1537.47 2780.49 1530.64 2800.5C1523.81 2820.52 1568.05 2832.84 1586.24 2829.58C1607.61 2825.77 1644.63 2810.75 1653.92 2796.77C1663.22 2782.79 1667.59 2762.3 1675.13 2752.05C1682.68 2741.8 1700.08 2730.44 1704.21 2718.6C1706.43 2712.09 1703.73 2697.87 1700.63 2685.8C1697.54 2673.72 1694.6 2662.68 1690.78 2663.71V2670.7C1681.92 2677.68 1670.93 2681.41 1659.64 2681.27C1650.75 2681.35 1628.58 2679.6 1628.66 2672.61Z" fill="#263238"/>
<path d="M1411.64 2573.79C1408.38 2573.79 1405.76 2578.48 1398.61 2586.18C1387.94 2596.99 1375.54 2605.93 1361.91 2612.64C1338.56 2624.31 1293.12 2642.35 1272.55 2651.56C1259.68 2657.36 1260.31 2672.85 1273.58 2681.67C1286.84 2690.49 1318.94 2696.92 1357.38 2688.26C1378.36 2683.57 1405.68 2664.43 1422.92 2665.3C1440.16 2666.18 1472.57 2666.1 1485.28 2657.36C1497.99 2648.62 1493.22 2629.79 1489.33 2613.67C1485.44 2596.03 1479.8 2569.1 1474 2570.3V2575.86C1466.53 2587.22 1428.32 2591.74 1411.8 2583.8L1411.64 2573.79Z" fill="#263238"/>
<path d="M1801.68 1681.71C1805.57 1662.96 1763.55 1476.84 1747.1 1417.98L1674.26 1502.97L1719.06 1686.63C1710.72 1738 1698.5 1788.67 1682.52 1838.2C1679.6 1845.89 1673.94 1852.22 1666.63 1855.99C1647.17 1866.4 1638.91 1877.84 1623.9 1891.58C1612.14 1902.31 1602.61 1904.53 1603.8 1908.34C1605.64 1912.51 1608.99 1915.83 1613.17 1917.64C1617.35 1919.45 1622.06 1919.62 1626.36 1918.11C1635.99 1915.06 1645.24 1910.9 1653.92 1905.72C1646.31 1922.12 1636.11 1937.19 1623.74 1950.37C1595.46 1980.55 1593 2000.17 1645.66 2004.15C1678.63 2006.69 1706.35 1988.26 1736.14 1916.76C1744.72 1896.35 1755.52 1866.56 1763.63 1839.63C1782.69 1776.16 1792.7 1725.4 1801.68 1681.71Z" fill="#FFA8A7"/>
<path d="M1649.48 1449.59C1629.62 1403.99 1639.55 1350.61 1661.55 1329.88C1717.16 1339.49 1731.69 1365.94 1747.1 1417.97C1770.94 1498.21 1782.77 1550.32 1782.77 1550.32C1768.79 1568.91 1713.11 1590.51 1686.97 1582.57L1649.48 1449.59Z" fill="#90CAF9"/>
<path opacity="0.1" d="M1649.48 1449.59C1629.62 1403.99 1639.55 1350.61 1661.55 1329.88C1717.16 1339.49 1731.69 1365.94 1747.1 1417.97C1770.94 1498.21 1782.77 1550.32 1782.77 1550.32C1768.79 1568.91 1713.11 1590.51 1686.97 1582.57L1649.48 1449.59Z" fill="black"/>
<path opacity="0.1" d="M1686.97 1582.57L1661.55 1492.41L1686.97 1662.01V1582.57Z" fill="black"/>
<path d="M1531.67 1909.14C1499.41 1899.08 1469.75 1882.08 1444.76 1859.33C1444.76 1859.33 1461.53 1890.71 1511.41 1919.94L1508.71 2091.53L1531.67 1909.14Z" fill="#263238"/>
<defs>
<filter id="filter0_f_2108_1256" x="1077.44" y="239.443" width="5261.11" height="4291.11" filterUnits="userSpaceOnUse" color-interpolation-filters="sRGB">
<feFlood flood-opacity="0" result="BackgroundImageFix"/>
<feBlend mode="normal" in="SourceGraphic" in2="BackgroundImageFix" result="shape"/>
<feGaussianBlur stdDeviation="284.278" result="effect1_foregroundBlur_2108_1256"/>
</filter>
<linearGradient id="paint0_linear_2108_1256" x1="3708" y1="808" x2="3708" y2="3962" gradientUnits="userSpaceOnUse">
<stop stop-color="#16B6F0" stop-opacity="0.36"/>
<stop offset="1" stop-color="#1653F0" stop-opacity="0.6"/>
</linearGradient>
<linearGradient id="paint1_linear_2108_1256" x1="1049.5" y1="3665.68" x2="1049.5" y2="6441.82" gradientUnits="userSpaceOnUse">
<stop stop-color="#EAF0FF" stop-opacity="0.05"/>
<stop offset="1" stop-color="#EAF0FF"/>
</linearGradient>
<clipPath id="clip0_2108_1256">
<rect width="5371" height="3529" fill="white"/>
</clipPath>
</defs>
</svg>
