<svg width="5371" height="3626" viewBox="0 0 5371 3626" fill="none" xmlns="http://www.w3.org/2000/svg">
<g clip-path="url(#clip0_2108_4393)">
<rect width="5371" height="3529" transform="translate(0 97)" fill="#EAF0FF"/>
<g filter="url(#filter0_f_2108_4393)">
<ellipse cx="3708" cy="2482" rx="2062" ry="1577" fill="url(#paint0_linear_2108_4393)" fill-opacity="0.5"/>
</g>
<rect y="686" width="2099" height="6141" fill="url(#paint1_linear_2108_4393)"/>
<path d="M4160.2 3133.92H3895.24V3135.92H4160.2V3133.92Z" fill="#EBEBEB"/>
<path d="M3210.76 3155.68H3141.24V3157.68H3210.76V3155.68Z" fill="#EBEBEB"/>
<path d="M3887.24 3059.68H3733.72V3061.68H3887.24V3059.68Z" fill="#EBEBEB"/>
<path d="M1326.2 3073.12H980.68V3075.12H1326.2V3073.12Z" fill="#EBEBEB"/>
<path d="M1448.12 3073.12H1397.48V3075.12H1448.12V3073.12Z" fill="#EBEBEB"/>
<path d="M2362.2 3106.88H1612.76V3108.88H2362.2V3106.88Z" fill="#EBEBEB"/>
<path d="M2468.2 2648.4H923.4C911.285 2648.4 899.666 2643.59 891.099 2635.02C882.532 2626.45 877.72 2614.84 877.72 2602.72V431.28C877.825 419.234 882.684 407.718 891.24 399.238C899.795 390.757 911.354 386 923.4 386H2468.2C2474.2 386 2480.14 387.182 2485.68 389.477C2491.22 391.773 2496.26 395.138 2500.5 399.379C2504.74 403.621 2508.11 408.657 2510.4 414.199C2512.7 419.741 2513.88 425.681 2513.88 431.68V2602.72C2513.88 2608.72 2512.7 2614.66 2510.4 2620.2C2508.11 2625.74 2504.74 2630.78 2500.5 2635.02C2496.26 2639.26 2491.22 2642.63 2485.68 2644.92C2480.14 2647.22 2474.2 2648.4 2468.2 2648.4ZM923.4 387.6C911.822 387.621 900.724 392.23 892.537 400.417C884.35 408.604 879.741 419.702 879.72 431.28V2602.72C879.741 2614.3 884.35 2625.4 892.537 2633.58C900.724 2641.77 911.822 2646.38 923.4 2646.4H2468.2C2479.78 2646.38 2490.88 2641.77 2499.06 2633.58C2507.25 2625.4 2511.86 2614.3 2511.88 2602.72V431.28C2511.86 419.702 2507.25 408.604 2499.06 400.417C2490.88 392.23 2479.78 387.621 2468.2 387.6H923.4Z" fill="#EBEBEB"/>
<path d="M4198.6 2648.4H2653.8C2641.69 2648.4 2630.07 2643.59 2621.5 2635.02C2612.93 2626.45 2608.12 2614.84 2608.12 2602.72V431.28C2608.23 419.234 2613.08 407.718 2621.64 399.238C2630.2 390.757 2641.75 386 2653.8 386H4198.6C4210.72 386 4222.33 390.813 4230.9 399.379C4239.47 407.946 4244.28 419.565 4244.28 431.68V2602.72C4244.28 2614.84 4239.47 2626.45 4230.9 2635.02C4222.33 2643.59 4210.72 2648.4 4198.6 2648.4ZM2653.8 387.6C2642.22 387.621 2631.12 392.23 2622.94 400.417C2614.75 408.604 2610.14 419.702 2610.12 431.28V2602.72C2610.14 2614.3 2614.75 2625.4 2622.94 2633.58C2631.12 2641.77 2642.22 2646.38 2653.8 2646.4H4198.6C4210.18 2646.38 4221.28 2641.77 4229.46 2633.58C4237.65 2625.4 4242.26 2614.3 4242.28 2602.72V431.28C4242.26 419.702 4237.65 408.604 4229.46 400.417C4221.28 392.23 4210.18 387.621 4198.6 387.6H2653.8Z" fill="#EBEBEB"/>
<path d="M4561 3005.2H561V3007.2H4561V3005.2Z" fill="#EBEBEB"/>
<path d="M1288.04 2003.04L1165.8 1965.28C1164.03 1964.64 1162.55 1963.39 1161.6 1961.77C1160.66 1960.14 1160.32 1958.23 1160.65 1956.38C1160.97 1954.53 1161.94 1952.85 1163.38 1951.64C1164.82 1950.43 1166.64 1949.76 1168.52 1949.76L1309.48 1957.2C1276.2 1899.36 1256.52 1863.2 1234.12 1817.92C1233.37 1816.21 1233.25 1814.29 1233.78 1812.49C1234.3 1810.7 1235.43 1809.14 1236.98 1808.1C1238.53 1807.05 1240.4 1806.58 1242.26 1806.77C1244.11 1806.96 1245.85 1807.79 1247.16 1809.12C1277.24 1842.96 1302.44 1870.4 1343.16 1913.68C1352.76 1857.68 1363.96 1806.08 1377.88 1754.32C1378.24 1752.2 1379.43 1750.31 1381.18 1749.06C1382.94 1747.82 1385.12 1747.32 1387.24 1747.68C1389.36 1748.04 1391.25 1749.23 1392.5 1750.99C1393.74 1752.74 1394.24 1754.92 1393.88 1757.04C1390.14 1798.74 1388.78 1840.62 1389.8 1882.48L1393.64 1883.84C1427.45 1845.23 1462.95 1808.13 1500.12 1772.56C1501.62 1771.39 1503.48 1770.79 1505.38 1770.86C1507.28 1770.94 1509.09 1771.69 1510.48 1772.98C1511.88 1774.27 1512.77 1776.02 1513 1777.9C1513.22 1779.79 1512.77 1781.7 1511.72 1783.28C1475.77 1828.87 1442.57 1876.55 1412.28 1926.08C1460.6 1907.84 1509.19 1890.16 1558.04 1873.04C1559.88 1872.51 1561.85 1872.66 1563.59 1873.47C1565.33 1874.27 1566.73 1875.67 1567.52 1877.41C1568.32 1879.16 1568.46 1881.13 1567.92 1882.97C1567.39 1884.81 1566.21 1886.4 1564.6 1887.44C1513.96 1916.16 1463.88 1945.52 1413.88 1975.92L1542.76 2016.96C1544.54 2017.61 1546.04 2018.86 1546.98 2020.51C1547.92 2022.15 1548.25 2024.08 1547.9 2025.94C1547.55 2027.8 1546.56 2029.48 1545.09 2030.68C1543.62 2031.88 1541.77 2032.52 1539.88 2032.48L1407.48 2024.48C1433.64 2055.12 1451.8 2076.16 1473 2099.92C1474.19 2101.38 1474.84 2103.21 1474.81 2105.1C1474.78 2106.98 1474.09 2108.8 1472.86 2110.23C1471.62 2111.65 1469.93 2112.6 1468.06 2112.89C1466.2 2113.19 1464.29 2112.81 1462.68 2111.84C1436.04 2094.16 1412.6 2078.48 1378.52 2055.84C1382.04 2083.04 1385 2103.84 1388.6 2124.8C1388.8 2126.68 1388.33 2128.57 1387.26 2130.14C1386.2 2131.71 1384.62 2132.84 1382.79 2133.35C1380.97 2133.86 1379.03 2133.71 1377.31 2132.92C1375.59 2132.13 1374.2 2130.75 1373.4 2129.04C1364.52 2106.4 1356.44 2083.92 1346.2 2054C1307.72 2238 1317.64 2416.64 1354.84 2599.68L1308.76 2591.68C1281.6 2411.89 1288.93 2228.57 1330.36 2051.52C1307.24 2075.52 1290.36 2093.36 1274.36 2111.44C1273 2112.77 1271.22 2113.57 1269.32 2113.71C1267.43 2113.84 1265.55 2113.3 1264.02 2112.17C1262.49 2111.04 1261.41 2109.41 1260.97 2107.56C1260.54 2105.71 1260.77 2103.77 1261.64 2102.08C1272.52 2084 1284.28 2065.68 1300.12 2041.92C1258.92 2050.96 1230.76 2057.2 1199.64 2064.24C1197.77 2064.58 1195.85 2064.24 1194.21 2063.29C1192.56 2062.33 1191.32 2060.83 1190.68 2059.04C1190.05 2057.25 1190.07 2055.3 1190.74 2053.53C1191.42 2051.75 1192.7 2050.28 1194.36 2049.36C1222.28 2034.4 1249 2021.6 1288.04 2003.04Z" fill="#EBEBEB"/>
<path d="M1223 2066.64L1316.92 2016.88C1319.27 2015.69 1321.1 2013.67 1322.05 2011.21C1322.99 2008.75 1322.99 2006.03 1322.05 2003.57C1321.1 2001.11 1319.28 1999.08 1316.92 1997.89C1314.57 1996.7 1311.86 1996.43 1309.32 1997.12L1193.4 2026C1212.28 1971.6 1224.2 1934.96 1235.88 1894.64C1236.6 1892.16 1236.38 1889.5 1235.28 1887.16C1234.18 1884.82 1232.26 1882.96 1229.89 1881.93C1227.52 1880.9 1224.85 1880.77 1222.39 1881.57C1219.93 1882.36 1217.84 1884.02 1216.52 1886.24C1197.48 1918.24 1179.32 1947.04 1152.52 1989.52C1136.52 1946.16 1119.64 1905.92 1101.4 1866.4C1100.25 1864.04 1098.28 1862.19 1095.85 1861.2C1093.42 1860.21 1090.72 1860.15 1088.25 1861.03C1085.78 1861.91 1083.72 1863.67 1082.47 1865.98C1081.22 1868.28 1080.87 1870.97 1081.48 1873.52C1089.48 1904.88 1096.12 1936.48 1101.24 1967.44L1097.72 1969.52C1067.32 1945.84 1036.23 1923.15 1004.44 1901.44C1002.23 1899.91 999.514 1899.27 996.85 1899.66C994.186 1900.05 991.768 1901.43 990.084 1903.53C988.399 1905.63 987.574 1908.29 987.774 1910.98C987.973 1913.66 989.183 1916.17 991.16 1918C1024.65 1948.67 1056.65 1980.83 1087.16 2014.48C1046.04 2007.39 1004.84 2000.61 963.56 1994.16C960.951 1993.8 958.301 1994.42 956.121 1995.89C953.942 1997.37 952.388 1999.61 951.761 2002.17C951.134 2004.72 951.478 2007.42 952.726 2009.74C953.975 2012.06 956.039 2013.83 958.52 2014.72C1004.12 2030.72 1049.4 2046.72 1094.52 2063.76L994.6 2117.84C992.149 2119.01 990.236 2121.07 989.254 2123.6C988.272 2126.13 988.295 2128.94 989.317 2131.45C990.339 2133.97 992.284 2136 994.753 2137.12C997.223 2138.25 1000.03 2138.39 1002.6 2137.52L1110.2 2110.24C1094.2 2137.52 1082.68 2158.24 1070.2 2178.88C1068.83 2181.11 1068.34 2183.76 1068.8 2186.33C1069.26 2188.9 1070.65 2191.21 1072.71 2192.82C1074.76 2194.43 1077.34 2195.23 1079.94 2195.06C1082.55 2194.9 1085 2193.78 1086.84 2191.92L1145 2135.04C1145.96 2151.04 1146.76 2165.28 1147.24 2178.4C1147.35 2181.03 1148.42 2183.52 1150.26 2185.4C1152.09 2187.29 1154.56 2188.42 1157.19 2188.59C1159.81 2188.76 1162.41 2187.95 1164.47 2186.32C1166.53 2184.69 1167.92 2182.35 1168.36 2179.76C1171 2163.76 1173.56 2147.12 1176.36 2127.2C1248.36 2300.88 1272.36 2478.08 1269.64 2664.88L1313.4 2648.08C1306.52 2466.37 1265.09 2287.64 1191.32 2121.44C1207.96 2133.12 1221.88 2143.04 1234.6 2152.4C1236.72 2154.27 1239.5 2155.21 1242.32 2155.03C1245.14 2154.85 1247.77 2153.56 1249.64 2151.44C1251.51 2149.32 1252.45 2146.54 1252.27 2143.72C1252.09 2140.9 1250.8 2138.27 1248.68 2136.4C1240.04 2127.2 1230.52 2117.44 1219.56 2106.24C1251.56 2107.12 1276.04 2107.84 1299.56 2108.64C1302.15 2108.7 1304.67 2107.81 1306.65 2106.14C1308.64 2104.47 1309.94 2102.14 1310.32 2099.58C1310.71 2097.01 1310.14 2094.4 1308.73 2092.22C1307.33 2090.05 1305.17 2088.46 1302.68 2087.76C1279.32 2081.44 1255.08 2074.96 1223 2066.64Z" fill="#F0F0F0"/>
<path d="M1388.84 2167.6L1318.76 2130.4C1317.15 2129.53 1315.92 2128.1 1315.28 2126.39C1314.65 2124.68 1314.66 2122.79 1315.32 2121.08C1315.98 2119.38 1317.23 2117.97 1318.85 2117.12C1320.47 2116.28 1322.34 2116.05 1324.12 2116.48L1410.44 2138C1396.36 2097.52 1387.64 2070.64 1379 2040.56C1378.13 2038.7 1378.03 2036.58 1378.73 2034.65C1379.43 2032.72 1380.86 2031.15 1382.72 2030.28C1384.58 2029.41 1386.7 2029.31 1388.63 2030.01C1390.56 2030.71 1392.13 2032.14 1393 2034C1407.24 2057.52 1420.6 2079.12 1440.52 2110.72C1452.6 2078.32 1465.08 2048.32 1478.76 2018.8C1479.57 2017.13 1480.96 2015.82 1482.68 2015.11C1484.4 2014.41 1486.32 2014.37 1488.07 2014.99C1489.81 2015.62 1491.27 2016.87 1492.15 2018.5C1493.03 2020.13 1493.28 2022.04 1492.84 2023.84C1486.68 2047.84 1481.64 2071.84 1477.8 2095.12L1480.04 2096.4C1503.08 2078.43 1526.71 2061.23 1550.92 2044.8C1551.7 2044.19 1552.59 2043.74 1553.54 2043.48C1554.49 2043.21 1555.48 2043.13 1556.47 2043.25C1557.45 2043.37 1558.39 2043.68 1559.25 2044.17C1560.11 2044.65 1560.87 2045.3 1561.48 2046.08C1562.09 2046.86 1562.54 2047.75 1562.81 2048.7C1563.07 2049.65 1563.15 2050.64 1563.03 2051.62C1562.91 2052.61 1562.6 2053.55 1562.11 2054.41C1561.63 2055.27 1560.98 2056.03 1560.2 2056.64C1534.97 2079.52 1510.97 2103.52 1488.2 2128.64C1518.92 2123.31 1549.75 2118.21 1580.68 2113.36C1582.55 2113.04 1584.47 2113.44 1586.06 2114.48C1587.65 2115.52 1588.78 2117.13 1589.24 2118.97C1589.69 2120.81 1589.44 2122.76 1588.52 2124.42C1587.6 2126.08 1586.08 2127.33 1584.28 2127.92C1550.31 2139.71 1516.41 2151.92 1482.6 2164.56L1557 2204.56C1558.64 2205.42 1559.9 2206.86 1560.54 2208.59C1561.19 2210.32 1561.17 2212.23 1560.5 2213.95C1559.83 2215.67 1558.54 2217.09 1556.89 2217.92C1555.25 2218.76 1553.35 2218.96 1551.56 2218.48L1471.56 2198.16C1483.32 2218.72 1492.2 2234.08 1501.4 2249.68C1502.29 2251.24 1502.58 2253.07 1502.24 2254.84C1501.89 2256.6 1500.92 2258.18 1499.51 2259.3C1498.1 2260.41 1496.34 2260.98 1494.54 2260.9C1492.74 2260.83 1491.03 2260.11 1489.72 2258.88L1446.68 2216.56C1445.88 2229.28 1445.32 2240.16 1444.92 2250.32C1444.89 2252.21 1444.15 2254.02 1442.84 2255.38C1441.54 2256.75 1439.77 2257.58 1437.88 2257.7C1436 2257.82 1434.14 2257.23 1432.67 2256.04C1431.2 2254.85 1430.23 2253.15 1429.96 2251.28C1427.96 2239.2 1425.96 2226.24 1423.72 2210.8C1371.08 2337.44 1353.96 2466.8 1355.72 2602.8L1323.72 2590.56C1328.74 2458.07 1358.93 2327.76 1412.68 2206.56C1399.8 2215.68 1388.68 2223.36 1379.24 2230.56C1377.74 2231.75 1375.83 2232.33 1373.92 2232.16C1372.01 2232 1370.23 2231.11 1368.96 2229.68C1367.68 2228.25 1367 2226.38 1367.05 2224.46C1367.1 2222.54 1367.89 2220.72 1369.24 2219.36C1376.04 2212.16 1383.4 2204.48 1392.12 2195.36L1331.64 2197.12C1329.78 2197.19 1327.97 2196.58 1326.54 2195.39C1325.11 2194.2 1324.17 2192.53 1323.9 2190.69C1323.63 2188.85 1324.05 2186.98 1325.08 2185.44C1326.11 2183.89 1327.68 2182.78 1329.48 2182.32C1346.52 2178.64 1364.6 2173.84 1388.84 2167.6Z" fill="#F5F5F5"/>
<path d="M1191.32 3003.84H1429.88C1437.92 3003.85 1445.66 3000.8 1451.52 2995.3C1457.37 2989.79 1460.91 2982.26 1461.4 2974.24L1486.68 2562.72C1487.8 2544.56 1133.4 2544.56 1134.68 2562.72L1159.96 2974.24C1160.45 2982.23 1163.96 2989.74 1169.79 2995.24C1175.61 3000.74 1183.31 3003.81 1191.32 3003.84Z" fill="#F0F0F0"/>
<path d="M1177 2053.04C1173.9 2050.48 1171.49 2047.19 1169.99 2043.45C1168.5 2039.72 1167.96 2035.67 1168.44 2031.68L1173.8 1986.08L1161.56 2007.28C1159.87 2010.26 1157.55 2012.84 1154.78 2014.85C1152.01 2016.86 1148.83 2018.25 1145.48 2018.93C1142.12 2019.62 1138.65 2019.57 1135.32 2018.8C1131.98 2018.04 1128.84 2016.56 1126.12 2014.48L1102.12 1996.4L1123.96 2031.68C1127.02 2036.57 1128.22 2042.39 1127.34 2048.09C1126.46 2053.79 1123.56 2058.99 1119.16 2062.72L1090.92 2086.72L1118.6 2080.4C1124.47 2079.02 1130.64 2079.91 1135.88 2082.87C1141.13 2085.84 1145.07 2090.66 1146.92 2096.4L1156.44 2125.52L1162.52 2094.56C1163.18 2091.28 1164.52 2088.18 1166.45 2085.44C1168.38 2082.71 1170.86 2080.41 1173.72 2078.7C1176.59 2076.98 1179.79 2075.88 1183.11 2075.47C1186.43 2075.06 1189.8 2075.35 1193 2076.32L1211.64 2081.76L1177 2053.04Z" fill="#E6E6E6"/>
<path d="M1335.96 1974.48C1338.24 1972.62 1340 1970.21 1341.09 1967.49C1342.18 1964.76 1342.56 1961.8 1342.2 1958.88L1338.28 1925.52L1347.24 1941.04C1348.47 1943.21 1350.16 1945.09 1352.18 1946.56C1354.2 1948.03 1356.51 1949.04 1358.96 1949.54C1361.41 1950.04 1363.93 1950.02 1366.37 1949.46C1368.8 1948.9 1371.09 1947.83 1373.08 1946.32L1390.6 1933.12L1374.6 1958.88C1372.39 1962.45 1371.53 1966.7 1372.17 1970.85C1372.82 1975 1374.93 1978.79 1378.12 1981.52L1398.76 1999.28L1378.52 1994.64C1374.24 1993.66 1369.76 1994.32 1365.94 1996.48C1362.12 1998.64 1359.25 2002.15 1357.88 2006.32L1350.92 2027.6L1346.44 2004.96C1345.96 2002.56 1344.99 2000.29 1343.58 1998.28C1342.18 1996.28 1340.38 1994.59 1338.29 1993.32C1336.2 1992.05 1333.87 1991.23 1331.44 1990.9C1329.02 1990.58 1326.55 1990.76 1324.2 1991.44L1310.6 1995.44L1335.96 1974.48Z" fill="#F5F5F5"/>
<path d="M1430.28 2165.44C1431.9 2164.07 1433.15 2162.33 1433.93 2160.36C1434.71 2158.39 1435 2156.26 1434.76 2154.16L1431.96 2130.16L1438.36 2141.28C1439.26 2142.83 1440.47 2144.17 1441.93 2145.22C1443.38 2146.26 1445.04 2146.99 1446.79 2147.34C1448.55 2147.7 1450.36 2147.68 1452.1 2147.28C1453.85 2146.88 1455.49 2146.12 1456.92 2145.04L1469.48 2135.52L1458.04 2154C1456.52 2156.54 1455.93 2159.53 1456.38 2162.45C1456.84 2165.37 1458.3 2168.05 1460.52 2170L1475.32 2182.72L1460.84 2179.36C1457.81 2178.64 1454.62 2179.06 1451.88 2180.53C1449.14 2182.01 1447.03 2184.44 1445.96 2187.36L1441 2202.64L1437.8 2186.64C1437.46 2184.91 1436.76 2183.28 1435.75 2181.83C1434.75 2180.39 1433.45 2179.17 1431.94 2178.26C1430.43 2177.35 1428.75 2176.76 1427.01 2176.54C1425.26 2176.32 1423.49 2176.46 1421.8 2176.96L1412.04 2179.84L1430.28 2165.44Z" fill="#E6E6E6"/>
<path d="M3638.12 1031.28H3428.76C3422.93 1031.28 3418.2 1036.01 3418.2 1041.84V1082.56C3418.2 1088.39 3422.93 1093.12 3428.76 1093.12H3638.12C3643.95 1093.12 3648.68 1088.39 3648.68 1082.56V1041.84C3648.68 1036.01 3643.95 1031.28 3638.12 1031.28Z" fill="#F5F5F5"/>
<path d="M3567.72 1107.92H3358.36C3352.53 1107.92 3347.8 1112.65 3347.8 1118.48V1159.2C3347.8 1165.03 3352.53 1169.76 3358.36 1169.76H3567.72C3573.55 1169.76 3578.28 1165.03 3578.28 1159.2V1118.48C3578.28 1112.65 3573.55 1107.92 3567.72 1107.92Z" fill="#F5F5F5"/>
<path d="M3808.92 1107.92H3599.56C3593.73 1107.92 3589 1112.65 3589 1118.48V1159.2C3589 1165.03 3593.73 1169.76 3599.56 1169.76H3808.92C3814.75 1169.76 3819.48 1165.03 3819.48 1159.2V1118.48C3819.48 1112.65 3814.75 1107.92 3808.92 1107.92Z" fill="#F0F0F0"/>
<path d="M3920.84 539.04H3697.48C3691.65 539.04 3686.92 543.768 3686.92 549.6V594.08C3686.92 599.912 3691.65 604.64 3697.48 604.64H3920.84C3926.67 604.64 3931.4 599.912 3931.4 594.08V549.6C3931.4 543.768 3926.67 539.04 3920.84 539.04Z" fill="#F5F5F5"/>
<path d="M3920.84 701.76H3697.48C3691.65 701.76 3686.92 706.488 3686.92 712.32V756.8C3686.92 762.632 3691.65 767.36 3697.48 767.36H3920.84C3926.67 767.36 3931.4 762.632 3931.4 756.8V712.32C3931.4 706.488 3926.67 701.76 3920.84 701.76Z" fill="#F5F5F5"/>
<path d="M3846.2 620.32H3622.84C3617.01 620.32 3612.28 625.048 3612.28 630.88V675.36C3612.28 681.192 3617.01 685.92 3622.84 685.92H3846.2C3852.03 685.92 3856.76 681.192 3856.76 675.36V630.88C3856.76 625.048 3852.03 620.32 3846.2 620.32Z" fill="#F5F5F5"/>
<path d="M4102.04 620.32H3878.68C3872.85 620.32 3868.12 625.048 3868.12 630.88V675.36C3868.12 681.192 3872.85 685.92 3878.68 685.92H4102.04C4107.87 685.92 4112.6 681.192 4112.6 675.36V630.88C4112.6 625.048 4107.87 620.32 4102.04 620.32Z" fill="#F0F0F0"/>
<path d="M2312.44 2531.6H3848.84V2487.44H2312.44V2531.6Z" fill="#F5F5F5"/>
<path d="M3837.4 2531.6H4181.56V2487.44H3837.4V2531.6Z" fill="#EBEBEB"/>
<path d="M2472.12 2638.96V2531.6H2400.52L2472.12 2638.96Z" fill="#E0E0E0"/>
<path d="M2436.36 2638.96L2364.76 2531.6H2400.52L2472.12 2638.96H2436.36Z" fill="#FAFAFA"/>
<path d="M4125.48 2638.96V2531.6H4053.88L4125.48 2638.96Z" fill="#E0E0E0"/>
<path d="M4089.64 2638.96L4018.12 2531.6H4053.88L4125.48 2638.96H4089.64Z" fill="#FAFAFA"/>
<path d="M3935.64 2493.44H3976.12C3980.43 2493.44 3984.7 2492.58 3988.67 2490.89C3992.64 2489.2 3996.22 2486.73 3999.21 2483.62C4002.2 2480.51 4004.53 2476.83 4006.06 2472.8C4007.59 2468.77 4008.29 2464.47 4008.12 2460.16L4003 2307.68H3908.6L3903.48 2460.16C3903.31 2464.48 3904.01 2468.79 3905.55 2472.84C3907.09 2476.88 3909.44 2480.57 3912.44 2483.68C3915.45 2486.79 3919.05 2489.26 3923.04 2490.93C3927.03 2492.61 3931.31 2493.46 3935.64 2493.44Z" fill="#F0F0F0"/>
<path d="M3763.98 2396.87C3799.03 2361.82 3799.03 2304.98 3763.98 2269.93C3728.93 2234.88 3672.09 2234.88 3637.04 2269.93C3601.99 2304.98 3601.99 2361.82 3637.04 2396.87C3672.09 2431.92 3728.93 2431.92 3763.98 2396.87Z" fill="#F0F0F0"/>
<path d="M3694.28 2492.08H3706.76V2432.64H3700.52C3687.26 2433.02 3674.06 2430.73 3661.7 2425.92C3649.34 2421.1 3638.07 2413.86 3628.56 2404.61C3619.05 2395.37 3611.49 2384.31 3606.33 2372.09C3601.16 2359.87 3598.5 2346.74 3598.5 2333.48C3598.5 2320.22 3601.16 2307.09 3606.33 2294.87C3611.49 2282.65 3619.05 2271.59 3628.56 2262.35C3638.07 2253.1 3649.34 2245.86 3661.7 2241.04C3674.06 2236.23 3687.26 2233.94 3700.52 2234.32V2221.76C3672.4 2223.22 3645.86 2235.22 3626.19 2255.37C3606.52 2275.51 3595.15 2302.33 3594.37 2330.48C3593.58 2358.63 3603.43 2386.04 3621.94 2407.25C3640.46 2428.47 3666.28 2441.93 3694.28 2444.96V2492.08Z" fill="#EBEBEB"/>
<path d="M3647.8 2493.44H3754.52C3754.52 2487.08 3751.99 2480.97 3747.49 2476.47C3742.99 2471.97 3736.88 2469.44 3730.52 2469.44H3671.64C3665.27 2469.44 3659.17 2471.97 3654.67 2476.47C3650.17 2480.97 3647.64 2487.08 3647.64 2493.44H3647.8Z" fill="#EBEBEB"/>
<path d="M3941.72 2493.44L3857.4 2409.12L3773 2493.44H3941.72Z" fill="#F5F5F5"/>
<path d="M3857.4 2409.12L3941.72 2493.44H3857.4V2409.12Z" fill="#E6E6E6"/>
<path d="M3269.48 2383.12C3269.88 2391.12 3270.12 2397.52 3270.12 2401.76C3270.12 2419.22 3266.31 2436.47 3258.96 2452.3C3251.61 2468.13 3240.9 2482.17 3227.56 2493.44H3079.32C3066.03 2482.19 3055.35 2468.19 3048.01 2452.4C3040.67 2436.61 3036.86 2419.41 3036.84 2402C3036.84 2397.76 3036.84 2391.36 3037.48 2383.36L3269.48 2383.12Z" fill="#F5F5F5"/>
<path d="M3249 2448.8C3249 2457.3 3250.85 2465.7 3254.43 2473.41C3258.01 2481.12 3263.23 2487.96 3269.72 2493.44H3341.72C3349.99 2486.39 3356.17 2477.2 3359.56 2466.88C3360.99 2467.14 3362.43 2467.27 3363.88 2467.28C3378.36 2467.28 3394.52 2455.76 3394.52 2440.4C3394.52 2425.04 3385.24 2413.52 3371.4 2413.52C3368.19 2413.55 3365.01 2414.06 3361.96 2415.04V2414C3361.92 2410.28 3360.4 2406.73 3357.75 2404.12C3355.1 2401.51 3351.52 2400.06 3347.8 2400.08H3263.4C3261.54 2400.04 3259.69 2400.36 3257.95 2401.04C3256.22 2401.72 3254.63 2402.74 3253.29 2404.03C3251.95 2405.33 3250.88 2406.88 3250.15 2408.59C3249.41 2410.3 3249.02 2412.14 3249 2414C3249 2430.08 3249 2443.2 3249 2448.8ZM3361.8 2458.16C3362.37 2455.07 3362.67 2451.94 3362.68 2448.8C3362.68 2444.48 3362.68 2435.76 3362.68 2424.8C3365.59 2423.44 3368.75 2422.71 3371.96 2422.64C3385.08 2422.64 3386.12 2436.32 3386.12 2440.56C3386.12 2450.48 3374.28 2458.48 3364.44 2458.48L3361.8 2458.16Z" fill="#EBEBEB"/>
<path d="M2580.52 2493.44L2592.28 2358.32H2421L2409.16 2493.44H2580.52Z" fill="#F0F0F0"/>
<path d="M2580.52 2493.44L2592.28 2358.32H2601.56L2589.72 2493.44H2580.52Z" fill="#E0E0E0"/>
<path d="M2564.2 2479.68L2573.64 2372.16H2437.24L2427.8 2479.68H2564.2Z" fill="#FAFAFA"/>
<path d="M2553.8 2470.8L2561.64 2380.96H2447.72L2439.8 2470.8H2553.8Z" fill="#EBEBEB"/>
<path d="M2773.64 2493.44H2601.56L2620.6 2275.2H2792.76L2773.64 2493.44Z" fill="#F0F0F0"/>
<path d="M2773.64 2493.44H2781.88L2801 2275.2H2792.76L2773.64 2493.44Z" fill="#E0E0E0"/>
<path d="M2758.04 2471.2H2621L2636.2 2297.44H2773.24L2758.04 2471.2Z" fill="#E0E0E0"/>
<path d="M2748.04 2456.88H2633.56L2646.28 2311.76H2760.76L2748.04 2456.88Z" fill="#FAFAFA"/>
<path d="M2665.38 2390.48L2676.64 2401.73C2686.57 2411.67 2702.68 2411.67 2712.61 2401.73L2723.87 2390.48C2733.81 2380.54 2733.81 2364.43 2723.87 2354.5L2712.61 2343.24C2702.68 2333.31 2686.57 2333.31 2676.64 2343.24L2665.38 2354.5C2655.44 2364.43 2655.44 2380.54 2665.38 2390.48Z" fill="#EBEBEB"/>
<path d="M2659.85 2432.24L2665.4 2437.78C2675.33 2447.72 2691.44 2447.72 2701.37 2437.78L2706.92 2432.24C2716.85 2422.3 2716.85 2406.19 2706.92 2396.26L2701.37 2390.72C2691.44 2380.78 2675.33 2380.78 2665.4 2390.72L2659.85 2396.26C2649.92 2406.19 2649.92 2422.3 2659.85 2432.24Z" fill="#E6E6E6"/>
<path d="M1116.12 935.92H1360.6C1366.43 935.92 1371.16 931.192 1371.16 925.36V875.2C1371.16 869.368 1366.43 864.64 1360.6 864.64H1116.12C1110.29 864.64 1105.56 869.368 1105.56 875.2V925.36C1105.56 931.192 1110.29 935.92 1116.12 935.92Z" fill="#F5F5F5"/>
<path d="M1240.12 847.6H1484.6C1490.43 847.6 1495.16 842.872 1495.16 837.04V786.88C1495.16 781.048 1490.43 776.32 1484.6 776.32H1240.12C1234.29 776.32 1229.56 781.048 1229.56 786.88V837.04C1229.56 842.872 1234.29 847.6 1240.12 847.6Z" fill="#F5F5F5"/>
<path d="M962.2 847.6H1206.68C1212.51 847.6 1217.24 842.872 1217.24 837.04V786.88C1217.24 781.048 1212.51 776.32 1206.68 776.32H962.2C956.368 776.32 951.64 781.048 951.64 786.88V837.04C951.64 842.872 956.368 847.6 962.2 847.6Z" fill="#F0F0F0"/>
<path d="M2561 3335.68C3417.66 3335.68 4112.12 3295.14 4112.12 3245.12C4112.12 3195.11 3417.66 3154.56 2561 3154.56C1704.34 3154.56 1009.88 3195.11 1009.88 3245.12C1009.88 3295.14 1704.34 3335.68 2561 3335.68Z" fill="#F5F5F5"/>
<path d="M3702.92 597.92H3234.92C3152.61 597.92 3085.88 664.647 3085.88 746.96V2017.2C3085.88 2099.51 3152.61 2166.24 3234.92 2166.24H3702.92C3785.23 2166.24 3851.96 2099.51 3851.96 2017.2V746.96C3851.96 664.647 3785.23 597.92 3702.92 597.92Z" fill="#90CAF9"/>
<path opacity="0.3" d="M3704.6 597.92H3233.24C3151.86 597.92 3085.88 663.895 3085.88 745.28V2018.88C3085.88 2100.26 3151.86 2166.24 3233.24 2166.24H3704.6C3785.98 2166.24 3851.96 2100.26 3851.96 2018.88V745.28C3851.96 663.895 3785.98 597.92 3704.6 597.92Z" fill="black"/>
<path d="M3851.96 674.88V986H3085.88V674.88C3085.88 654.469 3093.99 634.894 3108.42 620.461C3122.85 606.028 3142.43 597.92 3162.84 597.92H3775C3795.41 597.92 3814.99 606.028 3829.42 620.461C3843.85 634.894 3851.96 654.469 3851.96 674.88Z" fill="#90CAF9"/>
<path d="M3628.84 1919.52H3309C3265.52 1919.52 3230.28 1954.76 3230.28 1998.24V2004.24C3230.28 2047.72 3265.52 2082.96 3309 2082.96H3628.84C3672.32 2082.96 3707.56 2047.72 3707.56 2004.24V1998.24C3707.56 1954.76 3672.32 1919.52 3628.84 1919.52Z" fill="#90CAF9"/>
<path d="M3345 2013.76C3345 2028.64 3333.08 2038.56 3314.44 2040.08L3311.96 2052.4H3300.76L3303.24 2040.08C3294.08 2039.52 3285.23 2036.57 3277.56 2031.52L3285 2017.68C3291.23 2022.14 3298.51 2024.89 3306.12 2025.68L3309.96 2006.8C3299.56 2003.68 3288.12 1999.52 3288.12 1986C3288.12 1971.12 3300.36 1961.04 3319.32 1959.76L3321.8 1947.44H3333L3330.52 1959.84C3337.77 1960.41 3344.79 1962.6 3351.08 1966.24L3344.28 1980.08C3339.28 1976.83 3333.57 1974.83 3327.64 1974.24L3323.72 1993.92C3334.04 1996.88 3345 2000.88 3345 2013.76ZM3313 1990.72L3316.2 1974.72C3309.88 1975.92 3306.28 1979.36 3306.2 1983.68C3306.12 1988 3309.16 1989.04 3313 1990.72ZM3326.84 2016.64C3326.84 2013.44 3324.28 2011.36 3320.36 2009.92L3317.32 2025.28C3323.56 2024 3327 2020.88 3327 2016.64H3326.84Z" fill="white"/>
<path d="M3658.36 1585.12H3262.92V1601.12H3658.36V1585.12Z" fill="#90CAF9"/>
<path d="M3658.36 1322.4H3262.92V1338.4H3658.36V1322.4Z" fill="#90CAF9"/>
<path d="M3658.36 1069.2H3262.92V1085.2H3658.36V1069.2Z" fill="#90CAF9"/>
<path d="M3506.13 1251.77C3533 1224.9 3533 1181.34 3506.13 1154.47C3479.26 1127.6 3435.7 1127.6 3408.83 1154.47C3381.96 1181.34 3381.96 1224.9 3408.83 1251.77C3435.7 1278.63 3479.26 1278.63 3506.13 1251.77Z" fill="#90CAF9"/>
<path d="M3506.68 1188.24L3467.16 1227.84L3448.68 1246.32L3430.2 1227.84L3448.68 1209.36L3488.2 1169.76L3506.68 1188.24Z" fill="white"/>
<path d="M3467.16 1227.84L3448.68 1246.32L3409.48 1207.12L3427.96 1188.64L3448.68 1209.36L3467.16 1227.84Z" fill="white"/>
<path d="M3457.48 1525.76C3495.48 1525.76 3526.28 1494.96 3526.28 1456.96C3526.28 1418.96 3495.48 1388.16 3457.48 1388.16C3419.48 1388.16 3388.68 1418.96 3388.68 1456.96C3388.68 1494.96 3419.48 1525.76 3457.48 1525.76Z" fill="#90CAF9"/>
<path d="M3506.68 1442.08L3467.16 1481.68L3448.68 1500.16L3430.2 1481.68L3448.68 1463.2L3488.2 1423.6L3506.68 1442.08Z" fill="white"/>
<path d="M3467.16 1481.68L3448.68 1500.16L3409.48 1460.96L3427.96 1442.48L3448.68 1463.2L3467.16 1481.68Z" fill="white"/>
<path d="M3457.48 1798C3495.48 1798 3526.28 1767.2 3526.28 1729.2C3526.28 1691.2 3495.48 1660.4 3457.48 1660.4C3419.48 1660.4 3388.68 1691.2 3388.68 1729.2C3388.68 1767.2 3419.48 1798 3457.48 1798Z" fill="#90CAF9"/>
<path d="M3506.68 1714.32L3467.16 1753.92L3448.68 1772.4L3430.2 1753.92L3448.68 1735.44L3488.2 1695.84L3506.68 1714.32Z" fill="white"/>
<path d="M3467.16 1753.92L3448.68 1772.4L3409.48 1733.2L3427.96 1714.72L3448.68 1735.44L3467.16 1753.92Z" fill="white"/>
<path d="M3367.32 875.76L3380.2 896.32L3403.72 902.16L3388.12 920.8L3389.8 945.04L3367.32 935.92L3344.76 945.04L3346.44 920.8L3330.84 902.16L3354.44 896.32L3367.32 875.76Z" fill="white"/>
<path d="M3457.48 875.76L3470.36 896.32L3493.96 902.16L3478.36 920.8L3480.04 945.04L3457.48 935.92L3435 945.04L3436.68 920.8L3421.08 902.16L3444.6 896.32L3457.48 875.76Z" fill="white"/>
<path d="M3547.72 875.76L3560.52 896.32L3584.12 902.16L3568.52 920.8L3570.2 945.04L3547.72 935.92L3525.16 945.04L3526.84 920.8L3511.24 902.16L3534.84 896.32L3547.72 875.76Z" fill="white"/>
<path d="M4607.04 776H4139.04C4056.73 776 3990 842.728 3990 925.04V2195.28C3990 2277.59 4056.73 2344.32 4139.04 2344.32H4607.04C4689.35 2344.32 4756.08 2277.59 4756.08 2195.28V925.04C4756.08 842.728 4689.35 776 4607.04 776Z" fill="#90CAF9"/>
<path opacity="0.3" d="M4608.72 776H4137.36C4055.98 776 3990 841.975 3990 923.36V2196.96C3990 2278.34 4055.98 2344.32 4137.36 2344.32H4608.72C4690.1 2344.32 4756.08 2278.34 4756.08 2196.96V923.36C4756.08 841.975 4690.1 776 4608.72 776Z" fill="#1100FF"/>
<path d="M4756.08 852.96V1164.08H3990V852.96C3990 832.549 3998.11 812.974 4012.54 798.541C4026.97 784.108 4046.55 776 4066.96 776H4679.12C4699.53 776 4719.11 784.108 4733.54 798.541C4747.97 812.974 4756.08 832.549 4756.08 852.96Z" fill="#90CAF9"/>
<path d="M4532.96 2097.6H4213.12C4169.64 2097.6 4134.4 2132.84 4134.4 2176.32V2182.32C4134.4 2225.8 4169.64 2261.04 4213.12 2261.04H4532.96C4576.44 2261.04 4611.68 2225.8 4611.68 2182.32V2176.32C4611.68 2132.84 4576.44 2097.6 4532.96 2097.6Z" fill="#90CAF9"/>
<path d="M4249.12 2191.84C4249.12 2206.72 4237.2 2216.64 4218.56 2218.16L4216.08 2230.48H4204.88L4207.36 2218.16C4198.2 2217.6 4189.35 2214.65 4181.68 2209.6L4189.12 2195.76C4195.35 2200.22 4202.62 2202.97 4210.24 2203.76L4214.08 2184.88C4203.68 2181.76 4192.24 2177.6 4192.24 2164.08C4192.24 2149.2 4204.48 2139.12 4223.44 2137.84L4225.92 2125.52H4237.12L4234.64 2137.92C4241.89 2138.49 4248.91 2140.68 4255.2 2144.32L4248.4 2158.16C4243.4 2154.91 4237.69 2152.91 4231.76 2152.32L4227.84 2172C4238.16 2174.96 4249.12 2178.96 4249.12 2191.84ZM4217.12 2168.8L4220.32 2152.8C4214 2154 4210.4 2157.44 4210.32 2161.76C4210.24 2166.08 4213.28 2167.12 4217.12 2168.8ZM4230.96 2194.72C4230.96 2191.52 4228.4 2189.44 4224.48 2188L4221.44 2203.36C4227.68 2202.08 4231.12 2198.96 4231.12 2194.72H4230.96Z" fill="white"/>
<path d="M4562.48 1763.2H4167.04V1779.2H4562.48V1763.2Z" fill="#90CAF9"/>
<path d="M4562.48 1500.48H4167.04V1516.48H4562.48V1500.48Z" fill="#90CAF9"/>
<path d="M4562.48 1247.28H4167.04V1263.28H4562.48V1247.28Z" fill="#90CAF9"/>
<path d="M4410.25 1429.85C4437.12 1402.98 4437.12 1359.42 4410.25 1332.55C4383.38 1305.68 4339.82 1305.68 4312.95 1332.55C4286.08 1359.42 4286.08 1402.98 4312.95 1429.85C4339.82 1456.71 4383.38 1456.71 4410.25 1429.85Z" fill="#90CAF9"/>
<path d="M4410.8 1366.32L4371.28 1405.92L4352.8 1424.4L4334.32 1405.92L4352.8 1387.44L4392.32 1347.84L4410.8 1366.32Z" fill="white"/>
<path d="M4371.28 1405.92L4352.8 1424.4L4313.6 1385.2L4332.08 1366.72L4352.8 1387.44L4371.28 1405.92Z" fill="white"/>
<path d="M4361.6 1703.84C4399.6 1703.84 4430.4 1673.04 4430.4 1635.04C4430.4 1597.04 4399.6 1566.24 4361.6 1566.24C4323.6 1566.24 4292.8 1597.04 4292.8 1635.04C4292.8 1673.04 4323.6 1703.84 4361.6 1703.84Z" fill="#90CAF9"/>
<path d="M4410.8 1620.16L4371.28 1659.76L4352.8 1678.24L4334.32 1659.76L4352.8 1641.28L4392.32 1601.68L4410.8 1620.16Z" fill="white"/>
<path d="M4371.28 1659.76L4352.8 1678.24L4313.6 1639.04L4332.08 1620.56L4352.8 1641.28L4371.28 1659.76Z" fill="white"/>
<path d="M4361.6 1976.08C4399.6 1976.08 4430.4 1945.28 4430.4 1907.28C4430.4 1869.28 4399.6 1838.48 4361.6 1838.48C4323.6 1838.48 4292.8 1869.28 4292.8 1907.28C4292.8 1945.28 4323.6 1976.08 4361.6 1976.08Z" fill="#90CAF9"/>
<path d="M4410.8 1892.4L4371.28 1932L4352.8 1950.48L4334.32 1932L4352.8 1913.52L4392.32 1873.92L4410.8 1892.4Z" fill="white"/>
<path d="M4371.28 1932L4352.8 1950.48L4313.6 1911.28L4332.08 1892.8L4352.8 1913.52L4371.28 1932Z" fill="white"/>
<path d="M4238.44 1053.84L4251.32 1074.4L4274.84 1080.24L4259.24 1098.88L4260.92 1123.12L4238.44 1114L4215.88 1123.12L4217.56 1098.88L4201.96 1080.24L4225.56 1074.4L4238.44 1053.84Z" fill="white"/>
<path d="M4328.6 1053.84L4341.48 1074.4L4365.08 1080.24L4349.48 1098.88L4351.16 1123.12L4328.6 1114L4306.12 1123.12L4307.8 1098.88L4292.2 1080.24L4315.72 1074.4L4328.6 1053.84Z" fill="white"/>
<path d="M4418.84 1053.84L4431.64 1074.4L4455.24 1080.24L4439.64 1098.88L4441.32 1123.12L4418.84 1114L4396.28 1123.12L4397.96 1098.88L4382.36 1080.24L4405.96 1074.4L4418.84 1053.84Z" fill="white"/>
<path d="M4509.48 1054L4522.28 1074.56L4545.88 1080.4L4530.28 1099.04L4531.96 1123.28L4509.48 1114.16L4486.92 1123.28L4488.6 1099.04L4473 1080.4L4496.6 1074.56L4509.48 1054Z" fill="white"/>
<path d="M2802.84 508.641H2334.84C2252.53 508.641 2185.8 575.368 2185.8 657.681V1927.92C2185.8 2010.23 2252.53 2076.96 2334.84 2076.96H2802.84C2885.15 2076.96 2951.88 2010.23 2951.88 1927.92V657.681C2951.88 575.368 2885.15 508.641 2802.84 508.641Z" fill="#90CAF9"/>
<path opacity="0.5" d="M2797.88 508.641H2339.8C2298.96 508.641 2259.79 524.866 2230.91 553.746C2202.02 582.627 2185.8 621.797 2185.8 662.641V1922.96C2185.8 1943.19 2189.79 1963.22 2197.53 1981.91C2205.27 2000.6 2216.62 2017.58 2230.93 2031.88C2245.24 2046.18 2262.23 2057.53 2280.92 2065.26C2299.62 2073 2319.65 2076.97 2339.88 2076.96H2797.88C2818.11 2076.97 2838.14 2073 2856.84 2065.26C2875.53 2057.53 2892.52 2046.18 2906.83 2031.88C2921.13 2017.58 2932.49 2000.6 2940.23 1981.91C2947.97 1963.22 2951.96 1943.19 2951.96 1922.96V662.641C2951.96 642.41 2947.97 622.378 2940.23 603.689C2932.49 585 2921.13 568.019 2906.83 553.718C2892.52 539.417 2875.53 528.075 2856.84 520.34C2838.14 512.606 2818.11 508.63 2797.88 508.641Z" fill="white"/>
<path d="M2951.96 586V897.04H2185.8V586C2185.8 565.589 2193.91 546.014 2208.34 531.581C2222.77 517.148 2242.35 509.04 2262.76 509.04H2874.92C2895.34 509.04 2914.92 517.146 2929.37 531.576C2943.81 546.007 2951.94 565.582 2951.96 586Z" fill="#90CAF9"/>
<path d="M2735.24 1830.24H2415.4C2371.92 1830.24 2336.68 1865.48 2336.68 1908.96V1914.96C2336.68 1958.44 2371.92 1993.68 2415.4 1993.68H2735.24C2778.72 1993.68 2813.96 1958.44 2813.96 1914.96V1908.96C2813.96 1865.48 2778.72 1830.24 2735.24 1830.24Z" fill="#90CAF9"/>
<path d="M2764.84 1495.84H2369.4V1511.84H2764.84V1495.84Z" fill="#90CAF9"/>
<path d="M2764.84 1233.12H2369.4V1249.12H2764.84V1233.12Z" fill="#90CAF9"/>
<path d="M2764.84 979.92H2369.4V995.92H2764.84V979.92Z" fill="#90CAF9"/>
<path d="M2628.02 1383.48C2636.75 1346.5 2613.84 1309.45 2576.86 1300.72C2539.88 1291.99 2502.83 1314.89 2494.1 1351.87C2485.37 1388.85 2508.27 1425.91 2545.26 1434.64C2582.24 1443.37 2619.29 1420.46 2628.02 1383.48Z" fill="#90CAF9"/>
<path d="M2610.36 1352.88L2570.76 1392.4L2552.28 1410.88L2533.8 1392.4L2552.28 1374L2591.88 1334.4L2610.36 1352.88Z" fill="white"/>
<path d="M2570.76 1392.4L2552.28 1410.88L2513.16 1371.68L2531.56 1353.28L2552.28 1374L2570.76 1392.4Z" fill="white"/>
<path d="M2593.42 1703.49C2628.52 1688.95 2645.19 1648.7 2630.65 1613.6C2616.11 1578.49 2575.87 1561.82 2540.76 1576.36C2505.66 1590.9 2488.99 1631.15 2503.53 1666.25C2518.07 1701.36 2558.31 1718.03 2593.42 1703.49Z" fill="#90CAF9"/>
<path d="M2616.36 1625.04L2576.76 1664.64L2558.28 1683.12L2539.8 1664.64L2558.28 1646.16L2597.88 1606.56L2616.36 1625.04Z" fill="white"/>
<path d="M2576.76 1664.64L2558.28 1683.12L2519.16 1643.92L2537.56 1625.44L2558.28 1646.16L2576.76 1664.64Z" fill="white"/>
<path d="M2561.08 1182.64C2598.68 1182.64 2629.16 1152.16 2629.16 1114.56C2629.16 1076.96 2598.68 1046.48 2561.08 1046.48C2523.48 1046.48 2493 1076.96 2493 1114.56C2493 1152.16 2523.48 1182.64 2561.08 1182.64Z" fill="#263238"/>
<path opacity="0.5" d="M2561.08 1182.64C2598.68 1182.64 2629.16 1152.16 2629.16 1114.56C2629.16 1076.96 2598.68 1046.48 2561.08 1046.48C2523.48 1046.48 2493 1076.96 2493 1114.56C2493 1152.16 2523.48 1182.64 2561.08 1182.64Z" fill="white"/>
<path d="M2581.28 1076.06L2522.62 1134.73L2540.89 1153L2599.55 1094.34L2581.28 1076.06Z" fill="white"/>
<path d="M2522.66 1094.36L2581.33 1153.02L2599.6 1134.75L2540.94 1076.09L2522.66 1094.36Z" fill="white"/>
<path d="M2875.4 594.72V777.28L2913.96 738.8V594.72H2875.4Z" fill="#90CAF9"/>
<path d="M2952.44 594.72V777.28L2913.96 738.8V594.72H2952.44Z" fill="#90CAF9"/>
<path d="M2519.4 779L2532.28 799.64L2555.88 805.48L2540.28 824.12L2541.96 848.28L2519.4 839.24L2496.92 848.28L2498.6 824.12L2483 805.48L2506.6 799.64L2519.4 779Z" fill="white"/>
<path d="M2610.4 779L2623.28 799.64L2646.88 805.48L2631.28 824.12L2632.96 848.28L2610.4 839.24L2587.92 848.28L2589.6 824.12L2574 805.48L2597.6 799.64L2610.4 779Z" fill="white"/>
<path d="M2453.96 1924.72C2453.96 1939.6 2442.04 1949.52 2423.4 1951.12L2420.92 1963.36H2409.72L2412.2 1951.12C2403.04 1950.5 2394.19 1947.52 2386.52 1942.48L2393.96 1928.64C2400.19 1933.1 2407.46 1935.85 2415.08 1936.64L2418.92 1917.76C2408.52 1914.64 2397.08 1910.48 2397.08 1896.96C2397.08 1882.08 2409.32 1872.08 2428.28 1870.72L2430.76 1858.4H2441.96L2439.48 1870.8C2446.72 1871.37 2453.75 1873.56 2460.04 1877.2L2453.24 1891.04C2448.21 1887.81 2442.47 1885.83 2436.52 1885.28L2432.68 1904.88C2442.92 1907.84 2453.96 1911.84 2453.96 1924.72ZM2421.96 1901.68L2425.16 1885.68C2418.84 1886.88 2415.24 1890.4 2415.16 1894.64C2415.08 1898.88 2418.04 1900 2422.04 1901.68H2421.96ZM2435.8 1927.6C2435.8 1924.4 2433.24 1922.4 2429.32 1920.96L2426.28 1936.24C2432.44 1935.04 2435.88 1931.84 2435.88 1927.6H2435.8Z" fill="white"/>
<path d="M1887.08 597.92H1419.08C1336.77 597.92 1270.04 664.647 1270.04 746.96V2017.2C1270.04 2099.51 1336.77 2166.24 1419.08 2166.24H1887.08C1969.39 2166.24 2036.12 2099.51 2036.12 2017.2V746.96C2036.12 664.647 1969.39 597.92 1887.08 597.92Z" fill="#263238"/>
<path opacity="0.7" d="M1884.76 597.92H1421.4C1337.81 597.92 1270.04 665.686 1270.04 749.28V2014.88C1270.04 2098.47 1337.81 2166.24 1421.4 2166.24H1884.76C1968.35 2166.24 2036.12 2098.47 2036.12 2014.88V749.28C2036.12 665.686 1968.35 597.92 1884.76 597.92Z" fill="white"/>
<path d="M2036.12 674.88V986H1270.04V674.88C1270.04 654.469 1278.15 634.894 1292.58 620.461C1307.01 606.028 1326.59 597.92 1347 597.92H1959.16C1979.57 597.92 1999.15 606.028 2013.58 620.461C2028.01 634.894 2036.12 654.469 2036.12 674.88Z" fill="#90CAF9"/>
<path d="M2036.12 674.88V986H1270.04V674.88C1270.04 654.469 1278.15 634.894 1292.58 620.461C1307.01 606.028 1326.59 597.92 1347 597.92H1959.16C1979.57 597.92 1999.15 606.028 2013.58 620.461C2028.01 634.894 2036.12 654.469 2036.12 674.88Z" fill="#90CAF9"/>
<path d="M1689.84 1519.43C1716.42 1492.84 1716.42 1449.74 1689.84 1423.15C1663.25 1396.56 1620.14 1396.56 1593.56 1423.15C1566.97 1449.74 1566.97 1492.84 1593.56 1519.43C1620.14 1546.01 1663.25 1546.01 1689.84 1519.43Z" fill="#263238"/>
<path opacity="0.5" d="M1689.84 1519.43C1716.42 1492.84 1716.42 1449.74 1689.84 1423.15C1663.25 1396.56 1620.14 1396.56 1593.56 1423.15C1566.97 1449.74 1566.97 1492.84 1593.56 1519.43C1620.14 1546.01 1663.25 1546.01 1689.84 1519.43Z" fill="white"/>
<path d="M1661.84 1432.82L1603.17 1491.48L1621.45 1509.75L1680.11 1451.09L1661.84 1432.82Z" fill="white"/>
<path d="M1603.18 1451.16L1661.84 1509.83L1680.11 1491.55L1621.45 1432.89L1603.18 1451.16Z" fill="white"/>
<path d="M1644.84 1791.68C1682.84 1791.68 1713.64 1760.88 1713.64 1722.88C1713.64 1684.88 1682.84 1654.08 1644.84 1654.08C1606.84 1654.08 1576.04 1684.88 1576.04 1722.88C1576.04 1760.88 1606.84 1791.68 1644.84 1791.68Z" fill="#90CAF9"/>
<path d="M1694.12 1708L1654.52 1747.6L1636.04 1766.08L1617.56 1747.6L1636.04 1729.12L1675.64 1689.52L1694.12 1708Z" fill="white"/>
<path d="M1654.52 1747.6L1636.04 1766.08L1596.92 1726.88L1615.32 1708.4L1636.04 1729.12L1654.52 1747.6Z" fill="white"/>
<path d="M1813 1919.52H1493.16C1449.68 1919.52 1414.44 1954.76 1414.44 1998.24V2004.24C1414.44 2047.72 1449.68 2082.96 1493.16 2082.96H1813C1856.48 2082.96 1891.72 2047.72 1891.72 2004.24V1998.24C1891.72 1954.76 1856.48 1919.52 1813 1919.52Z" fill="#90CAF9"/>
<path d="M1517.88 2016.72C1517.88 2031.6 1505.96 2041.52 1487.24 2043.04L1484.84 2055.36H1473.64L1476.12 2043.04C1466.94 2042.46 1458.06 2039.51 1450.36 2034.48L1457.88 2020.64C1464.11 2025.1 1471.39 2027.85 1479 2028.64L1482.76 2009.76C1472.44 2006.64 1461 2002.48 1461 1988.96C1461 1974.08 1473.16 1964 1492.2 1962.72L1494.68 1950.4H1505.8L1503.4 1962.8C1510.65 1963.37 1517.67 1965.56 1523.96 1969.2L1517.08 1983.04C1512.08 1979.78 1506.38 1977.78 1500.44 1977.2L1496.52 1996.88C1506.84 1999.84 1517.88 2003.84 1517.88 2016.72ZM1485.88 1993.68L1489.08 1977.68C1482.68 1978.88 1479.16 1982.32 1479 1986.64C1478.84 1990.96 1481.88 1992 1485.96 1994L1485.88 1993.68ZM1499.72 2019.6C1499.72 2016.4 1497.16 2014.32 1493.24 2012.88L1490.2 2028.24C1496.28 2026.96 1499.8 2023.84 1499.8 2019.6H1499.72Z" fill="white"/>
<path d="M1842.6 1585.12H1447.16V1601.12H1842.6V1585.12Z" fill="#90CAF9"/>
<path d="M1842.6 1322.4H1447.16V1338.4H1842.6V1322.4Z" fill="#90CAF9"/>
<path d="M1842.6 1069.2H1447.16V1085.2H1842.6V1069.2Z" fill="#90CAF9"/>
<path d="M1689.87 1251.94C1716.46 1225.36 1716.46 1182.25 1689.87 1155.66C1663.28 1129.08 1620.18 1129.08 1593.59 1155.66C1567.01 1182.25 1567.01 1225.36 1593.59 1251.94C1620.18 1278.53 1663.28 1278.53 1689.87 1251.94Z" fill="#263238"/>
<path opacity="0.5" d="M1689.87 1251.94C1716.46 1225.36 1716.46 1182.25 1689.87 1155.66C1663.28 1129.08 1620.18 1129.08 1593.59 1155.66C1567.01 1182.25 1567.01 1225.36 1593.59 1251.94C1620.18 1278.53 1663.28 1278.53 1689.87 1251.94Z" fill="white"/>
<path d="M1661.87 1165.34L1603.21 1224L1621.48 1242.27L1680.14 1183.61L1661.87 1165.34Z" fill="white"/>
<path d="M1603.22 1183.61L1661.88 1242.27L1680.15 1224L1621.49 1165.34L1603.22 1183.61Z" fill="white"/>
<path d="M1639.4 878L1652.28 898.64L1675.88 904.48L1660.28 923.12L1661.96 947.28L1639.4 938.24L1616.92 947.28L1618.6 923.12L1603 904.48L1626.6 898.64L1639.4 878Z" fill="white"/>
<path d="M2641.72 3218.96L2703.08 3230.16L2749.48 3116.96L2682.44 3090.16L2641.72 3218.96Z" fill="#FFC2BC"/>
<path opacity="0.1" d="M2663.72 3147.12L2681.24 3094.48L2712.12 3102L2749.48 3116.96L2729.48 3166.24L2663.72 3147.12Z" fill="black"/>
<path d="M2629.72 3197.68C2629.72 3197.68 2627.32 3195.52 2624.2 3193.04C2621.08 3190.56 2619.16 3189.2 2616.2 3187.12C2610.48 3182.79 2603.72 3180.03 2596.6 3179.12C2594.38 3179.17 2592.24 3179.95 2590.52 3181.36C2589.52 3182.09 2588.78 3183.12 2588.42 3184.3C2588.06 3185.49 2588.09 3186.76 2588.52 3187.92C2593.47 3193.12 2600.04 3196.48 2607.16 3197.44L2612.84 3198.64C2618.13 3199.6 2623.47 3200.27 2628.84 3200.64C2629.16 3200.64 2629.47 3200.55 2629.74 3200.38C2630.01 3200.21 2630.22 3199.97 2630.36 3199.68C2630.53 3199.33 2630.56 3198.92 2630.44 3198.55C2630.32 3198.18 2630.06 3197.87 2629.72 3197.68ZM2616.92 3196.08C2605.4 3194.16 2592.92 3190.56 2591.56 3186.48C2591.56 3185.92 2591.08 3184.88 2592.84 3183.28C2593.33 3182.83 2593.92 3182.48 2594.55 3182.26C2595.18 3182.04 2595.85 3181.95 2596.52 3182C2597.62 3182.02 2598.72 3182.15 2599.8 3182.4C2607.21 3185.26 2614.13 3189.29 2620.28 3194.32C2621.48 3195.2 2622.6 3196.16 2623.72 3197.12C2621.56 3196.88 2619.24 3196.48 2617 3196.08H2616.92Z" fill="#90CAF9"/>
<path d="M2626.6 3172.48C2624.6 3169.99 2621.75 3168.34 2618.6 3167.84C2614.04 3167.12 2612.12 3168.88 2611.4 3170.56C2609.64 3174.16 2612.36 3180.88 2616.36 3187.12C2617.92 3189.52 2619.63 3191.82 2621.48 3194C2623.35 3196.23 2625.44 3198.27 2627.72 3200.08C2627.95 3200.17 2628.21 3200.17 2628.44 3200.08C2628.7 3200.16 2628.98 3200.16 2629.24 3200.08C2629.49 3200 2629.72 3199.85 2629.9 3199.65C2630.08 3199.46 2630.21 3199.22 2630.28 3198.96C2630.63 3196.6 2630.85 3194.22 2630.92 3191.84C2631.64 3185.09 2630.12 3178.29 2626.6 3172.48ZM2627.32 3195.44C2626.52 3194.64 2625.64 3193.84 2624.84 3192.88C2618.52 3185.92 2612.6 3175.2 2614.12 3171.52C2614.12 3171.52 2614.76 3170.08 2617.8 3170.56H2618.68C2620.67 3171.04 2622.44 3172.16 2623.72 3173.76C2626.76 3179.39 2628.12 3185.78 2627.64 3192.16C2627.56 3193.44 2627.48 3194.4 2627.32 3195.44Z" fill="#90CAF9"/>
<path d="M2637.8 3193.2L2711.96 3210.96C2713.27 3211.22 2714.45 3211.93 2715.3 3212.97C2716.15 3214 2716.61 3215.3 2716.6 3216.64L2714.36 3275.68C2714.18 3278.28 2712.97 3280.71 2711.01 3282.43C2709.05 3284.15 2706.49 3285.03 2703.88 3284.88C2703.16 3284.97 2702.44 3284.97 2701.72 3284.88C2675.08 3278.08 2651.72 3271.04 2618.36 3263.12C2579.08 3253.76 2587.88 3260.48 2541.56 3250.08C2513.64 3243.76 2516.68 3213.28 2528.92 3214.64C2584.92 3221.28 2594.44 3207.6 2620.28 3194.72C2625.77 3192.23 2631.96 3191.69 2637.8 3193.2Z" fill="#263238"/>
<path d="M3083.32 3230.08H3142.04L3159.4 3132.8L3087.56 3119.36L3083.32 3230.08Z" fill="#FFC2BC"/>
<path opacity="0.1" d="M3087.56 3119.36L3159.4 3132.8L3147.72 3198.32L3085.16 3195.76L3087.56 3119.36Z" fill="black"/>
<path d="M3172.04 3180.4L3066.6 3174.4L3063.4 3132.8L3181.4 3140.88L3172.04 3180.4Z" fill="#90CAF9"/>
<path opacity="0.5" d="M3172.04 3180.4L3066.6 3174.4L3063.4 3132.8L3181.4 3140.88L3172.04 3180.4Z" fill="white"/>
<path d="M3074.76 3231.6C3074.76 3231.6 3072.04 3230.08 3068.52 3228.32C3065 3226.56 3063.24 3225.84 3060.04 3224.64C3053.79 3221.59 3046.79 3220.39 3039.88 3221.2C3037.84 3221.71 3036.09 3223.01 3035 3224.8C3034.31 3225.8 3033.94 3226.99 3033.94 3228.2C3033.94 3229.41 3034.31 3230.6 3035 3231.6C3040.61 3235.54 3047.47 3237.27 3054.28 3236.48H3059.64C3064.5 3236.17 3069.33 3235.59 3074.12 3234.72C3074.41 3234.63 3074.68 3234.46 3074.89 3234.24C3075.1 3234.02 3075.25 3233.74 3075.32 3233.44C3075.43 3233.11 3075.43 3232.76 3075.33 3232.43C3075.23 3232.1 3075.03 3231.81 3074.76 3231.6ZM3062.68 3233.12C3051.8 3233.92 3040.04 3233.12 3037.48 3229.76C3037 3229.2 3036.6 3228.32 3037.48 3226.4C3037.78 3225.82 3038.22 3225.32 3038.74 3224.93C3039.27 3224.54 3039.88 3224.28 3040.52 3224.16C3041.5 3224.04 3042.5 3224.04 3043.48 3224.16C3051.01 3225.22 3058.31 3227.51 3065.08 3230.96C3066.42 3231.44 3067.7 3232.06 3068.92 3232.8L3062.68 3233.12Z" fill="#90CAF9"/>
<path d="M3075.72 3233.04C3075.49 3230.65 3075.11 3228.27 3074.6 3225.92C3073.42 3219.06 3070.22 3212.71 3065.4 3207.68C3064.23 3206.68 3062.86 3205.94 3061.39 3205.5C3059.91 3205.06 3058.37 3204.93 3056.84 3205.12C3052.44 3205.52 3051.16 3207.68 3051 3209.52C3050.28 3213.52 3054.6 3219.52 3060.04 3224.64C3061.93 3226.55 3063.96 3228.32 3066.12 3229.92C3068.36 3231.69 3070.81 3233.2 3073.4 3234.4C3073.61 3234.48 3073.83 3234.48 3074.04 3234.4C3074.3 3234.48 3074.58 3234.48 3074.84 3234.4C3075.1 3234.28 3075.32 3234.09 3075.48 3233.85C3075.63 3233.61 3075.72 3233.33 3075.72 3233.04ZM3053.88 3210C3053.88 3209.6 3053.88 3208.48 3057 3208.16H3057.8C3059.8 3208.12 3061.74 3208.84 3063.24 3210.16C3067.36 3215 3070.13 3220.86 3071.24 3227.12C3071.48 3228.12 3071.64 3229.14 3071.72 3230.16L3068.84 3228.24C3061.56 3222.72 3053.56 3213.68 3053.88 3210Z" fill="#90CAF9"/>
<path d="M3081 3225.28L3152.52 3224.88C3153.82 3224.88 3155.09 3225.33 3156.1 3226.14C3157.12 3226.96 3157.83 3228.09 3158.12 3229.36L3171.4 3287.44C3171.68 3288.66 3171.73 3289.92 3171.52 3291.16C3171.32 3292.39 3170.87 3293.57 3170.21 3294.64C3169.55 3295.7 3168.69 3296.62 3167.67 3297.35C3166.65 3298.08 3165.5 3298.6 3164.28 3298.88H3162.28C3136.52 3298.88 3113.56 3297.28 3081.48 3297.52C3043.64 3297.52 3053.24 3302.16 3008.76 3303.04C2981.96 3303.6 2976.76 3273.12 2988.28 3271.6C3040.28 3264.72 3045.56 3248.96 3065.56 3230.24C3069.94 3226.78 3075.42 3225.01 3081 3225.28Z" fill="#263238"/>
<path d="M2950.92 1792.88L2673.96 3088.88L2776.04 3116C2852.36 2948.96 2916.36 2778 2964.04 2644C2986.68 2580.56 2996.04 2520.88 3013.08 2464.96C3033.72 2398.48 3061.48 2337.36 3075.56 2281.52C3149.56 1989.2 3143.64 1842.8 3143.64 1842.8L3159.64 1804.24L2950.92 1792.88Z" fill="#263238"/>
<path opacity="0.3" d="M3121 2071.04C3111 2130 3096.52 2200.4 3075.8 2282.16C3069.08 2308.72 3024.04 2436.64 3013.32 2465.6C3000.84 2278.4 3043.64 1961.6 3043.64 1961.6L3121 2071.04Z" fill="black"/>
<path d="M3035.96 1799.52L3056.84 2511.52L3075.16 3135.52L3171.16 3142.16C3197.96 2989.44 3217.64 2850.96 3231.72 2726.16C3241 2644.64 3225.32 2585.04 3230.28 2515.2C3231.16 2503.6 3232.04 2491.68 3233.08 2479.52C3250.06 2279.55 3251.22 2078.55 3236.52 1878.4C3233.72 1840.24 3231.8 1814.4 3231.8 1814.4L3035.72 1789.36L3035.96 1799.52Z" fill="#263238"/>
<path d="M2762.52 3152.48L2661.56 3121.36L2668.44 3080.24L2781.08 3116.4L2762.52 3152.48Z" fill="#90CAF9"/>
<path opacity="0.5" d="M2762.52 3152.48L2661.56 3121.36L2668.44 3080.24L2781.08 3116.4L2762.52 3152.48Z" fill="white"/>
<path d="M3022.2 1347.92C3003.39 1375.77 2989.36 1406.57 2980.68 1439.04C2976.4 1453.67 2973.04 1468.55 2970.6 1483.6L2963.64 1502.72L2901.88 1478.16L2892.12 1474.32C2907.16 1406.56 2965.4 1345.28 3008.6 1346.32C3013.19 1346.18 3017.77 1346.72 3022.2 1347.92Z" fill="#90CAF9"/>
<path opacity="0.2" d="M3022.2 1347.92C3003.39 1375.77 2989.36 1406.57 2980.68 1439.04C2976.4 1453.67 2973.04 1468.55 2970.6 1483.6L2963.64 1502.72L2901.88 1478.16L2892.12 1474.32C2907.16 1406.56 2965.4 1345.28 3008.6 1346.32C3013.19 1346.18 3017.77 1346.72 3022.2 1347.92Z" fill="white"/>
<path d="M2945 1786.8C2952.44 1770.16 2951.48 1737.76 2976.04 1731.6C3008.68 1723.6 3035.56 1721.2 3164.04 1732.08C3224.68 1737.28 3238.12 1785.68 3236.04 1810.56C3235.8 1813.87 3234.67 1817.05 3232.76 1819.76L3230.2 1823.44C3224.2 1825.76 2949.24 1795.28 2946.52 1796.96C2945.36 1795.57 2944.61 1793.88 2944.34 1792.09C2944.07 1790.3 2944.3 1788.47 2945 1786.8Z" fill="#90CAF9"/>
<path opacity="0.2" d="M2945 1786.8C2952.44 1770.16 2951.48 1737.76 2976.04 1731.6C3008.68 1723.6 3035.56 1721.2 3164.04 1732.08C3224.68 1737.28 3238.12 1785.68 3236.04 1810.56C3235.8 1813.87 3234.67 1817.05 3232.76 1819.76L3230.2 1823.44C3224.2 1825.76 2949.24 1795.28 2946.52 1796.96C2945.36 1795.57 2944.61 1793.88 2944.34 1792.09C2944.07 1790.3 2944.3 1788.47 2945 1786.8Z" fill="white"/>
<path d="M3011.88 1347.44C3010.12 1350.72 2955.48 1356.4 2959.8 1595.44C2960.36 1626.24 2952.52 1691.44 2952.52 1691.44L2944.52 1711.36C2941.31 1719.45 2939.89 1728.13 2940.36 1736.82C2940.83 1745.51 2943.18 1753.99 2947.24 1761.68L2951.24 1769.12L3228.28 1797.28H3236.28C3236.28 1797.28 3254.12 1652.64 3277.96 1555.92C3285.96 1524.4 3293.96 1485.68 3293.96 1485.68C3288.33 1449.24 3285.66 1412.4 3285.96 1375.52C3285.96 1375.52 3285.96 1375.12 3285.96 1375.04C3252.39 1365.09 3218.14 1357.61 3183.48 1352.64C3146.67 1347.03 3109.51 1344.01 3072.28 1343.6C3037.64 1345.44 3011.96 1347.36 3011.88 1347.44Z" fill="#90CAF9"/>
<path d="M3183.16 1227.6C3173.24 1262.88 3160.84 1327.92 3183.96 1353.84L3166.44 1372.16C3159.45 1379.32 3150.65 1384.45 3140.97 1386.99C3131.29 1389.53 3121.1 1389.38 3111.5 1386.57C3101.89 1383.76 3093.23 1378.38 3086.45 1371.03C3079.67 1363.67 3075.02 1354.6 3073 1344.8C3113.56 1338.4 3105 1297.68 3112.36 1258.4L3183.16 1227.6Z" fill="#FFC2BC"/>
<path opacity="0.2" d="M3090.84 1218C3098.84 1246.16 3110.68 1291.44 3102.2 1322.72C3138.6 1325.92 3162.76 1292.88 3164.28 1282.32C3159.8 1269.88 3156.27 1257.13 3153.72 1244.16L3090.84 1218Z" fill="black"/>
<path d="M3193.88 1172.48C3189.48 1232.48 3189 1257.92 3158.36 1288.32C3112.28 1334.16 3039.56 1315.68 3025.88 1255.68C3013.56 1201.6 3022.76 1112.72 3081.88 1089.44C3094.86 1084.31 3108.93 1082.57 3122.77 1084.38C3136.6 1086.2 3149.75 1091.52 3160.96 1099.83C3172.17 1108.14 3181.08 1119.18 3186.84 1131.89C3192.6 1144.6 3195.02 1158.57 3193.88 1172.48Z" fill="#FFC2BC"/>
<path d="M3228.52 1144.64C3222.42 1167.32 3218.38 1190.51 3216.44 1213.92H3193.56C3191.5 1215.97 3190.05 1218.55 3189.39 1221.38C3188.72 1224.21 3188.87 1227.17 3189.8 1229.92C3185.94 1228.23 3182.66 1225.45 3180.36 1221.92C3178.71 1218.45 3177.89 1214.64 3177.96 1210.8C3177.39 1196.07 3175.82 1181.39 3173.24 1166.88C3161.48 1162.08 3147.88 1163.36 3136.92 1156.96C3112.25 1142.91 3090.8 1123.83 3073.96 1100.96C3064.86 1105.23 3056.76 1111.37 3050.21 1119C3043.66 1126.63 3038.8 1135.56 3035.96 1145.2C3033.3 1145.72 3030.54 1145.45 3028.04 1144.41C3025.53 1143.37 3023.39 1141.61 3021.88 1139.36C3018.97 1134.78 3017.34 1129.5 3017.16 1124.08C3015.56 1109.94 3019.2 1095.71 3027.4 1084.08C3033.45 1076.1 3042.27 1070.67 3052.12 1068.88C3056.3 1068.95 3060.48 1068.44 3064.52 1067.36C3068.68 1065.44 3072.52 1060.48 3076.52 1057.92C3085.82 1052.79 3096.04 1049.54 3106.6 1048.36C3117.15 1047.17 3127.84 1048.09 3138.04 1051.04C3163.37 1059.29 3186.29 1073.6 3204.84 1092.72C3215.32 1103.04 3232.44 1130.8 3228.52 1144.64Z" fill="#263238"/>
<path d="M3214.76 1230.16C3208.89 1240.2 3199.29 1247.51 3188.04 1250.48C3173.16 1254.24 3166.04 1240.88 3170.44 1226.96C3174.44 1214.4 3187.08 1197.6 3201.8 1199.68C3206.95 1200.6 3211.53 1203.52 3214.53 1207.81C3217.53 1212.1 3218.71 1217.41 3217.8 1222.56C3217.34 1225.28 3216.31 1227.87 3214.76 1230.16Z" fill="#FFC2BC"/>
<path d="M3101 1187.52C3101 1192.8 3098.04 1196.88 3094.68 1196.96C3091.32 1197.04 3088.52 1192.64 3088.52 1187.44C3088.52 1182.24 3091.48 1178.08 3094.84 1178C3098.2 1177.92 3101 1182.32 3101 1187.52Z" fill="#263238"/>
<path d="M3041.64 1186.88C3041.64 1192.16 3038.68 1196.24 3035.24 1196.32C3031.8 1196.4 3029.08 1192 3029.16 1186.72C3029.24 1181.44 3032.04 1177.36 3035.48 1177.28C3038.92 1177.2 3041.88 1181.52 3041.64 1186.88Z" fill="#263238"/>
<path d="M3065 1197.76C3060.16 1209.69 3053.73 1220.91 3045.88 1231.12C3048.54 1233.03 3051.59 1234.34 3054.81 1234.96C3058.02 1235.58 3061.34 1235.5 3064.52 1234.72L3065 1197.76Z" fill="#EC837E"/>
<path d="M3083.16 1252.48C3080.2 1253.75 3077.12 1254.72 3073.96 1255.36C3073.61 1255.43 3073.25 1255.36 3072.95 1255.17C3072.65 1254.97 3072.44 1254.67 3072.36 1254.32C3072.33 1253.99 3072.41 1253.65 3072.6 1253.37C3072.79 1253.09 3073.08 1252.89 3073.4 1252.8C3079.87 1251.61 3085.96 1248.91 3091.19 1244.92C3096.42 1240.93 3100.63 1235.77 3103.48 1229.84C3103.56 1229.51 3103.76 1229.23 3104.04 1229.05C3104.33 1228.87 3104.67 1228.81 3105 1228.88C3105.15 1228.9 3105.29 1228.95 3105.42 1229.02C3105.55 1229.1 3105.66 1229.2 3105.75 1229.32C3105.84 1229.44 3105.9 1229.57 3105.94 1229.72C3105.98 1229.86 3105.98 1230.01 3105.96 1230.16C3101.58 1240.3 3093.39 1248.32 3083.16 1252.48Z" fill="#263238"/>
<path d="M3121.8 1157.84C3121.46 1157.96 3121.08 1157.98 3120.73 1157.89C3120.38 1157.81 3120.05 1157.62 3119.8 1157.36C3117.42 1154.91 3114.48 1153.07 3111.23 1152C3107.99 1150.93 3104.53 1150.65 3101.16 1151.2C3100.57 1151.3 3099.96 1151.17 3099.46 1150.85C3098.95 1150.52 3098.59 1150.02 3098.44 1149.44C3098.32 1149.19 3098.26 1148.92 3098.25 1148.64C3098.25 1148.36 3098.3 1148.09 3098.4 1147.83C3098.51 1147.58 3098.67 1147.35 3098.87 1147.16C3099.06 1146.96 3099.3 1146.82 3099.56 1146.72C3103.63 1146.02 3107.8 1146.32 3111.73 1147.59C3115.66 1148.86 3119.22 1151.06 3122.12 1154C3122.56 1154.4 3122.84 1154.93 3122.93 1155.51C3123.02 1156.1 3122.9 1156.69 3122.6 1157.2C3122.52 1157.36 3122.41 1157.5 3122.27 1157.61C3122.13 1157.72 3121.97 1157.8 3121.8 1157.84Z" fill="#263238"/>
<path d="M3025.96 1160.64C3025.54 1160.81 3025.09 1160.85 3024.65 1160.77C3024.21 1160.68 3023.8 1160.47 3023.48 1160.16C3023.25 1159.93 3023.06 1159.66 3022.94 1159.35C3022.81 1159.05 3022.75 1158.73 3022.75 1158.4C3022.75 1158.07 3022.81 1157.75 3022.94 1157.45C3023.06 1157.14 3023.25 1156.87 3023.48 1156.64C3026.51 1152.9 3030.39 1149.95 3034.81 1148.04C3039.23 1146.13 3044.04 1145.32 3048.84 1145.68C3049.16 1145.7 3049.48 1145.78 3049.77 1145.93C3050.06 1146.07 3050.31 1146.28 3050.52 1146.52C3050.73 1146.77 3050.89 1147.06 3050.98 1147.36C3051.08 1147.67 3051.11 1148 3051.08 1148.32C3050.98 1148.99 3050.63 1149.6 3050.09 1150.02C3049.55 1150.44 3048.88 1150.63 3048.2 1150.56C3044.24 1150.32 3040.28 1151.04 3036.66 1152.65C3033.04 1154.27 3029.86 1156.73 3027.4 1159.84C3026.99 1160.22 3026.5 1160.5 3025.96 1160.64Z" fill="#263238"/>
<path d="M3174.2 1334.72L3196.36 1355.6C3196.36 1355.6 3116.36 1411.6 3115 1408C3109.49 1400.28 3103.48 1392.93 3097 1386L3174.2 1334.72Z" fill="#90CAF9"/>
<path d="M3093.32 1332.8L3065.08 1344C3065.08 1344 3069.88 1404.48 3072.36 1401.6C3080.3 1396.33 3088.58 1391.6 3097.16 1387.44L3093.32 1332.8Z" fill="#90CAF9"/>
<path opacity="0.2" d="M3174.2 1334.72L3196.36 1355.6C3196.36 1355.6 3116.36 1411.6 3115 1408C3109.49 1400.28 3103.48 1392.93 3097 1386L3174.2 1334.72Z" fill="white"/>
<path opacity="0.2" d="M3093.32 1332.8L3065.08 1344C3065.08 1344 3069.88 1404.48 3072.36 1401.6C3080.3 1396.33 3088.58 1391.6 3097.16 1387.44L3093.32 1332.8Z" fill="white"/>
<path d="M3078.28 1582.48C3083.4 1590.08 3125.08 1582.48 3125.08 1582.48L3160.84 1584.96C3162.77 1584.98 3164.64 1584.31 3166.11 1583.06C3167.58 1581.81 3168.55 1580.07 3168.84 1578.16L3178.76 1532.96C3178.9 1531.91 3178.63 1530.85 3178 1530C3177.37 1529.15 3176.44 1528.58 3175.4 1528.4L3147.16 1523.36C3135.8 1521.28 3124.08 1523.75 3114.52 1530.24L3084.6 1550.56L3078.28 1582.48Z" fill="#FFC2BC"/>
<path d="M3086.12 1548.32L3084.28 1583.12C3084.28 1583.12 2923.48 1643.52 2877.4 1617.12C2847.16 1599.84 2877.4 1526.56 2901.88 1478L2963.64 1501.12L2943.24 1554L3086.12 1548.32Z" fill="#FFC2BC"/>
<g opacity="0.1">
<path d="M3078.28 1582.48C3083.4 1590.08 3125.08 1582.48 3125.08 1582.48L3160.84 1584.96C3162.77 1584.98 3164.64 1584.31 3166.11 1583.06C3167.58 1581.81 3168.55 1580.07 3168.84 1578.16L3178.76 1532.96C3178.9 1531.91 3178.63 1530.85 3178 1530C3177.37 1529.15 3176.44 1528.58 3175.4 1528.4L3147.16 1523.36C3135.8 1521.28 3124.08 1523.75 3114.52 1530.24L3084.6 1550.56L3078.28 1582.48Z" fill="black"/>
<path d="M3086.12 1548.32L3084.28 1583.12C3084.28 1583.12 2923.48 1643.52 2877.4 1617.12C2847.16 1599.84 2877.4 1526.56 2901.88 1478L2963.64 1501.12L2943.24 1554L3086.12 1548.32Z" fill="black"/>
</g>
<path d="M3276.44 1401.44L3157.88 1564.64L2984.2 1532.64L2976.2 1566.88C2976.2 1566.88 3144.2 1658.4 3190.36 1631.6C3236.52 1604.8 3313.56 1442.56 3313.56 1442.56L3276.44 1401.44Z" fill="#FFC2BC"/>
<path d="M2976.36 1566.8C2971.16 1574.32 2929.56 1566.24 2929.56 1566.24L2893.8 1568.24C2891.85 1568.26 2889.95 1567.56 2888.48 1566.28C2887.01 1564.99 2886.05 1563.22 2885.8 1561.28L2876.44 1516.08C2876.3 1515.03 2876.57 1513.97 2877.2 1513.12C2877.83 1512.27 2878.76 1511.7 2879.8 1511.52L2908.2 1506.8C2919.6 1504.89 2931.29 1507.53 2940.76 1514.16L2984.04 1533.76L2976.36 1566.8Z" fill="#FFC2BC"/>
<path d="M3298.92 1386C3326.84 1418.96 3318.68 1500.56 3278.44 1552.4L3180.44 1494.8C3180.44 1494.8 3237.96 1397.68 3269.64 1378.56C3283.24 1370.56 3289 1374.08 3298.92 1386Z" fill="#90CAF9"/>
<path opacity="0.2" d="M3298.92 1386C3326.84 1418.96 3318.68 1500.56 3278.44 1552.4L3180.44 1494.8C3180.44 1494.8 3237.96 1397.68 3269.64 1378.56C3283.24 1370.56 3289 1374.08 3298.92 1386Z" fill="white"/>
<path d="M2416.6 3240.64L2478.76 3249.2L2542.28 3125.2L2473.48 3113.76L2416.6 3240.64Z" fill="#FFC2BC"/>
<path opacity="0.2" d="M2473.48 3113.76L2542.28 3125.2L2507.64 3192.64L2442.52 3182.88L2473.48 3113.76Z" fill="black"/>
<path d="M2497 3226L2420.12 3221.84C2418.85 3221.73 2417.59 3222.08 2416.56 3222.83C2415.53 3223.58 2414.81 3224.68 2414.52 3225.92L2398.92 3281.92C2398.59 3283.09 2398.5 3284.32 2398.65 3285.52C2398.8 3286.73 2399.19 3287.9 2399.79 3288.95C2400.39 3290.01 2401.2 3290.94 2402.16 3291.68C2403.13 3292.42 2404.23 3292.97 2405.4 3293.28H2407.56C2432.44 3294.24 2450.36 3293.68 2481.88 3295.36C2501.16 3296.4 2559.08 3301.6 2585.88 3303.36C2612.68 3305.12 2617.32 3278.64 2606.6 3275.68C2558.6 3262.4 2522.6 3245.36 2507.64 3230.8C2504.86 3227.86 2501.04 3226.14 2497 3226Z" fill="#263238"/>
<path d="M2500.76 3234C2500.46 3233.93 2500.19 3233.75 2500 3233.5C2499.81 3233.26 2499.71 3232.95 2499.72 3232.64C2499.66 3232.35 2499.7 3232.06 2499.83 3231.79C2499.96 3231.53 2500.17 3231.32 2500.44 3231.2C2502.76 3229.92 2523.96 3218.48 2530.76 3222.4C2531.53 3222.84 2532.15 3223.48 2532.56 3224.26C2532.97 3225.04 2533.15 3225.92 2533.08 3226.8C2533.26 3228.33 2533.02 3229.89 2532.38 3231.3C2531.75 3232.7 2530.75 3233.92 2529.48 3234.8C2525.79 3237.03 2521.43 3237.91 2517.16 3237.28C2511.59 3236.83 2506.08 3235.73 2500.76 3234ZM2527.24 3225.04C2519.53 3226.03 2512.07 3228.45 2505.24 3232.16C2512.45 3235.08 2520.51 3235.08 2527.72 3232.16C2528.51 3231.54 2529.13 3230.73 2529.54 3229.81C2529.94 3228.89 2530.11 3227.88 2530.04 3226.88C2530.04 3226.53 2529.97 3226.19 2529.84 3225.88C2529.7 3225.56 2529.5 3225.27 2529.24 3225.04C2528.58 3224.88 2527.9 3224.88 2527.24 3225.04Z" fill="#90CAF9"/>
<path d="M2500.6 3235.04C2500.4 3234.86 2500.24 3234.63 2500.13 3234.39C2500.02 3234.14 2499.96 3233.87 2499.96 3233.6C2499.96 3232.64 2502.2 3214.56 2509.88 3209.04C2510.79 3208.31 2511.85 3207.79 2512.98 3207.51C2514.12 3207.24 2515.3 3207.21 2516.44 3207.44C2517.57 3207.49 2518.64 3207.93 2519.48 3208.69C2520.31 3209.45 2520.85 3210.48 2521 3211.6C2521.88 3218.32 2508.52 3231.6 2501.8 3234.8H2501.08L2500.6 3235.04ZM2515.16 3209.76C2513.94 3209.76 2512.75 3210.18 2511.8 3210.96C2507.03 3216.39 2504.01 3223.14 2503.16 3230.32C2509.96 3225.84 2518.6 3215.68 2517.96 3211.52C2517.96 3211.12 2517.96 3210 2515.96 3209.84H2515.16V3209.76Z" fill="#90CAF9"/>
<path d="M2085 2880.48L2130.52 2882.16C2206.33 2878.63 2281.6 2867.46 2355.16 2848.8C2421 2832.8 2530.12 2782.4 2530.12 2782.4C2495 2932.64 2431.72 3161.6 2431.72 3161.6L2529.48 3172.88C2529.48 3172.88 2784.04 2687.92 2671.72 2632.4C2571.32 2578.8 2182.92 2614 2182.92 2614L2142.92 2572L1871.48 2594C1871.48 2594 1819.56 2880.08 2085 2880.48Z" fill="#263238"/>
<path d="M2535.72 3192.64L2423.88 3158.72L2437.32 3112.08L2558.52 3158.24L2535.72 3192.64Z" fill="#90CAF9"/>
<path opacity="0.5" d="M2535.72 3192.64L2423.88 3158.72L2437.32 3112.08L2558.52 3158.24L2535.72 3192.64Z" fill="white"/>
<path opacity="0.4" d="M2118.68 2774.4C2145.96 2854.4 2353.24 2846.4 2382.12 2842.56C2211.48 2875.44 2179.32 2879.92 2130.52 2882.16L2085 2880.48C2070.78 2880.47 2056.59 2879.43 2042.52 2877.36C2063.64 2739.84 2085.72 2677.84 2118.68 2774.4Z" fill="black"/>
<path d="M1559.88 3102.48L1551.88 3165.36L1696.92 3189.04L1704.92 3126.08L1559.88 3102.48Z" fill="#FFC2BC"/>
<path d="M1564.76 3174.08L1609.88 3111.28C1610.6 3110.26 1610.96 3109.02 1610.89 3107.77C1610.81 3106.52 1610.32 3105.33 1609.48 3104.4L1571 3061.28C1569.33 3059.45 1567.01 3058.35 1564.53 3058.23C1562.06 3058.11 1559.64 3058.98 1557.8 3060.64C1557.35 3061.16 1557 3061.76 1556.76 3062.4C1542.52 3082.88 1533.32 3098.24 1514.92 3123.92C1503.72 3139.52 1468.04 3185.68 1452.6 3207.2C1437.16 3228.72 1456.44 3247.2 1464.68 3239.2C1501.88 3205.76 1535.24 3184.56 1555.8 3180C1559.42 3179.2 1562.61 3177.09 1564.76 3174.08Z" fill="#263238"/>
<path d="M1555.08 3172.48C1555.33 3172.32 1555.62 3172.24 1555.92 3172.24C1556.22 3172.24 1556.51 3172.32 1556.76 3172.48C1557.03 3172.6 1557.24 3172.81 1557.38 3173.07C1557.51 3173.33 1557.54 3173.63 1557.48 3173.92C1557.48 3176.64 1555.64 3200.64 1548.68 3204.16C1547.94 3204.63 1547.08 3204.88 1546.2 3204.88C1545.32 3204.88 1544.46 3204.63 1543.72 3204.16C1542.37 3203.46 1541.22 3202.43 1540.39 3201.15C1539.56 3199.87 1539.08 3198.4 1539 3196.88C1539.09 3192.56 1540.67 3188.4 1543.48 3185.12C1546.88 3180.5 1550.77 3176.27 1555.08 3172.48ZM1554.28 3177.28C1547.88 3181.78 1543.47 3188.57 1541.96 3196.24C1542.08 3197.25 1542.42 3198.21 1542.98 3199.06C1543.54 3199.91 1544.28 3200.61 1545.16 3201.12C1546.2 3201.68 1547 3201.6 1547.16 3201.12C1547.81 3200.85 1548.34 3200.37 1548.68 3199.76C1551.92 3192.68 1553.81 3185.05 1554.28 3177.28Z" fill="#90CAF9"/>
<path d="M1555.16 3172C1555.65 3171.8 1556.19 3171.8 1556.68 3172C1557.4 3172.64 1571.24 3184.56 1571.8 3194C1571.91 3195.13 1571.77 3196.28 1571.39 3197.35C1571.02 3198.43 1570.42 3199.41 1569.64 3200.24C1568.99 3201.18 1568.04 3201.86 1566.94 3202.16C1565.85 3202.47 1564.68 3202.38 1563.64 3201.92C1557.4 3199.04 1553.48 3180.64 1554.44 3173.28V3172.64C1554.51 3172.49 1554.6 3172.35 1554.73 3172.24C1554.85 3172.13 1555 3172.05 1555.16 3172ZM1569.24 3194.72C1567.18 3187.78 1563.09 3181.62 1557.48 3177.04C1557.52 3185.27 1560.34 3193.25 1565.48 3199.68C1565.7 3199.8 1565.95 3199.87 1566.2 3199.9C1566.46 3199.92 1566.71 3199.88 1566.95 3199.8C1567.19 3199.72 1567.42 3199.59 1567.6 3199.41C1567.79 3199.24 1567.94 3199.03 1568.04 3198.8V3198.08C1568.72 3197.09 1569.05 3195.91 1569 3194.72H1569.24Z" fill="#90CAF9"/>
<path opacity="0.2" d="M1704.84 3126L1696.84 3189.04L1622.04 3176.8L1630.12 3113.84L1704.84 3126Z" fill="black"/>
<path d="M2124.44 2714.88C2146.52 2749.84 2222.84 3171.6 2080.36 3265.84C1975.4 3335.04 1645 3204.08 1645 3204.08L1655.56 3099.36C1655.56 3099.36 1923.96 3149.6 1957.16 3122.56C1990.36 3095.52 1879.56 2802.56 1874.12 2734C1868.68 2665.44 2124.44 2714.88 2124.44 2714.88Z" fill="#263238"/>
<path d="M1637.64 3211.68L1641.24 3094.8L1689.72 3095.68L1676.76 3224.72L1637.64 3211.68Z" fill="#90CAF9"/>
<path opacity="0.5" d="M1637.64 3211.68L1641.24 3094.8L1689.72 3095.68L1676.76 3224.72L1637.64 3211.68Z" fill="white"/>
<path d="M2154.36 2583.04C2145.8 2567.04 2119.72 2535.6 2094.6 2531.2C2061.24 2525.36 2054.12 2524.08 1925.4 2543.84C1864.68 2553.12 1860.28 2600.8 1863.64 2625.52C1864.1 2628.83 1865.45 2631.96 1867.56 2634.56L1870.36 2638C1876.6 2639.92 2150.36 2591.84 2153.16 2593.36C2154.3 2591.92 2155.01 2590.19 2155.22 2588.37C2155.43 2586.55 2155.13 2584.7 2154.36 2583.04Z" fill="#90CAF9"/>
<path opacity="0.2" d="M2154.36 2583.04C2145.8 2567.04 2119.72 2535.6 2094.6 2531.2C2061.24 2525.36 2054.12 2524.08 1925.4 2543.84C1864.68 2553.12 1860.28 2600.8 1863.64 2625.52C1864.1 2628.83 1865.45 2631.96 1867.56 2634.56L1870.36 2638C1876.6 2639.92 2150.36 2591.84 2153.16 2593.36C2154.3 2591.92 2155.01 2590.19 2155.22 2588.37C2155.43 2586.55 2155.13 2584.7 2154.36 2583.04Z" fill="white"/>
<path d="M2451.48 2122C2469.23 2120.7 2486.42 2115.22 2501.64 2106C2512.13 2098.64 2521.08 2089.29 2527.96 2078.48C2530.16 2075.25 2531.1 2071.32 2530.6 2067.44C2529.45 2058.36 2525.85 2049.76 2520.2 2042.56C2518.65 2040.69 2516.44 2039.48 2514.03 2039.2C2511.61 2038.92 2509.18 2039.58 2507.24 2041.04C2497.96 2047.68 2487.4 2054.64 2479.08 2061.12C2455.64 2065.52 2433.4 2087.12 2431.48 2110.88C2437.8 2114 2445.08 2118.64 2451.48 2122Z" fill="#FFC2BC"/>
<path d="M2461.72 2090.56L2468.12 2121.52C2468.12 2121.52 2314.12 2230.56 2284.76 2232.16C2264.6 2233.28 2241.24 2234.32 2217.08 2235.12C2189.4 2236.08 2160.52 2236.64 2134.28 2236.48C2086.84 2236.08 2048.04 2232.96 2040.12 2224.64C2016.12 2199.28 2041.8 2159.28 2079.32 2159.68C2128.2 2160.16 2213.64 2171.76 2294.76 2168.64C2322.52 2167.6 2461.72 2090.56 2461.72 2090.56Z" fill="#FFC2BC"/>
<path opacity="0.2" d="M2217 2235.12C2189.32 2236.08 2160.44 2236.64 2134.2 2236.48L2105 2194.72C2143.63 2204.29 2181.16 2217.83 2217 2235.12Z" fill="black"/>
<path d="M2121 2150.72C2121 2150.72 2053.08 2137.84 2041.56 2170.64C2030.04 2203.44 2060.28 2261.84 2154.68 2251.6L2164.28 2151.76L2121 2150.72Z" fill="#90CAF9"/>
<path opacity="0.2" d="M2121 2150.72C2121 2150.72 2053.08 2137.84 2041.56 2170.64C2030.04 2203.44 2060.28 2261.84 2154.68 2251.6L2164.28 2151.76L2121 2150.72Z" fill="white"/>
<path d="M2069.08 2151.52C2070.92 2154.72 2122.6 2222.64 2129.8 2275.6C2135 2313.84 2129.8 2355.6 2129.08 2398.16C2128.52 2428.88 2139.4 2494.16 2139.4 2494.16L2147.96 2513.84C2151.42 2521.82 2153.11 2530.46 2152.92 2539.16C2152.73 2547.86 2150.65 2556.42 2146.84 2564.24L2143.08 2572.24L1867 2609.2L1865.32 2608.32C1865.32 2608.32 1840.76 2587.76 1848.92 2561.6V2541.36C1859.96 2505.28 1856.92 2458.8 1829.56 2362.88C1820.84 2331.6 1811.16 2293.2 1811.16 2293.2C1818.44 2224.08 1795.96 2189.2 1795.72 2189.2C1795.48 2189.2 1795.72 2188.8 1795.72 2188.72C1828.95 2177.75 1862.94 2169.2 1897.4 2163.12C1934.01 2156.27 1971.07 2152.05 2008.28 2150.48C2043.32 2150.4 2069 2151.44 2069.08 2151.52Z" fill="#90CAF9"/>
<path d="M2041.8 1908.24C2059.16 1928.32 2062.92 1956.24 2070.28 1982.08C2076.28 2002.88 2089.32 2045.12 2081.24 2065.12C2072.04 2087.92 2026.76 2068.64 2011.72 2088C1951.88 2165.36 1915.72 2132.08 1892.76 2112.96C1881.24 2103.52 1837.48 2094.16 1826.2 2084.48C1814.92 2074.8 1795.64 2069.92 1803.96 2032.32C1837.24 1881.68 1892.52 1872.8 1966.28 1876.88C1994.52 1878.4 2022.76 1886.16 2041.8 1908.24Z" fill="#263238"/>
<path d="M1894.04 2037.2C1905.16 2072.16 1919.64 2136.72 1897.32 2163.44L1915.4 2181.2C1922.61 2188.24 1931.61 2193.16 1941.42 2195.45C1951.23 2197.73 1961.48 2197.28 1971.05 2194.15C1980.63 2191.01 1989.16 2185.31 1995.72 2177.67C2002.29 2170.03 2006.63 2160.74 2008.28 2150.8C1967.56 2145.76 1974.84 2104.8 1966.2 2065.68L1894.04 2037.2Z" fill="#FFC2BC"/>
<path opacity="0.2" d="M1986.04 2024.4C1978.52 2052.8 1968.6 2098.48 1978.04 2129.44C1941.72 2133.84 1916.52 2101.52 1914.76 2091.04C1918.82 2078.47 1921.89 2065.6 1923.96 2052.56L1986.04 2024.4Z" fill="black"/>
<path d="M1881.64 1982.4C1887.88 2042.24 1889.24 2067.68 1920.84 2097.12C1968.36 2141.44 2040.84 2120.64 2052.2 2060.24C2062.76 2005.84 2050.76 1917.28 1991.08 1895.84C1977.94 1891.07 1963.79 1889.73 1949.99 1891.97C1936.19 1894.2 1923.19 1899.93 1912.22 1908.6C1901.25 1917.27 1892.69 1928.61 1887.34 1941.52C1881.98 1954.44 1880.02 1968.51 1881.64 1982.4Z" fill="#FFC2BC"/>
<path d="M1896.04 2013.84C1900.72 2021.85 1903.21 2030.96 1903.24 2040.24C1905.87 2038.23 1907.75 2035.39 1908.57 2032.19C1909.4 2028.98 1909.13 2025.59 1907.8 2022.56C1905.88 2016.24 1902.6 2013.2 1896.04 2013.84Z" fill="#263238"/>
<path d="M1862.52 2040.72C1868.74 2050.55 1878.56 2057.56 1889.88 2060.24C1904.92 2063.52 1911.64 2049.92 1906.76 2036.24C1902.44 2023.84 1889.24 2007.44 1874.76 2009.92C1869.63 2011.01 1865.15 2014.1 1862.29 2018.49C1859.42 2022.88 1858.41 2028.23 1859.48 2033.36C1859.98 2036 1861.01 2038.5 1862.52 2040.72Z" fill="#FFC2BC"/>
<path d="M1967.24 1996.4C1967.24 2001.68 1970.44 2005.68 1973.8 2005.68C1977.16 2005.68 1979.88 2001.12 1979.64 1995.92C1979.4 1990.72 1976.36 1986.64 1973 1986.72C1969.64 1986.8 1967 1991.2 1967.24 1996.4Z" fill="#263238"/>
<path d="M2026.52 1994C2026.52 1999.2 2029.72 2003.28 2033.16 2003.2C2036.6 2003.12 2039.24 1998.72 2038.92 1993.44C2038.6 1988.16 2035.8 1984.16 2032.36 1984.16C2028.92 1984.16 2026.04 1988.56 2026.52 1994Z" fill="#263238"/>
<path d="M2030.84 1984.48L2043.16 1980.64C2043.16 1980.64 2037.32 1990.16 2030.84 1984.48Z" fill="#263238"/>
<path d="M2011.24 2003.6C2016.45 2015.37 2023.23 2026.38 2031.4 2036.32C2028.8 2038.33 2025.79 2039.75 2022.59 2040.48C2019.38 2041.21 2016.06 2041.24 2012.84 2040.56L2011.24 2003.6Z" fill="#EC837E"/>
<path d="M1994.84 2058.88C1997.83 2060.06 2000.95 2060.92 2004.12 2061.44C2004.29 2061.47 2004.46 2061.48 2004.63 2061.44C2004.8 2061.41 2004.96 2061.34 2005.1 2061.24C2005.24 2061.15 2005.36 2061.02 2005.46 2060.88C2005.55 2060.73 2005.61 2060.57 2005.64 2060.4C2005.67 2060.07 2005.59 2059.73 2005.4 2059.45C2005.21 2059.17 2004.92 2058.97 2004.6 2058.88C1998.09 2057.93 1991.89 2055.44 1986.54 2051.61C1981.18 2047.78 1976.81 2042.73 1973.8 2036.88C1973.69 2036.57 1973.48 2036.31 1973.21 2036.13C1972.93 2035.96 1972.61 2035.88 1972.28 2035.92C1971.98 2035.98 1971.71 2036.15 1971.53 2036.41C1971.35 2036.66 1971.27 2036.97 1971.32 2037.28C1976.05 2047.27 1984.49 2055.02 1994.84 2058.88Z" fill="#263238"/>
<path d="M1953 1957.52C1953.35 1957.62 1953.73 1957.62 1954.08 1957.52C1954.43 1957.42 1954.75 1957.23 1955 1956.96C1957.31 1954.45 1960.18 1952.54 1963.38 1951.37C1966.59 1950.2 1970.02 1949.81 1973.4 1950.24C1974 1950.32 1974.61 1950.17 1975.11 1949.83C1975.61 1949.5 1975.97 1948.99 1976.12 1948.4C1976.22 1948.14 1976.27 1947.86 1976.26 1947.58C1976.25 1947.3 1976.18 1947.02 1976.06 1946.77C1975.94 1946.51 1975.77 1946.29 1975.56 1946.1C1975.35 1945.91 1975.11 1945.77 1974.84 1945.68C1970.75 1945.11 1966.58 1945.54 1962.69 1946.93C1958.81 1948.32 1955.32 1950.64 1952.52 1953.68C1952.08 1954.08 1951.8 1954.62 1951.73 1955.21C1951.66 1955.79 1951.79 1956.39 1952.12 1956.88C1952.21 1957.05 1952.33 1957.19 1952.48 1957.31C1952.64 1957.42 1952.81 1957.49 1953 1957.52Z" fill="#263238"/>
<path d="M2049 1957.28C2049.43 1957.41 2049.88 1957.43 2050.32 1957.33C2050.75 1957.23 2051.15 1957.02 2051.48 1956.72C2051.95 1956.24 2052.22 1955.59 2052.22 1954.92C2052.22 1954.25 2051.95 1953.6 2051.48 1953.12C2048.34 1949.48 2044.36 1946.65 2039.89 1944.88C2035.42 1943.11 2030.58 1942.45 2025.8 1942.96C2025.48 1942.99 2025.16 1943.08 2024.88 1943.24C2024.59 1943.39 2024.34 1943.6 2024.14 1943.86C2023.94 1944.11 2023.79 1944.4 2023.7 1944.72C2023.62 1945.03 2023.6 1945.36 2023.64 1945.68C2023.76 1946.35 2024.14 1946.94 2024.69 1947.33C2025.25 1947.72 2025.93 1947.88 2026.6 1947.76C2030.55 1947.44 2034.52 1948.06 2038.19 1949.56C2041.86 1951.06 2045.12 1953.4 2047.72 1956.4C2048.03 1956.84 2048.48 1957.15 2049 1957.28Z" fill="#263238"/>
<path d="M1971.56 1987.04L1983.88 1983.12C1983.88 1983.12 1977.96 1992.96 1971.56 1987.04Z" fill="#263238"/>
<path d="M1938.84 1923.92C1956.52 1945.52 1892.6 2002 1896.04 2013.84C1878.68 2014.96 1865.8 1978.56 1864.92 1959.68C1864.03 1940.61 1869.99 1921.86 1881.72 1906.8C1889.16 1897.28 1902.92 1895.52 1915 1893.92C1918.5 1893.18 1922.14 1893.45 1925.48 1894.72C1927.49 1895.81 1929.2 1897.38 1930.46 1899.29C1931.72 1901.21 1932.48 1903.4 1932.68 1905.68C1933.56 1912.09 1935.65 1918.28 1938.84 1923.92Z" fill="#263238"/>
<path d="M1915 1893.92C1926.52 1903.06 1935.01 1915.46 1939.36 1929.51C1943.72 1943.56 1943.73 1958.59 1939.4 1972.64C1947.16 1966.32 1953.57 1958.51 1958.28 1949.68C1960.75 1945.08 1961.9 1939.88 1961.59 1934.67C1961.28 1929.46 1959.52 1924.43 1956.52 1920.16C1964.96 1926.38 1972.09 1934.22 1977.49 1943.21C1982.88 1952.21 1986.44 1962.18 1987.96 1972.56C1991.57 1969.9 1994.56 1966.48 1996.7 1962.54C1998.84 1958.6 2000.09 1954.24 2000.36 1949.76C2000.74 1945.36 2000.14 1940.93 1998.62 1936.78C1997.1 1932.64 1994.69 1928.88 1991.56 1925.76C1997.71 1931.14 2002.4 1937.99 2005.19 1945.67C2007.99 1953.35 2008.8 1961.6 2007.56 1969.68C2011.64 1966.53 2014.9 1962.44 2017.06 1957.76C2019.21 1953.08 2020.21 1947.95 2019.96 1942.8C2019.52 1937.3 2017.85 1931.96 2015.08 1927.19C2012.32 1922.41 2008.52 1918.32 2003.96 1915.2C2012.36 1919.83 2019.39 1926.58 2024.36 1934.78C2029.33 1942.98 2032.06 1952.34 2032.28 1961.92C2050.52 1944.24 2044.36 1918.88 2021.96 1904.96C1989.14 1887.38 1950.72 1883.42 1915 1893.92Z" fill="#263238"/>
<path d="M1906.2 2144L1884.76 2165.52C1884.76 2165.52 1966.52 2218.96 1967.72 2215.36C1972.94 2207.36 1978.69 2199.72 1984.92 2192.48L1906.2 2144Z" fill="#90CAF9"/>
<path d="M1987 2139.44L2015.56 2149.84C2015.56 2149.84 2012.76 2210.4 2010.12 2207.6C2002.06 2202.51 1993.67 2197.96 1985 2194L1987 2139.44Z" fill="#90CAF9"/>
<path opacity="0.2" d="M1906.2 2144L1884.76 2165.52C1884.76 2165.52 1966.52 2218.96 1967.72 2215.36C1972.94 2207.36 1978.69 2199.72 1984.92 2192.48L1906.2 2144Z" fill="white"/>
<path opacity="0.2" d="M1987 2139.44L2015.56 2149.84C2015.56 2149.84 2012.76 2210.4 2010.12 2207.6C2002.06 2202.51 1993.67 2197.96 1985 2194L1987 2139.44Z" fill="white"/>
<path d="M1466.6 2396.32L1397.72 2402.88L1421.72 2456.96C1440.4 2448.77 1458.27 2438.84 1475.08 2427.28L1466.6 2396.32Z" fill="#FFC2BC"/>
<path d="M1372.28 2444.24L1373.4 2446.24C1375.51 2449.9 1378.57 2452.91 1382.27 2454.95C1385.96 2457 1390.14 2458 1394.36 2457.84L1421.8 2456.96L1397.8 2402.88L1381 2412.48C1378.33 2413.98 1375.99 2416 1374.11 2418.42C1372.22 2420.83 1370.84 2423.59 1370.03 2426.54C1369.22 2429.5 1369 2432.58 1369.39 2435.62C1369.77 2438.65 1370.76 2441.58 1372.28 2444.24Z" fill="#FFC2BC"/>
<path d="M1482.04 2425.28C1482.04 2425.28 1602.44 2436.32 1715.16 2383.12C1715.16 2383.12 1790.92 2320 1831.88 2266.96C1892.68 2188.08 1836.12 2164.32 1791.24 2215.2C1757.96 2252.96 1680.84 2325.92 1680.84 2325.92C1583.96 2381.92 1458.12 2399.36 1458.12 2399.36C1433.72 2434.56 1482.04 2425.28 1482.04 2425.28Z" fill="#FFC2BC"/>
<path d="M1866.76 2185.2C1895.4 2208.16 1852.68 2268.16 1797 2340.32L1727.96 2250.72C1727.96 2250.72 1815.56 2144.16 1866.76 2185.2Z" fill="#90CAF9"/>
<path opacity="0.2" d="M1866.76 2185.2C1895.4 2208.16 1852.68 2268.16 1797 2340.32L1727.96 2250.72C1727.96 2250.72 1815.56 2144.16 1866.76 2185.2Z" fill="white"/>
</g>
<path d="M1561.23 787.696C1561.03 785.634 1560.15 784.031 1558.6 782.889C1557.05 781.747 1554.94 781.176 1552.28 781.176C1550.47 781.176 1548.95 781.432 1547.7 781.943C1546.46 782.438 1545.51 783.128 1544.84 784.014C1544.19 784.901 1543.87 785.906 1543.87 787.031C1543.84 787.969 1544.03 788.787 1544.46 789.486C1544.9 790.185 1545.51 790.79 1546.27 791.301C1547.04 791.795 1547.93 792.23 1548.93 792.605C1549.94 792.963 1551.01 793.27 1552.15 793.526L1556.86 794.651C1559.14 795.162 1561.24 795.844 1563.15 796.696C1565.06 797.548 1566.71 798.597 1568.11 799.841C1569.51 801.085 1570.59 802.551 1571.36 804.239C1572.14 805.926 1572.54 807.861 1572.56 810.043C1572.54 813.247 1571.72 816.026 1570.1 818.378C1568.5 820.713 1566.18 822.528 1563.15 823.824C1560.13 825.102 1556.49 825.741 1552.23 825.741C1548 825.741 1544.32 825.094 1541.18 823.798C1538.07 822.503 1535.63 820.585 1533.87 818.045C1532.13 815.489 1531.22 812.327 1531.14 808.56H1541.85C1541.97 810.315 1542.47 811.781 1543.36 812.957C1544.26 814.116 1545.46 814.994 1546.96 815.591C1548.48 816.17 1550.19 816.46 1552.1 816.46C1553.98 816.46 1555.61 816.187 1556.99 815.642C1558.38 815.097 1559.47 814.338 1560.23 813.366C1561 812.395 1561.38 811.278 1561.38 810.017C1561.38 808.841 1561.03 807.852 1560.34 807.051C1559.65 806.25 1558.65 805.568 1557.32 805.006C1556.01 804.443 1554.4 803.932 1552.49 803.472L1546.78 802.04C1542.37 800.966 1538.88 799.287 1536.33 797.003C1533.77 794.719 1532.5 791.642 1532.52 787.773C1532.5 784.602 1533.34 781.832 1535.05 779.463C1536.77 777.094 1539.13 775.244 1542.13 773.915C1545.13 772.585 1548.54 771.92 1552.36 771.92C1556.24 771.92 1559.64 772.585 1562.53 773.915C1565.45 775.244 1567.72 777.094 1569.34 779.463C1570.95 781.832 1571.79 784.577 1571.84 787.696H1561.23ZM1598.53 785.727V793.909H1574.88V785.727H1598.53ZM1580.25 776.318H1591.14V812.932C1591.14 813.937 1591.29 814.722 1591.6 815.284C1591.91 815.83 1592.33 816.213 1592.88 816.435C1593.44 816.656 1594.09 816.767 1594.82 816.767C1595.33 816.767 1595.84 816.724 1596.36 816.639C1596.87 816.537 1597.26 816.46 1597.53 816.409L1599.24 824.514C1598.7 824.685 1597.93 824.881 1596.94 825.102C1595.95 825.341 1594.75 825.486 1593.34 825.537C1590.71 825.639 1588.41 825.29 1586.43 824.489C1584.47 823.687 1582.95 822.443 1581.86 820.756C1580.77 819.068 1580.23 816.937 1580.25 814.364V776.318ZM1614.66 825.741C1612.16 825.741 1609.92 825.307 1607.96 824.438C1606 823.551 1604.45 822.247 1603.31 820.526C1602.19 818.787 1601.62 816.622 1601.62 814.031C1601.62 811.849 1602.02 810.017 1602.82 808.534C1603.63 807.051 1604.72 805.858 1606.1 804.955C1607.48 804.051 1609.05 803.369 1610.8 802.909C1612.57 802.449 1614.43 802.125 1616.38 801.938C1618.66 801.699 1620.5 801.477 1621.9 801.273C1623.3 801.051 1624.31 800.727 1624.94 800.301C1625.57 799.875 1625.89 799.244 1625.89 798.409V798.256C1625.89 796.636 1625.38 795.384 1624.35 794.497C1623.35 793.611 1621.92 793.168 1620.06 793.168C1618.1 793.168 1616.54 793.602 1615.38 794.472C1614.22 795.324 1613.45 796.398 1613.08 797.693L1603 796.875C1603.51 794.489 1604.52 792.426 1606.02 790.688C1607.52 788.932 1609.46 787.585 1611.82 786.648C1614.21 785.693 1616.97 785.216 1620.11 785.216C1622.29 785.216 1624.38 785.472 1626.37 785.983C1628.38 786.494 1630.17 787.287 1631.72 788.361C1633.28 789.435 1634.52 790.815 1635.42 792.503C1636.33 794.173 1636.78 796.176 1636.78 798.511V825H1626.45V819.554H1626.14C1625.51 820.781 1624.67 821.864 1623.61 822.801C1622.55 823.722 1621.28 824.446 1619.8 824.974C1618.32 825.486 1616.61 825.741 1614.66 825.741ZM1617.78 818.224C1619.38 818.224 1620.8 817.909 1622.03 817.278C1623.25 816.631 1624.22 815.761 1624.92 814.67C1625.61 813.58 1625.96 812.344 1625.96 810.963V806.795C1625.62 807.017 1625.15 807.222 1624.56 807.409C1623.98 807.58 1623.32 807.741 1622.59 807.895C1621.86 808.031 1621.12 808.159 1620.39 808.278C1619.66 808.381 1618.99 808.474 1618.4 808.56C1617.12 808.747 1616 809.045 1615.05 809.455C1614.09 809.864 1613.35 810.418 1612.82 811.116C1612.29 811.798 1612.03 812.651 1612.03 813.673C1612.03 815.156 1612.57 816.29 1613.64 817.074C1614.73 817.841 1616.11 818.224 1617.78 818.224ZM1643.07 825V785.727H1653.63V792.58H1654.04C1654.75 790.142 1655.96 788.301 1657.64 787.057C1659.33 785.795 1661.27 785.165 1663.47 785.165C1664.02 785.165 1664.61 785.199 1665.24 785.267C1665.87 785.335 1666.42 785.429 1666.9 785.548V795.213C1666.39 795.06 1665.68 794.923 1664.78 794.804C1663.87 794.685 1663.05 794.625 1662.3 794.625C1660.69 794.625 1659.26 794.974 1658 795.673C1656.76 796.355 1655.77 797.31 1655.04 798.537C1654.32 799.764 1653.96 801.179 1653.96 802.781V825H1643.07ZM1693.23 785.727V793.909H1669.58V785.727H1693.23ZM1674.95 776.318H1685.84V812.932C1685.84 813.937 1685.99 814.722 1686.3 815.284C1686.61 815.83 1687.03 816.213 1687.58 816.435C1688.14 816.656 1688.79 816.767 1689.52 816.767C1690.03 816.767 1690.54 816.724 1691.05 816.639C1691.57 816.537 1691.96 816.46 1692.23 816.409L1693.94 824.514C1693.4 824.685 1692.63 824.881 1691.64 825.102C1690.65 825.341 1689.45 825.486 1688.04 825.537C1685.41 825.639 1683.11 825.29 1681.13 824.489C1679.17 823.687 1677.65 822.443 1676.56 820.756C1675.47 819.068 1674.93 816.937 1674.95 814.364V776.318ZM1715.64 825.767C1711.6 825.767 1708.12 824.949 1705.21 823.312C1702.31 821.659 1700.08 819.324 1698.51 816.307C1696.94 813.273 1696.16 809.685 1696.16 805.543C1696.16 801.503 1696.94 797.957 1698.51 794.906C1700.08 791.855 1702.28 789.477 1705.13 787.773C1707.99 786.068 1711.35 785.216 1715.2 785.216C1717.8 785.216 1720.21 785.634 1722.44 786.469C1724.69 787.287 1726.65 788.523 1728.32 790.176C1730.01 791.83 1731.32 793.909 1732.26 796.415C1733.2 798.903 1733.66 801.818 1733.66 805.159V808.151H1700.5V801.401H1723.41C1723.41 799.832 1723.07 798.443 1722.39 797.233C1721.71 796.023 1720.76 795.077 1719.55 794.395C1718.36 793.696 1716.97 793.347 1715.38 793.347C1713.73 793.347 1712.26 793.73 1710.99 794.497C1709.72 795.247 1708.74 796.261 1708.02 797.54C1707.3 798.801 1706.94 800.207 1706.92 801.759V808.176C1706.92 810.119 1707.28 811.798 1707.99 813.213C1708.73 814.628 1709.76 815.719 1711.09 816.486C1712.42 817.253 1713.99 817.636 1715.82 817.636C1717.03 817.636 1718.14 817.466 1719.14 817.125C1720.15 816.784 1721.01 816.273 1721.72 815.591C1722.44 814.909 1722.99 814.074 1723.36 813.085L1733.43 813.75C1732.92 816.17 1731.87 818.284 1730.29 820.091C1728.72 821.881 1726.69 823.278 1724.2 824.284C1721.73 825.273 1718.88 825.767 1715.64 825.767ZM1738.61 825V785.727H1749.17V792.58H1749.58C1750.3 790.142 1751.5 788.301 1753.19 787.057C1754.87 785.795 1756.82 785.165 1759.02 785.165C1759.56 785.165 1760.15 785.199 1760.78 785.267C1761.41 785.335 1761.96 785.429 1762.44 785.548V795.213C1761.93 795.06 1761.22 794.923 1760.32 794.804C1759.42 794.685 1758.59 794.625 1757.84 794.625C1756.24 794.625 1754.81 794.974 1753.54 795.673C1752.3 796.355 1751.31 797.31 1750.58 798.537C1749.86 799.764 1749.5 801.179 1749.5 802.781V825H1738.61Z" fill="white"/>
<path d="M2512.91 644.636V697H2503.35L2480.56 664.043H2480.18V697H2469.11V644.636H2478.83L2501.43 677.568H2501.89V644.636H2512.91ZM2537.43 697.767C2533.46 697.767 2530.03 696.923 2527.13 695.236C2524.25 693.531 2522.03 691.162 2520.46 688.128C2518.89 685.077 2518.1 681.54 2518.1 677.517C2518.1 673.46 2518.89 669.915 2520.46 666.881C2522.03 663.83 2524.25 661.46 2527.13 659.773C2530.03 658.068 2533.46 657.216 2537.43 657.216C2541.41 657.216 2544.83 658.068 2547.71 659.773C2550.61 661.46 2552.84 663.83 2554.41 666.881C2555.98 669.915 2556.76 673.46 2556.76 677.517C2556.76 681.54 2555.98 685.077 2554.41 688.128C2552.84 691.162 2550.61 693.531 2547.71 695.236C2544.83 696.923 2541.41 697.767 2537.43 697.767ZM2537.49 689.33C2539.29 689.33 2540.8 688.818 2542.01 687.795C2543.22 686.756 2544.13 685.341 2544.75 683.551C2545.38 681.761 2545.69 679.724 2545.69 677.44C2545.69 675.156 2545.38 673.119 2544.75 671.33C2544.13 669.54 2543.22 668.125 2542.01 667.085C2540.8 666.045 2539.29 665.526 2537.49 665.526C2535.66 665.526 2534.13 666.045 2532.88 667.085C2531.66 668.125 2530.73 669.54 2530.1 671.33C2529.48 673.119 2529.18 675.156 2529.18 677.44C2529.18 679.724 2529.48 681.761 2530.1 683.551C2530.73 685.341 2531.66 686.756 2532.88 687.795C2534.13 688.818 2535.66 689.33 2537.49 689.33ZM2561.89 697V644.636H2572.78V664.324H2573.12C2573.59 663.267 2574.28 662.193 2575.19 661.102C2576.11 659.994 2577.3 659.074 2578.77 658.341C2580.25 657.591 2582.09 657.216 2584.29 657.216C2587.15 657.216 2589.79 657.966 2592.21 659.466C2594.64 660.949 2596.57 663.19 2598.02 666.19C2599.47 669.173 2600.19 672.915 2600.19 677.415C2600.19 681.795 2599.48 685.494 2598.07 688.511C2596.67 691.511 2594.76 693.787 2592.34 695.338C2589.94 696.872 2587.25 697.639 2584.26 697.639C2582.15 697.639 2580.35 697.29 2578.87 696.591C2577.4 695.892 2576.2 695.014 2575.26 693.957C2574.33 692.884 2573.61 691.801 2573.12 690.71H2572.63V697H2561.89ZM2572.55 677.364C2572.55 679.699 2572.88 681.736 2573.52 683.474C2574.17 685.213 2575.11 686.568 2576.34 687.54C2577.56 688.494 2579.06 688.972 2580.81 688.972C2582.58 688.972 2584.08 688.486 2585.31 687.514C2586.54 686.526 2587.47 685.162 2588.1 683.423C2588.75 681.668 2589.07 679.648 2589.07 677.364C2589.07 675.097 2588.75 673.102 2588.12 671.381C2587.49 669.659 2586.56 668.312 2585.34 667.341C2584.11 666.369 2582.6 665.884 2580.81 665.884C2579.04 665.884 2577.54 666.352 2576.31 667.29C2575.1 668.227 2574.17 669.557 2573.52 671.278C2572.88 673 2572.55 675.028 2572.55 677.364ZM2623.2 697.767C2619.16 697.767 2615.68 696.949 2612.77 695.312C2609.87 693.659 2607.64 691.324 2606.07 688.307C2604.5 685.273 2603.71 681.685 2603.71 677.543C2603.71 673.503 2604.5 669.957 2606.07 666.906C2607.64 663.855 2609.84 661.477 2612.69 659.773C2615.55 658.068 2618.91 657.216 2622.76 657.216C2625.35 657.216 2627.77 657.634 2630 658.469C2632.25 659.287 2634.21 660.523 2635.88 662.176C2637.57 663.83 2638.88 665.909 2639.82 668.415C2640.75 670.903 2641.22 673.818 2641.22 677.159V680.151H2608.06V673.401H2630.97C2630.97 671.832 2630.63 670.443 2629.95 669.233C2629.27 668.023 2628.32 667.077 2627.11 666.395C2625.92 665.696 2624.53 665.347 2622.94 665.347C2621.29 665.347 2619.82 665.73 2618.54 666.497C2617.28 667.247 2616.29 668.261 2615.58 669.54C2614.86 670.801 2614.5 672.207 2614.48 673.759V680.176C2614.48 682.119 2614.84 683.798 2615.55 685.213C2616.29 686.628 2617.32 687.719 2618.65 688.486C2619.98 689.253 2621.55 689.636 2623.38 689.636C2624.59 689.636 2625.69 689.466 2626.7 689.125C2627.71 688.784 2628.57 688.273 2629.28 687.591C2630 686.909 2630.54 686.074 2630.92 685.085L2640.99 685.75C2640.48 688.17 2639.43 690.284 2637.85 692.091C2636.28 693.881 2634.25 695.278 2631.76 696.284C2629.29 697.273 2626.44 697.767 2623.2 697.767ZM2657.06 644.636V697H2646.17V644.636H2657.06Z" fill="white"/>
<path d="M3333.75 732.636V785H3324.19L3301.41 752.043H3301.02V785H3289.95V732.636H3299.67L3322.27 765.568H3322.73V732.636H3333.75ZM3358.28 785.767C3354.3 785.767 3350.87 784.923 3347.97 783.236C3345.09 781.531 3342.87 779.162 3341.3 776.128C3339.73 773.077 3338.95 769.54 3338.95 765.517C3338.95 761.46 3339.73 757.915 3341.3 754.881C3342.87 751.83 3345.09 749.46 3347.97 747.773C3350.87 746.068 3354.3 745.216 3358.28 745.216C3362.25 745.216 3365.67 746.068 3368.55 747.773C3371.45 749.46 3373.69 751.83 3375.25 754.881C3376.82 757.915 3377.61 761.46 3377.61 765.517C3377.61 769.54 3376.82 773.077 3375.25 776.128C3373.69 779.162 3371.45 781.531 3368.55 783.236C3365.67 784.923 3362.25 785.767 3358.28 785.767ZM3358.33 777.33C3360.13 777.33 3361.64 776.818 3362.85 775.795C3364.06 774.756 3364.97 773.341 3365.59 771.551C3366.22 769.761 3366.53 767.724 3366.53 765.44C3366.53 763.156 3366.22 761.119 3365.59 759.33C3364.97 757.54 3364.06 756.125 3362.85 755.085C3361.64 754.045 3360.13 753.526 3358.33 753.526C3356.5 753.526 3354.97 754.045 3353.72 755.085C3352.5 756.125 3351.57 757.54 3350.94 759.33C3350.32 761.119 3350.02 763.156 3350.02 765.44C3350.02 767.724 3350.32 769.761 3350.94 771.551C3351.57 773.341 3352.5 774.756 3353.72 775.795C3354.97 776.818 3356.5 777.33 3358.33 777.33ZM3382.73 785V732.636H3393.62V752.324H3393.96C3394.43 751.267 3395.12 750.193 3396.03 749.102C3396.95 747.994 3398.14 747.074 3399.61 746.341C3401.09 745.591 3402.93 745.216 3405.13 745.216C3407.99 745.216 3410.64 745.966 3413.06 747.466C3415.48 748.949 3417.41 751.19 3418.86 754.19C3420.31 757.173 3421.03 760.915 3421.03 765.415C3421.03 769.795 3420.33 773.494 3418.91 776.511C3417.51 779.511 3415.6 781.787 3413.18 783.338C3410.78 784.872 3408.09 785.639 3405.1 785.639C3402.99 785.639 3401.19 785.29 3399.71 784.591C3398.24 783.892 3397.04 783.014 3396.1 781.957C3395.17 780.884 3394.45 779.801 3393.96 778.71H3393.47V785H3382.73ZM3393.39 765.364C3393.39 767.699 3393.72 769.736 3394.37 771.474C3395.01 773.213 3395.95 774.568 3397.18 775.54C3398.41 776.494 3399.9 776.972 3401.65 776.972C3403.43 776.972 3404.93 776.486 3406.15 775.514C3407.38 774.526 3408.31 773.162 3408.94 771.423C3409.59 769.668 3409.91 767.648 3409.91 765.364C3409.91 763.097 3409.6 761.102 3408.97 759.381C3408.33 757.659 3407.41 756.312 3406.18 755.341C3404.95 754.369 3403.44 753.884 3401.65 753.884C3399.88 753.884 3398.38 754.352 3397.15 755.29C3395.94 756.227 3395.01 757.557 3394.37 759.278C3393.72 761 3393.39 763.028 3393.39 765.364ZM3444.04 785.767C3440 785.767 3436.52 784.949 3433.61 783.312C3430.71 781.659 3428.48 779.324 3426.91 776.307C3425.34 773.273 3424.56 769.685 3424.56 765.543C3424.56 761.503 3425.34 757.957 3426.91 754.906C3428.48 751.855 3430.68 749.477 3433.53 747.773C3436.39 746.068 3439.75 745.216 3443.6 745.216C3446.2 745.216 3448.61 745.634 3450.84 746.469C3453.09 747.287 3455.05 748.523 3456.72 750.176C3458.41 751.83 3459.72 753.909 3460.66 756.415C3461.6 758.903 3462.06 761.818 3462.06 765.159V768.151H3428.9V761.401H3451.81C3451.81 759.832 3451.47 758.443 3450.79 757.233C3450.11 756.023 3449.16 755.077 3447.95 754.395C3446.76 753.696 3445.37 753.347 3443.78 753.347C3442.13 753.347 3440.66 753.73 3439.39 754.497C3438.12 755.247 3437.14 756.261 3436.42 757.54C3435.7 758.801 3435.34 760.207 3435.32 761.759V768.176C3435.32 770.119 3435.68 771.798 3436.39 773.213C3437.13 774.628 3438.16 775.719 3439.49 776.486C3440.82 777.253 3442.39 777.636 3444.22 777.636C3445.43 777.636 3446.54 777.466 3447.54 777.125C3448.55 776.784 3449.41 776.273 3450.12 775.591C3450.84 774.909 3451.39 774.074 3451.76 773.085L3461.83 773.75C3461.32 776.17 3460.27 778.284 3458.69 780.091C3457.12 781.881 3455.09 783.278 3452.6 784.284C3450.13 785.273 3447.28 785.767 3444.04 785.767ZM3477.9 732.636V785H3467.01V732.636H3477.9ZM3499.18 785V732.636H3519.84C3523.81 732.636 3527.19 733.395 3529.99 734.912C3532.78 736.412 3534.91 738.5 3536.38 741.176C3537.86 743.835 3538.6 746.903 3538.6 750.381C3538.6 753.858 3537.85 756.926 3536.35 759.585C3534.85 762.244 3532.68 764.315 3529.83 765.798C3527.01 767.281 3523.58 768.023 3519.56 768.023H3506.39V759.151H3517.77C3519.9 759.151 3521.65 758.784 3523.03 758.051C3524.43 757.301 3525.47 756.27 3526.15 754.957C3526.85 753.628 3527.2 752.102 3527.2 750.381C3527.2 748.642 3526.85 747.125 3526.15 745.83C3525.47 744.517 3524.43 743.503 3523.03 742.787C3521.64 742.054 3519.86 741.688 3517.72 741.688H3510.25V785H3499.18ZM3554.32 732.636V785H3543.43V732.636H3554.32ZM3586.07 768.278V745.727H3596.96V785H3586.51V777.866H3586.1C3585.21 780.168 3583.74 782.017 3581.68 783.415C3579.63 784.812 3577.13 785.511 3574.18 785.511C3571.56 785.511 3569.25 784.915 3567.25 783.722C3565.26 782.528 3563.7 780.832 3562.58 778.634C3561.47 776.435 3560.91 773.801 3560.89 770.733V745.727H3571.78V768.79C3571.8 771.108 3572.42 772.94 3573.65 774.287C3574.87 775.634 3576.52 776.307 3578.58 776.307C3579.89 776.307 3581.12 776.009 3582.26 775.412C3583.41 774.798 3584.33 773.895 3585.02 772.702C3585.74 771.509 3586.09 770.034 3586.07 768.278ZM3636.19 756.926L3626.22 757.54C3626.05 756.687 3625.68 755.92 3625.12 755.239C3624.56 754.54 3623.82 753.986 3622.9 753.577C3621.99 753.151 3620.91 752.938 3619.65 752.938C3617.96 752.938 3616.54 753.295 3615.38 754.011C3614.22 754.71 3613.64 755.648 3613.64 756.824C3613.64 757.761 3614.02 758.554 3614.77 759.202C3615.52 759.849 3616.8 760.369 3618.63 760.761L3625.74 762.193C3629.55 762.977 3632.4 764.239 3634.28 765.977C3636.15 767.716 3637.09 770 3637.09 772.83C3637.09 775.403 3636.33 777.662 3634.81 779.605C3633.31 781.548 3631.25 783.065 3628.63 784.156C3626.02 785.23 3623.01 785.767 3619.6 785.767C3614.4 785.767 3610.26 784.685 3607.17 782.52C3604.11 780.338 3602.31 777.372 3601.78 773.622L3612.49 773.06C3612.82 774.645 3613.6 775.855 3614.84 776.69C3616.09 777.509 3617.68 777.918 3619.63 777.918C3621.53 777.918 3623.07 777.551 3624.23 776.818C3625.4 776.068 3626 775.105 3626.02 773.929C3626 772.94 3625.58 772.131 3624.76 771.5C3623.95 770.852 3622.68 770.358 3620.98 770.017L3614.18 768.662C3610.34 767.895 3607.49 766.565 3605.61 764.673C3603.76 762.781 3602.83 760.369 3602.83 757.438C3602.83 754.915 3603.51 752.741 3604.87 750.918C3606.25 749.094 3608.19 747.688 3610.68 746.699C3613.18 745.71 3616.11 745.216 3619.47 745.216C3624.43 745.216 3628.34 746.264 3631.18 748.361C3634.05 750.457 3635.72 753.312 3636.19 756.926Z" fill="white"/>
<path d="M4304.59 944.696C4304.39 942.634 4303.51 941.031 4301.96 939.889C4300.41 938.747 4298.3 938.176 4295.64 938.176C4293.84 938.176 4292.31 938.432 4291.07 938.943C4289.82 939.438 4288.87 940.128 4288.2 941.014C4287.56 941.901 4287.23 942.906 4287.23 944.031C4287.2 944.969 4287.39 945.787 4287.82 946.486C4288.26 947.185 4288.87 947.79 4289.64 948.301C4290.4 948.795 4291.29 949.23 4292.3 949.605C4293.3 949.963 4294.38 950.27 4295.52 950.526L4300.22 951.651C4302.51 952.162 4304.6 952.844 4306.51 953.696C4308.42 954.548 4310.07 955.597 4311.47 956.841C4312.87 958.085 4313.95 959.551 4314.72 961.239C4315.5 962.926 4315.9 964.861 4315.92 967.043C4315.9 970.247 4315.09 973.026 4313.47 975.378C4311.86 977.713 4309.55 979.528 4306.51 980.824C4303.49 982.102 4299.86 982.741 4295.59 982.741C4291.37 982.741 4287.68 982.094 4284.55 980.798C4281.43 979.503 4278.99 977.585 4277.24 975.045C4275.5 972.489 4274.59 969.327 4274.5 965.56H4285.21C4285.33 967.315 4285.84 968.781 4286.72 969.957C4287.63 971.116 4288.83 971.994 4290.33 972.591C4291.84 973.17 4293.56 973.46 4295.47 973.46C4297.34 973.46 4298.97 973.187 4300.35 972.642C4301.75 972.097 4302.83 971.338 4303.6 970.366C4304.36 969.395 4304.75 968.278 4304.75 967.017C4304.75 965.841 4304.4 964.852 4303.7 964.051C4303.02 963.25 4302.01 962.568 4300.68 962.006C4299.37 961.443 4297.76 960.932 4295.85 960.472L4290.15 959.04C4285.73 957.966 4282.25 956.287 4279.69 954.003C4277.13 951.719 4275.86 948.642 4275.88 944.773C4275.86 941.602 4276.71 938.832 4278.41 936.463C4280.13 934.094 4282.49 932.244 4285.49 930.915C4288.49 929.585 4291.9 928.92 4295.72 928.92C4299.61 928.92 4303 929.585 4305.9 930.915C4308.81 932.244 4311.08 934.094 4312.7 936.463C4314.32 938.832 4315.15 941.577 4315.2 944.696H4304.59ZM4338.75 982.767C4334.72 982.767 4331.26 981.915 4328.37 980.21C4325.49 978.489 4323.27 976.102 4321.72 973.051C4320.18 970 4319.42 966.489 4319.42 962.517C4319.42 958.494 4320.19 954.966 4321.74 951.932C4323.31 948.881 4325.54 946.503 4328.42 944.798C4331.3 943.077 4334.72 942.216 4338.7 942.216C4342.12 942.216 4345.12 942.838 4347.7 944.082C4350.27 945.327 4352.31 947.074 4353.81 949.324C4355.31 951.574 4356.13 954.216 4356.29 957.25H4346.01C4345.72 955.29 4344.95 953.713 4343.71 952.52C4342.48 951.31 4340.87 950.705 4338.87 950.705C4337.19 950.705 4335.71 951.165 4334.45 952.085C4333.21 952.989 4332.24 954.31 4331.54 956.048C4330.84 957.787 4330.49 959.892 4330.49 962.364C4330.49 964.869 4330.83 967 4331.51 968.756C4332.21 970.511 4333.19 971.849 4334.45 972.77C4335.71 973.69 4337.19 974.151 4338.87 974.151C4340.12 974.151 4341.24 973.895 4342.22 973.384C4343.23 972.872 4344.06 972.131 4344.7 971.159C4345.37 970.17 4345.8 968.986 4346.01 967.605H4356.29C4356.12 970.605 4355.3 973.247 4353.83 975.531C4352.38 977.798 4350.38 979.571 4347.82 980.849C4345.27 982.128 4342.24 982.767 4338.75 982.767ZM4378.84 982.767C4374.87 982.767 4371.44 981.923 4368.54 980.236C4365.66 978.531 4363.44 976.162 4361.87 973.128C4360.3 970.077 4359.52 966.54 4359.52 962.517C4359.52 958.46 4360.3 954.915 4361.87 951.881C4363.44 948.83 4365.66 946.46 4368.54 944.773C4371.44 943.068 4374.87 942.216 4378.84 942.216C4382.82 942.216 4386.24 943.068 4389.12 944.773C4392.02 946.46 4394.25 948.83 4395.82 951.881C4397.39 954.915 4398.17 958.46 4398.17 962.517C4398.17 966.54 4397.39 970.077 4395.82 973.128C4394.25 976.162 4392.02 978.531 4389.12 980.236C4386.24 981.923 4382.82 982.767 4378.84 982.767ZM4378.9 974.33C4380.7 974.33 4382.21 973.818 4383.42 972.795C4384.63 971.756 4385.54 970.341 4386.16 968.551C4386.79 966.761 4387.1 964.724 4387.1 962.44C4387.1 960.156 4386.79 958.119 4386.16 956.33C4385.54 954.54 4384.63 953.125 4383.42 952.085C4382.21 951.045 4380.7 950.526 4378.9 950.526C4377.07 950.526 4375.54 951.045 4374.29 952.085C4373.07 953.125 4372.14 954.54 4371.51 956.33C4370.89 958.119 4370.59 960.156 4370.59 962.44C4370.59 964.724 4370.89 966.761 4371.51 968.551C4372.14 970.341 4373.07 971.756 4374.29 972.795C4375.54 973.818 4377.07 974.33 4378.9 974.33ZM4428.28 965.278V942.727H4439.17V982H4428.72V974.866H4428.31C4427.42 977.168 4425.95 979.017 4423.88 980.415C4421.84 981.812 4419.34 982.511 4416.39 982.511C4413.77 982.511 4411.46 981.915 4409.46 980.722C4407.47 979.528 4405.91 977.832 4404.78 975.634C4403.68 973.435 4403.11 970.801 4403.1 967.733V942.727H4413.99V965.79C4414.01 968.108 4414.63 969.94 4415.86 971.287C4417.08 972.634 4418.73 973.307 4420.79 973.307C4422.1 973.307 4423.33 973.009 4424.47 972.412C4425.61 971.798 4426.53 970.895 4427.23 969.702C4427.95 968.509 4428.3 967.034 4428.28 965.278ZM4466.62 942.727V950.909H4442.96V942.727H4466.62ZM4448.33 933.318H4459.23V969.932C4459.23 970.937 4459.38 971.722 4459.69 972.284C4459.99 972.83 4460.42 973.213 4460.96 973.435C4461.53 973.656 4462.17 973.767 4462.91 973.767C4463.42 973.767 4463.93 973.724 4464.44 973.639C4464.95 973.537 4465.35 973.46 4465.62 973.409L4467.33 981.514C4466.79 981.685 4466.02 981.881 4465.03 982.102C4464.04 982.341 4462.84 982.486 4461.42 982.537C4458.8 982.639 4456.5 982.29 4454.52 981.489C4452.56 980.687 4451.04 979.443 4449.94 977.756C4448.85 976.068 4448.32 973.937 4448.33 971.364V933.318Z" fill="white"/>
<defs>
<filter id="filter0_f_2108_4393" x="1077.44" y="336.443" width="5261.11" height="4291.11" filterUnits="userSpaceOnUse" color-interpolation-filters="sRGB">
<feFlood flood-opacity="0" result="BackgroundImageFix"/>
<feBlend mode="normal" in="SourceGraphic" in2="BackgroundImageFix" result="shape"/>
<feGaussianBlur stdDeviation="284.278" result="effect1_foregroundBlur_2108_4393"/>
</filter>
<linearGradient id="paint0_linear_2108_4393" x1="3708" y1="905" x2="3708" y2="4059" gradientUnits="userSpaceOnUse">
<stop stop-color="#16B6F0" stop-opacity="0.36"/>
<stop offset="1" stop-color="#1653F0" stop-opacity="0.6"/>
</linearGradient>
<linearGradient id="paint1_linear_2108_4393" x1="1049.5" y1="3762.68" x2="1049.5" y2="6538.82" gradientUnits="userSpaceOnUse">
<stop stop-color="#EAF0FF" stop-opacity="0.05"/>
<stop offset="1" stop-color="#EAF0FF"/>
</linearGradient>
<clipPath id="clip0_2108_4393">
<rect width="5371" height="3529" fill="white" transform="translate(0 97)"/>
</clipPath>
</defs>
</svg>
