<svg width="5371" height="3529" viewBox="0 0 5371 3529" fill="none" xmlns="http://www.w3.org/2000/svg">
<g clip-path="url(#clip0_2108_730)">
<rect width="5371" height="3529" fill="#EAF0FF"/>
<g filter="url(#filter0_f_2108_730)">
<ellipse cx="3708" cy="2385" rx="2062" ry="1577" fill="url(#paint0_linear_2108_730)" fill-opacity="0.5"/>
</g>
<rect y="589" width="2099" height="6141" fill="url(#paint1_linear_2108_730)"/>
<path d="M4685 2893.2H685V2895.2H4685V2893.2Z" fill="#EBEBEB"/>
<path d="M4284.2 3021.92H4019.24V3023.92H4284.2V3021.92Z" fill="#EBEBEB"/>
<path d="M3334.76 3043.68H3265.24V3045.68H3334.76V3043.68Z" fill="#EBEBEB"/>
<path d="M4011.24 2947.68H3857.72V2949.68H4011.24V2947.68Z" fill="#EBEBEB"/>
<path d="M1450.2 2961.12H1104.68V2963.12H1450.2V2961.12Z" fill="#EBEBEB"/>
<path d="M1572.12 2961.12H1521.48V2963.12H1572.12V2961.12Z" fill="#EBEBEB"/>
<path d="M2486.2 2994.88H1736.76V2996.88H2486.2V2994.88Z" fill="#EBEBEB"/>
<path d="M2581 2536.4H1036.28C1024.18 2536.38 1012.58 2531.56 1004.03 2522.99C995.48 2514.43 990.679 2502.82 990.679 2490.72V319.28C990.784 307.248 995.632 295.744 1004.17 287.266C1012.71 278.788 1024.25 274.021 1036.28 274H2581C2593.11 274 2604.73 278.813 2613.3 287.379C2621.87 295.946 2626.68 307.565 2626.68 319.68V2490.72C2626.68 2502.83 2621.87 2514.45 2613.3 2523.02C2604.73 2531.59 2593.11 2536.4 2581 2536.4ZM1036.28 275.6C1024.71 275.621 1013.62 280.233 1005.44 288.422C997.27 296.611 992.679 307.709 992.679 319.28V2490.72C992.679 2502.29 997.27 2513.39 1005.44 2521.58C1013.62 2529.77 1024.71 2534.38 1036.28 2534.4H2581C2592.58 2534.38 2603.68 2529.77 2611.86 2521.58C2620.05 2513.4 2624.66 2502.3 2624.68 2490.72V319.28C2624.66 307.702 2620.05 296.604 2611.86 288.417C2603.68 280.23 2592.58 275.621 2581 275.6H1036.28Z" fill="#EBEBEB"/>
<path d="M4311.48 2536.4H2766.68C2754.57 2536.38 2742.97 2531.56 2734.4 2523C2725.84 2514.44 2721.02 2502.83 2721 2490.72V319.28C2721.13 307.241 2725.99 295.737 2734.54 287.261C2743.09 278.785 2754.64 274.02 2766.68 274H4311.48C4323.5 274.042 4335.02 278.818 4343.54 287.294C4352.06 295.77 4356.9 307.262 4357 319.28V2490.72C4357 2502.81 4352.21 2514.4 4343.68 2522.96C4335.15 2531.53 4323.57 2536.36 4311.48 2536.4ZM2766.68 275.6C2755.1 275.621 2744 280.23 2735.82 288.417C2727.63 296.604 2723.02 307.702 2723 319.28V2490.72C2723.02 2502.3 2727.63 2513.4 2735.82 2521.58C2744 2529.77 2755.1 2534.38 2766.68 2534.4H4311.48C4323.06 2534.38 4334.16 2529.77 4342.34 2521.58C4350.53 2513.4 4355.14 2502.3 4355.16 2490.72V319.28C4355.14 307.702 4350.53 296.604 4342.34 288.417C4334.16 280.23 4323.06 275.621 4311.48 275.6H2766.68Z" fill="#EBEBEB"/>
<path d="M2837.24 2894.4H4247.56V1108.56L2837.24 1108.56V2894.4Z" fill="#F0F0F0"/>
<path d="M2887.08 1555.52L4197.72 1555.52V1173.6L2887.08 1173.6V1555.52Z" fill="#E0E0E0"/>
<path d="M4123.24 1555.44H4197.72V1235.36H4123.24V1555.44Z" fill="#EBEBEB"/>
<path d="M3763.24 1555.44H3837.72V1235.36H3763.24V1555.44Z" fill="#EBEBEB"/>
<path d="M3300.25 1542.73L3373.65 1555.38L3428.02 1239.95L3354.63 1227.3L3300.25 1542.73Z" fill="#EBEBEB"/>
<path d="M4031 1555.52H4105.48V1277.6H4031V1555.52Z" fill="#EBEBEB"/>
<path d="M3859.88 1555.52H3934.36V1277.6H3859.88V1555.52Z" fill="#EBEBEB"/>
<path d="M3427.96 1555.52H3502.44V1277.6H3427.96V1555.52Z" fill="#EBEBEB"/>
<path d="M3605.25 1539.25L3677.96 1555.41L3738.25 1284.11L3665.55 1267.95L3605.25 1539.25Z" fill="#EBEBEB"/>
<path d="M3966.68 1555.52H4003.88V1219.6H3966.68V1555.52Z" fill="#EBEBEB"/>
<path d="M3523.8 1555.52H3561V1219.6H3523.8V1555.52Z" fill="#EBEBEB"/>
<path d="M4197.8 1615.92H2887.16V1997.84H4197.8V1615.92Z" fill="#E0E0E0"/>
<path d="M2961.64 1677.76H2887.16V1997.84H2961.64V1677.76Z" fill="#EBEBEB"/>
<path d="M3321.64 1677.76H3247.16V1997.84H3321.64V1677.76Z" fill="#EBEBEB"/>
<path d="M3730.37 1669.66L3656.97 1682.31L3711.34 1997.74L3784.74 1985.09L3730.37 1669.66Z" fill="#EBEBEB"/>
<path d="M3053.88 1719.92H2979.4V1997.84H3053.88V1719.92Z" fill="#EBEBEB"/>
<path d="M3225 1719.92H3150.52V1997.84H3225V1719.92Z" fill="#EBEBEB"/>
<path d="M3656.92 1719.92H3582.44V1997.84H3656.92V1719.92Z" fill="#EBEBEB"/>
<path d="M3419.5 1710.27L3346.8 1726.43L3407.09 1997.73L3479.8 1981.57L3419.5 1710.27Z" fill="#EBEBEB"/>
<path d="M3118.2 1661.92H3081V1997.84H3118.2V1661.92Z" fill="#EBEBEB"/>
<path d="M3561.08 1661.92H3523.88V1997.84H3561.08V1661.92Z" fill="#EBEBEB"/>
<path d="M4123.24 1997.84H4197.72V1677.76H4123.24V1997.84Z" fill="#EBEBEB"/>
<path d="M4031 1997.84H4105.48V1719.92H4031V1997.84Z" fill="#EBEBEB"/>
<path d="M3859.88 1997.84H3934.36V1719.92H3859.88V1997.84Z" fill="#EBEBEB"/>
<path d="M3966.68 1997.84H4003.88V1661.92H3966.68V1997.84Z" fill="#EBEBEB"/>
<path d="M2887.08 2440.16H4197.72V2058.24H2887.08V2440.16Z" fill="#E0E0E0"/>
<path d="M3371 2440.16H3445.48V2120.08H3371V2440.16Z" fill="#EBEBEB"/>
<path d="M2908.04 2427.49L2981.44 2440.14L3035.81 2124.71L2962.41 2112.06L2908.04 2427.49Z" fill="#EBEBEB"/>
<path d="M3638.76 2440.16H3713.24V2162.24H3638.76V2440.16Z" fill="#EBEBEB"/>
<path d="M3467.64 2440.16H3542.12V2162.24H3467.64V2440.16Z" fill="#EBEBEB"/>
<path d="M3035.72 2440.16H3110.2V2162.24H3035.72V2440.16Z" fill="#EBEBEB"/>
<path d="M3213.05 2423.98L3285.76 2440.14L3346.05 2168.84L3273.35 2152.68L3213.05 2423.98Z" fill="#EBEBEB"/>
<path d="M3574.44 2440.16H3611.64V2104.24H3574.44V2440.16Z" fill="#EBEBEB"/>
<path d="M3131.64 2440.16H3168.84V2104.24H3131.64V2440.16Z" fill="#EBEBEB"/>
<path d="M3764.64 2427.45L3838.04 2440.1L3892.41 2124.67L3819.01 2112.02L3764.64 2427.45Z" fill="#EBEBEB"/>
<path d="M3892.28 2440.16H3966.76V2162.24H3892.28V2440.16Z" fill="#EBEBEB"/>
<path d="M4069.69 2423.93L4142.4 2440.08L4202.69 2168.78L4129.99 2152.62L4069.69 2423.93Z" fill="#EBEBEB"/>
<path d="M3988.2 2440.16H4025.4V2104.24H3988.2V2440.16Z" fill="#EBEBEB"/>
<path d="M4031.08 1108.48V1082H3988.12C4014.76 1000.86 4020.27 914.264 4004.12 830.401C4004.12 830.401 4004.76 940.241 3962.28 941.041C3897.4 942.161 3892.52 830.401 3892.52 830.401C3892.52 830.401 3876.52 990.401 3935.08 1082H3890.6V1108.48H4031.08Z" fill="#E0E0E0"/>
<path d="M3947.8 941.121C3968.48 941.121 3985.24 924.359 3985.24 903.681C3985.24 883.004 3968.48 866.241 3947.8 866.241C3927.12 866.241 3910.36 883.004 3910.36 903.681C3910.36 924.359 3927.12 941.121 3947.8 941.121Z" fill="#E0E0E0"/>
<path d="M3743.08 1108.48V1093.04L3697.72 1071.92L3720.36 1049.84L3663.96 850.398V974.878C3663.96 974.878 3671.96 974.878 3671.96 992.798C3671.96 1010.72 3646.28 1006.56 3646.28 991.758C3646.28 976.958 3654.68 974.878 3654.68 974.878V845.118L3603 1042.4L3626.2 1071.92L3579.8 1093.04V1108.48H3743.08Z" fill="#E0E0E0"/>
<path d="M3465.24 1108.48V1096.24L3423.4 1086.72V903.68L3387.56 853.6L3357 892.8V976.8L3341.16 954.88L3319 946.4L3303.16 981.04L3336.92 1086.72L3303.16 1096.24V1108.48H3465.24Z" fill="#E0E0E0"/>
<path d="M3187.72 1114.08L3136.44 853.6H2979.4L3016.6 1001.28L2961.56 1108.48L3187.72 1114.08Z" fill="#E0E0E0"/>
<path d="M2155 725.919H1111.48V779.519H2155V725.919Z" fill="#E0E0E0"/>
<path d="M1205.48 528.321H1159.48V725.921H1205.48V528.321Z" fill="#EBEBEB"/>
<path d="M1427.8 528.321H1381.8V725.921H1427.8V528.321Z" fill="#EBEBEB"/>
<path d="M1680.13 523.359L1634.8 531.173L1668.37 725.901L1713.7 718.087L1680.13 523.359Z" fill="#EBEBEB"/>
<path d="M1262.44 554.322H1216.44V725.922H1262.44V554.322Z" fill="#EBEBEB"/>
<path d="M1368.12 554.322H1322.12V725.922H1368.12V554.322Z" fill="#EBEBEB"/>
<path d="M1634.84 554.322H1588.84V725.922H1634.84V554.322Z" fill="#EBEBEB"/>
<path d="M1488.19 548.429L1443.28 558.409L1480.51 725.922L1525.41 715.942L1488.19 548.429Z" fill="#EBEBEB"/>
<path d="M1302.12 518.478H1279.16V725.918H1302.12V518.478Z" fill="#EBEBEB"/>
<path d="M1575.56 518.478H1552.6V725.918H1575.56V518.478Z" fill="#EBEBEB"/>
<path d="M2054.84 569.522H1830.84V724.162H2054.84V569.522Z" fill="#EBEBEB"/>
<path d="M1111.4 1179.84L2154.92 1179.84V1126.24L1111.4 1126.24V1179.84Z" fill="#E0E0E0"/>
<path d="M2060.92 1126.24H2106.92V928.641H2060.92V1126.24Z" fill="#EBEBEB"/>
<path d="M1838.6 1126.24H1884.6V928.641H1838.6V1126.24Z" fill="#EBEBEB"/>
<path d="M1552.74 1118.35L1598.08 1126.16L1631.64 931.435L1586.31 923.621L1552.74 1118.35Z" fill="#EBEBEB"/>
<path d="M2003.96 1126.16H2049.96V954.558H2003.96V1126.16Z" fill="#EBEBEB"/>
<path d="M1898.36 1126.16H1944.36V954.558H1898.36V1126.16Z" fill="#EBEBEB"/>
<path d="M1631.64 1126.16H1677.64V954.558H1631.64V1126.16Z" fill="#EBEBEB"/>
<path d="M1741.12 1116.18L1786.03 1126.16L1823.25 958.645L1778.35 948.666L1741.12 1116.18Z" fill="#EBEBEB"/>
<path d="M1964.28 1126.24H1987.24V918.801H1964.28V1126.24Z" fill="#EBEBEB"/>
<path d="M1690.84 1126.24H1713.8V918.801H1690.84V1126.24Z" fill="#EBEBEB"/>
<path d="M1211.56 1124.4H1435.56V969.76H1211.56V1124.4Z" fill="#EBEBEB"/>
<path d="M1936.04 1909.76H1060.92V2894.4H1936.04V1909.76Z" fill="#E0E0E0"/>
<path d="M1892.6 1948.96H1104.36V2107.52H1892.6V1948.96Z" fill="#EBEBEB"/>
<path d="M1892.6 2148.72H1104.36V2307.28H1892.6V2148.72Z" fill="#EBEBEB"/>
<path d="M1892.6 2348.48H1104.36V2821.28H1892.6V2348.48Z" fill="#EBEBEB"/>
<path d="M1535.16 1976.08H1461.8C1452.21 1976.08 1442.78 1973.58 1434.45 1968.82C1426.11 1964.07 1419.16 1957.22 1414.28 1948.96H1582.28C1577.44 1957.16 1570.55 1963.97 1562.29 1968.72C1554.04 1973.48 1544.69 1976.01 1535.16 1976.08Z" fill="#E0E0E0"/>
<path d="M1535.16 2175.6H1461.8C1452.21 2175.6 1442.78 2173.1 1434.45 2168.34C1426.11 2163.59 1419.16 2156.74 1414.28 2148.48H1582.28C1577.44 2156.68 1570.55 2163.49 1562.29 2168.25C1554.04 2173 1544.69 2175.53 1535.16 2175.6Z" fill="#E0E0E0"/>
<path d="M1535.16 2375.84H1461.8C1452.2 2375.84 1442.76 2373.33 1434.43 2368.56C1426.09 2363.79 1419.15 2356.92 1414.28 2348.64H1582.28C1577.45 2356.86 1570.57 2363.69 1562.31 2368.46C1554.05 2373.23 1544.7 2375.77 1535.16 2375.84Z" fill="#E0E0E0"/>
<path d="M2685 3254.48C3541.66 3254.48 4236.12 3213.94 4236.12 3163.92C4236.12 3113.91 3541.66 3073.36 2685 3073.36C1828.34 3073.36 1133.88 3113.91 1133.88 3163.92C1133.88 3213.94 1828.34 3254.48 2685 3254.48Z" fill="#F5F5F5"/>
<path d="M1547.8 2573.2C1546.12 2584.96 1577.96 2592.72 1603.8 2597.2C1601.72 2618.56 1587.8 2640.16 1567.88 2660.32C1543.16 2646.4 1507.96 2628.32 1501.48 2632.48C1495 2636.64 1530.44 2660.72 1553 2674.48C1536.89 2688.57 1519.81 2701.51 1501.88 2713.2C1490.84 2702.88 1477.88 2693.76 1469.88 2698.72C1461.88 2703.68 1464.04 2719.76 1467.96 2734.08C1441.08 2749.68 1421 2759.2 1421 2759.2C1413.19 2734.26 1407.2 2708.78 1403.08 2682.96C1404.44 2680.32 1405.8 2677.6 1407 2674.96C1411.32 2664.96 1407 2660.72 1399.96 2658.96C1397.91 2640.73 1397.78 2622.34 1399.56 2604.08C1429.88 2597.68 1466.84 2585.92 1453 2567.68C1445 2556.64 1429 2555.44 1413.48 2558.16C1415.67 2554.55 1418.18 2551.15 1421 2548C1476.36 2487.04 1514.92 2548 1514.92 2548C1546.92 2521.2 1592.2 2528.4 1601.96 2570.32C1584.36 2565.6 1549.88 2558.72 1547.8 2573.2Z" fill="#90CAF9"/>
<path opacity="0.3" d="M1547.8 2573.2C1546.12 2584.96 1577.96 2592.72 1603.8 2597.2C1601.72 2618.56 1587.8 2640.16 1567.88 2660.32C1543.16 2646.4 1507.96 2628.32 1501.48 2632.48C1495 2636.64 1530.44 2660.72 1553 2674.48C1536.89 2688.57 1519.81 2701.51 1501.88 2713.2C1490.84 2702.88 1477.88 2693.76 1469.88 2698.72C1461.88 2703.68 1464.04 2719.76 1467.96 2734.08C1441.08 2749.68 1421 2759.2 1421 2759.2C1413.19 2734.26 1407.2 2708.78 1403.08 2682.96C1404.44 2680.32 1405.8 2677.6 1407 2674.96C1411.32 2664.96 1407 2660.72 1399.96 2658.96C1397.91 2640.73 1397.78 2622.34 1399.56 2604.08C1429.88 2597.68 1466.84 2585.92 1453 2567.68C1445 2556.64 1429 2555.44 1413.48 2558.16C1415.67 2554.55 1418.18 2551.15 1421 2548C1476.36 2487.04 1514.92 2548 1514.92 2548C1546.92 2521.2 1592.2 2528.4 1601.96 2570.32C1584.36 2565.6 1549.88 2558.72 1547.8 2573.2Z" fill="white"/>
<path d="M1478.76 3021.12L1486.76 3020.48C1486.76 3016.32 1453.96 2608.24 1545.56 2569.76C1549.93 2567.71 1554.71 2566.72 1559.53 2566.84C1564.34 2566.97 1569.07 2568.21 1573.32 2570.48C1606.44 2587.68 1622.28 2659.12 1622.44 2659.84L1630.44 2658.16C1629.72 2655.04 1613.56 2582.32 1577.16 2563.36C1571.86 2560.56 1565.99 2559.01 1559.99 2558.84C1554 2558.68 1548.05 2559.89 1542.6 2562.4C1445.56 2603.12 1477 3004.08 1478.76 3021.12Z" fill="#90CAF9"/>
<path d="M1467.24 3012.24C1468.84 2993.92 1506.2 2562.16 1436.28 2516.24C1419.56 2505.2 1404.28 2502.88 1391.96 2509.28C1358.92 2526 1354.52 2596.56 1354.36 2599.6L1362.36 2600C1362.36 2599.36 1366.6 2531.04 1395.56 2516.4C1405.48 2511.44 1417.72 2513.6 1431.96 2522.88C1497.88 2566.16 1459.64 3007.04 1459.24 3011.52L1467.24 3012.24Z" fill="#90CAF9"/>
<path d="M1456.68 3047.2C1457.24 3033.12 1469 2702.64 1405 2674C1399.08 2671.21 1392.62 2669.77 1386.08 2669.77C1379.54 2669.77 1373.08 2671.21 1367.16 2674C1323.48 2693.2 1296.52 2774.64 1295.16 2778L1303.16 2780.48C1303.16 2779.68 1330.12 2699.04 1370.52 2681.28C1375.42 2678.95 1380.78 2677.74 1386.2 2677.74C1391.63 2677.74 1396.98 2678.95 1401.88 2681.28C1450.68 2703.44 1452.28 2953.28 1448.76 3047.2H1456.68Z" fill="#90CAF9"/>
<path d="M1472.92 3032.08L1480.92 3031.12C1469.72 2932.8 1448.28 2670.64 1483.32 2639.12C1485.03 2637.08 1487.29 2635.58 1489.83 2634.8C1492.37 2634.02 1495.08 2633.99 1497.64 2634.72C1521.08 2643.76 1535.4 2728.96 1538.92 2761.12L1546.92 2760.24C1545.56 2747.92 1532.76 2639.6 1500.52 2627.28C1496.59 2625.94 1492.36 2625.79 1488.35 2626.84C1484.34 2627.9 1480.72 2630.11 1477.96 2633.2C1432.6 2674 1471.24 3017.44 1472.92 3032.08Z" fill="#90CAF9"/>
<path d="M1606.36 2845.6H1319L1343 3167.52H1582.36L1606.36 2845.6Z" fill="#263238"/>
<path opacity="0.2" d="M1519.08 2845.6L1511.08 3167.52H1343L1319 2845.6H1519.08Z" fill="white"/>
<path d="M1567.24 2727.44C1570.28 2735.44 1592.6 2729.12 1610.12 2722.88C1616.12 2736.72 1614.76 2754.88 1609.56 2774.08C1589.56 2774.08 1561.56 2774.72 1559.08 2779.68C1556.6 2784.64 1586.6 2787.2 1605.24 2787.68C1600.15 2801.88 1594.05 2815.7 1587 2829.04C1576.6 2826.48 1565.56 2825.36 1562.44 2831.04C1559.32 2836.72 1566.12 2846 1573.4 2853.44C1562.2 2872.32 1553.08 2885.44 1553.08 2885.44C1539.72 2872.72 1527.29 2859.06 1515.88 2844.56C1515.88 2842.4 1515.88 2840.32 1515.88 2838.08C1515.16 2830.48 1511.08 2829.28 1506.2 2830.88C1498.64 2820.34 1492.23 2809.02 1487.08 2797.12C1503.64 2782.8 1522.36 2762.88 1507.56 2756.32C1498.68 2752.4 1488.84 2756.88 1479.96 2764.32C1480.05 2761.33 1480.42 2758.36 1481.08 2755.44C1494.28 2698.88 1539 2723.44 1539 2723.44C1549.64 2695.92 1579.96 2684.88 1600.36 2707.44C1587.24 2710.16 1563.56 2717.76 1567.24 2727.44Z" fill="#90CAF9"/>
<path opacity="0.3" d="M1567.24 2727.44C1570.28 2735.44 1592.6 2729.12 1610.12 2722.88C1616.12 2736.72 1614.76 2754.88 1609.56 2774.08C1589.56 2774.08 1561.56 2774.72 1559.08 2779.68C1556.6 2784.64 1586.6 2787.2 1605.24 2787.68C1600.15 2801.88 1594.05 2815.7 1587 2829.04C1576.6 2826.48 1565.56 2825.36 1562.44 2831.04C1559.32 2836.72 1566.12 2846 1573.4 2853.44C1562.2 2872.32 1553.08 2885.44 1553.08 2885.44C1539.72 2872.72 1527.29 2859.06 1515.88 2844.56C1515.88 2842.4 1515.88 2840.32 1515.88 2838.08C1515.16 2830.48 1511.08 2829.28 1506.2 2830.88C1498.64 2820.34 1492.23 2809.02 1487.08 2797.12C1503.64 2782.8 1522.36 2762.88 1507.56 2756.32C1498.68 2752.4 1488.84 2756.88 1479.96 2764.32C1480.05 2761.33 1480.42 2758.36 1481.08 2755.44C1494.28 2698.88 1539 2723.44 1539 2723.44C1549.64 2695.92 1579.96 2684.88 1600.36 2707.44C1587.24 2710.16 1563.56 2717.76 1567.24 2727.44Z" fill="white"/>
<path d="M1353.88 2765.68C1362.82 2766.42 1371.64 2768.28 1380.12 2771.2C1382.45 2765.11 1383.74 2758.68 1383.96 2752.16C1385.8 2694.16 1343.96 2718.64 1322.36 2701.6C1317.4 2697.22 1311.58 2693.92 1305.27 2691.93C1298.96 2689.93 1292.3 2689.27 1285.72 2690C1287.56 2693.21 1289.22 2696.52 1290.68 2699.92C1291.19 2701.19 1291.41 2702.56 1291.31 2703.93C1291.22 2705.3 1290.82 2706.63 1290.15 2707.82C1289.47 2709.01 1288.53 2710.03 1287.41 2710.81C1286.28 2711.59 1284.99 2712.11 1283.64 2712.32C1278.24 2713.41 1272.63 2712.74 1267.64 2710.4C1266.12 2709.61 1264.7 2708.64 1263.4 2707.52C1259.9 2713.6 1257.21 2720.11 1255.4 2726.88C1253.19 2734.97 1251.93 2743.3 1251.64 2751.68C1254.92 2752.39 1258.15 2753.3 1261.32 2754.4C1262.59 2754.94 1263.72 2755.77 1264.62 2756.82C1265.52 2757.86 1266.17 2759.1 1266.52 2760.44C1266.86 2761.77 1266.9 2763.17 1266.62 2764.53C1266.35 2765.88 1265.76 2767.15 1264.92 2768.24C1261.43 2771.57 1257.4 2774.27 1253 2776.24C1254.48 2785.51 1256.92 2794.6 1260.28 2803.36C1261.24 2803.36 1262.28 2803.36 1263.24 2803.84C1264.2 2804.32 1267.4 2804.8 1269.48 2805.36C1270.69 2805.67 1271.87 2806.1 1273 2806.64C1274.45 2807.26 1275.7 2808.25 1276.65 2809.5C1277.6 2810.75 1278.21 2812.23 1278.41 2813.79C1278.61 2815.35 1278.4 2816.93 1277.8 2818.39C1277.21 2819.84 1276.24 2821.12 1275 2822.08C1273.61 2823.04 1272.17 2823.92 1270.68 2824.72C1276.19 2834.3 1284.1 2842.27 1293.64 2847.84C1301.89 2844.03 1309.9 2839.73 1317.64 2834.96C1315.88 2832.64 1314.2 2830.32 1312.6 2827.92C1310.69 2825.29 1309.81 2822.04 1310.12 2818.8C1310.56 2815.58 1312.25 2812.66 1314.82 2810.66C1317.4 2808.67 1320.65 2807.78 1323.88 2808.16C1327.05 2808.66 1329.91 2810.35 1331.88 2812.88C1333.8 2815.76 1335.88 2818.48 1337.96 2820.88C1349.03 2812.72 1358.94 2803.08 1367.4 2792.24H1366.52C1361.28 2790.88 1355.92 2789.97 1350.52 2789.52C1348.86 2789.39 1347.24 2788.92 1345.76 2788.14C1344.28 2787.36 1342.98 2786.29 1341.93 2784.99C1340.88 2783.69 1340.1 2782.19 1339.65 2780.59C1339.2 2778.98 1339.07 2777.3 1339.29 2775.64C1339.51 2773.98 1340.06 2772.39 1340.91 2770.95C1341.77 2769.52 1342.9 2768.27 1344.25 2767.29C1345.6 2766.3 1347.14 2765.6 1348.76 2765.23C1350.39 2764.86 1352.08 2764.82 1353.72 2765.12L1353.88 2765.68Z" fill="#90CAF9"/>
<path opacity="0.5" d="M1353.88 2765.68C1362.82 2766.42 1371.64 2768.28 1380.12 2771.2C1382.45 2765.11 1383.74 2758.68 1383.96 2752.16C1385.8 2694.16 1343.96 2718.64 1322.36 2701.6C1317.4 2697.22 1311.58 2693.92 1305.27 2691.93C1298.96 2689.93 1292.3 2689.27 1285.72 2690C1287.56 2693.21 1289.22 2696.52 1290.68 2699.92C1291.19 2701.19 1291.41 2702.56 1291.31 2703.93C1291.22 2705.3 1290.82 2706.63 1290.15 2707.82C1289.47 2709.01 1288.53 2710.03 1287.41 2710.81C1286.28 2711.59 1284.99 2712.11 1283.64 2712.32C1278.24 2713.41 1272.63 2712.74 1267.64 2710.4C1266.12 2709.61 1264.7 2708.64 1263.4 2707.52C1259.9 2713.6 1257.21 2720.11 1255.4 2726.88C1253.19 2734.97 1251.93 2743.3 1251.64 2751.68C1254.92 2752.39 1258.15 2753.3 1261.32 2754.4C1262.59 2754.94 1263.72 2755.77 1264.62 2756.82C1265.52 2757.86 1266.17 2759.1 1266.52 2760.44C1266.86 2761.77 1266.9 2763.17 1266.62 2764.53C1266.35 2765.88 1265.76 2767.15 1264.92 2768.24C1261.43 2771.57 1257.4 2774.27 1253 2776.24C1254.48 2785.51 1256.92 2794.6 1260.28 2803.36C1261.24 2803.36 1262.28 2803.36 1263.24 2803.84C1264.2 2804.32 1267.4 2804.8 1269.48 2805.36C1270.69 2805.67 1271.87 2806.1 1273 2806.64C1274.45 2807.26 1275.7 2808.25 1276.65 2809.5C1277.6 2810.75 1278.21 2812.23 1278.41 2813.79C1278.61 2815.35 1278.4 2816.93 1277.8 2818.39C1277.21 2819.84 1276.24 2821.12 1275 2822.08C1273.61 2823.04 1272.17 2823.92 1270.68 2824.72C1276.19 2834.3 1284.1 2842.27 1293.64 2847.84C1301.89 2844.03 1309.9 2839.73 1317.64 2834.96C1315.88 2832.64 1314.2 2830.32 1312.6 2827.92C1310.69 2825.29 1309.81 2822.04 1310.12 2818.8C1310.56 2815.58 1312.25 2812.66 1314.82 2810.66C1317.4 2808.67 1320.65 2807.78 1323.88 2808.16C1327.05 2808.66 1329.91 2810.35 1331.88 2812.88C1333.8 2815.76 1335.88 2818.48 1337.96 2820.88C1349.03 2812.72 1358.94 2803.08 1367.4 2792.24H1366.52C1361.28 2790.88 1355.92 2789.97 1350.52 2789.52C1348.86 2789.39 1347.24 2788.92 1345.76 2788.14C1344.28 2787.36 1342.98 2786.29 1341.93 2784.99C1340.88 2783.69 1340.1 2782.19 1339.65 2780.59C1339.2 2778.98 1339.07 2777.3 1339.29 2775.64C1339.51 2773.98 1340.06 2772.39 1340.91 2770.95C1341.77 2769.52 1342.9 2768.27 1344.25 2767.29C1345.6 2766.3 1347.14 2765.6 1348.76 2765.23C1350.39 2764.86 1352.08 2764.82 1353.72 2765.12L1353.88 2765.68Z" fill="white"/>
<path d="M1337.24 2565.84C1332.29 2562.3 1326.92 2559.39 1321.24 2557.2C1322.7 2552.99 1324.84 2549.05 1327.56 2545.52C1352.04 2514.24 1363.16 2545.52 1382.12 2546C1386.6 2545.9 1391.05 2546.73 1395.18 2548.45C1399.32 2550.18 1403.04 2552.75 1406.12 2556C1403.73 2556.85 1401.41 2557.87 1399.16 2559.04C1398.34 2559.49 1397.64 2560.12 1397.09 2560.88C1396.55 2561.64 1396.18 2562.51 1396.01 2563.43C1395.85 2564.34 1395.88 2565.29 1396.12 2566.19C1396.36 2567.09 1396.8 2567.93 1397.4 2568.64C1399.82 2571.64 1403.12 2573.79 1406.84 2574.8C1407.98 2574.88 1409.13 2574.88 1410.28 2574.8C1409.45 2579.53 1408 2584.13 1405.96 2588.48C1403.53 2593.78 1400.52 2598.8 1397 2603.44C1394.95 2602.39 1392.84 2601.46 1390.68 2600.64C1389.78 2600.34 1388.82 2600.26 1387.88 2600.39C1386.94 2600.53 1386.05 2600.88 1385.27 2601.43C1384.49 2601.97 1383.85 2602.69 1383.4 2603.53C1382.95 2604.36 1382.71 2605.29 1382.68 2606.24C1382.91 2609.6 1383.77 2612.89 1385.24 2615.92C1380.31 2620.17 1374.94 2623.9 1369.24 2627.04C1368.68 2626.62 1368.1 2626.25 1367.48 2625.92C1366.2 2625.2 1364.84 2624.64 1363.56 2624L1361.16 2623.12C1360.14 2622.84 1359.06 2622.82 1358.03 2623.05C1356.99 2623.29 1356.04 2623.78 1355.24 2624.48C1354.42 2625.2 1353.8 2626.13 1353.46 2627.18C1353.13 2628.22 1353.08 2629.33 1353.32 2630.4C1353.62 2631.52 1354 2632.61 1354.44 2633.68C1347.33 2636.28 1339.67 2636.99 1332.2 2635.76C1329.5 2630.06 1327.12 2624.21 1325.08 2618.24C1327 2617.76 1328.92 2617.36 1330.76 2616.8C1332.93 2616.22 1334.83 2614.89 1336.12 2613.04C1336.77 2612.12 1337.21 2611.08 1337.43 2609.98C1337.65 2608.88 1337.63 2607.75 1337.38 2606.65C1337.14 2605.56 1336.66 2604.53 1335.99 2603.63C1335.31 2602.73 1334.46 2601.99 1333.48 2601.44C1332.56 2600.83 1331.52 2600.41 1330.44 2600.22C1329.35 2600.03 1328.23 2600.06 1327.16 2600.32C1324.92 2600.96 1322.6 2601.44 1320.28 2602C1318.04 2592.84 1317.05 2583.43 1317.32 2574H1317.96C1321.37 2575.61 1324.63 2577.51 1327.72 2579.68C1329.6 2580.88 1331.87 2581.28 1334.05 2580.8C1336.23 2580.32 1338.12 2579 1339.32 2577.12C1340.45 2575.32 1340.86 2573.16 1340.48 2571.08C1340.09 2568.99 1338.94 2567.12 1337.24 2565.84Z" fill="#90CAF9"/>
<path opacity="0.3" d="M1337.24 2565.84C1332.29 2562.3 1326.92 2559.39 1321.24 2557.2C1322.7 2552.99 1324.84 2549.05 1327.56 2545.52C1352.04 2514.24 1363.16 2545.52 1382.12 2546C1386.6 2545.9 1391.05 2546.73 1395.18 2548.45C1399.32 2550.18 1403.04 2552.75 1406.12 2556C1403.73 2556.85 1401.41 2557.87 1399.16 2559.04C1398.34 2559.49 1397.64 2560.12 1397.09 2560.88C1396.55 2561.64 1396.18 2562.51 1396.01 2563.43C1395.85 2564.34 1395.88 2565.29 1396.12 2566.19C1396.36 2567.09 1396.8 2567.93 1397.4 2568.64C1399.82 2571.64 1403.12 2573.79 1406.84 2574.8C1407.98 2574.88 1409.13 2574.88 1410.28 2574.8C1409.45 2579.53 1408 2584.13 1405.96 2588.48C1403.53 2593.78 1400.52 2598.8 1397 2603.44C1394.95 2602.39 1392.84 2601.46 1390.68 2600.64C1389.78 2600.34 1388.82 2600.26 1387.88 2600.39C1386.94 2600.53 1386.05 2600.88 1385.27 2601.43C1384.49 2601.97 1383.85 2602.69 1383.4 2603.53C1382.95 2604.36 1382.71 2605.29 1382.68 2606.24C1382.91 2609.6 1383.77 2612.89 1385.24 2615.92C1380.31 2620.17 1374.94 2623.9 1369.24 2627.04C1368.68 2626.62 1368.1 2626.25 1367.48 2625.92C1366.2 2625.2 1364.84 2624.64 1363.56 2624L1361.16 2623.12C1360.14 2622.84 1359.06 2622.82 1358.03 2623.05C1356.99 2623.29 1356.04 2623.78 1355.24 2624.48C1354.42 2625.2 1353.8 2626.13 1353.46 2627.18C1353.13 2628.22 1353.08 2629.33 1353.32 2630.4C1353.62 2631.52 1354 2632.61 1354.44 2633.68C1347.33 2636.28 1339.67 2636.99 1332.2 2635.76C1329.5 2630.06 1327.12 2624.21 1325.08 2618.24C1327 2617.76 1328.92 2617.36 1330.76 2616.8C1332.93 2616.22 1334.83 2614.89 1336.12 2613.04C1336.77 2612.12 1337.21 2611.08 1337.43 2609.98C1337.65 2608.88 1337.63 2607.75 1337.38 2606.65C1337.14 2605.56 1336.66 2604.53 1335.99 2603.63C1335.31 2602.73 1334.46 2601.99 1333.48 2601.44C1332.56 2600.83 1331.52 2600.41 1330.44 2600.22C1329.35 2600.03 1328.23 2600.06 1327.16 2600.32C1324.92 2600.96 1322.6 2601.44 1320.28 2602C1318.04 2592.84 1317.05 2583.43 1317.32 2574H1317.96C1321.37 2575.61 1324.63 2577.51 1327.72 2579.68C1329.6 2580.88 1331.87 2581.28 1334.05 2580.8C1336.23 2580.32 1338.12 2579 1339.32 2577.12C1340.45 2575.32 1340.86 2573.16 1340.48 2571.08C1340.09 2568.99 1338.94 2567.12 1337.24 2565.84Z" fill="white"/>
<path d="M1571.4 2623.84C1573.08 2635.6 1541.24 2643.36 1515.4 2647.84C1517.48 2669.2 1531.4 2690.72 1551.32 2710.88C1576.04 2696.96 1611.24 2678.88 1617.72 2683.12C1624.2 2687.36 1588.76 2711.36 1566.2 2725.04C1582.31 2739.13 1599.39 2752.07 1617.32 2763.76C1628.36 2753.44 1641.32 2744.4 1649.32 2749.28C1657.32 2754.16 1655.16 2770.4 1651.24 2784.64C1678.12 2800.64 1698.2 2809.84 1698.2 2809.84C1706.01 2784.89 1712 2759.41 1716.12 2733.6C1714.76 2730.88 1713.4 2728.24 1712.2 2725.6C1707.88 2715.6 1712.2 2711.28 1719.24 2709.6C1721.29 2691.34 1721.42 2672.92 1719.64 2654.64C1689.32 2648.32 1652.36 2636.48 1666.2 2618.24C1674.2 2607.28 1690.2 2606 1705.72 2608.8C1703.53 2605.16 1701.02 2601.73 1698.2 2598.56C1642.84 2537.6 1604.28 2598.56 1604.28 2598.56C1572.28 2571.76 1527 2579.04 1517.24 2620.88C1534.84 2616.16 1569.32 2609.28 1571.4 2623.84Z" fill="#90CAF9"/>
<path opacity="0.5" d="M1571.4 2623.84C1573.08 2635.6 1541.24 2643.36 1515.4 2647.84C1517.48 2669.2 1531.4 2690.72 1551.32 2710.88C1576.04 2696.96 1611.24 2678.88 1617.72 2683.12C1624.2 2687.36 1588.76 2711.36 1566.2 2725.04C1582.31 2739.13 1599.39 2752.07 1617.32 2763.76C1628.36 2753.44 1641.32 2744.4 1649.32 2749.28C1657.32 2754.16 1655.16 2770.4 1651.24 2784.64C1678.12 2800.64 1698.2 2809.84 1698.2 2809.84C1706.01 2784.89 1712 2759.41 1716.12 2733.6C1714.76 2730.88 1713.4 2728.24 1712.2 2725.6C1707.88 2715.6 1712.2 2711.28 1719.24 2709.6C1721.29 2691.34 1721.42 2672.92 1719.64 2654.64C1689.32 2648.32 1652.36 2636.48 1666.2 2618.24C1674.2 2607.28 1690.2 2606 1705.72 2608.8C1703.53 2605.16 1701.02 2601.73 1698.2 2598.56C1642.84 2537.6 1604.28 2598.56 1604.28 2598.56C1572.28 2571.76 1527 2579.04 1517.24 2620.88C1534.84 2616.16 1569.32 2609.28 1571.4 2623.84Z" fill="white"/>
<path d="M3169.8 451.759H1826.28C1780.33 451.759 1743.08 489.009 1743.08 534.959V3084.32C1743.08 3130.27 1780.33 3167.52 1826.28 3167.52H3169.8C3215.75 3167.52 3253 3130.27 3253 3084.32V534.959C3253 489.009 3215.75 451.759 3169.8 451.759Z" fill="#263238"/>
<path d="M3202.52 542.719V3071.68C3202.52 3076.58 3201.55 3081.43 3199.66 3085.95C3197.76 3090.47 3194.99 3094.57 3191.5 3098.01C3188.01 3101.45 3183.87 3104.16 3179.32 3105.99C3174.77 3107.81 3169.9 3108.71 3165 3108.64H1828.04C1823.59 3108.69 1819.17 3107.85 1815.06 3106.16C1810.94 3104.47 1807.2 3101.97 1804.07 3098.8C1800.95 3095.63 1798.49 3091.87 1796.85 3087.73C1795.2 3083.59 1794.41 3079.17 1794.52 3074.72V539.679C1794.36 535.753 1794.98 531.834 1796.34 528.147C1797.69 524.46 1799.77 521.077 1802.43 518.193C1805.1 515.309 1808.31 512.98 1811.89 511.341C1815.46 509.701 1819.32 508.783 1823.24 508.639H2157.48C2162.16 508.722 2166.7 510.197 2170.54 512.876C2174.37 515.555 2177.32 519.316 2179 523.679L2192.84 557.759C2194.55 562.091 2197.51 565.818 2201.34 568.467C2205.17 571.116 2209.7 572.568 2214.36 572.639H2783.4C2788.05 572.635 2792.6 571.239 2796.45 568.629C2800.3 566.02 2803.28 562.317 2805 557.999L2818.84 523.759C2820.57 519.417 2823.52 515.674 2827.35 512.988C2831.17 510.303 2835.69 508.791 2840.36 508.639H3169.8C3178.63 508.91 3187 512.631 3193.12 519.002C3199.23 525.373 3202.61 533.887 3202.52 542.719Z" fill="#90CAF9"/>
<path opacity="0.3" d="M3202.52 666.642H1794.52V2940.64H3202.52V666.642Z" fill="white"/>
<path d="M2195.8 1455.28C2371.87 1455.28 2514.6 1312.55 2514.6 1136.48C2514.6 960.413 2371.87 817.682 2195.8 817.682C2019.73 817.682 1877 960.413 1877 1136.48C1877 1312.55 2019.73 1455.28 2195.8 1455.28Z" fill="white"/>
<path opacity="0.6" d="M2466.68 531.358C2477.37 531.358 2486.04 522.69 2486.04 511.998C2486.04 501.305 2477.37 492.638 2466.68 492.638C2455.99 492.638 2447.32 501.305 2447.32 511.998C2447.32 522.69 2455.99 531.358 2466.68 531.358Z" fill="white"/>
<path opacity="0.6" d="M2525 512.001C2525 514.453 2524.27 516.851 2522.91 518.89C2521.55 520.929 2519.61 522.518 2517.35 523.457C2515.08 524.396 2512.59 524.641 2510.18 524.163C2507.78 523.684 2505.57 522.503 2503.83 520.769C2502.1 519.035 2500.92 516.825 2500.44 514.42C2499.96 512.015 2500.21 509.521 2501.14 507.256C2502.08 504.99 2503.67 503.053 2505.71 501.691C2507.75 500.328 2510.15 499.601 2512.6 499.601C2514.23 499.59 2515.85 499.904 2517.36 500.523C2518.87 501.142 2520.24 502.055 2521.39 503.209C2522.55 504.363 2523.46 505.734 2524.08 507.243C2524.7 508.752 2525.01 510.37 2525 512.001Z" fill="white"/>
<path opacity="0.6" d="M1953.4 610.558H1970.76V587.358H1953.4V610.558Z" fill="white"/>
<path opacity="0.6" d="M1925 610.558H1942.36V579.678H1925V610.558Z" fill="white"/>
<path opacity="0.6" d="M1896.68 610.558H1914.04V571.918H1896.68V610.558Z" fill="white"/>
<path opacity="0.6" d="M1868.36 610.558H1885.72V564.158H1868.36V610.558Z" fill="white"/>
<path opacity="0.6" d="M3046.84 578.878H3036.52V602.078H3046.84V578.878Z" fill="white"/>
<path opacity="0.6" d="M3053.88 610.558H3136.04V570.478H3053.88V610.558Z" fill="white"/>
<path d="M2237 1082C2170.92 1082.8 2071.96 1088 1989.72 1108.72C1989.72 1108.72 2001.8 1169.36 2014.92 1251.84C2019.8 1282.56 2024.84 1315.84 2029.48 1350.96C2030.12 1356.16 2030.84 1361.36 2031.48 1366.96L2032.44 1374.96C2033.72 1385.44 2035 1396 2036.2 1406.48C2036.2 1408.8 2036.76 1411.12 2037 1413.44C2083.35 1440.01 2135.63 1454.51 2189.04 1455.61C2242.45 1456.72 2295.28 1444.39 2342.68 1419.76C2342.04 1313.2 2335.48 1177.92 2310.28 1083.76C2310.36 1082.88 2281 1081.52 2237 1082Z" fill="#90CAF9"/>
<path opacity="0.6" d="M2237 1082C2170.92 1082.8 2071.96 1088 1989.72 1108.72C1989.72 1108.72 2001.8 1169.36 2014.92 1251.84C2019.8 1282.56 2024.84 1315.84 2029.48 1350.96C2030.12 1356.16 2030.84 1361.36 2031.48 1366.96L2032.44 1374.96C2033.72 1385.44 2035 1396 2036.2 1406.48C2036.2 1408.8 2036.76 1411.12 2037 1413.44C2083.35 1440.01 2135.63 1454.51 2189.04 1455.61C2242.45 1456.72 2295.28 1444.39 2342.68 1419.76C2342.04 1313.2 2335.48 1177.92 2310.28 1083.76C2310.36 1082.88 2281 1081.52 2237 1082Z" fill="white"/>
<path d="M2097.24 1095.04C2123.64 1119.04 2188.2 1110.16 2188.2 1110.16C2188.2 1110.16 2228.2 1099.12 2220.2 1086.16C2196.2 1082.24 2184.92 1071.12 2180.2 1056.96C2177.64 1048.16 2176.83 1038.95 2177.8 1029.84C2177.8 1024.8 2178.92 1019.68 2179.8 1014.64L2099.8 955.519C2110.28 994.879 2123.08 1066.72 2097.24 1095.04Z" fill="#EBB376"/>
<path opacity="0.2" d="M2118.2 993.438C2121.4 1041.44 2160.76 1054.56 2180.04 1057.44C2177.48 1048.64 2176.67 1039.43 2177.64 1030.32L2118.2 993.438Z" fill="black"/>
<path d="M2217.48 832.721C2217.48 832.721 2244.84 903.041 2212.44 939.681C2180.04 976.321 2149.72 840.801 2149.72 840.801L2217.48 832.721Z" fill="#263238"/>
<path d="M2113.16 1022.64C2123.96 1032.8 2137.8 1039.14 2152.54 1040.7C2167.29 1042.26 2182.15 1038.95 2194.84 1031.28C2211.39 1021.62 2223.66 1006.04 2229.16 987.678C2229.96 985.118 2230.52 982.558 2231.08 979.678C2240.12 930.878 2228.76 851.678 2175.08 833.038C2163.26 828.855 2150.57 827.767 2138.21 829.877C2125.86 831.987 2114.24 837.225 2104.48 845.092C2094.72 852.959 2087.14 863.194 2082.46 874.821C2077.77 886.449 2076.14 899.082 2077.72 911.518C2083.72 965.038 2085 996.718 2113.16 1022.64Z" fill="#EBB376"/>
<path d="M2159.96 922.562C2159.96 926.962 2162.6 930.562 2165.48 930.562C2168.36 930.562 2170.44 926.802 2170.28 922.562C2170.12 918.322 2167.56 914.562 2164.68 914.962C2161.8 915.362 2159.72 918.162 2159.96 922.562Z" fill="#263238"/>
<path d="M2209.24 920.081C2209.24 924.401 2211.96 928.081 2214.84 928.081C2217.72 928.081 2219.8 924.241 2219.56 920.081C2219.32 915.921 2216.84 912.081 2213.96 912.481C2211.08 912.881 2209 915.921 2209.24 920.081Z" fill="#263238"/>
<path d="M2193.64 923.038C2199.53 936.112 2207.2 948.308 2216.44 959.278C2213.55 961.579 2210.18 963.216 2206.59 964.074C2203 964.931 2199.26 964.987 2195.64 964.238L2193.64 923.038Z" fill="#D58745"/>
<path d="M2143.8 907.439C2144.28 907.469 2144.76 907.375 2145.2 907.165C2145.63 906.955 2146 906.636 2146.28 906.239C2148.03 903.535 2150.39 901.279 2153.16 899.653C2155.94 898.028 2159.07 897.077 2162.28 896.879C2162.62 896.879 2162.95 896.813 2163.26 896.684C2163.57 896.555 2163.85 896.367 2164.09 896.129C2164.33 895.891 2164.52 895.609 2164.64 895.298C2164.77 894.988 2164.84 894.655 2164.84 894.319C2164.84 893.983 2164.77 893.65 2164.64 893.339C2164.52 893.029 2164.33 892.746 2164.09 892.509C2163.85 892.271 2163.57 892.082 2163.26 891.954C2162.95 891.825 2162.62 891.759 2162.28 891.759C2158.23 891.951 2154.28 893.102 2150.76 895.119C2147.24 897.136 2144.25 899.96 2142.04 903.359C2141.65 903.916 2141.49 904.601 2141.6 905.271C2141.7 905.941 2142.06 906.546 2142.6 906.959C2142.98 907.173 2143.38 907.335 2143.8 907.439Z" fill="#263238"/>
<path d="M2229.56 902C2230.06 902.159 2230.59 902.159 2231.08 902C2231.67 901.678 2232.11 901.137 2232.31 900.493C2232.5 899.85 2232.44 899.155 2232.12 898.56C2230.24 894.941 2227.51 891.829 2224.17 889.489C2220.83 887.149 2216.97 885.651 2212.92 885.12C2212.59 885.075 2212.25 885.101 2211.92 885.196C2211.6 885.291 2211.3 885.454 2211.04 885.673C2210.79 885.892 2210.58 886.162 2210.43 886.467C2210.29 886.771 2210.21 887.103 2210.2 887.44C2210.18 888.102 2210.4 888.749 2210.83 889.253C2211.26 889.756 2211.86 890.08 2212.52 890.16C2215.7 890.673 2218.72 891.925 2221.33 893.814C2223.95 895.703 2226.08 898.178 2227.56 901.04C2227.79 901.349 2228.1 901.598 2228.44 901.765C2228.79 901.932 2229.18 902.013 2229.56 902Z" fill="#263238"/>
<path d="M2113.8 842.96L2119 866.16C2115.21 868.449 2112.42 872.084 2111.19 876.34C2109.96 880.596 2110.37 885.16 2112.36 889.12C2121.88 908.16 2113.72 940 2099.72 953.68C2099.72 953.68 2098.44 945.2 2091.72 947.92C2085 950.64 2091.08 995.12 2107.32 1015.04C2087.16 996.942 2072.02 973.927 2063.4 948.24C2047.96 906 2047.4 874 2054.2 856.32L2113.8 842.96Z" fill="#263238"/>
<path d="M2056.76 956.88C2063.36 968.585 2074.31 977.211 2087.24 980.88C2104.44 985.68 2113.08 970.32 2108.36 954C2104.04 939.6 2089.88 919.2 2072.52 922C2068.76 922.569 2065.2 924.071 2062.17 926.369C2059.13 928.667 2056.72 931.687 2055.16 935.154C2053.59 938.622 2052.92 942.426 2053.2 946.221C2053.48 950.016 2054.7 953.68 2056.76 956.88Z" fill="#EBB376"/>
<path d="M2119 866C2119 866 2176.92 886.56 2209.88 856C2242.84 825.44 2204.76 784 2204.76 784C2196.77 792.241 2186.1 797.349 2174.68 798.4C2156.2 799.68 2113.56 788.56 2079.24 806.4C2044.92 824.24 2032.04 873.36 2063.24 895.76L2119 866Z" fill="#263238"/>
<path d="M2165 971.759C2167.99 976.346 2172.4 979.829 2177.56 981.678C2182.72 983.526 2188.33 983.639 2193.56 981.999" stroke="#263238" stroke-width="0.5" stroke-linecap="round" stroke-linejoin="round"/>
<path d="M2214.52 1106L2206.52 1144C2206.52 1144 2250.76 1328.56 2260.28 1424L2244.28 1440L2218.92 1424C2218.92 1424 2216.68 1229.04 2194.28 1147.12L2154.28 1114.24L2186.28 1104.08L2214.52 1106Z" fill="#90CAF9"/>
<path d="M2106.28 1058.88L2183 1093.44L2187.48 1065.76L2215.72 1075.68C2220.59 1077.4 2224.74 1080.7 2227.52 1085.04C2230.3 1089.39 2231.56 1094.54 2231.08 1099.68L2227.88 1130.16L2189 1109.04L2169.56 1136.48L2077.4 1092.08L2106.28 1058.88Z" fill="#90CAF9"/>
<path opacity="0.7" d="M2106.28 1058.88L2183 1093.44L2187.48 1065.76L2215.72 1075.68C2220.59 1077.4 2224.74 1080.7 2227.52 1085.04C2230.3 1089.39 2231.56 1094.54 2231.08 1099.68L2227.88 1130.16L2189 1109.04L2169.56 1136.48L2077.4 1092.08L2106.28 1058.88Z" fill="white"/>
<path d="M2310.52 1082.88L2221 1078.56C2236.44 1150.56 2233.48 1334 2233.48 1334C2151.64 1146.24 2079.24 1087.36 2079.24 1087.36L1989.72 1108.8C1993.56 1158.08 2012.92 1304.72 2026.84 1406.96C2075.23 1437.21 2130.86 1453.9 2187.91 1455.31C2244.96 1456.72 2301.34 1442.78 2351.16 1414.96C2358.2 1188.88 2310.52 1082.88 2310.52 1082.88Z" fill="#263238"/>
<path opacity="0.1" d="M2351.88 1338C2347.56 1164.8 2310.52 1083.12 2310.52 1083.12L2221 1078.56C2234.2 1140.32 2233.88 1284.32 2233.56 1323.84C2233.56 1330.32 2233.56 1333.92 2233.56 1333.92L2228.92 1323.28C2148.92 1144 2079.4 1087.28 2079.4 1087.28L2073.24 1088.8L1989.96 1108.8C1992.12 1136.72 1999.24 1195.84 2007.48 1260.8C2010.2 1281.36 2012.92 1302.4 2015.48 1323.2C2018.04 1344 2020.76 1362.32 2023.48 1380.8C2024.68 1389.92 2025.88 1398.72 2027.08 1407.28C2075.49 1437.55 2131.15 1454.26 2188.23 1455.67C2245.31 1457.07 2301.72 1443.13 2351.56 1415.28C2351.56 1411.52 2351.56 1407.28 2351.96 1403.84C2352.39 1380.32 2352.36 1358.37 2351.88 1338Z" fill="white"/>
<path opacity="0.2" d="M2266.6 1162.48L2287.32 1198.96C2287.32 1198.96 2265.8 1339.44 2231.32 1388.32V1359.28L2097.4 1204.88L2121.4 1167.76L2061 1179.6C2061 1179.6 2055.4 1123.6 2073.32 1088.8L2079.48 1087.36C2079.48 1087.36 2151.88 1146.32 2233.64 1334C2233.64 1334 2236.68 1150.48 2221.24 1078.56C2221.24 1078.56 2263.88 1101.68 2294.28 1162.48H2266.6Z" fill="white"/>
<path opacity="0.2" d="M2351.96 1403.2C2352.33 1380.05 2352.33 1358.24 2351.96 1337.76L2233.88 1323.84L2229.08 1323.28L2154.36 1314.48L2055.32 1194L2015.72 1322.8C2018.44 1342.48 2021 1361.92 2023.72 1380.4C2024.92 1389.52 2026.12 1398.32 2027.32 1406.88C2062.55 1428.93 2101.77 1443.83 2142.76 1450.72C2183.46 1431.05 2222.94 1408.96 2261 1384.56C2298.76 1394 2329.32 1399.76 2351.96 1403.2Z" fill="black"/>
<path d="M2310.52 1082.96C2320.97 1115.9 2329.49 1149.43 2336.04 1183.36C2341.8 1213.06 2345.97 1243.05 2348.52 1273.2L2167.24 1334L2159.24 1368.48C2159.24 1368.48 2322.36 1388.24 2411.4 1371.36C2431.79 1352.57 2449.68 1331.22 2464.6 1307.84C2445 1227.92 2345.48 1091.12 2310.52 1082.96Z" fill="#263238"/>
<path opacity="0.1" d="M2310.52 1082.88C2320.19 1113.06 2328.2 1143.75 2334.52 1174.8C2335.16 1177.68 2335.72 1180.48 2336.28 1183.36C2342 1213.07 2346.16 1243.06 2348.76 1273.2L2230.6 1312.8L2167.4 1333.92L2159.4 1368.4C2159.4 1368.4 2184.36 1371.52 2220.12 1374.16C2241.88 1375.84 2267.56 1377.28 2294.12 1377.92C2333.36 1379.59 2372.66 1377.42 2411.48 1371.44C2431.9 1352.65 2449.81 1331.3 2464.76 1307.92C2445 1227.92 2345.48 1091.12 2310.52 1082.88Z" fill="white"/>
<path opacity="0.2" d="M2400.92 1272.64C2370.15 1312.39 2334.17 1347.83 2293.96 1378C2267.4 1377.36 2241.72 1375.92 2219.96 1374.24C2215.99 1361.29 2214.1 1347.79 2214.36 1334.24L2230.36 1313.12L2348.52 1273.52C2345.92 1243.38 2341.76 1213.39 2336.04 1183.68C2335.48 1180.8 2334.92 1178 2334.28 1175.12L2334.92 1174.4C2334.92 1174.4 2387.72 1214.48 2400.92 1272.64Z" fill="black"/>
<path d="M2185.24 1314.88C2185.24 1314.88 2149.16 1285.84 2135.08 1281.44C2121 1277.04 2093.64 1298.16 2093.64 1298.16L2128.84 1348.4L2185.24 1314.88Z" fill="#EBB376"/>
<path d="M2347.24 1308.72L2400.92 1272.64C2400.92 1272.64 2360.44 1243.6 2355.16 1242.72C2349.88 1241.84 2323.16 1272.64 2323.16 1272.64L2347.24 1308.72Z" fill="#EBB376"/>
<path d="M1990.04 1108.8C1937.8 1134.4 2012.52 1382.32 2077.32 1432.72C2142.12 1483.12 2361.96 1308.32 2361.96 1308.32L2328.76 1261.76C2328.76 1261.76 2157 1322 2134.44 1316.08C2111.88 1310.16 2051.24 1181.6 2031.48 1151.84C2018.48 1132.99 2001.83 1116.94 1982.52 1104.64" fill="#263238"/>
<path opacity="0.1" d="M1990.04 1108.8C1937.8 1134.4 2012.52 1382.32 2077.32 1432.72C2142.12 1483.12 2361.96 1308.32 2361.96 1308.32L2328.76 1261.76C2328.76 1261.76 2157 1322 2134.44 1316.08C2111.88 1310.16 2051.24 1181.6 2031.48 1151.84C2018.48 1132.99 2001.83 1116.94 1982.52 1104.64" fill="white"/>
<path d="M2948.44 988.402H2651.56C2641.41 988.381 2631.67 984.337 2624.49 977.155C2617.31 969.973 2613.26 960.238 2613.24 950.082C2613.26 939.933 2617.31 930.206 2624.49 923.037C2631.68 915.868 2641.41 911.842 2651.56 911.842H2948.44C2958.58 911.842 2968.31 915.871 2975.48 923.042C2982.65 930.214 2986.68 939.94 2986.68 950.082C2986.68 960.231 2982.66 969.966 2975.49 977.15C2968.32 984.334 2958.59 988.381 2948.44 988.402Z" fill="#90CAF9"/>
<path d="M3083.72 1078.96H2627.72C2623.81 1078.96 2620.07 1077.41 2617.31 1074.65C2614.55 1071.89 2613 1068.14 2613 1064.24C2613 1062.31 2613.38 1060.4 2614.12 1058.62C2614.86 1056.84 2615.95 1055.22 2617.31 1053.86C2618.68 1052.5 2620.31 1051.42 2622.09 1050.69C2623.88 1049.96 2625.79 1049.59 2627.72 1049.6H3083.72C3085.65 1049.59 3087.56 1049.96 3089.35 1050.69C3091.13 1051.42 3092.75 1052.5 3094.12 1053.86C3095.49 1055.22 3096.58 1056.84 3097.32 1058.62C3098.06 1060.4 3098.44 1062.31 3098.44 1064.24C3098.44 1068.14 3096.89 1071.89 3094.13 1074.65C3091.37 1077.41 3087.62 1078.96 3083.72 1078.96Z" fill="#90CAF9"/>
<path d="M2890.36 1147.28H2627.96C2626.03 1147.29 2624.12 1146.92 2622.34 1146.19C2620.55 1145.46 2618.93 1144.38 2617.56 1143.02C2616.19 1141.66 2615.1 1140.04 2614.36 1138.26C2613.62 1136.48 2613.24 1134.57 2613.24 1132.64C2613.24 1128.74 2614.79 1124.99 2617.55 1122.23C2620.31 1119.47 2624.06 1117.92 2627.96 1117.92H2890.36C2892.29 1117.92 2894.2 1118.3 2895.98 1119.04C2897.76 1119.78 2899.38 1120.87 2900.74 1122.24C2902.1 1123.6 2903.18 1125.23 2903.91 1127.01C2904.64 1128.8 2905.01 1130.71 2905 1132.64C2905 1134.56 2904.62 1136.47 2903.89 1138.24C2903.15 1140.02 2902.07 1141.63 2900.71 1142.99C2899.35 1144.35 2897.74 1145.43 2895.96 1146.17C2894.19 1146.9 2892.28 1147.28 2890.36 1147.28Z" fill="#90CAF9"/>
<path opacity="0.2" d="M2764.28 1327.28H2648.92C2644.21 1327.31 2639.55 1326.41 2635.19 1324.63C2630.83 1322.85 2626.87 1320.23 2623.53 1316.91C2620.19 1313.6 2617.54 1309.65 2615.74 1305.31C2613.93 1300.96 2613 1296.3 2613 1291.6C2613 1282.14 2616.76 1273.06 2623.45 1266.37C2630.14 1259.68 2639.22 1255.92 2648.68 1255.92H2764.04C2768.73 1255.91 2773.37 1256.82 2777.7 1258.61C2782.04 1260.4 2785.98 1263.03 2789.29 1266.35C2792.61 1269.66 2795.23 1273.6 2797.02 1277.93C2798.81 1282.27 2799.73 1286.91 2799.72 1291.6C2799.72 1301.02 2795.99 1310.06 2789.35 1316.74C2782.71 1323.43 2773.7 1327.22 2764.28 1327.28Z" fill="black"/>
<path d="M2352.68 1551.68H1831.56V2857.52H2352.68V1551.68Z" fill="#90CAF9"/>
<g opacity="0.3">
<path d="M2215.8 1896.64H1919.8C1917.87 1896.64 1915.95 1896.26 1914.17 1895.52C1912.38 1894.78 1910.76 1893.7 1909.39 1892.33C1908.02 1890.96 1906.94 1889.34 1906.2 1887.55C1905.46 1885.77 1905.08 1883.85 1905.08 1881.92C1905.08 1879.99 1905.46 1878.08 1906.2 1876.3C1906.94 1874.52 1908.03 1872.9 1909.39 1871.54C1910.76 1870.18 1912.39 1869.1 1914.17 1868.37C1915.96 1867.64 1917.87 1867.27 1919.8 1867.28H2215.8C2217.73 1867.27 2219.64 1867.64 2221.43 1868.37C2223.21 1869.1 2224.83 1870.18 2226.2 1871.54C2227.57 1872.9 2228.66 1874.52 2229.4 1876.3C2230.14 1878.08 2230.52 1879.99 2230.52 1881.92C2230.52 1885.83 2228.97 1889.57 2226.21 1892.33C2223.45 1895.09 2219.7 1896.64 2215.8 1896.64Z" fill="white"/>
<path d="M2102.44 1964.96H1920.04C1916.13 1964.96 1912.39 1963.41 1909.63 1960.65C1906.87 1957.89 1905.32 1954.15 1905.32 1950.24C1905.32 1948.31 1905.7 1946.4 1906.44 1944.62C1907.18 1942.84 1908.27 1941.22 1909.63 1939.86C1911 1938.5 1912.62 1937.42 1914.41 1936.69C1916.2 1935.96 1918.11 1935.59 1920.04 1935.6H2102.44C2106.33 1935.6 2110.06 1937.14 2112.82 1939.88C2115.58 1942.63 2117.14 1946.35 2117.16 1950.24C2117.16 1954.15 2115.61 1957.89 2112.85 1960.65C2110.09 1963.41 2106.34 1964.96 2102.44 1964.96Z" fill="white"/>
</g>
<g opacity="0.3">
<path d="M2135.8 2101.04H1919.8C1915.89 2101.04 1912.15 2099.49 1909.39 2096.73C1906.63 2093.97 1905.08 2090.23 1905.08 2086.32C1905.08 2084.39 1905.46 2082.48 1906.2 2080.7C1906.94 2078.92 1908.03 2077.3 1909.39 2075.94C1910.76 2074.58 1912.39 2073.5 1914.17 2072.77C1915.96 2072.04 1917.87 2071.67 1919.8 2071.68H2135.8C2137.73 2071.67 2139.64 2072.04 2141.43 2072.77C2143.21 2073.5 2144.83 2074.58 2146.2 2075.94C2147.57 2077.3 2148.66 2078.92 2149.4 2080.7C2150.14 2082.48 2150.52 2084.39 2150.52 2086.32C2150.52 2090.23 2148.97 2093.97 2146.21 2096.73C2143.45 2099.49 2139.7 2101.04 2135.8 2101.04Z" fill="white"/>
<path d="M2182.44 2169.36H1920.04C1918.11 2169.37 1916.2 2169 1914.41 2168.27C1912.62 2167.54 1911 2166.46 1909.63 2165.1C1908.27 2163.74 1907.18 2162.12 1906.44 2160.34C1905.7 2158.56 1905.32 2156.65 1905.32 2154.72C1905.32 2150.82 1906.87 2147.07 1909.63 2144.31C1912.39 2141.55 1916.13 2140 1920.04 2140H2182.44C2186.34 2140 2190.09 2141.55 2192.85 2144.31C2195.61 2147.07 2197.16 2150.82 2197.16 2154.72C2197.14 2158.61 2195.58 2162.33 2192.82 2165.08C2190.06 2167.82 2186.33 2169.36 2182.44 2169.36Z" fill="white"/>
</g>
<g opacity="0.3">
<path d="M2215.8 2305.44H1919.8C1917.87 2305.45 1915.96 2305.08 1914.17 2304.35C1912.39 2303.62 1910.76 2302.54 1909.39 2301.18C1908.03 2299.82 1906.94 2298.2 1906.2 2296.42C1905.46 2294.64 1905.08 2292.73 1905.08 2290.8C1905.08 2286.9 1906.63 2283.15 1909.39 2280.39C1912.15 2277.63 1915.89 2276.08 1919.8 2276.08H2215.8C2219.7 2276.08 2223.45 2277.63 2226.21 2280.39C2228.97 2283.15 2230.52 2286.9 2230.52 2290.8C2230.52 2292.73 2230.14 2294.64 2229.4 2296.42C2228.66 2298.2 2227.57 2299.82 2226.2 2301.18C2224.83 2302.54 2223.21 2303.62 2221.43 2304.35C2219.64 2305.08 2217.73 2305.45 2215.8 2305.44Z" fill="white"/>
<path d="M2022.44 2373.84H1920.04C1916.13 2373.84 1912.39 2372.29 1909.63 2369.53C1906.87 2366.77 1905.32 2363.02 1905.32 2359.12C1905.32 2357.19 1905.7 2355.28 1906.44 2353.5C1907.18 2351.72 1908.27 2350.1 1909.63 2348.74C1911 2347.38 1912.62 2346.3 1914.41 2345.57C1916.2 2344.84 1918.11 2344.47 1920.04 2344.48H2022.44C2026.33 2344.48 2030.06 2346.02 2032.82 2348.76C2035.58 2351.51 2037.14 2355.23 2037.16 2359.12C2037.14 2363.02 2035.58 2366.75 2032.82 2369.5C2030.07 2372.26 2026.33 2373.82 2022.44 2373.84Z" fill="white"/>
</g>
<g opacity="0.3">
<path d="M2055.8 2509.92H1919.8C1917.87 2509.92 1915.95 2509.54 1914.17 2508.8C1912.38 2508.06 1910.76 2506.97 1909.39 2505.61C1908.02 2504.24 1906.94 2502.62 1906.2 2500.83C1905.46 2499.04 1905.08 2497.13 1905.08 2495.2C1905.08 2493.27 1905.46 2491.36 1906.2 2489.58C1906.94 2487.8 1908.03 2486.18 1909.39 2484.82C1910.76 2483.46 1912.39 2482.38 1914.17 2481.65C1915.96 2480.92 1917.87 2480.55 1919.8 2480.56H2055.8C2057.73 2480.55 2059.64 2480.92 2061.43 2481.65C2063.21 2482.38 2064.83 2483.46 2066.2 2484.82C2067.57 2486.18 2068.66 2487.8 2069.4 2489.58C2070.14 2491.36 2070.52 2493.27 2070.52 2495.2C2070.52 2497.13 2070.14 2499.04 2069.4 2500.83C2068.66 2502.62 2067.57 2504.24 2066.21 2505.61C2064.84 2506.97 2063.22 2508.06 2061.43 2508.8C2059.65 2509.54 2057.73 2509.92 2055.8 2509.92Z" fill="white"/>
<path d="M2182.44 2578H1920.04C1916.13 2578 1912.39 2576.45 1909.63 2573.69C1906.87 2570.93 1905.32 2567.18 1905.32 2563.28C1905.32 2561.35 1905.7 2559.44 1906.44 2557.66C1907.18 2555.88 1908.27 2554.26 1909.63 2552.9C1911 2551.54 1912.62 2550.46 1914.41 2549.73C1916.2 2549 1918.11 2548.63 1920.04 2548.64H2182.44C2186.33 2548.64 2190.06 2550.18 2192.82 2552.92C2195.58 2555.67 2197.14 2559.39 2197.16 2563.28C2197.16 2567.18 2195.61 2570.93 2192.85 2573.69C2190.09 2576.45 2186.34 2578 2182.44 2578Z" fill="white"/>
</g>
<path opacity="0.3" d="M2382.28 2857.6H3162.92V1551.76H2382.28V2857.6Z" fill="white"/>
<g opacity="0.2">
<path d="M2505.4 1692.16H2721.4C2723.42 1692.31 2725.45 1692.04 2727.36 1691.37C2729.27 1690.7 2731.02 1689.64 2732.5 1688.26C2733.98 1686.89 2735.17 1685.22 2735.98 1683.36C2736.79 1681.51 2737.2 1679.5 2737.2 1677.48C2737.2 1675.46 2736.79 1673.45 2735.98 1671.6C2735.17 1669.74 2733.98 1668.07 2732.5 1666.69C2731.02 1665.32 2729.27 1664.26 2727.36 1663.59C2725.45 1662.92 2723.42 1662.65 2721.4 1662.8H2505.4C2503.38 1662.65 2501.35 1662.92 2499.44 1663.59C2497.53 1664.26 2495.78 1665.32 2494.3 1666.69C2492.81 1668.07 2491.63 1669.74 2490.82 1671.6C2490.01 1673.45 2489.59 1675.46 2489.59 1677.48C2489.59 1679.5 2490.01 1681.51 2490.82 1683.36C2491.63 1685.22 2492.81 1686.89 2494.3 1688.26C2495.78 1689.64 2497.53 1690.7 2499.44 1691.37C2501.35 1692.04 2503.38 1692.31 2505.4 1692.16Z" fill="black"/>
<path d="M3009.16 1812.72H2601.16C2599.14 1812.57 2597.11 1812.84 2595.2 1813.51C2593.29 1814.18 2591.54 1815.24 2590.06 1816.62C2588.58 1817.99 2587.39 1819.66 2586.58 1821.52C2585.77 1823.37 2585.36 1825.38 2585.36 1827.4C2585.36 1829.43 2585.77 1831.43 2586.58 1833.28C2587.39 1835.14 2588.58 1836.81 2590.06 1838.19C2591.54 1839.56 2593.29 1840.62 2595.2 1841.29C2597.11 1841.96 2599.14 1842.23 2601.16 1842.08H3009.16C3011.18 1842.23 3013.21 1841.96 3015.12 1841.29C3017.03 1840.62 3018.78 1839.56 3020.26 1838.19C3021.75 1836.81 3022.93 1835.14 3023.74 1833.28C3024.55 1831.43 3024.97 1829.43 3024.97 1827.4C3024.97 1825.38 3024.55 1823.37 3023.74 1821.52C3022.93 1819.66 3021.75 1817.99 3020.26 1816.62C3018.78 1815.24 3017.03 1814.18 3015.12 1813.51C3013.21 1812.84 3011.18 1812.57 3009.16 1812.72Z" fill="black"/>
<path d="M2505.4 1910.4H3007.8C3011.51 1910.13 3014.97 1908.46 3017.5 1905.74C3020.03 1903.02 3021.43 1899.44 3021.43 1895.72C3021.43 1892.01 3020.03 1888.43 3017.5 1885.7C3014.97 1882.98 3011.51 1881.32 3007.8 1881.04H2505.4C2503.38 1880.89 2501.35 1881.16 2499.44 1881.83C2497.53 1882.5 2495.78 1883.56 2494.3 1884.94C2492.81 1886.31 2491.63 1887.98 2490.82 1889.84C2490.01 1891.69 2489.59 1893.7 2489.59 1895.72C2489.59 1897.75 2490.01 1899.75 2490.82 1901.6C2491.63 1903.46 2492.81 1905.13 2494.3 1906.51C2495.78 1907.88 2497.53 1908.94 2499.44 1909.61C2501.35 1910.28 2503.38 1910.55 2505.4 1910.4Z" fill="black"/>
<path d="M3009.16 1962.56H2505.16C2503.14 1962.41 2501.11 1962.68 2499.2 1963.35C2497.29 1964.02 2495.54 1965.08 2494.06 1966.46C2492.57 1967.83 2491.39 1969.5 2490.58 1971.36C2489.77 1973.21 2489.36 1975.22 2489.36 1977.24C2489.36 1979.26 2489.77 1981.27 2490.58 1983.12C2491.39 1984.98 2492.57 1986.65 2494.06 1988.03C2495.54 1989.4 2497.29 1990.46 2499.2 1991.13C2501.11 1991.8 2503.14 1992.07 2505.16 1991.92H3009.16C3011.18 1992.07 3013.21 1991.8 3015.12 1991.13C3017.03 1990.46 3018.78 1989.4 3020.26 1988.03C3021.75 1986.65 3022.93 1984.98 3023.74 1983.12C3024.55 1981.27 3024.96 1979.26 3024.96 1977.24C3024.96 1975.22 3024.55 1973.21 3023.74 1971.36C3022.93 1969.5 3021.75 1967.83 3020.26 1966.46C3018.78 1965.08 3017.03 1964.02 3015.12 1963.35C3013.21 1962.68 3011.18 1962.41 3009.16 1962.56Z" fill="black"/>
<path d="M2505.4 2060.32H3007.8C3011.51 2060.05 3014.97 2058.38 3017.5 2055.66C3020.03 2052.93 3021.43 2049.36 3021.43 2045.64C3021.43 2041.92 3020.03 2038.34 3017.5 2035.62C3014.97 2032.9 3011.51 2031.23 3007.8 2030.96H2505.4C2503.38 2030.81 2501.35 2031.08 2499.44 2031.75C2497.53 2032.42 2495.78 2033.48 2494.3 2034.85C2492.81 2036.23 2491.63 2037.9 2490.82 2039.76C2490.01 2041.61 2489.59 2043.61 2489.59 2045.64C2489.59 2047.66 2490.01 2049.67 2490.82 2051.52C2491.63 2053.38 2492.81 2055.05 2494.3 2056.42C2495.78 2057.8 2497.53 2058.86 2499.44 2059.53C2501.35 2060.2 2503.38 2060.47 2505.4 2060.32Z" fill="black"/>
<path d="M3009.16 2112.48H2505.16C2503.14 2112.33 2501.11 2112.6 2499.2 2113.27C2497.29 2113.94 2495.54 2114.99 2494.06 2116.37C2492.57 2117.75 2491.39 2119.42 2490.58 2121.27C2489.77 2123.13 2489.36 2125.13 2489.36 2127.16C2489.36 2129.18 2489.77 2131.18 2490.58 2133.04C2491.39 2134.9 2492.57 2136.57 2494.06 2137.94C2495.54 2139.32 2497.29 2140.38 2499.2 2141.05C2501.11 2141.72 2503.14 2141.99 2505.16 2141.84H3009.16C3011.18 2141.99 3013.21 2141.72 3015.12 2141.05C3017.03 2140.38 3018.78 2139.32 3020.26 2137.94C3021.75 2136.57 3022.93 2134.9 3023.74 2133.04C3024.55 2131.18 3024.96 2129.18 3024.96 2127.16C3024.96 2125.13 3024.55 2123.13 3023.74 2121.27C3022.93 2119.42 3021.75 2117.75 3020.26 2116.37C3018.78 2114.99 3017.03 2113.94 3015.12 2113.27C3013.21 2112.6 3011.18 2112.33 3009.16 2112.48Z" fill="black"/>
<path d="M2505.4 2210H2895.8C2899.51 2209.73 2902.97 2208.06 2905.5 2205.34C2908.03 2202.62 2909.43 2199.04 2909.43 2195.32C2909.43 2191.61 2908.03 2188.03 2905.5 2185.3C2902.97 2182.58 2899.51 2180.92 2895.8 2180.64H2505.4C2503.38 2180.49 2501.35 2180.76 2499.44 2181.43C2497.53 2182.1 2495.78 2183.16 2494.3 2184.54C2492.81 2185.91 2491.63 2187.58 2490.82 2189.44C2490.01 2191.29 2489.59 2193.3 2489.59 2195.32C2489.59 2197.35 2490.01 2199.35 2490.82 2201.2C2491.63 2203.06 2492.81 2204.73 2494.3 2206.11C2495.78 2207.48 2497.53 2208.54 2499.44 2209.21C2501.35 2209.88 2503.38 2210.15 2505.4 2210Z" fill="black"/>
<path d="M2601.4 2360H3007.8C3011.51 2359.73 3014.97 2358.06 3017.5 2355.34C3020.03 2352.62 3021.44 2349.04 3021.44 2345.32C3021.44 2341.61 3020.03 2338.03 3017.5 2335.3C3014.97 2332.58 3011.51 2330.92 3007.8 2330.64H2601.4C2599.38 2330.49 2597.35 2330.76 2595.44 2331.43C2593.53 2332.1 2591.78 2333.16 2590.3 2334.54C2588.81 2335.91 2587.63 2337.58 2586.82 2339.44C2586.01 2341.29 2585.6 2343.3 2585.6 2345.32C2585.6 2347.35 2586.01 2349.35 2586.82 2351.2C2587.63 2353.06 2588.81 2354.73 2590.3 2356.11C2591.78 2357.48 2593.53 2358.54 2595.44 2359.21C2597.35 2359.88 2599.38 2360.15 2601.4 2360Z" fill="black"/>
<path d="M3009.16 2412.24H2505.16C2503.14 2412.09 2501.11 2412.36 2499.2 2413.03C2497.29 2413.7 2495.54 2414.76 2494.06 2416.13C2492.57 2417.51 2491.39 2419.18 2490.58 2421.04C2489.77 2422.89 2489.36 2424.89 2489.36 2426.92C2489.36 2428.94 2489.77 2430.95 2490.58 2432.8C2491.39 2434.66 2492.57 2436.33 2494.06 2437.7C2495.54 2439.08 2497.29 2440.14 2499.2 2440.81C2501.11 2441.48 2503.14 2441.75 2505.16 2441.6H3009.16C3011.18 2441.75 3013.21 2441.48 3015.12 2440.81C3017.03 2440.14 3018.78 2439.08 3020.26 2437.7C3021.75 2436.33 3022.93 2434.66 3023.74 2432.8C3024.55 2430.95 3024.96 2428.94 3024.96 2426.92C3024.96 2424.89 3024.55 2422.89 3023.74 2421.04C3022.93 2419.18 3021.75 2417.51 3020.26 2416.13C3018.78 2414.76 3017.03 2413.7 3015.12 2413.03C3013.21 2412.36 3011.18 2412.09 3009.16 2412.24Z" fill="black"/>
<path d="M2505.4 2509.92H3007.8C3011.51 2509.64 3014.97 2507.98 3017.5 2505.26C3020.03 2502.53 3021.43 2498.95 3021.43 2495.24C3021.43 2491.52 3020.03 2487.94 3017.5 2485.22C3014.97 2482.5 3011.51 2480.83 3007.8 2480.56H2505.4C2503.38 2480.41 2501.35 2480.68 2499.44 2481.35C2497.53 2482.02 2495.78 2483.08 2494.3 2484.45C2492.81 2485.83 2491.63 2487.5 2490.82 2489.36C2490.01 2491.21 2489.59 2493.21 2489.59 2495.24C2489.59 2497.26 2490.01 2499.27 2490.82 2501.12C2491.63 2502.98 2492.81 2504.65 2494.3 2506.02C2495.78 2507.4 2497.53 2508.46 2499.44 2509.13C2501.35 2509.8 2503.38 2510.07 2505.4 2509.92Z" fill="black"/>
<path d="M2905.16 2562H2505.16C2503.14 2561.85 2501.11 2562.12 2499.2 2562.79C2497.29 2563.46 2495.54 2564.52 2494.06 2565.89C2492.57 2567.27 2491.39 2568.94 2490.58 2570.8C2489.77 2572.65 2489.36 2574.65 2489.36 2576.68C2489.36 2578.7 2489.77 2580.71 2490.58 2582.56C2491.39 2584.42 2492.57 2586.09 2494.06 2587.46C2495.54 2588.84 2497.29 2589.9 2499.2 2590.57C2501.11 2591.24 2503.14 2591.51 2505.16 2591.36H2905.16C2907.18 2591.51 2909.21 2591.24 2911.12 2590.57C2913.03 2589.9 2914.78 2588.84 2916.26 2587.46C2917.75 2586.09 2918.93 2584.42 2919.74 2582.56C2920.55 2580.71 2920.96 2578.7 2920.96 2576.68C2920.96 2574.65 2920.55 2572.65 2919.74 2570.8C2918.93 2568.94 2917.75 2567.27 2916.26 2565.89C2914.78 2564.52 2913.03 2563.46 2911.12 2562.79C2909.21 2562.12 2907.18 2561.85 2905.16 2562Z" fill="black"/>
<path d="M3009.16 2712H2505.16C2503.14 2711.85 2501.11 2712.12 2499.2 2712.79C2497.29 2713.46 2495.54 2714.52 2494.06 2715.89C2492.57 2717.27 2491.39 2718.94 2490.58 2720.8C2489.77 2722.65 2489.36 2724.65 2489.36 2726.68C2489.36 2728.7 2489.77 2730.71 2490.58 2732.56C2491.39 2734.42 2492.57 2736.09 2494.06 2737.46C2495.54 2738.84 2497.29 2739.9 2499.2 2740.57C2501.11 2741.24 2503.14 2741.51 2505.16 2741.36H3009.16C3011.18 2741.51 3013.21 2741.24 3015.12 2740.57C3017.03 2739.9 3018.78 2738.84 3020.26 2737.46C3021.75 2736.09 3022.93 2734.42 3023.74 2732.56C3024.55 2730.71 3024.96 2728.7 3024.96 2726.68C3024.96 2724.65 3024.55 2722.65 3023.74 2720.8C3022.93 2718.94 3021.75 2717.27 3020.26 2715.89C3018.78 2714.52 3017.03 2713.46 3015.12 2712.79C3013.21 2712.12 3011.18 2711.85 3009.16 2712Z" fill="black"/>
</g>
<g opacity="0.3">
<path d="M2135.8 1692.16H1919.8C1917.87 1692.17 1915.96 1691.8 1914.17 1691.07C1912.39 1690.34 1910.76 1689.26 1909.39 1687.9C1908.03 1686.54 1906.94 1684.92 1906.2 1683.14C1905.46 1681.36 1905.08 1679.45 1905.08 1677.52C1905.08 1675.59 1905.46 1673.67 1906.2 1671.89C1906.94 1670.1 1908.02 1668.48 1909.39 1667.11C1910.76 1665.74 1912.38 1664.66 1914.17 1663.92C1915.95 1663.18 1917.87 1662.8 1919.8 1662.8H2135.8C2139.7 1662.8 2143.45 1664.35 2146.21 1667.11C2148.97 1669.87 2150.52 1673.61 2150.52 1677.52C2150.52 1679.45 2150.14 1681.36 2149.4 1683.14C2148.66 1684.92 2147.57 1686.54 2146.2 1687.9C2144.83 1689.26 2143.21 1690.34 2141.43 1691.07C2139.64 1691.8 2137.73 1692.17 2135.8 1692.16Z" fill="white"/>
<path d="M2022.44 1760.56H1920.04C1916.13 1760.56 1912.39 1759.01 1909.63 1756.25C1906.87 1753.49 1905.32 1749.74 1905.32 1745.84C1905.32 1743.91 1905.7 1742 1906.44 1740.22C1907.18 1738.44 1908.27 1736.82 1909.63 1735.46C1911 1734.1 1912.62 1733.02 1914.41 1732.29C1916.2 1731.56 1918.11 1731.19 1920.04 1731.2H2022.44C2026.33 1731.24 2030.04 1732.82 2032.77 1735.59C2035.5 1738.37 2037.02 1742.11 2037 1746C2036.94 1749.84 2035.38 1753.51 2032.66 1756.22C2029.95 1758.94 2026.28 1760.5 2022.44 1760.56Z" fill="white"/>
</g>
<path d="M3860.2 1280.88L3879.72 1245.44L3929.96 1172.4L3939.4 1111.92C3939.4 1111.92 3983.4 1127.92 3990.6 1140.96C3997.8 1154 3994.44 1218.56 3990.6 1226.48C3986.76 1234.4 3941.4 1265.52 3941.4 1265.52L3917.4 1311.92L3860.2 1280.88Z" fill="#EBB376"/>
<path d="M3637.48 1026.72C3637.48 1026.72 3800.04 1282 3819.08 1304.88C3838.12 1327.76 3859.08 1245.44 3859.08 1245.44L3941.32 1281.28C3941.32 1281.28 3918.12 1437.36 3854.84 1443.68C3791.56 1450 3656.52 1283.68 3656.52 1283.68L3637.48 1026.72Z" fill="#263238"/>
<path opacity="0.1" d="M3941.4 1281.28C3941.4 1281.28 3918.2 1437.36 3854.92 1443.76C3823.32 1446.88 3773.72 1406.88 3732.12 1366C3690.52 1325.12 3656.6 1283.44 3656.6 1283.44L3650.04 1195.44L3637.48 1026.32C3637.48 1026.32 3800.04 1281.6 3819.08 1304.48C3838.12 1327.36 3859.08 1245.04 3859.08 1245.04L3941.4 1281.28Z" fill="white"/>
<path opacity="0.2" d="M3732.12 1366C3690.44 1325.12 3656.6 1283.44 3656.6 1283.44L3650.04 1195.44C3697.71 1240.07 3726.98 1300.9 3732.12 1366Z" fill="black"/>
<path d="M3322.84 2395.84V2316.64C3322.84 2315.34 3322.39 2314.08 3321.58 2313.06C3320.76 2312.04 3319.63 2311.33 3318.36 2311.04L3261 2298C3259.76 2297.73 3258.49 2297.71 3257.24 2297.93C3256 2298.15 3254.81 2298.62 3253.75 2299.31C3252.69 2299.99 3251.77 2300.88 3251.05 2301.92C3250.33 2302.96 3249.82 2304.13 3249.56 2305.36C3249.48 2306.08 3249.48 2306.8 3249.56 2307.52C3249.56 2333.12 3251.32 2351.76 3251.16 2383.92C3251.16 2403.76 3248.68 2463.52 3248.6 2490.88C3248.52 2518.24 3275.48 2522 3277.96 2510.8C3289.16 2460.56 3304.52 2422.8 3319.08 2406.8C3321.66 2403.75 3323 2399.84 3322.84 2395.84Z" fill="#263238"/>
<path d="M3676.36 1666.64L3701.96 1800.8C3701.96 1800.8 3904.12 2128 3904.04 2316.88C3904.04 2542.56 3315.24 2412.4 3315.24 2412.4V2308.4C3315.24 2308.4 3667.24 2338.64 3699.24 2303.36C3737.72 2260.48 3500.44 1928.96 3500.44 1928.96L3676.36 1666.64Z" fill="#263238"/>
<path opacity="0.2" d="M3904.04 2316.96C3904.04 2441.36 3725 2457.6 3564.44 2447.12C3484.44 2441.4 3404.9 2430.58 3326.28 2414.72L3315.24 2412.4V2308.4L3328.2 2309.44C3368.2 2312.64 3492.76 2321.68 3587 2320.32C3643 2319.52 3688.36 2314.96 3699 2303.36C3717.88 2282.32 3670.2 2191.36 3616.84 2104.64C3561.56 2014.8 3500.2 1929.04 3500.2 1929.04L3577.48 1814L3676.52 1666.64L3702.12 1800.8C3702.12 1800.8 3904.12 2128 3904.04 2316.96Z" fill="white"/>
<path opacity="0.2" d="M3587 2320.4L3564.44 2447.12C3484.44 2441.4 3404.9 2430.58 3326.28 2414.72L3328.2 2309.52C3368.2 2312.72 3493 2322 3587 2320.4Z" fill="black"/>
<path opacity="0.2" d="M3577.64 1957.52C3577.64 1957.52 3610.52 2034.88 3616.68 2104.64C3561.4 2014.8 3500.04 1929.04 3500.04 1929.04L3577.32 1814L3618.04 1800.8C3618.04 1800.8 3627.08 1853.6 3577.64 1957.52Z" fill="black"/>
<path d="M3525 3093.28H3445.8C3444.5 3093.31 3443.25 3093.77 3442.24 3094.58C3441.23 3095.39 3440.51 3096.5 3440.2 3097.76L3427.4 3155.84C3427.13 3157.07 3427.11 3158.34 3427.33 3159.58C3427.56 3160.82 3428.02 3162 3428.71 3163.06C3429.39 3164.11 3430.28 3165.02 3431.32 3165.74C3432.36 3166.45 3433.53 3166.95 3434.76 3167.2C3435.48 3167.28 3436.2 3167.28 3436.92 3167.2C3462.52 3166.8 3481.16 3165.2 3513.4 3165.2C3533.16 3165.2 3593 3167.28 3620.36 3167.28C3647.72 3167.28 3651.24 3140.24 3640.04 3137.76C3589.8 3126.8 3552.04 3111.68 3536.04 3097.2C3532.99 3094.55 3529.04 3093.15 3525 3093.28Z" fill="#263238"/>
<path d="M3323.64 1670.96C3323.64 1670.96 3306.12 1736.64 3323.64 2037.76C3350.68 2500.08 3436.36 3115.52 3436.36 3115.52L3535.96 3097.44C3535.96 3097.44 3523.24 2176.8 3536.68 1922.72C3536.68 1922.72 3677.48 1796.4 3676.36 1666.72C3675.24 1537.04 3323.64 1670.96 3323.64 1670.96Z" fill="#263238"/>
<path opacity="0.2" d="M3323.64 1670.96C3323.64 1670.96 3306.12 1736.64 3323.64 2037.76C3350.68 2500.08 3436.36 3115.52 3436.36 3115.52L3535.96 3097.44C3535.96 3097.44 3523.24 2176.8 3536.68 1922.72C3536.68 1922.72 3677.48 1796.4 3676.36 1666.72C3675.24 1537.04 3323.64 1670.96 3323.64 1670.96Z" fill="white"/>
<path d="M3671.96 1629.44H3323.64V1670.96L3676.44 1666.64L3671.96 1629.44Z" fill="#263238"/>
<path d="M3435.64 1684.4H3448.04V1610.8H3435.64V1684.4Z" fill="#263238"/>
<path d="M3611.88 1684.4H3624.28V1610.8H3611.88V1684.4Z" fill="#263238"/>
<path d="M3513.24 1668.56H3577.64V1622.16H3513.24V1668.56Z" fill="white"/>
<path opacity="0.2" d="M3435.64 1684.4H3448.04V1610.8H3435.64V1684.4Z" fill="white"/>
<path opacity="0.2" d="M3611.88 1684.4H3624.28V1610.8H3611.88V1684.4Z" fill="white"/>
<path d="M3637.48 1026.72C3637.48 1026.72 3417.4 1016.32 3253.48 1057.68C3253.48 1057.68 3325.88 1422.16 3323.16 1629.44H3672.04C3672.04 1629.44 3694.6 1240.64 3637.48 1026.72Z" fill="#90CAF9"/>
<path opacity="0.6" d="M3671.96 1629.44H3323.16C3323.16 1606.88 3323.16 1582.56 3321.56 1556.96C3318.52 1497.12 3311.72 1430.8 3303.48 1366.64L3301.08 1347.92C3295.48 1306.24 3289.48 1265.92 3283.64 1229.12C3267.64 1130.32 3253.48 1057.68 3253.48 1057.68C3417.4 1016.32 3637.48 1026.64 3637.48 1026.64C3694.6 1240.64 3671.96 1629.44 3671.96 1629.44Z" fill="white"/>
<path d="M3381.96 1041.2C3413.56 1069.92 3490.92 1059.28 3490.92 1059.28C3490.92 1059.28 3538.92 1046.08 3529.16 1030.96C3500.68 1026.24 3486.92 1012.96 3481.16 995.92C3478.07 985.389 3477.09 974.351 3478.28 963.44C3478.76 957.349 3479.56 951.288 3480.68 945.28L3384.68 874.4C3397.56 921.2 3413 1007.28 3381.96 1041.2Z" fill="#EBB376"/>
<path opacity="0.2" d="M3407.08 919.439C3410.92 976.879 3458.12 992.72 3481.16 995.92C3478.07 985.388 3477.09 974.35 3478.28 963.439L3407.08 919.439Z" fill="black"/>
<path d="M3353.08 725.602C3353.08 725.602 3326.36 812.002 3368.2 853.042C3410.04 894.082 3434.68 729.522 3434.68 729.522L3353.08 725.602Z" fill="#263238"/>
<path d="M3493.88 943.682C3481.87 956.775 3465.89 965.559 3448.4 968.681C3430.91 971.803 3412.88 969.091 3397.08 960.962C3376.42 950.874 3360.39 933.274 3352.28 911.762C3351.16 908.882 3350.2 905.762 3349.32 902.642C3334.36 845.202 3341.32 749.602 3403.64 722.722C3424.99 713.43 3449.15 712.978 3470.83 721.465C3492.51 729.952 3509.95 746.686 3519.32 768.002C3524.89 780.568 3527.39 794.28 3526.6 808.002C3524.2 872.402 3525.72 910.242 3493.88 943.682Z" fill="#EBB376"/>
<path d="M3429.48 828.16C3429.96 833.28 3426.92 837.6 3423.48 837.68C3420.04 837.76 3417.24 833.52 3417.08 828.32C3416.92 823.12 3419.72 818.8 3423.08 818.8C3426.44 818.8 3429 822.8 3429.48 828.16Z" fill="#263238"/>
<path d="M3370.36 829.279C3370.84 834.479 3367.72 838.799 3364.36 838.879C3361 838.959 3358.12 834.719 3357.96 829.519C3357.8 824.319 3360.6 819.999 3363.96 819.919C3367.32 819.839 3370.28 824.319 3370.36 829.279Z" fill="#263238"/>
<path d="M3389 831.52C3383.14 847.652 3375.06 862.891 3365 876.8C3368.66 879.286 3372.82 880.946 3377.18 881.665C3381.55 882.383 3386.02 882.142 3390.28 880.959L3389 831.52Z" fill="#D58745"/>
<path d="M3447.48 808.639C3446.91 808.714 3446.34 808.643 3445.8 808.433C3445.27 808.223 3444.8 807.881 3444.44 807.439C3442.13 804.364 3439.13 801.873 3435.69 800.164C3432.24 798.455 3428.45 797.577 3424.6 797.598C3423.79 797.665 3422.98 797.41 3422.35 796.886C3421.72 796.362 3421.32 795.613 3421.24 794.799C3421.21 794.399 3421.25 793.997 3421.38 793.616C3421.5 793.234 3421.7 792.881 3421.96 792.576C3422.22 792.271 3422.54 792.021 3422.89 791.839C3423.25 791.658 3423.64 791.549 3424.04 791.519C3428.91 791.372 3433.74 792.401 3438.13 794.518C3442.51 796.634 3446.33 799.777 3449.24 803.679C3449.79 804.246 3450.1 805.007 3450.1 805.799C3450.1 806.59 3449.79 807.351 3449.24 807.919C3448.69 808.245 3448.1 808.488 3447.48 808.639Z" fill="#263238"/>
<path d="M3344.52 809.442C3343.95 809.637 3343.33 809.637 3342.76 809.442C3342.39 809.285 3342.06 809.056 3341.78 808.77C3341.5 808.484 3341.28 808.146 3341.13 807.774C3340.98 807.402 3340.91 807.005 3340.91 806.605C3340.92 806.204 3341 805.809 3341.16 805.442C3343.09 800.953 3346.07 796.999 3349.86 793.919C3353.65 790.84 3358.13 788.727 3362.92 787.762C3363.72 787.647 3364.53 787.852 3365.17 788.332C3365.81 788.811 3366.24 789.527 3366.36 790.322C3366.46 791.113 3366.24 791.911 3365.77 792.551C3365.29 793.191 3364.59 793.624 3363.8 793.762C3360.04 794.644 3356.53 796.4 3353.57 798.888C3350.61 801.376 3348.28 804.525 3346.76 808.082C3346.5 808.45 3346.17 808.761 3345.78 808.995C3345.4 809.229 3344.97 809.381 3344.52 809.442Z" fill="#263238"/>
<path d="M3477.88 729.039L3473.64 757.199C3478.35 759.626 3481.98 763.738 3483.81 768.718C3485.63 773.698 3485.51 779.182 3483.48 784.079C3473.72 807.679 3486.2 844.959 3504.12 860.159C3504.12 860.159 3504.92 849.919 3513.56 852.159C3522.2 854.399 3518.36 908.159 3500.68 933.679C3523.2 910.34 3539.3 881.566 3547.4 850.159C3562.28 798.319 3560.68 759.999 3550.52 739.519L3477.88 729.039Z" fill="#263238"/>
<path d="M3555.72 860.32C3552.37 867.654 3547.61 874.256 3541.71 879.747C3535.81 885.239 3528.88 889.511 3521.32 892.32C3501.16 899.52 3489.32 881.84 3493.8 862C3497.8 844.32 3512.92 818.8 3533.8 820.32C3554.68 821.84 3563.88 842 3555.72 860.32Z" fill="#EBB376"/>
<path d="M3385.56 896.642C3388.24 904.072 3390.35 911.694 3391.88 919.442C3393.27 919.522 3394.66 919.522 3396.04 919.442C3414.92 918.562 3423.4 911.922 3427.08 904.882C3428.79 901.371 3429.64 897.505 3429.56 893.602C3429.58 891.385 3429.28 889.176 3428.68 887.042C3417.29 892.78 3404.79 895.974 3392.04 896.402C3388.04 896.642 3385.56 896.642 3385.56 896.642Z" fill="#263238"/>
<path d="M3392.04 896.241L3394.04 902.961C3411.8 902.081 3424.2 899.121 3429.56 893.441C3429.58 891.224 3429.28 889.015 3428.68 886.881C3417.29 892.619 3404.79 895.813 3392.04 896.241Z" fill="white"/>
<path d="M3396.04 919.278C3414.92 918.398 3423.4 911.758 3427.08 904.718C3419.9 905.183 3412.86 906.917 3406.28 909.838C3401.95 911.816 3398.36 915.123 3396.04 919.278Z" fill="#DE5753"/>
<path d="M3473.64 757.202C3473.64 757.202 3406.2 786.722 3364.2 752.962C3322.2 719.202 3364.2 666.642 3364.2 666.642C3374.45 675.753 3387.61 680.915 3401.32 681.202C3423.48 681.202 3473.32 664.322 3516.04 682.242C3558.76 700.162 3578.12 758.242 3542.44 787.762L3473.64 757.202Z" fill="#263238"/>
<path d="M3522.44 1054.56L3513.24 1100.16C3513.24 1100.16 3566.2 1321.28 3577.64 1436.16L3558.28 1455.44L3527.88 1436.16C3527.88 1436.16 3525.16 1202.56 3498.36 1104.4L3450.36 1065.04L3488.2 1052.8L3522.44 1054.56Z" fill="#90CAF9"/>
<path d="M3392.76 997.838L3485 1039.28L3490.44 1006.08L3524.2 1018C3530.1 1020.04 3535.13 1024.03 3538.47 1029.3C3541.82 1034.58 3543.27 1040.83 3542.6 1047.04L3538.84 1083.52L3491.8 1058L3468.6 1090.88L3358.12 1037.68L3392.76 997.838Z" fill="#90CAF9"/>
<path opacity="0.7" d="M3392.76 997.838L3485 1039.28L3490.44 1006.08L3524.2 1018C3530.1 1020.04 3535.13 1024.03 3538.47 1029.3C3541.82 1034.58 3543.27 1040.83 3542.6 1047.04L3538.84 1083.52L3491.8 1058L3468.6 1090.88L3358.12 1037.68L3392.76 997.838Z" fill="white"/>
<path d="M3360.68 1032C3360.68 1032 3447.4 1102.56 3545.4 1327.52C3545.4 1327.52 3549 1107.68 3530.52 1021.44L3637.48 1026.64C3637.48 1026.64 3715.72 1199.52 3676.44 1572.96L3703.56 1759.68L3585.64 1809.04L3558.44 1722L3530.52 1807.36L3303.16 1776.96L3315.24 1541.2C3315.24 1541.2 3261 1151.68 3253.48 1058L3360.68 1032Z" fill="#263238"/>
<path opacity="0.1" d="M3703.56 1759.76L3585.64 1809.04L3558.44 1722L3530.52 1807.28L3442.52 1795.52L3303 1776.88L3309 1659.76L3315.08 1541.12C3315.08 1541.12 3305.32 1470.96 3293.4 1383.04C3287.24 1337.44 3280.6 1287.04 3274.36 1239.04C3264.44 1161.6 3255.88 1090.72 3253.32 1057.28L3353.08 1033.28L3360.52 1031.52C3360.52 1031.52 3447.24 1102.16 3545.24 1327.04C3545.24 1327.04 3548.84 1107.2 3530.36 1021.04L3637.32 1026.24C3637.32 1026.24 3715.56 1199.04 3676.28 1572.56L3703.56 1759.76Z" fill="white"/>
<path opacity="0.2" d="M3584.84 1122L3609.64 1165.76C3609.64 1165.76 3583.88 1333.76 3542.44 1392.64V1357.84L3381.96 1172.8L3410.76 1128.32L3338.76 1142.56C3338.76 1142.56 3332.04 1074.96 3353.48 1033.76L3360.92 1032C3360.92 1032 3447.64 1102.64 3545.64 1327.52C3545.64 1327.52 3549.24 1107.68 3530.76 1021.52C3530.76 1021.52 3581.88 1049.2 3618.28 1122H3584.84Z" fill="white"/>
<path opacity="0.2" d="M3293.56 1383.28C3287.4 1337.68 3280.76 1287.28 3274.52 1239.28L3300.04 1226.24C3300.04 1226.24 3322.92 1314 3293.56 1383.28Z" fill="black"/>
<path opacity="0.2" d="M3442.68 1795.76L3303.16 1777.12L3309.16 1660C3351.8 1680.72 3421 1724.24 3442.68 1795.76Z" fill="black"/>
<path d="M3253.48 1058C3253.48 1058 3082.68 1313.12 3099.56 1455.52C3116.44 1597.92 3323.56 1829.92 3323.56 1829.92L3389.56 1788.88C3389.56 1788.88 3223.96 1534.72 3209.24 1455.52C3201.24 1412.96 3299.96 1226.64 3299.96 1226.64C3299.96 1226.64 3293.4 1098 3253.48 1058Z" fill="#263238"/>
<path opacity="0.1" d="M3253.48 1058C3253.48 1058 3082.68 1313.12 3099.56 1455.52C3116.44 1597.92 3323.56 1829.92 3323.56 1829.92L3389.56 1788.88C3389.56 1788.88 3223.96 1534.72 3209.24 1455.52C3201.24 1412.96 3299.96 1226.64 3299.96 1226.64C3299.96 1226.64 3293.4 1098 3253.48 1058Z" fill="white"/>
<path d="M3789.48 1235.28L3804.84 1025.52L3941.4 1034.96L3957.56 967.76L3990.6 981.6L3921.48 1226.48L3789.48 1235.28Z" fill="#90CAF9"/>
<path opacity="0.7" d="M3789.48 1235.28L3804.84 1025.52L3941.4 1034.96L3957.56 967.76L3990.6 981.6L3921.48 1226.48L3789.48 1235.28Z" fill="white"/>
<path d="M3761.56 1265.52L3812.2 1048.24H3949.32L3997.88 969.84L3957.8 1202.32L3909.24 1253.2L3761.56 1265.52Z" fill="#90CAF9"/>
<path opacity="0.2" d="M3949.32 1048.24L3909.24 1253.2L3957.8 1202.32L3997.88 969.84L3949.32 1048.24Z" fill="black"/>
<path d="M3970.92 1126.08C3970.92 1126.08 3947.8 1134.08 3944.6 1147.52C3941.4 1160.96 3936.2 1245.6 3936.2 1245.6C3936.2 1245.6 3972.04 1237.6 3977.32 1218.16C3982.6 1198.72 3970.92 1126.08 3970.92 1126.08Z" fill="#EBB376"/>
</g>
<defs>
<filter id="filter0_f_2108_730" x="1077.44" y="239.443" width="5261.11" height="4291.11" filterUnits="userSpaceOnUse" color-interpolation-filters="sRGB">
<feFlood flood-opacity="0" result="BackgroundImageFix"/>
<feBlend mode="normal" in="SourceGraphic" in2="BackgroundImageFix" result="shape"/>
<feGaussianBlur stdDeviation="284.278" result="effect1_foregroundBlur_2108_730"/>
</filter>
<linearGradient id="paint0_linear_2108_730" x1="3708" y1="808" x2="3708" y2="3962" gradientUnits="userSpaceOnUse">
<stop stop-color="#16B6F0" stop-opacity="0.36"/>
<stop offset="1" stop-color="#1653F0" stop-opacity="0.6"/>
</linearGradient>
<linearGradient id="paint1_linear_2108_730" x1="1049.5" y1="3665.68" x2="1049.5" y2="6441.82" gradientUnits="userSpaceOnUse">
<stop stop-color="#EAF0FF" stop-opacity="0.05"/>
<stop offset="1" stop-color="#EAF0FF"/>
</linearGradient>
<clipPath id="clip0_2108_730">
<rect width="5371" height="3529" fill="white"/>
</clipPath>
</defs>
</svg>
