<svg width="4162" height="3870" viewBox="0 0 4162 3870" fill="none" xmlns="http://www.w3.org/2000/svg">
<path d="M0 0H4162V3870H0V0Z" fill="#D9D9D9"/>
<path d="M0 0H4162V3870H0V0Z" fill="url(#paint0_linear_2106_1099)" fill-opacity="0.2"/>
<path d="M4081 3205.2H81V3207.2H4081V3205.2Z" fill="#EBEBEB"/>
<path d="M3680.2 3333.92H3415.24V3335.92H3680.2V3333.92Z" fill="#EBEBEB"/>
<path d="M2730.76 3355.68H2661.24V3357.68H2730.76V3355.68Z" fill="#EBEBEB"/>
<path d="M3407.24 3259.68H3253.72V3261.68H3407.24V3259.68Z" fill="#EBEBEB"/>
<path d="M846.198 3273.12H500.678V3275.12H846.198V3273.12Z" fill="#EBEBEB"/>
<path d="M968.12 3273.12H917.479V3275.12H968.12V3273.12Z" fill="#EBEBEB"/>
<path d="M1882.2 3306.88H1132.76V3308.88H1882.2V3306.88Z" fill="#EBEBEB"/>
<path d="M1977 2848.4H432.279C420.177 2848.38 408.579 2843.56 400.03 2835C391.48 2826.43 386.679 2814.82 386.679 2802.72V631.28C386.784 619.248 391.632 607.744 400.17 599.266C408.708 590.788 420.246 586.021 432.279 586H1977C1989.11 586 2000.73 590.813 2009.3 599.379C2017.87 607.946 2022.68 619.565 2022.68 631.68V2802.72C2022.68 2814.84 2017.87 2826.46 2009.3 2835.02C2000.73 2843.59 1989.11 2848.4 1977 2848.4ZM432.279 587.6C420.708 587.621 409.618 592.233 401.444 600.422C393.27 608.611 388.679 619.709 388.679 631.28V2802.72C388.679 2814.29 393.27 2825.39 401.444 2833.58C409.618 2841.77 420.708 2846.38 432.279 2846.4H1977C1988.58 2846.38 1999.67 2841.77 2007.86 2833.59C2016.05 2825.4 2020.66 2814.3 2020.68 2802.72V631.28C2020.66 619.702 2016.05 608.604 2007.86 600.417C1999.67 592.23 1988.58 587.621 1977 587.6H432.279Z" fill="#EBEBEB"/>
<path d="M3707.48 2848.4H2162.68C2150.57 2848.38 2138.97 2843.56 2130.4 2835C2121.84 2826.44 2117.02 2814.83 2117 2802.72V631.28C2117.13 619.241 2121.99 607.737 2130.54 599.261C2139.09 590.785 2150.64 586.02 2162.68 586H3707.48C3719.5 586.042 3731.02 590.818 3739.54 599.294C3748.06 607.77 3752.9 619.262 3753 631.28V2802.72C3753 2814.81 3748.21 2826.4 3739.68 2834.97C3731.15 2843.53 3719.57 2848.36 3707.48 2848.4ZM2162.68 587.6C2151.1 587.621 2140 592.23 2131.82 600.417C2123.63 608.604 2119.02 619.702 2119 631.28V2802.72C2119.02 2814.3 2123.63 2825.4 2131.82 2833.59C2140 2841.77 2151.1 2846.38 2162.68 2846.4H3707.48C3719.06 2846.38 3730.16 2841.77 3738.34 2833.59C3746.53 2825.4 3751.14 2814.3 3751.16 2802.72V631.28C3751.14 619.702 3746.53 608.604 3738.34 600.417C3730.16 592.23 3719.06 587.621 3707.48 587.6H2162.68Z" fill="#EBEBEB"/>
<path d="M686.278 2470.72H1255.88C1269.03 2470.72 1282.06 2473.31 1294.21 2478.34C1306.36 2483.38 1317.4 2490.75 1326.7 2500.06C1336 2509.36 1343.38 2520.4 1348.41 2532.55C1353.45 2544.7 1356.04 2557.73 1356.04 2570.88V3082.88C1356.04 3109.44 1345.49 3134.92 1326.7 3153.7C1307.92 3172.49 1282.44 3183.04 1255.88 3183.04H686.278V2471.04V2470.72Z" fill="#F0F0F0"/>
<path d="M691 2470.72H681.56C626.244 2470.72 581.4 2515.56 581.4 2570.88V3082.56C581.4 3137.88 626.244 3182.72 681.56 3182.72H691C746.317 3182.72 791.16 3137.88 791.16 3082.56V2570.88C791.16 2515.56 746.317 2470.72 691 2470.72Z" fill="#F5F5F5"/>
<path d="M762.521 3182.72H1505.96V2733.36H762.521V3182.72Z" fill="#F0F0F0"/>
<path d="M701.48 3205.2H2041.4C2046.84 3205.18 2052.05 3203.01 2055.89 3199.15C2059.73 3195.3 2061.88 3190.08 2061.88 3184.64V3182.72H1256.2L681 3184.64C681 3190.08 683.155 3195.3 686.994 3199.15C690.832 3203.01 696.041 3205.18 701.48 3205.2Z" fill="#E0E0E0"/>
<path d="M1288.36 2175.36H1980.04C1997.93 2175.02 2015.69 2178.51 2032.13 2185.58C2048.56 2192.65 2063.31 2203.14 2075.37 2216.36C2087.43 2229.58 2096.53 2245.22 2102.07 2262.24C2107.61 2279.25 2109.45 2297.25 2107.48 2315.04L2061.88 2835.04H1090.84L1136.36 2315.04C1140.23 2277.2 1157.83 2242.08 1185.84 2216.34C1213.85 2190.6 1250.32 2176.02 1288.36 2175.36Z" fill="#E0E0E0"/>
<path d="M1179.08 2175.36H1884.28C1901.3 2175.08 1918.18 2178.42 1933.81 2185.17C1949.44 2191.91 1963.45 2201.9 1974.92 2214.48C1986.39 2227.05 1995.06 2241.92 2000.34 2258.1C2005.62 2274.28 2007.4 2291.4 2005.56 2308.32L1959.4 2834.96H988.28L1034.44 2308.32C1038.11 2272.31 1054.86 2238.88 1081.52 2214.38C1108.17 2189.88 1142.88 2176 1179.08 2175.36Z" fill="#F5F5F5"/>
<path d="M822.12 2692.32H1411C1427.72 2692.32 1443.75 2698.96 1455.58 2710.78C1467.4 2722.61 1474.04 2738.64 1474.04 2755.36V2812.24C1474.05 2820.53 1472.43 2828.73 1469.26 2836.39C1466.1 2844.05 1461.46 2851.01 1455.6 2856.87C1449.75 2862.73 1442.8 2867.38 1435.14 2870.55C1427.49 2873.73 1419.28 2875.36 1411 2875.36H822.12C797.847 2875.36 774.569 2865.72 757.405 2848.56C740.242 2831.39 730.6 2808.11 730.6 2783.84C730.6 2759.57 740.242 2736.29 757.405 2719.13C774.569 2701.96 797.847 2692.32 822.12 2692.32Z" fill="#E0E0E0"/>
<path d="M1509.24 2470.72H2078.84C2105.41 2470.72 2130.88 2481.27 2149.67 2500.06C2168.45 2518.84 2179 2544.32 2179 2570.88V3082.88C2179 3109.44 2168.45 3134.92 2149.67 3153.7C2130.88 3172.49 2105.41 3183.04 2078.84 3183.04H1509.24V2471.04V2470.72Z" fill="#F0F0F0"/>
<path d="M1513.96 2470.72H1504.52C1449.2 2470.72 1404.36 2515.56 1404.36 2570.88V3082.56C1404.36 3137.88 1449.2 3182.72 1504.52 3182.72H1513.96C1569.28 3182.72 1614.12 3137.88 1614.12 3082.56V2570.88C1614.12 2515.56 1569.28 2470.72 1513.96 2470.72Z" fill="#F5F5F5"/>
<path d="M3081.08 2079.36H2533.48V3205.2H3081.08V2079.36Z" fill="#F0F0F0"/>
<path d="M2615.4 3117.52V2167.04H2602.76V3117.52H2615.4Z" fill="#E6E6E6"/>
<path d="M3000.36 2167.04H2602.76V2183.04H3000.36V2167.04Z" fill="#E6E6E6"/>
<path d="M3641.32 2079.36H3093.72V3205.2H3641.32V2079.36Z" fill="#F0F0F0"/>
<path d="M3641.4 3205.2H3713.88V2079.36H3641.4V3205.2Z" fill="#E0E0E0"/>
<path d="M3175.64 3117.52V2167.04H3163V3117.52H3175.64Z" fill="#E6E6E6"/>
<path d="M3093.8 3205.21V2092.16H3081.16V3205.21H3093.8Z" fill="#E6E6E6"/>
<path d="M3560.6 2167.04H3163V2183.04H3560.6V2167.04Z" fill="#E6E6E6"/>
<path d="M3057.08 2328.4H3029.88V2577.21H3057.08V2328.4Z" fill="#E0E0E0"/>
<path d="M3144.92 2328.4H3117.72V2577.21H3144.92V2328.4Z" fill="#E0E0E0"/>
<path d="M3489.88 905.356H697.719V1901.28H3489.88V905.356Z" fill="#E0E0E0"/>
<path d="M3464.28 905.356H672.118V1901.28H3464.28V905.356Z" fill="#F0F0F0"/>
<path d="M3380.52 1817.52V989.116L755.881 989.116V1817.52H3380.52Z" fill="#FAFAFA"/>
<path d="M1181.96 1817.52L1355.88 989.116H1739.8L1565.88 1817.52H1181.96Z" fill="white"/>
<path d="M1727.88 1817.52L1901.8 989.116H2093.8L1919.8 1817.52H1727.88Z" fill="white"/>
<path d="M2900.04 1817.52L3073.96 989.116H3265.96L3091.96 1817.52H2900.04Z" fill="white"/>
<path d="M2081 3566.48C2937.66 3566.48 3632.12 3525.93 3632.12 3475.92C3632.12 3425.9 2937.66 3385.36 2081 3385.36C1224.34 3385.36 529.882 3425.9 529.882 3475.92C529.882 3525.93 1224.34 3566.48 2081 3566.48Z" fill="#F5F5F5"/>
<path d="M1409 1071.12C1429.16 1024.96 1250.6 983.122 1196.6 1125.36C1147.64 1254.4 1066.36 1287.36 1104.6 1376.72C1145.96 1473.44 1379.96 1485.04 1481.56 1377.84C1563.96 1290.88 1474.52 1254.24 1486.04 1172.48C1497.56 1090.72 1473.4 1064.08 1409 1071.12Z" fill="#263238"/>
<path d="M1083.72 1348.08C1074.44 1297.68 1093.16 1276.88 1116.84 1250.56C1148.84 1218.09 1170.76 1177.05 1179.96 1132.4C1184.73 1108.01 1196.92 1085.7 1214.87 1068.51C1232.81 1051.33 1255.63 1040.11 1280.2 1036.4C1333 1026.64 1388.92 1043.92 1403.72 1065.84C1406.08 1068.93 1407.42 1072.67 1407.56 1076.55C1407.71 1080.43 1406.64 1084.27 1404.52 1087.52L1397.8 1083.2C1399.1 1081.27 1399.73 1078.96 1399.6 1076.64C1399.47 1074.32 1398.58 1072.1 1397.08 1070.32C1383.96 1050.8 1330.68 1035.2 1281.72 1044.32C1246.76 1050.8 1201.72 1071.6 1187.8 1134.16C1178.32 1180.15 1155.73 1222.41 1122.76 1255.84C1099.72 1281.44 1082.76 1300 1091.64 1346.56L1083.72 1348.08Z" fill="#263238"/>
<path d="M973.722 1309.76L968.762 1293.76C965.338 1282.89 959.133 1273.1 950.762 1265.36L934.762 1250.8C929.702 1246.12 923.165 1243.36 916.283 1243C909.401 1242.63 902.608 1244.68 897.082 1248.8L879.962 1261.6C876.833 1263.94 874.199 1266.88 872.213 1270.24C870.227 1273.61 868.929 1277.33 868.393 1281.2C867.857 1285.07 868.095 1289.01 869.092 1292.78C870.089 1296.56 871.826 1300.1 874.202 1303.2L885.242 1317.6C885.242 1317.6 911.162 1361.44 948.682 1376.64L957.322 1369.28C965.588 1362.06 971.549 1352.57 974.465 1341.99C977.381 1331.4 977.122 1320.2 973.722 1309.76Z" fill="#FFC3BD"/>
<path d="M1284.68 1587.52L1279.56 1591.44L1275.4 1594.48L1267.4 1600.08C1262.04 1603.6 1256.6 1606.88 1251.4 1610.08C1240.52 1616.34 1229.3 1622 1217.8 1627.04C1194.16 1637.47 1169.3 1644.89 1143.8 1649.12C1116.88 1653.65 1089.41 1653.81 1062.44 1649.6C1048.64 1647.43 1035.08 1643.92 1021.96 1639.12C1018.68 1638.08 1015.4 1636.72 1012.2 1635.36L1007.4 1633.36L1005 1632.32L1002.36 1631.2L999.001 1629.6C992.019 1626.03 985.581 1621.47 979.881 1616.08C975.784 1612.27 972.011 1608.12 968.601 1603.68C959.55 1591.41 952.228 1577.95 946.841 1563.68C942.041 1551.84 938.361 1540.48 935.081 1529.36C929.114 1507.84 924.28 1486.03 920.601 1464C913.294 1421.44 909.202 1378.38 908.361 1335.2C907.371 1327.12 909.501 1318.96 914.315 1312.39C919.129 1305.83 926.267 1301.34 934.273 1299.85C942.279 1298.36 950.552 1299.98 957.406 1304.38C964.26 1308.78 969.179 1315.62 971.161 1323.52V1324.4C985.081 1362.72 998.441 1402 1012.52 1439.28C1019.8 1457.84 1026.84 1476.32 1034.84 1493.12C1038.68 1501.52 1042.84 1509.52 1046.76 1516.48C1049.43 1521.58 1052.86 1526.25 1056.92 1530.32C1056.92 1530.32 1056.92 1530.32 1056.36 1529.2C1054.52 1527.29 1052.35 1525.72 1049.96 1524.56L1048.44 1523.76C1047.96 1523.76 1047 1523.2 1047.56 1523.36H1048.84L1051.32 1524C1052.97 1524.52 1054.66 1524.92 1056.36 1525.2C1063.11 1526.55 1069.96 1527.38 1076.84 1527.68C1091.24 1528.12 1105.64 1526.62 1119.64 1523.2C1135 1519.33 1149.95 1513.97 1164.28 1507.2C1171.72 1503.84 1179.08 1499.92 1186.28 1496C1189.88 1494 1193.4 1491.84 1196.76 1489.76L1204.76 1484.64L1211 1480.72C1225.06 1471.79 1242.03 1468.64 1258.36 1471.96C1274.68 1475.27 1289.09 1484.78 1298.55 1498.48C1308.01 1512.19 1311.8 1529.03 1309.11 1545.47C1306.42 1561.91 1297.46 1576.67 1284.12 1586.64L1284.68 1587.52Z" fill="#FFC3BD"/>
<path d="M1425 3441.05C1475.64 3424.33 1518.28 3390.09 1509.72 3330.01C1505.96 3304.25 1588.6 3294.17 1588.6 3294.17C1579.24 3376.01 1589.48 3390.17 1599.32 3408.65C1609.16 3427.13 1608.6 3449.77 1591.32 3451.77C1570.84 3454.25 1566.28 3451.77 1540.84 3455.37C1511.08 3459.29 1491.8 3474.81 1432.36 3474.81C1400.28 3474.81 1409 3446.33 1425 3441.05Z" fill="#90CAF9"/>
<path d="M1579 2566.88C1584.84 2156.96 1547 1933.52 1547 1933.52L1243.72 1948.64C1243.72 1948.64 1288.6 2323.68 1368.28 2599.92C1389.56 2748.16 1437.48 2998.88 1470.68 3167.28C1519.94 3163.07 1568.65 3153.85 1616.04 3139.76C1627.64 2991.84 1629.72 2778 1579 2566.88Z" fill="#90CAF9"/>
<path d="M1585.56 3334.32C1585.56 3334.32 1597.4 3256.88 1605.4 3139.76C1565.15 3153.78 1523.4 3163.01 1481 3167.28C1498.28 3269.52 1510.6 3334.64 1510.6 3334.64C1534.85 3343.36 1561.39 3343.25 1585.56 3334.32Z" fill="#FFC3BD"/>
<path d="M1454.12 3118.24C1456.76 3132.32 1464.12 3167.6 1471.4 3180C1471.82 3180.72 1472.4 3181.33 1473.09 3181.79C1473.79 3182.25 1474.57 3182.54 1475.4 3182.64C1531.96 3189.76 1588.44 3178.4 1611.4 3168.16C1612.04 3167.91 1612.62 3167.52 1613.1 3167.02C1613.59 3166.52 1613.96 3165.93 1614.2 3165.28C1620.6 3148.32 1622.92 3112.64 1623.64 3097.6C1623.68 3096.79 1623.53 3095.98 1623.21 3095.23C1622.89 3094.48 1622.4 3093.81 1621.79 3093.28C1621.17 3092.75 1620.44 3092.36 1619.65 3092.16C1618.86 3091.95 1618.04 3091.92 1617.24 3092.08C1564.82 3101.8 1511.87 3108.42 1458.68 3111.92C1457.95 3112.01 1457.25 3112.24 1456.62 3112.61C1455.98 3112.99 1455.43 3113.48 1455.01 3114.08C1454.58 3114.67 1454.28 3115.35 1454.12 3116.07C1453.97 3116.78 1453.97 3117.53 1454.12 3118.24Z" fill="#263238"/>
<path d="M1247.72 1466.65C1202.76 1474.65 1134.2 1512.65 1134.2 1512.65C1134.2 1512.65 1098.12 1599.05 1141.32 1661.29C1183.88 1671.37 1205.32 1663.13 1205.32 1663.13L1247.72 1466.65Z" fill="#263238"/>
<path opacity="0.2" d="M1141.32 1661.28C1183.88 1671.36 1205.32 1663.12 1205.32 1663.12L1203.8 1546.56C1174.92 1585.44 1150.84 1624 1141.32 1661.28Z" fill="black"/>
<path opacity="0.2" d="M1577.4 2325.04C1543.48 2242.08 1507 2173.76 1493 2111.36C1469 2281.04 1487.88 2437.12 1579.16 2548.96C1580.2 2466.4 1579.32 2391.68 1577.4 2325.04Z" fill="black"/>
<path d="M2041 2975.6L1919.96 3061.68C1821.16 2932.96 1673 2736.32 1637.16 2650.72C1546.12 2433.52 1363.08 1954.72 1363.08 1954.72L1600.68 1899.52C1600.68 1899.52 1750.6 2038.72 1847.32 2564C1928.28 2679.04 1996.44 2848.32 2041 2975.6Z" fill="#90CAF9"/>
<path d="M2034.04 3383.61C2064.2 3324.65 2064.6 3259.69 2032.04 3208.49C2018.04 3186.57 2089.16 3143.29 2089.16 3143.29C2114.28 3221.77 2134.76 3226.33 2152.2 3238.49C2169.64 3250.65 2171.4 3276.81 2156.68 3285.69C2140.62 3295.13 2126.93 3308.13 2116.68 3323.69C2098.44 3347.69 2088.2 3380.65 2062.04 3401.21C2045.32 3414.25 2020.76 3409.45 2034.04 3383.61Z" fill="#90CAF9"/>
<path d="M2102.36 3179.29C2102.36 3179.29 2081.48 3105.85 2040.52 2995.85C2009.59 3025.15 1975.36 3050.76 1938.52 3072.17C1996.36 3158.25 2038.68 3220.09 2038.68 3220.09C2063.27 3212.64 2085.31 3198.51 2102.36 3179.29Z" fill="#FFC3BD"/>
<path d="M1893.8 3038.57C1901.8 3050.25 1923.24 3079.45 1935 3087.69C1935.69 3088.17 1936.48 3088.5 1937.31 3088.64C1938.14 3088.77 1938.99 3088.72 1939.8 3088.49C1994.2 3071.69 2041 3038.01 2058.12 3019.05C2058.6 3018.54 2058.96 3017.93 2059.18 3017.27C2059.41 3016.61 2059.48 3015.9 2059.4 3015.21C2058.28 2997.21 2045.64 2963.69 2040.12 2949.69C2039.82 2948.95 2039.35 2948.28 2038.76 2947.74C2038.17 2947.2 2037.46 2946.8 2036.69 2946.57C2035.93 2946.34 2035.12 2946.29 2034.33 2946.41C2033.53 2946.53 2032.78 2946.83 2032.12 2947.29C1988.46 2977.75 1943.05 3005.61 1896.12 3030.73C1895.41 3031.04 1894.77 3031.51 1894.26 3032.09C1893.75 3032.68 1893.36 3033.36 1893.14 3034.11C1892.92 3034.86 1892.87 3035.64 1892.98 3036.41C1893.09 3037.18 1893.37 3037.92 1893.8 3038.57Z" fill="#263238"/>
<path d="M1179.08 1586C1189.96 1656.8 1147.8 1711.68 1212.68 1744.32C1201.88 1798.16 1217.88 1905.68 1243.56 1948.32C1279.64 1967.92 1456.12 1938.96 1600.36 1899.44C1598.28 1837.84 1547.64 1716.64 1561.72 1514.88C1562.48 1503.85 1560.91 1492.77 1557.11 1482.38C1553.32 1471.99 1547.38 1462.51 1539.69 1454.56C1531.99 1446.61 1522.72 1440.37 1512.45 1436.23C1502.19 1432.1 1491.18 1430.17 1480.12 1430.56C1467.64 1430.56 1454.36 1431.76 1440.92 1432.96C1393.67 1436 1346.69 1442.41 1300.36 1452.16C1285.4 1455.68 1269.96 1459.68 1255.32 1463.84C1229.87 1471.36 1208.06 1487.94 1194.01 1510.45C1179.96 1532.96 1174.65 1559.84 1179.08 1586Z" fill="#263238"/>
<path d="M1281 1532.16C1281 1532.16 1326.2 1515.68 1349.88 1556.16C1389.32 1534 1444.76 1440.32 1440.84 1433.2C1374.84 1451.36 1281 1532.16 1281 1532.16Z" fill="white"/>
<path d="M1281 1532.16C1281 1532.16 1246.68 1528.08 1237 1558.48C1237 1498.48 1277.48 1460.72 1295.16 1453.68C1289 1469.36 1281 1532.16 1281 1532.16Z" fill="white"/>
<path d="M1423.56 1274.4C1418.52 1321.2 1417.72 1396.4 1440.92 1433.28C1440.92 1433.28 1352.92 1493.52 1280.92 1532.16C1258.28 1479.76 1295.08 1453.68 1295.08 1453.68C1329.4 1440.56 1329.08 1396.64 1324.44 1363.04L1423.56 1274.4Z" fill="#FFC3BD"/>
<path opacity="0.2" d="M1324.6 1363.04L1380.6 1312.64C1382.48 1322.05 1381.87 1331.78 1378.84 1340.88C1369.14 1367.1 1350.5 1389.06 1326.2 1402.88C1327.08 1389.58 1326.54 1376.23 1324.6 1363.04Z" fill="black"/>
<path d="M1441.64 1187.45C1433.64 1263.45 1432.44 1295.69 1393.24 1333.29C1334.2 1389.85 1244.36 1363.93 1229.56 1287.29C1216.2 1218.25 1230.84 1105.61 1305.08 1078.17C1379.32 1050.73 1449 1111.53 1441.64 1187.45Z" fill="#FFC3BD"/>
<path d="M1425 1243.04C1413.27 1231.81 1406.41 1216.43 1405.9 1200.2C1405.39 1183.96 1411.27 1168.18 1422.28 1156.24C1442.28 1136 1470.28 1177.92 1470.28 1177.92L1425 1243.04Z" fill="#263238"/>
<path d="M1332.28 1208.48C1332.28 1214.72 1328.52 1219.6 1324.28 1219.44C1320.04 1219.28 1317.16 1214.08 1317.4 1207.92C1317.64 1201.76 1321.16 1196.8 1325.4 1196.96C1329.64 1197.12 1332.52 1202 1332.28 1208.48Z" fill="#263238"/>
<path d="M1255.96 1206.65C1255.96 1212.81 1252.28 1217.69 1247.96 1217.53C1243.64 1217.37 1240.84 1212.25 1241.08 1206.01C1241.32 1199.77 1244.76 1194.97 1249.08 1195.13C1253.4 1195.29 1256.2 1200.41 1255.96 1206.65Z" fill="#263238"/>
<path d="M1250.84 1195.52L1236.12 1190.64C1236.12 1190.64 1243.32 1202.56 1250.84 1195.52Z" fill="#263238"/>
<path d="M1274.76 1209.04C1268.58 1222.99 1260.5 1236.02 1250.76 1247.76C1253.83 1250.13 1257.39 1251.8 1261.17 1252.66C1264.96 1253.51 1268.89 1253.53 1272.68 1252.72L1274.76 1209.04Z" fill="#ED847E"/>
<path d="M1307.8 1277.04C1304.33 1277.53 1300.82 1277.69 1297.32 1277.52C1296.85 1277.5 1296.4 1277.3 1296.07 1276.95C1295.74 1276.61 1295.56 1276.15 1295.56 1275.68C1295.57 1275.44 1295.63 1275.2 1295.73 1274.98C1295.83 1274.76 1295.98 1274.56 1296.16 1274.4C1296.33 1274.24 1296.54 1274.11 1296.77 1274.03C1297 1273.95 1297.24 1273.91 1297.48 1273.92C1305.18 1274.38 1312.89 1273.03 1319.97 1269.97C1327.06 1266.91 1333.33 1262.24 1338.28 1256.32C1338.41 1256.12 1338.58 1255.95 1338.77 1255.82C1338.97 1255.69 1339.19 1255.6 1339.42 1255.56C1339.65 1255.51 1339.89 1255.51 1340.12 1255.56C1340.35 1255.61 1340.57 1255.7 1340.76 1255.84C1340.96 1255.98 1341.13 1256.15 1341.26 1256.35C1341.4 1256.56 1341.49 1256.78 1341.53 1257.02C1341.58 1257.26 1341.57 1257.5 1341.52 1257.74C1341.47 1257.98 1341.38 1258.2 1341.24 1258.4C1332.95 1268.73 1320.95 1275.42 1307.8 1277.04Z" fill="#263238"/>
<path d="M1454.28 1251.12C1451.31 1257.41 1447.03 1262.98 1441.74 1267.48C1436.44 1271.98 1430.24 1275.29 1423.56 1277.2C1406.52 1281.44 1398.6 1262.72 1403.88 1244C1408.6 1227.12 1423.24 1204.64 1440.04 1208.72C1456.84 1212.8 1462.52 1234.72 1454.28 1251.12Z" fill="#FFC3BD"/>
<path d="M1402.28 1079.37C1348.42 1112.96 1287.96 1134.55 1225 1142.65C1225 1088.01 1331.88 1026.65 1402.28 1079.37Z" fill="#263238"/>
<path d="M1361 1086C1348.6 1134 1473 1222 1449 1306.64C1489.64 1243.36 1460.36 1100.96 1460.36 1100.96C1460.36 1100.96 1355.56 1034.64 1361 1086Z" fill="#263238"/>
<path d="M1348.2 1167.68C1347.72 1167.62 1347.25 1167.44 1346.84 1167.18C1346.42 1166.92 1346.07 1166.57 1345.8 1166.16C1343.33 1162.31 1339.99 1159.09 1336.04 1156.77C1332.09 1154.44 1327.65 1153.09 1323.08 1152.8C1322.61 1152.82 1322.13 1152.75 1321.69 1152.58C1321.24 1152.42 1320.83 1152.16 1320.49 1151.83C1320.14 1151.5 1319.87 1151.11 1319.68 1150.67C1319.5 1150.23 1319.4 1149.76 1319.4 1149.28C1319.38 1148.8 1319.46 1148.31 1319.63 1147.86C1319.8 1147.4 1320.06 1146.98 1320.4 1146.63C1320.73 1146.28 1321.14 1146 1321.59 1145.81C1322.03 1145.62 1322.52 1145.52 1323 1145.52C1328.78 1145.77 1334.41 1147.41 1339.42 1150.29C1344.43 1153.17 1348.68 1157.22 1351.8 1162.08C1352.07 1162.48 1352.26 1162.92 1352.36 1163.39C1352.46 1163.85 1352.47 1164.33 1352.38 1164.8C1352.29 1165.27 1352.11 1165.72 1351.84 1166.12C1351.58 1166.52 1351.24 1166.86 1350.84 1167.12C1350.46 1167.39 1350.03 1167.57 1349.58 1167.67C1349.12 1167.76 1348.66 1167.77 1348.2 1167.68Z" fill="#263238"/>
<path d="M1222.2 1165.04C1221.27 1164.97 1220.39 1164.58 1219.72 1163.92C1219.38 1163.58 1219.11 1163.18 1218.93 1162.75C1218.75 1162.31 1218.65 1161.83 1218.65 1161.36C1218.65 1160.88 1218.75 1160.41 1218.93 1159.97C1219.11 1159.53 1219.38 1159.13 1219.72 1158.8C1223.71 1154.61 1228.65 1151.43 1234.12 1149.54C1239.59 1147.64 1245.43 1147.09 1251.16 1147.92C1252.1 1148.13 1252.92 1148.7 1253.44 1149.51C1253.96 1150.31 1254.15 1151.29 1253.96 1152.24C1253.87 1152.71 1253.68 1153.15 1253.41 1153.55C1253.14 1153.95 1252.79 1154.29 1252.39 1154.55C1251.99 1154.81 1251.54 1154.99 1251.06 1155.07C1250.59 1155.15 1250.11 1155.14 1249.64 1155.04C1245.1 1154.46 1240.49 1154.96 1236.18 1156.5C1231.87 1158.05 1227.98 1160.59 1224.84 1163.92C1224.14 1164.63 1223.19 1165.03 1222.2 1165.04Z" fill="#263238"/>
<path d="M1327.16 1197.36L1312.44 1192.56C1312.44 1192.56 1319.56 1204.48 1327.16 1197.36Z" fill="#263238"/>
<path opacity="0.2" d="M1559.8 1554.01C1558.36 1596.72 1559.78 1639.48 1564.04 1682.01C1524.04 1639.77 1473.8 1560.01 1470.52 1520.01L1559.8 1554.01Z" fill="black"/>
<path d="M1821 1403.76L1829.72 1352.96L1908.68 1383.44C1908.68 1383.44 1890.36 1430.72 1856.68 1451.6L1847.32 1445.68C1839.98 1441.22 1833.78 1435.11 1829.21 1427.83C1824.65 1420.55 1821.83 1412.31 1821 1403.76Z" fill="#FFC3BD"/>
<path d="M1879 1324.64L1905 1338.8C1910.68 1341.88 1914.91 1347.08 1916.77 1353.27C1918.63 1359.46 1917.96 1366.14 1914.92 1371.84L1908.76 1383.44L1829.8 1352.96L1848.6 1330.48C1852.23 1326.16 1857.23 1323.23 1862.76 1322.17C1868.3 1321.1 1874.03 1321.97 1879 1324.64Z" fill="#FFC3BD"/>
<path d="M1545.72 1461.76L1555.8 1472.16L1566.76 1483.28C1574.2 1490.56 1581.64 1498 1589.32 1505.04C1604.52 1519.36 1620.2 1532.64 1635.96 1545.04C1650.83 1556.69 1666.61 1567.13 1683.16 1576.24C1695.82 1583.35 1709.58 1588.28 1723.88 1590.8L1702.36 1594.8C1697.08 1597.36 1697.4 1598.48 1698.52 1597.6C1700.68 1596.15 1702.67 1594.46 1704.44 1592.56C1710.3 1586.47 1715.65 1579.91 1720.44 1572.96C1731.32 1557.52 1742.36 1540 1752.44 1521.84C1762.52 1503.68 1773.24 1485.04 1783.56 1465.84L1814.36 1408.88V1408.4C1817.97 1401.61 1823.88 1396.33 1831.03 1393.49C1838.18 1390.66 1846.1 1390.46 1853.38 1392.94C1860.66 1395.41 1866.83 1400.39 1870.77 1406.99C1874.72 1413.59 1876.19 1421.37 1874.92 1428.96C1871.24 1452 1866.2 1473.76 1860.6 1495.92C1855 1518.08 1849 1540 1841 1562C1833.16 1584.68 1823.86 1606.83 1813.16 1628.32C1806.96 1640.41 1799.93 1652.07 1792.12 1663.2C1787.2 1670.06 1781.68 1676.49 1775.64 1682.4C1766.7 1691.32 1756.13 1698.46 1744.52 1703.44C1738.82 1705.87 1732.72 1707.2 1726.52 1707.36H1723C1691.39 1707.54 1660.11 1700.97 1631.24 1688.08C1618.5 1682.63 1606.06 1676.52 1593.96 1669.76C1582.39 1662.93 1571.22 1655.86 1560.44 1648.56C1539.51 1633.9 1519.57 1617.86 1500.76 1600.56C1491.56 1592.08 1482.44 1583.52 1473.72 1574.48C1469.4 1570 1465 1565.52 1460.76 1560.8C1456.52 1556.08 1452.76 1551.76 1447.56 1545.76C1436.06 1533.03 1430.09 1516.25 1430.96 1499.12C1431.83 1481.98 1439.47 1465.9 1452.2 1454.4C1464.93 1442.9 1481.71 1436.93 1498.84 1437.8C1515.98 1438.67 1532.06 1446.31 1543.56 1459.04L1545.72 1461.76Z" fill="#FFC3BD"/>
<path d="M1483.64 1430.96C1542.28 1432.72 1600.6 1502.96 1600.6 1502.96C1600.6 1502.96 1578.04 1596.16 1513.8 1636.32C1477.64 1608.16 1447 1585.6 1447 1585.6C1395.88 1510.64 1412.92 1460.88 1483.64 1430.96Z" fill="#263238"/>
<path d="M1231.88 1943.13C1236.2 1968.17 1241.4 1987.85 1243.08 1993.85C1243.24 1994.48 1243.53 1995.08 1243.93 1995.6C1244.33 1996.13 1244.83 1996.56 1245.4 1996.89C1253.96 2001.61 1293 2020.89 1364.68 2016.65C1444.68 2012.33 1562.04 1968.65 1622.92 1922.17C1623.81 1921.48 1624.44 1920.52 1624.73 1919.44C1625.02 1918.35 1624.95 1917.2 1624.52 1916.17C1619.82 1905.74 1614.33 1895.69 1608.12 1886.09C1607.51 1885.16 1606.62 1884.46 1605.58 1884.09C1604.55 1883.72 1603.41 1883.69 1602.36 1884.01C1576.12 1892.01 1410.92 1939.29 1236.92 1937.21C1236.18 1937.21 1235.45 1937.37 1234.78 1937.68C1234.11 1937.99 1233.52 1938.44 1233.04 1939.01C1232.56 1939.57 1232.21 1940.23 1232.01 1940.94C1231.81 1941.65 1231.76 1942.4 1231.88 1943.13Z" fill="#90CAF9"/>
<path opacity="0.3" d="M1231.88 1943.13C1236.2 1968.17 1241.4 1987.85 1243.08 1993.85C1243.24 1994.48 1243.53 1995.08 1243.93 1995.6C1244.33 1996.13 1244.83 1996.56 1245.4 1996.89C1253.96 2001.61 1293 2020.89 1364.68 2016.65C1444.68 2012.33 1562.04 1968.65 1622.92 1922.17C1623.81 1921.48 1624.44 1920.52 1624.73 1919.44C1625.02 1918.35 1624.95 1917.2 1624.52 1916.17C1619.82 1905.74 1614.33 1895.69 1608.12 1886.09C1607.51 1885.16 1606.62 1884.46 1605.58 1884.09C1604.55 1883.72 1603.41 1883.69 1602.36 1884.01C1576.12 1892.01 1410.92 1939.29 1236.92 1937.21C1236.18 1937.21 1235.45 1937.37 1234.78 1937.68C1234.11 1937.99 1233.52 1938.44 1233.04 1939.01C1232.56 1939.57 1232.21 1940.23 1232.01 1940.94C1231.81 1941.65 1231.76 1942.4 1231.88 1943.13Z" fill="white"/>
<path d="M2835.16 3237.28H1781.88C1762.4 3237.46 1743.09 3233.61 1725.17 3225.96C1707.25 3218.32 1691.11 3207.05 1677.75 3192.86C1664.4 3178.68 1654.13 3161.88 1647.58 3143.53C1641.04 3125.18 1638.36 3105.68 1639.72 3086.24L1767.72 897.037C1770.64 856.402 1788.69 818.341 1818.32 790.375C1847.94 762.409 1886.98 746.573 1927.72 745.997H2981.24C3000.72 745.817 3020.03 749.671 3037.95 757.315C3055.87 764.96 3072.01 776.23 3085.36 790.416C3098.71 804.603 3108.99 821.399 3115.53 839.748C3122.08 858.097 3124.76 877.603 3123.4 897.037L2995 3086.24C2992.08 3126.85 2974.05 3164.89 2944.45 3192.85C2914.86 3220.81 2875.87 3236.67 2835.16 3237.28Z" fill="#90CAF9"/>
<path opacity="0.8" d="M2835.16 3237.28H1781.88C1762.4 3237.46 1743.09 3233.61 1725.17 3225.96C1707.25 3218.32 1691.11 3207.05 1677.75 3192.86C1664.4 3178.68 1654.13 3161.88 1647.58 3143.53C1641.04 3125.18 1638.36 3105.68 1639.72 3086.24L1767.72 897.037C1770.64 856.402 1788.69 818.341 1818.32 790.375C1847.94 762.409 1886.98 746.573 1927.72 745.997H2981.24C3000.72 745.817 3020.03 749.671 3037.95 757.315C3055.87 764.96 3072.01 776.23 3085.36 790.416C3098.71 804.603 3108.99 821.399 3115.53 839.748C3122.08 858.097 3124.76 877.603 3123.4 897.037L2995 3086.24C2992.08 3126.85 2974.05 3164.89 2944.45 3192.85C2914.86 3220.81 2875.87 3236.67 2835.16 3237.28Z" fill="white"/>
<path d="M2828.92 3193.45H1804.92C1791.23 3193.58 1777.67 3190.88 1765.07 3185.51C1752.48 3180.14 1741.13 3172.23 1731.75 3162.27C1722.36 3152.3 1715.14 3140.51 1710.54 3127.61C1705.94 3114.72 1704.05 3101.02 1705 3087.37L1833 907.683C1835.05 879.202 1847.68 852.518 1868.4 832.874C1889.13 813.231 1916.45 802.048 1945 801.522H2969C2982.69 801.401 2996.26 804.113 3008.85 809.488C3021.44 814.863 3032.79 822.784 3042.17 832.754C3051.56 842.724 3058.78 854.527 3063.38 867.422C3067.98 880.317 3069.87 894.024 3068.92 907.683L2940.92 3087.37C2938.87 3115.84 2926.23 3142.51 2905.51 3162.14C2884.78 3181.77 2857.46 3192.94 2828.92 3193.45Z" fill="#90CAF9"/>
<path d="M2817.88 3181.77H1793.88C1780.19 3181.89 1766.62 3179.18 1754.03 3173.8C1741.43 3168.43 1730.09 3160.51 1720.71 3150.54C1711.32 3140.57 1704.1 3128.76 1699.5 3115.87C1694.9 3102.97 1693.01 3089.27 1693.96 3075.61L1821.96 895.925C1824.01 867.444 1836.64 840.76 1857.36 821.117C1878.09 801.473 1905.41 790.29 1933.96 789.765H2957.96C2971.65 789.643 2985.22 792.355 2997.81 797.73C3010.4 803.105 3021.75 811.026 3031.13 820.996C3040.52 830.966 3047.74 842.769 3052.34 855.664C3056.94 868.559 3058.83 882.266 3057.88 895.925L2929.88 3075.61C2927.83 3104.09 2915.2 3130.77 2894.47 3150.42C2873.75 3170.06 2846.43 3181.24 2817.88 3181.77Z" fill="white"/>
<path opacity="0.1" d="M2787.96 3100.72H1833C1824.54 3100.8 1816.15 3099.12 1808.37 3095.8C1800.59 3092.48 1793.58 3087.59 1787.78 3081.43C1781.98 3075.27 1777.51 3067.97 1774.67 3060C1771.82 3052.03 1770.65 3043.56 1771.24 3035.12L1825 2125.92C1826.26 2108.28 1834.09 2091.75 1846.95 2079.6C1859.81 2067.46 1876.75 2060.58 1894.44 2060.32H2849C2857.46 2060.25 2865.85 2061.92 2873.63 2065.24C2881.41 2068.56 2888.42 2073.46 2894.22 2079.62C2900.02 2085.78 2904.49 2093.07 2907.33 2101.04C2910.18 2109.01 2911.34 2117.48 2910.76 2125.92L2857.4 3035.12C2856.14 3052.77 2848.31 3069.29 2835.45 3081.44C2822.59 3093.59 2805.65 3100.47 2787.96 3100.72Z" fill="#90CAF9"/>
<path opacity="0.1" d="M2575.88 951.444H2297.56C2294.54 951.474 2291.54 950.877 2288.76 949.691C2285.97 948.506 2283.47 946.757 2281.39 944.555C2279.32 942.354 2277.72 939.747 2276.71 936.898C2275.69 934.05 2275.27 931.022 2275.48 928.004C2275.92 921.678 2278.73 915.748 2283.33 911.391C2287.94 907.035 2294.02 904.569 2300.36 904.484H2578.6C2581.66 904.409 2584.7 904.975 2587.53 906.145C2590.35 907.316 2592.9 909.065 2595.01 911.28C2597.12 913.496 2598.75 916.128 2599.78 919.009C2600.81 921.889 2601.23 924.953 2601 928.004C2600.56 934.364 2597.72 940.319 2593.06 944.669C2588.39 949.018 2582.26 951.44 2575.88 951.444Z" fill="#90CAF9"/>
<path opacity="0.1" d="M2686.6 1828.95C2857.99 1662.52 2869.69 1396.58 2712.74 1234.96C2555.79 1073.34 2289.62 1077.24 2118.24 1243.67C1946.85 1410.1 1935.15 1676.04 2092.1 1837.66C2249.05 1999.28 2515.22 1995.38 2686.6 1828.95Z" fill="#90CAF9"/>
<path d="M2108.2 1814.57C2073.18 1777.28 2046.25 1733.17 2029.08 1684.99C2011.91 1636.8 2004.89 1585.59 2008.44 1534.57H2016.44C2012.98 1584.5 2019.86 1634.6 2036.65 1681.75C2053.44 1728.9 2079.79 1772.07 2114.04 1808.57L2108.2 1814.57Z" fill="#90CAF9"/>
<path d="M2796.36 1538L2788.36 1537.52C2790.55 1502.28 2787.85 1466.91 2780.36 1432.4L2788.36 1430.64C2796.01 1465.88 2798.7 1502.02 2796.36 1538Z" fill="#90CAF9"/>
<path d="M2757.16 1362.8C2737.58 1319.36 2709.57 1280.24 2674.76 1247.71C2639.95 1215.17 2599.02 1189.87 2554.36 1173.28L2557.16 1165.76C2602.84 1182.7 2644.7 1208.56 2680.29 1241.84C2715.87 1275.12 2744.48 1315.15 2764.44 1359.6L2757.16 1362.8Z" fill="#90CAF9"/>
<path d="M2650.04 1791.3C2799.4 1646.26 2809.61 1414.52 2672.85 1273.69C2536.09 1132.87 2304.15 1136.28 2154.8 1281.32C2005.44 1426.35 1995.23 1658.1 2131.99 1798.92C2268.75 1939.75 2500.69 1936.34 2650.04 1791.3Z" fill="#90CAF9"/>
<path d="M2361.72 1586C2379.32 1582.08 2387.56 1567.04 2391.32 1549.92C2391.72 1548.08 2392.04 1546.32 2392.36 1544.56V1542.96C2393.32 1535.82 2393.86 1528.64 2393.96 1521.44C2376.92 1519.75 2361.1 1511.86 2349.51 1499.26C2337.91 1486.66 2331.35 1470.24 2331.08 1453.12C2330.2 1419.17 2337.73 1385.53 2353 1355.2C2349.07 1355.71 2345.34 1357.26 2342.2 1359.68C2341.9 1359.91 2341.55 1360.07 2341.18 1360.15C2340.8 1360.24 2340.42 1360.24 2340.04 1360.16C2339.35 1360.04 2338.72 1359.67 2338.28 1359.12C2337.86 1358.52 2337.68 1357.77 2337.78 1357.05C2337.89 1356.32 2338.27 1355.66 2338.84 1355.2C2343.82 1351.44 2349.89 1349.41 2356.12 1349.44C2357.32 1347.52 2358.44 1345.52 2359.64 1343.68C2354.52 1343.68 2349.56 1343.68 2344.76 1343.68C2350.04 1306.72 2421.16 1275.68 2469.64 1303.68C2491.24 1308 2526.92 1338.88 2526.92 1338.88C2527.64 1358.55 2527.08 1378.24 2525.24 1397.84C2522.04 1431.28 2514.12 1470.56 2494.84 1492.48C2499.64 1481.26 2501.4 1468.99 2499.96 1456.88C2495.34 1461.45 2489.6 1464.73 2483.32 1466.4C2481.04 1471.3 2478.37 1476.01 2475.32 1480.48C2467.8 1514.8 2462.44 1560.48 2473.88 1586.8C2484.2 1587.44 2494.2 1588.4 2503.72 1589.44L2506.04 1589.84C2512.32 1586.15 2518.36 1582.06 2524.12 1577.6C2596.12 1521.6 2519.72 1455.84 2537.72 1395.6C2555.72 1335.36 2540.52 1312.48 2491.32 1310.56C2511.72 1278 2382.12 1226 2325.16 1327.04C2273.56 1418.64 2256.92 1464.4 2275.48 1536C2282.46 1559.4 2298.27 1579.17 2319.56 1591.12C2323.19 1590.13 2326.88 1589.38 2330.6 1588.88C2340.76 1587.92 2351.32 1586.8 2361.72 1586Z" fill="#263238"/>
<path d="M2249.8 1726.81C2246.86 1721.61 2244.19 1716.27 2241.8 1710.81C2236.36 1726.81 2231 1742.81 2225.8 1758.81C2220.84 1773.21 2216.12 1787.61 2211.16 1801.37L2203.72 1820.81L2200.52 1828.81C2199.4 1830.97 2200.52 1829.69 2200.52 1830.33C2197.11 1834.3 2193.33 1837.94 2189.24 1841.21C2188.36 1842.09 2187.24 1842.89 2186.28 1843.69C2208.41 1858.62 2232.23 1870.89 2257.24 1880.25C2257.8 1843.69 2262.28 1805.69 2267.08 1795.53C2238.28 1775.53 2242.6 1754.01 2249.8 1726.81Z" fill="#FFC3BD"/>
<path d="M2277.8 1618.88L2275.8 1621.68C2276.44 1620.72 2277.16 1619.84 2277.88 1618.96L2277.8 1618.88Z" fill="#263238"/>
<path d="M2259.32 1672.48C2259.2 1654.87 2264.54 1637.65 2274.6 1623.2C2259.26 1647.33 2246.65 1673.09 2237 1700C2237 1700 2238.44 1704.24 2241.48 1710.88C2243.87 1716.34 2246.54 1721.69 2249.48 1726.88C2255.19 1709.27 2258.5 1690.97 2259.32 1672.48Z" fill="#263238"/>
<path d="M2538.2 1788.56C2528.72 1774.63 2520.29 1760 2513 1744.8C2510.6 1746.08 2508.12 1747.36 2505.56 1748.48C2481.56 1723.12 2461.08 1702.64 2461.08 1702.64C2431.16 1640.24 2449.64 1604.72 2506.36 1590.24C2515.16 1592.05 2523.56 1595.44 2531.16 1600.24C2523.68 1594.98 2515.08 1591.53 2506.04 1590.16L2503.72 1589.76C2494.2 1588.72 2484.2 1587.76 2473.88 1587.12C2476.12 1592.96 2424.76 1667.12 2392.52 1678.88C2379.32 1645.6 2342.28 1643.36 2342.28 1643.36C2342.28 1643.36 2307.72 1636.24 2297 1658C2304.04 1613.04 2347.32 1589.36 2361.72 1586C2351.32 1586.88 2340.76 1588 2330.6 1589.28C2326.88 1589.78 2323.19 1590.53 2319.56 1591.52C2303.1 1596.04 2288.5 1605.68 2277.88 1619.04C2277.16 1619.92 2276.44 1620.8 2275.8 1621.76L2274.6 1623.28C2264.54 1637.74 2259.2 1654.95 2259.32 1672.56C2258.59 1691.01 2255.39 1709.28 2249.8 1726.88C2242.6 1753.76 2238.28 1775.6 2266.52 1795.6C2261.72 1805.76 2257.24 1843.6 2256.68 1880.32C2296.44 1895.06 2338.52 1902.54 2380.92 1902.4C2435.21 1902.32 2488.85 1890.56 2538.2 1867.92C2536.83 1838.14 2537.07 1808.31 2538.92 1778.56C2538.68 1781.76 2538.36 1785.28 2538.2 1788.56Z" fill="#263238"/>
<path d="M2342.28 1643.37C2342.28 1643.37 2379.32 1645.61 2392.52 1678.89C2424.52 1666.73 2476.12 1592.97 2473.88 1587.12C2473.88 1587.12 2401 1622.49 2342.28 1643.37Z" fill="white"/>
<path d="M2361.88 1586C2347.48 1589.44 2304.2 1613.12 2297.16 1658C2307.88 1636.24 2342.44 1643.36 2342.44 1643.36C2331.24 1601.28 2361.88 1586 2361.88 1586Z" fill="white"/>
<path d="M2475.32 1480.81C2468.37 1490.89 2459.57 1499.58 2449.4 1506.41C2445.12 1509.48 2440.57 1512.16 2435.8 1514.41C2425.32 1531.23 2409.69 1544.22 2391.24 1551.45V1550.09C2387.48 1567.21 2379.24 1582.09 2361.64 1586.17C2361.64 1586.17 2331 1601.53 2342.04 1643.61C2400.84 1622.73 2473.64 1587.61 2473.64 1587.61C2462.44 1560.89 2467.8 1515.13 2475.32 1480.81Z" fill="#FFC3BD"/>
<path d="M2391.48 1549.84C2391.88 1548 2392.2 1546.24 2392.52 1544.48C2392.2 1546 2391.88 1548 2391.48 1549.84Z" fill="#263238"/>
<path opacity="0.2" d="M2391.48 1549.84C2391.88 1548 2392.2 1546.24 2392.52 1544.48C2392.2 1546 2391.88 1548 2391.48 1549.84Z" fill="black"/>
<path d="M2394.36 1521.36C2394.25 1528.56 2393.72 1535.75 2392.76 1542.88C2393.75 1535.75 2394.29 1528.56 2394.36 1521.36Z" fill="#263238"/>
<path opacity="0.2" d="M2394.36 1521.36C2394.25 1528.56 2393.72 1535.75 2392.76 1542.88C2393.75 1535.75 2394.29 1528.56 2394.36 1521.36Z" fill="black"/>
<path d="M2435.8 1514C2422.91 1520.17 2408.57 1522.66 2394.36 1521.2C2394.29 1528.4 2393.75 1535.59 2392.76 1542.72V1544.32C2392.76 1546.08 2392.12 1547.84 2391.72 1549.68V1551.04C2409.99 1543.72 2425.44 1530.74 2435.8 1514Z" fill="#FFC3BD"/>
<path opacity="0.2" d="M2435.8 1514C2422.91 1520.17 2408.57 1522.66 2394.36 1521.2C2394.29 1528.4 2393.75 1535.59 2392.76 1542.72V1544.32C2392.76 1546.08 2392.12 1547.84 2391.72 1549.68V1551.04C2409.99 1543.72 2425.44 1530.74 2435.8 1514Z" fill="black"/>
<path d="M2435.8 1514C2440.57 1511.76 2445.12 1509.08 2449.4 1506C2459.57 1499.17 2468.37 1490.49 2475.32 1480.4C2478.37 1475.93 2481.04 1471.22 2483.32 1466.32C2481.8 1466.32 2480.28 1467.12 2478.84 1467.28C2465.48 1468.48 2461.72 1453.44 2467.8 1440C2469.86 1435.46 2472.55 1431.23 2475.8 1427.44C2472.31 1416.02 2473.17 1403.71 2478.2 1392.88C2466.04 1367.92 2453.16 1344.88 2451.96 1328.16C2422.03 1337.41 2390.96 1342.5 2359.64 1343.28C2358.44 1345.12 2357.32 1347.12 2356.12 1349.04C2358.83 1349.03 2361.53 1349.43 2364.12 1350.24C2364.46 1350.36 2364.77 1350.55 2365.03 1350.8C2365.3 1351.04 2365.51 1351.34 2365.66 1351.67C2365.8 1351.99 2365.89 1352.35 2365.9 1352.71C2365.91 1353.07 2365.85 1353.42 2365.72 1353.76C2365.47 1354.44 2364.96 1355 2364.3 1355.31C2363.65 1355.63 2362.89 1355.67 2362.2 1355.44C2359.33 1354.57 2356.29 1354.35 2353.32 1354.8C2338.26 1385.16 2330.92 1418.77 2331.96 1452.64C2332.23 1469.76 2338.79 1486.18 2350.38 1498.78C2361.98 1511.38 2377.8 1519.27 2394.84 1520.96C2408.87 1522.41 2423.04 1520 2435.8 1514ZM2417.96 1356.88C2422.32 1357.74 2426.4 1359.64 2429.86 1362.43C2433.32 1365.22 2436.04 1368.8 2437.8 1372.88C2438.11 1373.55 2438.15 1374.32 2437.91 1375.02C2437.68 1375.72 2437.18 1376.3 2436.52 1376.64C2435.86 1376.92 2435.11 1376.92 2434.44 1376.64C2434.08 1376.54 2433.75 1376.36 2433.47 1376.11C2433.19 1375.86 2432.98 1375.55 2432.84 1375.2C2431.39 1371.97 2429.17 1369.14 2426.39 1366.95C2423.6 1364.76 2420.33 1363.28 2416.84 1362.64C2416.12 1362.52 2415.47 1362.13 2415.03 1361.55C2414.58 1360.97 2414.37 1360.25 2414.44 1359.52C2414.47 1359.11 2414.6 1358.71 2414.8 1358.36C2415 1358 2415.28 1357.69 2415.62 1357.45C2415.96 1357.22 2416.34 1357.06 2416.74 1356.99C2417.15 1356.91 2417.56 1356.93 2417.96 1357.04V1356.88ZM2415.16 1396.4C2416.5 1397.4 2417.48 1398.8 2417.99 1400.39C2418.49 1401.98 2418.48 1403.69 2417.96 1405.28C2417.08 1409.92 2413.88 1413.28 2410.84 1412.56C2407.8 1411.84 2406.04 1407.76 2406.92 1403.12C2407.36 1400.77 2408.57 1398.63 2410.36 1397.04C2407.87 1395.72 2405.92 1393.57 2404.84 1390.96L2415.16 1396.4ZM2349.56 1393.04C2349.99 1390.73 2351.17 1388.62 2352.92 1387.04C2350.47 1385.65 2348.55 1383.48 2347.48 1380.88L2357.96 1386.24C2359.25 1387.28 2360.21 1388.68 2360.7 1390.26C2361.2 1391.84 2361.22 1393.53 2360.76 1395.12C2359.8 1399.76 2356.68 1403.12 2353.64 1402.48C2350.6 1401.84 2348.68 1397.84 2349.56 1393.2V1393.04ZM2368.12 1431.92C2365.16 1432.1 2362.19 1431.62 2359.42 1430.53C2356.66 1429.44 2354.17 1427.75 2352.12 1425.6C2360.69 1417.84 2368.17 1408.96 2374.36 1399.2L2368.12 1431.92ZM2383.56 1453.36C2383.21 1453.27 2382.9 1453.04 2382.71 1452.73C2382.51 1452.41 2382.45 1452.04 2382.52 1451.68C2382.6 1451.33 2382.81 1451.03 2383.11 1450.83C2383.41 1450.64 2383.77 1450.57 2384.12 1450.64C2389.9 1451.88 2395.88 1451.75 2401.59 1450.25C2407.31 1448.75 2412.59 1445.92 2417 1442C2417.13 1441.87 2417.28 1441.76 2417.45 1441.69C2417.61 1441.62 2417.79 1441.58 2417.97 1441.57C2418.16 1441.57 2418.34 1441.6 2418.51 1441.67C2418.68 1441.73 2418.83 1441.83 2418.96 1441.96C2419.09 1442.09 2419.2 1442.24 2419.27 1442.4C2419.34 1442.57 2419.38 1442.75 2419.39 1442.93C2419.39 1443.11 2419.36 1443.29 2419.29 1443.46C2419.23 1443.63 2419.13 1443.79 2419 1443.92C2411.56 1450.77 2401.75 1454.44 2391.64 1454.16C2388.94 1454.14 2386.24 1453.92 2383.56 1453.52V1453.36Z" fill="#FFC3BD"/>
<path d="M2489 1418C2485.64 1410 2481.8 1401.44 2477.88 1393.44C2472.84 1404.27 2471.99 1416.58 2475.48 1428C2479.03 1423.54 2483.69 1420.09 2489 1418Z" fill="#263238"/>
<path d="M2410.2 1397.29C2408.41 1398.88 2407.2 1401.01 2406.76 1403.37C2405.88 1408.01 2407.64 1412.25 2410.68 1412.81C2413.72 1413.37 2416.92 1410.17 2417.8 1405.53C2418.32 1403.94 2418.33 1402.23 2417.82 1400.64C2417.32 1399.04 2416.33 1397.65 2415 1396.65C2414.32 1397.16 2413.53 1397.49 2412.68 1397.6C2411.84 1397.72 2410.99 1397.61 2410.2 1397.29Z" fill="#263238"/>
<path d="M2361 1395.36C2361.46 1393.77 2361.44 1392.08 2360.95 1390.5C2360.45 1388.92 2359.49 1387.52 2358.2 1386.48C2357.51 1386.99 2356.7 1387.32 2355.85 1387.45C2355 1387.57 2354.13 1387.49 2353.32 1387.2C2351.57 1388.78 2350.39 1390.89 2349.96 1393.2C2349.08 1397.84 2350.84 1402.08 2353.88 1402.72C2356.92 1403.36 2359.64 1400 2361 1395.36Z" fill="#263238"/>
<path d="M2357.8 1386.48L2347.32 1381.12C2348.39 1383.72 2350.31 1385.89 2352.76 1387.28C2353.6 1387.58 2354.5 1387.67 2355.38 1387.53C2356.26 1387.39 2357.09 1387.03 2357.8 1386.48Z" fill="#263238"/>
<path d="M2352.2 1426.01C2354.25 1428.16 2356.74 1429.84 2359.5 1430.93C2362.27 1432.03 2365.23 1432.5 2368.2 1432.33L2374.52 1399.61C2368.3 1409.37 2360.8 1418.25 2352.2 1426.01Z" fill="#ED847E"/>
<path d="M2418.84 1442C2418.57 1441.74 2418.21 1441.6 2417.84 1441.6C2417.47 1441.6 2417.11 1441.74 2416.84 1442C2412.44 1445.9 2407.19 1448.71 2401.51 1450.21C2395.82 1451.71 2389.87 1451.86 2384.12 1450.64C2383.77 1450.57 2383.4 1450.64 2383.11 1450.83C2382.81 1451.03 2382.6 1451.33 2382.52 1451.68C2382.44 1452.04 2382.51 1452.42 2382.7 1452.73C2382.9 1453.04 2383.2 1453.27 2383.56 1453.36C2386.2 1453.81 2388.88 1454.08 2391.56 1454.16C2401.66 1454.44 2411.48 1450.77 2418.92 1443.92C2419.14 1443.65 2419.26 1443.3 2419.25 1442.95C2419.23 1442.59 2419.09 1442.26 2418.84 1442Z" fill="#263238"/>
<path d="M2489 1418C2483.69 1420.09 2479.03 1423.54 2475.48 1428C2472.23 1431.79 2469.54 1436.02 2467.48 1440.56C2461.4 1454 2465.16 1469.04 2478.52 1467.84C2479.96 1467.84 2481.48 1467.2 2483 1466.88C2489.28 1465.22 2495.02 1461.93 2499.64 1457.36C2497.97 1443.81 2494.39 1430.56 2489 1418Z" fill="#FFC3BD"/>
<path d="M2453.48 1316.56C2453.96 1305.04 2460.52 1302.24 2469.48 1304C2421 1275.68 2349.88 1306.72 2344.6 1344C2349.4 1344 2354.36 1344 2359.48 1344C2390.8 1343.22 2421.86 1338.13 2451.8 1328.88C2451.33 1324.69 2451.91 1320.46 2453.48 1316.56Z" fill="#263238"/>
<path d="M2453.48 1316.56C2451.96 1320.37 2451.39 1324.49 2451.8 1328.56C2453 1345.52 2465.88 1368.56 2478.04 1393.28C2481.96 1401.28 2486.04 1409.28 2489.16 1417.84C2494.54 1430.4 2498.12 1443.65 2499.8 1457.2C2501.24 1469.31 2499.47 1481.59 2494.68 1492.8C2513.96 1470.88 2521.88 1431.6 2525.08 1398.16C2526.91 1378.57 2527.47 1358.87 2526.76 1339.2C2526.76 1339.2 2491.08 1308.32 2469.48 1304C2460.52 1302.24 2453.96 1305.04 2453.48 1316.56Z" fill="#263238"/>
<path d="M2417 1362.56C2420.48 1363.21 2423.76 1364.69 2426.54 1366.88C2429.33 1369.06 2431.54 1371.89 2433 1375.12C2433.13 1375.47 2433.35 1375.78 2433.63 1376.03C2433.91 1376.28 2434.24 1376.47 2434.6 1376.56C2435.26 1376.84 2436.01 1376.84 2436.68 1376.56C2437.33 1376.22 2437.83 1375.64 2438.07 1374.94C2438.31 1374.24 2438.27 1373.48 2437.96 1372.8C2436.2 1368.73 2433.47 1365.14 2430.02 1362.35C2426.56 1359.57 2422.48 1357.66 2418.12 1356.8C2417.39 1356.71 2416.65 1356.91 2416.07 1357.36C2415.48 1357.81 2415.1 1358.47 2415 1359.2C2414.85 1359.91 2414.97 1360.65 2415.34 1361.28C2415.71 1361.9 2416.3 1362.36 2417 1362.56Z" fill="#263238"/>
<path d="M2361.72 1355.84C2362.41 1356.07 2363.16 1356.03 2363.82 1355.71C2364.48 1355.4 2364.99 1354.84 2365.24 1354.16C2365.37 1353.82 2365.43 1353.47 2365.42 1353.11C2365.4 1352.75 2365.32 1352.39 2365.17 1352.07C2365.02 1351.74 2364.81 1351.44 2364.55 1351.2C2364.29 1350.95 2363.98 1350.76 2363.64 1350.64C2361.05 1349.83 2358.35 1349.43 2355.64 1349.44C2349.4 1349.42 2343.33 1351.44 2338.36 1355.2C2337.78 1355.66 2337.4 1356.32 2337.3 1357.05C2337.19 1357.78 2337.37 1358.52 2337.8 1359.12C2338.24 1359.67 2338.87 1360.04 2339.56 1360.16C2339.93 1360.24 2340.32 1360.24 2340.69 1360.16C2341.06 1360.07 2341.42 1359.91 2341.72 1359.68C2344.86 1357.26 2348.59 1355.71 2352.52 1355.2C2355.59 1354.7 2358.74 1354.92 2361.72 1355.84Z" fill="#263238"/>
<path d="M2410.2 1397.29C2410.99 1397.61 2411.84 1397.71 2412.69 1397.6C2413.53 1397.49 2414.33 1397.16 2415 1396.65L2404.52 1391.29C2405.65 1393.89 2407.66 1396.01 2410.2 1397.29Z" fill="#263238"/>
<path d="M2538.2 1788.56C2538.2 1785.28 2538.68 1781.76 2538.84 1778.4C2534.36 1771.28 2529.8 1764.08 2525.08 1756.96L2515.88 1743.28L2513 1744.8C2520.3 1759.99 2528.72 1774.62 2538.2 1788.56Z" fill="#263238"/>
<path opacity="0.2" d="M2538.2 1788.56C2538.2 1785.28 2538.68 1781.76 2538.84 1778.4C2534.36 1771.28 2529.8 1764.08 2525.08 1756.96L2515.88 1743.28L2513 1744.8C2520.3 1759.99 2528.72 1774.62 2538.2 1788.56Z" fill="black"/>
<path d="M2561.96 1854.8V1856.08C2593.87 1838.84 2623.26 1817.3 2649.32 1792.08C2644.95 1779.17 2639.82 1766.54 2633.96 1754.24C2626.2 1737.51 2617.58 1721.19 2608.12 1705.36C2600.12 1691.6 2591.64 1678.48 2582.92 1665.36C2574.92 1682.08 2552.2 1722.32 2516.12 1743.04L2525.32 1756.72C2530.04 1763.84 2534.6 1771.04 2539.08 1778.16C2543 1784.4 2547.08 1790.72 2550.36 1796.96C2556.52 1807.76 2562.28 1818.64 2566.36 1828.96L2565.56 1834.4C2564.6 1841.04 2563.4 1847.84 2561.96 1854.8Z" fill="#FFC3BD"/>
<path d="M2461.08 1702.64C2461.08 1702.64 2481.56 1723.12 2505.56 1748.48C2508.12 1747.36 2510.6 1746.08 2513 1744.8L2515.88 1743.28C2551.96 1722.56 2574.52 1682.32 2582.68 1665.6C2585 1660.88 2586.2 1658 2586.2 1658C2586.2 1658 2563 1619.6 2531.16 1600.24C2523.56 1595.44 2515.16 1592.05 2506.36 1590.24C2449.64 1604.72 2431.16 1640.24 2461.08 1702.64Z" fill="#263238"/>
<path d="M2844.68 900.159H2957.4C2960.48 900.107 2963.43 898.903 2965.66 896.786C2967.9 894.669 2969.26 891.791 2969.48 888.719C2969.58 887.256 2969.38 885.787 2968.88 884.407C2968.39 883.026 2967.61 881.763 2966.6 880.696C2965.6 879.629 2964.38 878.782 2963.03 878.208C2961.68 877.634 2960.23 877.345 2958.76 877.359H2845.96C2842.9 877.409 2839.96 878.602 2837.72 880.702C2835.49 882.803 2834.12 885.662 2833.88 888.719C2833.77 890.196 2833.97 891.679 2834.46 893.075C2834.96 894.471 2835.74 895.748 2836.75 896.825C2837.77 897.902 2839 898.754 2840.37 899.328C2841.73 899.903 2843.2 900.185 2844.68 900.159Z" fill="#90CAF9"/>
<path d="M2842.36 939.438H2955.08C2958.16 939.386 2961.11 938.183 2963.34 936.065C2965.58 933.948 2966.94 931.07 2967.16 927.998C2967.27 926.528 2967.08 925.052 2966.59 923.661C2966.1 922.271 2965.32 920.998 2964.32 919.922C2963.31 918.847 2962.09 917.992 2960.73 917.413C2959.38 916.834 2957.91 916.543 2956.44 916.558H2843.72C2840.63 916.59 2837.66 917.785 2835.41 919.904C2833.15 922.024 2831.78 924.913 2831.56 927.998C2831.47 929.469 2831.69 930.943 2832.19 932.328C2832.7 933.713 2833.48 934.981 2834.49 936.052C2835.5 937.124 2836.72 937.977 2838.07 938.559C2839.43 939.142 2840.89 939.441 2842.36 939.438Z" fill="#90CAF9"/>
<path d="M1930.44 939.438H2043.16C2046.25 939.388 2049.21 938.187 2051.45 936.071C2053.7 933.955 2055.08 931.077 2055.32 927.998C2055.42 926.524 2055.21 925.046 2054.71 923.655C2054.22 922.265 2053.43 920.993 2052.42 919.919C2051.41 918.844 2050.18 917.991 2048.82 917.413C2047.46 916.835 2046 916.544 2044.52 916.558H1931.8C1928.72 916.592 1925.76 917.789 1923.52 919.91C1921.28 922.031 1919.92 924.92 1919.72 927.998C1919.62 929.465 1919.83 930.937 1920.32 932.322C1920.81 933.707 1921.59 934.975 1922.59 936.048C1923.6 937.121 1924.81 937.976 1926.16 938.559C1927.51 939.142 1928.97 939.441 1930.44 939.438Z" fill="#90CAF9"/>
<path d="M2840.04 978.637H2953C2956.09 978.605 2959.06 977.41 2961.32 975.291C2963.57 973.171 2964.94 970.282 2965.16 967.197C2965.25 965.726 2965.03 964.252 2964.53 962.867C2964.03 961.482 2963.25 960.215 2962.23 959.143C2961.22 958.071 2960 957.218 2958.65 956.636C2957.29 956.053 2955.84 955.754 2954.36 955.757H2841.4C2838.31 955.807 2835.36 957.008 2833.11 959.124C2830.86 961.24 2829.48 964.118 2829.24 967.197C2829.14 968.671 2829.35 970.149 2829.85 971.54C2830.35 972.93 2831.13 974.202 2832.14 975.276C2833.16 976.351 2834.38 977.204 2835.74 977.782C2837.1 978.36 2838.56 978.651 2840.04 978.637Z" fill="#90CAF9"/>
<path d="M2691.88 2413.93H2009.96C1997.22 2414.04 1984.6 2411.53 1972.89 2406.53C1961.17 2401.54 1950.62 2394.17 1941.88 2384.9C1933.15 2375.63 1926.44 2364.65 1922.15 2352.66C1917.87 2340.66 1916.12 2327.91 1917 2315.21C1918.92 2288.65 1930.72 2263.78 1950.08 2245.51C1969.43 2227.23 1994.94 2216.88 2021.56 2216.49H2703.48C2716.21 2216.37 2728.84 2218.88 2740.55 2223.88C2752.27 2228.87 2762.82 2236.24 2771.55 2245.51C2780.28 2254.78 2787 2265.76 2791.28 2277.76C2795.57 2289.75 2797.32 2302.5 2796.44 2315.21C2794.52 2341.76 2782.72 2366.63 2763.36 2384.9C2744 2403.18 2718.5 2413.53 2691.88 2413.93Z" fill="white"/>
<path d="M2676.36 2679.28H1994.36C1981.63 2679.38 1969.01 2676.84 1957.3 2671.84C1945.59 2666.83 1935.04 2659.45 1926.31 2650.18C1917.58 2640.9 1910.87 2629.92 1906.58 2617.93C1902.29 2605.94 1900.53 2593.19 1901.4 2580.48C1903.38 2553.97 1915.21 2529.16 1934.56 2510.94C1953.91 2492.71 1979.38 2482.39 2005.96 2482H2687.96C2700.7 2481.88 2713.32 2484.4 2725.03 2489.4C2736.75 2494.39 2747.3 2501.76 2756.04 2511.03C2764.77 2520.3 2771.49 2531.28 2775.77 2543.27C2780.05 2555.27 2781.81 2568.02 2780.92 2580.72C2778.95 2607.24 2767.12 2632.06 2747.77 2650.3C2728.42 2668.54 2702.95 2678.88 2676.36 2679.28Z" fill="white"/>
<path d="M2660.76 2944.56H1978.84C1966.11 2944.68 1953.48 2942.16 1941.77 2937.17C1930.05 2932.17 1919.5 2924.81 1910.77 2915.54C1902.04 2906.26 1895.32 2895.29 1891.03 2883.29C1886.75 2871.3 1885 2858.55 1885.88 2845.84C1887.8 2819.28 1899.6 2794.4 1918.95 2776.11C1938.31 2757.83 1963.81 2747.45 1990.44 2747.04H2672.36C2685.1 2746.93 2697.72 2749.46 2709.44 2754.47C2721.15 2759.47 2731.71 2766.84 2740.44 2776.12C2749.17 2785.4 2755.88 2796.38 2760.17 2808.38C2764.45 2820.38 2766.2 2833.13 2765.32 2845.84C2763.4 2872.39 2751.6 2897.26 2732.24 2915.54C2712.88 2933.82 2687.38 2944.17 2660.76 2944.56Z" fill="white"/>
<path d="M2062.94 2350.58C2083.7 2330.42 2085.13 2298.22 2066.14 2278.67C2047.15 2259.11 2014.92 2259.6 1994.16 2279.76C1973.4 2299.92 1971.97 2332.12 1990.96 2351.68C2009.95 2371.23 2042.18 2370.74 2062.94 2350.58Z" fill="#90CAF9"/>
<path d="M2022.52 2532.41L2029.24 2557.77C2029.63 2559.16 2030.47 2560.39 2031.63 2561.25C2032.78 2562.12 2034.2 2562.58 2035.64 2562.57H2062.28C2063.78 2562.58 2065.24 2563.09 2066.43 2564.01C2067.62 2564.93 2068.47 2566.21 2068.86 2567.66C2069.25 2569.11 2069.16 2570.65 2068.59 2572.04C2068.02 2573.43 2067.01 2574.6 2065.72 2575.37L2043.24 2591.37C2041.96 2592.22 2040.98 2593.44 2040.44 2594.88C2039.89 2596.31 2039.81 2597.88 2040.2 2599.37L2046.92 2624.73C2047.32 2626.18 2047.26 2627.72 2046.75 2629.15C2046.25 2630.57 2045.31 2631.8 2044.08 2632.67C2042.85 2633.55 2041.38 2634.02 2039.87 2634.03C2038.36 2634.04 2036.88 2633.58 2035.64 2632.73L2015 2616.73C2013.83 2615.9 2012.43 2615.46 2011 2615.46C2009.57 2615.46 2008.17 2615.9 2007 2616.73L1984.52 2632.73C1983.34 2633.66 1981.89 2634.18 1980.38 2634.19C1978.87 2634.2 1977.41 2633.7 1976.22 2632.78C1975.03 2631.86 1974.18 2630.56 1973.82 2629.1C1973.45 2627.64 1973.59 2626.1 1974.2 2624.73L1983.88 2599.37C1984.48 2597.99 1984.59 2596.46 1984.22 2595.01C1983.84 2593.56 1982.99 2592.28 1981.8 2591.37L1961.16 2575.37C1960.03 2574.39 1959.22 2573.09 1958.85 2571.63C1958.48 2570.18 1958.57 2568.65 1959.1 2567.25C1959.64 2565.85 1960.59 2564.65 1961.83 2563.81C1963.07 2562.97 1964.54 2562.54 1966.04 2562.57H1992.68C1994.19 2562.57 1995.67 2562.11 1996.91 2561.25C1998.15 2560.39 1999.11 2559.18 1999.64 2557.77L2009 2532.41C2009.43 2530.94 2010.32 2529.66 2011.54 2528.74C2012.75 2527.83 2014.24 2527.33 2015.76 2527.33C2017.29 2527.33 2018.77 2527.83 2019.99 2528.74C2021.21 2529.66 2022.1 2530.94 2022.52 2532.41Z" fill="#90CAF9"/>
<path d="M2041 2818.96L2036.76 2890.16C2036.56 2893.15 2035.23 2895.95 2033.05 2897.99C2030.87 2900.04 2027.99 2901.19 2025 2901.2H1962.68C1961.3 2901.12 1959.96 2900.77 1958.72 2900.15C1957.48 2899.54 1956.38 2898.69 1955.48 2897.65C1954.57 2896.6 1953.89 2895.39 1953.46 2894.08C1953.04 2892.76 1952.88 2891.38 1953 2890L1958.2 2801.36C1958.38 2798.38 1959.69 2795.57 1961.86 2793.51C1964.02 2791.44 1966.89 2790.28 1969.88 2790.24H2014.68L2041 2818.96Z" fill="#90CAF9"/>
<path d="M2014.28 2790.41L2041.24 2818.97H2023.72C2022.3 2818.98 2020.89 2818.7 2019.57 2818.14C2018.26 2817.59 2017.08 2816.76 2016.11 2815.72C2015.13 2814.69 2014.38 2813.46 2013.9 2812.12C2013.42 2810.78 2013.22 2809.35 2013.32 2807.93L2014.28 2790.41ZM2007.16 2770.81L2006.04 2789.93L2005 2807.45C2004.86 2810 2005.24 2812.55 2006.1 2814.96C2006.97 2817.36 2008.31 2819.57 2010.04 2821.45C2011.8 2823.3 2013.92 2824.78 2016.28 2825.79C2018.63 2826.79 2021.16 2827.3 2023.72 2827.29H2060.36L2047.24 2813.29L2020.36 2784.73L2007.16 2770.81Z" fill="white"/>
<path opacity="0.2" d="M2669 2304.72H2158.68C2156.61 2304.74 2154.57 2304.33 2152.67 2303.52C2150.77 2302.71 2149.06 2301.51 2147.64 2300.01C2146.22 2298.51 2145.13 2296.73 2144.42 2294.79C2143.72 2292.85 2143.43 2290.78 2143.56 2288.72C2143.9 2284.41 2145.83 2280.38 2148.98 2277.42C2152.14 2274.47 2156.28 2272.79 2160.6 2272.72H2670.84C2672.91 2272.71 2674.95 2273.12 2676.85 2273.93C2678.75 2274.74 2680.46 2275.93 2681.88 2277.43C2683.3 2278.93 2684.39 2280.71 2685.1 2282.65C2685.8 2284.59 2686.09 2286.66 2685.96 2288.72C2685.64 2293.02 2683.72 2297.05 2680.59 2300.01C2677.45 2302.97 2673.31 2304.65 2669 2304.72Z" fill="#90CAF9"/>
<path opacity="0.2" d="M2572.28 2357.85H2155.64C2153.57 2357.86 2151.52 2357.45 2149.62 2356.64C2147.71 2355.83 2146 2354.64 2144.57 2353.14C2143.15 2351.64 2142.05 2349.87 2141.33 2347.92C2140.62 2345.98 2140.32 2343.91 2140.44 2341.85C2140.78 2337.54 2142.71 2333.51 2145.86 2330.55C2149.02 2327.59 2153.16 2325.91 2157.48 2325.85H2574.12C2576.19 2325.82 2578.25 2326.22 2580.16 2327.03C2582.07 2327.83 2583.79 2329.03 2585.21 2330.53C2586.64 2332.03 2587.74 2333.81 2588.45 2335.76C2589.16 2337.71 2589.45 2339.78 2589.32 2341.85C2588.96 2346.15 2587.02 2350.17 2583.88 2353.13C2580.73 2356.08 2576.6 2357.76 2572.28 2357.85Z" fill="#90CAF9"/>
<path opacity="0.2" d="M2652.2 2590.96H2511.4C2507.07 2591.01 2502.92 2592.68 2499.76 2595.65C2496.61 2598.61 2494.68 2602.65 2494.36 2606.96C2494.23 2609.03 2494.52 2611.09 2495.22 2613.03C2495.93 2614.98 2497.02 2616.75 2498.44 2618.25C2499.86 2619.76 2501.57 2620.95 2503.47 2621.76C2505.37 2622.57 2507.42 2622.98 2509.48 2622.96H2650.28C2654.61 2622.92 2658.76 2621.25 2661.92 2618.28C2665.07 2615.32 2667 2611.28 2667.32 2606.96C2667.45 2604.9 2667.16 2602.84 2666.46 2600.89C2665.76 2598.95 2664.66 2597.18 2663.24 2595.67C2661.82 2594.17 2660.11 2592.98 2658.21 2592.17C2656.31 2591.36 2654.27 2590.95 2652.2 2590.96Z" fill="#90CAF9"/>
<path opacity="0.2" d="M2429.08 2590.97H2141.96C2137.63 2591.01 2133.48 2592.68 2130.32 2595.65C2127.17 2598.61 2125.24 2602.65 2124.92 2606.97C2124.77 2609.03 2125.06 2611.1 2125.76 2613.05C2126.45 2615 2127.55 2616.78 2128.97 2618.28C2130.39 2619.79 2132.11 2620.98 2134.01 2621.78C2135.92 2622.59 2137.97 2622.99 2140.04 2622.97H2427.24C2431.56 2622.9 2435.7 2621.22 2438.85 2618.26C2442.01 2615.3 2443.94 2611.27 2444.28 2606.97C2444.41 2604.9 2444.11 2602.82 2443.41 2600.88C2442.7 2598.93 2441.6 2597.15 2440.17 2595.65C2438.75 2594.14 2437.02 2592.95 2435.11 2592.15C2433.21 2591.34 2431.15 2590.94 2429.08 2590.97Z" fill="#90CAF9"/>
<path opacity="0.2" d="M2561.72 2538H2145C2140.67 2538.05 2136.52 2539.72 2133.36 2542.69C2130.21 2545.65 2128.28 2549.69 2127.96 2554C2127.83 2556.07 2128.12 2558.13 2128.82 2560.07C2129.52 2562.02 2130.62 2563.79 2132.04 2565.3C2133.46 2566.8 2135.17 2567.99 2137.07 2568.8C2138.97 2569.61 2141.01 2570.02 2143.08 2570H2559.72C2564.04 2569.94 2568.18 2568.26 2571.34 2565.3C2574.49 2562.34 2576.42 2558.31 2576.76 2554C2576.89 2551.95 2576.6 2549.89 2575.9 2547.95C2575.21 2546.02 2574.12 2544.24 2572.71 2542.74C2571.3 2541.24 2569.6 2540.05 2567.71 2539.23C2565.82 2538.42 2563.78 2538 2561.72 2538Z" fill="#90CAF9"/>
<path opacity="0.2" d="M2636.6 2856.25H2126.36C2122.04 2856.33 2117.91 2858.02 2114.76 2860.97C2111.62 2863.93 2109.68 2867.95 2109.32 2872.25C2109.19 2874.32 2109.49 2876.39 2110.19 2878.34C2110.9 2880.29 2112 2882.07 2113.43 2883.57C2114.85 2885.07 2116.58 2886.26 2118.49 2887.07C2120.39 2887.87 2122.45 2888.27 2124.52 2888.25H2634.76C2639.08 2888.18 2643.21 2886.5 2646.35 2883.54C2649.49 2880.58 2651.4 2876.55 2651.72 2872.25C2651.85 2870.19 2651.56 2868.12 2650.86 2866.18C2650.16 2864.24 2649.06 2862.46 2647.64 2860.96C2646.23 2859.46 2644.51 2858.26 2642.61 2857.45C2640.71 2856.64 2638.67 2856.23 2636.6 2856.25Z" fill="#90CAF9"/>
<path opacity="0.2" d="M2546.12 2803.2H2129.48C2125.16 2803.27 2121.02 2804.94 2117.87 2807.9C2114.71 2810.86 2112.78 2814.89 2112.44 2819.2C2112.31 2821.26 2112.6 2823.33 2113.31 2825.27C2114.01 2827.21 2115.1 2828.99 2116.52 2830.49C2117.94 2831.99 2119.65 2833.19 2121.55 2834C2123.45 2834.81 2125.5 2835.22 2127.56 2835.2H2544.28C2548.6 2835.13 2552.73 2833.45 2555.87 2830.49C2559.01 2827.53 2560.92 2823.5 2561.24 2819.2C2561.37 2817.14 2561.08 2815.07 2560.38 2813.13C2559.68 2811.19 2558.58 2809.41 2557.16 2807.91C2555.75 2806.41 2554.03 2805.22 2552.13 2804.41C2550.23 2803.6 2548.19 2803.19 2546.12 2803.2Z" fill="#90CAF9"/>
<defs>
<linearGradient id="paint0_linear_2106_1099" x1="2081" y1="0" x2="2081" y2="3870" gradientUnits="userSpaceOnUse">
<stop stop-color="#D107E3" stop-opacity="0"/>
<stop offset="1" stop-color="#1653F0"/>
</linearGradient>
</defs>
</svg>
