<svg width="5371" height="3529" viewBox="0 0 5371 3529" fill="none" xmlns="http://www.w3.org/2000/svg">
<g clip-path="url(#clip0_2108_1235)">
<rect width="5371" height="3529" fill="#EAF0FF"/>
<g filter="url(#filter0_f_2108_1235)">
<ellipse cx="3708" cy="2385" rx="2062" ry="1577" fill="url(#paint0_linear_2108_1235)" fill-opacity="0.5"/>
</g>
<rect y="589" width="2099" height="6141" fill="url(#paint1_linear_2108_1235)"/>
</g>
<path d="M2649.65 3342.5C3490.59 3342.5 4172.3 2948.91 4172.3 2463.39C4172.3 1977.88 3490.59 1584.29 2649.65 1584.29C1808.71 1584.29 1127 1977.88 1127 2463.39C1127 2948.91 1808.71 3342.5 2649.65 3342.5Z" fill="#F5F5F5"/>
<path d="M3462.71 3134.86C3630.81 3134.86 3767.09 3049.42 3767.09 2944.02C3767.09 2838.62 3630.81 2753.17 3462.71 2753.17C3294.61 2753.17 3158.34 2838.62 3158.34 2944.02C3158.34 3049.42 3294.61 3134.86 3462.71 3134.86Z" fill="#E6E6E6"/>
<path d="M4015.47 2259.58L3952.33 2224.15C3952.33 2224.15 3946.38 2108.85 3955.45 2016.86C3968.14 1887.6 4051.62 1731.97 4151.26 1768.83C4250.9 1805.68 4105.55 1936.99 4073.3 2046.7C4041.06 2156.4 4015.47 2259.58 4015.47 2259.58Z" fill="#37474F"/>
<path d="M3986.06 2246.05C3986.51 2246.04 3986.95 2245.94 3987.35 2245.76C3987.76 2245.58 3988.12 2245.32 3988.42 2245C3988.73 2244.67 3988.96 2244.29 3989.12 2243.88C3989.27 2243.46 3989.34 2243.02 3989.32 2242.57C3979.54 1955.35 4122.55 1810.78 4123.97 1809.36C4124.6 1808.74 4124.96 1807.9 4124.97 1807.01C4124.97 1806.13 4124.63 1805.28 4124.01 1804.65C4123.39 1804.02 4122.54 1803.66 4121.66 1803.66C4120.77 1803.65 4119.92 1803.99 4119.29 1804.61C4117.81 1806.03 3972.74 1952.66 3982.59 2242.86C3982.61 2243.29 3982.71 2243.72 3982.9 2244.12C3983.08 2244.52 3983.34 2244.88 3983.67 2245.17C3983.99 2245.47 3984.37 2245.7 3984.78 2245.85C3985.19 2246 3985.63 2246.07 3986.06 2246.05Z" fill="white"/>
<path d="M4050.13 2279.56L4010.66 2256.75C4010.66 2256.75 4003.92 2175.25 4043.89 2076.18C4078.69 1989.93 4165.07 1918.43 4208.45 1933.45C4251.82 1948.47 4250.97 1979.3 4229.71 2011.4C4208.45 2043.51 4079.68 2120.89 4050.13 2279.56Z" fill="#455A64"/>
<path d="M4029.65 2270.85C4030.09 2270.86 4030.53 2270.78 4030.94 2270.62C4031.36 2270.45 4031.73 2270.21 4032.05 2269.9C4032.37 2269.59 4032.62 2269.22 4032.79 2268.81C4032.96 2268.4 4033.05 2267.96 4033.05 2267.52C4032.27 2085.88 4202.78 1962.79 4204.55 1961.87C4205.26 1961.34 4205.74 1960.56 4205.89 1959.69C4206.03 1958.81 4205.83 1957.92 4205.33 1957.19C4205.07 1956.83 4204.75 1956.52 4204.38 1956.29C4204 1956.05 4203.59 1955.9 4203.15 1955.82C4202.72 1955.75 4202.27 1955.76 4201.84 1955.87C4201.41 1955.97 4201.01 1956.15 4200.65 1956.41C4198.88 1957.62 4025.54 2082.41 4026.32 2267.52C4026.32 2267.95 4026.4 2268.39 4026.57 2268.79C4026.74 2269.2 4026.98 2269.56 4027.29 2269.87C4027.6 2270.18 4027.97 2270.43 4028.37 2270.59C4028.78 2270.76 4029.21 2270.85 4029.65 2270.85Z" fill="white"/>
<path d="M2881.17 1730.7L2840.14 1707.24C2838.33 1705.88 2836.9 1704.08 2835.98 1702.01C2835.06 1699.94 2834.69 1697.66 2834.9 1695.41V1422C2835.31 1414.67 2837.76 1407.6 2841.98 1401.59L2882.8 1425.12C2878.72 1431.11 2876.41 1438.14 2876.14 1445.39V1719.01C2875.88 1721.22 2876.21 1723.47 2877.1 1725.52C2877.98 1727.58 2879.39 1729.36 2881.17 1730.7Z" fill="#90CAF9"/>
<path opacity="0.55" d="M2881.17 1730.7L2840.14 1707.24C2838.33 1705.88 2836.9 1704.08 2835.98 1702.01C2835.06 1699.94 2834.69 1697.66 2834.9 1695.41V1422C2835.31 1414.67 2837.76 1407.6 2841.98 1401.59L2882.8 1425.12C2878.72 1431.11 2876.41 1438.14 2876.14 1445.39V1719.01C2875.88 1721.22 2876.21 1723.47 2877.1 1725.52C2877.98 1727.58 2879.39 1729.36 2881.17 1730.7Z" fill="white"/>
<path d="M2894.21 1413.22L3466.68 1082.76C3476.95 1076.81 3485.25 1081.63 3485.25 1093.46V1367.44C3484.91 1373.87 3483.05 1380.14 3479.82 1385.72C3476.59 1391.3 3472.09 1396.03 3466.68 1399.54L2894.21 1729.5C2884.01 1735.38 2875.65 1730.56 2875.65 1718.72V1445.39C2876.01 1438.95 2877.88 1432.68 2881.1 1427.09C2884.33 1421.51 2888.82 1416.75 2894.21 1413.22Z" fill="#90CAF9"/>
<path opacity="0.7" d="M2894.21 1413.22L3466.68 1082.76C3476.95 1076.81 3485.25 1081.63 3485.25 1093.46V1367.44C3484.91 1373.87 3483.05 1380.14 3479.82 1385.72C3476.59 1391.3 3472.09 1396.03 3466.68 1399.54L2894.21 1729.5C2884.01 1735.38 2875.65 1730.56 2875.65 1718.72V1445.39C2876.01 1438.95 2877.88 1432.68 2881.1 1427.09C2884.33 1421.51 2888.82 1416.75 2894.21 1413.22Z" fill="white"/>
<path d="M3438.76 1058.03L3479.15 1081.06C3477.1 1080.3 3474.89 1080.05 3472.71 1080.33C3470.54 1080.61 3468.47 1081.42 3466.68 1082.69L2894.21 1413.22C2889.38 1416.21 2885.3 1420.28 2882.31 1425.12L2841.49 1401.59C2844.4 1396.8 2848.41 1392.77 2853.18 1389.83L3425.65 1059.3C3428.14 1057.76 3431 1056.91 3433.94 1056.82C3435.62 1056.81 3437.28 1057.23 3438.76 1058.03Z" fill="#90CAF9"/>
<path opacity="0.85" d="M3438.76 1058.03L3479.15 1081.06C3477.1 1080.3 3474.89 1080.05 3472.71 1080.33C3470.54 1080.61 3468.47 1081.42 3466.68 1082.69L2894.21 1413.22C2889.38 1416.21 2885.3 1420.28 2882.31 1425.12L2841.49 1401.59C2844.4 1396.8 2848.41 1392.77 2853.18 1389.83L3425.65 1059.3C3428.14 1057.76 3431 1056.91 3433.94 1056.82C3435.62 1056.81 3437.28 1057.23 3438.76 1058.03Z" fill="white"/>
<path d="M2939 1438.51L3421.89 1159.15C3426.85 1156.32 3430.82 1158.3 3430.82 1163.62C3430.6 1166.62 3429.68 1169.52 3428.13 1172.1C3426.58 1174.67 3424.44 1176.84 3421.89 1178.43L2939 1457.65C2934.11 1460.48 2930.07 1458.5 2930.07 1453.18C2930.32 1450.21 2931.25 1447.34 2932.8 1444.79C2934.35 1442.24 2936.47 1440.09 2939 1438.51Z" fill="#90CAF9"/>
<path d="M2939 1633.97L3421.89 1354.75C3426.85 1351.92 3430.82 1353.9 3430.82 1359.29C3430.61 1362.27 3429.68 1365.17 3428.13 1367.73C3426.58 1370.29 3424.44 1372.45 3421.89 1374.03L2939 1652.96C2934.11 1655.79 2930.07 1653.74 2930.07 1648.42C2930.36 1645.49 2931.31 1642.66 2932.86 1640.16C2934.41 1637.65 2936.51 1635.53 2939 1633.97Z" fill="#90CAF9"/>
<path d="M2939 1536.1L3421.89 1256.81C3426.85 1253.98 3430.82 1256.03 3430.82 1261.35C3430.59 1264.34 3429.67 1267.24 3428.12 1269.81C3426.57 1272.39 3424.43 1274.56 3421.89 1276.16L2939 1555.37C2934.11 1558.21 2930.07 1556.15 2930.07 1550.84C2930.3 1547.85 2931.23 1544.97 2932.78 1542.41C2934.33 1539.85 2936.46 1537.69 2939 1536.1Z" fill="#90CAF9"/>
<path d="M2939 1584.86L3421.89 1305.64C3426.85 1302.8 3430.82 1304.79 3430.82 1310.1C3430.6 1313.1 3429.68 1316.01 3428.13 1318.58C3426.58 1321.15 3424.44 1323.32 3421.89 1324.91L2939 1604.13C2934.11 1606.97 2930.07 1604.98 2930.07 1599.67C2930.29 1596.67 2931.22 1593.77 2932.77 1591.19C2934.32 1588.62 2936.46 1586.45 2939 1584.86Z" fill="#90CAF9"/>
<path d="M2939 1487.27L3421.89 1208.05C3426.85 1205.22 3430.82 1207.2 3430.82 1212.59C3430.61 1215.58 3429.68 1218.47 3428.13 1221.04C3426.58 1223.6 3424.44 1225.76 3421.89 1227.33L2939 1506.41C2934.11 1509.24 2930.07 1507.19 2930.07 1501.87C2930.34 1498.91 2931.28 1496.06 2932.83 1493.53C2934.38 1490.99 2936.49 1488.85 2939 1487.27Z" fill="#90CAF9"/>
<path d="M2878.06 1313.43L2839.08 1291.25C2837.26 1289.9 2835.82 1288.1 2834.9 1286.02C2833.99 1283.95 2833.62 1281.68 2833.84 1279.42V552.179C2834.22 544.842 2836.67 537.764 2840.92 531.77L2878.91 553.738C2875.04 559.605 2872.86 566.419 2872.6 573.439V1301.46C2872.33 1303.76 2872.7 1306.09 2873.66 1308.2C2874.63 1310.31 2876.14 1312.12 2878.06 1313.43Z" fill="#263238"/>
<path d="M3473.34 208.331C3469.9 208.025 3466.46 208.873 3463.56 210.741L2891.1 541.265C2886.08 544.4 2881.88 548.673 2878.84 553.738L2840.78 531.769C2843.74 527.015 2847.74 522.993 2852.47 520.005L3424.94 189.552C3427.42 187.971 3430.29 187.09 3433.23 187C3434.91 186.987 3436.57 187.401 3438.05 188.205L3473.34 208.331Z" fill="#37474F"/>
<path d="M2891.1 541.264L3463.56 210.811C3473.84 204.858 3482.13 209.677 3482.13 221.512V950.168C3481.79 956.605 3479.93 962.869 3476.7 968.449C3473.47 974.029 3468.97 978.765 3463.56 982.27L2891.17 1312.23C2880.89 1318.11 2872.53 1313.29 2872.53 1301.46V573.438C2872.89 566.997 2874.76 560.73 2877.99 555.142C2881.21 549.555 2885.7 544.801 2891.1 541.264Z" fill="#455A64"/>
<path d="M2922.84 565.006L3436.63 268.356C3445.84 263.041 3453.29 267.364 3453.29 277.994V932.381C3452.97 938.16 3451.3 943.784 3448.41 948.795C3445.52 953.807 3441.48 958.065 3436.63 961.224L2922.84 1257.31C2913.63 1262.62 2906.19 1258.3 2906.19 1247.67V593.849C2906.5 588.07 2908.17 582.446 2911.07 577.434C2913.96 572.422 2918 568.164 2922.84 565.006Z" fill="#F0F0F0"/>
<mask id="mask0_2108_1235" style="mask-type:luminance" maskUnits="userSpaceOnUse" x="2906" y="266" width="548" height="994">
<path d="M2922.84 565.006L3436.63 268.356C3445.84 263.041 3453.29 267.364 3453.29 277.994V932.381C3452.97 938.16 3451.3 943.784 3448.41 948.795C3445.52 953.807 3441.48 958.065 3436.63 961.224L2922.84 1257.31C2913.63 1262.62 2906.19 1258.3 2906.19 1247.67V593.849C2906.5 588.07 2908.17 582.446 2911.07 577.434C2913.96 572.422 2918 568.164 2922.84 565.006Z" fill="white"/>
</mask>
<g mask="url(#mask0_2108_1235)">
<path d="M3349.96 833.167C3340.94 817.402 3326.6 805.359 3309.52 799.192C3292.43 793.026 3273.71 793.136 3256.7 799.505C3256.7 799.505 3253.72 854.285 3281.79 932.948C3281.79 932.948 3404.03 1111.11 3428.41 1127.69L3462.21 1015.58C3462.21 1015.58 3372.99 869.238 3349.96 833.167Z" fill="#B16668"/>
<path d="M3050.41 871.223C3021.56 882.207 3025.89 913.743 3026.81 941.736C3027.3 958.956 3030.14 988.154 3031.98 1028.19L3040.2 1157.1L3038.36 1436.74C3132.12 1468.7 3251.38 1440.57 3351.45 1329.38C3351.45 1329.38 3345.85 971.5 3345.85 912.751C3345.85 910.058 3345.85 907.436 3345.85 904.743C3342.31 824.38 3302.41 790.009 3256.84 799.647C3242.24 802.765 3210.64 812.828 3189.73 819.348L3132.33 837.915C3132.33 837.915 3079.18 860.238 3050.41 871.223Z" fill="#90CAF9"/>
<path opacity="0.2" d="M3050.41 871.223C3021.56 882.207 3025.89 913.743 3026.81 941.736C3027.3 958.956 3030.14 988.154 3031.98 1028.19L3040.2 1157.1L3038.36 1436.74C3132.12 1468.7 3251.38 1440.57 3351.45 1329.38C3351.45 1329.38 3345.85 971.5 3345.85 912.751C3345.85 910.058 3345.85 907.436 3345.85 904.743C3342.31 824.38 3302.41 790.009 3256.84 799.647C3242.24 802.765 3210.64 812.828 3189.73 819.348L3132.33 837.915C3132.33 837.915 3079.18 860.238 3050.41 871.223Z" fill="black"/>
<path d="M3267.54 592.785C3267.54 566.919 3271.58 532.974 3297.87 520.572C3311.2 514.265 3330.19 511.643 3342.87 519.863C3355.56 528.084 3363.64 539.706 3361.37 555.864C3359.15 567.927 3353.12 578.958 3344.15 587.329C3342.6 588.522 3341.44 590.151 3340.82 592.006C3340.58 593.501 3340.7 595.031 3341.17 596.47C3344.57 612.416 3344.36 630.699 3333.52 642.888C3329.79 647.034 3325.07 650.174 3319.81 652.02C3314.55 653.865 3308.9 654.356 3303.4 653.448C3297.22 651.986 3291.45 649.132 3286.54 645.104C3281.63 641.076 3277.7 635.979 3275.05 630.203C3269.65 618.492 3267.08 605.674 3267.54 592.785Z" fill="#263238"/>
<path d="M3094.2 683.637C3094.2 683.637 3108.8 758.827 3114.61 770.236C3116.36 773.558 3118.92 776.384 3122.06 778.452C3125.19 780.521 3128.8 781.766 3132.54 782.071L3131.55 726.795L3094.2 683.637Z" fill="#263238"/>
<path d="M3112.13 565.502C3112.13 565.502 3098.59 568.833 3097.96 569.187C3091.72 571.515 3086.11 575.278 3081.59 580.171C3078.07 583.905 3075.52 588.433 3074.13 593.369C3072.75 598.306 3072.59 603.504 3073.65 608.518C3075.92 615.824 3080.05 622.416 3085.63 627.652C3081.33 632.031 3077.98 637.24 3075.78 642.96C3073.61 648.741 3073.61 655.108 3075.78 660.889C3077.29 664.253 3079.24 667.399 3081.59 670.244C3086.76 676.834 3092.85 683.283 3101.78 682.291C3108.3 681.582 3114.89 680.519 3121.41 679.669L3112.13 565.502Z" fill="#263238"/>
<path d="M3129.63 677.755C3124.18 683.07 3116.31 672.936 3109.51 666.558C3102.71 660.18 3080.59 654.935 3069.54 684.77C3058.48 714.605 3079.32 745.716 3096.75 747.417C3126.8 750.252 3131.34 726.795 3131.34 726.795L3132.33 850.245C3165.14 918.916 3300.35 892.766 3231.54 821.473V783.559C3245.32 782.359 3258.91 779.504 3272.01 775.055C3294.12 765.205 3308.08 741.322 3314.53 711.913C3325.3 664.644 3324.38 636.652 3320.76 551.398C3318.28 492.862 3213.9 474.791 3161.88 526.524C3109.86 578.257 3129.63 677.755 3129.63 677.755Z" fill="#B16668"/>
<path d="M3109.37 666.557C3105.82 663.793 3106.18 655.714 3105.97 651.817C3105.6 642.366 3105.77 632.902 3106.46 623.47C3107.38 608.588 3111.49 592.997 3108.09 578.398C3106.4 573.092 3105.89 567.481 3106.6 561.957C3107.01 559.192 3108.28 556.628 3110.25 554.639C3112.21 552.65 3114.76 551.341 3117.52 550.902C3114.26 542.375 3113.36 533.127 3114.91 524.131C3116.47 515.136 3120.42 506.727 3126.36 499.791C3132.29 492.855 3139.99 487.648 3148.63 484.72C3157.28 481.792 3166.56 481.25 3175.49 483.153C3177.88 474.987 3182.44 467.62 3188.67 461.831C3194.91 456.043 3202.6 452.048 3210.92 450.271C3220.45 448.26 3230.32 448.6 3239.69 451.263C3244.47 452.553 3248.9 454.88 3252.67 458.077C3256.44 461.273 3259.46 465.262 3261.52 469.759C3267.4 457.145 3287.74 445.806 3306.31 447.932C3321.9 449.774 3337.91 459.412 3343.23 472.027C3346.85 480.218 3348.73 489.077 3348.73 498.035C3348.73 506.993 3346.85 515.852 3343.23 524.043C3340.33 529.738 3336.23 534.738 3331.21 538.701C3326.2 542.664 3320.38 545.496 3314.17 547.004C3301.51 550.068 3288.16 547.978 3277.04 541.193C3277.01 547.894 3274.82 554.408 3270.8 559.769C3266.78 565.13 3261.14 569.054 3254.72 570.957C3245.78 573.842 3236.25 574.306 3227.08 572.304C3218.46 569.009 3210.62 563.966 3204.05 557.493C3203.47 563.547 3201.25 569.328 3197.61 574.203C3193.97 579.077 3189.06 582.858 3183.42 585.131C3177.76 587.256 3171.7 588.123 3165.67 587.67C3159.63 587.217 3153.77 585.456 3148.49 582.509C3151.12 590.939 3152.6 599.689 3152.88 608.517C3153.27 613.105 3152.57 617.72 3150.82 621.982C3149.88 624.057 3148.36 625.823 3146.46 627.077C3144.55 628.33 3142.33 629.021 3140.05 629.068C3145.16 641.979 3146.99 655.956 3145.37 669.746C3145.21 675.262 3143.04 680.529 3139.27 684.557C3127.01 695.896 3116.95 672.51 3109.37 666.557Z" fill="#263238"/>
<path d="M3112.2 572.516L3078.89 560.823C3083.64 548.563 3094.91 541.264 3104.12 544.453C3113.34 547.642 3116.88 560.256 3112.2 572.516Z" fill="#263238"/>
<path d="M3231.19 783.56C3231.19 783.56 3181.58 785.26 3164.57 779.308C3154.22 775.7 3145.67 768.236 3140.69 758.473C3143.12 768.796 3147.76 778.468 3154.3 786.82C3166.91 802.056 3231.19 798.583 3231.19 798.583V783.56Z" fill="#9A4A4D"/>
<path d="M3218.43 649.551C3218.42 652.643 3217.46 655.658 3215.69 658.191C3213.92 660.724 3211.41 662.655 3208.51 663.724C3203.05 665.212 3198.59 661.031 3198.59 654.512C3198.61 651.422 3199.57 648.411 3201.34 645.88C3203.11 643.349 3205.61 641.416 3208.51 640.338C3213.97 638.85 3218.43 643.031 3218.43 649.551Z" fill="#263238"/>
<path d="M3210.92 617.092L3186.82 632.399C3185.78 628.755 3185.9 624.875 3187.17 621.304C3188.44 617.732 3190.8 614.648 3193.91 612.485C3195.28 611.484 3196.85 610.802 3198.51 610.492C3200.18 610.181 3201.89 610.25 3203.52 610.693C3205.16 611.135 3206.67 611.94 3207.95 613.048C3209.23 614.156 3210.25 615.538 3210.92 617.092Z" fill="#263238"/>
<path d="M3226.72 716.377L3249.26 720.062C3248.62 723.653 3246.74 726.903 3243.94 729.238C3241.13 731.572 3237.6 732.84 3233.95 732.818C3227.72 731.826 3224.46 724.456 3226.72 716.377Z" fill="#9A4A4D"/>
<path d="M3308.01 612.344L3288.73 600.367C3292.63 592.926 3300.14 589.595 3305.46 592.855C3308.18 595.239 3309.94 598.532 3310.41 602.118C3310.88 605.705 3310.02 609.34 3308.01 612.344Z" fill="#263238"/>
<path d="M3302.98 629.636C3302.97 632.72 3302.02 635.729 3300.26 638.261C3298.5 640.793 3296.01 642.729 3293.13 643.81C3287.67 645.298 3283.2 641.117 3283.2 634.597C3283.24 631.51 3284.2 628.504 3285.97 625.974C3287.74 623.445 3290.24 621.51 3293.13 620.424C3298.58 618.935 3302.98 623.046 3302.98 629.636Z" fill="#263238"/>
<path d="M3249.26 632.4L3250.39 701.283L3285.83 682.787L3249.26 632.4Z" fill="#9A4A4D"/>
<path d="M3032.48 1461.05C3034.09 1479.65 3039.47 1497.74 3048.28 1514.2C3058.05 1529.52 3069.98 1543.34 3083.71 1555.23C3085.18 1556.36 3086.25 1557.92 3086.76 1559.7C3087.26 1563.38 3083.08 1565.93 3079.67 1566.78C3071.93 1567.94 3064.02 1566.38 3057.28 1562.39C3052.23 1559.44 3047.58 1555.84 3043.46 1551.69C3042.04 1550.41 3033.26 1544.18 3033.26 1542.76C3036.04 1557.68 3041.26 1572.05 3048.7 1585.28C3056.03 1596.67 3062.63 1608.5 3068.48 1620.71C3071.81 1628.72 3073.37 1639.07 3067.2 1645.16C3064.59 1647.37 3061.51 1648.94 3058.2 1649.77C3046.98 1652.93 3035.12 1653.06 3023.83 1650.15C3012.53 1647.24 3002.22 1641.38 2993.92 1633.19C2986.66 1625.28 2980.59 1616.35 2975.92 1606.68C2973.09 1601.36 2970.53 1595.9 2968.27 1590.31C2964.5 1580.57 2961.58 1570.51 2959.55 1560.26C2954.1 1535.67 2952.04 1510.66 2948.29 1486C2937.13 1407.45 2932.67 1328.1 2934.96 1248.8C2947.72 986.169 2965.65 897.373 3050.55 871.223C3074.57 889.081 3085.34 965.547 3060.04 1033.72C3047.49 1109.87 3039.25 1186.67 3035.38 1263.76C3033.82 1300.18 3027.94 1373.6 3029.64 1410.03C3030.42 1426.32 3030.42 1442.62 3032.48 1461.05Z" fill="#B16668"/>
</g>
<path d="M1328.69 2626.46L1287.66 2603C1285.84 2601.64 1284.41 2599.84 1283.49 2597.77C1282.57 2595.7 1282.2 2593.42 1282.41 2591.17V2317.83C1282.82 2310.5 1285.27 2303.43 1289.5 2297.42L1329.61 2320.95C1325.52 2326.94 1323.21 2333.97 1322.95 2341.22V2614.48C1322.71 2616.81 1323.12 2619.17 1324.14 2621.28C1325.15 2623.39 1326.72 2625.18 1328.69 2626.46Z" fill="#90CAF9"/>
<path opacity="0.55" d="M1328.69 2626.46L1287.66 2603C1285.84 2601.64 1284.41 2599.84 1283.49 2597.77C1282.57 2595.7 1282.2 2593.42 1282.41 2591.17V2317.83C1282.82 2310.5 1285.27 2303.43 1289.5 2297.42L1329.61 2320.95C1325.52 2326.94 1323.21 2333.97 1322.95 2341.22V2614.48C1322.71 2616.81 1323.12 2619.17 1324.14 2621.28C1325.15 2623.39 1326.72 2625.18 1328.69 2626.46Z" fill="white"/>
<path d="M1341.73 2309.05L1914.19 1978.52C1924.4 1972.57 1932.76 1977.39 1932.76 1989.22V2263.2C1932.39 2269.64 1930.52 2275.92 1927.28 2281.51C1924.04 2287.09 1919.53 2291.84 1914.12 2295.37L1341.73 2625.26C1331.45 2631.14 1323.16 2626.32 1323.16 2614.48V2341.15C1323.5 2334.71 1325.36 2328.45 1328.59 2322.87C1331.82 2317.29 1336.32 2312.55 1341.73 2309.05Z" fill="#90CAF9"/>
<path opacity="0.7" d="M1341.73 2309.05L1914.19 1978.52C1924.4 1972.57 1932.76 1977.39 1932.76 1989.22V2263.2C1932.39 2269.64 1930.52 2275.92 1927.28 2281.51C1924.04 2287.09 1919.53 2291.84 1914.12 2295.37L1341.73 2625.26C1331.45 2631.14 1323.16 2626.32 1323.16 2614.48V2341.15C1323.5 2334.71 1325.36 2328.45 1328.59 2322.87C1331.82 2317.29 1336.32 2312.55 1341.73 2309.05Z" fill="white"/>
<path d="M1886.27 1953.86L1926.66 1976.89C1924.61 1976.13 1922.4 1975.88 1920.23 1976.16C1918.05 1976.45 1915.98 1977.26 1914.19 1978.52L1341.73 2309.05C1336.81 2312.01 1332.66 2316.09 1329.61 2320.95L1288.79 2297.43C1291.8 2292.71 1295.88 2288.78 1300.7 2285.94L1873.16 1955.42C1875.66 1953.88 1878.52 1953.03 1881.45 1952.94C1883.11 1952.84 1884.77 1953.16 1886.27 1953.86Z" fill="#90CAF9"/>
<path opacity="0.85" d="M1886.27 1953.86L1926.66 1976.89C1924.61 1976.13 1922.4 1975.88 1920.23 1976.16C1918.05 1976.45 1915.98 1977.26 1914.19 1978.52L1341.73 2309.05C1336.81 2312.01 1332.66 2316.09 1329.61 2320.95L1288.79 2297.43C1291.8 2292.71 1295.88 2288.78 1300.7 2285.94L1873.16 1955.42C1875.66 1953.88 1878.52 1953.03 1881.45 1952.94C1883.11 1952.84 1884.77 1953.16 1886.27 1953.86Z" fill="white"/>
<path d="M1386.3 2334.28L1869.19 2055.06C1874.08 2052.22 1878.12 2054.21 1878.12 2059.59C1877.89 2062.58 1876.96 2065.47 1875.41 2068.03C1873.86 2070.59 1871.73 2072.75 1869.19 2074.33L1386.3 2353.55C1381.34 2356.39 1377.37 2354.4 1377.37 2349.09C1377.59 2346.09 1378.51 2343.18 1380.06 2340.61C1381.61 2338.04 1383.75 2335.87 1386.3 2334.28Z" fill="#90CAF9"/>
<path d="M1386.3 2529.44L1869.4 2250.51C1874.29 2247.68 1878.33 2249.73 1878.33 2255.05C1878.1 2258.03 1877.17 2260.92 1875.62 2263.48C1874.07 2266.04 1871.94 2268.2 1869.4 2269.79L1386.3 2548.72C1381.34 2551.55 1377.37 2549.5 1377.37 2544.18C1377.59 2541.19 1378.51 2538.3 1380.06 2535.74C1381.61 2533.17 1383.75 2531.02 1386.3 2529.44Z" fill="#90CAF9"/>
<path d="M1386.3 2431.86L1869.19 2152.64C1874.08 2149.81 1878.12 2151.79 1878.12 2157.11C1877.89 2160.1 1876.96 2163 1875.41 2165.57C1873.86 2168.14 1871.73 2170.32 1869.19 2171.92L1386.3 2451.14C1381.34 2453.97 1377.37 2451.99 1377.37 2446.67C1377.58 2443.67 1378.49 2440.76 1380.05 2438.19C1381.6 2435.61 1383.74 2433.44 1386.3 2431.86Z" fill="#90CAF9"/>
<path d="M1386.3 2480.62L1869.19 2201.4C1874.08 2198.56 1878.12 2200.55 1878.12 2205.86C1877.9 2208.86 1876.98 2211.76 1875.43 2214.34C1873.87 2216.91 1871.74 2219.08 1869.19 2220.67L1386.3 2499.89C1381.34 2502.73 1377.37 2500.74 1377.37 2495.43C1377.59 2492.43 1378.51 2489.52 1380.06 2486.95C1381.61 2484.38 1383.75 2482.21 1386.3 2480.62Z" fill="#90CAF9"/>
<path d="M1386.3 2383.1L1869.19 2103.81C1874.08 2100.98 1878.12 2103.03 1878.12 2108.35C1877.89 2111.33 1876.96 2114.22 1875.41 2116.78C1873.86 2119.34 1871.73 2121.5 1869.19 2123.09L1386.3 2402.38C1381.34 2405.21 1377.37 2403.16 1377.37 2397.84C1377.59 2394.85 1378.51 2391.96 1380.06 2389.4C1381.61 2386.83 1383.75 2384.68 1386.3 2383.1Z" fill="#90CAF9"/>
<path d="M1326.28 2207.99L1287.09 2186.09C1285.27 2184.74 1283.83 2182.93 1282.91 2180.86C1282 2178.79 1281.63 2176.51 1281.84 2174.26V1447.02C1282.22 1439.68 1284.68 1432.6 1288.93 1426.61L1326.92 1448.58C1323.05 1454.44 1320.87 1461.26 1320.61 1468.28V2196.3C1320.42 2198.57 1320.85 2200.86 1321.84 2202.92C1322.84 2204.98 1324.37 2206.73 1326.28 2207.99Z" fill="#263238"/>
<path d="M1921.56 1103.17C1918.13 1102.86 1914.68 1103.71 1911.78 1105.58L1339.32 1436.11C1334.31 1439.24 1330.11 1443.51 1327.06 1448.58L1289 1426.61C1291.96 1421.85 1295.96 1417.83 1300.7 1414.84L1873.16 1084.39C1875.64 1082.81 1878.51 1081.93 1881.45 1081.84C1883.13 1081.83 1884.79 1082.24 1886.27 1083.04L1921.56 1103.17Z" fill="#37474F"/>
<path d="M1339.32 1436.03L1911.78 1105.58C1921.99 1099.63 1930.35 1104.45 1930.35 1116.28V1844.94C1929.99 1851.38 1928.12 1857.64 1924.89 1863.23C1921.67 1868.82 1917.18 1873.57 1911.78 1877.11L1339.32 2207C1329.04 2212.88 1320.75 2208.13 1320.75 2196.3V1468.21C1321.1 1461.76 1322.97 1455.49 1326.19 1449.9C1329.42 1444.31 1333.91 1439.56 1339.32 1436.03Z" fill="#455A64"/>
<path d="M1368.66 1458.64L1882.37 1161.99C1891.59 1156.68 1899.03 1161 1899.03 1171.63V1825.31C1898.73 1831.09 1897.06 1836.72 1894.17 1841.73C1891.27 1846.74 1887.23 1851 1882.37 1854.15L1368.66 2150.59C1359.44 2155.9 1352 2151.58 1352 2140.95V1487.48C1352.31 1481.7 1353.98 1476.08 1356.88 1471.07C1359.77 1466.06 1363.81 1461.8 1368.66 1458.64Z" fill="#F0F0F0"/>
<mask id="mask1_2108_1235" style="mask-type:luminance" maskUnits="userSpaceOnUse" x="1352" y="1159" width="548" height="994">
<path d="M1368.66 1458.64L1882.37 1161.99C1891.59 1156.68 1899.03 1161 1899.03 1171.63V1825.31C1898.73 1831.09 1897.06 1836.72 1894.17 1841.73C1891.27 1846.74 1887.23 1851 1882.37 1854.15L1368.66 2150.59C1359.44 2155.9 1352 2151.58 1352 2140.95V1487.48C1352.31 1481.7 1353.98 1476.08 1356.88 1471.07C1359.77 1466.06 1363.81 1461.8 1368.66 1458.64Z" fill="white"/>
</mask>
<g mask="url(#mask1_2108_1235)">
<path d="M1781.17 1731.41C1741.06 1679.32 1674.87 1686.69 1674.87 1686.69C1680.71 1731.97 1691.72 1776.44 1707.69 1819.21C1707.69 1819.21 1830 1997.3 1854.38 2013.96L1888.18 1901.77C1888.18 1901.77 1807.18 1765.28 1781.17 1731.41Z" fill="#FFBDA7"/>
<path d="M1660.56 1689.24C1677.89 1683.68 1696.09 1681.27 1714.28 1682.16C1743.12 1684 1778.62 1716.67 1799.81 1750.68C1828.16 1796.18 1847.01 1828.64 1847.01 1828.64C1847.01 1828.64 1837.58 1882.07 1764.66 1905.1L1697.2 1817.09L1660.56 1689.24Z" fill="#90CAF9"/>
<path opacity="0.5" d="M1660.56 1689.24C1677.89 1683.68 1696.09 1681.27 1714.28 1682.16C1743.12 1684 1778.62 1716.67 1799.81 1750.68C1828.16 1796.18 1847.01 1828.64 1847.01 1828.64C1847.01 1828.64 1837.58 1882.07 1764.66 1905.1L1697.2 1817.09L1660.56 1689.24Z" fill="black"/>
<path d="M1474.46 1898.02L1465.04 2046.84L1472.62 2325.27C1566.38 2357.23 1685.65 2329.1 1785.71 2217.91C1785.71 2217.91 1781.6 1848.13 1768.56 1784.98C1752.9 1708.94 1715.55 1667.34 1639.87 1694.41L1565.67 1724.04L1489.34 1754.44C1489.34 1754.44 1474.46 1869.24 1474.46 1898.02Z" fill="#90CAF9"/>
<path opacity="0.4" d="M1474.46 1898.02L1465.04 2046.84L1472.62 2325.27C1566.38 2357.23 1685.65 2329.1 1785.71 2217.91C1785.71 2217.91 1781.6 1848.13 1768.56 1784.98C1752.9 1708.94 1715.55 1667.34 1639.87 1694.41L1565.67 1724.04L1489.34 1754.44C1489.34 1754.44 1474.46 1869.24 1474.46 1898.02Z" fill="black"/>
<path d="M1572.4 1483.02C1572.4 1546.09 1616.69 1585.35 1671.61 1570.68C1726.54 1556.01 1770.83 1493.08 1770.83 1430.01C1770.83 1366.94 1723.7 1366.94 1669.06 1381.61C1614.42 1396.28 1572.4 1419.95 1572.4 1483.02Z" fill="#263238"/>
<path d="M1556.38 1614.97L1539.8 1595.77L1546.53 1568.13L1532.36 1458.92C1526.6 1457.96 1520.68 1458.87 1515.47 1461.53C1510.27 1464.18 1506.05 1468.44 1503.45 1473.66C1479.71 1516.75 1535.05 1649.2 1539.8 1658.41C1541.55 1661.75 1544.11 1664.58 1547.24 1666.66C1550.38 1668.74 1553.98 1670 1557.73 1670.32L1556.38 1614.97Z" fill="#263238"/>
<path d="M1554.47 1565.93C1549.01 1571.25 1541.15 1561.11 1534.34 1554.74C1527.54 1548.36 1505.43 1543.11 1494.38 1572.95C1483.32 1602.78 1504.08 1633.97 1521.52 1635.6C1551.64 1638.43 1556.1 1614.97 1556.1 1614.97L1557.16 1743.24C1607.55 1796.75 1723.63 1770.6 1656.38 1710.01V1671.95C1670.18 1670.75 1683.78 1667.92 1696.91 1663.52C1719.02 1653.6 1732.91 1629.78 1739.43 1600.3C1750.21 1553.11 1754.32 1516.18 1745.17 1431.36C1735.11 1338.38 1638.87 1363.18 1586.71 1414.92C1534.56 1466.65 1554.47 1565.93 1554.47 1565.93Z" fill="#FFBDA7"/>
<path d="M1553.48 1574.93C1544.27 1572.52 1538.24 1557.78 1534.34 1554.74C1530.45 1551.69 1531.08 1543.89 1530.94 1540C1531.28 1530.42 1531.04 1520.84 1530.23 1511.3C1528.26 1501.25 1527.17 1491.06 1526.97 1480.82C1526.97 1459.56 1527.47 1429.94 1536.19 1410.31C1552.27 1374.1 1577.36 1364.95 1607.62 1355.25C1630.87 1348.16 1656.31 1348.87 1679.13 1340.22C1697.79 1331.86 1714.88 1320.35 1729.65 1306.21C1735.25 1301.46 1743.05 1296.5 1749.21 1300.39C1752.13 1302.67 1754.14 1305.91 1754.88 1309.54C1758.26 1320.44 1759.3 1331.94 1757.93 1343.27C1760.57 1343.46 1763.21 1343.05 1765.67 1342.07C1768.13 1341.09 1770.33 1339.56 1772.1 1337.6C1773.17 1336.32 1774.3 1334.84 1775.93 1334.84C1777.56 1334.84 1779.33 1337.46 1779.69 1339.65C1781.02 1349.17 1780.17 1358.86 1777.21 1368C1764.17 1413.64 1718.81 1441.28 1672.54 1451.91C1646.63 1459 1619.44 1459.97 1593.09 1454.74C1589.93 1454.07 1586.62 1454.65 1583.88 1456.37C1581.53 1458.16 1579.79 1460.64 1578.92 1463.46C1573.89 1476.43 1578.92 1502.93 1577.64 1520.79C1575.73 1542.55 1572.4 1560.97 1564.18 1571.25C1563.06 1572.97 1561.4 1574.26 1559.46 1574.93C1557.52 1575.6 1555.42 1575.6 1553.48 1574.93Z" fill="#263238"/>
<path d="M1529.45 1460.77L1496.22 1449C1500.9 1436.74 1512.16 1429.44 1521.38 1432.7C1530.59 1435.96 1534.2 1448.44 1529.45 1460.77Z" fill="#263238"/>
<path d="M1656.09 1671.95C1656.09 1671.95 1606.49 1673.72 1589.55 1667.7C1579.2 1664.09 1570.65 1656.63 1565.67 1646.86C1568.09 1657.18 1572.71 1666.84 1579.2 1675.21C1591.82 1690.45 1656.09 1686.97 1656.09 1686.97V1671.95Z" fill="#F0997A"/>
<path d="M1644.26 1537.3C1644.25 1540.39 1643.31 1543.4 1641.55 1545.93C1639.79 1548.46 1637.3 1550.4 1634.41 1551.48C1628.88 1552.89 1624.49 1548.78 1624.49 1542.19C1624.51 1539.1 1625.47 1536.09 1627.24 1533.56C1629.01 1531.03 1631.51 1529.1 1634.41 1528.02C1639.87 1526.6 1644.26 1530.71 1644.26 1537.3Z" fill="#263238"/>
<path d="M1628.39 1494.29L1607.12 1513.42C1605.74 1509.87 1605.47 1505.97 1606.35 1502.26C1607.24 1498.55 1609.24 1495.2 1612.09 1492.66C1613.1 1491.37 1614.41 1490.37 1615.92 1489.73C1617.42 1489.09 1619.06 1488.84 1620.68 1489C1622.31 1489.16 1623.87 1489.73 1625.21 1490.66C1626.56 1491.58 1627.65 1492.83 1628.39 1494.29Z" fill="#263238"/>
<path d="M1651.63 1604.2L1674.24 1607.96C1673.56 1611.53 1671.65 1614.76 1668.84 1617.08C1666.03 1619.4 1662.5 1620.66 1658.86 1620.64C1652.69 1619.79 1649.43 1612.28 1651.63 1604.2Z" fill="#F0997A"/>
<path d="M1734.97 1475.72L1715.69 1463.88C1719.59 1456.8 1727.1 1453.11 1732.42 1456.8C1735.02 1459.14 1736.7 1462.32 1737.17 1465.79C1737.64 1469.26 1736.86 1472.77 1734.97 1475.72Z" fill="#263238"/>
<path d="M1730.79 1510.8C1730.77 1513.89 1729.81 1516.9 1728.03 1519.43C1726.26 1521.96 1723.76 1523.9 1720.87 1524.97C1715.41 1526.46 1711.02 1522.28 1711.02 1515.76C1710.96 1512.62 1711.88 1509.54 1713.64 1506.94C1715.4 1504.33 1717.93 1502.34 1720.87 1501.23C1726.47 1500.1 1730.79 1504.21 1730.79 1510.8Z" fill="#263238"/>
<path d="M1677.64 1511.37L1678.77 1580.32L1714.21 1561.75L1677.64 1511.37Z" fill="#F0997A"/>
<path d="M1357.11 2185.81C1388.29 1853.16 1430.67 1771.87 1491.75 1763.51C1515.71 1781.37 1523.29 1857.77 1506.35 1936.99C1506.35 1936.99 1471.77 2116.36 1468.72 2180.92C1466.03 2237.61 1450.37 2307.06 1457.31 2351.71C1458.59 2359.58 1462.7 2382.54 1466.95 2387.85C1481.12 2405.28 1477.65 2413.36 1488.21 2426.97C1496.71 2437.6 1510.82 2443.98 1509.47 2448.23C1507.42 2453.33 1498.13 2459.92 1483.39 2453.12C1474.82 2448.52 1467.52 2441.88 1462.13 2433.77C1462.13 2433.77 1463.69 2455.03 1483.39 2487.35C1501.89 2518.32 1507.34 2550.63 1455.82 2544.68C1426.7 2541.35 1405.3 2533.13 1386.44 2458.01C1381.2 2437.25 1376.95 2399.54 1372.84 2372.4C1360.72 2294.09 1352.78 2231.59 1357.11 2185.81Z" fill="#FFBDA7"/>
<path d="M1492.6 1753.38C1492.6 1753.38 1430.88 1765.5 1413.66 1822.9C1399.48 1871.37 1387.72 1915.02 1372.41 2016.79C1388.49 2031.49 1408.43 2041.29 1429.89 2045.03C1451.34 2048.77 1473.42 2046.3 1493.53 2037.91C1493.53 2037.91 1526.12 1905.17 1529.38 1845.5C1532.93 1780.16 1492.6 1753.38 1492.6 1753.38Z" fill="#90CAF9"/>
<path opacity="0.5" d="M1492.6 1753.38C1492.6 1753.38 1430.88 1765.5 1413.66 1822.9C1399.48 1871.37 1387.72 1915.02 1372.41 2016.79C1388.49 2031.49 1408.43 2041.29 1429.89 2045.03C1451.34 2048.77 1473.42 2046.3 1493.53 2037.91C1493.53 2037.91 1526.12 1905.17 1529.38 1845.5C1532.93 1780.16 1492.6 1753.38 1492.6 1753.38Z" fill="black"/>
</g>
<path d="M2105.6 2171.78L2064.57 2148.32C2062.77 2146.95 2061.34 2145.15 2060.43 2143.08C2059.51 2141.01 2059.13 2138.74 2059.33 2136.48V1863.15C2059.74 1855.82 2062.19 1848.75 2066.41 1842.74L2107.23 1866.27C2103.17 1872.27 2100.88 1879.29 2100.64 1886.54V2159.8C2100.32 2162.06 2100.62 2164.36 2101.49 2166.47C2102.36 2168.57 2103.78 2170.41 2105.6 2171.78Z" fill="#90CAF9"/>
<path opacity="0.55" d="M2105.6 2171.78L2064.57 2148.32C2062.77 2146.95 2061.34 2145.15 2060.43 2143.08C2059.51 2141.01 2059.13 2138.74 2059.33 2136.48V1863.15C2059.74 1855.82 2062.19 1848.75 2066.41 1842.74L2107.23 1866.27C2103.17 1872.27 2100.88 1879.29 2100.64 1886.54V2159.8C2100.32 2162.06 2100.62 2164.36 2101.49 2166.47C2102.36 2168.57 2103.78 2170.41 2105.6 2171.78Z" fill="white"/>
<path d="M2118.71 1854.36L2691.11 1523.84C2701.38 1517.89 2709.68 1522.7 2709.68 1534.54V1808.51C2709.34 1814.95 2707.48 1821.21 2704.25 1826.79C2701.02 1832.37 2696.52 1837.11 2691.11 1840.61L2118.71 2170.57C2108.44 2176.45 2100.15 2171.63 2100.15 2159.8V1886.47C2100.49 1880.03 2102.35 1873.76 2105.58 1868.18C2108.8 1862.6 2113.31 1857.87 2118.71 1854.36Z" fill="#90CAF9"/>
<path opacity="0.7" d="M2118.71 1854.36L2691.11 1523.84C2701.38 1517.89 2709.68 1522.7 2709.68 1534.54V1808.51C2709.34 1814.95 2707.48 1821.21 2704.25 1826.79C2701.02 1832.37 2696.52 1837.11 2691.11 1840.61L2118.71 2170.57C2108.44 2176.45 2100.15 2171.63 2100.15 2159.8V1886.47C2100.49 1880.03 2102.35 1873.76 2105.58 1868.18C2108.8 1862.6 2113.31 1857.87 2118.71 1854.36Z" fill="white"/>
<path d="M2663.19 1499.32L2703.58 1522.35C2701.53 1521.58 2699.32 1521.33 2697.14 1521.62C2694.97 1521.9 2692.9 1522.71 2691.11 1523.98L2118.64 1854.36C2113.81 1857.35 2109.73 1861.43 2106.74 1866.27L2065.92 1842.74C2068.83 1837.95 2072.84 1833.92 2077.61 1830.98L2650.08 1500.45C2652.6 1498.91 2655.48 1498.06 2658.44 1497.97C2660.11 1497.99 2661.75 1498.45 2663.19 1499.32Z" fill="#90CAF9"/>
<path opacity="0.85" d="M2663.19 1499.32L2703.58 1522.35C2701.53 1521.58 2699.32 1521.33 2697.14 1521.62C2694.97 1521.9 2692.9 1522.71 2691.11 1523.98L2118.64 1854.36C2113.81 1857.35 2109.73 1861.43 2106.74 1866.27L2065.92 1842.74C2068.83 1837.95 2072.84 1833.92 2077.61 1830.98L2650.08 1500.45C2652.6 1498.91 2655.48 1498.06 2658.44 1497.97C2660.11 1497.99 2661.75 1498.45 2663.19 1499.32Z" fill="white"/>
<path d="M2163.43 1879.59L2646.39 1600.37C2651.28 1597.54 2655.25 1599.52 2655.25 1604.84C2655.04 1607.83 2654.13 1610.73 2652.59 1613.3C2651.05 1615.88 2648.93 1618.05 2646.39 1619.65L2163.43 1898.87C2158.54 1901.7 2154.57 1899.72 2154.57 1894.4C2154.79 1891.41 2155.71 1888.52 2157.25 1885.94C2158.78 1883.37 2160.9 1881.2 2163.43 1879.59Z" fill="#90CAF9"/>
<path d="M2163.43 2074.76L2646.39 1795.47C2651.28 1792.64 2655.25 1794.69 2655.25 1800.01C2655.03 1802.99 2654.12 1805.87 2652.58 1808.43C2651.04 1810.99 2648.92 1813.16 2646.39 1814.75L2163.43 2094.04C2158.54 2096.87 2154.57 2094.82 2154.57 2089.5C2154.79 2086.52 2155.71 2083.63 2157.25 2081.07C2158.78 2078.51 2160.9 2076.35 2163.43 2074.76Z" fill="#90CAF9"/>
<path d="M2163.43 1977.18L2646.39 1697.75C2651.28 1694.91 2655.25 1696.9 2655.25 1702.21C2655.03 1705.2 2654.12 1708.1 2652.58 1710.67C2651.04 1713.24 2648.92 1715.42 2646.39 1717.02L2163.43 1996.24C2158.54 1999.07 2154.57 1997.09 2154.57 1991.7C2154.82 1988.76 2155.75 1985.92 2157.29 1983.4C2158.83 1980.88 2160.93 1978.75 2163.43 1977.18Z" fill="#90CAF9"/>
<path d="M2163.43 2025.93L2646.39 1746.72C2651.28 1743.88 2655.25 1745.86 2655.25 1751.18C2655.04 1754.17 2654.13 1757.07 2652.59 1759.65C2651.05 1762.22 2648.93 1764.39 2646.39 1765.99L2163.43 2044.99C2158.54 2047.83 2154.57 2045.85 2154.57 2040.53C2154.82 2037.58 2155.75 2034.72 2157.29 2032.19C2158.83 2029.66 2160.93 2027.52 2163.43 2025.93Z" fill="#90CAF9"/>
<path d="M2163.43 1928.42L2646.39 1649.13C2651.28 1646.3 2655.25 1648.35 2655.25 1653.67C2655.03 1656.65 2654.12 1659.53 2652.58 1662.09C2651.04 1664.65 2648.92 1666.82 2646.39 1668.41L2163.43 1947.69C2158.54 1950.53 2154.57 1948.47 2154.57 1943.16C2154.79 1940.18 2155.71 1937.29 2157.25 1934.73C2158.78 1932.17 2160.9 1930.01 2163.43 1928.42Z" fill="#90CAF9"/>
<path d="M2104.82 1762.23L2065.92 1740.27C2064.1 1738.91 2062.66 1737.11 2061.74 1735.04C2060.83 1732.96 2060.46 1730.69 2060.67 1728.43V1000.98C2061.05 993.643 2063.51 986.564 2067.76 980.57L2105.75 1002.54C2101.88 1008.41 2099.7 1015.22 2099.44 1022.24V1750.26C2099.17 1752.56 2099.52 1754.88 2100.47 1756.99C2101.42 1759.1 2102.93 1760.91 2104.82 1762.23Z" fill="#263238"/>
<path d="M2700.11 657.132C2696.67 656.826 2693.23 657.674 2690.33 659.542L2117.86 990.066C2112.85 993.201 2108.65 997.474 2105.6 1002.54L2067.55 980.57C2070.51 975.815 2074.51 971.793 2079.24 968.806L2651.71 638.352C2654.19 636.772 2657.06 635.89 2660 635.801C2661.68 635.788 2663.34 636.202 2664.82 637.006L2700.11 657.132Z" fill="#37474F"/>
<path d="M2117.86 990.068L2690.26 659.543C2700.53 653.662 2708.83 658.41 2708.83 670.315V1398.97C2708.49 1405.41 2706.63 1411.67 2703.4 1417.25C2700.17 1422.83 2695.67 1427.57 2690.26 1431.07L2117.79 1760.96C2107.59 1766.91 2099.23 1762.09 2099.23 1750.26V1022.24C2099.59 1015.79 2101.47 1009.52 2104.71 1003.93C2107.94 998.342 2112.45 993.593 2117.86 990.068Z" fill="#455A64"/>
<path d="M2147.27 1012.6L2661.06 715.953C2670.27 710.638 2677.72 714.961 2677.72 725.591V1379.62C2677.4 1385.4 2675.73 1391.03 2672.84 1396.04C2669.95 1401.05 2665.91 1405.31 2661.06 1408.47L2147.27 1704.83C2138.06 1710.15 2130.62 1705.83 2130.62 1695.2V1041.52C2130.93 1035.73 2132.6 1030.09 2135.49 1025.07C2138.39 1020.05 2142.42 1015.78 2147.27 1012.6Z" fill="#F0F0F0"/>
<mask id="mask2_2108_1235" style="mask-type:luminance" maskUnits="userSpaceOnUse" x="2130" y="713" width="548" height="995">
<path d="M2147.27 1012.6L2661.06 715.953C2670.27 710.638 2677.72 714.961 2677.72 725.591V1379.62C2677.4 1385.4 2675.73 1391.03 2672.84 1396.04C2669.95 1401.05 2665.91 1405.31 2661.06 1408.47L2147.27 1704.83C2138.06 1710.15 2130.62 1705.83 2130.62 1695.2V1041.45C2130.94 1035.67 2132.61 1030.05 2135.5 1025.04C2138.4 1020.03 2142.43 1015.77 2147.27 1012.6Z" fill="white"/>
</mask>
<g mask="url(#mask2_2108_1235)">
<path d="M2577.72 1596.05C2501.68 1327.96 2500.83 1284.24 2505.37 1252.63C2574.39 1235.98 2604.58 1283.32 2623.01 1363.11C2631.86 1401.45 2657.38 1547.37 2673.18 1608.38C2687.35 1661.89 2704.5 1719.29 2725.34 1757.2C2727.03 1760.41 2729.46 1763.18 2732.43 1765.26C2735.4 1767.34 2738.82 1768.69 2742.42 1769.18C2761.76 1771.94 2767.5 1782.79 2783.24 1790.87C2795.57 1797.1 2804.5 1795.54 2804.14 1799.87C2803.23 1804.67 2800.88 1809.09 2797.4 1812.53C2793.92 1815.98 2789.47 1818.28 2784.65 1819.14C2776.9 1819.98 2769.06 1819.47 2761.48 1817.65C2770.81 1829.87 2782.23 1840.33 2795.21 1848.55C2825.54 1868.18 2834.97 1898.16 2782.46 1912.97C2761.83 1918.71 2723.42 1912.19 2677.72 1850.47C2662.49 1828.37 2649.87 1804.59 2640.08 1779.6C2614.08 1713.76 2592.89 1649.63 2577.72 1596.05Z" fill="#FFA8A7"/>
<path d="M2393.11 1283.46C2393.11 1283.46 2317.85 1310.18 2298.43 1319.32C2348.04 1378.85 2288.65 1541.27 2288.65 1541.27L2320.33 1650.69L2558.45 1567.28C2597.85 1468.07 2605.57 1423.07 2602.1 1395.85C2594.23 1334.2 2557.38 1293.73 2505.37 1252.63L2393.11 1283.46Z" fill="#90CAF9"/>
<path d="M2571.91 1217.41L2447.75 1256.39C2428.82 1262.33 2408.76 1263.74 2389.19 1260.51C2369.61 1257.27 2351.07 1249.47 2335.07 1237.74C2319.06 1226.01 2306.04 1210.69 2297.06 1193C2288.07 1175.31 2283.37 1155.75 2283.34 1135.91V1109.55C2283.34 1020.54 2345.84 931.674 2422.95 911.122L2433.37 908.358C2510.47 887.665 2572.97 943.083 2572.97 1032.09V1056.97C2572.97 1136.62 2571.91 1217.41 2571.91 1217.41Z" fill="#37474F"/>
<path d="M2331.39 948.042C2323.73 940.53 2310.91 943.365 2302.69 954.349L2317.99 969.515C2314.37 969.085 2310.7 969.803 2307.5 971.57C2301.96 974.683 2297.49 979.404 2294.68 985.11C2291.87 990.815 2290.86 997.238 2291.77 1003.53L2331.53 983.192C2331.32 982.28 2331.06 981.381 2330.75 980.499C2338.26 969.585 2338.76 955.341 2331.39 948.042Z" fill="#37474F"/>
<path d="M2518.62 977.736C2532.79 987.02 2552.63 1003.67 2550.79 1097.29C2549.23 1176.59 2527.05 1202.03 2515.93 1210.68C2504.8 1219.32 2483.33 1221.59 2462.49 1223.15V1273.18C2462.49 1273.18 2498.56 1307.34 2496.72 1329.88C2494.88 1352.41 2462.49 1370.91 2413.59 1340.93C2396.38 1329.45 2381.87 1314.36 2371.07 1296.71L2371.5 1189.7C2371.5 1189.7 2359.24 1206.71 2338.47 1191.26C2329.71 1184.31 2323.86 1174.34 2322.07 1163.29C2320.29 1152.25 2322.7 1140.94 2328.84 1131.59C2331.52 1127.42 2335.07 1123.88 2339.24 1121.21C2343.4 1118.53 2348.1 1116.78 2353 1116.07C2355.88 1115.93 2358.75 1116.39 2361.44 1117.39C2364.14 1118.4 2366.6 1119.95 2368.68 1121.93C2370.76 1123.92 2372.42 1126.31 2373.55 1128.96C2374.68 1131.6 2375.26 1134.45 2375.25 1137.33V1143.21C2375.25 1143.21 2390.42 1145.55 2391.41 1115.93C2391.98 1099.49 2411.61 1073.41 2430.81 1056.97C2463.48 1028.83 2505.08 1028.48 2518.62 977.736Z" fill="#FFA8A7"/>
<path d="M2465.82 1092.4C2465.95 1095.13 2465.23 1097.82 2463.78 1100.13C2462.32 1102.44 2460.19 1104.24 2457.67 1105.3C2452.92 1106.86 2448.89 1103.53 2448.67 1098.21C2448.54 1095.48 2449.25 1092.77 2450.71 1090.45C2452.17 1088.13 2454.3 1086.31 2456.82 1085.24C2461.5 1083.47 2465.61 1086.73 2465.82 1092.4Z" fill="#263238"/>
<path d="M2471.56 1160.36L2496.86 1162.91C2496.23 1166.91 2494.25 1170.57 2491.24 1173.28C2488.24 1175.99 2484.39 1177.58 2480.35 1177.79C2473.41 1177.09 2469.44 1169.29 2471.56 1160.36Z" fill="#F28F8F"/>
<path d="M2540.23 1049.31L2522.87 1040.03C2525.99 1033.44 2532.51 1030.18 2537.04 1032.94C2539.52 1034.79 2541.21 1037.48 2541.8 1040.51C2542.39 1043.54 2541.83 1046.67 2540.23 1049.31Z" fill="#263238"/>
<path d="M2441.23 1075.04L2458.59 1056.4C2455.4 1051.58 2448.96 1051.72 2444.42 1056.9C2442.05 1059.2 2440.47 1062.19 2439.89 1065.45C2439.32 1068.71 2439.79 1072.06 2441.23 1075.04Z" fill="#263238"/>
<path d="M2538.18 1077.59C2538.33 1080.33 2537.63 1083.05 2536.17 1085.37C2534.71 1087.69 2532.56 1089.51 2530.03 1090.56C2525.28 1092.12 2521.24 1088.79 2521.03 1083.47C2520.89 1080.73 2521.59 1078.02 2523.05 1075.7C2524.51 1073.38 2526.65 1071.56 2529.18 1070.5C2533.85 1068.66 2537.97 1071.99 2538.18 1077.59Z" fill="#263238"/>
<path d="M2496.86 1080.42L2498.21 1139.81L2525.42 1122.8L2496.86 1080.42Z" fill="#F28F8F"/>
<path d="M2462.49 1222.94C2440.52 1225.49 2395.31 1222.94 2388.22 1203.87C2390.7 1212.9 2396.33 1220.75 2404.1 1225.98C2417.63 1235.69 2462.49 1238.74 2462.49 1238.74V1222.94Z" fill="#F28F8F"/>
<path d="M2168.75 1747.78C2192.2 1491.59 2205.6 1347.24 2298.43 1319.32C2312.25 1324.35 2325.08 1354.75 2327.49 1376.79C2331.67 1414.07 2326.64 1478.41 2303.54 1511.44C2303.54 1511.44 2274.41 1664.94 2263.14 1753.31C2255.35 1814.47 2238.55 1902.55 2242.45 1952.16C2244.29 1961.12 2248.23 1969.52 2253.93 1976.68L2269.66 2002.83C2272.76 2008.32 2276.32 2013.53 2280.29 2018.42C2283.91 2022.6 2288.09 2026.22 2291.99 2030.11C2294.89 2032.95 2297.73 2037.2 2295.32 2040.6C2294.38 2041.7 2293.15 2042.51 2291.77 2042.94C2287.16 2044.69 2282.2 2045.35 2277.29 2044.88C2272.37 2044.42 2267.63 2042.83 2263.43 2040.25C2258.18 2036.99 2253.93 2032.24 2248.47 2029.41C2248.92 2038.55 2251.52 2047.46 2256.06 2055.41C2259.17 2061.86 2262.29 2068.38 2265.76 2074.76C2269.51 2081.15 2272.82 2087.78 2275.69 2094.6C2278.63 2101.44 2279.35 2109.02 2277.74 2116.29C2275.94 2121.83 2272.62 2126.76 2268.16 2130.52C2263.7 2134.28 2258.28 2136.71 2252.51 2137.55C2240.92 2139.04 2229.16 2136.72 2218.99 2130.96C2184.05 2112.89 2172.36 2076.6 2167.97 2040.18C2163.7 2009.88 2161.33 1979.35 2160.88 1948.76C2162.23 1867.83 2164.21 1797.67 2168.75 1747.78Z" fill="#FFA8A7"/>
<path d="M2371.36 1289.34C2356.23 1292.57 2341.83 1298.53 2328.84 1306.91C2328.84 1306.91 2362.29 1371.55 2419.69 1380.9C2477.09 1390.25 2481.2 1351.63 2481.2 1351.63C2445.27 1353.12 2408.99 1337.53 2371.36 1289.34Z" fill="#455A64"/>
<path d="M2462.49 1263.4V1273.18C2486.87 1304.93 2494.31 1332.35 2480.85 1351.63C2480.85 1351.63 2521.03 1365.31 2528.11 1335.83C2535.2 1306.35 2484.18 1258.58 2484.18 1258.58C2476.75 1259.12 2469.45 1260.74 2462.49 1263.4Z" fill="#455A64"/>
</g>
<path d="M1939.07 494.564L1896.55 519.155C1896.77 517.273 1896.89 515.38 1896.9 513.486V501.226C1896.9 479.257 1881.52 470.398 1862.53 481.312C1854.33 486.333 1847.31 493.08 1841.98 501.084C1838.93 473.446 1817.25 463.241 1791.03 478.406C1776.03 488.147 1763.56 501.295 1754.62 516.776C1745.68 532.257 1740.52 549.633 1739.58 567.486V585.912C1739.4 593.234 1740.87 600.501 1743.9 607.172L1708.47 627.582C1702.92 631.215 1698.31 636.092 1694.98 641.826C1691.66 647.56 1689.73 653.991 1689.33 660.606C1689.33 672.795 1697.91 677.756 1708.47 671.661L1939.07 538.643C1944.6 535.003 1949.2 530.121 1952.51 524.388C1955.82 518.655 1957.74 512.228 1958.13 505.619C1958.2 493.43 1949.7 488.54 1939.07 494.564Z" fill="#EBEBEB"/>
<path d="M1658.01 381.601L1634.34 390.601V338.939C1634.34 297.978 1601.67 288.127 1566.23 308.608C1530.8 329.159 1501.96 378.979 1501.96 419.94V427.452C1496.96 425.888 1491.68 425.49 1486.51 426.288C1481.33 427.087 1476.41 429.061 1472.12 432.058C1458.67 440.831 1447.47 452.655 1439.44 466.57C1431.41 480.484 1426.78 496.097 1425.92 512.138V515.54L1393.39 534.39C1384.52 540.166 1377.15 547.95 1371.85 557.111C1366.56 566.271 1363.5 576.551 1362.92 587.116C1362.92 606.533 1376.59 614.399 1393.39 604.691L1658.01 451.901C1666.86 446.122 1674.23 438.335 1679.51 429.174C1684.8 420.013 1687.84 409.736 1688.41 399.176C1688.41 379.617 1674.8 371.892 1658.01 381.601Z" fill="#EBEBEB"/>
<path d="M3134.53 1860.74C3124.53 1852.52 3109.15 1850.82 3090.73 1857.69C3053.81 1871.37 3018.52 1913.96 3011.85 1952.72C3008.52 1972.14 3013.06 1986.95 3022.98 1995.25L3700.12 2602.01C3713.86 2614.98 3736.12 2618.17 3763.19 2608.17C3814.78 2589.04 3864.17 2529.58 3873.39 2475.3C3878.28 2446.95 3871.05 2425.69 3855.67 2414.42L3134.53 1860.74Z" fill="#90CAF9"/>
<path opacity="0.15" d="M3117.56 1960.01C3148.34 1922.9 3155.92 1878.39 3134.47 1860.6C3113.02 1842.81 3070.68 1858.47 3039.89 1895.58C3009.1 1932.69 3001.53 1977.2 3022.98 1994.99C3044.42 2012.78 3086.77 1997.12 3117.56 1960.01Z" fill="black"/>
<path d="M2879.54 1714.12C2867.64 1719.26 2857.11 1727.15 2848.83 1737.14C2840.56 1747.13 2834.76 1758.93 2831.92 1771.59C2830.65 1776.07 2830.6 1780.81 2831.77 1785.32C2832.94 1789.83 2835.29 1793.94 2838.58 1797.24L3045.02 1968.53C3048.86 1971.17 3053.33 1972.75 3057.98 1973.08C3062.62 1973.42 3067.28 1972.51 3071.45 1970.44C3083.37 1965.29 3093.9 1957.41 3102.18 1947.42C3110.47 1937.43 3116.28 1925.63 3119.15 1912.97C3120.42 1908.47 3120.47 1903.71 3119.28 1899.19C3118.1 1894.67 3115.73 1890.54 3112.41 1887.24L2906.05 1716.03C2902.2 1713.38 2897.72 1711.8 2893.06 1711.47C2888.4 1711.13 2883.73 1712.04 2879.54 1714.12Z" fill="#263238"/>
<path opacity="0.1" d="M3099.52 1978.17L3798.55 2588.33C3787.67 2596.41 3775.75 2602.99 3763.12 2607.89C3736.05 2617.89 3713.51 2614.98 3699.97 2601.66L3023.33 1995.39C3033.4 2003.68 3048.63 2005.24 3067.13 1998.44C3078.99 1993.56 3089.95 1986.71 3099.52 1978.17Z" fill="black"/>
<path d="M3241.53 1052.86C3241.53 1045.77 3240.97 1038.68 3240.4 1031.6C3239.83 1024.51 3239.55 1017.78 3238.84 1010.97C3238.84 1006.37 3237.99 1001.9 3237.42 997.296C3236.22 985.461 3234.52 973.697 3232.53 962.571C3231.68 957.468 3230.76 952.295 3229.77 947.192C3228.78 942.09 3227.79 937.555 3226.79 933.019C3223.82 920.121 3220.63 907.507 3217.01 895.389C3215.1 889.648 3213.33 883.908 3211.42 878.31C3211.04 877.469 3210.75 876.59 3210.56 875.688C3208.51 870.089 3206.53 864.703 3204.4 859.388C3202.27 854.073 3199.58 847.199 3196.75 841.388C3194.76 837.065 3192.92 832.884 3190.65 828.703C3189.37 825.57 3187.85 822.538 3186.12 819.632C3184.36 815.899 3182.42 812.257 3180.3 808.718C3179.89 807.882 3179.42 807.077 3178.89 806.309C3177.19 803.19 3175.2 800.001 3173.36 796.883C3171.52 793.765 3170.74 792.915 3169.53 790.93C3160.61 776.802 3150.54 763.434 3139.41 750.961C3137.5 748.835 3135.59 746.709 3133.89 744.654L3129.14 739.693C3127.23 737.638 3125.1 735.725 3122.97 733.599C3117.26 727.808 3111.2 722.365 3104.83 717.299C3101.85 714.748 3098.74 712.339 3095.55 710.213C3092.36 708.087 3089.31 705.536 3085.98 703.126C3080.98 699.453 3075.78 696.07 3070.39 692.992L3066.21 690.37L3065.36 689.661L2967.63 632.259L2966.21 631.408C2918.57 604.869 2864.77 591.352 2810.24 592.219C2729.09 592.219 2637.6 618.794 2540.59 674.637C2207.51 867.042 1937.44 1334.84 1937.44 1719.57C1937.44 1911.48 2004.55 2046.41 2113.05 2109.34L2114.04 2109.84L2211.9 2167.1L2213.04 2167.74L2214.46 2168.52L2216.02 2169.37C2220.69 2172.06 2225.37 2174.54 2230.19 2176.88C2235.01 2179.22 2242.24 2182.48 2248.33 2184.82C2253.76 2187.2 2259.32 2189.26 2264.98 2190.98C2267.86 2192.02 2270.8 2192.89 2273.77 2193.6C2276.91 2194.79 2280.13 2195.74 2283.41 2196.44C2286.63 2197.41 2289.89 2198.21 2293.19 2198.85C2295.51 2199.53 2297.88 2200.05 2300.28 2200.41C2304.46 2201.26 2308.99 2202.18 2313.39 2202.75C2314.35 2203.05 2315.35 2203.22 2316.36 2203.24C2321.54 2204.09 2326.85 2204.87 2332.02 2205.37C2421.88 2214.79 2526.34 2189.42 2638.17 2124.93C2971.25 1932.6 3241.6 1464.59 3241.6 1080C3242.03 1071.07 3241.82 1062 3241.53 1052.86ZM2142.24 1960.66C2128.29 1909.21 2121.43 1856.09 2121.83 1802.77C2121.83 1438.23 2388.58 976.106 2704.29 793.836C2750.39 766.538 2800.14 745.945 2852.05 732.678C2876.93 726.523 2902.45 723.312 2928.09 723.111C2941 723.051 2953.89 724.047 2966.64 726.087H2967.7C3032.33 802.553 3041.83 925.011 3041.83 990.492C3041.83 1355.03 2775.37 1817.16 2459.51 1999.36C2379.15 2045.7 2301.91 2070.22 2235.65 2070.22C2221.89 2070.32 2208.19 2068.58 2194.9 2065.05C2170.39 2034.22 2152.47 1998.7 2142.24 1960.66Z" fill="#90CAF9"/>
<path opacity="0.15" d="M3155.29 1054.49C3155.29 1248.17 3080.03 1469.27 2962.1 1661.46C2956.58 1670.61 2950.91 1679.53 2945.1 1688.53C2940.21 1696.26 2935.18 1703.98 2929.93 1711.64C2918.88 1728.08 2907.68 1744.31 2895.91 1760.18C2890.39 1767.76 2884.79 1775.28 2879.05 1782.65C2873.31 1790.02 2866.58 1798.88 2860.2 1806.88C2848.08 1822.19 2835.54 1837.07 2822.78 1851.6C2814.42 1861.31 2805.84 1870.81 2797.2 1879.95C2727.75 1954.64 2651.85 2017.71 2572.9 2063.21C2557.81 2071.93 2542.93 2079.86 2528.11 2087.02C2480.1 2111.41 2428.07 2126.94 2374.55 2132.87C2365.9 2133.72 2357.4 2134.08 2349.17 2134.08C2344.78 2134.08 2340.6 2134.08 2336.42 2133.72H2335.92C2327.9 2133.38 2319.9 2132.55 2311.97 2131.24C2308.07 2130.68 2304.24 2130.04 2300.56 2129.19C2296.86 2128.47 2293.19 2127.57 2289.58 2126.49C2252.18 2117 2218.95 2095.49 2194.97 2065.26C2208.24 2068.79 2221.92 2070.53 2235.65 2070.44C2301.91 2070.44 2379.15 2045.99 2459.51 1999.57C2775.37 1817.37 3041.83 1355.25 3041.83 990.706C3041.83 925.225 3032.33 802.766 2967.7 726.301H2966.64C3048.99 739.482 3095.83 795.467 3122.19 860.169C3129.67 878.566 3135.69 897.522 3140.19 916.863C3140.19 917.926 3140.69 918.989 3140.9 920.052C3141.75 923.524 3142.6 927.138 3143.24 930.54C3143.88 933.942 3144.59 937.627 3145.23 940.745C3145.44 941.609 3145.6 942.485 3145.72 943.367C3146.43 947.052 3147.07 950.666 3147.64 954.21C3149.69 967.745 3151.39 980.927 3152.52 993.541C3152.52 997.226 3153.16 1000.63 3153.38 1004.17C3153.59 1007.71 3153.8 1009.49 3153.94 1012.04C3153.94 1013.1 3153.94 1014.23 3153.94 1015.3C3153.94 1018.13 3154.3 1020.9 3154.44 1023.66C3154.44 1024.44 3154.44 1025.15 3154.44 1026C3154.44 1029.47 3154.44 1033.08 3154.79 1036.27C3155.22 1042.37 3155.29 1048.6 3155.29 1054.49Z" fill="black"/>
<path opacity="0.1" d="M2203.54 2162.64L2112.97 2109.41C2004.48 2045.99 1937.37 1910.99 1937.37 1719.64C1937.37 1548 1991.15 1359.99 2080.16 1187.36L2183.27 1246.68C2094.19 1419.31 2035.16 1605.41 2035.16 1776.98C2035.16 1964.56 2099.01 2097.65 2203.54 2162.64Z" fill="black"/>
<path opacity="0.4" d="M3066.28 690.369L3065.43 689.66L2967.77 632.258H2967.42L2966.07 631.407C2918.46 604.901 2864.72 591.386 2810.24 592.218C2729.16 592.218 2637.6 618.722 2540.59 674.636C2356.33 780.937 2190.72 972.278 2079.95 1187.43L2182.57 1247.81L2180.37 1252.06C2291.28 1039.46 2455.76 847.198 2638.38 732.11C2803.72 627.935 2960.62 626.518 3070.18 693.133L3066.28 690.369Z" fill="white"/>
<path opacity="0.3" d="M3102.78 1023.59C3102.78 1388.13 2836.03 1850.25 2520.32 2032.52C2474.22 2059.82 2424.47 2080.41 2372.56 2093.68C2347.68 2099.84 2322.15 2103.05 2296.52 2103.25C2270.19 2103.58 2244.01 2099.12 2219.28 2090.07C2180.09 2057.18 2156.42 2009.56 2142.24 1960.66C2128.29 1909.21 2121.43 1856.09 2121.83 1802.77C2121.83 1438.23 2388.58 976.106 2704.29 793.836C2750.39 766.538 2800.14 745.945 2852.05 732.678C2876.93 726.523 2902.45 723.312 2928.09 723.111C2954.42 722.783 2980.59 727.225 3005.33 736.221C3044.59 769.103 3068.26 816.797 3082.44 865.695C3096.33 917.163 3103.18 970.279 3102.78 1023.59Z" fill="white"/>
<mask id="mask3_2108_1235" style="mask-type:luminance" maskUnits="userSpaceOnUse" x="2121" y="723" width="921" height="1348">
<path d="M2459.51 1999.71C2775.37 1817.51 3041.83 1355.39 3041.83 990.845C3041.83 925.364 3032.33 802.906 2967.7 726.44H2966.64C2953.89 724.4 2941 723.404 2928.09 723.463C2902.45 723.665 2876.93 726.876 2852.05 733.031C2800.21 746.199 2750.51 766.672 2704.43 793.835C2388.72 976.105 2121.97 1438.23 2121.97 1802.77C2121.57 1856.08 2128.44 1909.2 2142.38 1960.66C2152.78 1999.54 2171.31 2035.77 2196.74 2066.96C2209.63 2069.21 2222.7 2070.3 2235.79 2070.22C2301.91 2070.51 2379.15 2046.06 2459.51 1999.71Z" fill="white"/>
</mask>
<g mask="url(#mask3_2108_1235)">
<path d="M2953.25 495.556C2948.26 495.163 2943.29 496.407 2939.07 499.1L2097.88 984.681C2090.54 989.288 2084.37 995.549 2079.88 1002.96L2024.11 970.72C2028.41 963.71 2034.28 957.792 2041.26 953.429L2882.17 467.989C2885.82 465.665 2890.03 464.367 2894.36 464.233C2896.83 464.213 2899.27 464.823 2901.44 466.005L2953.25 495.556Z" fill="#37474F"/>
<path d="M2097.95 984.612L2938.86 499.172C2953.88 490.455 2966.14 497.471 2966.14 514.904V1585C2965.62 1594.45 2962.88 1603.66 2958.14 1611.86C2953.4 1620.06 2946.79 1627.02 2938.86 1632.2L2097.95 2117.14C2082.86 2125.79 2070.67 2118.77 2070.67 2101.34V1031.6C2071.22 1022.18 2073.97 1013.01 2078.71 1004.85C2083.45 996.692 2090.04 989.758 2097.95 984.612Z" fill="#455A64"/>
<path d="M2141.11 1017.78L2895.77 582.016C2909.24 574.22 2920.22 580.527 2920.22 596.189V1556.86C2919.79 1565.38 2917.35 1573.67 2913.1 1581.06C2908.85 1588.45 2902.91 1594.73 2895.77 1599.38L2141.04 2034.37C2127.5 2042.16 2116.52 2035.86 2116.52 2020.19V1059.94C2117.03 1051.48 2119.53 1043.26 2123.8 1035.94C2128.07 1028.61 2134 1022.39 2141.11 1017.78Z" fill="#F0F0F0"/>
<mask id="mask4_2108_1235" style="mask-type:luminance" maskUnits="userSpaceOnUse" x="2116" y="578" width="805" height="1460">
<path d="M2141.11 1017.78L2895.77 582.016C2909.24 574.22 2920.22 580.527 2920.22 596.189V1556.86C2919.79 1565.38 2917.35 1573.67 2913.1 1581.06C2908.85 1588.45 2902.91 1594.73 2895.77 1599.38L2141.04 2034.37C2127.5 2042.16 2116.52 2035.86 2116.52 2020.19V1059.94C2117.03 1051.48 2119.53 1043.26 2123.8 1035.94C2128.07 1028.61 2134 1022.39 2141.11 1017.78Z" fill="white"/>
</mask>
<g mask="url(#mask4_2108_1235)">
<path d="M2773.39 1874.92C2661.7 1481.11 2660.49 1416.62 2667.09 1370.48C2768.5 1346.03 2812.65 1415.48 2839.86 1532.77C2852.97 1589.46 2890.39 1803.62 2913.63 1893.06C2934.04 1971.65 2959.62 2056.05 2990.17 2112.18C2992.67 2116.87 2996.24 2120.91 3000.6 2123.95C3004.97 2127 3009.99 2128.96 3015.26 2129.68C3043.6 2133.72 3052.11 2149.74 3075.28 2161.5C3093.42 2170.79 3106.82 2168.59 3105.97 2174.83C3104.63 2181.91 3101.17 2188.42 3096.04 2193.48C3090.91 2198.55 3084.36 2201.93 3077.26 2203.17C3067.56 2204.87 3060.04 2203.17 3043.32 2200.9C3057.01 2218.9 3073.81 2234.31 3092.93 2246.4C3137.43 2275.24 3151.32 2319.61 3074.15 2341.01C3043.89 2349.37 2987.4 2339.8 2920.36 2249.24C2898.01 2216.79 2879.47 2181.88 2865.09 2145.2C2826.82 2047.76 2795.78 1953.58 2773.39 1874.92Z" fill="#FFA8A7"/>
<path d="M2502.32 1415.63C2502.32 1415.63 2391.77 1454.89 2363.14 1468.35C2435.56 1555.73 2348.96 1794.34 2348.96 1794.34L2395.52 1955.14C2345.42 2042.59 2738.16 1880.23 2745.32 1832.54C2803.15 1686.34 2814.42 1620.72 2809.1 1580.75C2797.62 1490.18 2743.48 1430.72 2667.37 1370.34L2502.32 1415.63Z" fill="#90CAF9"/>
<path d="M2395.38 1955.14C2489.78 1952.65 2702.59 1871.16 2745.18 1832.54C2803.01 1686.34 2814.28 1620.71 2808.96 1580.74" fill="#90CAF9"/>
<path d="M2764.88 1318.54L2582.54 1375.8C2554.72 1384.54 2525.23 1386.61 2496.46 1381.84C2467.69 1377.07 2440.45 1365.6 2416.93 1348.35C2393.42 1331.1 2374.29 1308.56 2361.11 1282.55C2347.92 1256.54 2341.04 1227.79 2341.03 1198.63V1160.57C2341.03 1029.82 2432.8 899.215 2546.04 868.884L2561.35 864.774C2674.74 834.372 2766.44 915.798 2766.44 1046.62V1083.12C2766.44 1199.9 2764.88 1318.54 2764.88 1318.54Z" fill="#37474F"/>
<path d="M2411.54 922.885C2400.41 911.901 2381.49 915.799 2369.37 932.169L2391.91 954.421C2386.57 953.853 2381.18 954.915 2376.46 957.468C2368.31 962.039 2361.74 968.981 2357.62 977.373C2353.51 985.765 2352.05 995.21 2353.43 1004.45L2411.82 974.618C2411.51 973.245 2411.11 971.896 2410.62 970.579C2421.74 954.563 2422.38 933.586 2411.54 922.885Z" fill="#37474F"/>
<path d="M2686.57 966.611C2707.83 980.147 2736.61 1004.6 2733.84 1142.15C2731.57 1258.65 2698.98 1296.07 2682.68 1308.69C2666.38 1321.3 2634.77 1324.7 2604.15 1327.04V1400.53C2604.15 1400.53 2657.09 1450.78 2654.47 1483.37C2651.85 1515.97 2604.15 1543.61 2532.37 1499.6C2507.16 1482.71 2485.91 1460.57 2470.07 1434.69L2470.71 1277.43C2470.71 1277.43 2452.71 1302.52 2422.17 1279.84C2409.29 1269.62 2400.69 1254.96 2398.07 1238.73C2395.45 1222.49 2398.99 1205.87 2407.99 1192.11C2411.92 1186 2417.12 1180.8 2423.23 1176.88C2429.35 1172.95 2436.23 1170.39 2443.43 1169.36C2447.67 1169.11 2451.93 1169.73 2455.92 1171.2C2459.91 1172.68 2463.55 1174.96 2466.61 1177.91C2469.68 1180.86 2472.1 1184.41 2473.72 1188.35C2475.34 1192.28 2476.12 1196.5 2476.03 1200.76V1209.4C2476.03 1209.4 2498.35 1212.87 2499.84 1169.36C2500.69 1145.2 2529.53 1107 2557.74 1082.76C2605.78 1041.59 2666.73 1041.09 2686.57 966.611Z" fill="#FFA8A7"/>
<path d="M2609.04 1134.92C2609.25 1138.94 2608.2 1142.93 2606.06 1146.34C2603.92 1149.75 2600.78 1152.42 2597.07 1153.98C2589.98 1156.25 2584.17 1151.36 2583.82 1143.07C2583.64 1139.06 2584.69 1135.1 2586.83 1131.7C2588.97 1128.31 2592.1 1125.65 2595.79 1124.08C2602.74 1121.81 2608.69 1126.7 2609.04 1134.92Z" fill="#263238"/>
<path d="M2617.48 1234.84L2654.61 1238.6C2651.49 1251.71 2640.44 1261.49 2630.45 1260.43C2620.45 1259.36 2614.36 1247.95 2617.48 1234.84Z" fill="#F28F8F"/>
<path d="M2718.61 1071.71L2693.09 1058.1C2697.77 1048.39 2707.27 1043.93 2714.35 1047.4C2721.44 1050.87 2723 1062 2718.61 1071.71Z" fill="#263238"/>
<path d="M2572.9 1109.55L2598.41 1082.27C2593.74 1075.18 2584.24 1075.18 2577.15 1082.9C2573.74 1086.34 2571.5 1090.76 2570.73 1095.54C2569.97 1100.32 2570.73 1105.22 2572.9 1109.55Z" fill="#263238"/>
<path d="M2715.35 1113.23C2715.55 1117.26 2714.5 1121.24 2712.36 1124.65C2710.22 1128.06 2707.08 1130.73 2703.37 1132.3C2696.28 1134.49 2690.47 1129.67 2690.12 1121.38C2689.94 1117.37 2690.99 1113.41 2693.13 1110.01C2695.27 1106.62 2698.4 1103.96 2702.09 1102.39C2709.04 1100.12 2714.99 1105.01 2715.35 1113.23Z" fill="#263238"/>
<path d="M2654.61 1117.42L2656.67 1204.65L2696.64 1179.64L2654.61 1117.42Z" fill="#F28F8F"/>
<path d="M2604.15 1327.04C2571.84 1330.8 2505.44 1326.55 2495.09 1299.05C2498.75 1312.3 2507.01 1323.81 2518.41 1331.51C2538.25 1345.68 2604.15 1350.29 2604.15 1350.29V1327.04Z" fill="#F28F8F"/>
<path d="M2172.93 2097.72C2207.44 1721.35 2227.07 1509.52 2363.42 1468.35C2383.76 1475.44 2402.61 1520.65 2405.94 1552.75C2412.03 1607.46 2404.66 1702.07 2370.51 1750.76C2370.51 1750.76 2327.99 1976.25 2311.19 2106.01C2299.71 2195.87 2275.05 2325.35 2280.79 2398.2C2281.92 2411.95 2290.71 2422.65 2297.65 2434.2L2320.76 2472.54C2325.32 2480.62 2330.56 2488.3 2336.42 2495.5C2341.66 2501.66 2347.83 2506.98 2353.57 2512.65C2357.82 2516.83 2362 2523.35 2358.46 2528.1C2357.1 2529.71 2355.3 2530.89 2353.29 2531.5C2346.46 2534.11 2339.13 2535.12 2331.85 2534.44C2324.58 2533.77 2317.56 2531.43 2311.33 2527.6C2303.61 2522.78 2297.16 2515.77 2289.29 2511.66C2289.96 2525.07 2293.8 2538.14 2300.49 2549.78C2305.02 2559.35 2309.56 2568.92 2314.66 2578.13C2320.29 2587.42 2325.28 2597.08 2329.62 2607.04C2333.92 2617.12 2334.99 2628.29 2332.66 2639C2329.96 2647.11 2325.05 2654.3 2318.49 2659.78C2311.94 2665.26 2303.99 2668.82 2295.53 2670.04C2278.49 2672.17 2261.21 2668.74 2246.28 2660.26C2195.04 2633.76 2177.89 2580.47 2171.37 2526.96C2165.22 2482.45 2161.89 2437.6 2161.38 2392.67C2163.08 2274.25 2165.84 2170.93 2172.93 2097.72Z" fill="#FFA8A7"/>
<path d="M2470.07 1424.27C2447.76 1429 2426.48 1437.74 2407.29 1450.07C2407.29 1450.07 2456.47 1545.03 2540.8 1558.78C2625.13 1572.53 2631.08 1515.76 2631.08 1515.76C2578.86 1517.96 2525.49 1495.14 2470.07 1424.27Z" fill="#455A64"/>
<path d="M2604.16 1385.93V1400.11C2639.94 1446.74 2650.93 1486.99 2631.08 1515.34C2631.08 1515.34 2690.19 1535.39 2700.53 1492.16C2710.88 1448.93 2636.05 1378.78 2636.05 1378.78C2625.12 1379.59 2614.38 1382 2604.16 1385.93Z" fill="#455A64"/>
</g>
</g>
<path d="M3580.28 1726.09C3629.39 1720.64 3648.24 1735.02 3666.52 1775.7C3683.96 1814.54 3737.39 1931.61 3734.7 1958.89C3732.01 1986.18 3620.32 2102.33 3620.32 2102.33L3588.5 2063.63L3657.52 1947.55L3602.6 1830.41L3580.28 1726.09Z" fill="#FFA8A7"/>
<path d="M3481.63 1687.97L3490.84 1784.35L3576.95 1778.96L3570.07 1672.09L3481.63 1687.97Z" fill="#FFA8A7"/>
<path d="M3371.29 1502.72C3370.55 1498.19 3370.55 1493.57 3371.29 1489.04C3372.37 1483.18 3374.71 1477.63 3378.15 1472.76C3381.59 1467.89 3386.04 1463.83 3391.2 1460.85C3396.37 1457.87 3402.11 1456.05 3408.05 1455.51C3413.98 1454.97 3419.96 1455.72 3425.58 1457.72C3423.91 1448.87 3425.26 1439.72 3429.41 1431.73C3433.56 1423.74 3440.27 1417.37 3448.47 1413.64C3454.84 1411.22 3461.63 1410.12 3468.43 1410.39C3475.24 1410.65 3481.92 1412.29 3488.08 1415.2C3495.48 1417.8 3501.63 1423.08 3505.3 1430.01C3509.66 1422.71 3516.07 1416.85 3523.72 1413.15C3531.38 1409.45 3539.96 1408.09 3548.39 1409.22C3556.82 1410.35 3564.73 1413.93 3571.14 1419.52C3577.55 1425.1 3582.18 1432.45 3584.46 1440.64C3597.57 1437.74 3616.07 1443.55 3621.95 1456.59C3628.61 1471.4 3620.46 1489.75 3623.51 1505.27C3625.49 1515.34 3629.82 1524.76 3631.66 1534.97C3633.54 1546.33 3634.6 1557.82 3634.85 1569.34C3636.76 1616.89 3526.28 1647.79 3528.55 1680.46L3469.8 1608.81C3469.8 1605.83 3461.44 1598.39 3459.59 1595.91C3456.05 1591.16 3452.93 1586.13 3449.67 1581.17C3439.55 1566.69 3425.48 1555.42 3409.14 1548.71C3397.59 1543.4 3387.59 1535.23 3380.08 1524.97C3375.5 1518.32 3372.5 1510.71 3371.29 1502.72Z" fill="#263238"/>
<path d="M3417.71 1582.23C3417.71 1582.23 3398.65 1610.58 3401.13 1613.56C3405.59 1616.48 3410.53 1618.59 3415.73 1619.79L3417.71 1582.23Z" fill="#F28F8F"/>
<path d="M3475.96 1492.23C3457.47 1501.66 3425.43 1519.02 3417.14 1586.2C3408.71 1655.08 3424.23 1679.04 3433.87 1688.04C3440.32 1694.13 3473.62 1696.33 3490.99 1691.08C3512.67 1684.42 3559.8 1661.6 3581.84 1626.03C3607.78 1584.15 3613.16 1528.37 3583.18 1506.55C3541.02 1476 3491.7 1484.51 3475.96 1492.23Z" fill="#FFA8A7"/>
<path d="M3435.64 1689.53C3443.43 1693.78 3465.62 1695.55 3482.13 1693.14L3481.56 1680.81C3474.48 1683.85 3467.12 1686.23 3459.59 1687.9C3451.73 1689.63 3443.66 1690.18 3435.64 1689.53Z" fill="#F28F8F"/>
<path d="M3467.88 1490.39C3460.01 1493.26 3452.7 1497.48 3446.27 1502.86C3443.05 1505.54 3440.44 1508.87 3438.62 1512.64C3437.22 1516.15 3436.68 1519.94 3437.06 1523.7C3437.61 1528.87 3439.5 1533.8 3442.54 1538.02C3445.59 1542.23 3449.68 1545.58 3454.42 1547.72C3451.9 1551.11 3450.18 1555.02 3449.37 1559.17C3448.56 1563.31 3448.69 1567.58 3449.74 1571.67C3453.13 1581.19 3459 1589.63 3466.75 1596.12C3467.14 1596.57 3467.62 1596.94 3468.17 1597.19C3468.71 1597.28 3469.27 1597.24 3469.8 1597.08C3470.33 1596.92 3470.81 1596.64 3471.21 1596.26C3482.84 1588.47 3490.07 1575 3506.65 1580.46C3528.26 1587.55 3527.2 1614.19 3510.26 1630.78C3504.22 1636.89 3496.21 1640.68 3487.66 1641.48C3483.31 1641.58 3479.08 1640.09 3475.75 1637.3C3475.75 1637.3 3476.39 1672.02 3506.58 1685.84C3527.63 1691.97 3549.95 1692.24 3571.14 1686.62C3582.55 1672.09 3601.68 1653.6 3617.41 1637.01C3669.22 1582.52 3672.19 1503.36 3595.73 1478.34C3593.11 1477.49 3590.48 1476.71 3587.79 1476C3563.2 1469.59 3537.45 1469.03 3512.6 1474.37C3500.36 1477.01 3488.46 1481.08 3477.17 1486.49L3467.88 1490.39Z" fill="#263238"/>
<path d="M3465.4 1620.43C3463.4 1619.76 3461.55 1618.68 3459.96 1617.28C3458.38 1615.88 3457.09 1614.17 3456.18 1612.26C3455.27 1610.35 3454.75 1608.28 3454.65 1606.16C3454.56 1604.05 3454.89 1601.93 3455.62 1599.95C3457.12 1595.92 3460.15 1592.65 3464.06 1590.84C3467.96 1589.03 3472.42 1588.84 3476.46 1590.31L3465.4 1620.43Z" fill="#263238"/>
<path d="M3473.91 2942.1C3477 2951.55 3479.6 2961.16 3481.7 2970.88C3483.9 2981.58 3487.02 2999.22 3483.26 3007.44C3479.51 3015.66 3464.91 3020.7 3442.3 3020.48C3427.7 3020.48 3404.88 3030.33 3389.22 3039.05C3373.56 3047.77 3339.61 3051.66 3322.46 3049.61C3302.34 3047.27 3281.5 3035.44 3278.24 3027.29C3274.98 3019.14 3272.29 3007.51 3326.72 2990.08C3327.21 2990.08 3392.62 2968.82 3415.58 2943.31L3473.91 2942.1Z" fill="#263238"/>
<path d="M3473.91 2943.59L3463.49 2942.31L3415.58 2943.31C3392.62 2968.61 3327.21 2989.94 3326.72 2990.08L3318 2992.98C3308.57 3000.64 3316.58 3013.61 3339.26 3015.59C3361.94 3017.58 3431.74 2994.33 3447.26 2986.61C3455.39 2982.78 3462.23 2976.68 3466.96 2969.05C3471.69 2961.41 3474.1 2952.57 3473.91 2943.59Z" fill="#FFA8A7"/>
<path d="M3473.91 2923.04C3473.91 2923.04 3473.91 2936.15 3473.91 2943.59C3473.91 2951.03 3465.12 2962.23 3442.23 2961.45C3426.14 2960.88 3414.95 2956.56 3415.58 2943.31V2924.24L3473.91 2923.04Z" fill="#FFA8A7"/>
<path d="M3627.69 2856C3631.8 2857.7 3632.65 2865.64 3632.86 2881.44C3632.86 2893.35 3634.99 2914.25 3620.89 2918.01C3606.78 2921.76 3586.44 2919.14 3577.73 2907.66C3566.96 2893.49 3559.73 2880.73 3544.28 2863.23C3530.81 2847.99 3515.93 2833.75 3511.18 2812.7C3506.65 2793.78 3511.18 2785.7 3524.08 2780.6C3536.98 2775.49 3548.81 2779.67 3566.6 2794.77C3571.63 2798.13 3577 2800.96 3582.62 2803.2C3594.59 2806.75 3623.58 2854.3 3627.69 2856Z" fill="#263238"/>
<path d="M3628.04 2841.4L3627.55 2860.75C3627.55 2860.75 3614.58 2886.12 3578.58 2860.75C3577.8 2858.9 3574.61 2821.42 3574.61 2821.42L3628.04 2841.4Z" fill="#FFA8A7"/>
<path d="M3582.76 2803.27C3577.14 2801.03 3571.78 2798.2 3566.74 2794.84C3552.57 2790.16 3521.67 2795.55 3535.49 2816.6C3546.91 2833.96 3561.53 2848.99 3578.58 2860.89C3594.88 2868.9 3600.62 2858.97 3600.62 2858.97L3594.81 2813.55C3591.63 2809.25 3587.51 2805.73 3582.76 2803.27Z" fill="#FFA8A7"/>
<path d="M3654.05 2573.52C3650.71 2539.46 3643.58 2505.87 3632.79 2473.39C3632.79 2473.39 3644.98 2387.92 3654.55 2305.86C3677.08 2113.38 3662.06 2110.33 3634.85 2043.65C3634.85 2043.65 3388.09 2011.9 3377.81 2114.52C3364.91 2242.08 3370.73 2490.11 3372.92 2535.47C3375.12 2580.82 3378.73 2601.3 3392.2 2696.26C3402.47 2768.55 3412.18 2926.51 3412.18 2926.51C3444.5 2945.15 3475.96 2923.32 3475.96 2923.32C3475.96 2923.32 3506.86 2729.01 3506.15 2676.71C3505.65 2638.03 3500.15 2599.59 3489.78 2562.33C3489.78 2562.33 3511.04 2354.05 3516.07 2320.95C3516.07 2320.95 3522.03 2387.35 3524.22 2432.71C3526.42 2478.06 3538.4 2521.58 3549.52 2605.98C3558.88 2679.19 3574.47 2831.97 3574.47 2831.97C3606.85 2850.61 3629.46 2842.18 3629.46 2842.18C3629.46 2842.18 3661.49 2637.02 3654.05 2573.52Z" fill="#90CAF9"/>
<g opacity="0.4">
<path d="M3654.05 2573.52C3650.71 2539.46 3643.58 2505.87 3632.79 2473.39C3632.79 2473.39 3644.98 2387.92 3654.55 2305.86C3677.08 2113.38 3662.06 2110.33 3634.85 2043.65C3634.85 2043.65 3388.09 2011.9 3377.81 2114.52C3364.91 2242.08 3370.73 2490.11 3372.92 2535.47C3375.12 2580.82 3378.73 2601.3 3392.2 2696.26C3402.47 2768.55 3412.18 2926.51 3412.18 2926.51C3444.5 2945.15 3475.96 2923.32 3475.96 2923.32C3475.96 2923.32 3506.86 2729.01 3506.15 2676.71C3505.65 2638.03 3500.15 2599.59 3489.78 2562.33C3489.78 2562.33 3511.04 2354.05 3516.07 2320.95C3516.07 2320.95 3522.03 2387.35 3524.22 2432.71C3526.42 2478.06 3538.4 2521.58 3549.52 2605.98C3558.88 2679.19 3574.47 2831.97 3574.47 2831.97C3606.85 2850.61 3629.46 2842.18 3629.46 2842.18C3629.46 2842.18 3661.49 2637.02 3654.05 2573.52Z" fill="black"/>
</g>
<path opacity="0.15" d="M3516.07 2320.6L3527.98 2230.6C3562.76 2230.53 3596.5 2218.77 3623.79 2197.22C3623.79 2197.22 3607.63 2230.1 3542.08 2244.49L3529.26 2337.11L3524.65 2439.16C3522.48 2399.28 3519.62 2359.76 3516.07 2320.6Z" fill="black"/>
<path d="M3643.49 1766.2C3635.13 1741.4 3618.05 1726.8 3580.28 1726.38H3573.62C3570.92 1740.55 3526.63 1752.88 3486.45 1738.71C3480.92 1739.7 3461.79 1741.83 3453 1743.03L3433.8 1745.79C3404.6 1755.36 3391.7 1806.17 3388.87 1886.61C3386.03 1967.04 3374.06 2139.18 3374.06 2139.18C3374.06 2139.18 3436.92 2172.91 3536.06 2159.87C3624.85 2148.18 3664.26 2096.09 3661.21 2102.61C3647.77 2058.26 3630.8 2015.06 3610.47 1973.42C3657.24 1858.83 3655.97 1803.13 3643.49 1766.2Z" fill="#455A64"/>
<path d="M3486.95 2162.99C3503.37 2163.19 3519.78 2162.22 3536.06 2160.08C3617.06 2149.45 3657.74 2105.09 3661.14 2102.4C3647.87 2058.14 3630.92 2015.07 3610.47 1973.63C3634.14 1915.59 3645.48 1872.72 3649.3 1839.69C3645.48 1863.79 3609.9 1957.05 3563.34 1984.97C3563.34 1984.97 3589.56 1989.08 3612.03 2019.91C3634.49 2050.74 3616.07 2156.4 3486.95 2162.99Z" fill="#37474F"/>
<path d="M3453 1743.24C3414.31 1748.13 3383.69 1756.21 3366.76 1792.85C3338.41 1855.42 3307.16 1906.8 3284.62 1930.97C3260.53 1956.76 3161.74 2001.84 3139.49 1998.51C3117.23 1995.17 3095.05 1969.31 3083.57 1975.9C3072.09 1982.49 3093.35 2007.36 3091.93 2012.96C3090.52 2018.56 3050.19 2015.58 3031.13 2002.12C3012.07 1988.66 3004.98 2016.29 3029.64 2045.35C3054.3 2074.4 3100.51 2076.53 3151.04 2066.61C3201.57 2056.69 3296.46 2029.97 3335.29 1998.15C3382.13 1959.6 3398.08 1930.4 3417.99 1895.82C3489.92 1821.55 3453 1743.24 3453 1743.24Z" fill="#FFA8A7"/>
<defs>
<filter id="filter0_f_2108_1235" x="1077.44" y="239.443" width="5261.11" height="4291.11" filterUnits="userSpaceOnUse" color-interpolation-filters="sRGB">
<feFlood flood-opacity="0" result="BackgroundImageFix"/>
<feBlend mode="normal" in="SourceGraphic" in2="BackgroundImageFix" result="shape"/>
<feGaussianBlur stdDeviation="284.278" result="effect1_foregroundBlur_2108_1235"/>
</filter>
<linearGradient id="paint0_linear_2108_1235" x1="3708" y1="808" x2="3708" y2="3962" gradientUnits="userSpaceOnUse">
<stop stop-color="#16B6F0" stop-opacity="0.36"/>
<stop offset="1" stop-color="#1653F0" stop-opacity="0.6"/>
</linearGradient>
<linearGradient id="paint1_linear_2108_1235" x1="1049.5" y1="3665.68" x2="1049.5" y2="6441.82" gradientUnits="userSpaceOnUse">
<stop stop-color="#EAF0FF" stop-opacity="0.05"/>
<stop offset="1" stop-color="#EAF0FF"/>
</linearGradient>
<clipPath id="clip0_2108_1235">
<rect width="5371" height="3529" fill="white"/>
</clipPath>
</defs>
</svg>
