<svg width="4162" height="3870" viewBox="0 0 4162 3870" fill="none" xmlns="http://www.w3.org/2000/svg">
<path d="M0 0H4162V3870H0V0Z" fill="#D9D9D9"/>
<path d="M0 0H4162V3870H0V0Z" fill="url(#paint0_linear_2106_541)" fill-opacity="0.2"/>
<path d="M816.295 3280.53C1523.31 3649.94 2669.78 3649.94 3376.8 3280.53C4083.82 2911.13 4083.9 2312.25 3376.8 1942.85C2669.7 1573.45 1523.31 1573.45 816.295 1942.85C109.277 2312.25 109.193 2911.13 816.295 3280.53Z" fill="#F5F5F5"/>
<path d="M2649.09 3187.11C2862.3 3187.11 3035.14 3104.74 3035.14 3003.13C3035.14 2901.51 2862.3 2819.14 2649.09 2819.14C2435.88 2819.14 2263.04 2901.51 2263.04 3003.13C2263.04 3104.74 2435.88 3187.11 2649.09 3187.11Z" fill="#EBEBEB"/>
<path d="M3332.99 2767.51C3497.48 2767.51 3630.83 2703.96 3630.83 2625.57C3630.83 2547.17 3497.48 2483.63 3332.99 2483.63C3168.49 2483.63 3035.14 2547.17 3035.14 2625.57C3035.14 2703.96 3168.49 2767.51 3332.99 2767.51Z" fill="#EBEBEB"/>
<path d="M1210.17 2585.79C1193.35 2497 1131.8 2370.44 1056.7 2299.89C984.473 2232.12 877.26 2208.49 834.542 2239.77C791.825 2271.05 819.827 2338.66 902.738 2421.06C996.329 2513.98 1176.03 2771.8 1210.17 2917.86V2585.79Z" fill="#90CAF9"/>
<path d="M1210.17 2585.79C1193.35 2497 1131.8 2370.44 1056.7 2299.89C984.473 2232.12 877.26 2208.49 834.542 2239.77C791.825 2271.05 819.827 2338.66 902.738 2421.06C996.329 2513.98 1176.03 2771.8 1210.17 2917.86V2585.79Z" fill="black"/>
<path d="M1210.17 2799.46C1209.11 2799.45 1208.1 2799.04 1207.33 2798.33C1206.55 2797.62 1206.07 2796.64 1205.96 2795.59C1184.77 2571.92 1028.37 2320.49 878.016 2268.11C876.967 2267.73 876.107 2266.95 875.62 2265.94C875.133 2264.94 875.058 2263.78 875.409 2262.72C875.791 2261.67 876.566 2260.82 877.571 2260.33C878.576 2259.84 879.731 2259.77 880.791 2260.12C1036.69 2314.36 1192.68 2564.27 1214.54 2794.84C1214.63 2795.95 1214.29 2797.05 1213.59 2797.92C1212.88 2798.78 1211.86 2799.34 1210.76 2799.46H1210.17Z" fill="white"/>
<path d="M1210.17 3025.24C1210.17 3025.24 1181.07 3048.45 1084.03 3039.37C986.995 3030.29 936.963 2960.91 936.963 2931.15C936.963 2901.38 1026.18 2896.25 1045.52 2822.42C1025.85 2843.5 999.677 2857.39 971.187 2861.86C920.733 2871.36 880.203 2855.21 868.682 2763.3C893.549 2766.94 918.918 2764.84 942.849 2757.17C982.791 2744.3 992.293 2722.35 981.866 2717.65C971.439 2712.94 915.772 2717.64 880.118 2704.11C844.465 2690.57 871.71 2504.9 895.086 2491.7C918.463 2478.5 1029.04 2509.61 1050.57 2526.26C1069.74 2541.06 1096.65 2566.71 1084.2 2620.94C1098.94 2607.16 1110.43 2590.27 1117.84 2571.5C1128.26 2546.27 1135.83 2552.16 1151.47 2561.83C1160.86 2567.12 1169.02 2574.36 1175.38 2583.07C1181.75 2591.77 1186.18 2601.73 1188.39 2612.28C1192.17 2635.83 1186.03 2717.06 1152.9 2743.46C1152.9 2743.46 1184.69 2747.5 1210.67 2693.85C1210.67 2693.85 1261.12 2714.2 1272.56 2747.16C1284 2780.12 1296.44 2941.49 1210.17 3025.24Z" fill="#90CAF9"/>
<path d="M1218.74 3043.57C1217.72 3043.56 1216.73 3043.18 1215.95 3042.5C1215.18 3041.83 1214.68 3040.89 1214.54 3039.87C1192.34 2858.16 1054.18 2619.43 918.715 2529.79C917.779 2529.17 917.128 2528.2 916.908 2527.09C916.687 2525.99 916.914 2524.84 917.538 2523.9C918.162 2522.97 919.133 2522.32 920.237 2522.1C921.341 2521.88 922.487 2522.1 923.424 2522.73C1060.57 2613.96 1200.92 2855.13 1222.86 3038.86C1223.01 3039.97 1222.71 3041.08 1222.03 3041.97C1221.35 3042.85 1220.35 3043.43 1219.25 3043.57H1218.74Z" fill="white"/>
<path d="M1227.24 3068.97C1222.22 3065.49 1218.09 3060.89 1215.17 3055.53C1212.24 3050.17 1210.62 3044.21 1210.42 3038.11V1029.14C1210.76 1022.82 1212.59 1016.67 1215.76 1011.19C1218.94 1005.71 1223.36 1001.06 1228.67 997.609L2490 269.232C2495.27 265.926 2501.34 264.119 2507.56 264.006C2513.79 263.893 2519.92 265.478 2525.31 268.592C2530.7 271.705 2535.13 276.228 2538.14 281.675C2541.15 287.122 2542.62 293.286 2542.38 299.504L1262.55 3068.29C1257.14 3071.18 1251.11 3072.74 1244.98 3072.86C1238.84 3072.97 1232.76 3071.64 1227.24 3068.97Z" fill="#E0E0E0"/>
<path d="M1244.31 1067.32L1756.66 732.057L1722.52 712.296L1228.41 997.609C1223.1 1001.06 1218.68 1005.71 1215.51 1011.19C1212.34 1016.67 1210.51 1022.82 1210.17 1029.14V1047.56L1244.31 1067.32Z" fill="#37474F"/>
<path d="M1244.31 1067.32L1756.66 732.057L1722.52 712.296L1228.41 997.609C1223.1 1001.06 1218.68 1005.71 1215.51 1011.19C1212.34 1016.67 1210.51 1022.82 1210.17 1029.14V1047.56L1244.31 1067.32Z" fill="#37474F"/>
<path d="M1415.43 1126.43L1215.46 1011.4C1212.21 1016.82 1210.38 1022.99 1210.17 1029.31V3037.94C1209.95 3044.15 1211.43 3050.3 1214.44 3055.74C1217.46 3061.17 1221.9 3065.68 1227.28 3068.79C1232.67 3071.89 1238.8 3073.47 1245.01 3073.35C1251.22 3073.23 1257.29 3071.43 1262.55 3068.13L1415.43 2980.25V1126.43Z" fill="#263238"/>
<path d="M1415.43 1126.43L1215.46 1011.4C1212.21 1016.82 1210.38 1022.99 1210.17 1029.31V3037.94C1209.95 3044.15 1211.43 3050.3 1214.44 3055.74C1217.46 3061.17 1221.9 3065.68 1227.28 3068.79C1232.67 3071.89 1238.8 3073.47 1245.01 3073.35C1251.22 3073.23 1257.29 3071.43 1262.55 3068.13L1415.43 2980.25V1126.43Z" fill="#263238"/>
<path d="M1262.55 3068.29L2523.89 2339.92C2529.2 2336.47 2533.62 2331.82 2536.79 2326.34C2539.96 2320.86 2541.79 2314.71 2542.13 2308.38V299.504C2542.13 287.9 2533.72 283.191 2523.89 288.993L1262.55 1017.37C1257.24 1020.82 1252.82 1025.47 1249.65 1030.95C1246.48 1036.43 1244.65 1042.58 1244.31 1048.9V3057.78C1244.31 3069.39 1252.46 3074.1 1262.55 3068.29Z" fill="#455A64"/>
<path d="M1262.55 3068.29L2523.89 2339.92C2529.2 2336.47 2533.62 2331.82 2536.79 2326.34C2539.96 2320.86 2541.79 2314.71 2542.13 2308.38V299.504C2542.13 287.9 2533.72 283.191 2523.89 288.993L1262.55 1017.37C1257.24 1020.82 1252.82 1025.47 1249.65 1030.95C1246.48 1036.43 1244.65 1042.58 1244.31 1048.9V3057.78C1244.31 3069.39 1252.46 3074.1 1262.55 3068.29Z" fill="#455A64"/>
<path d="M1349.08 1512.91L1651.8 1338C1671.9 1326.4 1688.21 1334.64 1688.21 1356.42C1687.31 1368.64 1683.55 1380.49 1677.22 1390.99C1670.9 1401.5 1662.19 1410.36 1651.8 1416.88L1349.08 1591.78C1328.9 1603.38 1312.67 1595.14 1312.67 1573.36C1313.55 1561.13 1317.31 1549.28 1323.63 1538.77C1329.96 1528.27 1338.68 1519.4 1349.08 1512.91Z" fill="#90CAF9"/>
<path d="M1349.08 1637.02L1549.46 1521.31C1569.56 1509.71 1585.88 1517.95 1585.88 1539.73C1584.98 1551.96 1581.21 1563.8 1574.89 1574.31C1568.56 1584.81 1559.85 1593.68 1549.46 1600.19L1349.08 1715.9C1328.9 1727.5 1312.67 1719.26 1312.67 1697.48C1313.55 1685.25 1317.31 1673.39 1323.63 1662.89C1329.96 1652.38 1338.68 1643.52 1349.08 1637.02Z" fill="#90CAF9"/>
<path d="M1327.22 1849.43L1366.4 1826.81C1374.81 1822.18 1380.95 1825.97 1380.95 1835.22V1880.46C1380.68 1885.51 1379.22 1890.43 1376.69 1894.81C1374.16 1899.19 1370.64 1902.92 1366.4 1905.68L1327.22 1927.97C1318.81 1932.68 1312.67 1928.89 1312.67 1919.56V1874.32C1313 1869.33 1314.49 1864.48 1317.01 1860.16C1319.54 1855.84 1323.03 1852.17 1327.22 1849.43Z" fill="#90CAF9"/>
<path d="M1327.22 1849.43L1366.4 1826.81C1374.81 1822.18 1380.95 1825.97 1380.95 1835.22V1880.46C1380.68 1885.51 1379.22 1890.43 1376.69 1894.81C1374.16 1899.19 1370.64 1902.92 1366.4 1905.68L1327.22 1927.97C1318.81 1932.68 1312.67 1928.89 1312.67 1919.56V1874.32C1313 1869.33 1314.49 1864.48 1317.01 1860.16C1319.54 1855.84 1323.03 1852.17 1327.22 1849.43Z" fill="black"/>
<path d="M1327.22 2007.26L1366.4 1984.64C1374.81 1979.93 1380.95 1983.72 1380.95 1993.05V2038.29C1380.66 2043.34 1379.19 2048.25 1376.67 2052.63C1374.14 2057.01 1370.63 2060.74 1366.4 2063.52L1327.22 2086.14C1318.81 2090.76 1312.67 2086.98 1312.67 2077.73V2032.49C1312.93 2027.43 1314.38 2022.51 1316.91 2018.13C1319.44 2013.74 1322.97 2010.02 1327.22 2007.26Z" fill="#90CAF9"/>
<path d="M1327.22 2007.26L1366.4 1984.64C1374.81 1979.93 1380.95 1983.72 1380.95 1993.05V2038.29C1380.66 2043.34 1379.19 2048.25 1376.67 2052.63C1374.14 2057.01 1370.63 2060.74 1366.4 2063.52L1327.22 2086.14C1318.81 2090.76 1312.67 2086.98 1312.67 2077.73V2032.49C1312.93 2027.43 1314.38 2022.51 1316.91 2018.13C1319.44 2013.74 1322.97 2010.02 1327.22 2007.26Z" fill="black"/>
<path d="M1433.34 1965.72L1670.13 1828.91C1680.22 1823.11 1688.38 1827.23 1688.38 1838.16C1687.92 1844.27 1686.03 1850.19 1682.86 1855.43C1679.69 1860.68 1675.33 1865.1 1670.13 1868.35L1433.34 2005.16C1423.25 2010.96 1415.09 2006.84 1415.09 1995.91C1415.55 1989.8 1417.44 1983.88 1420.61 1978.64C1423.78 1973.39 1428.14 1968.97 1433.34 1965.72Z" fill="#90CAF9"/>
<path d="M1433.34 1965.72L1670.13 1828.91C1680.22 1823.11 1688.38 1827.23 1688.38 1838.16C1687.92 1844.27 1686.03 1850.19 1682.86 1855.43C1679.69 1860.68 1675.33 1865.1 1670.13 1868.35L1433.34 2005.16C1423.25 2010.96 1415.09 2006.84 1415.09 1995.91C1415.55 1989.8 1417.44 1983.88 1420.61 1978.64C1423.78 1973.39 1428.14 1968.97 1433.34 1965.72Z" fill="black"/>
<path d="M1327.22 2165.01L1366.4 2142.39C1374.81 2137.68 1380.95 2141.47 1380.95 2150.8V2196.04C1380.66 2201.09 1379.2 2206 1376.67 2210.38C1374.15 2214.76 1370.63 2218.49 1366.4 2221.27L1327.22 2243.89C1318.81 2248.51 1312.67 2244.73 1312.67 2235.48V2190.24C1312.93 2185.18 1314.38 2180.26 1316.91 2175.88C1319.44 2171.49 1322.97 2167.77 1327.22 2165.01Z" fill="#E0E0E0"/>
<path d="M1433.34 2123.47L1670.13 1986.83C1680.22 1981.03 1688.38 1985.15 1688.38 1996.08C1687.94 2002.19 1686.05 2008.12 1682.88 2013.36C1679.71 2018.61 1675.34 2023.03 1670.13 2026.27L1433.34 2163.08C1423.25 2168.88 1415.09 2164.76 1415.09 2153.83C1415.52 2147.69 1417.4 2141.74 1420.57 2136.46C1423.74 2131.19 1428.12 2126.74 1433.34 2123.47Z" fill="#F0F0F0"/>
<path d="M1327.22 2323.18L1366.4 2300.56C1374.81 2295.85 1380.95 2299.64 1380.95 2308.97V2354.21C1380.66 2359.26 1379.2 2364.17 1376.67 2368.55C1374.15 2372.93 1370.63 2376.66 1366.4 2379.44L1327.22 2402.06C1318.81 2406.68 1312.67 2402.9 1312.67 2393.65V2348.41C1312.93 2343.36 1314.38 2338.43 1316.91 2334.05C1319.44 2329.66 1322.97 2325.94 1327.22 2323.18Z" fill="#E0E0E0"/>
<path d="M1433.34 2281.64L1670.13 2144.92C1680.22 2139.03 1688.38 2143.23 1688.38 2154.08C1687.94 2160.21 1686.05 2166.14 1682.88 2171.4C1679.71 2176.66 1675.34 2181.1 1670.13 2184.35L1433.34 2321.08C1423.25 2326.88 1415.09 2322.76 1415.09 2311.83C1415.55 2305.72 1417.44 2299.8 1420.61 2294.56C1423.78 2289.31 1428.14 2284.89 1433.34 2281.64Z" fill="#F0F0F0"/>
<path d="M1327.22 2480.93L1366.4 2458.31C1374.81 2453.61 1380.95 2457.39 1380.95 2466.72V2511.96C1380.66 2517.01 1379.2 2521.92 1376.67 2526.3C1374.15 2530.69 1370.63 2534.41 1366.4 2537.19L1327.22 2559.81C1318.81 2564.43 1312.67 2560.65 1312.67 2551.4V2506.16C1312.93 2501.11 1314.38 2496.18 1316.91 2491.8C1319.44 2487.41 1322.97 2483.69 1327.22 2480.93Z" fill="#E0E0E0"/>
<path d="M1433.34 2439.4L1670.13 2302.67C1680.22 2296.78 1688.38 2300.98 1688.38 2311.83C1687.94 2317.96 1686.05 2323.89 1682.88 2329.15C1679.71 2334.41 1675.34 2338.85 1670.13 2342.1L1433.34 2478.83C1423.25 2484.63 1415.09 2480.51 1415.09 2469.58C1415.55 2463.47 1417.44 2457.55 1420.61 2452.31C1423.78 2447.06 1428.14 2442.64 1433.34 2439.4Z" fill="#F0F0F0"/>
<path d="M1330.83 2636.16L1499.01 2538.87C1509.1 2533.07 1517.26 2537.19 1517.26 2548.12C1516.8 2554.23 1514.91 2560.15 1511.74 2565.4C1508.57 2570.64 1504.21 2575.06 1499.01 2578.31L1330.83 2675.6C1320.83 2681.4 1312.67 2677.28 1312.67 2666.43C1313.11 2660.32 1314.99 2654.39 1318.14 2649.13C1321.3 2643.87 1325.64 2639.43 1330.83 2636.16Z" fill="#90CAF9"/>
<path d="M1330.83 2715.04L1670.13 2519.2C1680.22 2513.39 1688.38 2517.51 1688.38 2528.36C1687.94 2534.49 1686.05 2540.42 1682.88 2545.68C1679.71 2550.94 1675.34 2555.38 1670.13 2558.63L1330.83 2754.48C1320.83 2760.28 1312.67 2756.16 1312.67 2745.31C1313.11 2739.19 1314.99 2733.27 1318.14 2728.01C1321.3 2722.75 1325.64 2718.31 1330.83 2715.04Z" fill="#90CAF9"/>
<path d="M1330.83 2715.04L1670.13 2519.2C1680.22 2513.39 1688.38 2517.51 1688.38 2528.36C1687.94 2534.49 1686.05 2540.42 1682.88 2545.68C1679.71 2550.94 1675.34 2555.38 1670.13 2558.63L1330.83 2754.48C1320.83 2760.28 1312.67 2756.16 1312.67 2745.31C1313.11 2739.19 1314.99 2733.27 1318.14 2728.01C1321.3 2722.75 1325.64 2718.31 1330.83 2715.04Z" fill="white"/>
<path d="M1330.83 2715.04L1567.71 2578.31C1577.72 2572.51 1585.88 2576.63 1585.88 2587.56C1585.42 2593.66 1583.54 2599.57 1580.39 2604.81C1577.23 2610.06 1572.89 2614.49 1567.71 2617.75L1330.83 2754.48C1320.83 2760.28 1312.67 2756.16 1312.67 2745.31C1313.11 2739.19 1314.99 2733.27 1318.14 2728.01C1321.3 2722.75 1325.64 2718.31 1330.83 2715.04Z" fill="#90CAF9"/>
<path d="M1330.83 2794.08L1499.01 2696.79C1509.1 2690.99 1517.26 2695.11 1517.26 2706.04C1516.8 2712.15 1514.91 2718.07 1511.74 2723.31C1508.57 2728.56 1504.21 2732.98 1499.01 2736.23L1330.83 2833.52C1320.83 2839.32 1312.67 2835.2 1312.67 2824.35C1313.11 2818.24 1314.99 2812.31 1318.14 2807.05C1321.3 2801.79 1325.64 2797.35 1330.83 2794.08Z" fill="#90CAF9"/>
<path d="M1433.34 1807.89L1670.13 1671.16C1680.22 1665.36 1688.38 1669.48 1688.38 1680.41C1687.92 1686.52 1686.03 1692.44 1682.86 1697.68C1679.69 1702.93 1675.33 1707.35 1670.13 1710.6L1433.34 1847.33C1423.25 1853.13 1415.09 1849.01 1415.09 1838.16C1415.54 1832.03 1417.42 1826.1 1420.59 1820.84C1423.76 1815.58 1428.13 1811.14 1433.34 1807.89Z" fill="#90CAF9"/>
<path d="M1433.34 1807.89L1670.13 1671.16C1680.22 1665.36 1688.38 1669.48 1688.38 1680.41C1687.92 1686.52 1686.03 1692.44 1682.86 1697.68C1679.69 1702.93 1675.33 1707.35 1670.13 1710.6L1433.34 1847.33C1423.25 1853.13 1415.09 1849.01 1415.09 1838.16C1415.54 1832.03 1417.42 1826.1 1420.59 1820.84C1423.76 1815.58 1428.13 1811.14 1433.34 1807.89Z" fill="black"/>
<path d="M1330.83 2794.08L1499.01 2696.79C1509.1 2690.99 1517.26 2695.11 1517.26 2706.04C1516.8 2712.15 1514.91 2718.07 1511.74 2723.31C1508.57 2728.56 1504.21 2732.98 1499.01 2736.23L1330.83 2833.52C1320.83 2839.32 1312.67 2835.2 1312.67 2824.35C1313.11 2818.24 1314.99 2812.31 1318.14 2807.05C1321.3 2801.79 1325.64 2797.35 1330.83 2794.08Z" fill="#90CAF9"/>
<path d="M1330.83 2872.7L1670.13 2676.86C1680.22 2671.06 1688.38 2675.18 1688.38 2686.03C1687.94 2692.15 1686.05 2698.09 1682.88 2703.35C1679.71 2708.61 1675.34 2713.05 1670.13 2716.3L1330.83 2911.81C1320.83 2917.69 1312.67 2913.49 1312.67 2902.64C1313.16 2896.58 1315.06 2890.72 1318.21 2885.53C1321.37 2880.33 1325.69 2875.94 1330.83 2872.7Z" fill="#90CAF9"/>
<path d="M1330.83 2872.7L1670.13 2676.86C1680.22 2671.06 1688.38 2675.18 1688.38 2686.03C1687.94 2692.15 1686.05 2698.09 1682.88 2703.35C1679.71 2708.61 1675.34 2713.05 1670.13 2716.3L1330.83 2911.81C1320.83 2917.69 1312.67 2913.49 1312.67 2902.64C1313.16 2896.58 1315.06 2890.72 1318.21 2885.53C1321.37 2880.33 1325.69 2875.94 1330.83 2872.7Z" fill="white"/>
<path d="M1330.83 2872.7L1635.99 2696.12C1646.08 2690.32 1654.24 2694.44 1654.24 2705.37C1653.78 2711.48 1651.89 2717.4 1648.72 2722.64C1645.55 2727.89 1641.19 2732.31 1635.99 2735.56L1330.83 2912.14C1320.83 2918.03 1312.67 2913.82 1312.67 2902.98C1313.11 2896.86 1314.99 2890.93 1318.14 2885.67C1321.3 2880.41 1325.64 2875.97 1330.83 2872.7Z" fill="#90CAF9"/>
<path d="M2524.05 288.993L1756.66 732.057L1756.66 2782.98L2524.05 2340C2529.36 2336.55 2533.78 2331.9 2536.95 2326.42C2540.13 2320.94 2541.96 2314.79 2542.3 2308.47V299.504C2542.22 288.236 2533.81 283.191 2524.05 288.993Z" fill="#EBEBEB"/>
<path d="M2524.05 288.993L1756.66 732.057L1756.66 2782.98L2524.05 2340C2529.36 2336.55 2533.78 2331.9 2536.95 2326.42C2540.13 2320.94 2541.96 2314.79 2542.3 2308.47V299.504C2542.22 288.236 2533.81 283.191 2524.05 288.993Z" fill="#FAFAFA"/>
<path d="M1756.66 810.932V968.682L1688.38 1047.56H1756.66V1205.31L2473.94 791.171V396.795L1756.66 810.932Z" fill="#90CAF9"/>
<path d="M1850.5 816.398L2141.11 648.22C2155.16 639.811 2166.34 646.707 2166.34 662.936C2165.88 671.754 2163.35 680.34 2158.97 688.007C2154.59 695.673 2148.47 702.207 2141.11 707.082L1850.5 874.839C1836.38 883.248 1825.28 876.353 1825.28 860.124C1825.78 851.374 1828.33 842.864 1832.71 835.272C1837.09 827.681 1843.18 821.217 1850.5 816.398Z" fill="white"/>
<path d="M1834.11 944.129L2396.57 619.378C2401.62 616.519 2405.66 618.537 2405.66 624.003C2405.44 627.062 2404.5 630.027 2402.93 632.657C2401.35 635.287 2399.17 637.507 2396.57 639.139L1834.11 963.469C1829.06 966.328 1825.02 964.31 1825.02 958.844C1825.3 955.858 1826.27 952.977 1827.84 950.425C1829.42 947.873 1831.56 945.718 1834.11 944.129Z" fill="#90CAF9"/>
<path d="M1834.11 944.129L2396.57 619.378C2401.62 616.519 2405.66 618.537 2405.66 624.003C2405.44 627.062 2404.5 630.027 2402.93 632.657C2401.35 635.287 2399.17 637.507 2396.57 639.139L1834.11 963.469C1829.06 966.328 1825.02 964.31 1825.02 958.844C1825.3 955.858 1826.27 952.977 1827.84 950.425C1829.42 947.873 1831.56 945.718 1834.11 944.129Z" fill="#90CAF9"/>
<path d="M1834.11 944.129L2396.57 619.378C2401.62 616.519 2405.66 618.537 2405.66 624.003C2405.44 627.062 2404.5 630.027 2402.93 632.657C2401.35 635.287 2399.17 637.507 2396.57 639.139L1834.11 963.469C1829.06 966.328 1825.02 964.31 1825.02 958.844C1825.3 955.858 1826.27 952.977 1827.84 950.425C1829.42 947.873 1831.56 945.718 1834.11 944.129Z" fill="white"/>
<path d="M1834.11 1002.99L2396.57 678.24C2401.62 675.297 2405.66 677.399 2405.66 682.865C2405.44 685.913 2404.5 688.866 2402.92 691.482C2401.35 694.099 2399.17 696.304 2396.57 697.917L1834.11 1022.67C1829.06 1025.61 1825.02 1023.51 1825.02 1018.04C1825.24 1014.99 1826.18 1012.04 1827.76 1009.43C1829.33 1006.81 1831.51 1004.6 1834.11 1002.99Z" fill="#90CAF9"/>
<path d="M1834.11 1002.99L2396.57 678.24C2401.62 675.297 2405.66 677.399 2405.66 682.865C2405.44 685.913 2404.5 688.866 2402.92 691.482C2401.35 694.099 2399.17 696.304 2396.57 697.917L1834.11 1022.67C1829.06 1025.61 1825.02 1023.51 1825.02 1018.04C1825.24 1014.99 1826.18 1012.04 1827.76 1009.43C1829.33 1006.81 1831.51 1004.6 1834.11 1002.99Z" fill="white"/>
<path d="M1834.11 1061.85L2396.57 737.102C2401.62 734.243 2405.66 736.261 2405.66 741.727C2405.44 744.786 2404.5 747.751 2402.93 750.381C2401.35 753.011 2399.17 755.231 2396.57 756.863L1834.11 1081.61C1829.06 1084.47 1825.02 1082.45 1825.02 1076.99C1825.24 1073.93 1826.18 1070.96 1827.75 1068.33C1829.33 1065.71 1831.51 1063.48 1834.11 1061.85Z" fill="white"/>
<path d="M1855.3 1227.51L1894.73 1204.8C1903.14 1200.09 1909.28 1203.88 1909.28 1213.21V1258.45C1909 1263.5 1907.54 1268.42 1905.01 1272.8C1902.49 1277.18 1898.96 1280.91 1894.73 1283.68L1855.55 1306.3C1847.14 1310.92 1841 1307.14 1841 1297.89V1252.73C1841.23 1247.7 1842.65 1242.79 1845.13 1238.41C1847.61 1234.03 1851.1 1230.29 1855.3 1227.51Z" fill="#90CAF9"/>
<path d="M1855.3 1227.51L1894.73 1204.8C1903.14 1200.09 1909.28 1203.88 1909.28 1213.21V1258.45C1909 1263.5 1907.54 1268.42 1905.01 1272.8C1902.49 1277.18 1898.96 1280.91 1894.73 1283.68L1855.55 1306.3C1847.14 1310.92 1841 1307.14 1841 1297.89V1252.73C1841.23 1247.7 1842.65 1242.79 1845.13 1238.41C1847.61 1234.03 1851.1 1230.29 1855.3 1227.51Z" fill="white"/>
<path d="M1961.42 1185.97L2198.21 1049.16C2208.3 1043.35 2216.46 1047.47 2216.46 1058.41C2216 1064.52 2214.11 1070.43 2210.94 1075.68C2207.77 1080.92 2203.41 1085.35 2198.21 1088.59L1961.42 1225.41C1951.32 1231.21 1943.17 1227.09 1943.17 1216.16C1943.63 1210.04 1945.52 1204.13 1948.69 1198.88C1951.86 1193.64 1956.22 1189.21 1961.42 1185.97Z" fill="#90CAF9"/>
<path d="M1961.42 1185.97L2198.21 1049.16C2208.3 1043.35 2216.46 1047.47 2216.46 1058.41C2216 1064.52 2214.11 1070.43 2210.94 1075.68C2207.77 1080.92 2203.41 1085.35 2198.21 1088.59L1961.42 1225.41C1951.32 1231.21 1943.17 1227.09 1943.17 1216.16C1943.63 1210.04 1945.52 1204.13 1948.69 1198.88C1951.86 1193.64 1956.22 1189.21 1961.42 1185.97Z" fill="white"/>
<path d="M1849.83 1368.78L2446.86 1024.01C2451.91 1021.07 2455.94 1023.17 2455.94 1028.55C2455.73 1031.61 2454.8 1034.58 2453.22 1037.21C2451.64 1039.84 2449.46 1042.06 2446.86 1043.69L1849.83 1388.45C1844.78 1391.4 1840.75 1389.29 1840.75 1383.83C1840.97 1380.78 1841.9 1377.83 1843.48 1375.21C1845.06 1372.59 1847.23 1370.39 1849.83 1368.78Z" fill="#90CAF9"/>
<path d="M1849.83 1427.89L2446.86 1083.13C2451.91 1080.27 2455.94 1082.29 2455.94 1087.75C2455.72 1090.81 2454.79 1093.78 2453.21 1096.41C2451.63 1099.04 2449.46 1101.26 2446.86 1102.89L1849.83 1447.65C1844.78 1450.51 1840.75 1448.49 1840.75 1443.03C1840.97 1439.97 1841.9 1437 1843.48 1434.37C1845.06 1431.74 1847.23 1429.52 1849.83 1427.89Z" fill="#90CAF9"/>
<path d="M1849.83 1487.09L2446.86 1142.33C2451.91 1139.38 2455.94 1141.49 2455.94 1146.87C2455.73 1149.93 2454.8 1152.89 2453.22 1155.53C2451.64 1158.16 2449.46 1160.38 2446.86 1162L1849.83 1506.77C1844.78 1509.71 1840.75 1507.61 1840.75 1502.23C1840.96 1499.16 1841.89 1496.2 1843.47 1493.57C1845.05 1490.94 1847.23 1488.72 1849.83 1487.09Z" fill="#90CAF9"/>
<path d="M1849.83 1546.37L2446.86 1201.61C2451.91 1198.75 2455.94 1200.77 2455.94 1206.23C2455.72 1209.29 2454.79 1212.26 2453.21 1214.89C2451.63 1217.52 2449.46 1219.74 2446.86 1221.37L1849.83 1566.13C1844.78 1568.99 1840.75 1566.97 1840.75 1561.51C1840.97 1558.45 1841.9 1555.48 1843.48 1552.85C1845.06 1550.22 1847.23 1548 1849.83 1546.37Z" fill="#90CAF9"/>
<path d="M1849.83 1368.78L2446.86 1024.01C2451.91 1021.07 2455.94 1023.17 2455.94 1028.55C2455.73 1031.61 2454.8 1034.58 2453.22 1037.21C2451.64 1039.84 2449.46 1042.06 2446.86 1043.69L1849.83 1388.45C1844.78 1391.4 1840.75 1389.29 1840.75 1383.83C1840.97 1380.78 1841.9 1377.83 1843.48 1375.21C1845.06 1372.59 1847.23 1370.39 1849.83 1368.78Z" fill="#E0E0E0"/>
<path d="M1849.83 1427.89L2446.86 1083.13C2451.91 1080.27 2455.94 1082.29 2455.94 1087.75C2455.72 1090.81 2454.79 1093.78 2453.21 1096.41C2451.63 1099.04 2449.46 1101.26 2446.86 1102.89L1849.83 1447.65C1844.78 1450.51 1840.75 1448.49 1840.75 1443.03C1840.97 1439.97 1841.9 1437 1843.48 1434.37C1845.06 1431.74 1847.23 1429.52 1849.83 1427.89Z" fill="#E0E0E0"/>
<path d="M1849.83 1487.09L2446.86 1142.33C2451.91 1139.38 2455.94 1141.49 2455.94 1146.87C2455.73 1149.93 2454.8 1152.89 2453.22 1155.53C2451.64 1158.16 2449.46 1160.38 2446.86 1162L1849.83 1506.77C1844.78 1509.71 1840.75 1507.61 1840.75 1502.23C1840.96 1499.16 1841.89 1496.2 1843.47 1493.57C1845.05 1490.94 1847.23 1488.72 1849.83 1487.09Z" fill="#E0E0E0"/>
<path d="M1849.83 1546.37L2446.86 1201.61C2451.91 1198.75 2455.94 1200.77 2455.94 1206.23C2455.72 1209.29 2454.79 1212.26 2453.21 1214.89C2451.63 1217.52 2449.46 1219.74 2446.86 1221.37L1849.83 1566.13C1844.78 1568.99 1840.75 1566.97 1840.75 1561.51C1840.97 1558.45 1841.9 1555.48 1843.48 1552.85C1845.06 1550.22 1847.23 1548 1849.83 1546.37Z" fill="#E0E0E0"/>
<path d="M1849.83 1368.78L2446.86 1024.01C2451.91 1021.07 2455.94 1023.17 2455.94 1028.55C2455.73 1031.61 2454.8 1034.58 2453.22 1037.21C2451.64 1039.84 2449.46 1042.06 2446.86 1043.69L1849.83 1388.45C1844.78 1391.4 1840.75 1389.29 1840.75 1383.83C1840.97 1380.78 1841.9 1377.83 1843.48 1375.21C1845.06 1372.59 1847.23 1370.39 1849.83 1368.78Z" fill="#E0E0E0"/>
<path d="M1849.83 1427.89L2446.86 1083.13C2451.91 1080.27 2455.94 1082.29 2455.94 1087.75C2455.72 1090.81 2454.79 1093.78 2453.21 1096.41C2451.63 1099.04 2449.46 1101.26 2446.86 1102.89L1849.83 1447.65C1844.78 1450.51 1840.75 1448.49 1840.75 1443.03C1840.97 1439.97 1841.9 1437 1843.48 1434.37C1845.06 1431.74 1847.23 1429.52 1849.83 1427.89Z" fill="#E0E0E0"/>
<path d="M1849.83 1487.09L2446.86 1142.33C2451.91 1139.38 2455.94 1141.49 2455.94 1146.87C2455.73 1149.93 2454.8 1152.89 2453.22 1155.53C2451.64 1158.16 2449.46 1160.38 2446.86 1162L1849.83 1506.77C1844.78 1509.71 1840.75 1507.61 1840.75 1502.23C1840.96 1499.16 1841.89 1496.2 1843.47 1493.57C1845.05 1490.94 1847.23 1488.72 1849.83 1487.09Z" fill="#E0E0E0"/>
<path d="M1849.83 1546.37L2446.86 1201.61C2451.91 1198.75 2455.94 1200.77 2455.94 1206.23C2455.72 1209.29 2454.79 1212.26 2453.21 1214.89C2451.63 1217.52 2449.46 1219.74 2446.86 1221.37L1849.83 1566.13C1844.78 1568.99 1840.75 1566.97 1840.75 1561.51C1840.97 1558.45 1841.9 1555.48 1843.48 1552.85C1845.06 1550.22 1847.23 1548 1849.83 1546.37Z" fill="#E0E0E0"/>
<path d="M1849.83 1797.63L2446.86 1452.87C2451.91 1449.92 2455.94 1452.02 2455.94 1457.41C2455.73 1460.47 2454.8 1463.43 2453.22 1466.07C2451.64 1468.7 2449.46 1470.92 2446.86 1472.54L1849.83 1817.31C1844.78 1820.25 1840.75 1818.15 1840.75 1812.68C1840.97 1809.63 1841.9 1806.68 1843.48 1804.06C1845.06 1801.45 1847.23 1799.24 1849.83 1797.63Z" fill="#E0E0E0"/>
<path d="M1849.83 1856.74L2446.86 1511.98C2451.91 1509.12 2455.94 1511.14 2455.94 1516.6C2455.72 1519.66 2454.79 1522.63 2453.21 1525.26C2451.63 1527.89 2449.46 1530.11 2446.86 1531.74L1849.83 1876.5C1844.78 1879.36 1840.75 1877.35 1840.75 1871.88C1840.97 1868.82 1841.9 1865.86 1843.48 1863.23C1845.06 1860.6 1847.23 1858.38 1849.83 1856.74Z" fill="#E0E0E0"/>
<path d="M1849.83 1915.94L2446.86 1571.18C2451.91 1568.24 2455.94 1570.34 2455.94 1575.72C2455.73 1578.78 2454.8 1581.75 2453.22 1584.38C2451.64 1587.01 2449.46 1589.23 2446.86 1590.86L1849.83 1935.62C1844.78 1938.56 1840.75 1936.46 1840.75 1931.08C1840.96 1928.02 1841.89 1925.05 1843.47 1922.42C1845.05 1919.79 1847.23 1917.57 1849.83 1915.94Z" fill="#E0E0E0"/>
<path d="M1849.83 1975.22L2446.86 1630.46C2451.91 1627.6 2455.94 1629.62 2455.94 1635.09C2455.72 1638.15 2454.79 1641.11 2453.21 1643.74C2451.63 1646.37 2449.46 1648.59 2446.86 1650.22L1849.83 1994.99C1844.78 1997.84 1840.75 1995.83 1840.75 1990.36C1840.97 1987.3 1841.9 1984.34 1843.48 1981.71C1845.06 1979.08 1847.23 1976.86 1849.83 1975.22Z" fill="#E0E0E0"/>
<path d="M1849.83 1797.63L2446.86 1452.87C2451.91 1449.92 2455.94 1452.02 2455.94 1457.41C2455.73 1460.47 2454.8 1463.43 2453.22 1466.07C2451.64 1468.7 2449.46 1470.92 2446.86 1472.54L1849.83 1817.31C1844.78 1820.25 1840.75 1818.15 1840.75 1812.68C1840.97 1809.63 1841.9 1806.68 1843.48 1804.06C1845.06 1801.45 1847.23 1799.24 1849.83 1797.63Z" fill="#E0E0E0"/>
<path d="M1849.83 1856.74L2446.86 1511.98C2451.91 1509.12 2455.94 1511.14 2455.94 1516.6C2455.72 1519.66 2454.79 1522.63 2453.21 1525.26C2451.63 1527.89 2449.46 1530.11 2446.86 1531.74L1849.83 1876.5C1844.78 1879.36 1840.75 1877.35 1840.75 1871.88C1840.97 1868.82 1841.9 1865.86 1843.48 1863.23C1845.06 1860.6 1847.23 1858.38 1849.83 1856.74Z" fill="#E0E0E0"/>
<path d="M1849.83 1915.94L2446.86 1571.18C2451.91 1568.24 2455.94 1570.34 2455.94 1575.72C2455.73 1578.78 2454.8 1581.75 2453.22 1584.38C2451.64 1587.01 2449.46 1589.23 2446.86 1590.86L1849.83 1935.62C1844.78 1938.56 1840.75 1936.46 1840.75 1931.08C1840.96 1928.02 1841.89 1925.05 1843.47 1922.42C1845.05 1919.79 1847.23 1917.57 1849.83 1915.94Z" fill="#E0E0E0"/>
<path d="M1849.83 1975.22L2446.86 1630.46C2451.91 1627.6 2455.94 1629.62 2455.94 1635.09C2455.72 1638.15 2454.79 1641.11 2453.21 1643.74C2451.63 1646.37 2449.46 1648.59 2446.86 1650.22L1849.83 1994.99C1844.78 1997.84 1840.75 1995.83 1840.75 1990.36C1840.97 1987.3 1841.9 1984.34 1843.48 1981.71C1845.06 1979.08 1847.23 1976.86 1849.83 1975.22Z" fill="#E0E0E0"/>
<path d="M1849.83 2234.89L2446.86 1890.13C2451.91 1887.18 2455.94 1889.29 2455.94 1894.67C2455.73 1897.73 2454.8 1900.7 2453.22 1903.33C2451.64 1905.96 2449.46 1908.18 2446.86 1909.8L1849.83 2254.57C1844.78 2257.51 1840.75 2255.41 1840.75 2249.94C1840.97 2246.89 1841.9 2243.94 1843.48 2241.33C1845.06 2238.71 1847.23 2236.5 1849.83 2234.89Z" fill="#E0E0E0"/>
<path d="M1849.83 2294L2446.86 1949.24C2451.91 1946.38 2455.94 1948.4 2455.94 1953.87C2455.72 1956.93 2454.79 1959.89 2453.21 1962.52C2451.63 1965.15 2449.46 1967.37 2446.86 1969L1849.83 2313.77C1844.78 2316.62 1840.75 2314.61 1840.75 2309.14C1840.97 2306.08 1841.9 2303.12 1843.48 2300.49C1845.06 2297.86 1847.23 2295.64 1849.83 2294Z" fill="#E0E0E0"/>
<path d="M1849.83 2353.2L2446.86 2008.44C2451.91 2005.5 2455.94 2007.6 2455.94 2012.98C2455.73 2016.04 2454.8 2019.01 2453.22 2021.64C2451.64 2024.27 2449.46 2026.49 2446.86 2028.12L1849.83 2372.88C1844.78 2375.82 1840.75 2373.72 1840.75 2368.34C1840.96 2365.28 1841.89 2362.31 1843.47 2359.68C1845.05 2357.05 1847.23 2354.83 1849.83 2353.2Z" fill="#E0E0E0"/>
<path d="M1849.83 2412.49L2446.86 2067.72C2451.91 2064.86 2455.94 2066.88 2455.94 2072.35C2455.72 2075.41 2454.79 2078.37 2453.21 2081C2451.63 2083.63 2449.46 2085.85 2446.86 2087.48L1849.83 2432.25C1844.78 2435.11 1840.75 2433.09 1840.75 2427.62C1840.97 2424.56 1841.9 2421.6 1843.48 2418.97C1845.06 2416.34 1847.23 2414.12 1849.83 2412.49Z" fill="#E0E0E0"/>
<path d="M1849.83 2234.89L2446.86 1890.13C2451.91 1887.18 2455.94 1889.29 2455.94 1894.67C2455.73 1897.73 2454.8 1900.7 2453.22 1903.33C2451.64 1905.96 2449.46 1908.18 2446.86 1909.8L1849.83 2254.57C1844.78 2257.51 1840.75 2255.41 1840.75 2249.94C1840.97 2246.89 1841.9 2243.94 1843.48 2241.33C1845.06 2238.71 1847.23 2236.5 1849.83 2234.89Z" fill="#E0E0E0"/>
<path d="M1849.83 2294L2446.86 1949.24C2451.91 1946.38 2455.94 1948.4 2455.94 1953.87C2455.72 1956.93 2454.79 1959.89 2453.21 1962.52C2451.63 1965.15 2449.46 1967.37 2446.86 1969L1849.83 2313.77C1844.78 2316.62 1840.75 2314.61 1840.75 2309.14C1840.97 2306.08 1841.9 2303.12 1843.48 2300.49C1845.06 2297.86 1847.23 2295.64 1849.83 2294Z" fill="#E0E0E0"/>
<path d="M1849.83 2353.2L2446.86 2008.44C2451.91 2005.5 2455.94 2007.6 2455.94 2012.98C2455.73 2016.04 2454.8 2019.01 2453.22 2021.64C2451.64 2024.27 2449.46 2026.49 2446.86 2028.12L1849.83 2372.88C1844.78 2375.82 1840.75 2373.72 1840.75 2368.34C1840.96 2365.28 1841.89 2362.31 1843.47 2359.68C1845.05 2357.05 1847.23 2354.83 1849.83 2353.2Z" fill="#E0E0E0"/>
<path d="M1849.83 2412.49L2446.86 2067.72C2451.91 2064.86 2455.94 2066.88 2455.94 2072.35C2455.72 2075.41 2454.79 2078.37 2453.21 2081C2451.63 2083.63 2449.46 2085.85 2446.86 2087.48L1849.83 2432.25C1844.78 2435.11 1840.75 2433.09 1840.75 2427.62C1840.97 2424.56 1841.9 2421.6 1843.48 2418.97C1845.06 2416.34 1847.23 2414.12 1849.83 2412.49Z" fill="#E0E0E0"/>
<path d="M1855.3 1661.32L1894.73 1638.7C1903.14 1634.08 1909.28 1637.86 1909.28 1647.11V1692.52C1909.02 1697.57 1907.57 1702.49 1905.04 1706.88C1902.51 1711.26 1898.98 1714.99 1894.73 1717.74L1855.55 1740.36C1847.14 1744.99 1841 1741.29 1841 1731.96V1686.72C1841.21 1681.66 1842.62 1676.72 1845.1 1672.3C1847.59 1667.89 1851.08 1664.13 1855.3 1661.32Z" fill="#90CAF9"/>
<path d="M1855.3 1661.32L1894.73 1638.7C1903.14 1634.08 1909.28 1637.86 1909.28 1647.11V1692.52C1909.02 1697.57 1907.57 1702.49 1905.04 1706.88C1902.51 1711.26 1898.98 1714.99 1894.73 1717.74L1855.55 1740.36C1847.14 1744.99 1841 1741.29 1841 1731.96V1686.72C1841.21 1681.66 1842.62 1676.72 1845.1 1672.3C1847.59 1667.89 1851.08 1664.13 1855.3 1661.32Z" fill="white"/>
<path d="M1961.42 1619.78L2198.21 1483.05C2208.3 1477.25 2216.46 1481.37 2216.46 1492.22C2216.01 1498.34 2214.13 1504.28 2210.96 1509.54C2207.79 1514.8 2203.42 1519.24 2198.21 1522.49L1961.42 1658.88C1951.32 1664.68 1943.17 1660.56 1943.17 1649.72C1943.66 1643.65 1945.57 1637.78 1948.74 1632.58C1951.91 1627.39 1956.25 1623 1961.42 1619.78Z" fill="#90CAF9"/>
<path d="M1961.42 1619.78L2198.21 1483.05C2208.3 1477.25 2216.46 1481.37 2216.46 1492.22C2216.01 1498.34 2214.13 1504.28 2210.96 1509.54C2207.79 1514.8 2203.42 1519.24 2198.21 1522.49L1961.42 1658.88C1951.32 1664.68 1943.17 1660.56 1943.17 1649.72C1943.66 1643.65 1945.57 1637.78 1948.74 1632.58C1951.91 1627.39 1956.25 1623 1961.42 1619.78Z" fill="white"/>
<path d="M1855.3 2095.22L1894.73 2072.6C1903.14 2067.89 1909.28 2071.67 1909.28 2081.01V2126.25C1909.01 2131.3 1907.56 2136.22 1905.03 2140.6C1902.5 2144.99 1898.97 2148.71 1894.73 2151.47L1855.55 2174.09C1847.14 2178.72 1841 2174.94 1841 2165.69V2120.45C1841.23 2115.41 1842.65 2110.51 1845.13 2106.12C1847.61 2101.74 1851.1 2098 1855.3 2095.22Z" fill="#90CAF9"/>
<path d="M1855.3 2095.22L1894.73 2072.6C1903.14 2067.89 1909.28 2071.67 1909.28 2081.01V2126.25C1909.01 2131.3 1907.56 2136.22 1905.03 2140.6C1902.5 2144.99 1898.97 2148.71 1894.73 2151.47L1855.55 2174.09C1847.14 2178.72 1841 2174.94 1841 2165.69V2120.45C1841.23 2115.41 1842.65 2110.51 1845.13 2106.12C1847.61 2101.74 1851.1 2098 1855.3 2095.22Z" fill="white"/>
<path d="M1961.42 2054.1L2198.21 1917.29C2208.3 1911.49 2216.46 1915.61 2216.46 1926.54C2216.01 1932.66 2214.12 1938.59 2210.95 1943.85C2207.78 1949.11 2203.41 1953.55 2198.21 1956.81L1961.42 2093.54C1951.32 2099.34 1943.17 2095.22 1943.17 2084.29C1943.63 2078.18 1945.52 2072.26 1948.69 2067.01C1951.86 2061.77 1956.22 2057.35 1961.42 2054.1Z" fill="#90CAF9"/>
<path d="M1961.42 2054.1L2198.21 1917.29C2208.3 1911.49 2216.46 1915.61 2216.46 1926.54C2216.01 1932.66 2214.12 1938.59 2210.95 1943.85C2207.78 1949.11 2203.41 1953.55 2198.21 1956.81L1961.42 2093.54C1951.32 2099.34 1943.17 2095.22 1943.17 2084.29C1943.63 2078.18 1945.52 2072.26 1948.69 2067.01C1951.86 2061.77 1956.22 2057.35 1961.42 2054.1Z" fill="white"/>
<path d="M1911.05 2477.15L1950.23 2454.53C1958.64 2449.91 1964.86 2453.69 1964.86 2462.94V2508.18C1964.59 2513.24 1963.12 2518.16 1960.58 2522.55C1958.03 2526.93 1954.49 2530.65 1950.23 2533.41L1911.05 2556.03C1903.06 2560.73 1896.5 2556.95 1896.5 2547.62V2502.38C1896.79 2497.33 1898.26 2492.42 1900.79 2488.04C1903.31 2483.66 1906.82 2479.93 1911.05 2477.15Z" fill="#90CAF9"/>
<path d="M1849.83 2630.86L2011.53 2537.53C2016.58 2534.67 2020.61 2536.69 2020.61 2542.15C2020.4 2545.21 2019.46 2548.17 2017.88 2550.8C2016.31 2553.43 2014.13 2555.66 2011.53 2557.29L1849.83 2650.63C1844.78 2653.48 1840.75 2651.47 1840.75 2646C1840.97 2642.94 1841.9 2639.98 1843.48 2637.35C1845.06 2634.72 1847.23 2632.5 1849.83 2630.86Z" fill="#E0E0E0"/>
<path d="M2128.58 2351.52L2167.77 2328.9C2175.76 2324.28 2182.32 2328.06 2182.32 2337.31V2382.55C2182.04 2387.6 2180.58 2392.52 2178.06 2396.9C2175.53 2401.28 2172.01 2405.01 2167.77 2407.78L2128.58 2430.4C2120.18 2435.02 2113.95 2431.32 2113.95 2421.99V2376.75C2114.23 2371.69 2115.71 2366.77 2118.25 2362.38C2120.79 2358 2124.33 2354.28 2128.58 2351.52Z" fill="#90CAF9"/>
<path d="M2067.28 2505.24L2228.99 2411.9C2234.03 2408.95 2238.07 2411.06 2238.07 2416.52C2237.85 2419.57 2236.91 2422.52 2235.34 2425.14C2233.76 2427.76 2231.58 2429.96 2228.99 2431.57L2067.28 2525C2062.24 2527.94 2058.2 2525.84 2058.2 2520.46C2058.4 2517.38 2059.33 2514.4 2060.91 2511.75C2062.48 2509.1 2064.67 2506.87 2067.28 2505.24Z" fill="#E0E0E0"/>
<path d="M2346.04 2225.89L2385.22 2203.27C2393.21 2198.56 2399.77 2202.35 2399.77 2211.68V2256.92C2399.48 2261.97 2398.02 2266.88 2395.49 2271.26C2392.97 2275.64 2389.45 2279.37 2385.22 2282.15L2346.04 2304.77C2337.63 2309.39 2331.49 2305.61 2331.49 2296.36V2251.12C2331.75 2246.06 2333.2 2241.14 2335.73 2236.76C2338.26 2232.37 2341.79 2228.65 2346.04 2225.89Z" fill="#90CAF9"/>
<path d="M1911.05 2477.15L1950.23 2454.53C1958.64 2449.91 1964.86 2453.69 1964.86 2462.94V2508.18C1964.59 2513.24 1963.12 2518.16 1960.58 2522.55C1958.03 2526.93 1954.49 2530.65 1950.23 2533.41L1911.05 2556.03C1903.06 2560.73 1896.5 2556.95 1896.5 2547.62V2502.38C1896.79 2497.33 1898.26 2492.42 1900.79 2488.04C1903.31 2483.66 1906.82 2479.93 1911.05 2477.15Z" fill="white"/>
<path d="M2128.58 2351.52L2167.77 2328.9C2175.76 2324.28 2182.32 2328.06 2182.32 2337.31V2382.55C2182.04 2387.6 2180.58 2392.52 2178.06 2396.9C2175.53 2401.28 2172.01 2405.01 2167.77 2407.78L2128.58 2430.4C2120.18 2435.02 2113.95 2431.32 2113.95 2421.99V2376.75C2114.23 2371.69 2115.71 2366.77 2118.25 2362.38C2120.79 2358 2124.33 2354.28 2128.58 2351.52Z" fill="white"/>
<path d="M2346.04 2225.89L2385.22 2203.27C2393.21 2198.56 2399.77 2202.35 2399.77 2211.68V2256.92C2399.48 2261.97 2398.02 2266.88 2395.49 2271.26C2392.97 2275.64 2389.45 2279.37 2385.22 2282.15L2346.04 2304.77C2337.63 2309.39 2331.49 2305.61 2331.49 2296.36V2251.12C2331.75 2246.06 2333.2 2241.14 2335.73 2236.76C2338.26 2232.37 2341.79 2228.65 2346.04 2225.89Z" fill="white"/>
<path d="M2284.74 2379.61L2446.44 2286.27C2451.48 2283.33 2455.52 2285.43 2455.52 2290.81C2455.31 2293.87 2454.38 2296.84 2452.8 2299.47C2451.22 2302.1 2449.04 2304.32 2446.44 2305.95L2284.74 2399.28C2279.78 2402.23 2275.66 2400.12 2275.66 2394.66C2275.89 2391.62 2276.84 2388.67 2278.41 2386.06C2279.99 2383.44 2282.16 2381.24 2284.74 2379.61Z" fill="#E0E0E0"/>
<path d="M1483.46 976.587C1389.11 1029.73 1312.67 1162.17 1312.67 1272.33C1312.67 1382.48 1389.11 1427.72 1483.46 1373.23C1577.8 1318.74 1654.24 1186.39 1654.24 1077.41C1654.24 968.431 1577.72 923.359 1483.46 976.587Z" fill="black"/>
<path d="M1483.46 976.587C1389.11 1029.73 1312.67 1162.17 1312.67 1272.33C1312.67 1382.48 1389.11 1427.72 1483.46 1373.23C1577.8 1318.74 1654.24 1186.39 1654.24 1077.41C1654.24 968.431 1577.72 923.359 1483.46 976.587Z" fill="#FAFAFA"/>
<path d="M1566.2 1316.05L1429.47 1352.72C1427.12 1353.48 1424.61 1353.65 1422.17 1353.21C1419.74 1352.76 1417.45 1351.71 1415.52 1350.16C1413.59 1348.61 1412.08 1346.6 1411.12 1344.31C1410.17 1342.03 1409.8 1339.54 1410.05 1337.08V1104.32C1410.53 1085.05 1416.96 1066.41 1428.47 1050.95C1439.97 1035.48 1455.98 1023.96 1474.29 1017.96L1521.04 1005.43C1556.61 995.927 1585.45 1019.14 1585.45 1057.23V1290.07C1585.3 1295.85 1583.37 1301.45 1579.93 1306.1C1576.48 1310.75 1571.69 1314.22 1566.2 1316.05Z" fill="#37474F"/>
<path d="M1572.76 1376.26L1558.38 1312.77C1558.38 1312.77 1558.38 1227.09 1546.19 1219.18C1533.99 1211.28 1530.46 1209.77 1530.46 1209.77C1546.1 1204.38 1579.06 1200.35 1589.32 1230.45C1599.16 1258.87 1613.88 1328.92 1620.86 1363.4L1572.76 1376.26Z" fill="#F28F8F"/>
<path d="M1571.58 1376.6L1522.81 1210.52C1544.42 1202.11 1572.17 1195.13 1585.62 1217.42C1597.73 1237.43 1617.07 1342.29 1620.86 1363.4L1571.58 1376.6Z" fill="#90CAF9"/>
<path d="M1571.58 1376.6L1522.81 1210.52C1544.42 1202.11 1572.17 1195.13 1585.62 1217.42C1597.73 1237.43 1617.07 1342.29 1620.86 1363.4L1571.58 1376.6Z" fill="black"/>
<path d="M1578.14 1374.83L1530.21 1387.7C1532.14 1373.93 1536.68 1360.66 1543.58 1348.6C1553.17 1334.77 1566.98 1324.42 1582.93 1319.08C1579.48 1337.46 1577.87 1356.13 1578.14 1374.83Z" fill="#90CAF9"/>
<path d="M1578.14 1374.83L1530.21 1387.7C1532.14 1373.93 1536.68 1360.66 1543.58 1348.6C1553.17 1334.77 1566.98 1324.42 1582.93 1319.08C1579.48 1337.46 1577.87 1356.13 1578.14 1374.83Z" fill="#90CAF9"/>
<path d="M1578.14 1374.83L1530.21 1387.7C1532.14 1373.93 1536.68 1360.66 1543.58 1348.6C1553.17 1334.77 1566.98 1324.42 1582.93 1319.08C1579.48 1337.46 1577.87 1356.13 1578.14 1374.83Z" fill="black"/>
<path d="M1567.88 1377.61L1433.34 1413.51L1418.54 1367.68C1418.54 1367.68 1457.81 1275.77 1409.29 1252.15C1415.43 1247.52 1467.14 1227.34 1467.14 1227.34L1522.72 1210.52C1533.32 1207.66 1576.12 1226.67 1586.97 1268.8C1590.84 1283.68 1589.49 1297.05 1567.71 1374.58C1567.96 1375.59 1567.88 1376.6 1567.88 1377.61Z" fill="#90CAF9"/>
<path d="M1556.78 1034.02C1566.03 1037.38 1577.47 1059.25 1576.37 1111.97C1575.45 1156.71 1561.99 1170.83 1555.27 1176.21C1545.19 1181.26 1534.08 1183.88 1522.81 1183.87L1522.81 1210.52C1522.81 1210.52 1540.3 1227.34 1539.21 1240.12C1538.11 1252.9 1513.98 1261.98 1497.67 1254.42C1485.75 1247.7 1475.45 1238.46 1467.48 1227.34V1165.95C1466.25 1167.37 1464.75 1168.53 1463.07 1169.36C1461.39 1170.19 1459.56 1170.68 1457.69 1170.79C1455.82 1170.91 1453.95 1170.66 1452.18 1170.04C1450.41 1169.43 1448.78 1168.47 1447.38 1167.22C1444.76 1165.42 1442.52 1163.11 1440.8 1160.43C1439.08 1157.76 1437.91 1154.76 1437.37 1151.62C1436.83 1148.49 1436.93 1145.28 1437.65 1142.18C1438.37 1139.08 1439.71 1136.15 1441.58 1133.58C1449.99 1122.57 1464.7 1120.97 1470.42 1131.98C1477.54 1114.71 1490.28 1100.34 1506.58 1091.2C1533.15 1075.05 1547.61 1060.68 1556.78 1034.02Z" fill="#FFA8A7"/>
<path d="M1530.12 1113.23C1530.16 1114.83 1529.7 1116.39 1528.82 1117.72C1527.93 1119.04 1526.65 1120.06 1525.16 1120.63C1524.53 1120.85 1523.86 1120.91 1523.19 1120.81C1522.53 1120.71 1521.91 1120.45 1521.37 1120.05C1520.83 1119.65 1520.4 1119.13 1520.11 1118.53C1519.81 1117.93 1519.67 1117.26 1519.7 1116.59C1519.66 1115 1520.12 1113.43 1521.01 1112.11C1521.89 1110.78 1523.17 1109.77 1524.66 1109.19C1525.29 1108.98 1525.97 1108.91 1526.63 1109.02C1527.29 1109.12 1527.92 1109.38 1528.45 1109.77C1528.99 1110.17 1529.43 1110.69 1529.72 1111.3C1530.01 1111.9 1530.15 1112.56 1530.12 1113.23Z" fill="#37474F"/>
<path d="M1531.47 1150.57L1543.58 1151.41C1543.22 1153.25 1542.26 1154.93 1540.84 1156.16C1539.43 1157.4 1537.64 1158.12 1535.76 1158.22C1532.39 1157.97 1530.46 1154.35 1531.47 1150.57Z" fill="#F28F8F"/>
<path d="M1572.84 1084.64L1562.33 1079.68C1562.96 1078.05 1564.16 1076.72 1565.71 1075.92C1567.27 1075.13 1569.06 1074.94 1570.74 1075.39C1571.49 1075.85 1572.14 1076.46 1572.66 1077.18C1573.17 1077.9 1573.54 1078.71 1573.73 1079.57C1573.93 1080.44 1573.95 1081.33 1573.8 1082.2C1573.64 1083.07 1573.32 1083.9 1572.84 1084.64Z" fill="#37474F"/>
<path d="M1514.99 1104.32L1525.5 1093.64C1524.94 1093.07 1524.27 1092.63 1523.53 1092.34C1522.79 1092.05 1522 1091.92 1521.2 1091.96C1520.41 1092 1519.63 1092.21 1518.92 1092.57C1518.21 1092.93 1517.59 1093.44 1517.09 1094.06C1515.63 1095.28 1514.63 1096.96 1514.25 1098.82C1513.87 1100.68 1514.13 1102.62 1514.99 1104.32Z" fill="#37474F"/>
<path d="M1570.4 1098.43C1570.45 1100.03 1570 1101.6 1569.11 1102.93C1568.22 1104.25 1566.94 1105.27 1565.44 1105.83C1564.8 1106.05 1564.12 1106.11 1563.45 1106.01C1562.78 1105.9 1562.15 1105.64 1561.61 1105.23C1561.07 1104.82 1560.64 1104.29 1560.35 1103.67C1560.07 1103.06 1559.94 1102.39 1559.98 1101.71C1559.95 1100.12 1560.41 1098.56 1561.3 1097.24C1562.19 1095.91 1563.46 1094.89 1564.94 1094.31C1565.58 1094.09 1566.26 1094.03 1566.93 1094.13C1567.6 1094.24 1568.23 1094.51 1568.77 1094.91C1569.31 1095.32 1569.74 1095.85 1570.03 1096.47C1570.31 1097.08 1570.44 1097.76 1570.4 1098.43Z" fill="#37474F"/>
<path d="M1545.85 1101.79L1546.61 1135.18L1563.17 1125.26L1545.85 1101.79Z" fill="#F28F8F"/>
<path d="M1522.81 1183.87C1509.52 1185.55 1482.11 1184.45 1477.82 1174.03C1479.38 1179.15 1482.8 1183.5 1487.41 1186.22C1495.82 1191.6 1522.81 1192.78 1522.81 1192.78L1522.81 1183.87Z" fill="#F28F8F"/>
<path d="M1434.1 1413.43L1428.46 1393.41L1443.26 1410.99L1434.1 1413.43Z" fill="#90CAF9"/>
<path d="M1423.08 1416.37C1417.04 1387.6 1408.86 1359.33 1398.61 1331.78C1384.48 1293.01 1400.29 1259.55 1409.79 1252.15C1419.3 1244.75 1467.65 1227.34 1467.65 1227.34C1485.14 1277.12 1489.93 1343.8 1490.35 1398.38L1423.08 1416.37Z" fill="#90CAF9"/>
<path d="M1423.08 1416.37C1417.04 1387.6 1408.86 1359.33 1398.61 1331.78C1384.48 1293.01 1400.29 1259.55 1409.79 1252.15C1419.3 1244.75 1467.65 1227.34 1467.65 1227.34C1485.14 1277.12 1489.93 1343.8 1490.35 1398.38L1423.08 1416.37Z" fill="black"/>
<path d="M1399.2 1422.76L1351.18 1435.63C1349.84 1434.72 1348.58 1433.71 1347.4 1432.6C1347.4 1432.6 1370.1 1344.98 1377.34 1315.89C1384.57 1286.79 1390.12 1266.78 1409.63 1252.15C1444.69 1274.93 1428.46 1338.25 1428.46 1338.25L1399.2 1422.76Z" fill="#90CAF9"/>
<path d="M1399.2 1422.76L1351.18 1435.63C1349.84 1434.72 1348.58 1433.71 1347.4 1432.6C1347.4 1432.6 1370.1 1344.98 1377.34 1315.89C1384.57 1286.79 1390.12 1266.78 1409.63 1252.15C1444.69 1274.93 1428.46 1338.25 1428.46 1338.25L1399.2 1422.76Z" fill="black"/>
<path d="M700.085 696.235C699.58 663.945 720.602 631.571 763.235 607.017C847.324 558.33 984.052 558.33 1068.31 607.017C1110.94 631.571 1131.96 663.945 1131.46 696.235V862.226C1131.46 894.348 1110.77 951.781 1068.31 976.251C984.22 1024.94 847.492 1024.94 763.235 976.251C721.191 952.033 700.169 895.021 700.085 863.151V696.235Z" fill="#E0E0E0"/>
<path d="M915.772 489.545L1271.72 695.058L915.772 900.571L559.824 695.058L915.772 489.545Z" fill="#E0E0E0"/>
<path d="M737.672 797.73L912.997 697.664C913.72 697.25 914.518 696.983 915.345 696.877C916.172 696.771 917.011 696.829 917.815 697.048C918.62 697.267 919.373 697.641 920.032 698.151C920.692 698.661 921.244 699.296 921.658 700.019C922.072 700.742 922.34 701.54 922.446 702.367C922.552 703.194 922.494 704.033 922.275 704.837C922.056 705.641 921.681 706.395 921.172 707.054C920.662 707.714 920.027 708.266 919.304 708.68L750.201 804.962L737.672 797.73Z" fill="#E0E0E0"/>
<path d="M1271.72 695.058V709.773L915.772 915.202L915.772 900.571L1271.72 695.058Z" fill="#E0E0E0"/>
<path d="M559.824 695.058V709.773L915.772 915.202L915.772 900.571L559.824 695.058Z" fill="#E0E0E0"/>
<path d="M728.843 807.316L739.69 813.539C741.33 810.86 743.614 808.635 746.333 807.064L750.117 804.878L737.756 797.814C734.105 800.267 731.058 803.516 728.843 807.316Z" fill="#E0E0E0"/>
<path d="M1131.88 790.498L915.772 937.233L700.253 790.835L915.772 915.202L1131.88 790.498Z" fill="#E0E0E0"/>
<path d="M714.968 980.371C717.984 981.927 721.329 982.739 724.723 982.739C728.116 982.739 731.461 981.927 734.477 980.371L750.538 1084.05C750.538 1103.64 699.664 1103.64 699.664 1084.05L714.968 980.371Z" fill="#E0E0E0"/>
<path d="M714.043 1039.57L710.848 1096.41C709.799 1096.1 708.785 1095.67 707.821 1095.15L714.043 1039.57Z" fill="#E0E0E0"/>
<path d="M738.093 1096.83L731.366 1004.34L741.372 1095.49C740.307 1096 739.211 1096.45 738.093 1096.83Z" fill="#E0E0E0"/>
<path d="M726.656 1098.68H723.461L725.143 1025.27L726.656 1098.68Z" fill="#E0E0E0"/>
<path d="M724.638 989.032C728.366 988.939 731.976 987.707 734.981 985.5C736.259 984.557 737.128 983.16 737.409 981.597C737.691 980.033 737.364 978.421 736.495 977.091C735.577 975.783 734.185 974.884 732.615 974.585C731.045 974.287 729.42 974.613 728.086 975.494C727.286 976.269 726.215 976.703 725.101 976.703C723.987 976.703 722.916 976.269 722.116 975.494C721.462 974.911 720.694 974.472 719.861 974.203C719.027 973.933 718.147 973.841 717.276 973.931C716.405 974.02 715.562 974.29 714.801 974.723C714.04 975.157 713.378 975.744 712.857 976.447C712.335 977.15 711.965 977.955 711.772 978.808C711.578 979.662 711.564 980.547 711.731 981.407C711.898 982.266 712.242 983.082 712.742 983.801C713.241 984.52 713.885 985.128 714.632 985.584C717.526 987.749 721.025 988.955 724.638 989.032Z" fill="#E0E0E0"/>
<path d="M725.059 972.887C725.883 972.898 726.701 972.745 727.466 972.438C728.231 972.13 728.927 971.673 729.513 971.094C730.1 970.515 730.566 969.826 730.884 969.065C731.202 968.305 731.366 967.489 731.366 966.664V819.677C731.374 816.372 732.248 813.127 733.9 810.265C735.552 807.403 737.926 805.024 740.783 803.364L919.304 701.617C920.722 700.805 921.763 699.468 922.204 697.895C922.644 696.321 922.448 694.638 921.658 693.208C921.264 692.498 920.733 691.873 920.096 691.369C919.459 690.865 918.728 690.493 917.946 690.274C917.164 690.055 916.346 689.994 915.54 690.093C914.733 690.193 913.955 690.451 913.249 690.853L734.309 792.769C729.539 795.523 725.576 799.481 722.816 804.248C720.057 809.014 718.597 814.422 718.584 819.93V966.917C718.616 967.734 718.81 968.537 719.153 969.28C719.496 970.022 719.982 970.69 720.583 971.244C721.185 971.799 721.89 972.229 722.658 972.511C723.426 972.793 724.242 972.921 725.059 972.887Z" fill="#E0E0E0"/>
<path d="M738.849 966.664C738.866 963.933 738.072 961.259 736.566 958.98C735.061 956.701 732.913 954.921 730.395 953.864C727.876 952.807 725.101 952.522 722.42 953.045C719.74 953.567 717.275 954.874 715.338 956.799C713.401 958.725 712.079 961.182 711.54 963.859C711.001 966.536 711.269 969.314 712.31 971.838C713.351 974.363 715.119 976.522 717.389 978.041C719.658 979.56 722.328 980.371 725.059 980.371C726.866 980.382 728.657 980.036 730.33 979.352C732.003 978.668 733.524 977.66 734.805 976.386C736.087 975.112 737.104 973.598 737.798 971.929C738.492 970.261 738.85 968.472 738.849 966.664Z" fill="#E0E0E0"/>
<path d="M711.436 967.421C712.011 968.844 712.885 970.126 714 971.18C715.114 972.235 716.443 973.036 717.895 973.531C719.347 974.026 720.889 974.202 722.416 974.047C723.942 973.892 725.417 973.411 726.741 972.635C728.429 971.617 729.827 970.181 730.797 968.464C731.766 966.748 732.276 964.81 732.276 962.838C732.276 960.867 731.766 958.929 730.797 957.212C729.827 955.496 728.429 954.059 726.741 953.042C729.313 953.397 731.732 954.475 733.715 956.152C735.698 957.828 737.165 960.033 737.943 962.51C738.722 964.988 738.781 967.635 738.113 970.145C737.445 972.654 736.078 974.922 734.171 976.685C732.264 978.448 729.895 979.632 727.341 980.101C724.787 980.57 722.152 980.303 719.744 979.333C717.335 978.362 715.252 976.727 713.737 974.618C712.221 972.509 711.336 970.014 711.184 967.421H711.436Z" fill="#E0E0E0"/>
<path d="M3161.19 885.519L3096.19 848.099L3131.93 840.531L3167.5 865.338L3161.19 885.519Z" fill="#E0E0E0"/>
<path d="M3047.42 550.593C3047.42 449.687 2985.62 402.849 2909.68 446.66L2797.51 511.408C2721.83 555.218 2659.86 673.279 2659.86 774.522C2659.86 778.642 2659.86 782.93 2659.86 786.546C2659.86 788.817 2659.86 790.751 2659.86 792.937C2659.86 795.123 2660.28 796.889 2660.45 798.823C2660.61 800.757 2660.95 803.28 2661.29 805.466C2662.98 817.416 2665.97 829.145 2670.2 840.447C2671.97 844.652 2673.82 848.856 2675.83 852.388C2676.77 854.338 2677.83 856.221 2679.03 858.022L2680.12 859.788C2681.99 862.8 2684.16 865.617 2686.6 868.196C2687.94 869.71 2689.2 871.308 2690.63 872.737L2695.01 876.942C2696.52 878.119 2697.95 879.548 2699.55 880.726C2701.06 881.942 2702.66 883.039 2704.34 884.005L2709.3 886.864C2715.73 890.333 2722.69 892.692 2729.9 893.844C2730.46 893.708 2731.03 893.708 2731.58 893.844C2733.52 893.844 2735.28 894.264 2737.22 894.264C2739.26 894.432 2741.31 894.432 2743.36 894.264C2748.76 894.323 2754.15 893.73 2759.42 892.498C2762.57 891.872 2765.68 891.086 2768.75 890.144C2778.58 887.133 2788.01 882.955 2796.84 877.698L2909.01 812.95C2916.7 808.486 2924.06 803.484 2931.04 797.982C2931.04 796.637 2931.04 795.46 2931.04 794.198C2931.04 792.937 2931.04 790.246 2931.04 788.733C2931.04 785.369 2931.04 781.921 2931.04 778.474C2930.79 692.451 2982.59 590.956 3047.42 550.593Z" fill="#E0E0E0"/>
<path d="M3066.34 477.857L3001.17 440.353C3001.59 440.353 3007.82 485.677 3007.82 485.677L3056.17 491.395L3066.34 477.857Z" fill="#E0E0E0"/>
<path d="M2765.22 918.566L2705.01 884.426L2741.25 868.869L2765.22 918.566Z" fill="#E0E0E0"/>
<path d="M2797.51 878.707C2797.08 903.627 2789.07 927.825 2774.55 948.081C2771.86 951.612 2775.98 954.724 2779.01 953.126C2792.75 945.994 2804.93 936.188 2814.83 924.284C2833.85 901.806 2847.15 875.063 2853.6 846.333L2797.51 878.707Z" fill="#E0E0E0"/>
<path d="M2775.23 952.958L2840.4 990.461C2840.4 990.461 2876.97 959.601 2876.97 897.123L2806.26 892.33C2806.26 892.33 2804.57 933.029 2775.23 952.958Z" fill="#E0E0E0"/>
<path d="M2948.79 769.14C2948.79 772.279 2948.79 775.306 2948.79 778.221C2948.79 779.903 2948.79 781.333 2948.79 782.93C2948.79 784.528 2948.79 785.874 2949.29 787.387C2949.79 788.901 2949.29 790.751 2949.88 792.432C2950.85 799.881 2952.6 807.209 2955.09 814.296C2955.45 815.587 2955.9 816.851 2956.44 818.08C2957.05 819.769 2957.75 821.425 2958.54 823.041C2959.2 824.603 2959.95 826.12 2960.81 827.582C2961.48 829.047 2962.26 830.453 2963.16 831.786L2964.01 833.131C2965.49 835.448 2967.12 837.667 2968.88 839.774C2969.8 841 2970.81 842.153 2971.91 843.222L2975.11 846.333C2976.2 847.356 2977.35 848.311 2978.55 849.192C2979.7 850.083 2980.91 850.897 2982.17 851.631C2983.43 852.388 2984.61 853.145 2985.95 853.817L2989.82 855.667L2993.86 857.097C2996.32 857.842 2998.82 858.459 3001.34 858.947H3002.6C3004 859.075 3005.41 859.075 3006.81 858.947C3008.32 859.118 3009.84 859.118 3011.35 858.947C3014.96 858.945 3018.57 858.579 3022.11 857.854C3024.95 857.372 3027.76 856.727 3030.52 855.92C3037.9 853.657 3044.99 850.524 3051.63 846.586L3135.71 797.982C3143.22 793.654 3150.28 788.613 3156.82 782.93C3159.18 780.912 3161.53 778.726 3163.88 776.54C3168.12 772.591 3172.14 768.408 3175.91 764.011L3181.29 759.133C3182.72 757.452 3184.07 755.686 3185.5 753.92C3185.84 753.309 3186.27 752.744 3186.76 752.238C3192.36 744.835 3197.52 737.114 3202.23 729.114C3203.49 727.011 3204.67 724.825 3205.93 722.639C3207.19 720.453 3208.37 718.266 3209.54 715.996C3210.72 713.725 3211.81 711.455 3212.99 709.269L3216.19 702.373C3217.28 700.103 3218.29 697.665 3219.3 695.478C3221.06 691.442 3222.66 687.069 3224.09 683.201C3224.09 682.444 3224.68 681.688 3224.93 680.931C3225.86 678.576 3226.61 676.222 3227.37 673.867C3228.89 669.327 3230.23 664.786 3231.58 660.077C3234.53 649.025 3236.75 637.788 3238.22 626.441C3238.22 624.507 3238.64 622.657 3238.89 620.723C3239.14 618.789 3238.89 617.444 3239.31 615.762C3239.73 614.08 3239.31 612.399 3239.31 610.717C3239.31 607.577 3239.31 604.466 3239.31 601.383C3239.31 525.703 3192.98 490.302 3135.97 523.18L3051.88 571.868C2995.12 604.578 2948.79 693.124 2948.79 769.14Z" fill="#E0E0E0"/>
<path d="M3269.67 555.47L3205 518.303L3180.62 535.541L3256.05 581.202L3269.67 555.47Z" fill="#E0E0E0"/>
<path d="M3047.67 889.05L2982.67 851.631L3033.63 836.411L3047.67 889.05Z" fill="#E0E0E0"/>
<path d="M3123.52 806.139C3123.52 819.593 3140.34 837.924 3159.6 841.372C3162.2 841.877 3161.53 847.595 3158.42 849.781C3146.94 856.014 3133.7 858.206 3120.83 856.004C3112.47 855.754 3104.33 853.287 3097.24 848.854C3090.14 844.421 3084.36 838.182 3080.47 830.777L3123.52 806.139Z" fill="#90CAF9"/>
<path d="M2974.77 484.079L2862.51 548.911C2786.83 592.722 2724.94 710.782 2724.94 811.941C2724.94 816.145 2724.94 820.35 2724.94 824.05C2724.94 826.32 2724.94 828.254 2724.94 830.441C2724.94 832.627 2725.36 834.309 2725.61 836.243C2725.87 838.177 2726.12 840.868 2726.46 842.97C2727.97 854.875 2730.79 866.577 2734.86 877.867C2736.63 882.155 2738.48 886.276 2740.5 889.891C2741.43 891.817 2742.49 893.672 2743.69 895.441C2744.05 896.055 2744.44 896.645 2744.87 897.207C2746.7 900.385 2748.84 903.371 2751.26 906.12C2752.61 907.634 2753.95 909.316 2755.38 910.661L2759.67 914.866C2761.18 916.043 2762.7 917.472 2764.21 918.65C2765.73 919.847 2767.34 920.943 2769 921.929L2774.05 924.788C2780.45 928.243 2787.39 930.603 2794.57 931.768C2795.11 931.582 2795.7 931.582 2796.25 931.768C2798.18 931.768 2800.03 931.768 2801.88 931.768C2803.93 931.892 2805.98 931.892 2808.02 931.768C2813.42 931.791 2818.81 931.198 2824.08 930.002C2827.23 929.376 2830.35 928.59 2833.42 927.647C2843.22 924.611 2852.64 920.464 2861.5 915.286C2861.09 940.195 2853.04 964.377 2838.46 984.575C2835.77 988.191 2839.89 991.302 2843 989.705C2856.76 982.565 2868.95 972.728 2878.82 960.778C2897.79 938.3 2911.09 911.596 2917.59 882.912L2909.18 887.537L2973.34 850.538C2979.55 846.96 2985.53 843 2991.25 838.681C2990.76 836.547 2990.39 834.385 2990.16 832.206C2990.16 830.777 2989.65 828.675 2989.48 826.488C2989.18 824.623 2988.98 822.742 2988.9 820.854V819.845C2988.81 818.445 2988.81 817.041 2988.9 815.641C2988.9 812.446 2988.9 809.082 2988.9 805.719C2988.9 720.621 3039.35 624.675 3104.27 587.088L3111.41 582.883C3110.74 485.593 3049.61 440.857 2974.77 484.079Z" fill="#F0F0F0"/>
<path d="M3201.39 560.432L3117.3 609.035C3060.37 641.998 3013.95 730.543 3013.95 806.56C3013.95 809.671 3013.95 812.698 3013.95 815.641C3013.95 818.584 3013.95 818.752 3013.95 820.35C3013.95 821.948 3013.95 823.293 3014.37 824.807C3014.51 826.471 3014.74 828.127 3015.05 829.768C3015.97 837.253 3017.72 844.614 3020.26 851.715C3020.58 853.018 3021.03 854.285 3021.61 855.499C3022.18 857.166 3022.85 858.794 3023.62 860.376C3024.3 861.958 3025.05 863.502 3025.9 865.001C3026.59 866.468 3027.4 867.875 3028.33 869.206C3028.53 869.683 3028.78 870.135 3029.09 870.551C3030.69 872.906 3032.29 875.092 3033.97 877.194C3034.94 878.401 3035.98 879.552 3037.08 880.642L3040.27 883.753C3041.36 884.775 3042.52 885.73 3043.72 886.612C3044.83 887.52 3046.01 888.335 3047.25 889.051C3048.51 889.807 3049.69 890.564 3051.04 891.237L3054.91 893.087L3058.94 894.516C3061.4 895.261 3063.9 895.879 3066.43 896.366H3067.69C3069.09 896.494 3070.49 896.494 3071.89 896.366C3073.43 896.579 3074.98 896.579 3076.52 896.366C3080.13 896.387 3083.73 896.049 3087.28 895.357C3090.12 894.869 3092.92 894.223 3095.69 893.423C3103.08 891.193 3110.17 888.058 3116.79 884.089L3145.22 867.776C3149.16 875.103 3154.97 881.257 3162.06 885.614C3169.15 889.97 3177.26 892.374 3185.58 892.582C3198.46 894.753 3211.7 892.531 3223.17 886.276C3226.19 884.342 3226.95 878.624 3224.26 877.867C3205 874.419 3188.27 856.088 3188.27 842.634L3201.05 835.234C3208.54 830.885 3215.61 825.845 3222.16 820.182C3224.51 818.164 3226.87 815.977 3229.14 813.791C3233.4 809.843 3237.45 805.661 3241.25 801.262C3242.76 799.496 3244.27 797.814 3245.79 795.796C3247.3 793.778 3248.56 792.433 3249.99 790.667L3251.25 788.985C3256.85 781.582 3262.02 773.861 3266.73 765.861L3270.51 759.386C3271.77 757.199 3272.95 755.013 3274.12 752.743C3275.3 750.472 3276.31 748.202 3277.49 746.016L3280.77 739.12C3281.86 736.766 3282.79 734.411 3283.8 732.225C3285.56 728.189 3287.24 723.816 3288.67 719.948L3289.43 717.678C3290.35 715.323 3291.19 712.969 3291.87 710.614C3293.47 705.989 3294.73 701.533 3296.16 696.824C3299.11 685.772 3301.33 674.535 3302.8 663.188C3302.8 661.254 3303.22 659.404 3303.39 657.47C3303.56 655.536 3303.39 654.107 3303.81 652.509C3304.23 650.911 3303.81 649.145 3303.81 647.464C3303.81 644.352 3303.81 641.157 3303.81 638.046C3304.73 562.618 3258.32 527.553 3201.39 560.432Z" fill="#F0F0F0"/>
<path d="M2525.82 1672.76C2494.03 1662.84 2461.41 1688.57 2440.05 1740.53C2418.69 1792.5 2373.87 1924.69 2367.23 1959.92C2360.59 1995.15 2510.94 2071.84 2506.73 2069.82C2502.53 2067.81 2525.82 1672.76 2525.82 1672.76Z" fill="#263238"/>
<path d="M2455.94 2895.91C2451.4 2897.59 2450.31 2906.17 2449.63 2923.16C2449.13 2936.02 2446.36 2958.47 2461.41 2962.93C2476.46 2967.39 2498.57 2965.12 2508.24 2953.01C2520.27 2937.87 2528.43 2924.59 2545.58 2906.09C2560.55 2890.11 2576.61 2875.14 2582.66 2852.69C2588.13 2832.34 2583.59 2823.6 2569.71 2817.71C2550.71 2809.3 2520.77 2836.04 2505.89 2840.25C2493.02 2843.86 2460.4 2894.23 2455.94 2895.91Z" fill="#263238"/>
<path d="M2455.94 2880.19V2901.04C2463.77 2906.05 2472.82 2908.83 2482.1 2909.08C2491.39 2909.33 2500.58 2907.05 2508.67 2902.47C2509.59 2900.45 2514.13 2872.62 2514.13 2872.62L2455.94 2880.19Z" fill="#FFA8A7"/>
<path d="M2624.88 3016.16C2624.88 3016.16 2618.91 3034.32 2615.71 3049.79C2613.1 3062.41 2609.49 3083.43 2613.86 3093.02C2618.23 3102.6 2635.55 3108.66 2662.21 3108.4C2679.53 3108.4 2706.53 3120.09 2724.94 3130.35C2743.36 3140.61 2783.8 3145.24 2803.9 3142.88C2827.61 3140.11 2852.25 3126.06 2856.12 3116.48C2859.99 3106.89 2854.86 3096.38 2798.86 3072.5C2798.35 3072.5 2720.99 3047.27 2693.83 3017.25L2624.88 3016.16Z" fill="#263238"/>
<path d="M2624.88 2993.62C2624.88 2993.62 2624.88 3009.1 2624.88 3017.92C2624.88 3026.75 2635.3 3039.96 2662.38 3039.03C2681.38 3038.36 2694.59 3033.23 2693.83 3017.59V2994.97L2624.88 2993.62Z" fill="#FFA8A7"/>
<path d="M2442.32 2603.28C2446.97 2566.32 2455.22 2529.91 2466.96 2494.56C2466.96 2494.56 2459.56 2400.8 2455.94 2311.92C2452.07 2215.89 2455.94 2095.14 2454.34 2071.25C2454.34 2071.25 2764.21 2008.52 2769.76 2119.52C2775.31 2230.52 2757.48 2513.06 2753.87 2561.83C2750.25 2610.6 2741.76 2653.74 2731.67 2732.78C2721.58 2811.82 2693.83 2994.97 2693.83 2994.97C2683.11 3000.43 2671.21 3003.17 2659.18 3002.93C2647.16 3002.7 2635.37 2999.5 2624.88 2993.62C2624.88 2993.62 2603.1 2771.63 2605.37 2715.37C2607.14 2673.59 2614.32 2632.21 2626.73 2592.27L2615.71 2421.15C2610.5 2341.52 2605.03 2303.42 2603.77 2268.69L2597.13 2265.33C2597.13 2265.33 2590.32 2402.73 2586.7 2451.5C2583.08 2500.28 2575.26 2547.03 2561.47 2637.59C2549.2 2716.13 2512.79 2882.37 2512.79 2882.37C2477.38 2901.55 2456.28 2879.94 2456.28 2879.94C2456.28 2879.94 2432.9 2671.4 2442.32 2603.28Z" fill="#455A64"/>
<path d="M2603.77 2268.95C2603.77 2268.95 2528.59 2231.86 2491.01 2198.48C2491.01 2198.48 2525.9 2247.67 2571.82 2269.54C2571.82 2269.54 2588.13 2440.15 2588.04 2436.79L2597.46 2268.61L2603.77 2268.95Z" fill="#37474F"/>
<path d="M2670.7 1637.61L2652.37 1738.52L2561.22 1731.87L2580.31 1617.43L2670.7 1637.61Z" fill="#FFA8A7"/>
<path d="M2464.94 1724.47C2473.94 1697.06 2508.75 1667.21 2543.56 1674.02C2595.34 1682.78 2646.36 1695.51 2696.18 1712.11C2728.05 1723.46 2757.06 1751.04 2759.75 1855.99L2775.9 2168.46L2737.3 2176.87L2723.85 2106.07L2717.63 2176.87C2677.26 2186.96 2607.22 2178.64 2561.22 2168.46C2465.36 2147.52 2453.84 2107.75 2453.84 2107.75C2453.84 2107.75 2452.58 1931.92 2455.44 1855.99C2458.13 1791.07 2458.72 1742.97 2464.94 1724.47Z" fill="#37474F"/>
<path d="M2738.14 1518.03C2738.14 1518.03 2760.26 1550.74 2757.4 1554.19C2752.29 1557.64 2746.59 1560.12 2740.58 1561.51L2738.14 1518.03Z" fill="#FFA8A7"/>
<path d="M2670.7 1414.44C2691.98 1425.2 2728.73 1445.05 2738.82 1522.83C2749.24 1602.71 2735.54 1628.44 2724.77 1639.04C2717.46 1646.19 2677.77 1646.61 2657.92 1640.64C2632.7 1633.15 2577.03 1611.88 2551.47 1570.84C2521.36 1522.58 2514.64 1457.91 2548.61 1432.18C2596.29 1396.02 2652.71 1405.36 2670.7 1414.44Z" fill="#FFA8A7"/>
<path d="M2743.27 1441.18C2736.29 1460.35 2724.52 1507.27 2675.58 1526.86C2675.58 1526.86 2668.6 1496.93 2643.46 1500.12C2618.32 1503.32 2614.03 1535.36 2629.5 1555.29C2644.97 1575.21 2659.94 1567.98 2659.94 1567.98C2659.94 1567.98 2663.3 1610.87 2634.71 1630.29C2634.71 1630.29 2600.15 1652.16 2563.57 1635.34C2546.76 1627.77 2523.8 1588.33 2510.18 1555.96C2481.25 1487.51 2477.13 1432.6 2520.77 1415.28C2526.16 1384.17 2540.2 1372.48 2568.37 1366.67C2629 1354.15 2674.82 1394 2725.78 1387.02C2752.44 1383.32 2751.26 1419.31 2743.27 1441.18Z" fill="#37474F"/>
<path d="M2519.76 1425.7L2491.17 1408.05C2492.28 1406.07 2493.78 1404.33 2495.58 1402.94C2497.37 1401.56 2499.43 1400.55 2501.63 1399.98C2503.83 1399.41 2506.12 1399.29 2508.36 1399.63C2510.61 1399.97 2512.76 1400.75 2514.69 1401.95C2516.62 1403.14 2518.29 1404.71 2519.6 1406.57C2520.91 1408.42 2521.82 1410.52 2522.3 1412.74C2522.77 1414.96 2522.79 1417.26 2522.36 1419.48C2521.92 1421.71 2521.04 1423.83 2519.76 1425.7Z" fill="#37474F"/>
<path d="M2663.98 1674.36L2674.4 1704.54C2674.4 1704.54 2666.75 1718 2634.21 1718.67C2601.67 1719.34 2566.94 1709 2556.18 1695.13C2553.72 1692.41 2551.91 1689.18 2550.86 1685.68C2549.82 1682.17 2549.56 1678.48 2550.12 1674.86C2550.12 1674.86 2563.07 1646.27 2575.35 1647.53L2573.33 1659.98C2573.33 1659.98 2576.1 1670.15 2605.62 1677.97C2651.53 1690.16 2663.98 1674.36 2663.98 1674.36Z" fill="#455A64"/>
<path d="M2925.49 1874.99C2938.61 1859.94 2943.66 1826.56 2961.15 1803.68C2978.64 1780.81 2985.11 1764.08 2992.01 1774.08C3001.17 1787.29 2980.49 1813.77 2985.11 1816.13C2989.74 1818.48 3006.81 1853.63 3008.57 1872.97C3010.34 1892.31 2959.04 1941.08 2959.04 1941.08L2925.49 1874.99Z" fill="#FFA8A7"/>
<path d="M2663.98 1674.36C2666.09 1674.31 2668.18 1674.85 2670.02 1675.9C2671.85 1676.95 2673.37 1678.48 2674.4 1680.33C2679.55 1689.61 2684.15 1699.19 2688.19 1709L2674.4 1704.54L2663.98 1674.36Z" fill="#455A64"/>
<path d="M2983.68 1813.44C2983.68 1813.44 3045.66 1808.06 3054.65 1813.44C3063.65 1818.82 3060.96 1845.64 3054.65 1862.13C3048.35 1878.61 3016.73 1889.29 2987.38 1909.13C2987.38 1906.1 2983.68 1813.44 2983.68 1813.44Z" fill="#FFA8A7"/>
<path d="M2688.19 1709.34C2714.85 1718.67 2738.14 1729.35 2763.03 1776.1C2794.99 1836.14 2855.53 1932.17 2855.53 1932.17L2925.24 1870.7C2925.24 1870.7 2935.75 1860.53 2955.34 1892.9C2961.09 1901.62 2964.72 1911.55 2965.96 1921.91C2967.2 1932.27 2966.01 1942.78 2962.49 1952.6C2962.49 1952.6 2882.02 2047.04 2866.63 2061.42C2851.24 2075.79 2825.76 2064.61 2809.2 2041.99C2792.63 2019.37 2687.94 1888.61 2687.94 1888.61C2687.94 1888.61 2631.1 1813.1 2688.19 1709.34Z" fill="#37474F"/>
<path d="M3407.24 1552.34H3208.7C3201.21 1552.34 3194.02 1549.37 3188.73 1544.07C3183.43 1538.77 3180.45 1531.58 3180.45 1524.09V1208.67C3180.45 1183.85 3190.31 1160.04 3207.86 1142.49C3225.41 1124.94 3249.22 1115.08 3274.04 1115.08H3342.15C3366.93 1115.15 3390.67 1125.04 3408.17 1142.58C3425.67 1160.13 3435.49 1183.89 3435.49 1208.67V1524.09C3435.49 1531.58 3432.51 1538.77 3427.22 1544.07C3421.92 1549.37 3414.73 1552.34 3407.24 1552.34Z" fill="#37474F"/>
<path d="M3175.24 1444.71C3155.98 1501.47 3123.69 1664.77 3123.69 1664.77C3123.69 1664.77 3056.42 1747.01 3034.47 1766.94C3022.45 1778.04 2995.37 1797.97 2995.37 1797.97L3044.56 1834.12C3088.98 1799.96 3130.7 1762.43 3169.35 1721.87C3177.95 1712.72 3183.98 1701.46 3186.84 1689.24L3220.48 1544.94C3220.48 1544.94 3220.48 1428.9 3238.22 1413.68C3255.96 1398.46 3261.09 1395.26 3261.09 1395.26C3238.3 1393.58 3190.37 1400.06 3175.24 1444.71Z" fill="#F28F8F"/>
<path d="M3271.6 1393.58C3240.24 1389.97 3200.04 1390.64 3180.45 1425.7C3160.86 1460.77 3128.23 1642.07 3128.23 1642.07C3128.23 1642.07 3159.09 1666.03 3192.39 1665.61L3271.6 1393.58Z" fill="#90CAF9"/>
<path d="M3184.4 1562.52C3190.05 1589.54 3192.23 1617.18 3190.88 1644.76C3188.44 1681.08 3163.38 1744.49 3163.38 1744.49C3163.38 1744.49 3182.97 1766.01 3238.22 1757.35C3283.21 1750.37 3267.31 1614.4 3241.5 1588.33C3226.44 1572.78 3206.02 1563.55 3184.4 1562.52Z" fill="#90CAF9"/>
<path d="M3184.4 1562.52C3190.05 1589.54 3192.23 1617.18 3190.88 1644.76C3188.44 1681.08 3163.38 1744.49 3163.38 1744.49C3163.38 1744.49 3182.97 1766.01 3238.22 1757.35C3283.21 1750.37 3267.31 1614.4 3241.5 1588.33C3226.44 1572.78 3206.02 1563.55 3184.4 1562.52Z" fill="black"/>
<path d="M3288.34 2522.81C3288.69 2529.01 3287.14 2535.18 3283.88 2540.47C3275.56 2554.21 3265.78 2567.01 3254.7 2578.65C3239.14 2595.46 3215.85 2615.22 3199.12 2629.77C3189.87 2638.18 3189.53 2650.12 3202.82 2654.41C3227.58 2660.44 3253.72 2656.8 3275.89 2644.23C3292.71 2635.32 3316.09 2593.78 3329.88 2587.9C3345.77 2580.75 3354.6 2577.22 3359.98 2569.9C3364.05 2565.74 3366.59 2560.33 3367.18 2554.54C3367.78 2548.75 3366.4 2542.93 3363.26 2538.03C3355.78 2524.07 3344.51 2502.63 3339.88 2505.07L3341.31 2509.44C3337.7 2520.79 3306.75 2533.99 3290.86 2530.88L3288.34 2522.81Z" fill="#37474F"/>
<path d="M3450.37 2048.38C3457.52 1972.7 3478.04 1850.94 3457.02 1760.8L3177.84 1775.6C3170.11 1864.48 3161.03 2141.97 3170.78 2173.76C3182.05 2211.26 3282.7 2470.84 3288.5 2523.06C3288.9 2529.19 3287.34 2535.29 3284.05 2540.47C3275.74 2554.24 3265.96 2567.07 3254.87 2578.73C3247.3 2587.14 3238.05 2595.55 3228.3 2603.96C3227.48 2605.16 3226.99 2606.55 3226.87 2607.99C3226.87 2616.4 3248.06 2619.01 3260.5 2615.39C3276.02 2609.92 3289.39 2599.64 3298.68 2586.05C3305.83 2576.54 3321.89 2558.3 3332.31 2544.59C3335.79 2540.36 3338.76 2535.73 3341.14 2530.8C3343.93 2524.64 3344.41 2517.69 3342.49 2511.21L3341.82 2509.1C3336.36 2492.08 3332.97 2474.46 3331.73 2456.63C3327.86 2399.37 3318.02 2267.1 3308.94 2231.86C3302.63 2206.19 3293.05 2181.43 3280.43 2158.2L3312.3 1910.22C3312.3 1910.22 3315.66 2128.85 3325.59 2184.61C3333.41 2229.26 3336.43 2285.09 3345.6 2361.7C3354.01 2435.02 3363.76 2564.18 3363.76 2564.18C3364.01 2564.23 3364.27 2564.23 3364.52 2564.18V2625.9H3416.74V2590.08C3416.74 2573.91 3418.09 2557.76 3420.78 2541.81C3429.18 2493.04 3446.67 2381.46 3450.29 2343.7C3456.01 2283.83 3434.4 2208.57 3434.4 2208.57C3434.4 2208.57 3443.4 2122.21 3450.37 2048.38Z" fill="#FFA8A7"/>
<path d="M3351.99 1396.19C3351.99 1396.19 3427.08 1404.6 3436.08 1408.89C3365.61 1458.42 3422.71 1568.66 3422.71 1568.66L3395.72 1653.33C3425.74 1691.76 3451.64 1714.63 3467.7 1756.76C3485.52 1803.85 3501.33 1873.9 3497.13 2017.44C3429.86 2067.89 3225.19 2062.42 3145.47 2017.44C3145.47 2017.44 3158.92 1890.72 3174.82 1792.25C3185.33 1727.25 3210.13 1656.44 3205.93 1632.48C3174.31 1535.27 3172.29 1517.78 3178.01 1496.09C3193.74 1435.04 3255.96 1393.75 3271.27 1393.75L3351.99 1396.19Z" fill="#90CAF9"/>
<path d="M3351.99 1396.19C3351.99 1396.19 3427.08 1404.6 3436.08 1408.89C3365.61 1458.42 3422.71 1568.66 3422.71 1568.66L3395.72 1653.33C3425.74 1691.76 3451.64 1714.63 3467.7 1756.76C3485.52 1803.85 3501.33 1873.9 3497.13 2017.44C3429.86 2067.89 3225.19 2062.42 3145.47 2017.44C3145.47 2017.44 3158.92 1890.72 3174.82 1792.25C3185.33 1727.25 3210.13 1656.44 3205.93 1632.48C3174.31 1535.27 3172.29 1517.78 3178.01 1496.09C3193.74 1435.04 3255.96 1393.75 3271.27 1393.75L3351.99 1396.19Z" fill="white"/>
<path d="M3364.02 2599.75V2592.27C3357.46 2617.41 3344.34 2640.36 3326.01 2658.78C3309.19 2674 3286.49 2691.66 3280.6 2708.73C3274.71 2725.8 3307.59 2733.45 3329.29 2731.27C3350.31 2728.7 3369.68 2718.56 3383.78 2702.76C3397.57 2686.95 3397.32 2676.19 3403.71 2667.44C3410.1 2658.7 3424.98 2649.11 3428.43 2639.02C3429.5 2629.61 3428.47 2620.07 3425.4 2611.1C3422.96 2601.77 3420.27 2591.43 3416.99 2592.27V2598.07C3409.43 2604.02 3400.05 2607.2 3390.42 2607.07C3383.1 2607.24 3363.93 2605.64 3364.02 2599.75Z" fill="#37474F"/>
<path d="M3416.74 2597.9C3409.17 2603.85 3399.79 2607.03 3390.17 2606.9C3382.43 2606.9 3363.6 2605.64 3363.68 2599.75V2592.27C3357.12 2617.41 3344 2640.37 3325.67 2658.78L3312.97 2670.13C3304.06 2680.06 3306.58 2688.72 3327.52 2690.48C3348.46 2692.25 3366.87 2679.64 3382.68 2660.21C3396.16 2640.68 3407.58 2619.8 3416.74 2597.9Z" fill="#FFA8A7"/>
<path d="M3222.33 1166.63C3208.87 1174.62 3192.22 1208.67 3193.82 1279.47C3195.25 1339.68 3214.76 1354.57 3224.6 1358.85C3234.44 1363.14 3253.27 1360.54 3271.6 1357.51V1393.58C3271.6 1393.58 3246.38 1423.1 3247.81 1439.66C3249.23 1456.23 3284.47 1460.1 3308.27 1443.95C3325.45 1430.63 3340.23 1414.48 3351.99 1396.19L3351.57 1313.19C3351.57 1313.19 3362.42 1323.62 3380.75 1307.64C3395.89 1294.44 3400.93 1272.07 3389.16 1260.13C3386.1 1257.26 3382.4 1255.16 3378.37 1254.01C3374.33 1252.85 3370.08 1252.68 3365.97 1253.5C3361.85 1254.32 3358 1256.12 3354.72 1258.74C3351.44 1261.35 3348.83 1264.71 3347.11 1268.54C3347.11 1268.54 3336.94 1240.21 3294.64 1226.5C3256.47 1213.8 3235.7 1199.42 3222.33 1166.63Z" fill="#FFA8A7"/>
<path d="M3261.09 1264.42C3261.09 1265.9 3261.53 1267.35 3262.35 1268.59C3263.16 1269.83 3264.33 1270.8 3265.69 1271.38C3267.05 1271.96 3268.56 1272.13 3270.02 1271.86C3271.47 1271.59 3272.82 1270.91 3273.89 1269.88C3274.96 1268.86 3275.71 1267.54 3276.04 1266.09C3276.37 1264.65 3276.26 1263.14 3275.74 1261.75C3275.22 1260.36 3274.3 1259.16 3273.1 1258.29C3271.9 1257.42 3270.48 1256.92 3269 1256.85C3267.98 1256.83 3266.97 1257.01 3266.02 1257.38C3265.07 1257.75 3264.21 1258.3 3263.48 1259C3262.74 1259.7 3262.15 1260.54 3261.74 1261.47C3261.33 1262.4 3261.11 1263.41 3261.09 1264.42Z" fill="#37474F"/>
<path d="M3259.07 1315.38L3241.5 1321.01C3241.81 1322.19 3242.35 1323.29 3243.09 1324.24C3243.84 1325.2 3244.77 1326 3245.83 1326.59C3246.89 1327.18 3248.06 1327.55 3249.27 1327.67C3250.47 1327.8 3251.69 1327.68 3252.85 1327.32C3255.22 1326.51 3257.19 1324.82 3258.35 1322.6C3259.51 1320.37 3259.77 1317.79 3259.07 1315.38Z" fill="#F28F8F"/>
<path d="M3199.03 1241.13L3214.34 1230.53C3213.69 1229.5 3212.84 1228.61 3211.84 1227.91C3210.84 1227.22 3209.7 1226.73 3208.51 1226.49C3207.31 1226.24 3206.08 1226.25 3204.88 1226.49C3203.69 1226.74 3202.56 1227.23 3201.56 1227.93C3199.51 1229.37 3198.1 1231.56 3197.63 1234.02C3197.16 1236.48 3197.66 1239.03 3199.03 1241.13Z" fill="#37474F"/>
<path d="M3283.12 1246.85L3267.73 1236.25C3268.38 1235.22 3269.23 1234.33 3270.23 1233.63C3271.23 1232.94 3272.36 1232.45 3273.55 1232.2C3274.75 1231.94 3275.98 1231.94 3277.17 1232.17C3278.37 1232.41 3279.51 1232.88 3280.52 1233.56C3282.55 1235.03 3283.95 1237.23 3284.44 1239.69C3284.92 1242.16 3284.45 1244.72 3283.12 1246.85Z" fill="#37474F"/>
<path d="M3202.57 1258.87C3202.55 1260.36 3202.97 1261.82 3203.78 1263.06C3204.59 1264.31 3205.74 1265.29 3207.11 1265.89C3208.47 1266.48 3209.97 1266.66 3211.44 1266.4C3212.9 1266.15 3214.26 1265.47 3215.34 1264.44C3216.42 1263.42 3217.17 1262.11 3217.51 1260.66C3217.84 1259.21 3217.74 1257.7 3217.22 1256.31C3216.71 1254.91 3215.79 1253.71 3214.59 1252.83C3213.39 1251.96 3211.95 1251.45 3210.47 1251.39C3208.43 1251.34 3206.46 1252.1 3204.98 1253.51C3203.5 1254.91 3202.63 1256.84 3202.57 1258.87Z" fill="#37474F"/>
<path d="M3238.22 1254.58L3237.04 1300.16L3213.08 1292.76L3238.22 1254.58Z" fill="#F28F8F"/>
<path d="M3271.6 1357.51C3290.94 1354.9 3330.46 1343.47 3337.02 1327.74C3334.53 1335.71 3329.66 1342.72 3323.06 1347.84C3311.12 1358.01 3271.6 1369.53 3271.6 1369.53L3271.6 1357.51Z" fill="#F28F8F"/>
<path d="M3408.75 1607.17L3355.69 1678.98L3395.72 1653.33L3408.75 1607.17Z" fill="#90CAF9"/>
<path d="M2990.75 1797.97C2979.39 1812.6 2972.41 1841.02 2966.44 1850.61C2960.47 1860.19 2953.33 1868.52 2966.44 1870.28C2979.56 1872.05 2998.73 1846.4 3005.88 1830.84C3009.5 1822.07 3016.33 1815.01 3024.97 1811.08C3018.83 1808.98 3022.03 1784.34 3017.74 1780.9C3017.74 1780.9 2995.37 1790.06 2990.75 1797.97Z" fill="#F28F8F"/>
<path d="M2987.38 1908.96C2999.24 1900.13 2999.66 1889.29 3001.93 1872.05C3004.2 1854.81 3051.71 1836.14 3053.22 1849.01C3054.74 1861.87 3059.03 1872.64 3044.81 1888.28C3030.6 1903.92 3009.08 1920.57 2987.38 1908.96Z" fill="#F28F8F"/>
<path d="M3351.99 1396.19C3351.99 1396.19 3422.29 1402.33 3436.08 1408.89C3449.87 1415.45 3472.83 1455.14 3452.31 1512.74C3431.79 1570.34 3413.12 1638.11 3415.23 1651.74C3417.33 1665.36 3466.35 1735.82 3466.35 1735.82C3452.83 1745.81 3437.53 1753.14 3421.28 1757.43L3396.05 1702.61L3401.94 1760.88C3376.6 1767.04 3350.57 1769.87 3324.49 1769.29C3324.49 1769.29 3300.7 1545.45 3351.99 1396.19Z" fill="#90CAF9"/>
<path d="M3525.21 1670.74C3530.85 1637.61 3525.21 1626.76 3513.61 1594.3L3454.75 1632.4C3459.57 1644.65 3462.41 1657.59 3463.16 1670.74C3462.65 1680.33 3449.62 1775.35 3437.43 1808.48C3435.23 1814.37 3430.91 1819.23 3425.32 1822.1C3413.19 1829.5 3402.2 1838.62 3392.69 1849.18C3383.69 1857.58 3376.46 1859.1 3377.39 1861.96C3378.78 1865.06 3381.26 1867.53 3384.36 1868.92C3387.47 1870.3 3390.97 1870.48 3394.2 1869.44C3401.53 1867.06 3408.55 1863.85 3415.14 1859.85C3409.3 1872.22 3401.52 1883.58 3392.1 1893.49C3370.49 1916.53 3368.56 1931.5 3408.92 1934.61C3434.15 1936.54 3455.25 1922.42 3478.04 1868.18C3485.1 1848.3 3490.92 1827.99 3495.45 1807.38C3507.72 1760.38 3519.66 1704.12 3525.21 1670.74Z" fill="#FFA8A7"/>
<path d="M3436.08 1408.89C3464.42 1421.58 3472.49 1446.64 3483 1483.47C3493.51 1520.3 3526.48 1630.8 3526.48 1630.8C3526.48 1630.8 3498.22 1664.43 3459.2 1655.01L3408.75 1532.5C3408.75 1532.5 3385.21 1452.53 3436.08 1408.89Z" fill="#90CAF9"/>
<defs>
<linearGradient id="paint0_linear_2106_541" x1="2081" y1="0" x2="2081" y2="3870" gradientUnits="userSpaceOnUse">
<stop stop-color="#D107E3" stop-opacity="0"/>
<stop offset="1" stop-color="#1653F0"/>
</linearGradient>
</defs>
</svg>
