<svg width="5371" height="3529" viewBox="0 0 5371 3529" fill="none" xmlns="http://www.w3.org/2000/svg">
<g clip-path="url(#clip0_2108_1052)">
<rect width="5371" height="3529" fill="#EAF0FF"/>
<g filter="url(#filter0_f_2108_1052)">
<ellipse cx="3708" cy="2385" rx="2062" ry="1577" fill="url(#paint0_linear_2108_1052)" fill-opacity="0.5"/>
</g>
<rect y="589" width="2099" height="6141" fill="url(#paint1_linear_2108_1052)"/>
</g>
<path d="M3902.29 1843.09C3263.82 1474.53 2232.2 1474.53 1597.9 1843.09C963.607 2211.66 966.999 2809.34 1605.39 3177.91C2243.79 3546.47 3275.55 3546.54 3909.85 3177.91C4544.15 2809.27 4540.68 2211.73 3902.29 1843.09Z" fill="#F5F5F5"/>
<path d="M2587.4 3170.98L1632.32 2619.44L1823.21 2508.77L2778.51 3060.66L2587.4 3170.98Z" fill="#E6E6E6"/>
<path d="M3572.03 2643.75V2643.68L3023.6 2327.07H3023.67L2475.25 2010.45L1926.82 1693.83L1382 2010.45L1930.35 2327.07L2478.78 2643.68V2643.75L3027.21 2960.37H3027.14L3575.56 3276.99L4120.46 2960.37L3572.03 2643.75Z" fill="#E6E6E6"/>
<path d="M3986.11 2923.48L3953.46 2896.62C3951.41 2845.17 3949.43 2790.61 3957.98 2740.08C3966.53 2689.55 3986.25 2639.02 4022.86 2602.48C4038.05 2587.14 4056.92 2574.21 4078.41 2571.67C4099.89 2569.12 4123.78 2580.01 4131.2 2600.29C4138.62 2620.57 4127.24 2644.6 4114.8 2663.47C4088.37 2703.68 4056.78 2740.36 4030.84 2780.93C4003.56 2823.64 3988.12 2872.84 3986.11 2923.48Z" fill="#90CAF9"/>
<path d="M3986.11 2930.48L4018.76 2957.33C4042.93 2906.38 4076.22 2859.1 4122.22 2826.44C4138.63 2816.23 4153.97 2804.39 4168.02 2791.11C4181.17 2776.97 4190.35 2757.47 4186.54 2738.6C4181.66 2714.29 4155.86 2698.24 4131.06 2698.1C4106.25 2697.96 4083.07 2710.54 4063.92 2726.37C4004.76 2774.36 3971.27 2855.92 3986.11 2930.48Z" fill="#90CAF9"/>
<path opacity="0.3" d="M3986.11 2930.48L4018.76 2957.33C4042.93 2906.38 4076.22 2859.1 4122.22 2826.44C4138.63 2816.23 4153.97 2804.39 4168.02 2791.11C4181.17 2776.97 4190.35 2757.47 4186.54 2738.6C4181.66 2714.29 4155.86 2698.24 4131.06 2698.1C4106.25 2697.96 4083.07 2710.54 4063.92 2726.37C4004.76 2774.36 3971.27 2855.92 3986.11 2930.48Z" fill="black"/>
<path d="M3967.66 2911.18C3966.91 2911.16 3966.19 2910.85 3965.66 2910.31C3965.13 2909.77 3964.83 2909.04 3964.83 2908.28C3966.18 2831.96 3983.35 2690.89 4083.14 2604.39C4083.43 2604.14 4083.75 2603.95 4084.11 2603.84C4084.47 2603.72 4084.84 2603.67 4085.21 2603.7C4085.59 2603.72 4085.95 2603.82 4086.29 2603.99C4086.63 2604.16 4086.92 2604.39 4087.17 2604.67C4087.42 2604.95 4087.6 2605.28 4087.72 2605.64C4087.84 2605.99 4087.89 2606.37 4087.86 2606.74C4087.84 2607.12 4087.74 2607.48 4087.57 2607.82C4087.4 2608.15 4087.17 2608.45 4086.89 2608.7C4044.48 2645.24 3973.81 2732.87 3970.49 2908.64C3970.42 2909.34 3970.09 2909.99 3969.57 2910.46C3969.04 2910.93 3968.36 2911.19 3967.66 2911.18Z" fill="white"/>
<path d="M4001.94 2946.31C4001.57 2946.27 4001.2 2946.16 4000.87 2945.99C4000.55 2945.81 4000.25 2945.57 4000.02 2945.28C3999.78 2944.99 3999.6 2944.66 3999.5 2944.3C3999.39 2943.94 3999.35 2943.57 3999.39 2943.2C4006.04 2874.57 4036 2780.01 4140.74 2719.44C4141.4 2719.08 4142.17 2718.99 4142.9 2719.19C4143.62 2719.39 4144.24 2719.86 4144.63 2720.5C4144.82 2720.83 4144.94 2721.19 4144.99 2721.56C4145.04 2721.93 4145.01 2722.31 4144.91 2722.67C4144.81 2723.03 4144.64 2723.37 4144.41 2723.67C4144.18 2723.96 4143.89 2724.21 4143.57 2724.39C4040.95 2783.69 4011.55 2876.41 4004.98 2943.48C4004.99 2943.87 4004.92 2944.26 4004.77 2944.63C4004.61 2944.99 4004.39 2945.32 4004.1 2945.58C4003.81 2945.85 4003.47 2946.05 4003.1 2946.18C4002.72 2946.3 4002.33 2946.35 4001.94 2946.31Z" fill="white"/>
<path d="M1426.31 1681.32C1413.52 1669.09 1398.89 1655.74 1398.04 1638.07C1398.08 1630.15 1400.54 1622.44 1405.09 1615.96C1409.64 1609.48 1416.05 1604.55 1423.48 1601.81C1430.98 1599.27 1438.91 1598.27 1446.8 1598.86C1454.7 1599.46 1462.39 1601.64 1469.42 1605.28C1483.42 1612.66 1495.89 1622.64 1506.17 1634.68C1537.14 1669.08 1559.56 1710.31 1571.61 1755.01C1583.65 1799.71 1584.99 1846.62 1575.5 1891.93C1575.21 1894.99 1574.26 1897.96 1572.71 1900.62C1571.16 1903.28 1569.05 1905.57 1566.52 1907.33C1557.97 1911.86 1548.22 1903.87 1542.42 1896.17C1529.66 1879.19 1520.08 1860.03 1514.15 1839.63C1509 1822.46 1511.33 1803.59 1504.9 1787.4C1489.14 1747.97 1456.77 1710.44 1426.31 1681.32Z" fill="#90CAF9"/>
<path d="M1559.46 1884.15C1559.01 1884.16 1558.56 1884.08 1558.15 1883.91C1557.73 1883.75 1557.35 1883.5 1557.04 1883.18C1556.72 1882.86 1556.47 1882.49 1556.3 1882.07C1556.14 1881.65 1556.05 1881.21 1556.06 1880.76C1555.64 1831.13 1544.19 1782.22 1522.53 1737.57C1500.87 1692.92 1469.55 1653.64 1430.83 1622.59C1430.47 1622.31 1430.18 1621.97 1429.96 1621.58C1429.73 1621.19 1429.59 1620.75 1429.54 1620.31C1429.49 1619.86 1429.52 1619.4 1429.65 1618.97C1429.77 1618.54 1429.98 1618.14 1430.26 1617.78C1430.53 1617.43 1430.87 1617.13 1431.26 1616.91C1431.64 1616.69 1432.07 1616.55 1432.51 1616.5C1432.95 1616.45 1433.4 1616.48 1433.83 1616.61C1434.26 1616.73 1434.65 1616.94 1435 1617.22C1474.55 1648.89 1506.54 1688.98 1528.66 1734.57C1550.77 1780.15 1562.45 1830.09 1562.85 1880.76C1562.86 1881.21 1562.78 1881.65 1562.61 1882.07C1562.44 1882.49 1562.19 1882.86 1561.88 1883.18C1561.56 1883.5 1561.18 1883.75 1560.77 1883.91C1560.35 1884.08 1559.9 1884.16 1559.46 1884.15Z" fill="white"/>
<path d="M1517.41 2019.85C1496.2 2026.91 1468.78 2022.25 1456.34 2003.38C1441.64 1981.19 1450.83 1946.84 1431.18 1929.03C1420.23 1919 1404.05 1918.01 1389.49 1914.9C1374.93 1911.79 1358.67 1903.87 1356.55 1889.1C1353.66 1869.59 1377.75 1853.41 1374.29 1833.9C1370.83 1814.4 1344.47 1808.74 1336.62 1790.93C1329.56 1774.75 1342.14 1755.1 1358.81 1749.03C1375.49 1742.95 1394.15 1747.12 1410.69 1753.34C1427.23 1759.56 1443.48 1767.47 1461.08 1769.8C1478.68 1772.14 1500.51 1768.46 1514.01 1781.04C1531.96 1797.86 1521.72 1829.95 1535.57 1850.23C1544.9 1863.87 1562.5 1868.61 1575.92 1878.5C1584.28 1884.55 1591.05 1892.51 1595.69 1901.72C1600.33 1910.93 1602.68 1921.12 1602.57 1931.43C1602.14 1953.84 1590.34 1969.95 1573.52 1982.81C1555.57 1996.24 1539.53 2012.71 1517.41 2019.85Z" fill="#90CAF9"/>
<path opacity="0.2" d="M1517.41 2019.85C1496.2 2026.91 1468.78 2022.25 1456.34 2003.38C1441.64 1981.19 1450.83 1946.84 1431.18 1929.03C1420.23 1919 1404.05 1918.01 1389.49 1914.9C1374.93 1911.79 1358.67 1903.87 1356.55 1889.1C1353.66 1869.59 1377.75 1853.41 1374.29 1833.9C1370.83 1814.4 1344.47 1808.74 1336.62 1790.93C1329.56 1774.75 1342.14 1755.1 1358.81 1749.03C1375.49 1742.95 1394.15 1747.12 1410.69 1753.34C1427.23 1759.56 1443.48 1767.47 1461.08 1769.8C1478.68 1772.14 1500.51 1768.46 1514.01 1781.04C1531.96 1797.86 1521.72 1829.95 1535.57 1850.23C1544.9 1863.87 1562.5 1868.61 1575.92 1878.5C1584.28 1884.55 1591.05 1892.51 1595.69 1901.72C1600.33 1910.93 1602.68 1921.12 1602.57 1931.43C1602.14 1953.84 1590.34 1969.95 1573.52 1982.81C1555.57 1996.24 1539.53 2012.71 1517.41 2019.85Z" fill="black"/>
<path d="M1507.65 1867.12V1866.77C1504.4 1862.1 1501.08 1857.51 1497.55 1853.06C1465.67 1813.59 1422.45 1784.85 1373.73 1770.72C1373.29 1770.58 1372.84 1770.53 1372.39 1770.58C1371.94 1770.62 1371.5 1770.75 1371.1 1770.97C1370.7 1771.19 1370.36 1771.49 1370.08 1771.85C1369.8 1772.2 1369.6 1772.62 1369.49 1773.05C1369.24 1773.93 1369.35 1774.86 1369.79 1775.65C1370.22 1776.44 1370.95 1777.03 1371.82 1777.29C1419.13 1791.04 1461.07 1818.99 1491.96 1857.37C1492.95 1858.57 1493.8 1859.84 1494.72 1861.04C1456.13 1846.91 1416.98 1854.97 1395.78 1871.86C1395.43 1872.14 1395.13 1872.49 1394.92 1872.88C1394.7 1873.27 1394.57 1873.71 1394.52 1874.16C1394.48 1874.6 1394.52 1875.05 1394.65 1875.48C1394.78 1875.92 1395 1876.32 1395.28 1876.66C1395.59 1877.06 1395.98 1877.39 1396.44 1877.61C1396.89 1877.83 1397.39 1877.94 1397.9 1877.93C1398.69 1877.92 1399.46 1877.65 1400.09 1877.16C1420.87 1860.41 1463.69 1852.99 1502.63 1871.79C1526.95 1907.4 1541.23 1948.9 1543.98 1991.93C1544.03 1992.79 1544.41 1993.6 1545.04 1994.19C1545.67 1994.78 1546.51 1995.11 1547.37 1995.11C1547.82 1995.08 1548.25 1994.97 1548.65 1994.77C1549.06 1994.58 1549.41 1994.3 1549.71 1993.97C1550.01 1993.63 1550.23 1993.24 1550.38 1992.82C1550.52 1992.4 1550.58 1991.95 1550.55 1991.51C1547.74 1946.93 1532.92 1903.95 1507.65 1867.12Z" fill="white"/>
<path d="M1934.24 1544.78L1487.94 1804.15L1487.37 2022.11L1936.57 2281.41L2382.81 2022.11L2383.44 1804.15L1934.24 1544.78Z" fill="#90CAF9"/>
<path opacity="0.2" d="M2383.44 1804.15L1934.24 1544.78L1487.94 1804.15L1937.14 2063.45L2383.44 1804.15Z" fill="white"/>
<path opacity="0.3" d="M1937.14 2063.45L1936.57 2281.41L2382.81 2022.11L2383.44 1804.15L1937.14 2063.45Z" fill="black"/>
<path d="M2467.47 1574.18L2021.17 1833.55L2020.6 2329.96L2469.8 2589.33L2916.11 2329.96L2916.67 1833.55L2467.47 1574.18Z" fill="#90CAF9"/>
<path opacity="0.2" d="M2916.67 1833.55L2467.47 1574.18L2021.17 1833.55L2470.37 2092.92L2916.67 1833.55Z" fill="white"/>
<path opacity="0.3" d="M2470.37 2092.92L2469.8 2589.33L2916.11 2329.96L2916.67 1833.55L2470.37 2092.92Z" fill="black"/>
<path d="M3013.57 1605.77L2567.26 1865.07L2566.7 2643.82L3015.9 2903.2L3462.13 2643.82L3462.77 1865.07L3013.57 1605.77Z" fill="#90CAF9"/>
<path opacity="0.2" d="M3462.77 1865.07L3013.57 1605.77L2567.26 1865.07L3016.47 2124.44L3462.77 1865.07Z" fill="white"/>
<path opacity="0.3" d="M3016.46 2124.44L3015.9 2903.2L3462.13 2643.82L3462.77 1865.07L3016.46 2124.44Z" fill="black"/>
<path d="M3013.85 1603.72L2567.55 1863.02L2566.98 2642.76L3016.18 2902.14L3462.42 2642.76L3463.05 1863.02L3013.85 1603.72Z" fill="#90CAF9"/>
<path opacity="0.2" d="M3463.05 1863.02L3013.85 1603.72L2567.55 1863.02L3016.75 2122.39L3463.05 1863.02Z" fill="white"/>
<path opacity="0.3" d="M3016.75 2122.39L3016.18 2902.14L3462.42 2642.76L3463.05 1863.02L3016.75 2122.39Z" fill="black"/>
<path d="M3572.31 1527.53L3126.08 1786.91L3125.44 2966.59L3574.65 3225.96L4020.95 2966.59L4021.51 1786.91L3572.31 1527.53Z" fill="#90CAF9"/>
<path opacity="0.2" d="M4021.52 1786.91L3572.31 1527.53L3126.08 1786.91L3575.28 2046.28L4021.52 1786.91Z" fill="white"/>
<path opacity="0.3" d="M3575.28 2046.28L3574.65 3225.96L4020.95 2966.59L4021.51 1786.91L3575.28 2046.28Z" fill="black"/>
<path d="M2756.39 1838.5L2725.57 1817.86L2493.06 2289.82L2523.59 2310.46L2660.13 2231.66C2654.19 2453.5 2592.63 2564.74 2532.92 2628.63L2523.37 2631.03L2517.79 2632.3L2506.62 2634.71L2501.61 2635.77L2493.06 2637.32L2486.77 2638.38L2477.72 2639.8L2471.71 2640.71C2468.39 2641.21 2464.64 2641.56 2461.61 2641.99L2456.31 2642.69L2442.17 2644.11H2440.69C2435.53 2644.6 2430.3 2644.96 2425.07 2645.31C2418.42 2645.8 2411.71 2646.09 2404.93 2646.37H2398.85H2384.08H2378.07C2369.94 2646.37 2361.74 2646.37 2353.55 2645.94H2349.31C2341.67 2645.94 2334.04 2645.24 2326.34 2644.74H2322.45C2314.6 2644.18 2306.76 2643.54 2298.84 2642.69L2293.19 2642.13C2286.12 2641.35 2279.06 2640.57 2271.99 2639.65L2267.82 2639.09C2260.12 2638.03 2252.41 2636.9 2244.64 2635.63L2239.05 2634.64C2232.69 2633.58 2226.4 2632.45 2220.04 2631.24L2214.11 2630.11C2206.54 2628.63 2198.91 2627 2191.21 2625.31L2187.75 2624.53C2181.17 2623.05 2174.53 2621.42 2167.89 2619.8L2160.82 2618.1L2143.08 2613.43L2137.64 2611.95C2130.08 2609.83 2122.44 2607.64 2114.81 2605.31L2109.51 2603.68C2103.67 2601.94 2097.8 2600.1 2091.91 2598.17L2084.84 2595.77L2067.67 2589.9L2061.66 2587.85C2054.13 2585.17 2046.56 2582.41 2038.98 2579.58L2034.88 2577.96C2028.59 2575.62 2022.3 2573.15 2016.01 2570.89L2008.94 2567.92L1992.69 2561.21L1985.62 2558.17L1964.42 2549.05L1962.44 2548.2C1954.81 2544.74 1947.1 2541.14 1939.47 2537.6L1932.4 2534.42C1926.89 2531.81 1921.31 2529.12 1915.79 2526.36L1908.16 2522.62C1902.29 2519.72 1896.5 2516.75 1890.63 2513.71L1884.77 2510.75L1861.66 2498.45C1857.42 2496.26 1853.25 2493.93 1849.08 2491.38C1846.89 2490.18 1844.7 2489.05 1842.58 2487.78L1823.85 2477.25L1823.28 2476.89L1632.32 2588.42V2619.44C1849.29 2744.32 2061.81 2803.76 2247.18 2791.46C2335.31 2785.67 2410.51 2764.11 2471.71 2727.36C2470.23 2728.28 2468.74 2729.27 2467.19 2730.12L2658.71 2618.81C2675.72 2608.95 2691.88 2597.72 2707.06 2585.24C2709.1 2583.61 2711.23 2581.84 2713.27 2580.08L2715.11 2578.52L2719.99 2574.21L2721.68 2572.73L2728.12 2566.86L2729.18 2565.8L2734.62 2560.64L2736.6 2558.73L2741.97 2553.29L2743.24 2551.95C2745.43 2549.69 2747.62 2547.43 2749.81 2544.88C2750.31 2544.25 2750.87 2543.68 2751.44 2543.04C2753.13 2541.21 2754.83 2539.3 2756.53 2537.32L2758.44 2535.06C2760.56 2532.65 2762.6 2530.18 2764.65 2527.64L2765.08 2527.14C2767.27 2524.46 2769.46 2521.7 2771.58 2518.87C2772.22 2518.03 2772.85 2517.25 2773.42 2516.4C2775.11 2514.21 2776.74 2511.95 2778.44 2509.69L2780.2 2507.21L2786.56 2497.88C2786.89 2497.45 2787.2 2497 2787.48 2496.54L2791.51 2490.39L2792.71 2488.41L2795.75 2483.4C2797.02 2481.35 2798.29 2479.3 2799.5 2477.18L2802.54 2471.88L2806.14 2465.37L2809.18 2459.72C2810.31 2457.46 2811.51 2455.2 2812.64 2452.65L2815.61 2446.79C2816.1 2445.66 2816.6 2444.67 2817.16 2443.61C2817.73 2442.55 2818.93 2439.79 2819.78 2437.81L2821.05 2435.13C2822.89 2431.03 2824.73 2426.79 2826.56 2422.47C2826.92 2421.56 2827.34 2420.5 2827.77 2419.58C2829.18 2415.97 2830.66 2412.51 2832.08 2408.69L2833.42 2405.09C2833.42 2404.24 2834.06 2403.46 2834.41 2402.69L2835.89 2398.37C2837.31 2394.49 2838.65 2390.6 2839.99 2386.64C2840.77 2384.38 2841.55 2382.05 2842.25 2379.58C2843.53 2375.62 2844.8 2371.66 2846 2367.56C2846.42 2366.08 2846.92 2364.73 2847.34 2363.25C2847.77 2361.77 2847.91 2361.06 2848.26 2360C2849.18 2356.75 2850.1 2353.36 2851.02 2349.96C2851.94 2346.57 2852.5 2344.31 2853.28 2341.41C2854.06 2338.51 2854.98 2334.34 2855.82 2330.81C2856.39 2328.69 2856.88 2326.64 2857.38 2324.45C2857.38 2323.6 2857.8 2322.61 2857.94 2321.76C2858.65 2318.65 2859.29 2315.55 2859.99 2312.44L2862.11 2302.12C2862.75 2298.87 2863.31 2295.62 2863.88 2292.36C2864.45 2289.11 2864.87 2287.49 2865.29 2285.3C2865.29 2284.1 2865.65 2282.89 2865.86 2281.69L2867.34 2272.51C2867.98 2268.62 2868.54 2264.66 2869.11 2260.63C2869.68 2256.6 2870.03 2254.27 2870.45 2251.02C2870.45 2248.83 2871.09 2246.71 2871.37 2244.45L2872.01 2238.58C2872.36 2235.4 2872.79 2232.29 2873.07 2229.04C2873.56 2224.73 2873.99 2220.28 2874.41 2215.9C2874.76 2212.64 2875.05 2209.39 2875.33 2206.07L2875.75 2201.55C2875.75 2198.37 2876.25 2195.05 2876.46 2191.8C2876.67 2188.54 2876.95 2185.58 2877.1 2182.4C2877.1 2177.1 2877.73 2171.65 2878.01 2166.21C2878.01 2163.38 2878.01 2160.63 2878.44 2157.8C2878.44 2157.24 2878.44 2156.67 2878.44 2156.11C2878.44 2149.04 2878.93 2141.48 2879.15 2134.06V2132.29C2879.15 2124.16 2879.15 2115.82 2879.15 2107.41C2879.15 2106.56 2879.15 2105.79 2879.15 2104.94L2990.46 2040.7L2756.39 1838.5Z" fill="#455A64"/>
<path d="M2756.39 1838.5L2523.87 2310.46L2493.34 2289.82L2725.57 1817.86L2756.39 1838.5ZM2482.67 2720.36C2486.84 2717.68 2490.86 2714.92 2494.89 2712.02L2499.7 2708.63C2505 2704.74 2510.23 2700.79 2515.32 2696.62L2521.47 2691.39L2523.3 2689.83L2527.4 2686.3L2528.18 2685.59L2529.88 2684.11C2532 2682.2 2534.19 2680.22 2536.31 2678.17L2537.44 2677.11L2539.13 2675.56L2542.88 2671.95L2544.79 2670.04C2545.21 2669.62 2545.64 2669.13 2546.13 2668.7L2550.16 2664.67L2551.43 2663.33L2555.88 2658.6L2558 2656.33L2559.63 2654.57L2564.72 2648.77L2566.7 2646.51L2568.68 2644.18L2572.92 2639.09C2572.95 2638.93 2572.95 2638.76 2572.92 2638.59C2573.55 2637.89 2574.12 2637.11 2574.68 2636.4C2576.31 2634.42 2577.86 2632.38 2579.49 2630.33L2581.33 2627.92L2585.07 2622.76L2586.27 2621.14L2588.04 2618.66L2591.65 2613.43L2594.47 2609.41C2594.74 2608.91 2595.04 2608.44 2595.39 2607.99L2597.72 2604.25C2598.71 2602.83 2599.63 2601.35 2600.55 2599.87C2601.47 2598.38 2602.6 2596.54 2603.66 2594.85C2604.72 2593.15 2606.13 2590.75 2607.33 2588.63C2608.54 2586.51 2609.38 2585.09 2610.44 2583.33L2612.78 2579.09L2614.05 2576.83L2617.02 2571.17C2617.79 2569.76 2618.5 2568.27 2619.28 2566.79L2620.55 2564.32C2621.54 2562.41 2622.46 2560.43 2623.45 2558.45L2623.94 2557.39L2627.69 2549.55C2628.11 2548.63 2628.47 2547.71 2628.89 2546.86C2630.09 2544.25 2631.22 2541.49 2632.42 2538.8C2633.06 2537.25 2633.77 2535.76 2634.4 2534.21C2635.04 2532.65 2635.25 2532.16 2635.6 2531.17C2637.09 2527.64 2638.5 2524.1 2639.92 2520.43C2640.41 2519.16 2640.83 2517.95 2641.33 2516.75C2641.82 2515.55 2642.39 2513.86 2642.95 2512.37L2643.8 2510.04C2645.14 2506.15 2646.56 2502.27 2647.83 2498.31C2648.47 2496.61 2649.03 2494.77 2649.6 2493.01L2650.16 2491.38C2651.43 2487.42 2652.64 2483.47 2653.91 2479.37V2478.87C2654.62 2476.54 2655.32 2474.21 2655.96 2471.8C2656.59 2469.4 2657.8 2465.16 2658.71 2461.77C2658.71 2461.77 2658.71 2461.2 2658.71 2460.85C2659.35 2458.31 2660.06 2455.83 2660.69 2453.22C2661.61 2449.75 2662.46 2446.15 2663.31 2442.62L2665.43 2433.57C2666.14 2430.53 2666.77 2427.35 2667.41 2424.24C2667.83 2422.33 2668.18 2420.43 2668.61 2418.52C2669.03 2416.61 2669.24 2415.48 2669.53 2413.92C2670.16 2410.67 2670.8 2407.42 2671.36 2404.17C2671.93 2401.13 2672.5 2398.09 2672.99 2394.98C2672.99 2394.42 2672.99 2393.85 2672.99 2393.22C2673.56 2390.18 2674.05 2387.14 2674.47 2384.03C2675.11 2380.14 2675.75 2376.18 2676.31 2372.23L2677.58 2362.54C2678.15 2358.44 2678.71 2354.27 2679.21 2350.1L2680.27 2340.63C2680.76 2336.25 2681.19 2331.87 2681.61 2327.42C2681.61 2324.17 2682.25 2320.92 2682.53 2317.67C2682.88 2312.93 2683.31 2308.12 2683.59 2303.53C2683.59 2300.42 2684.09 2297.31 2684.3 2294.13C2684.65 2288.83 2684.93 2283.39 2685.22 2277.95C2685.22 2275.12 2685.22 2272.43 2685.64 2269.54C2685.99 2261.76 2686.21 2253.78 2686.42 2245.72C2686.42 2245.15 2686.42 2244.59 2686.42 2244.02C2686.42 2234.98 2686.42 2225.65 2686.42 2216.18L2659.07 2231.94C2653.13 2453.78 2591.57 2565.02 2531.86 2628.91C2519.73 2641.81 2506.8 2653.92 2493.13 2665.17C2477.61 2677.86 2461.06 2689.23 2443.65 2699.16C2440.54 2700.93 2437.36 2702.62 2434.18 2704.32L2428.04 2707.57C2424.64 2709.34 2420.97 2710.96 2417.65 2712.59L2411.85 2715.35C2407.54 2717.32 2403.09 2719.16 2398.64 2721L2396.94 2721.71C2390.65 2724.25 2384.36 2726.65 2377.93 2728.77C2374.54 2729.98 2370.86 2731.04 2367.61 2732.17L2361.6 2734.15C2357.29 2735.49 2352.84 2736.76 2348.39 2737.96L2341.74 2739.73C2338.07 2740.72 2334.25 2741.71 2330.44 2742.56L2322.66 2744.32C2318.47 2745.31 2314.23 2746.23 2309.94 2747.08L2306.62 2747.64L2292.91 2750.12L2286.97 2751.04L2275.24 2752.66L2268.74 2753.51L2256.65 2754.85L2250.64 2755.49C2244.71 2756.05 2238.7 2756.55 2232.62 2756.9C2226.54 2757.26 2218.84 2757.68 2211.92 2757.96H2206.33C2201.46 2757.96 2196.58 2757.96 2191.63 2757.96H2185.55C2177.43 2757.96 2169.3 2757.96 2161.03 2757.54H2159.83C2151.21 2757.54 2142.58 2756.76 2133.96 2756.2H2130.15C2122.09 2755.63 2113.96 2754.92 2105.83 2754.08H2104.56C2096.51 2753.23 2088.38 2752.31 2080.18 2751.25L2076.01 2750.68C2066.82 2749.41 2057.63 2748 2048.38 2746.44H2047.25L2028.23 2743.05L2022.37 2741.92C2014.74 2740.44 2007.1 2738.81 1999.47 2737.11L1996.01 2736.34C1989.36 2734.85 1982.72 2733.3 1976.08 2731.6L1969.01 2729.9C1963.14 2728.42 1957.21 2726.87 1951.34 2725.24H1950.78C1941.59 2722.7 1932.33 2720.08 1923.07 2717.32L1917.7 2715.63C1910.63 2713.51 1903.57 2711.32 1896.5 2709.06C1889.43 2706.79 1882.36 2704.46 1875.3 2701.99L1869.29 2699.94C1861.52 2697.18 1853.67 2694.29 1845.9 2691.39L1842.43 2690.04L1823.63 2682.98L1816.57 2680.01C1809.5 2677.11 1802.43 2674.07 1794.94 2671.03L1794.16 2670.68C1787.1 2667.64 1779.6 2664.46 1772.33 2661.21L1771.48 2659.66C1763.84 2656.19 1756.21 2652.59 1748.58 2649.12L1741.51 2645.87C1736 2643.28 1730.49 2640.6 1724.97 2637.82L1717.27 2634.07C1710.84 2630.89 1704.41 2627.57 1697.98 2624.25L1693.88 2622.2C1686.17 2618.17 1678.47 2614.14 1670.77 2609.97L1658.05 2602.9L1651.76 2599.44C1645.32 2595.84 1638.82 2592.37 1632.39 2588.49V2619.51C1849.36 2744.39 2061.88 2803.83 2247.25 2791.53C2335.38 2785.74 2410.58 2764.18 2471.78 2727.43C2473.69 2726.37 2475.53 2725.24 2477.37 2724.04C2479.2 2722.84 2480.83 2721.57 2482.67 2720.36Z" fill="#37474F"/>
<path opacity="0.2" d="M1657.98 2603.12L1670.7 2610.18C1678.4 2614.35 1686.1 2618.38 1693.81 2622.41L1697.91 2624.46C1704.34 2627.78 1710.77 2631.1 1717.2 2634.28L1724.9 2638.03C1730.42 2640.76 1735.93 2643.45 1741.44 2646.09L1748.51 2649.34C1756.14 2652.94 1763.77 2656.4 1771.41 2659.87L1773.32 2660.72C1780.38 2663.97 1787.87 2667.15 1795.15 2670.19L1795.93 2670.54C1803 2673.58 1810.07 2676.62 1817.56 2679.51L1824.62 2682.48L1843.42 2689.55L1846.89 2690.89C1854.66 2693.79 1862.51 2696.69 1870.28 2699.44L1876.29 2701.49C1883.35 2703.97 1890.42 2706.3 1897.49 2708.56C1904.56 2710.82 1911.62 2713.01 1918.69 2715.13L1924.06 2716.83C1933.32 2719.59 1942.58 2722.2 1951.77 2724.75H1952.33C1958.2 2726.37 1964.13 2727.93 1970 2729.41L1977.07 2731.11C1983.71 2732.8 1990.35 2734.36 1997 2735.84L2000.46 2736.62C2008.09 2738.32 2015.73 2739.94 2023.36 2741.42L2029.22 2742.56L2048.24 2745.95H2049.37C2058.62 2747.5 2067.81 2748.92 2077 2750.19L2081.17 2750.75C2089.37 2751.81 2097.5 2752.73 2105.55 2753.58H2106.82C2114.95 2754.43 2123.08 2755.14 2131.14 2755.7H2134.95C2143.57 2756.27 2152.2 2756.76 2160.82 2757.04H2162.02C2170.29 2757.04 2178.42 2757.47 2186.54 2757.47H2192.62C2197.57 2757.47 2202.45 2757.47 2207.32 2757.47H2212.91C2219.97 2757.47 2227.04 2756.9 2233.61 2756.41C2240.19 2755.91 2245.7 2755.56 2251.63 2754.99L2257.64 2754.36L2269.73 2753.01L2276.23 2752.17L2287.96 2750.54L2293.9 2749.62L2307.61 2747.15L2310.93 2746.58C2315.22 2745.74 2319.46 2744.82 2323.65 2743.83L2331.42 2742.06C2335.24 2741.21 2339.06 2740.22 2342.73 2739.23L2349.38 2737.47C2353.83 2736.27 2358.28 2734.99 2362.59 2733.65L2368.6 2731.67C2372.06 2730.54 2375.67 2729.48 2378.92 2728.28C2385.35 2726.02 2391.64 2723.61 2397.93 2721.21L2399.63 2720.51C2404.08 2718.67 2408.53 2716.83 2412.84 2714.85L2418.64 2712.1C2422.1 2710.47 2425.7 2708.84 2429.03 2707.08L2435.17 2703.83C2438.35 2702.13 2441.53 2700.43 2444.64 2698.67C2462.05 2688.73 2478.6 2677.36 2494.12 2664.67C2507.79 2653.43 2520.72 2641.32 2532.84 2628.42L2523.3 2630.82L2517.72 2632.09L2506.55 2634.5L2501.54 2635.56L2492.98 2637.11L2486.69 2638.17L2477.65 2639.58L2471.64 2640.5C2468.32 2641 2464.57 2641.35 2461.54 2641.77L2456.23 2642.48L2442.1 2643.89H2440.62C2435.46 2644.39 2430.23 2644.74 2425 2645.1C2418.35 2645.59 2411.64 2645.87 2404.85 2646.16H2398.78H2384.01H2378C2369.87 2646.16 2361.67 2646.16 2353.48 2645.73H2349.23C2341.6 2645.73 2333.97 2645.03 2326.27 2644.53H2322.38C2314.53 2643.97 2306.69 2643.33 2298.77 2642.48L2293.12 2641.92C2286.05 2641.14 2278.99 2640.36 2271.92 2639.44L2267.75 2638.88C2260.04 2637.82 2252.34 2636.69 2244.57 2635.41L2238.98 2634.42C2232.62 2633.36 2226.33 2632.23 2219.97 2631.03L2214.04 2629.9C2206.47 2628.42 2198.84 2626.79 2191.14 2625.1L2187.67 2624.32C2181.1 2622.83 2174.46 2621.21 2167.82 2619.58L2160.75 2617.89L2143.01 2613.22L2137.57 2611.74C2130.01 2609.62 2122.37 2607.43 2114.74 2605.1L2109.44 2603.47C2103.6 2601.73 2097.73 2599.89 2091.84 2597.96L2084.77 2595.55L2067.6 2589.69L2061.59 2587.64C2054.05 2584.95 2046.49 2582.2 2038.91 2579.37L2034.81 2577.74C2028.52 2575.41 2022.23 2572.94 2015.94 2570.68L2008.87 2567.71L1992.62 2560.99L1985.55 2557.96L1964.35 2548.84L1962.37 2547.99C1954.73 2544.53 1947.03 2540.92 1939.4 2537.39L1932.33 2534.21C1926.82 2531.59 1921.24 2528.91 1915.72 2526.15L1908.09 2522.41C1902.22 2519.51 1896.43 2516.54 1890.56 2513.5L1884.7 2510.53L1861.59 2498.24C1857.35 2496.05 1853.18 2493.71 1849.01 2491.17C1846.82 2489.97 1844.62 2488.84 1842.5 2487.56L1823.78 2477.03L1823.21 2476.68L1632.32 2588.42C1638.75 2592.16 1645.25 2595.48 1651.69 2599.37L1657.98 2603.12Z" fill="white"/>
<path d="M1494.79 634.078C1526.17 615.985 1552.67 624.89 1561.15 653.018C1568.66 637.569 1580.31 624.505 1594.79 615.279C1619.39 601.144 1639.39 612.522 1639.46 640.721V653.725L1672.53 634.643C1689.78 624.749 1703.77 632.735 1703.84 652.524C1703.26 663.304 1700.14 673.794 1694.74 683.14C1689.33 692.486 1681.8 700.423 1672.75 706.306L1393.37 867.725C1376.13 877.619 1362.14 869.704 1362.07 849.915C1362.63 839.12 1365.74 828.612 1371.14 819.251C1376.55 809.89 1384.09 801.943 1393.16 796.062L1426.17 776.98V753.163C1425.95 709.416 1456.77 656.128 1494.79 634.078Z" fill="#E6E6E6"/>
<path d="M1768.72 739.806C1791.27 726.872 1810.28 733.233 1816.35 753.446C1821.78 742.315 1830.2 732.916 1840.67 726.307C1858.26 716.13 1872.68 724.328 1872.68 744.611V753.94L1896.36 740.23C1908.73 733.162 1918.76 738.816 1918.76 753.022C1918.37 760.766 1916.15 768.308 1912.28 775.028C1908.41 781.748 1903 787.455 1896.5 791.68L1695.86 907.514C1683.49 914.581 1673.45 908.928 1673.38 894.722C1673.81 886.979 1676.06 879.446 1679.94 872.73C1683.82 866.015 1689.22 860.306 1695.71 856.064L1719.39 842.424V825.25C1720.3 808.128 1725.24 791.462 1733.81 776.613C1742.38 761.763 1754.35 749.151 1768.72 739.806Z" fill="#E6E6E6"/>
<path d="M4050.35 705.882C4027.8 692.878 4008.79 699.239 4002.72 719.452C3997.29 708.34 3988.87 698.965 3978.4 692.384C3960.81 682.207 3946.39 690.405 3946.39 710.688V719.946L3922.71 706.306C3910.34 699.239 3900.31 704.893 3900.31 719.098C3900.7 726.843 3902.92 734.385 3906.79 741.105C3910.66 747.825 3916.07 753.532 3922.57 757.757L4123.21 873.591C4135.58 880.658 4145.62 875.004 4145.69 860.799C4145.26 853.056 4143.01 845.522 4139.13 838.807C4135.25 832.092 4129.85 826.383 4123.36 822.14L4099.68 808.43V791.327C4098.75 774.209 4093.8 757.552 4085.23 742.707C4076.66 727.861 4064.71 715.245 4050.35 705.882Z" fill="#E6E6E6"/>
<path d="M2807.34 504.109C2807.35 503.145 2807.1 502.197 2806.61 501.364C2806.13 500.531 2805.43 499.843 2804.59 499.374L2780.13 485.734C2779.33 485.269 2778.41 485.024 2777.48 485.024C2776.55 485.024 2775.64 485.269 2774.83 485.734L2607.12 582.557C2604.03 584.238 2601.55 586.863 2600.06 590.048C2599.13 592.165 2598.65 594.451 2598.64 596.762V659.096L2540.55 719.169C2535.39 724.54 2534.82 732.668 2538.85 733.94L2562.03 746.661C2562.42 747.092 2562.9 747.417 2563.45 747.603C2563.99 747.788 2564.58 747.829 2565.14 747.721L2598.85 743.622V789.419C2598.85 790.364 2599.1 791.293 2599.57 792.112C2600.04 792.931 2600.72 793.611 2601.54 794.083L2625.92 807.582H2626.28C2627.04 807.978 2627.89 808.185 2628.75 808.185C2629.61 808.185 2630.46 807.978 2631.22 807.582L2798.93 710.688C2801.42 709.26 2803.49 707.202 2804.93 704.72C2806.37 702.239 2807.13 699.422 2807.13 696.554L2807.34 504.109Z" fill="#90CAF9"/>
<path opacity="0.1" d="M2623.8 802.988C2623.8 803.914 2624.05 804.824 2624.5 805.629C2624.96 806.434 2625.62 807.106 2626.42 807.582L2602.03 793.871C2601.22 793.399 2600.54 792.718 2600.07 791.899C2599.59 791.08 2599.35 790.152 2599.35 789.207V743.41L2623.87 740.442L2623.8 802.988Z" fill="black"/>
<path opacity="0.2" d="M2606.91 582.486L2774.62 485.663C2775.42 485.198 2776.34 484.953 2777.27 484.953C2778.2 484.953 2779.11 485.198 2779.92 485.663L2804.37 499.303C2803.55 498.819 2802.61 498.563 2801.65 498.563C2800.7 498.563 2799.76 498.819 2798.93 499.303L2631.43 595.985C2628.27 597.767 2625.78 600.551 2624.37 603.9L2599.98 589.766C2601.48 586.679 2603.9 584.136 2606.91 582.486Z" fill="white"/>
<path opacity="0.1" d="M2598.92 659.026V596.692C2598.93 594.38 2599.41 592.095 2600.34 589.978L2624.72 604.112C2623.9 606.105 2623.49 608.246 2623.52 610.402V672.807L2599 659.096L2598.92 659.026Z" fill="black"/>
<path opacity="0.05" d="M2540.83 719.098L2598.92 659.026L2623.45 672.736L2565.43 732.738C2560.9 737.332 2559.91 744.046 2562.32 746.873L2539.13 734.152C2535.11 732.597 2535.67 724.469 2540.83 719.098Z" fill="white"/>
<path d="M2723.38 587.292C2723.92 586.874 2724.58 586.646 2725.25 586.646C2725.93 586.646 2726.59 586.874 2727.13 587.292L2759.99 618.742C2762.32 620.933 2759.99 627.293 2756.32 629.484L2738.15 639.944L2738.58 714.646L2709.46 731.466L2709.03 656.764L2690.87 667.224C2687.05 669.485 2684.86 665.669 2687.13 660.863L2719.64 591.603C2720.46 589.846 2721.76 588.354 2723.38 587.292Z" fill="white"/>
<path opacity="0.1" d="M2701.83 1785.49C2690.73 1759.56 2667.62 1734.96 2632.57 1714.82C2530.44 1655.81 2365.42 1655.81 2263.93 1714.82C2162.44 1773.83 2163.01 1869.38 2265.13 1928.32C2347.11 1975.68 2469.66 1984.86 2567.26 1956.24V1865.07L2701.83 1785.49Z" fill="black"/>
<path d="M2087.88 1131.05L2206.97 1038.05L2218.56 1058.97L2097.71 1153.74L2087.88 1131.05Z" fill="#263238"/>
<path d="M2306.83 1214.73L2373.69 1208.65C2365.21 1251.06 2350.29 1309.86 2350.29 1309.86L2288.67 1270.28L2306.83 1214.73Z" fill="#455A64"/>
<path d="M1940.11 1488.31C1940.03 1473.01 1945 1458.11 1954.24 1445.91C1961.6 1437.5 1969.38 1429.48 1977.56 1421.88C1983.42 1416.25 1987.87 1409.32 1990.57 1401.66C1993.16 1392.86 1997.01 1384.48 2002.02 1376.79C2007.58 1367.89 2016.33 1361.45 2026.47 1358.77C2028.45 1358.29 2030.51 1358.24 2032.52 1358.6C2034.53 1358.97 2036.44 1359.75 2038.13 1360.89L2036.15 1358.41C2034.39 1356.19 2032.03 1354.53 2029.35 1353.61C2026.67 1352.7 2023.78 1352.57 2021.03 1353.25C2010.64 1355.95 2001.7 1362.56 1996.08 1371.7C1990.9 1379.49 1986.95 1388.02 1984.35 1397C1981.68 1405.03 1977.12 1412.3 1971.06 1418.2C1962.72 1425.95 1954.79 1434.14 1947.31 1442.73C1937.86 1455.13 1932.74 1470.31 1932.76 1485.91C1932.5 1489.12 1932.9 1492.35 1933.92 1495.41C1934.94 1498.47 1936.56 1501.3 1938.69 1503.72C1941.19 1505.94 1944.34 1507.3 1947.67 1507.6C1947.01 1507.2 1946.39 1506.72 1945.83 1506.19C1943.7 1503.76 1942.09 1500.92 1941.11 1497.85C1940.12 1494.77 1939.78 1491.52 1940.11 1488.31Z" fill="black"/>
<path d="M2041.38 1363.43C2040.47 1362.31 2039.4 1361.33 2038.2 1360.53C2036.51 1359.39 2034.6 1358.62 2032.59 1358.25C2030.58 1357.89 2028.52 1357.94 2026.54 1358.41C2016.4 1361.1 2007.66 1367.54 2002.09 1376.43C1997.03 1384.23 1993.15 1392.73 1990.57 1401.66C1987.94 1409.5 1983.48 1416.6 1977.56 1422.37C1969.38 1429.98 1961.6 1438 1954.24 1446.4C1945 1458.6 1940.03 1473.5 1940.11 1488.8C1939.85 1491.95 1940.23 1495.12 1941.23 1498.12C1942.22 1501.12 1943.81 1503.89 1945.9 1506.26C1946.46 1506.79 1947.08 1507.27 1947.74 1507.67C1950.09 1509.08 1952.72 1509.94 1955.45 1510.2C1958.18 1510.46 1960.93 1510.1 1963.5 1509.16C1969.38 1506.87 1974.51 1503 1978.34 1497.99C1982.37 1493.26 1985.41 1487.96 1989.72 1483.15C1996.6 1475.5 2004.31 1468.63 2012.69 1462.66L2035.37 1445.27L2045.69 1369.65C2045.69 1369.65 2043.78 1366.33 2041.38 1363.43Z" fill="#263238"/>
<path d="M2203.15 1350.71L2199.69 1444.07C2157.29 1401.1 2046.89 1361.03 2046.89 1361.03C2005.05 1391.84 2014.38 1427.25 2030.07 1444.07C2116.58 1491.14 2215.38 1554.46 2238 1549.23C2260.61 1544 2290.58 1509.65 2312.56 1444.92L2270.15 1372.12L2203.15 1350.71Z" fill="#37474F"/>
<path d="M2502.53 1852C2501.61 1853.9 2500.31 1855.61 2498.72 1857C2497.13 1858.4 2495.28 1859.46 2493.27 1860.12C2489.27 1861.45 2485.11 1862.19 2480.9 1862.32C2471.8 1863.27 2462.62 1863.13 2453.55 1861.89C2444.46 1860.68 2435.87 1856.99 2428.74 1851.22C2422.61 1845.23 2417.29 1838.45 2412.91 1831.08C2401.22 1813.97 2386.71 1798.96 2370.01 1786.69C2370.45 1789.74 2371.06 1792.76 2371.85 1795.74C2387.91 1807.62 2401.8 1822.18 2412.91 1838.78C2417.3 1846.17 2422.62 1852.96 2428.74 1858.99C2435.89 1864.74 2444.47 1868.42 2453.55 1869.67C2462.62 1870.83 2471.8 1870.97 2480.9 1870.09C2485.11 1869.94 2489.28 1869.18 2493.27 1867.83C2495.28 1867.16 2497.13 1866.1 2498.72 1864.71C2500.31 1863.31 2501.61 1861.61 2502.53 1859.7C2503.71 1856.83 2503.89 1853.64 2503.02 1850.65C2502.89 1851.11 2502.72 1851.56 2502.53 1852Z" fill="#263238"/>
<path d="M2498.78 1834.96C2494.59 1830.59 2489.84 1826.78 2484.65 1823.66C2461.62 1807.96 2444.44 1785.07 2435.81 1758.57L2370.93 1762.24C2368.05 1770.09 2367.73 1778.65 2370.01 1786.69C2386.71 1798.96 2401.22 1813.97 2412.91 1831.08C2417.29 1838.45 2422.61 1845.23 2428.74 1851.22C2435.87 1856.99 2444.46 1860.68 2453.55 1861.89C2462.62 1863.13 2471.8 1863.27 2480.9 1862.32C2485.11 1862.19 2489.27 1861.45 2493.27 1860.12C2495.28 1859.46 2497.13 1858.4 2498.72 1857C2500.31 1855.61 2501.61 1853.9 2502.53 1852C2502.72 1851.56 2502.89 1851.11 2503.02 1850.65C2503.63 1847.89 2503.57 1845.02 2502.83 1842.29C2502.09 1839.56 2500.7 1837.04 2498.78 1834.96Z" fill="#37474F"/>
<path d="M2158.42 1202.01C2144.28 1270.56 2149.72 1300.95 2203.15 1350.43C2256.58 1399.9 2344.5 1470.57 2344.5 1470.57C2323.3 1540.33 2354.96 1632.13 2356.16 1667.54C2357.36 1702.95 2366.06 1762.81 2366.06 1762.81C2414.82 1788.96 2440.97 1762.81 2440.97 1762.81V1455.31C2440.99 1428.33 2431.22 1402.26 2413.48 1381.95L2306.83 1260.32V1214.94L2158.42 1202.01Z" fill="#455A64"/>
<path d="M2534.33 1021.16C2543.57 1024.23 2553.44 1024.94 2563.02 1023.21C2563.02 1004.69 2563.02 983.983 2564.51 957.056C2567.97 898.963 2552.28 866.947 2539.35 855.357C2526.41 843.766 2504.01 843.554 2495.74 850.905C2487.47 858.255 2507.76 884.969 2510.65 908.221C2499.06 894.652 2493.2 890.058 2482.38 898.327C2488.76 905.74 2493.57 914.371 2496.52 923.698C2498.85 935.36 2511.29 943.487 2514.75 953.099C2517.44 960.59 2514.75 984.548 2510.3 1005.11C2516.82 1012.41 2525.09 1017.93 2534.33 1021.16Z" fill="#F28F8F"/>
<path opacity="0.2" d="M2534.33 1021.16C2543.57 1024.23 2553.44 1024.94 2563.02 1023.21C2563.02 1004.69 2563.02 983.983 2564.51 957.056C2567.97 898.963 2552.28 866.947 2539.35 855.357C2526.41 843.766 2504.01 843.554 2495.74 850.905C2487.47 858.255 2507.76 884.969 2510.65 908.221C2499.06 894.652 2493.2 890.058 2482.38 898.327C2488.76 905.74 2493.57 914.371 2496.52 923.698C2498.85 935.36 2511.29 943.487 2514.75 953.099C2517.44 960.59 2514.75 984.548 2510.3 1005.11C2516.82 1012.41 2525.09 1017.93 2534.33 1021.16Z" fill="black"/>
<path d="M2534.33 1021.16C2525.01 1017.96 2516.67 1012.44 2510.09 1005.11C2508.82 1011.26 2507.4 1017.13 2505.99 1022.08C2505.99 1022.08 2461.11 960.52 2451 948.858C2440.9 937.197 2431.64 909.423 2387.4 904.263L2392.7 1012.82C2392.7 1012.82 2481.82 1114.23 2512.35 1131.34C2542.88 1148.44 2553.06 1126.25 2559.28 1085.19C2562.06 1064.65 2563.24 1043.93 2562.81 1023.21C2553.29 1024.9 2543.51 1024.2 2534.33 1021.16Z" fill="#455A64"/>
<path opacity="0.3" d="M2499.42 1087.8C2492.35 1062.57 2502.88 1031.26 2506.48 1022.08L2498.85 1011.62C2493.26 1023.56 2490.42 1036.59 2490.51 1049.77C2490.61 1062.95 2493.65 1075.95 2499.42 1087.8Z" fill="black"/>
<path d="M2256.02 901.931C2230.43 898.468 2203.15 902.779 2175.24 907.444C2170.1 968.138 2170.1 1029.16 2175.24 1089.85L2153.12 1208.37C2239.69 1260.67 2350.08 1237.42 2372.2 1222.51C2407.05 1086.6 2415.74 958.187 2387.61 904.475L2318.77 892.814L2256.02 901.931Z" fill="#37474F"/>
<path d="M2311.21 954.795L2291 938.752C2297.36 935.66 2303.98 933.13 2310.79 931.19L2318.77 935.148L2311.21 954.795Z" fill="#90CAF9"/>
<path d="M2332.91 953.099L2337.36 950.343L2344.85 934.088L2336.16 931.19L2331 935.148L2332.91 953.099Z" fill="#90CAF9"/>
<path d="M2316.65 965.962C2301.39 1026.6 2230.29 1066.11 2171.7 1061.87C2163.39 1061.09 2155.07 1063.24 2148.17 1067.94C2139.55 1074.16 2131.91 1081.61 2125.48 1090.06C2124.64 1091.2 2124.07 1092.5 2123.81 1093.89C2123.55 1095.27 2123.6 1096.7 2123.97 1098.06C2124.33 1099.42 2125 1100.68 2125.93 1101.74C2126.85 1102.8 2128 1103.64 2129.3 1104.2C2142.27 1109.4 2155.65 1113.51 2169.3 1116.5C2183.56 1119.8 2198.42 1119.41 2212.48 1115.37C2318.99 1084.55 2333.76 1016.42 2330.86 965.891L2316.65 965.962Z" fill="#90CAF9"/>
<path opacity="0.3" d="M2331 968.647C2331 967.728 2331 966.809 2331 965.961H2316.87C2316.87 965.961 2316.87 966.527 2316.87 966.809C2318.88 968.486 2321.33 969.542 2323.93 969.848C2326.35 970.062 2328.79 969.648 2331 968.647Z" fill="black"/>
<path d="M2318.77 935.218C2322.83 934.583 2326.95 934.583 2331 935.218C2334.46 939.614 2336.66 944.866 2337.36 950.413C2336.31 956.018 2334.1 961.34 2330.86 966.032C2327.18 968.788 2316.72 966.032 2316.72 966.032C2314.03 962.463 2311.66 958.654 2309.66 954.654C2309.05 953.411 2308.73 952.045 2308.73 950.661C2308.73 949.276 2309.05 947.91 2309.66 946.668C2311.83 942.233 2314.94 938.326 2318.77 935.218Z" fill="#90CAF9"/>
<path opacity="0.3" d="M2357.29 1243.64C2346.43 1256.85 2331.18 1265.73 2314.32 1268.66L2350.3 1309.79C2346.52 1296.75 2340.44 1284.5 2332.34 1273.6C2343.73 1266.63 2352.5 1256.1 2357.29 1243.64Z" fill="black"/>
<path d="M2324.29 933.31C2340.68 928.928 2351.14 947.445 2351.14 947.445C2352.13 907.232 2331.28 891.825 2331.28 891.825L2324.29 933.31Z" fill="#455A64"/>
<path d="M2254.46 734.646C2247.39 729.77 2239.83 724.964 2232.48 720.158C2234.32 717.931 2236.63 716.141 2239.25 714.918C2241.86 713.696 2244.72 713.071 2247.61 713.091C2250.9 713.348 2253.96 714.868 2256.16 717.331C2258.3 719.871 2259.39 723.133 2259.2 726.448C2259.9 713.303 2271.21 701.501 2283.01 695.776C2295.17 690.596 2308.47 688.672 2321.6 690.193C2334.68 691.041 2347.68 693.585 2360.76 694.009C2375.92 694.582 2391.07 692.452 2405.49 687.719C2407.08 687.184 2408.79 687.093 2410.43 687.454C2412.07 687.816 2413.58 688.617 2414.8 689.771C2416.02 690.926 2416.91 692.391 2417.36 694.009C2417.81 695.627 2417.81 697.337 2417.36 698.956C2414.84 707.301 2410.6 715.028 2404.93 721.642C2407.96 722.506 2411.11 722.84 2414.26 722.632C2415.96 722.517 2417.66 722.874 2419.17 723.663C2420.68 724.453 2421.94 725.644 2422.82 727.106C2423.7 728.568 2424.15 730.243 2424.14 731.948C2424.12 733.652 2423.64 735.32 2422.74 736.767C2416.96 745.221 2408.83 751.785 2399.34 755.636C2364.5 810.621 2270.58 859.739 2270.58 859.739C2267.4 859.318 2264.37 858.134 2261.75 856.288C2259.12 854.442 2256.99 851.989 2255.52 849.138C2252.72 843.358 2250.93 837.144 2250.22 830.763C2246.17 806.686 2242.85 782.492 2240.26 758.181C2239.33 753.061 2239.55 747.8 2240.89 742.774C2241.63 740.362 2243.1 738.24 2245.1 736.706C2247.11 735.173 2249.54 734.304 2252.06 734.222" fill="#263238"/>
<path d="M2263.58 819.738C2261.03 842.424 2256.02 881.577 2256.02 881.577C2275.81 908.292 2314.11 914.158 2324.29 933.31C2330.86 912.035 2335.15 890.12 2337.08 867.937L2271.71 816.557L2263.58 819.738Z" fill="#F28F8F"/>
<path opacity="0.2" d="M2263.58 819.738C2261.03 842.424 2256.02 881.577 2256.02 881.577C2275.81 908.292 2314.11 914.158 2324.29 933.31C2330.86 912.035 2335.15 890.12 2337.08 867.937L2271.71 816.557L2263.58 819.738Z" fill="black"/>
<path opacity="0.3" d="M2271.71 816.557L2270.01 817.193C2269.19 835.465 2275.28 853.374 2287.07 867.36C2298.85 881.346 2315.47 890.383 2333.62 892.673C2336.23 877.337 2336.8 867.937 2336.8 867.937L2271.71 816.557Z" fill="black"/>
<path d="M2399.34 755.778C2404.27 793.558 2400.07 831.968 2387.12 867.796C2385.45 872.238 2382.47 876.063 2378.56 878.754C2374.66 881.446 2370.02 882.875 2365.28 882.849C2315.81 882.849 2276.51 865.887 2269.66 821.787C2267.16 824.963 2263.71 827.244 2259.81 828.289C2255.91 829.334 2251.78 829.086 2248.03 827.582C2241.01 824.342 2235.37 818.704 2232.13 811.681C2230.04 808.038 2228.65 804.034 2228.03 799.878C2227.43 795.673 2228.46 791.396 2230.93 787.935C2233.22 785.373 2236.27 783.598 2239.63 782.862C2242.99 782.127 2246.5 782.467 2249.66 783.835C2256.07 786.719 2261.13 791.957 2263.79 798.465C2264.85 800.868 2266.26 803.765 2268.88 803.836C2271.49 803.907 2273.12 800.868 2273.97 798.324C2277.1 787.954 2278.46 777.131 2278 766.308C2285.83 767.8 2293.94 766.259 2300.68 761.997C2307.22 757.51 2311.78 750.676 2313.4 742.915C2315.5 746.899 2318.52 750.323 2322.21 752.905C2325.89 755.486 2330.14 757.15 2334.61 757.757C2338.95 758.349 2343.37 757.895 2347.5 756.432C2351.63 754.969 2355.35 752.54 2358.35 749.347C2363.45 754.551 2370.09 757.972 2377.29 759.1C2384.81 760.141 2392.47 758.987 2399.34 755.778Z" fill="#F28F8F"/>
<path opacity="0.2" d="M2399.34 755.778C2404.27 793.558 2400.07 831.968 2387.12 867.796C2385.45 872.238 2382.47 876.063 2378.56 878.754C2374.66 881.446 2370.02 882.875 2365.28 882.849C2315.81 882.849 2276.51 865.887 2269.66 821.787C2267.16 824.963 2263.71 827.244 2259.81 828.289C2255.91 829.334 2251.78 829.086 2248.03 827.582C2241.01 824.342 2235.37 818.704 2232.13 811.681C2230.04 808.038 2228.65 804.034 2228.03 799.878C2227.43 795.673 2228.46 791.396 2230.93 787.935C2233.22 785.373 2236.27 783.598 2239.63 782.862C2242.99 782.127 2246.5 782.467 2249.66 783.835C2256.07 786.719 2261.13 791.957 2263.79 798.465C2264.85 800.868 2266.26 803.765 2268.88 803.836C2271.49 803.907 2273.12 800.868 2273.97 798.324C2277.1 787.954 2278.46 777.131 2278 766.308C2285.83 767.8 2293.94 766.259 2300.68 761.997C2307.22 757.51 2311.78 750.676 2313.4 742.915C2315.5 746.899 2318.52 750.323 2322.21 752.905C2325.89 755.486 2330.14 757.15 2334.61 757.757C2338.95 758.349 2343.37 757.895 2347.5 756.432C2351.63 754.969 2355.35 752.54 2358.35 749.347C2363.45 754.551 2370.09 757.972 2377.29 759.1C2384.81 760.141 2392.47 758.987 2399.34 755.778Z" fill="black"/>
<path d="M2354.18 798.606L2376.87 827.229L2355.38 834.367L2354.18 798.606Z" fill="#F28F8F"/>
<path opacity="0.3" d="M2354.18 798.606L2376.87 827.229L2355.38 834.367L2354.18 798.606Z" fill="black"/>
<path d="M2335.6 847.937L2353.48 853.802C2352.3 855.904 2350.47 857.564 2348.26 858.533C2346.05 859.502 2343.59 859.727 2341.25 859.174C2339.17 858.226 2337.47 856.595 2336.44 854.551C2335.41 852.507 2335.12 850.173 2335.6 847.937Z" fill="#F28F8F"/>
<path opacity="0.3" d="M2335.6 847.937L2353.48 853.802C2352.3 855.904 2350.47 857.564 2348.26 858.533C2346.05 859.502 2343.59 859.727 2341.25 859.174C2339.17 858.226 2337.47 856.595 2336.44 854.551C2335.41 852.507 2335.12 850.173 2335.6 847.937Z" fill="black"/>
<path d="M2347.11 858.891C2345.2 859.454 2343.16 859.454 2341.25 858.891C2339.6 858.215 2338.19 857.072 2337.18 855.603C2336.18 854.133 2335.63 852.402 2335.59 850.622C2338.04 850.271 2340.54 850.77 2342.66 852.036C2343.82 852.83 2344.81 853.844 2345.57 855.02C2346.33 856.196 2346.86 857.512 2347.11 858.891Z" fill="#F28F8F"/>
<path d="M2322.73 804.189C2322.75 805.028 2322.94 805.854 2323.28 806.62C2323.62 807.385 2324.11 808.075 2324.72 808.648C2325.34 809.221 2326.06 809.665 2326.84 809.956C2327.63 810.246 2328.47 810.376 2329.31 810.338C2330.58 810.309 2331.82 809.9 2332.87 809.163C2333.91 808.426 2334.71 807.395 2335.17 806.201C2335.62 805.008 2335.71 803.705 2335.42 802.46C2335.14 801.216 2334.48 800.085 2333.55 799.212C2332.62 798.339 2331.45 797.764 2330.19 797.56C2328.92 797.356 2327.63 797.532 2326.47 798.066C2325.31 798.6 2324.33 799.467 2323.67 800.558C2323 801.649 2322.68 802.913 2322.73 804.189Z" fill="#263238"/>
<path d="M2375.95 800.303C2376.04 801.99 2376.79 803.575 2378.03 804.723C2379.27 805.87 2380.9 806.49 2382.59 806.451C2383.87 806.408 2385.1 805.987 2386.13 805.242C2387.17 804.497 2387.96 803.462 2388.4 802.268C2388.85 801.073 2388.93 799.773 2388.63 798.533C2388.34 797.294 2387.68 796.169 2386.74 795.304C2385.81 794.438 2384.64 793.87 2383.38 793.671C2382.12 793.472 2380.83 793.652 2379.67 794.188C2378.52 794.723 2377.54 795.591 2376.88 796.679C2376.22 797.768 2375.89 799.029 2375.95 800.303Z" fill="#263238"/>
<path d="M2381.32 774.648L2395.81 783.977C2396.37 782.197 2396.38 780.287 2395.82 778.505C2395.26 776.723 2394.18 775.155 2392.7 774.012C2390.93 773.056 2388.93 772.609 2386.92 772.722C2384.91 772.834 2382.97 773.501 2381.32 774.648Z" fill="#263238"/>
<path d="M2326.62 775.779L2312.48 786.026C2311.82 784.291 2311.7 782.392 2312.14 780.586C2312.58 778.779 2313.56 777.151 2314.96 775.92C2316.68 774.768 2318.7 774.141 2320.77 774.116C2322.84 774.091 2324.87 774.668 2326.62 775.779Z" fill="#263238"/>
<path d="M2256.02 881.577L2257.29 871.542C2256.44 871.43 2255.59 871.43 2254.74 871.542C2247.68 875.287 2234.74 895.712 2234.74 895.712C2239.34 906.596 2261.46 940.448 2278.84 952.251C2298.99 942.145 2313.55 928.01 2324.29 933.169C2320.12 909.776 2256.02 881.577 2256.02 881.577Z" fill="#455A64"/>
<path d="M2216.72 1253.82C2265.13 1185.97 2371.64 1028.86 2365.14 900.447L2387.12 904.122C2396.23 1030.56 2296.02 1195.44 2226.26 1280.95L2216.72 1253.82Z" fill="#263238"/>
<path d="M2201.74 1307.67L2054.17 1183.14L2028.09 1275.02C2027.94 1275.6 2027.94 1276.22 2028.07 1276.81C2028.21 1277.4 2028.48 1277.95 2028.87 1278.41L2029.37 1278.83L2175.09 1409.16C2174.6 1408.67 2174.25 1408.05 2174.08 1407.38C2173.91 1406.71 2173.91 1406.01 2174.11 1405.34L2201.74 1307.67Z" fill="#90CAF9"/>
<path opacity="0.15" d="M2201.74 1307.67L2054.17 1183.14L2028.09 1275.02C2027.94 1275.6 2027.94 1276.22 2028.07 1276.81C2028.21 1277.4 2028.48 1277.95 2028.87 1278.41L2029.37 1278.83L2175.09 1409.16C2174.6 1408.67 2174.25 1408.05 2174.08 1407.38C2173.91 1406.71 2173.91 1406.01 2174.11 1405.34L2201.74 1307.67Z" fill="black"/>
<path d="M2195.38 1330.14L2218.56 1248.3L2195.38 1330.14Z" fill="#90CAF9"/>
<path d="M2234.46 1239.75L2234.39 1239.68L2234.46 1239.82V1239.75Z" fill="#90CAF9"/>
<path d="M2175.02 1409.65H2175.1L2174.95 1409.58L2175.02 1409.65Z" fill="#90CAF9"/>
<path d="M2235.94 1244.13C2236.04 1243.35 2235.96 1242.55 2235.7 1241.8C2235.45 1241.06 2235.02 1240.38 2234.46 1239.82C2233.87 1239.27 2233.16 1238.86 2232.39 1238.63C2231.62 1238.4 2230.8 1238.34 2230.01 1238.48C2227.37 1238.93 2224.91 1240.12 2222.93 1241.9C2220.94 1243.69 2219.5 1246.01 2218.77 1248.59L2195.52 1330.14L2174.32 1405.76C2174.13 1406.43 2174.12 1407.14 2174.29 1407.81C2174.47 1408.48 2174.82 1409.09 2175.31 1409.58C2175.79 1410.06 2176.39 1410.4 2177.05 1410.56C2177.71 1410.72 2178.4 1410.7 2179.05 1410.5L2207.96 1401.74C2210.13 1401.1 2212.06 1399.84 2213.53 1398.12C2215 1396.4 2215.94 1394.29 2216.23 1392.05L2235.94 1244.13Z" fill="#90CAF9"/>
<path opacity="0.3" d="M2235.94 1244.13C2236.04 1243.35 2235.96 1242.55 2235.7 1241.8C2235.45 1241.06 2235.02 1240.38 2234.46 1239.82C2233.87 1239.27 2233.16 1238.86 2232.39 1238.63C2231.62 1238.4 2230.8 1238.34 2230.01 1238.48C2227.37 1238.93 2224.91 1240.12 2222.93 1241.9C2220.94 1243.69 2219.5 1246.01 2218.77 1248.59L2195.52 1330.14L2174.32 1405.76C2174.13 1406.43 2174.12 1407.14 2174.29 1407.81C2174.47 1408.48 2174.82 1409.09 2175.31 1409.58C2175.79 1410.06 2176.39 1410.4 2177.05 1410.56C2177.71 1410.72 2178.4 1410.7 2179.05 1410.5L2207.96 1401.74C2210.13 1401.1 2212.06 1399.84 2213.53 1398.12C2215 1396.4 2215.94 1394.29 2216.23 1392.05L2235.94 1244.13Z" fill="black"/>
<path d="M2149.86 1254.59L2123.71 1348.31L2127.81 1352.26L2153.12 1259.26L2149.86 1254.59Z" fill="#90CAF9"/>
<path d="M2094.39 1204.98L2068.31 1298.76L2072.41 1302.72L2097.71 1209.71L2094.39 1204.98Z" fill="#90CAF9"/>
<path d="M2088.24 1109.15C2087.66 1108.63 2086.97 1108.24 2086.23 1108.02C2085.48 1107.8 2084.69 1107.75 2083.93 1107.87C2081.29 1108.32 2078.83 1109.51 2076.84 1111.3C2074.85 1113.09 2073.41 1115.41 2072.69 1117.98L2052.69 1188.65C2051.53 1192.83 2051.58 1197.25 2052.83 1201.41C2054.08 1205.56 2056.48 1209.27 2059.76 1212.12L2075.16 1225.48L2180.04 1316.86C2181.68 1318.29 2183.65 1319.28 2185.77 1319.74C2187.89 1320.2 2190.1 1320.12 2192.18 1319.5C2194.26 1318.87 2196.15 1317.74 2197.68 1316.19C2199.2 1314.64 2200.31 1312.73 2200.89 1310.64L2218.56 1248.44C2219.28 1245.87 2220.72 1243.55 2222.71 1241.76C2224.7 1239.97 2227.16 1238.79 2229.8 1238.34C2230.59 1238.2 2231.41 1238.25 2232.18 1238.49C2232.95 1238.72 2233.66 1239.13 2234.25 1239.68L2088.24 1109.15Z" fill="#90CAF9"/>
<path opacity="0.2" d="M2088.24 1109.15C2087.66 1108.63 2086.97 1108.24 2086.23 1108.02C2085.48 1107.8 2084.69 1107.75 2083.93 1107.87C2081.29 1108.32 2078.83 1109.51 2076.84 1111.3C2074.85 1113.09 2073.41 1115.41 2072.69 1117.98L2052.69 1188.65C2051.53 1192.83 2051.58 1197.25 2052.83 1201.41C2054.08 1205.56 2056.48 1209.27 2059.76 1212.12L2075.16 1225.48L2180.04 1316.86C2181.68 1318.29 2183.65 1319.28 2185.77 1319.74C2187.89 1320.2 2190.1 1320.12 2192.18 1319.5C2194.26 1318.87 2196.15 1317.74 2197.68 1316.19C2199.2 1314.64 2200.31 1312.73 2200.89 1310.64L2218.56 1248.44C2219.28 1245.87 2220.72 1243.55 2222.71 1241.76C2224.7 1239.97 2227.16 1238.79 2229.8 1238.34C2230.59 1238.2 2231.41 1238.25 2232.18 1238.49C2232.95 1238.72 2233.66 1239.13 2234.25 1239.68L2088.24 1109.15Z" fill="white"/>
<path d="M1997.63 1116L2002.37 1187.45C2012.48 1258.69 2025.62 1269.93 2058.2 1279.33C2090.78 1288.73 2071.7 1248.02 2067.46 1240.46C2064.34 1233.71 2062.13 1226.58 2060.89 1219.26C2076.93 1233.81 2081.03 1232.26 2087.39 1227.81C2089.93 1225.83 2077.92 1215.37 2077.92 1215.37C2071.55 1201.69 2063.27 1188.98 2053.32 1177.63L2057.07 1115.86L1997.63 1116Z" fill="#F28F8F"/>
<path opacity="0.2" d="M1997.63 1116L2002.37 1187.45C2012.48 1258.69 2025.62 1269.93 2058.2 1279.33C2090.78 1288.73 2071.7 1248.02 2067.46 1240.46C2064.34 1233.71 2062.13 1226.58 2060.89 1219.26C2076.93 1233.81 2081.03 1232.26 2087.39 1227.81C2089.93 1225.83 2077.92 1215.37 2077.92 1215.37C2071.55 1201.69 2063.27 1188.98 2053.32 1177.63L2057.07 1115.86L1997.63 1116Z" fill="black"/>
<path d="M2209.65 902.355C2163.79 894.652 2133.61 917.762 2112.69 931.19C2097.57 940.943 2042.02 982.782 2012.48 1005.19C2006.63 1009.62 2001.92 1015.38 1998.72 1021.99C1995.53 1028.6 1993.95 1035.87 1994.1 1043.21L1995.73 1118.76C2005.48 1123.9 2016.43 1126.37 2027.45 1125.92C2038.47 1125.48 2049.17 1122.13 2058.48 1116.21L2063.86 1060.81C2063.86 1060.81 2128.31 1029.43 2171.63 1009.71C2214.96 989.99 2220.19 934.653 2209.65 902.355Z" fill="#455A64"/>
<path opacity="0.1" d="M2022.23 1843.09C2010.39 1839.12 1997.97 1837.11 1985.48 1837.16C1946.04 1837.16 1914.1 1855.46 1914.1 1878C1914.1 1900.55 1946.04 1918.92 1985.48 1918.92C1997.98 1918.98 2010.4 1916.95 2022.23 1912.92V1843.09Z" fill="black"/>
<path opacity="0.1" d="M3751.82 1672.42C3853.95 1731.43 3854.44 1826.98 3753.02 1885.99C3651.61 1945 3486.51 1944.93 3384.39 1885.99C3282.27 1827.05 3281.7 1731.43 3383.19 1672.42C3484.68 1613.4 3649.7 1613.69 3751.82 1672.42Z" fill="black"/>
<path d="M3881.79 1004.41L3870.48 998.825C3895.93 1017.34 3939.67 1117.06 3956 1157.63C3956.21 1158.15 3956.61 1158.57 3957.13 1158.8C3957.65 1159.03 3958.23 1159.04 3958.76 1158.83C3959.28 1158.62 3959.7 1158.22 3959.93 1157.7C3960.15 1157.18 3960.16 1156.6 3959.96 1156.07C3954.51 1142.5 3913.31 1040.45 3881.79 1004.41Z" fill="#E0E0E0"/>
<path d="M3705.96 1706.97L3716.06 1689.66L3702.92 1681.32C3700.6 1680.19 3698.03 1679.7 3695.46 1679.93C3692.89 1680.15 3690.44 1681.07 3688.36 1682.59C3682.48 1686.38 3677.58 1691.52 3674.08 1697.58C3670.58 1703.64 3668.57 1710.44 3668.22 1717.43C3667.93 1719.98 3668.37 1722.56 3669.48 1724.88C3670.59 1727.19 3672.33 1729.14 3674.51 1730.51L3687.37 1738.71L3698.04 1720.47C3701.39 1716.43 3704.07 1711.87 3705.96 1706.97Z" fill="#37474F"/>
<path d="M3701.5 1690.86C3712.6 1684.43 3721.72 1689.59 3721.72 1702.45C3721.35 1709.44 3719.34 1716.24 3715.84 1722.3C3712.33 1728.35 3707.45 1733.49 3701.57 1737.29C3690.48 1743.72 3681.36 1738.57 3681.36 1725.77C3681.73 1718.78 3683.74 1711.97 3687.24 1705.9C3690.74 1699.83 3695.63 1694.68 3701.5 1690.86Z" fill="#455A64"/>
<path d="M3485.38 1702.03L3475.28 1684.71L3488.42 1676.37C3490.73 1675.24 3493.31 1674.76 3495.88 1674.98C3498.44 1675.21 3500.9 1676.13 3502.98 1677.64C3508.85 1681.45 3513.74 1686.59 3517.24 1692.64C3520.74 1698.7 3522.76 1705.5 3523.12 1712.49C3523.41 1715.04 3522.97 1717.62 3521.86 1719.93C3520.75 1722.24 3519 1724.19 3516.83 1725.56L3503.97 1733.83L3493.3 1715.6C3489.94 1711.53 3487.26 1706.95 3485.38 1702.03Z" fill="#37474F"/>
<path d="M3489.91 1685.98C3478.74 1679.55 3469.62 1684.64 3469.62 1697.5C3469.99 1704.49 3472 1711.29 3475.5 1717.35C3479 1723.4 3483.89 1728.54 3489.77 1732.35C3500.86 1738.78 3509.98 1733.62 3509.98 1720.83C3509.62 1713.85 3507.62 1707.05 3504.13 1700.99C3500.64 1694.94 3495.77 1689.79 3489.91 1685.98Z" fill="#455A64"/>
<path d="M3557.75 1659.13H3595.21V1723.65C3595.06 1725.31 3594.47 1726.9 3593.5 1728.26C3592.53 1729.61 3591.22 1730.68 3589.7 1731.36C3585.59 1733.45 3581.05 1734.54 3576.45 1734.54C3571.84 1734.54 3567.3 1733.45 3563.19 1731.36C3561.68 1730.68 3560.38 1729.61 3559.42 1728.25C3558.46 1726.89 3557.89 1725.31 3557.75 1723.65V1659.13Z" fill="#EBEBEB"/>
<path d="M3693.38 1677.22V1692.56L3595.21 1717.36V1684.78L3693.38 1677.22Z" fill="#E0E0E0"/>
<path d="M3693.38 1677.22L3686.52 1674.89L3595.21 1679.69V1684.78L3693.38 1677.22Z" fill="#F5F5F5"/>
<path d="M3703.27 1816.73L3693.09 1799.42L3706.24 1791.08C3708.55 1789.92 3711.14 1789.42 3713.72 1789.63C3716.3 1789.84 3718.77 1790.76 3720.87 1792.28C3726.73 1796.1 3731.62 1801.26 3735.12 1807.32C3738.62 1813.39 3740.63 1820.2 3741.01 1827.19C3741.24 1829.73 3740.78 1832.29 3739.67 1834.6C3738.56 1836.9 3736.85 1838.86 3734.72 1840.26L3722.07 1848.53L3711.4 1830.3C3707.96 1826.26 3705.21 1821.67 3703.27 1816.73Z" fill="#37474F"/>
<path d="M3707.93 1800.62C3696.77 1794.19 3687.72 1799.34 3687.65 1812.14C3688.06 1819.12 3690.11 1825.91 3693.63 1831.95C3697.16 1837.99 3702.06 1843.12 3707.93 1846.91C3719.1 1853.34 3728.15 1848.18 3728.22 1835.32C3727.8 1828.35 3725.75 1821.57 3722.22 1815.54C3718.7 1809.52 3713.8 1804.4 3707.93 1800.62Z" fill="#455A64"/>
<path d="M3572.52 1861.04L3582.63 1843.73L3569.49 1835.39C3567.17 1834.23 3564.58 1833.73 3562 1833.94C3559.42 1834.15 3556.95 1835.07 3554.86 1836.59C3549 1840.41 3544.13 1845.56 3540.63 1851.61C3537.13 1857.66 3535.1 1864.45 3534.71 1871.43C3534.47 1873.99 3534.93 1876.56 3536.03 1878.88C3537.14 1881.19 3538.86 1883.16 3541 1884.58L3553.94 1892.78L3564.61 1874.54C3567.94 1870.48 3570.61 1865.93 3572.52 1861.04Z" fill="#37474F"/>
<path d="M3568 1844.65C3579.17 1838.22 3588.21 1843.37 3588.28 1856.17C3587.9 1863.15 3585.88 1869.94 3582.38 1876C3578.88 1882.05 3574 1887.19 3568.14 1891.01C3556.98 1897.44 3547.93 1892.28 3547.86 1879.49C3548.24 1872.51 3550.26 1865.71 3553.76 1859.66C3557.26 1853.6 3562.14 1848.46 3568 1844.65Z" fill="#455A64"/>
<path d="M3430.75 1792.7L3440.86 1775.39L3427.71 1767.05C3425.41 1765.9 3422.83 1765.41 3420.27 1765.62C3417.7 1765.83 3415.24 1766.74 3413.15 1768.25C3407.28 1772.05 3402.39 1777.19 3398.89 1783.25C3395.39 1789.3 3393.38 1796.1 3393.01 1803.09C3392.77 1805.65 3393.22 1808.22 3394.33 1810.54C3395.44 1812.85 3397.16 1814.82 3399.3 1816.24L3412.16 1824.43L3422.84 1806.2C3426.19 1802.16 3428.86 1797.6 3430.75 1792.7Z" fill="#37474F"/>
<path d="M3426.3 1776.66C3437.4 1770.23 3446.51 1775.39 3446.51 1788.18C3446.15 1795.16 3444.14 1801.95 3440.65 1808C3437.16 1814.06 3432.29 1819.2 3426.44 1823.02C3415.28 1829.45 3406.16 1824.29 3406.16 1811.5C3406.52 1804.51 3408.54 1797.71 3412.04 1791.66C3415.54 1785.6 3420.43 1780.46 3426.3 1776.66Z" fill="#455A64"/>
<path d="M3716.98 1779.2V1804.15L3585.53 1733.12V1698.71L3716.98 1779.2Z" fill="#E0E0E0"/>
<path d="M3724.61 1774.96L3593.09 1696.8L3585.53 1698.71L3716.98 1779.2L3724.61 1774.96Z" fill="#F5F5F5"/>
<path d="M3724.61 1799.84L3716.98 1804.15V1779.2L3724.61 1774.96V1799.84Z" fill="#F0F0F0"/>
<path d="M3576.69 1698.71L3560.65 1825.78V1848.53L3576.69 1734.54V1698.71Z" fill="#E0E0E0"/>
<path d="M3560.65 1825.85H3551.39V1848.53H3560.65V1825.85Z" fill="#F0F0F0"/>
<path d="M3551.39 1825.78L3565.95 1698.71H3576.69L3560.65 1825.78H3551.39Z" fill="#F5F5F5"/>
<path d="M3421.07 1755.39V1779.2L3557.75 1723.65V1694.47L3421.07 1755.39Z" fill="#E0E0E0"/>
<path d="M3415.77 1775.67L3421.07 1779.2V1755.39L3415.77 1751.92V1775.67Z" fill="#F0F0F0"/>
<path d="M3437.32 1748.11L3421.07 1755.39L3415.77 1751.92L3557.75 1687.96V1694.47L3437.32 1748.11Z" fill="#F5F5F5"/>
<path d="M3488.56 1664.22V1679.84L3528.42 1701.18L3557.75 1687.96V1681.53L3488.56 1664.22Z" fill="#E0E0E0"/>
<path d="M3488.56 1664.22L3491.74 1662.94L3557.75 1677.22V1681.53L3488.56 1664.22Z" fill="#F5F5F5"/>
<path d="M3545.81 1544H3607.15V1650.01C3606.86 1652.71 3605.86 1655.29 3604.26 1657.48C3602.66 1659.68 3600.52 1661.41 3598.04 1662.52C3591.33 1665.93 3583.9 1667.71 3576.38 1667.71C3568.85 1667.71 3561.42 1665.93 3554.71 1662.52C3552.25 1661.4 3550.13 1659.64 3548.57 1657.43C3547 1655.22 3546.05 1652.64 3545.81 1649.94V1544Z" fill="#E0E0E0"/>
<path d="M3941.16 1066.46C3937.41 1066.53 3933.68 1065.96 3930.13 1064.76L3925.89 1063.49L3929.21 1051.26L3920.87 1041.23C3914.73 1039.2 3908.41 1037.74 3902 1036.85C3882.57 1034.23 3861.01 1038.68 3847.73 1053.17C3834.44 1067.66 3831.97 1087.66 3831.4 1106.74C3830.41 1139.54 3834.44 1172.19 3836.42 1204.98C3839.52 1237.75 3836.99 1270.81 3828.93 1302.72C3819.67 1334.17 3800.66 1363.85 3771.68 1379.68C3760.25 1385.71 3748.05 1390.16 3735.43 1392.9L3635.21 1313.75L3497.05 1270.28L3316.05 1363.15C3311.33 1365.92 3307.33 1369.77 3304.39 1374.38C3290.25 1395.59 3292.73 1433.89 3317.6 1448.1L3567.44 1580.75C3575.7 1585.14 3584.9 1587.48 3594.26 1587.58C3603.62 1587.68 3612.86 1585.53 3621.22 1581.32L3796.21 1492.69C3807.28 1487.08 3817.05 1479.2 3824.89 1469.57C3832.73 1459.94 3838.47 1448.77 3841.72 1436.79L3941.94 1066.6L3941.16 1066.46Z" fill="#37474F"/>
<path d="M3316.05 1362.94L3497.04 1270.07L3635.21 1313.53L3735.43 1392.69C3727.65 1394.6 3719.74 1396.15 3711.96 1397.71C3691.22 1400.72 3671.17 1407.37 3652.74 1417.35C3634.93 1428.31 3620.58 1447.04 3620.44 1467.96L3626.8 1517.43L3621.22 1520.18C3612.87 1524.43 3603.63 1526.59 3594.27 1526.51C3584.9 1526.42 3575.7 1524.08 3567.44 1519.69L3317.6 1387.03C3312.28 1383.93 3307.75 1379.62 3304.39 1374.45C3307.3 1369.74 3311.3 1365.79 3316.05 1362.94Z" fill="#455A64"/>
<path opacity="0.1" d="M3316.05 1362.94L3497.04 1270.07L3635.21 1313.53L3735.43 1392.69C3727.65 1394.6 3719.74 1396.15 3711.96 1397.71C3691.22 1400.72 3671.17 1407.37 3652.74 1417.35C3634.93 1428.31 3620.58 1447.04 3620.44 1467.96L3626.8 1517.43L3621.22 1520.18C3612.87 1524.43 3603.63 1526.59 3594.27 1526.51C3584.9 1526.42 3575.7 1524.08 3567.44 1519.69L3317.6 1387.03C3312.28 1383.93 3307.75 1379.62 3304.39 1374.45C3307.3 1369.74 3311.3 1365.79 3316.05 1362.94Z" fill="black"/>
<path d="M3342.34 1207.67C3342.34 1207.67 3487.64 1250.07 3526.09 1212.68C3573.94 1165.76 3553.87 1047.45 3548.21 1001.16C3542.56 954.866 3548.21 922.78 3561 909.281C3573.8 895.782 3592.38 875.782 3652.88 900.73C3592.03 932.038 3610.48 1092.33 3629.49 1152.12C3581.78 1201.16 3558.81 1265.97 3558.04 1301.31C3558.04 1301.31 3433.86 1331.63 3369.05 1367.18L3342.34 1207.67Z" fill="#455A64"/>
<path opacity="0.1" d="M3342.34 1207.67C3342.34 1207.67 3487.64 1250.07 3526.09 1212.68C3573.94 1165.76 3553.87 1047.45 3548.21 1001.16C3542.56 954.866 3548.21 922.78 3561 909.281C3573.8 895.782 3592.38 875.782 3652.88 900.73C3592.03 932.038 3600.02 1092.33 3619.24 1152.12C3571.53 1201.16 3558.95 1265.97 3558.04 1301.31C3558.04 1301.31 3433.86 1331.63 3369.05 1367.18L3342.34 1207.67Z" fill="white"/>
<path d="M3368.7 1367.18L3338.95 1351.13C3338.95 1269.43 3326.93 1277.49 3304.39 1245.12C3281.84 1212.75 3316.4 1193.18 3342.34 1207.38C3368.28 1221.59 3378.88 1264.77 3368.7 1367.18Z" fill="#455A64"/>
<path opacity="0.2" d="M3368.7 1367.18L3338.95 1351.13C3338.95 1269.43 3326.93 1277.49 3304.39 1245.12C3281.84 1212.75 3316.4 1193.18 3342.34 1207.38C3368.28 1221.59 3378.88 1264.77 3368.7 1367.18Z" fill="white"/>
<path d="M3652.53 900.73C3652.53 900.73 3815.08 971.403 3894.51 1010.42L3888.72 1039.32L3629.13 921.437C3635.26 912.85 3643.26 905.769 3652.53 900.73Z" fill="#455A64"/>
<path opacity="0.1" d="M3652.53 900.73C3652.53 900.73 3815.08 971.403 3894.51 1010.42L3888.72 1039.32L3629.13 921.437C3635.26 912.85 3643.26 905.769 3652.53 900.73Z" fill="white"/>
<path d="M3603.06 1140.81C3586.59 1089.71 3589.98 973.806 3629.13 921.72L3888.72 1039.6L3829.42 1336.93L3735.43 1392.97L3557.68 1301.31C3558.6 1265.97 3555.35 1189.64 3603.06 1140.81Z" fill="#455A64"/>
<path d="M3763.7 1200.39C3759.31 1197.84 3755.71 1199.89 3755.71 1204.98C3755.85 1207.73 3756.64 1210.4 3758.02 1212.79C3759.39 1215.17 3761.31 1217.19 3763.63 1218.69C3768.01 1221.23 3771.61 1219.26 3771.61 1214.17C3771.48 1211.41 3770.7 1208.72 3769.32 1206.32C3767.94 1203.92 3766.02 1201.89 3763.7 1200.39Z" fill="#455A64"/>
<path d="M3723.55 1176.78C3719.1 1174.24 3715.57 1176.29 3715.5 1181.37C3715.66 1184.13 3716.47 1186.8 3717.86 1189.18C3719.24 1191.56 3721.17 1193.58 3723.48 1195.09C3727.86 1197.63 3731.47 1195.65 3731.47 1190.56C3731.32 1187.81 3730.53 1185.12 3729.16 1182.73C3727.78 1180.33 3725.86 1178.3 3723.55 1176.78Z" fill="#455A64"/>
<path d="M3683.34 1153.18C3678.96 1150.63 3675.35 1152.68 3675.35 1157.77C3675.5 1160.52 3676.3 1163.19 3677.67 1165.57C3679.05 1167.95 3680.97 1169.98 3683.27 1171.48C3687.72 1174.02 3691.25 1172.05 3691.33 1166.96C3691.17 1164.2 3690.36 1161.51 3688.97 1159.12C3687.59 1156.72 3685.66 1154.69 3683.34 1153.18Z" fill="#455A64"/>
<path d="M3643.2 1129.57C3638.74 1127.03 3635.21 1129.08 3635.21 1134.16C3635.35 1136.91 3636.14 1139.59 3637.52 1141.97C3638.89 1144.36 3640.82 1146.38 3643.13 1147.88C3647.51 1150.42 3651.11 1148.44 3651.11 1143.35C3650.97 1140.6 3650.17 1137.91 3648.8 1135.52C3647.42 1133.12 3645.51 1131.09 3643.2 1129.57Z" fill="#455A64"/>
<g opacity="0.2">
<path d="M3763.7 1200.39C3759.31 1197.84 3755.71 1199.89 3755.71 1204.98C3755.85 1207.73 3756.64 1210.4 3758.02 1212.79C3759.39 1215.17 3761.31 1217.19 3763.63 1218.69C3768.01 1221.23 3771.61 1219.26 3771.61 1214.17C3771.48 1211.41 3770.7 1208.72 3769.32 1206.32C3767.94 1203.92 3766.02 1201.89 3763.7 1200.39Z" fill="white"/>
<path d="M3723.55 1176.78C3719.1 1174.24 3715.57 1176.29 3715.5 1181.37C3715.66 1184.13 3716.47 1186.8 3717.86 1189.18C3719.24 1191.56 3721.17 1193.58 3723.48 1195.09C3727.86 1197.63 3731.47 1195.65 3731.47 1190.56C3731.32 1187.81 3730.53 1185.12 3729.16 1182.73C3727.78 1180.33 3725.86 1178.3 3723.55 1176.78Z" fill="white"/>
<path d="M3683.34 1153.18C3678.96 1150.63 3675.35 1152.68 3675.35 1157.77C3675.5 1160.52 3676.3 1163.19 3677.67 1165.57C3679.05 1167.95 3680.97 1169.98 3683.27 1171.48C3687.72 1174.02 3691.25 1172.05 3691.33 1166.96C3691.17 1164.2 3690.36 1161.51 3688.97 1159.12C3687.59 1156.72 3685.66 1154.69 3683.34 1153.18Z" fill="white"/>
<path d="M3643.2 1129.57C3638.74 1127.03 3635.21 1129.08 3635.21 1134.16C3635.35 1136.91 3636.14 1139.59 3637.52 1141.97C3638.89 1144.36 3640.82 1146.38 3643.13 1147.88C3647.51 1150.42 3651.11 1148.44 3651.11 1143.35C3650.97 1140.6 3650.17 1137.91 3648.8 1135.52C3647.42 1133.12 3645.51 1131.09 3643.2 1129.57Z" fill="white"/>
</g>
<path d="M3652.74 1417.35C3671.17 1407.37 3691.22 1400.72 3711.96 1397.71C3719.74 1396.15 3727.65 1394.6 3735.43 1392.69C3748.05 1389.94 3760.25 1385.5 3771.68 1379.47C3800.38 1363.64 3819.67 1333.96 3828.93 1302.51C3836.97 1270.64 3839.5 1237.63 3836.42 1204.91C3834.44 1172.12 3830.41 1139.47 3831.4 1106.67C3831.97 1087.59 3834.86 1067.17 3847.73 1053.1C3860.59 1039.04 3882.57 1034.16 3902 1036.78C3908.41 1037.67 3914.73 1039.13 3920.87 1041.16L3929.5 1051.26L3926.17 1063.49L3841.72 1375.37C3835.87 1397.03 3822 1415.65 3802.92 1427.46C3800.73 1428.8 3798.54 1430.15 3796.21 1431.28L3626.59 1517.14L3620.23 1467.67C3620.58 1447.04 3634.93 1428.31 3652.74 1417.35Z" fill="#37474F"/>
<path d="M3652.53 1383.78C3714.51 1366.12 3775.36 1363.85 3797.83 1319.33C3820.31 1274.81 3821.86 1213.32 3810.62 1106.53C3809.23 1092.76 3809.57 1078.87 3811.61 1065.19C3818.26 1025.26 3842.29 1008.15 3869.92 1007.73C3897.27 1007.25 3923.78 1017.21 3944.06 1035.57C3947.99 1038.86 3951.13 1042.99 3953.24 1047.66C3954.23 1049.96 3954.58 1052.48 3954.27 1054.97C3953.96 1057.45 3953 1059.81 3951.48 1061.79C3948.96 1064.4 3945.55 1065.94 3941.93 1066.11H3941.16C3937.41 1066.18 3933.68 1065.6 3930.13 1064.41L3925.89 1063.14C3918.33 1060.73 3910.84 1057.91 3903.14 1056.07C3893.91 1053.35 3884.09 1053.35 3874.87 1056.07C3870.53 1057.78 3866.65 1060.47 3863.55 1063.95C3860.44 1067.42 3858.2 1071.57 3856.99 1076.07C3830.84 1161.44 3864.05 1253.18 3834.58 1323.43C3810.55 1387.53 3727.44 1414.17 3668.85 1433.18C3674.56 1430.94 3679.6 1427.26 3683.48 1422.51C3686.4 1417.99 3687.76 1412.64 3687.34 1407.28C3686.91 1401.91 3684.74 1396.84 3681.15 1392.83C3677.47 1389.11 3672.94 1386.35 3667.96 1384.77C3662.97 1383.2 3657.67 1382.86 3652.53 1383.78Z" fill="#455A64"/>
<path opacity="0.1" d="M3652.53 1383.78C3714.51 1366.12 3775.36 1363.85 3797.83 1319.33C3820.31 1274.81 3821.86 1213.32 3810.62 1106.53C3809.23 1092.76 3809.57 1078.87 3811.61 1065.19C3818.26 1025.26 3842.29 1008.15 3869.92 1007.73C3897.27 1007.25 3923.78 1017.21 3944.06 1035.57C3947.99 1038.86 3951.13 1042.99 3953.24 1047.66C3954.23 1049.96 3954.58 1052.48 3954.27 1054.97C3953.96 1057.45 3953 1059.81 3951.48 1061.79C3948.96 1064.4 3945.55 1065.94 3941.93 1066.11H3941.16C3937.41 1066.18 3933.68 1065.6 3930.13 1064.41L3925.89 1063.14C3918.33 1060.73 3910.84 1057.91 3903.14 1056.07C3893.91 1053.35 3884.09 1053.35 3874.87 1056.07C3870.53 1057.78 3866.65 1060.47 3863.55 1063.95C3860.44 1067.42 3858.2 1071.57 3856.99 1076.07C3830.84 1161.44 3864.05 1253.18 3834.58 1323.43C3810.55 1387.53 3727.44 1414.17 3668.85 1433.18C3674.56 1430.94 3679.6 1427.26 3683.48 1422.51C3686.4 1417.99 3687.76 1412.64 3687.34 1407.28C3686.91 1401.91 3684.74 1396.84 3681.15 1392.83C3677.47 1389.11 3672.94 1386.35 3667.96 1384.77C3662.97 1383.2 3657.67 1382.86 3652.53 1383.78Z" fill="white"/>
<path d="M3609.56 1427.67C3613.18 1417.57 3618.54 1408.17 3625.39 1399.9C3632.33 1391.59 3641.91 1385.9 3652.53 1383.78C3657.81 1382.81 3663.26 1383.17 3668.37 1384.84C3673.48 1386.5 3678.09 1389.42 3681.79 1393.32C3685.38 1397.33 3687.55 1402.41 3687.97 1407.77C3688.39 1413.14 3687.04 1418.49 3684.12 1423.01C3680.23 1427.76 3675.2 1431.43 3669.49 1433.68C3664.81 1435.65 3660.26 1437.89 3655.85 1440.39C3644.28 1448.2 3635.96 1459.96 3632.46 1473.47C3628.98 1486.86 3627.15 1500.63 3627.01 1514.46V1517.15L3597.97 1501.03C3596.63 1476.04 3600.58 1451.04 3609.56 1427.67Z" fill="#455A64"/>
<path opacity="0.2" d="M3609.56 1427.67C3613.18 1417.57 3618.54 1408.17 3625.39 1399.9C3632.33 1391.59 3641.91 1385.9 3652.53 1383.78C3657.81 1382.81 3663.26 1383.17 3668.37 1384.84C3673.48 1386.5 3678.09 1389.42 3681.79 1393.32C3685.38 1397.33 3687.55 1402.41 3687.97 1407.77C3688.39 1413.14 3687.04 1418.49 3684.12 1423.01C3680.23 1427.76 3675.2 1431.43 3669.49 1433.68C3664.81 1435.65 3660.26 1437.89 3655.85 1440.39C3644.28 1448.2 3635.96 1459.96 3632.46 1473.47C3628.98 1486.86 3627.15 1500.63 3627.01 1514.46V1517.15L3597.97 1501.03C3596.63 1476.04 3600.58 1451.04 3609.56 1427.67Z" fill="white"/>
<path d="M4002.29 1143.28L3997.63 1138.19L3719.81 1250.42L3745.67 1344.07L3750.34 1349.08L4028.09 1236.92L4002.29 1143.28Z" fill="#90CAF9"/>
<path opacity="0.2" d="M3719.81 1250.42L3745.67 1344.07L3750.34 1349.08L3724.47 1255.51L3719.81 1250.42Z" fill="black"/>
<path opacity="0.2" d="M4002.29 1143.28L3997.63 1138.19L3719.81 1250.42L3724.47 1255.51L4002.29 1143.28Z" fill="white"/>
<path d="M3869.28 1271.13L3858.33 1231.34C3858.18 1230.8 3857.92 1230.31 3857.55 1229.89C3857.18 1229.47 3856.72 1229.15 3856.21 1228.94H3855.5H3854.72C3854.21 1228.87 3853.69 1228.87 3853.17 1228.94C3852.56 1229.14 3852 1229.48 3851.54 1229.93C3851.08 1230.32 3850.69 1230.8 3850.41 1231.34C3850.24 1231.71 3850.1 1232.08 3849.99 1232.47C3849.96 1232.66 3849.96 1232.85 3849.99 1233.04C3849.84 1233.62 3849.84 1234.22 3849.99 1234.8L3854.37 1250.71L3829.63 1260.32L3825.25 1244.42C3825.08 1243.74 3824.71 1243.14 3824.2 1242.67C3823.68 1242.21 3823.04 1241.9 3822.36 1241.8H3821.01C3820.5 1241.7 3819.97 1241.7 3819.46 1241.8C3818.84 1242.07 3818.27 1242.43 3817.76 1242.86C3817.31 1243.26 3816.92 1243.74 3816.63 1244.27C3816.46 1244.64 3816.32 1245.02 3816.21 1245.4C3816.21 1245.4 3816.21 1245.83 3816.21 1245.97C3816.1 1246.55 3816.1 1247.15 3816.21 1247.74L3827.23 1287.53C3827.38 1288.07 3827.64 1288.58 3828.01 1289.01C3828.24 1289.22 3828.5 1289.38 3828.79 1289.51C3828.93 1289.54 3829.07 1289.54 3829.21 1289.51C3829.56 1289.57 3829.92 1289.57 3830.27 1289.51H3830.91C3831.54 1289.49 3832.17 1289.35 3832.74 1289.08C3833.91 1288.66 3834.89 1287.84 3835.5 1286.77C3836.11 1285.69 3836.31 1284.43 3836.07 1283.22L3831.61 1267.03L3855.71 1257.28L3860.17 1273.46C3860.47 1274.38 3861.1 1275.16 3861.93 1275.65C3861.93 1275.65 3861.93 1275.65 3862.29 1275.65C3862.64 1275.73 3863 1275.73 3863.35 1275.65H3863.91C3864.24 1275.69 3864.57 1275.69 3864.9 1275.65H3865.75C3866.71 1275.33 3867.56 1274.72 3868.19 1273.92C3868.82 1273.12 3869.2 1272.15 3869.28 1271.13Z" fill="white"/>
<path d="M3815.99 1287.39C3815.84 1286.9 3815.58 1286.46 3815.24 1286.08C3814.9 1285.7 3814.48 1285.4 3814.02 1285.19H3812.6C3812.18 1285.13 3811.75 1285.13 3811.33 1285.19C3810.82 1285.41 3810.35 1285.69 3809.92 1286.04C3809.55 1286.38 3809.22 1286.76 3808.93 1287.17L3808.15 1288.23C3807.79 1288.8 3807.39 1289.35 3806.95 1289.86L3806.6 1290.35L3805.18 1291.77C3804.94 1292.11 3804.65 1292.41 3804.33 1292.69C3803.98 1293.04 3803.49 1293.32 3803.06 1293.67L3801.72 1294.66L3800.16 1295.44L3798.18 1296.43L3795.92 1297.14H3795.36H3794.72C3790.91 1297.99 3786.92 1297.3 3783.61 1295.22C3780.3 1293.14 3777.95 1289.84 3777.05 1286.04C3776.45 1283.74 3776.28 1281.34 3776.56 1278.97C3776.69 1277.82 3776.92 1276.69 3777.27 1275.58C3777.24 1275.3 3777.24 1275.02 3777.27 1274.73C3777.55 1273.88 3777.9 1273.05 3778.33 1272.26C3778.78 1271.35 3779.3 1270.48 3779.88 1269.65L3780.23 1269.22C3780.87 1268.38 3781.58 1267.6 3782.35 1266.89L3783.13 1266.32C3784.79 1264.89 3786.67 1263.74 3788.71 1262.93C3792.9 1261.15 3797.59 1260.92 3801.93 1262.3C3802.87 1262.59 3803.88 1262.59 3804.83 1262.3C3806 1261.89 3806.99 1261.07 3807.6 1259.99C3808.21 1258.91 3808.41 1257.64 3808.15 1256.43C3807.94 1255.79 3807.58 1255.2 3807.09 1254.73C3806.68 1254.38 3806.2 1254.12 3805.68 1253.96C3805.02 1253.78 3804.36 1253.64 3803.7 1253.53H3802.28H3801.22C3799.91 1253.39 3798.58 1253.39 3797.27 1253.53C3795.47 1253.62 3793.7 1253.91 3791.97 1254.38C3790.23 1254.81 3788.52 1255.37 3786.88 1256.08C3785 1256.79 3783.2 1257.69 3781.51 1258.76C3779.98 1259.75 3778.51 1260.83 3777.12 1262.01C3777.15 1262.13 3777.15 1262.25 3777.12 1262.37C3775.92 1263.5 3774.79 1264.7 3773.73 1265.97L3773.24 1266.61C3772.24 1267.9 3771.34 1269.27 3770.55 1270.71C3770.06 1271.55 3769.77 1272.54 3769.35 1273.39C3768.93 1274.24 3768.71 1274.88 3768.43 1275.58C3768.18 1276.44 3767.99 1277.31 3767.87 1278.2C3767.61 1279.01 3767.42 1279.83 3767.3 1280.67C3767.23 1281.82 3767.23 1282.98 3767.3 1284.13C3767.27 1284.7 3767.27 1285.27 3767.3 1285.83C3767.38 1287.55 3767.66 1289.26 3768.15 1290.92C3768.65 1292.63 3769.31 1294.28 3770.13 1295.87C3770.42 1296.34 3770.75 1296.79 3771.12 1297.21C3771.67 1298.18 3772.31 1299.1 3773.03 1299.96C3773.6 1300.57 3774.22 1301.13 3774.86 1301.66L3775.99 1302.72L3776.77 1303.29H3777.34C3778.1 1303.8 3778.9 1304.25 3779.74 1304.63L3780.3 1304.98C3783.55 1306.29 3787.02 1306.93 3790.52 1306.87C3794.01 1306.81 3797.46 1306.05 3800.66 1304.63C3807.65 1301.97 3813.52 1296.97 3817.27 1290.49C3817.27 1289.92 3817.16 1289.35 3816.94 1288.81C3816.72 1288.28 3816.4 1287.79 3815.99 1287.39Z" fill="white"/>
<path d="M3891.69 1262.08L3880.73 1222.29C3880.56 1221.68 3880.22 1221.12 3879.76 1220.67C3879.3 1220.23 3878.74 1219.91 3878.12 1219.75C3877.79 1219.72 3877.46 1219.72 3877.13 1219.75H3876.7C3876.21 1219.65 3875.71 1219.65 3875.22 1219.75C3874.61 1220.02 3874.04 1220.38 3873.52 1220.81C3873.09 1221.23 3872.71 1221.71 3872.39 1222.22C3872.21 1222.58 3872.07 1222.96 3871.97 1223.35C3871.94 1223.54 3871.94 1223.73 3871.97 1223.92C3871.83 1224.5 3871.83 1225.11 3871.97 1225.69L3882.92 1265.41C3883.13 1266.17 3883.59 1266.84 3884.21 1267.32C3884.83 1267.8 3885.6 1268.07 3886.39 1268.09H3886.74C3887.37 1268.04 3887.99 1267.9 3888.58 1267.67C3889.65 1267.23 3890.55 1266.44 3891.12 1265.42C3891.68 1264.41 3891.88 1263.23 3891.69 1262.08Z" fill="white"/>
<path d="M3910.77 1258.62L3920.38 1254.8L3940.59 1246.61C3941.63 1246.2 3942.49 1245.43 3943.02 1244.45C3943.55 1243.47 3943.72 1242.33 3943.49 1241.24C3943.27 1240.52 3942.82 1239.89 3942.21 1239.45C3941.59 1239.02 3940.85 1238.8 3940.1 1238.83C3939.61 1238.73 3939.1 1238.73 3938.61 1238.83L3913.17 1249.15L3909.71 1236.43L3931.48 1227.67C3932.51 1227.26 3933.36 1226.51 3933.9 1225.54C3934.44 1224.58 3934.64 1223.46 3934.44 1222.37C3934.32 1221.87 3934.08 1221.41 3933.75 1221.02C3933.42 1220.62 3933 1220.31 3932.54 1220.1H3931.83H3931.05C3930.56 1220.04 3930.06 1220.04 3929.57 1220.1L3907.8 1228.87L3904.41 1216.57L3929.43 1206.46C3929.97 1206.24 3930.47 1205.93 3930.91 1205.55C3931.54 1205.02 3932.01 1204.34 3932.28 1203.57C3932.56 1202.8 3932.62 1201.97 3932.46 1201.16C3932.33 1200.83 3932.14 1200.52 3931.9 1200.24C3931.59 1199.89 3931.2 1199.6 3930.77 1199.4H3929.43C3928.89 1199.42 3928.36 1199.54 3927.87 1199.75L3898.47 1211.62C3897.86 1211.89 3897.29 1212.25 3896.77 1212.68C3896.32 1213.08 3895.94 1213.56 3895.64 1214.1C3895.45 1214.45 3895.33 1214.83 3895.29 1215.23V1215.79C3895.15 1216.37 3895.15 1216.98 3895.29 1217.56L3906.03 1256.57C3906.2 1257.14 3906.49 1257.67 3906.88 1258.13H3907.23L3907.94 1258.62H3908.44H3909.43H3910.41H3910.77Z" fill="white"/>
<path d="M3979.82 1201.16C3979.31 1201.21 3978.81 1201.33 3978.33 1201.52L3956.49 1210.35L3952.89 1197.35L3977.98 1187.24C3979.04 1186.86 3979.94 1186.1 3980.49 1185.12C3981.05 1184.13 3981.24 1182.98 3981.02 1181.87C3980.89 1181.37 3980.65 1180.91 3980.32 1180.52C3979.99 1180.13 3979.58 1179.82 3979.11 1179.61C3978.67 1179.53 3978.21 1179.53 3977.77 1179.61C3977.26 1179.66 3976.76 1179.78 3976.28 1179.96L3946.74 1191.91C3946.13 1192.11 3945.57 1192.44 3945.12 1192.89C3944.67 1193.28 3944.28 1193.73 3943.98 1194.24C3943.8 1194.57 3943.68 1194.93 3943.63 1195.3C3943.6 1195.51 3943.6 1195.72 3943.63 1195.93C3943.56 1196.43 3943.56 1196.93 3943.63 1197.42L3954.52 1236.85C3954.66 1237.42 3954.95 1237.93 3955.36 1238.34H3955.79C3955.99 1238.52 3956.2 1238.68 3956.42 1238.83C3956.84 1238.91 3957.28 1238.91 3957.7 1238.83H3958.54H3959.18H3959.82L3960.45 1238.41H3960.88H3961.23C3961.93 1237.83 3962.45 1237.06 3962.74 1236.2C3963.02 1235.34 3963.06 1234.42 3962.85 1233.53L3958.61 1218.05L3980.38 1209.22C3981.48 1208.85 3982.4 1208.09 3982.99 1207.09C3983.57 1206.09 3983.78 1204.92 3983.56 1203.78C3983.36 1202.96 3982.87 1202.25 3982.18 1201.77C3981.49 1201.28 3980.65 1201.07 3979.82 1201.16Z" fill="white"/>
<path d="M3863.42 991.757H3862.99C3861.11 991.872 3859.24 992.156 3857.41 992.605C3820.73 1001.93 3785.96 1086.74 3756.98 1237.35C3756.93 1237.62 3756.93 1237.9 3756.99 1238.18C3757.05 1238.45 3757.16 1238.71 3757.32 1238.94C3757.48 1239.17 3757.68 1239.36 3757.91 1239.51C3758.14 1239.67 3758.4 1239.77 3758.68 1239.82H3759.1C3759.6 1239.82 3760.09 1239.64 3760.48 1239.31C3760.86 1238.99 3761.13 1238.55 3761.22 1238.05C3778.33 1149.01 3814.58 998.188 3863.2 995.927H3864.69C3866.85 996.42 3868.88 997.386 3870.63 998.754L3881.86 1004.13C3874.94 996.492 3868.58 991.757 3863.42 991.757Z" fill="#E6E6E6"/>
<defs>
<filter id="filter0_f_2108_1052" x="1077.44" y="239.443" width="5261.11" height="4291.11" filterUnits="userSpaceOnUse" color-interpolation-filters="sRGB">
<feFlood flood-opacity="0" result="BackgroundImageFix"/>
<feBlend mode="normal" in="SourceGraphic" in2="BackgroundImageFix" result="shape"/>
<feGaussianBlur stdDeviation="284.278" result="effect1_foregroundBlur_2108_1052"/>
</filter>
<linearGradient id="paint0_linear_2108_1052" x1="3708" y1="808" x2="3708" y2="3962" gradientUnits="userSpaceOnUse">
<stop stop-color="#16B6F0" stop-opacity="0.36"/>
<stop offset="1" stop-color="#1653F0" stop-opacity="0.6"/>
</linearGradient>
<linearGradient id="paint1_linear_2108_1052" x1="1049.5" y1="3665.68" x2="1049.5" y2="6441.82" gradientUnits="userSpaceOnUse">
<stop stop-color="#EAF0FF" stop-opacity="0.05"/>
<stop offset="1" stop-color="#EAF0FF"/>
</linearGradient>
<clipPath id="clip0_2108_1052">
<rect width="5371" height="3529" fill="white"/>
</clipPath>
</defs>
</svg>
