<svg width="4848" height="4826" viewBox="0 0 4848 4826" fill="none" xmlns="http://www.w3.org/2000/svg">
<rect width="4003" height="3870" transform="translate(353 357)" fill="#EAF0FF"/>
<g filter="url(#filter0_f_2105_3209)">
<ellipse cx="2423.98" cy="2412.94" rx="1843.94" ry="1855" transform="rotate(89.9932 2423.98 2412.94)" fill="url(#paint0_linear_2105_3209)" fill-opacity="0.5"/>
</g>
<path d="M1108.3 3663.53C1815.31 4032.94 2961.78 4032.94 3668.8 3663.53C4375.82 3294.13 4375.9 2695.25 3668.8 2325.85C2961.7 1956.45 1815.31 1956.45 1108.3 2325.85C401.277 2695.25 401.193 3294.13 1108.3 3663.53Z" fill="#F5F5F5"/>
<path d="M2941.09 3570.11C3154.3 3570.11 3327.14 3487.74 3327.14 3386.13C3327.14 3284.51 3154.3 3202.14 2941.09 3202.14C2727.88 3202.14 2555.04 3284.51 2555.04 3386.13C2555.04 3487.74 2727.88 3570.11 2941.09 3570.11Z" fill="#EBEBEB"/>
<path d="M3624.99 3150.51C3789.48 3150.51 3922.83 3086.96 3922.83 3008.57C3922.83 2930.18 3789.48 2866.63 3624.99 2866.63C3460.49 2866.63 3327.15 2930.18 3327.15 3008.57C3327.15 3086.96 3460.49 3150.51 3624.99 3150.51Z" fill="#EBEBEB"/>
<path d="M1502.17 2968.79C1485.35 2880 1423.8 2753.44 1348.7 2682.89C1276.47 2615.12 1169.26 2591.49 1126.54 2622.77C1083.83 2654.05 1111.83 2721.66 1194.74 2804.06C1288.33 2896.98 1468.03 3154.8 1502.17 3300.86V2968.79Z" fill="#90CAF9"/>
<g opacity="0.2">
<path d="M1502.17 2968.79C1485.35 2880 1423.8 2753.44 1348.7 2682.89C1276.47 2615.12 1169.26 2591.49 1126.54 2622.77C1083.83 2654.05 1111.83 2721.66 1194.74 2804.06C1288.33 2896.98 1468.03 3154.8 1502.17 3300.86V2968.79Z" fill="black"/>
</g>
<path d="M1502.17 3182.46C1501.11 3182.45 1500.1 3182.04 1499.33 3181.33C1498.55 3180.62 1498.07 3179.64 1497.96 3178.59C1476.77 2954.92 1320.37 2703.49 1170.02 2651.11C1168.97 2650.73 1168.11 2649.95 1167.62 2648.94C1167.13 2647.94 1167.06 2646.78 1167.41 2645.72C1167.79 2644.67 1168.57 2643.82 1169.57 2643.33C1170.58 2642.84 1171.73 2642.77 1172.79 2643.12C1328.69 2697.35 1484.68 2947.27 1506.54 3177.84C1506.63 3178.95 1506.29 3180.05 1505.59 3180.92C1504.88 3181.78 1503.86 3182.34 1502.76 3182.46H1502.17Z" fill="white"/>
<path d="M1502.17 3408.24C1502.17 3408.24 1473.07 3431.45 1376.03 3422.37C1279 3413.29 1228.96 3343.91 1228.96 3314.15C1228.96 3284.38 1318.18 3279.25 1337.52 3205.42C1317.85 3226.5 1291.68 3240.39 1263.19 3244.86C1212.73 3254.36 1172.2 3238.21 1160.68 3146.3C1185.55 3149.94 1210.92 3147.84 1234.85 3140.17C1274.79 3127.3 1284.29 3105.35 1273.87 3100.64C1263.44 3095.94 1207.77 3100.64 1172.12 3087.11C1136.46 3073.57 1163.71 2887.9 1187.09 2874.7C1210.46 2861.5 1321.04 2892.61 1342.57 2909.26C1361.74 2924.06 1388.65 2949.71 1376.2 3003.94C1390.94 2990.16 1402.43 2973.27 1409.84 2954.5C1420.26 2929.27 1427.83 2935.16 1443.47 2944.83C1452.86 2950.12 1461.02 2957.36 1467.38 2966.07C1473.75 2974.77 1478.18 2984.73 1480.39 2995.28C1484.17 3018.83 1478.03 3100.06 1444.9 3126.46C1444.9 3126.46 1476.69 3130.5 1502.67 3076.85C1502.67 3076.85 1553.12 3097.2 1564.56 3130.16C1576 3163.12 1588.44 3324.49 1502.17 3408.24Z" fill="#90CAF9"/>
<path d="M1510.74 3426.57C1509.72 3426.56 1508.73 3426.18 1507.95 3425.5C1507.18 3424.82 1506.68 3423.89 1506.54 3422.87C1484.34 3241.16 1346.18 3002.43 1210.72 2912.79C1209.78 2912.17 1209.13 2911.2 1208.91 2910.09C1208.69 2908.99 1208.91 2907.84 1209.54 2906.9C1210.16 2905.97 1211.13 2905.32 1212.24 2905.1C1213.34 2904.88 1214.49 2905.1 1215.42 2905.73C1352.57 2996.96 1492.92 3238.13 1514.86 3421.86C1515.01 3422.97 1514.71 3424.08 1514.03 3424.97C1513.35 3425.85 1512.35 3426.43 1511.25 3426.57H1510.74Z" fill="white"/>
<path d="M1519.24 3451.97C1514.22 3448.49 1510.09 3443.89 1507.17 3438.53C1504.24 3433.17 1502.62 3427.21 1502.42 3421.11V1412.14C1502.76 1405.82 1504.59 1399.67 1507.76 1394.19C1510.94 1388.71 1515.36 1384.06 1520.67 1380.61L2782 652.232C2787.27 648.926 2793.34 647.119 2799.56 647.006C2805.79 646.893 2811.92 648.478 2817.31 651.592C2822.7 654.705 2827.13 659.228 2830.14 664.675C2833.15 670.122 2834.62 676.286 2834.38 682.504L1554.55 3451.29C1549.14 3454.18 1543.11 3455.74 1536.98 3455.86C1530.84 3455.97 1524.76 3454.64 1519.24 3451.97Z" fill="#E0E0E0"/>
<path d="M1536.31 1450.32L2048.66 1115.06L2014.52 1095.3L1520.41 1380.61C1515.1 1384.06 1510.68 1388.71 1507.51 1394.19C1504.34 1399.67 1502.51 1405.82 1502.17 1412.14V1430.56L1536.31 1450.32Z" fill="#37474F"/>
<path opacity="0.2" d="M1536.31 1450.32L2048.66 1115.06L2014.52 1095.3L1520.41 1380.61C1515.1 1384.06 1510.68 1388.71 1507.51 1394.19C1504.34 1399.67 1502.51 1405.82 1502.17 1412.14V1430.56L1536.31 1450.32Z" fill="#37474F"/>
<path d="M1707.43 1509.43L1507.46 1394.4C1504.21 1399.82 1502.38 1405.99 1502.17 1412.31V3420.94C1501.95 3427.15 1503.43 3433.3 1506.44 3438.74C1509.46 3444.17 1513.9 3448.68 1519.28 3451.79C1524.67 3454.89 1530.8 3456.47 1537.01 3456.35C1543.22 3456.23 1549.29 3454.43 1554.55 3451.13L1707.43 3363.25V1509.43Z" fill="#263238"/>
<path opacity="0.4" d="M1707.43 1509.43L1507.46 1394.4C1504.21 1399.82 1502.38 1405.99 1502.17 1412.31V3420.94C1501.95 3427.15 1503.43 3433.3 1506.44 3438.74C1509.46 3444.17 1513.9 3448.68 1519.28 3451.79C1524.67 3454.89 1530.8 3456.47 1537.01 3456.35C1543.22 3456.23 1549.29 3454.43 1554.55 3451.13L1707.43 3363.25V1509.43Z" fill="#263238"/>
<path d="M1554.55 3451.29L2815.89 2722.92C2821.2 2719.47 2825.62 2714.82 2828.79 2709.34C2831.96 2703.86 2833.79 2697.71 2834.13 2691.38V682.504C2834.13 670.9 2825.72 666.191 2815.89 671.993L1554.55 1400.37C1549.24 1403.82 1544.82 1408.47 1541.65 1413.95C1538.48 1419.43 1536.65 1425.58 1536.31 1431.9V3440.78C1536.31 3452.39 1544.46 3457.1 1554.55 3451.29Z" fill="#455A64"/>
<path opacity="0.1" d="M1554.55 3451.29L2815.89 2722.92C2821.2 2719.47 2825.62 2714.82 2828.79 2709.34C2831.96 2703.86 2833.79 2697.71 2834.13 2691.38V682.504C2834.13 670.9 2825.72 666.191 2815.89 671.993L1554.55 1400.37C1549.24 1403.82 1544.82 1408.47 1541.65 1413.95C1538.48 1419.43 1536.65 1425.58 1536.31 1431.9V3440.78C1536.31 3452.39 1544.46 3457.1 1554.55 3451.29Z" fill="#455A64"/>
<path d="M1641.08 1895.91L1943.8 1721C1963.9 1709.4 1980.21 1717.64 1980.21 1739.42C1979.31 1751.64 1975.55 1763.49 1969.22 1773.99C1962.9 1784.5 1954.19 1793.36 1943.8 1799.88L1641.08 1974.78C1620.9 1986.38 1604.67 1978.14 1604.67 1956.37C1605.55 1944.13 1609.31 1932.28 1615.63 1921.77C1621.96 1911.27 1630.68 1902.4 1641.08 1895.91Z" fill="#90CAF9"/>
<path d="M1641.08 2020.02L1841.46 1904.31C1861.56 1892.71 1877.88 1900.95 1877.88 1922.73C1876.98 1934.96 1873.21 1946.8 1866.89 1957.31C1860.56 1967.81 1851.85 1976.68 1841.46 1983.19L1641.08 2098.89C1620.9 2110.5 1604.67 2102.26 1604.67 2080.48C1605.55 2068.25 1609.31 2056.39 1615.63 2045.89C1621.96 2035.38 1630.68 2026.52 1641.08 2020.02Z" fill="#90CAF9"/>
<path d="M1619.22 2232.43L1658.4 2209.81C1666.81 2205.18 1672.95 2208.97 1672.95 2218.22V2263.46C1672.68 2268.51 1671.22 2273.43 1668.69 2277.81C1666.16 2282.19 1662.64 2285.92 1658.4 2288.68L1619.22 2310.97C1610.81 2315.68 1604.67 2311.89 1604.67 2302.56V2257.32C1605 2252.33 1606.49 2247.48 1609.01 2243.16C1611.54 2238.84 1615.03 2235.17 1619.22 2232.43Z" fill="#90CAF9"/>
<path opacity="0.2" d="M1619.22 2232.43L1658.4 2209.81C1666.81 2205.18 1672.95 2208.97 1672.95 2218.22V2263.46C1672.68 2268.51 1671.22 2273.43 1668.69 2277.81C1666.16 2282.19 1662.64 2285.92 1658.4 2288.68L1619.22 2310.97C1610.81 2315.68 1604.67 2311.89 1604.67 2302.56V2257.32C1605 2252.33 1606.49 2247.48 1609.01 2243.16C1611.54 2238.84 1615.03 2235.17 1619.22 2232.43Z" fill="black"/>
<path d="M1619.22 2390.26L1658.4 2367.64C1666.81 2362.93 1672.95 2366.72 1672.95 2376.05V2421.29C1672.66 2426.34 1671.19 2431.25 1668.67 2435.63C1666.14 2440.01 1662.63 2443.74 1658.4 2446.52L1619.22 2469.14C1610.81 2473.76 1604.67 2469.98 1604.67 2460.73V2415.49C1604.93 2410.43 1606.38 2405.51 1608.91 2401.13C1611.44 2396.74 1614.97 2393.02 1619.22 2390.26Z" fill="#90CAF9"/>
<g opacity="0.2">
<path d="M1619.22 2390.26L1658.4 2367.64C1666.81 2362.93 1672.95 2366.72 1672.95 2376.05V2421.29C1672.66 2426.34 1671.19 2431.25 1668.67 2435.63C1666.14 2440.01 1662.63 2443.74 1658.4 2446.52L1619.22 2469.14C1610.81 2473.76 1604.67 2469.98 1604.67 2460.73V2415.49C1604.93 2410.43 1606.38 2405.51 1608.91 2401.13C1611.44 2396.74 1614.97 2393.02 1619.22 2390.26Z" fill="black"/>
</g>
<path d="M1725.34 2348.72L1962.13 2211.91C1972.22 2206.11 1980.38 2210.23 1980.38 2221.16C1979.92 2227.27 1978.03 2233.19 1974.86 2238.43C1971.69 2243.68 1967.33 2248.1 1962.13 2251.35L1725.34 2388.16C1715.25 2393.96 1707.09 2389.84 1707.09 2378.91C1707.55 2372.8 1709.44 2366.88 1712.61 2361.64C1715.78 2356.39 1720.14 2351.97 1725.34 2348.72Z" fill="#90CAF9"/>
<path opacity="0.2" d="M1725.34 2348.72L1962.13 2211.91C1972.22 2206.11 1980.38 2210.23 1980.38 2221.16C1979.92 2227.27 1978.03 2233.19 1974.86 2238.43C1971.69 2243.68 1967.33 2248.1 1962.13 2251.35L1725.34 2388.16C1715.25 2393.96 1707.09 2389.84 1707.09 2378.91C1707.55 2372.8 1709.44 2366.88 1712.61 2361.64C1715.78 2356.39 1720.14 2351.97 1725.34 2348.72Z" fill="black"/>
<path d="M1619.22 2548.01L1658.4 2525.39C1666.81 2520.68 1672.95 2524.47 1672.95 2533.8V2579.04C1672.66 2584.09 1671.2 2589 1668.67 2593.38C1666.15 2597.76 1662.63 2601.49 1658.4 2604.27L1619.22 2626.89C1610.81 2631.51 1604.67 2627.73 1604.67 2618.48V2573.24C1604.93 2568.18 1606.38 2563.26 1608.91 2558.88C1611.44 2554.49 1614.97 2550.77 1619.22 2548.01Z" fill="#E0E0E0"/>
<path d="M1725.34 2506.47L1962.13 2369.83C1972.22 2364.03 1980.38 2368.15 1980.38 2379.08C1979.94 2385.19 1978.05 2391.12 1974.88 2396.36C1971.71 2401.61 1967.34 2406.03 1962.13 2409.27L1725.34 2546.08C1715.25 2551.88 1707.09 2547.76 1707.09 2536.83C1707.52 2530.69 1709.4 2524.74 1712.57 2519.46C1715.74 2514.19 1720.12 2509.74 1725.34 2506.47Z" fill="#F0F0F0"/>
<path d="M1619.22 2706.18L1658.4 2683.56C1666.81 2678.86 1672.95 2682.64 1672.95 2691.97V2737.21C1672.66 2742.26 1671.2 2747.17 1668.67 2751.55C1666.15 2755.93 1662.63 2759.66 1658.4 2762.44L1619.22 2785.06C1610.81 2789.68 1604.67 2785.9 1604.67 2776.65V2731.41C1604.93 2726.36 1606.38 2721.43 1608.91 2717.05C1611.44 2712.66 1614.97 2708.94 1619.22 2706.18Z" fill="#E0E0E0"/>
<path d="M1725.34 2664.64L1962.13 2527.92C1972.22 2522.03 1980.38 2526.23 1980.38 2537.08C1979.94 2543.21 1978.05 2549.14 1974.88 2554.4C1971.71 2559.66 1967.34 2564.1 1962.13 2567.35L1725.34 2704.08C1715.25 2709.88 1707.09 2705.76 1707.09 2694.83C1707.55 2688.72 1709.44 2682.8 1712.61 2677.56C1715.78 2672.31 1720.14 2667.89 1725.34 2664.64Z" fill="#F0F0F0"/>
<path d="M1619.22 2863.93L1658.4 2841.31C1666.81 2836.61 1672.95 2840.39 1672.95 2849.72V2894.96C1672.66 2900.01 1671.2 2904.92 1668.67 2909.3C1666.15 2913.69 1662.63 2917.41 1658.4 2920.19L1619.22 2942.81C1610.81 2947.43 1604.67 2943.65 1604.67 2934.4V2889.16C1604.93 2884.11 1606.38 2879.18 1608.91 2874.8C1611.44 2870.41 1614.97 2866.69 1619.22 2863.93Z" fill="#E0E0E0"/>
<path d="M1725.34 2822.39L1962.13 2685.67C1972.22 2679.78 1980.38 2683.98 1980.38 2694.83C1979.94 2700.96 1978.05 2706.89 1974.88 2712.15C1971.71 2717.41 1967.34 2721.85 1962.13 2725.1L1725.34 2861.83C1715.25 2867.63 1707.09 2863.51 1707.09 2852.58C1707.55 2846.47 1709.44 2840.55 1712.61 2835.31C1715.78 2830.06 1720.14 2825.64 1725.34 2822.39Z" fill="#F0F0F0"/>
<path d="M1622.83 3019.16L1791.01 2921.87C1801.1 2916.07 1809.26 2920.19 1809.26 2931.12C1808.8 2937.23 1806.91 2943.15 1803.74 2948.4C1800.57 2953.64 1796.21 2958.06 1791.01 2961.31L1622.83 3058.6C1612.83 3064.4 1604.67 3060.28 1604.67 3049.43C1605.11 3043.32 1606.99 3037.39 1610.14 3032.13C1613.3 3026.87 1617.64 3022.43 1622.83 3019.16Z" fill="#90CAF9"/>
<path d="M1622.83 3098.04L1962.13 2902.2C1972.22 2896.39 1980.38 2900.51 1980.38 2911.36C1979.94 2917.49 1978.05 2923.42 1974.88 2928.68C1971.71 2933.94 1967.34 2938.38 1962.13 2941.63L1622.83 3137.48C1612.83 3143.28 1604.67 3139.16 1604.67 3128.31C1605.11 3122.19 1606.99 3116.27 1610.14 3111.01C1613.3 3105.75 1617.64 3101.31 1622.83 3098.04Z" fill="#90CAF9"/>
<path opacity="0.8" d="M1622.83 3098.04L1962.13 2902.2C1972.22 2896.39 1980.38 2900.51 1980.38 2911.36C1979.94 2917.49 1978.05 2923.42 1974.88 2928.68C1971.71 2933.94 1967.34 2938.38 1962.13 2941.63L1622.83 3137.48C1612.83 3143.28 1604.67 3139.16 1604.67 3128.31C1605.11 3122.19 1606.99 3116.27 1610.14 3111.01C1613.3 3105.75 1617.64 3101.31 1622.83 3098.04Z" fill="white"/>
<path d="M1622.83 3098.04L1859.71 2961.31C1869.72 2955.51 1877.88 2959.63 1877.88 2970.56C1877.42 2976.66 1875.54 2982.57 1872.39 2987.81C1869.23 2993.06 1864.89 2997.49 1859.71 3000.75L1622.83 3137.48C1612.83 3143.28 1604.67 3139.16 1604.67 3128.31C1605.11 3122.19 1606.99 3116.27 1610.14 3111.01C1613.3 3105.75 1617.64 3101.31 1622.83 3098.04Z" fill="#90CAF9"/>
<path d="M1622.83 3177.08L1791.01 3079.79C1801.1 3073.99 1809.26 3078.11 1809.26 3089.04C1808.8 3095.15 1806.91 3101.07 1803.74 3106.31C1800.57 3111.56 1796.21 3115.98 1791.01 3119.23L1622.83 3216.52C1612.83 3222.32 1604.67 3218.2 1604.67 3207.35C1605.11 3201.24 1606.99 3195.31 1610.14 3190.05C1613.3 3184.79 1617.64 3180.35 1622.83 3177.08Z" fill="#90CAF9"/>
<path d="M1725.34 2190.89L1962.13 2054.16C1972.22 2048.36 1980.38 2052.48 1980.38 2063.41C1979.92 2069.52 1978.03 2075.44 1974.86 2080.68C1971.69 2085.93 1967.33 2090.35 1962.13 2093.6L1725.34 2230.33C1715.25 2236.13 1707.09 2232.01 1707.09 2221.16C1707.54 2215.03 1709.42 2209.1 1712.59 2203.84C1715.76 2198.58 1720.13 2194.14 1725.34 2190.89Z" fill="#90CAF9"/>
<path opacity="0.2" d="M1725.34 2190.89L1962.13 2054.16C1972.22 2048.36 1980.38 2052.48 1980.38 2063.41C1979.92 2069.52 1978.03 2075.44 1974.86 2080.68C1971.69 2085.93 1967.33 2090.35 1962.13 2093.6L1725.34 2230.33C1715.25 2236.13 1707.09 2232.01 1707.09 2221.16C1707.54 2215.03 1709.42 2209.1 1712.59 2203.84C1715.76 2198.58 1720.13 2194.14 1725.34 2190.89Z" fill="black"/>
<path d="M1622.83 3177.08L1791.01 3079.79C1801.1 3073.99 1809.26 3078.11 1809.26 3089.04C1808.8 3095.15 1806.91 3101.07 1803.74 3106.31C1800.57 3111.56 1796.21 3115.98 1791.01 3119.23L1622.83 3216.52C1612.83 3222.32 1604.67 3218.2 1604.67 3207.35C1605.11 3201.24 1606.99 3195.31 1610.14 3190.05C1613.3 3184.79 1617.64 3180.35 1622.83 3177.08Z" fill="#90CAF9"/>
<path d="M1622.83 3255.7L1962.13 3059.86C1972.22 3054.06 1980.38 3058.18 1980.38 3069.03C1979.94 3075.15 1978.05 3081.09 1974.88 3086.35C1971.71 3091.61 1967.34 3096.05 1962.13 3099.3L1622.83 3294.81C1612.83 3300.69 1604.67 3296.49 1604.67 3285.64C1605.16 3279.58 1607.06 3273.72 1610.21 3268.53C1613.37 3263.33 1617.69 3258.94 1622.83 3255.7Z" fill="#90CAF9"/>
<path opacity="0.8" d="M1622.83 3255.7L1962.13 3059.86C1972.22 3054.06 1980.38 3058.18 1980.38 3069.03C1979.94 3075.15 1978.05 3081.09 1974.88 3086.35C1971.71 3091.61 1967.34 3096.05 1962.13 3099.3L1622.83 3294.81C1612.83 3300.69 1604.67 3296.49 1604.67 3285.64C1605.16 3279.58 1607.06 3273.72 1610.21 3268.53C1613.37 3263.33 1617.69 3258.94 1622.83 3255.7Z" fill="white"/>
<path d="M1622.83 3255.7L1927.99 3079.12C1938.08 3073.32 1946.24 3077.44 1946.24 3088.37C1945.78 3094.48 1943.89 3100.4 1940.72 3105.64C1937.55 3110.89 1933.19 3115.31 1927.99 3118.56L1622.83 3295.14C1612.83 3301.03 1604.67 3296.82 1604.67 3285.98C1605.11 3279.86 1606.99 3273.93 1610.14 3268.67C1613.3 3263.41 1617.64 3258.97 1622.83 3255.7Z" fill="#90CAF9"/>
<path d="M2816.05 671.993L2048.66 1115.06V3165.98L2816.05 2723C2821.36 2719.55 2825.78 2714.9 2828.96 2709.42C2832.13 2703.94 2833.96 2697.79 2834.3 2691.47V682.504C2834.22 671.236 2825.81 666.191 2816.05 671.993Z" fill="#EBEBEB"/>
<path opacity="0.6" d="M2816.05 671.993L2048.66 1115.06V3165.98L2816.05 2723C2821.36 2719.55 2825.78 2714.9 2828.96 2709.42C2832.13 2703.94 2833.96 2697.79 2834.3 2691.47V682.504C2834.22 671.236 2825.81 666.191 2816.05 671.993Z" fill="#FAFAFA"/>
<path d="M2048.66 1193.93V1351.68L1980.38 1430.56H2048.66V1588.31L2765.94 1174.17V779.795L2048.66 1193.93Z" fill="#90CAF9"/>
<g opacity="0.6">
<path d="M2142.5 1199.4L2433.11 1031.22C2447.16 1022.81 2458.34 1029.71 2458.34 1045.94C2457.88 1054.75 2455.35 1063.34 2450.97 1071.01C2446.59 1078.67 2440.47 1085.21 2433.11 1090.08L2142.5 1257.84C2128.38 1266.25 2117.28 1259.35 2117.28 1243.12C2117.78 1234.37 2120.33 1225.86 2124.71 1218.27C2129.09 1210.68 2135.18 1204.22 2142.5 1199.4Z" fill="white"/>
</g>
<path d="M2126.1 1327.13L2688.57 1002.38C2693.62 999.519 2697.66 1001.54 2697.66 1007C2697.44 1010.06 2696.5 1013.03 2694.92 1015.66C2693.35 1018.29 2691.17 1020.51 2688.57 1022.14L2126.1 1346.47C2121.06 1349.33 2117.02 1347.31 2117.02 1341.84C2117.3 1338.86 2118.27 1335.98 2119.84 1333.43C2121.42 1330.87 2123.56 1328.72 2126.1 1327.13Z" fill="#90CAF9"/>
<path d="M2126.1 1327.13L2688.57 1002.38C2693.62 999.519 2697.66 1001.54 2697.66 1007C2697.44 1010.06 2696.5 1013.03 2694.92 1015.66C2693.35 1018.29 2691.17 1020.51 2688.57 1022.14L2126.1 1346.47C2121.06 1349.33 2117.02 1347.31 2117.02 1341.84C2117.3 1338.86 2118.27 1335.98 2119.84 1333.43C2121.42 1330.87 2123.56 1328.72 2126.1 1327.13Z" fill="#90CAF9"/>
<path opacity="0.6" d="M2126.1 1327.13L2688.57 1002.38C2693.62 999.519 2697.66 1001.54 2697.66 1007C2697.44 1010.06 2696.5 1013.03 2694.92 1015.66C2693.35 1018.29 2691.17 1020.51 2688.57 1022.14L2126.1 1346.47C2121.06 1349.33 2117.02 1347.31 2117.02 1341.84C2117.3 1338.86 2118.27 1335.98 2119.84 1333.43C2121.42 1330.87 2123.56 1328.72 2126.1 1327.13Z" fill="white"/>
<path d="M2126.1 1385.99L2688.57 1061.24C2693.62 1058.3 2697.66 1060.4 2697.66 1065.86C2697.44 1068.91 2696.5 1071.87 2694.92 1074.48C2693.35 1077.1 2691.17 1079.3 2688.57 1080.92L2126.1 1405.67C2121.06 1408.61 2117.02 1406.51 2117.02 1401.04C2117.24 1397.99 2118.18 1395.04 2119.76 1392.43C2121.33 1389.81 2123.51 1387.6 2126.1 1385.99Z" fill="#90CAF9"/>
<path opacity="0.6" d="M2126.1 1385.99L2688.57 1061.24C2693.62 1058.3 2697.66 1060.4 2697.66 1065.86C2697.44 1068.91 2696.5 1071.87 2694.92 1074.48C2693.35 1077.1 2691.17 1079.3 2688.57 1080.92L2126.1 1405.67C2121.06 1408.61 2117.02 1406.51 2117.02 1401.04C2117.24 1397.99 2118.18 1395.04 2119.76 1392.43C2121.33 1389.81 2123.51 1387.6 2126.1 1385.99Z" fill="white"/>
<path opacity="0.6" d="M2126.1 1444.85L2688.57 1120.1C2693.62 1117.24 2697.66 1119.26 2697.66 1124.73C2697.44 1127.79 2696.5 1130.75 2694.92 1133.38C2693.35 1136.01 2691.17 1138.23 2688.57 1139.86L2126.1 1464.61C2121.06 1467.47 2117.02 1465.45 2117.02 1459.99C2117.24 1456.93 2118.18 1453.96 2119.75 1451.34C2121.33 1448.71 2123.51 1446.48 2126.1 1444.85Z" fill="white"/>
<path d="M2147.3 1610.51L2186.73 1587.8C2195.14 1583.09 2201.28 1586.88 2201.28 1596.21V1641.45C2201 1646.5 2199.54 1651.42 2197.01 1655.8C2194.49 1660.18 2190.96 1663.91 2186.73 1666.68L2147.55 1689.3C2139.14 1693.92 2133 1690.14 2133 1680.89V1635.73C2133.23 1630.7 2134.65 1625.79 2137.13 1621.41C2139.61 1617.03 2143.1 1613.29 2147.3 1610.51Z" fill="#90CAF9"/>
<path opacity="0.2" d="M2147.3 1610.51L2186.73 1587.8C2195.14 1583.09 2201.28 1586.88 2201.28 1596.21V1641.45C2201 1646.5 2199.54 1651.42 2197.01 1655.8C2194.49 1660.18 2190.96 1663.91 2186.73 1666.68L2147.55 1689.3C2139.14 1693.92 2133 1690.14 2133 1680.89V1635.73C2133.23 1630.7 2134.65 1625.79 2137.13 1621.41C2139.61 1617.03 2143.1 1613.29 2147.3 1610.51Z" fill="white"/>
<path d="M2253.42 1568.97L2490.21 1432.16C2500.3 1426.35 2508.46 1430.47 2508.46 1441.41C2508 1447.52 2506.11 1453.43 2502.94 1458.68C2499.77 1463.92 2495.41 1468.35 2490.21 1471.59L2253.42 1608.41C2243.33 1614.21 2235.17 1610.09 2235.17 1599.16C2235.63 1593.04 2237.52 1587.13 2240.69 1581.88C2243.86 1576.64 2248.22 1572.21 2253.42 1568.97Z" fill="#90CAF9"/>
<path opacity="0.8" d="M2253.42 1568.97L2490.21 1432.16C2500.3 1426.35 2508.46 1430.47 2508.46 1441.41C2508 1447.52 2506.11 1453.43 2502.94 1458.68C2499.77 1463.92 2495.41 1468.35 2490.21 1471.59L2253.42 1608.41C2243.33 1614.21 2235.17 1610.09 2235.17 1599.16C2235.63 1593.04 2237.52 1587.13 2240.69 1581.88C2243.86 1576.64 2248.22 1572.21 2253.42 1568.97Z" fill="white"/>
<path d="M2141.83 1751.78L2738.86 1407.01C2743.91 1404.07 2747.94 1406.17 2747.94 1411.55C2747.73 1414.61 2746.8 1417.58 2745.22 1420.21C2743.64 1422.84 2741.46 1425.06 2738.86 1426.69L2141.83 1771.45C2136.78 1774.4 2132.75 1772.29 2132.75 1766.83C2132.97 1763.78 2133.9 1760.83 2135.48 1758.21C2137.06 1755.59 2139.23 1753.39 2141.83 1751.78Z" fill="#90CAF9"/>
<path d="M2141.83 1810.89L2738.86 1466.13C2743.91 1463.27 2747.94 1465.29 2747.94 1470.75C2747.72 1473.81 2746.79 1476.78 2745.21 1479.41C2743.63 1482.04 2741.46 1484.26 2738.86 1485.89L2141.83 1830.65C2136.78 1833.51 2132.75 1831.49 2132.75 1826.03C2132.97 1822.97 2133.9 1820 2135.48 1817.37C2137.06 1814.74 2139.23 1812.52 2141.83 1810.89Z" fill="#90CAF9"/>
<path d="M2141.83 1870.09L2738.86 1525.33C2743.91 1522.38 2747.94 1524.48 2747.94 1529.87C2747.73 1532.93 2746.8 1535.89 2745.22 1538.53C2743.64 1541.16 2741.46 1543.38 2738.86 1545L2141.83 1889.77C2136.78 1892.71 2132.75 1890.61 2132.75 1885.23C2132.96 1882.16 2133.89 1879.2 2135.47 1876.57C2137.05 1873.94 2139.23 1871.72 2141.83 1870.09Z" fill="#90CAF9"/>
<path d="M2141.83 1929.37L2738.86 1584.61C2743.91 1581.75 2747.94 1583.77 2747.94 1589.23C2747.72 1592.29 2746.79 1595.26 2745.21 1597.89C2743.63 1600.52 2741.46 1602.74 2738.86 1604.37L2141.83 1949.13C2136.78 1951.99 2132.75 1949.97 2132.75 1944.51C2132.97 1941.45 2133.9 1938.48 2135.48 1935.85C2137.06 1933.22 2139.23 1931 2141.83 1929.37Z" fill="#90CAF9"/>
<path d="M2141.83 1751.78L2738.86 1407.01C2743.91 1404.07 2747.94 1406.17 2747.94 1411.55C2747.73 1414.61 2746.8 1417.58 2745.22 1420.21C2743.64 1422.84 2741.46 1425.06 2738.86 1426.69L2141.83 1771.45C2136.78 1774.4 2132.75 1772.29 2132.75 1766.83C2132.97 1763.78 2133.9 1760.83 2135.48 1758.21C2137.06 1755.59 2139.23 1753.39 2141.83 1751.78Z" fill="#E0E0E0"/>
<path d="M2141.83 1810.89L2738.86 1466.13C2743.91 1463.27 2747.94 1465.29 2747.94 1470.75C2747.72 1473.81 2746.79 1476.78 2745.21 1479.41C2743.63 1482.04 2741.46 1484.26 2738.86 1485.89L2141.83 1830.65C2136.78 1833.51 2132.75 1831.49 2132.75 1826.03C2132.97 1822.97 2133.9 1820 2135.48 1817.37C2137.06 1814.74 2139.23 1812.52 2141.83 1810.89Z" fill="#E0E0E0"/>
<path d="M2141.83 1870.09L2738.86 1525.33C2743.91 1522.38 2747.94 1524.48 2747.94 1529.87C2747.73 1532.93 2746.8 1535.89 2745.22 1538.53C2743.64 1541.16 2741.46 1543.38 2738.86 1545L2141.83 1889.77C2136.78 1892.71 2132.75 1890.61 2132.75 1885.23C2132.96 1882.16 2133.89 1879.2 2135.47 1876.57C2137.05 1873.94 2139.23 1871.72 2141.83 1870.09Z" fill="#E0E0E0"/>
<path d="M2141.83 1929.37L2738.86 1584.61C2743.91 1581.75 2747.94 1583.77 2747.94 1589.23C2747.72 1592.29 2746.79 1595.26 2745.21 1597.89C2743.63 1600.52 2741.46 1602.74 2738.86 1604.37L2141.83 1949.13C2136.78 1951.99 2132.75 1949.97 2132.75 1944.51C2132.97 1941.45 2133.9 1938.48 2135.48 1935.85C2137.06 1933.22 2139.23 1931 2141.83 1929.37Z" fill="#E0E0E0"/>
<path opacity="0.8" d="M2141.83 1751.78L2738.86 1407.01C2743.91 1404.07 2747.94 1406.17 2747.94 1411.55C2747.73 1414.61 2746.8 1417.58 2745.22 1420.21C2743.64 1422.84 2741.46 1425.06 2738.86 1426.69L2141.83 1771.45C2136.78 1774.4 2132.75 1772.29 2132.75 1766.83C2132.97 1763.78 2133.9 1760.83 2135.48 1758.21C2137.06 1755.59 2139.23 1753.39 2141.83 1751.78Z" fill="#E0E0E0"/>
<path opacity="0.8" d="M2141.83 1810.89L2738.86 1466.13C2743.91 1463.27 2747.94 1465.29 2747.94 1470.75C2747.72 1473.81 2746.79 1476.78 2745.21 1479.41C2743.63 1482.04 2741.46 1484.26 2738.86 1485.89L2141.83 1830.65C2136.78 1833.51 2132.75 1831.49 2132.75 1826.03C2132.97 1822.97 2133.9 1820 2135.48 1817.37C2137.06 1814.74 2139.23 1812.52 2141.83 1810.89Z" fill="#E0E0E0"/>
<path opacity="0.8" d="M2141.83 1870.09L2738.86 1525.33C2743.91 1522.38 2747.94 1524.48 2747.94 1529.87C2747.73 1532.93 2746.8 1535.89 2745.22 1538.53C2743.64 1541.16 2741.46 1543.38 2738.86 1545L2141.83 1889.77C2136.78 1892.71 2132.75 1890.61 2132.75 1885.23C2132.96 1882.16 2133.89 1879.2 2135.47 1876.57C2137.05 1873.94 2139.23 1871.72 2141.83 1870.09Z" fill="#E0E0E0"/>
<path opacity="0.8" d="M2141.83 1929.37L2738.86 1584.61C2743.91 1581.75 2747.94 1583.77 2747.94 1589.23C2747.72 1592.29 2746.79 1595.26 2745.21 1597.89C2743.63 1600.52 2741.46 1602.74 2738.86 1604.37L2141.83 1949.13C2136.78 1951.99 2132.75 1949.97 2132.75 1944.51C2132.97 1941.45 2133.9 1938.48 2135.48 1935.85C2137.06 1933.22 2139.23 1931 2141.83 1929.37Z" fill="#E0E0E0"/>
<path d="M2141.83 2180.63L2738.86 1835.87C2743.91 1832.92 2747.94 1835.02 2747.94 1840.41C2747.73 1843.47 2746.8 1846.43 2745.22 1849.07C2743.64 1851.7 2741.46 1853.92 2738.86 1855.54L2141.83 2200.31C2136.78 2203.25 2132.75 2201.15 2132.75 2195.68C2132.97 2192.63 2133.9 2189.68 2135.48 2187.06C2137.06 2184.45 2139.23 2182.24 2141.83 2180.63Z" fill="#E0E0E0"/>
<path d="M2141.83 2239.74L2738.86 1894.98C2743.91 1892.12 2747.94 1894.14 2747.94 1899.6C2747.72 1902.66 2746.79 1905.63 2745.21 1908.26C2743.63 1910.89 2741.46 1913.11 2738.86 1914.74L2141.83 2259.5C2136.78 2262.36 2132.75 2260.35 2132.75 2254.88C2132.97 2251.82 2133.9 2248.86 2135.48 2246.23C2137.06 2243.6 2139.23 2241.37 2141.83 2239.74Z" fill="#E0E0E0"/>
<path d="M2141.83 2298.94L2738.86 1954.18C2743.91 1951.24 2747.94 1953.34 2747.94 1958.72C2747.73 1961.78 2746.8 1964.75 2745.22 1967.38C2743.64 1970.01 2741.46 1972.23 2738.86 1973.86L2141.83 2318.62C2136.78 2321.56 2132.75 2319.46 2132.75 2314.08C2132.96 2311.02 2133.89 2308.05 2135.47 2305.42C2137.05 2302.79 2139.23 2300.57 2141.83 2298.94Z" fill="#E0E0E0"/>
<path d="M2141.83 2358.22L2738.86 2013.46C2743.91 2010.6 2747.94 2012.62 2747.94 2018.09C2747.72 2021.15 2746.79 2024.11 2745.21 2026.74C2743.63 2029.37 2741.46 2031.59 2738.86 2033.22L2141.83 2377.99C2136.78 2380.84 2132.75 2378.83 2132.75 2373.36C2132.97 2370.3 2133.9 2367.34 2135.48 2364.71C2137.06 2362.08 2139.23 2359.86 2141.83 2358.22Z" fill="#E0E0E0"/>
<path opacity="0.8" d="M2141.83 2180.63L2738.86 1835.87C2743.91 1832.92 2747.94 1835.02 2747.94 1840.41C2747.73 1843.47 2746.8 1846.43 2745.22 1849.07C2743.64 1851.7 2741.46 1853.92 2738.86 1855.54L2141.83 2200.31C2136.78 2203.25 2132.75 2201.15 2132.75 2195.68C2132.97 2192.63 2133.9 2189.68 2135.48 2187.06C2137.06 2184.45 2139.23 2182.24 2141.83 2180.63Z" fill="#E0E0E0"/>
<path opacity="0.8" d="M2141.83 2239.74L2738.86 1894.98C2743.91 1892.12 2747.94 1894.14 2747.94 1899.6C2747.72 1902.66 2746.79 1905.63 2745.21 1908.26C2743.63 1910.89 2741.46 1913.11 2738.86 1914.74L2141.83 2259.5C2136.78 2262.36 2132.75 2260.35 2132.75 2254.88C2132.97 2251.82 2133.9 2248.86 2135.48 2246.23C2137.06 2243.6 2139.23 2241.37 2141.83 2239.74Z" fill="#E0E0E0"/>
<path opacity="0.8" d="M2141.83 2298.94L2738.86 1954.18C2743.91 1951.24 2747.94 1953.34 2747.94 1958.72C2747.73 1961.78 2746.8 1964.75 2745.22 1967.38C2743.64 1970.01 2741.46 1972.23 2738.86 1973.86L2141.83 2318.62C2136.78 2321.56 2132.75 2319.46 2132.75 2314.08C2132.96 2311.02 2133.89 2308.05 2135.47 2305.42C2137.05 2302.79 2139.23 2300.57 2141.83 2298.94Z" fill="#E0E0E0"/>
<path opacity="0.8" d="M2141.83 2358.22L2738.86 2013.46C2743.91 2010.6 2747.94 2012.62 2747.94 2018.09C2747.72 2021.15 2746.79 2024.11 2745.21 2026.74C2743.63 2029.37 2741.46 2031.59 2738.86 2033.22L2141.83 2377.99C2136.78 2380.84 2132.75 2378.83 2132.75 2373.36C2132.97 2370.3 2133.9 2367.34 2135.48 2364.71C2137.06 2362.08 2139.23 2359.86 2141.83 2358.22Z" fill="#E0E0E0"/>
<path d="M2141.83 2617.89L2738.86 2273.13C2743.91 2270.18 2747.94 2272.29 2747.94 2277.67C2747.73 2280.73 2746.8 2283.7 2745.22 2286.33C2743.64 2288.96 2741.46 2291.18 2738.86 2292.8L2141.83 2637.57C2136.78 2640.51 2132.75 2638.41 2132.75 2632.94C2132.97 2629.89 2133.9 2626.94 2135.48 2624.32C2137.06 2621.71 2139.23 2619.5 2141.83 2617.89Z" fill="#E0E0E0"/>
<path d="M2141.83 2677L2738.86 2332.24C2743.91 2329.38 2747.94 2331.4 2747.94 2336.87C2747.72 2339.92 2746.79 2342.89 2745.21 2345.52C2743.63 2348.15 2741.46 2350.37 2738.86 2352L2141.83 2696.77C2136.78 2699.62 2132.75 2697.61 2132.75 2692.14C2132.97 2689.08 2133.9 2686.12 2135.48 2683.49C2137.06 2680.86 2139.23 2678.64 2141.83 2677Z" fill="#E0E0E0"/>
<path d="M2141.83 2736.2L2738.86 2391.44C2743.91 2388.5 2747.94 2390.6 2747.94 2395.98C2747.73 2399.04 2746.8 2402.01 2745.22 2404.64C2743.64 2407.27 2741.46 2409.49 2738.86 2411.12L2141.83 2755.88C2136.78 2758.82 2132.75 2756.72 2132.75 2751.34C2132.96 2748.28 2133.89 2745.31 2135.47 2742.68C2137.05 2740.05 2139.23 2737.83 2141.83 2736.2Z" fill="#E0E0E0"/>
<path d="M2141.83 2795.49L2738.86 2450.72C2743.91 2447.86 2747.94 2449.88 2747.94 2455.35C2747.72 2458.41 2746.79 2461.37 2745.21 2464C2743.63 2466.63 2741.46 2468.85 2738.86 2470.48L2141.83 2815.25C2136.78 2818.11 2132.75 2816.09 2132.75 2810.62C2132.97 2807.56 2133.9 2804.6 2135.48 2801.97C2137.06 2799.34 2139.23 2797.12 2141.83 2795.49Z" fill="#E0E0E0"/>
<path opacity="0.8" d="M2141.83 2617.89L2738.86 2273.13C2743.91 2270.18 2747.94 2272.29 2747.94 2277.67C2747.73 2280.73 2746.8 2283.7 2745.22 2286.33C2743.64 2288.96 2741.46 2291.18 2738.86 2292.8L2141.83 2637.57C2136.78 2640.51 2132.75 2638.41 2132.75 2632.94C2132.97 2629.89 2133.9 2626.94 2135.48 2624.32C2137.06 2621.71 2139.23 2619.5 2141.83 2617.89Z" fill="#E0E0E0"/>
<path opacity="0.8" d="M2141.83 2677L2738.86 2332.24C2743.91 2329.38 2747.94 2331.4 2747.94 2336.87C2747.72 2339.92 2746.79 2342.89 2745.21 2345.52C2743.63 2348.15 2741.46 2350.37 2738.86 2352L2141.83 2696.77C2136.78 2699.62 2132.75 2697.61 2132.75 2692.14C2132.97 2689.08 2133.9 2686.12 2135.48 2683.49C2137.06 2680.86 2139.23 2678.64 2141.83 2677Z" fill="#E0E0E0"/>
<path opacity="0.8" d="M2141.83 2736.2L2738.86 2391.44C2743.91 2388.5 2747.94 2390.6 2747.94 2395.98C2747.73 2399.04 2746.8 2402.01 2745.22 2404.64C2743.64 2407.27 2741.46 2409.49 2738.86 2411.12L2141.83 2755.88C2136.78 2758.82 2132.75 2756.72 2132.75 2751.34C2132.96 2748.28 2133.89 2745.31 2135.47 2742.68C2137.05 2740.05 2139.23 2737.83 2141.83 2736.2Z" fill="#E0E0E0"/>
<path opacity="0.8" d="M2141.83 2795.49L2738.86 2450.72C2743.91 2447.86 2747.94 2449.88 2747.94 2455.35C2747.72 2458.41 2746.79 2461.37 2745.21 2464C2743.63 2466.63 2741.46 2468.85 2738.86 2470.48L2141.83 2815.25C2136.78 2818.11 2132.75 2816.09 2132.75 2810.62C2132.97 2807.56 2133.9 2804.6 2135.48 2801.97C2137.06 2799.34 2139.23 2797.12 2141.83 2795.49Z" fill="#E0E0E0"/>
<path d="M2147.3 2044.32L2186.73 2021.7C2195.14 2017.08 2201.28 2020.86 2201.28 2030.11V2075.52C2201.02 2080.57 2199.57 2085.49 2197.04 2089.88C2194.51 2094.26 2190.98 2097.99 2186.73 2100.74L2147.55 2123.36C2139.14 2127.99 2133 2124.29 2133 2114.96V2069.72C2133.21 2064.66 2134.62 2059.72 2137.1 2055.3C2139.59 2050.89 2143.08 2047.13 2147.3 2044.32Z" fill="#90CAF9"/>
<path opacity="0.2" d="M2147.3 2044.32L2186.73 2021.7C2195.14 2017.08 2201.28 2020.86 2201.28 2030.11V2075.52C2201.02 2080.57 2199.57 2085.49 2197.04 2089.88C2194.51 2094.26 2190.98 2097.99 2186.73 2100.74L2147.55 2123.36C2139.14 2127.99 2133 2124.29 2133 2114.96V2069.72C2133.21 2064.66 2134.62 2059.72 2137.1 2055.3C2139.59 2050.89 2143.08 2047.13 2147.3 2044.32Z" fill="white"/>
<path d="M2253.42 2002.78L2490.21 1866.05C2500.3 1860.25 2508.46 1864.37 2508.46 1875.22C2508.01 1881.35 2506.13 1887.28 2502.96 1892.54C2499.79 1897.8 2495.42 1902.24 2490.21 1905.49L2253.42 2041.88C2243.33 2047.69 2235.17 2043.56 2235.17 2032.72C2235.66 2026.65 2237.57 2020.78 2240.74 2015.58C2243.91 2010.39 2248.25 2006 2253.42 2002.78Z" fill="#90CAF9"/>
<path opacity="0.8" d="M2253.42 2002.78L2490.21 1866.05C2500.3 1860.25 2508.46 1864.37 2508.46 1875.22C2508.01 1881.35 2506.13 1887.28 2502.96 1892.54C2499.79 1897.8 2495.42 1902.24 2490.21 1905.49L2253.42 2041.88C2243.33 2047.69 2235.17 2043.56 2235.17 2032.72C2235.66 2026.65 2237.57 2020.78 2240.74 2015.58C2243.91 2010.39 2248.25 2006 2253.42 2002.78Z" fill="white"/>
<path d="M2147.3 2478.22L2186.73 2455.6C2195.14 2450.89 2201.28 2454.67 2201.28 2464.01V2509.25C2201.01 2514.3 2199.56 2519.22 2197.03 2523.6C2194.5 2527.99 2190.97 2531.71 2186.73 2534.47L2147.55 2557.09C2139.14 2561.72 2133 2557.93 2133 2548.69V2503.45C2133.23 2498.41 2134.65 2493.51 2137.13 2489.12C2139.61 2484.74 2143.1 2481 2147.3 2478.22Z" fill="#90CAF9"/>
<path opacity="0.2" d="M2147.3 2478.22L2186.73 2455.6C2195.14 2450.89 2201.28 2454.67 2201.28 2464.01V2509.25C2201.01 2514.3 2199.56 2519.22 2197.03 2523.6C2194.5 2527.99 2190.97 2531.71 2186.73 2534.47L2147.55 2557.09C2139.14 2561.72 2133 2557.93 2133 2548.69V2503.45C2133.23 2498.41 2134.65 2493.51 2137.13 2489.12C2139.61 2484.74 2143.1 2481 2147.3 2478.22Z" fill="white"/>
<path d="M2253.42 2437.1L2490.21 2300.29C2500.3 2294.49 2508.46 2298.61 2508.46 2309.54C2508.01 2315.66 2506.12 2321.59 2502.95 2326.85C2499.78 2332.11 2495.41 2336.55 2490.21 2339.81L2253.42 2476.54C2243.33 2482.34 2235.17 2478.22 2235.17 2467.29C2235.63 2461.18 2237.52 2455.26 2240.69 2450.01C2243.86 2444.77 2248.22 2440.35 2253.42 2437.1Z" fill="#90CAF9"/>
<path opacity="0.8" d="M2253.42 2437.1L2490.21 2300.29C2500.3 2294.49 2508.46 2298.61 2508.46 2309.54C2508.01 2315.66 2506.12 2321.59 2502.95 2326.85C2499.78 2332.11 2495.41 2336.55 2490.21 2339.81L2253.42 2476.54C2243.33 2482.34 2235.17 2478.22 2235.17 2467.29C2235.63 2461.18 2237.52 2455.26 2240.69 2450.01C2243.86 2444.77 2248.22 2440.35 2253.42 2437.1Z" fill="white"/>
<path d="M2203.05 2860.15L2242.23 2837.53C2250.64 2832.91 2256.86 2836.69 2256.86 2845.94V2891.18C2256.59 2896.24 2255.12 2901.16 2252.58 2905.55C2250.03 2909.93 2246.49 2913.65 2242.23 2916.41L2203.05 2939.03C2195.06 2943.73 2188.5 2939.95 2188.5 2930.62V2885.38C2188.79 2880.33 2190.26 2875.42 2192.78 2871.04C2195.31 2866.66 2198.82 2862.93 2203.05 2860.15Z" fill="#90CAF9"/>
<path d="M2141.83 3013.86L2303.53 2920.53C2308.58 2917.67 2312.61 2919.69 2312.61 2925.15C2312.4 2928.21 2311.46 2931.17 2309.88 2933.8C2308.3 2936.43 2306.13 2938.66 2303.53 2940.29L2141.83 3033.63C2136.78 3036.48 2132.75 3034.47 2132.75 3029C2132.97 3025.94 2133.9 3022.98 2135.48 3020.35C2137.06 3017.72 2139.23 3015.5 2141.83 3013.86Z" fill="#E0E0E0"/>
<path d="M2420.58 2734.52L2459.77 2711.9C2467.76 2707.28 2474.32 2711.06 2474.32 2720.31V2765.55C2474.04 2770.6 2472.58 2775.52 2470.06 2779.9C2467.53 2784.28 2464.01 2788.01 2459.77 2790.78L2420.58 2813.4C2412.18 2818.02 2405.95 2814.32 2405.95 2804.99V2759.75C2406.23 2754.69 2407.71 2749.77 2410.25 2745.38C2412.79 2741 2416.33 2737.28 2420.58 2734.52Z" fill="#90CAF9"/>
<path d="M2359.28 2888.24L2520.99 2794.9C2526.03 2791.95 2530.07 2794.06 2530.07 2799.52C2529.85 2802.57 2528.91 2805.52 2527.34 2808.14C2525.76 2810.76 2523.58 2812.96 2520.99 2814.57L2359.28 2908C2354.24 2910.94 2350.2 2908.84 2350.2 2903.46C2350.4 2900.38 2351.33 2897.4 2352.91 2894.75C2354.48 2892.1 2356.67 2889.87 2359.28 2888.24Z" fill="#E0E0E0"/>
<path d="M2638.04 2608.89L2677.22 2586.27C2685.21 2581.56 2691.77 2585.35 2691.77 2594.68V2639.92C2691.48 2644.97 2690.02 2649.88 2687.49 2654.26C2684.97 2658.64 2681.45 2662.37 2677.22 2665.15L2638.04 2687.77C2629.63 2692.39 2623.49 2688.61 2623.49 2679.36V2634.12C2623.75 2629.06 2625.2 2624.14 2627.73 2619.76C2630.26 2615.37 2633.79 2611.65 2638.04 2608.89Z" fill="#90CAF9"/>
<path opacity="0.2" d="M2203.05 2860.15L2242.23 2837.53C2250.64 2832.91 2256.86 2836.69 2256.86 2845.94V2891.18C2256.59 2896.24 2255.12 2901.16 2252.58 2905.55C2250.03 2909.93 2246.49 2913.65 2242.23 2916.41L2203.05 2939.03C2195.06 2943.73 2188.5 2939.95 2188.5 2930.62V2885.38C2188.79 2880.33 2190.26 2875.42 2192.78 2871.04C2195.31 2866.66 2198.82 2862.93 2203.05 2860.15Z" fill="white"/>
<path opacity="0.2" d="M2420.58 2734.52L2459.77 2711.9C2467.76 2707.28 2474.32 2711.06 2474.32 2720.31V2765.55C2474.04 2770.6 2472.58 2775.52 2470.06 2779.9C2467.53 2784.28 2464.01 2788.01 2459.77 2790.78L2420.58 2813.4C2412.18 2818.02 2405.95 2814.32 2405.95 2804.99V2759.75C2406.23 2754.69 2407.71 2749.77 2410.25 2745.38C2412.79 2741 2416.33 2737.28 2420.58 2734.52Z" fill="white"/>
<path opacity="0.2" d="M2638.04 2608.89L2677.22 2586.27C2685.21 2581.56 2691.77 2585.35 2691.77 2594.68V2639.92C2691.48 2644.97 2690.02 2649.88 2687.49 2654.26C2684.97 2658.64 2681.45 2662.37 2677.22 2665.15L2638.04 2687.77C2629.63 2692.39 2623.49 2688.61 2623.49 2679.36V2634.12C2623.75 2629.06 2625.2 2624.14 2627.73 2619.76C2630.26 2615.37 2633.79 2611.65 2638.04 2608.89Z" fill="white"/>
<path d="M2576.74 2762.61L2738.44 2669.27C2743.48 2666.33 2747.52 2668.43 2747.52 2673.81C2747.31 2676.87 2746.38 2679.84 2744.8 2682.47C2743.22 2685.1 2741.04 2687.32 2738.44 2688.95L2576.74 2782.28C2571.78 2785.23 2567.66 2783.13 2567.66 2777.66C2567.89 2774.62 2568.84 2771.67 2570.41 2769.06C2571.99 2766.44 2574.16 2764.24 2576.74 2762.61Z" fill="#E0E0E0"/>
<mask id="mask0_2105_3209" style="mask-type:luminance" maskUnits="userSpaceOnUse" x="1604" y="1337" width="343" height="443">
<path d="M1775.46 1359.59C1681.11 1412.73 1604.67 1545.17 1604.67 1655.33C1604.67 1765.48 1681.11 1810.72 1775.46 1756.23C1869.8 1701.74 1946.24 1569.39 1946.24 1460.41C1946.24 1351.43 1869.72 1306.36 1775.46 1359.59Z" fill="white"/>
</mask>
<g mask="url(#mask0_2105_3209)">
<path d="M1775.46 1359.59C1681.11 1412.73 1604.67 1545.17 1604.67 1655.33C1604.67 1765.48 1681.11 1810.72 1775.46 1756.23C1869.8 1701.74 1946.24 1569.39 1946.24 1460.41C1946.24 1351.43 1869.72 1306.36 1775.46 1359.59Z" fill="#FAFAFA"/>
<path d="M1858.2 1699.05L1721.47 1735.72C1719.12 1736.48 1716.61 1736.65 1714.17 1736.21C1711.73 1735.76 1709.45 1734.71 1707.52 1733.16C1705.59 1731.61 1704.08 1729.6 1703.12 1727.31C1702.17 1725.03 1701.8 1722.54 1702.05 1720.08V1487.32C1702.53 1468.05 1708.96 1449.41 1720.47 1433.94C1731.97 1418.48 1747.98 1406.96 1766.29 1400.96L1813.04 1388.43C1848.61 1378.93 1877.45 1402.14 1877.45 1440.23V1673.07C1877.3 1678.85 1875.37 1684.45 1871.93 1689.1C1868.48 1693.75 1863.69 1697.22 1858.2 1699.05Z" fill="#37474F"/>
<path d="M1864.76 1759.26L1850.38 1695.77C1850.38 1695.77 1850.38 1610.09 1838.19 1602.18C1825.99 1594.28 1822.46 1592.76 1822.46 1592.76C1838.1 1587.38 1871.06 1583.35 1881.32 1613.45C1891.16 1641.87 1905.88 1711.92 1912.86 1746.4L1864.76 1759.26Z" fill="#F28F8F"/>
<path d="M1863.58 1759.6L1814.81 1593.52C1836.42 1585.11 1864.17 1578.13 1877.62 1600.42C1889.73 1620.43 1909.07 1725.29 1912.86 1746.39L1863.58 1759.6Z" fill="#90CAF9"/>
<g opacity="0.4">
<path d="M1863.58 1759.6L1814.81 1593.52C1836.42 1585.11 1864.17 1578.13 1877.62 1600.42C1889.73 1620.43 1909.07 1725.29 1912.86 1746.39L1863.58 1759.6Z" fill="black"/>
</g>
<path d="M1870.14 1757.83L1822.21 1770.7C1824.14 1756.93 1828.68 1743.66 1835.58 1731.6C1845.17 1717.77 1858.98 1707.42 1874.93 1702.08C1871.48 1720.46 1869.87 1739.13 1870.14 1757.83Z" fill="#90CAF9"/>
<path d="M1870.14 1757.83L1822.21 1770.7C1824.14 1756.93 1828.68 1743.66 1835.58 1731.6C1845.17 1717.77 1858.98 1707.42 1874.93 1702.08C1871.48 1720.46 1869.87 1739.13 1870.14 1757.83Z" fill="#90CAF9"/>
<g opacity="0.7">
<path d="M1870.14 1757.83L1822.21 1770.7C1824.14 1756.93 1828.68 1743.66 1835.58 1731.6C1845.17 1717.77 1858.98 1707.42 1874.93 1702.08C1871.48 1720.46 1869.87 1739.13 1870.14 1757.83Z" fill="black"/>
</g>
<path d="M1859.88 1760.61L1725.34 1796.51L1710.54 1750.68C1710.54 1750.68 1749.81 1658.77 1701.29 1635.15C1707.43 1630.52 1759.14 1610.34 1759.14 1610.34L1814.72 1593.52C1825.32 1590.66 1868.12 1609.67 1878.97 1651.79C1882.84 1666.68 1881.49 1680.05 1859.71 1757.58C1859.96 1758.59 1859.88 1759.6 1859.88 1760.61Z" fill="#90CAF9"/>
<path d="M1848.78 1417.02C1858.03 1420.38 1869.47 1442.25 1868.37 1494.97C1867.45 1539.71 1853.99 1553.83 1847.27 1559.21C1837.19 1564.26 1826.08 1566.88 1814.81 1566.87V1593.52C1814.81 1593.52 1832.3 1610.34 1831.21 1623.12C1830.11 1635.9 1805.98 1644.98 1789.67 1637.42C1777.75 1630.7 1767.45 1621.46 1759.48 1610.34V1548.95C1758.25 1550.37 1756.75 1551.53 1755.07 1552.36C1753.39 1553.19 1751.56 1553.68 1749.69 1553.79C1747.82 1553.91 1745.95 1553.66 1744.18 1553.04C1742.41 1552.43 1740.78 1551.47 1739.38 1550.22C1736.76 1548.42 1734.52 1546.11 1732.8 1543.43C1731.08 1540.76 1729.91 1537.76 1729.37 1534.62C1728.83 1531.49 1728.93 1528.28 1729.65 1525.18C1730.37 1522.08 1731.71 1519.15 1733.58 1516.58C1741.99 1505.56 1756.7 1503.97 1762.42 1514.98C1769.54 1497.71 1782.28 1483.34 1798.58 1474.2C1825.15 1458.05 1839.62 1443.68 1848.78 1417.02Z" fill="#FFA8A7"/>
<path d="M1822.12 1496.23C1822.16 1497.83 1821.7 1499.39 1820.82 1500.72C1819.93 1502.04 1818.65 1503.06 1817.16 1503.63C1816.53 1503.85 1815.86 1503.91 1815.19 1503.81C1814.53 1503.71 1813.91 1503.45 1813.37 1503.05C1812.83 1502.65 1812.4 1502.13 1812.11 1501.53C1811.81 1500.93 1811.67 1500.26 1811.7 1499.59C1811.66 1498 1812.12 1496.43 1813.01 1495.11C1813.89 1493.78 1815.17 1492.77 1816.66 1492.19C1817.29 1491.98 1817.97 1491.91 1818.63 1492.01C1819.29 1492.12 1819.92 1492.38 1820.45 1492.77C1820.99 1493.17 1821.43 1493.69 1821.72 1494.3C1822.01 1494.9 1822.15 1495.56 1822.12 1496.23Z" fill="#37474F"/>
<path d="M1823.47 1533.57L1835.58 1534.41C1835.22 1536.25 1834.26 1537.93 1832.84 1539.16C1831.43 1540.4 1829.64 1541.12 1827.76 1541.22C1824.39 1540.97 1822.46 1537.35 1823.47 1533.57Z" fill="#F28F8F"/>
<path d="M1864.84 1467.64L1854.33 1462.68C1854.96 1461.05 1856.16 1459.72 1857.71 1458.92C1859.27 1458.13 1861.06 1457.94 1862.74 1458.39C1863.49 1458.85 1864.14 1459.46 1864.66 1460.18C1865.17 1460.9 1865.54 1461.71 1865.73 1462.57C1865.93 1463.44 1865.95 1464.33 1865.8 1465.2C1865.64 1466.07 1865.32 1466.9 1864.84 1467.64Z" fill="#37474F"/>
<path d="M1806.99 1487.32L1817.5 1476.64C1816.94 1476.07 1816.27 1475.63 1815.53 1475.34C1814.79 1475.05 1813.99 1474.92 1813.2 1474.96C1812.41 1475 1811.63 1475.21 1810.92 1475.57C1810.21 1475.93 1809.59 1476.44 1809.09 1477.06C1807.63 1478.28 1806.63 1479.96 1806.25 1481.82C1805.87 1483.68 1806.13 1485.62 1806.99 1487.32Z" fill="#37474F"/>
<path d="M1862.4 1481.43C1862.45 1483.03 1862 1484.6 1861.11 1485.93C1860.22 1487.25 1858.94 1488.27 1857.44 1488.83C1856.8 1489.05 1856.12 1489.11 1855.45 1489.01C1854.78 1488.9 1854.15 1488.64 1853.61 1488.23C1853.07 1487.82 1852.64 1487.29 1852.35 1486.67C1852.07 1486.06 1851.94 1485.39 1851.98 1484.71C1851.95 1483.12 1852.41 1481.56 1853.3 1480.24C1854.19 1478.91 1855.46 1477.89 1856.94 1477.31C1857.58 1477.09 1858.26 1477.03 1858.93 1477.13C1859.6 1477.24 1860.23 1477.51 1860.77 1477.91C1861.31 1478.32 1861.74 1478.85 1862.03 1479.47C1862.31 1480.08 1862.44 1480.76 1862.4 1481.43Z" fill="#37474F"/>
<path d="M1837.85 1484.79L1838.61 1518.18L1855.17 1508.26L1837.85 1484.79Z" fill="#F28F8F"/>
<path d="M1814.81 1566.87C1801.52 1568.55 1774.11 1567.45 1769.82 1557.03C1771.38 1562.15 1774.8 1566.5 1779.41 1569.22C1787.82 1574.6 1814.81 1575.78 1814.81 1575.78V1566.87Z" fill="#F28F8F"/>
<path d="M1726.09 1796.43L1720.46 1776.41L1735.26 1793.99L1726.09 1796.43Z" fill="#90CAF9"/>
<path d="M1715.08 1799.37C1709.04 1770.6 1700.86 1742.33 1690.61 1714.78C1676.48 1676.01 1692.29 1642.55 1701.79 1635.15C1711.3 1627.75 1759.65 1610.34 1759.65 1610.34C1777.14 1660.12 1781.93 1726.8 1782.35 1781.38L1715.08 1799.37Z" fill="#90CAF9"/>
<path opacity="0.4" d="M1715.08 1799.37C1709.04 1770.6 1700.86 1742.33 1690.61 1714.78C1676.48 1676.01 1692.29 1642.55 1701.79 1635.15C1711.3 1627.75 1759.65 1610.34 1759.65 1610.34C1777.14 1660.12 1781.93 1726.8 1782.35 1781.38L1715.08 1799.37Z" fill="black"/>
<path d="M1691.2 1805.76L1643.18 1818.63C1641.84 1817.72 1640.58 1816.71 1639.4 1815.6C1639.4 1815.6 1662.1 1727.98 1669.33 1698.88C1676.57 1669.79 1682.12 1649.78 1701.63 1635.15C1736.69 1657.93 1720.46 1721.25 1720.46 1721.25L1691.2 1805.76Z" fill="#90CAF9"/>
<path opacity="0.4" d="M1691.2 1805.76L1643.18 1818.63C1641.84 1817.72 1640.58 1816.71 1639.4 1815.6C1639.4 1815.6 1662.1 1727.98 1669.33 1698.88C1676.57 1669.79 1682.12 1649.78 1701.63 1635.15C1736.69 1657.93 1720.46 1721.25 1720.46 1721.25L1691.2 1805.76Z" fill="black"/>
</g>
<path d="M992.085 1245.81V1079.24C991.58 1046.95 1012.6 1014.57 1055.24 990.017C1139.32 941.33 1276.05 941.33 1360.31 990.017C1402.94 1014.57 1423.96 1046.95 1423.46 1079.24V1245.23C1423.46 1277.35 1402.77 1334.78 1360.31 1359.25C1276.22 1407.94 1139.49 1407.94 1055.24 1359.25C1013.19 1335.03 992.169 1278.02 992.085 1246.15V1245.81Z" fill="#E0E0E0"/>
<path d="M1207.77 872.545L1563.72 1078.06L1207.77 1283.57L851.825 1078.06L1207.77 872.545Z" fill="#E0E0E0"/>
<path d="M1029.67 1180.73L1205 1080.66C1205.72 1080.25 1206.52 1079.98 1207.35 1079.88C1208.17 1079.77 1209.01 1079.83 1209.82 1080.05C1210.62 1080.27 1211.37 1080.64 1212.03 1081.15C1212.69 1081.66 1213.24 1082.3 1213.66 1083.02C1214.07 1083.74 1214.34 1084.54 1214.45 1085.37C1214.55 1086.19 1214.49 1087.03 1214.28 1087.84C1214.06 1088.64 1213.68 1089.39 1213.17 1090.05C1212.66 1090.71 1212.03 1091.27 1211.3 1091.68L1042.2 1187.96L1029.67 1180.73Z" fill="#E0E0E0"/>
<path d="M1563.72 1078.06V1092.77L1207.77 1298.2V1283.57L1563.72 1078.06Z" fill="#E0E0E0"/>
<path d="M851.825 1078.06V1092.77L1207.77 1298.2V1283.57L851.825 1078.06Z" fill="#E0E0E0"/>
<path d="M1020.84 1190.32L1031.69 1196.54C1033.33 1193.86 1035.61 1191.63 1038.33 1190.06L1042.12 1187.88L1029.76 1180.81C1026.11 1183.27 1023.06 1186.52 1020.84 1190.32Z" fill="#E0E0E0"/>
<path d="M1423.88 1173.5L1207.77 1320.23L992.253 1173.83L1207.77 1298.2L1423.88 1173.5Z" fill="#E0E0E0"/>
<path d="M1006.97 1363.37C1009.98 1364.93 1013.33 1365.74 1016.72 1365.74C1020.12 1365.74 1023.46 1364.93 1026.48 1363.37L1042.54 1467.05C1042.54 1486.64 991.664 1486.64 991.664 1467.05L1006.97 1363.37Z" fill="#E0E0E0"/>
<path d="M1006.04 1422.57L1002.85 1479.41C1001.8 1479.1 1000.78 1478.67 999.821 1478.15L1006.04 1422.57Z" fill="#E0E0E0"/>
<path d="M1030.09 1479.83L1023.37 1387.34L1033.37 1478.49C1032.31 1479 1031.21 1479.45 1030.09 1479.83Z" fill="#E0E0E0"/>
<path d="M1018.66 1481.68H1015.46L1017.14 1408.27L1018.66 1481.68Z" fill="#E0E0E0"/>
<path d="M1016.64 1372.03C1020.37 1371.94 1023.98 1370.71 1026.98 1368.5C1028.26 1367.56 1029.13 1366.16 1029.41 1364.6C1029.69 1363.03 1029.36 1361.42 1028.5 1360.09C1027.58 1358.78 1026.19 1357.88 1024.62 1357.59C1023.04 1357.29 1021.42 1357.61 1020.09 1358.49C1019.29 1359.27 1018.22 1359.7 1017.1 1359.7C1015.99 1359.7 1014.92 1359.27 1014.12 1358.49C1013.46 1357.91 1012.69 1357.47 1011.86 1357.2C1011.03 1356.93 1010.15 1356.84 1009.28 1356.93C1008.41 1357.02 1007.56 1357.29 1006.8 1357.72C1006.04 1358.16 1005.38 1358.74 1004.86 1359.45C1004.34 1360.15 1003.97 1360.95 1003.77 1361.81C1003.58 1362.66 1003.56 1363.55 1003.73 1364.41C1003.9 1365.27 1004.24 1366.08 1004.74 1366.8C1005.24 1367.52 1005.89 1368.13 1006.63 1368.58C1009.53 1370.75 1013.03 1371.95 1016.64 1372.03Z" fill="#E0E0E0"/>
<path d="M1017.06 1355.89C1017.88 1355.9 1018.7 1355.75 1019.47 1355.44C1020.23 1355.13 1020.93 1354.67 1021.51 1354.09C1022.1 1353.52 1022.57 1352.83 1022.88 1352.07C1023.2 1351.3 1023.37 1350.49 1023.37 1349.66V1202.68C1023.37 1199.37 1024.25 1196.13 1025.9 1193.27C1027.55 1190.4 1029.93 1188.02 1032.78 1186.36L1211.3 1084.62C1212.72 1083.8 1213.76 1082.47 1214.2 1080.89C1214.64 1079.32 1214.45 1077.64 1213.66 1076.21C1213.26 1075.5 1212.73 1074.87 1212.1 1074.37C1211.46 1073.87 1210.73 1073.49 1209.95 1073.27C1209.16 1073.06 1208.35 1072.99 1207.54 1073.09C1206.73 1073.19 1205.95 1073.45 1205.25 1073.85L1026.31 1175.77C1021.54 1178.52 1017.58 1182.48 1014.82 1187.25C1012.06 1192.01 1010.6 1197.42 1010.58 1202.93V1349.92C1010.62 1350.73 1010.81 1351.54 1011.15 1352.28C1011.5 1353.02 1011.98 1353.69 1012.58 1354.24C1013.18 1354.8 1013.89 1355.23 1014.66 1355.51C1015.43 1355.79 1016.24 1355.92 1017.06 1355.89Z" fill="#E0E0E0"/>
<path d="M1030.85 1349.66C1030.87 1346.93 1030.07 1344.26 1028.57 1341.98C1027.06 1339.7 1024.91 1337.92 1022.4 1336.86C1019.88 1335.81 1017.1 1335.52 1014.42 1336.04C1011.74 1336.57 1009.28 1337.87 1007.34 1339.8C1005.4 1341.72 1004.08 1344.18 1003.54 1346.86C1003 1349.54 1003.27 1352.31 1004.31 1354.84C1005.35 1357.36 1007.12 1359.52 1009.39 1361.04C1011.66 1362.56 1014.33 1363.37 1017.06 1363.37C1018.87 1363.38 1020.66 1363.04 1022.33 1362.35C1024 1361.67 1025.52 1360.66 1026.81 1359.39C1028.09 1358.11 1029.1 1356.6 1029.8 1354.93C1030.49 1353.26 1030.85 1351.47 1030.85 1349.66Z" fill="#E0E0E0"/>
<path d="M1003.44 1350.42C1004.01 1351.84 1004.89 1353.13 1006 1354.18C1007.11 1355.23 1008.44 1356.04 1009.9 1356.53C1011.35 1357.03 1012.89 1357.2 1014.42 1357.05C1015.94 1356.89 1017.42 1356.41 1018.74 1355.63C1020.43 1354.62 1021.83 1353.18 1022.8 1351.46C1023.77 1349.75 1024.28 1347.81 1024.28 1345.84C1024.28 1343.87 1023.77 1341.93 1022.8 1340.21C1021.83 1338.5 1020.43 1337.06 1018.74 1336.04C1021.31 1336.4 1023.73 1337.48 1025.72 1339.15C1027.7 1340.83 1029.16 1343.03 1029.94 1345.51C1030.72 1347.99 1030.78 1350.64 1030.11 1353.14C1029.45 1355.65 1028.08 1357.92 1026.17 1359.69C1024.26 1361.45 1021.9 1362.63 1019.34 1363.1C1016.79 1363.57 1014.15 1363.3 1011.74 1362.33C1009.34 1361.36 1007.25 1359.73 1005.74 1357.62C1004.22 1355.51 1003.34 1353.01 1003.18 1350.42H1003.44Z" fill="#E0E0E0"/>
<path d="M3453.19 1268.52L3388.19 1231.1L3423.93 1223.53L3459.5 1248.34L3453.19 1268.52Z" fill="#E0E0E0"/>
<path d="M3339.42 933.593C3339.42 832.687 3277.62 785.849 3201.68 829.659L3089.51 894.408C3013.83 938.218 2951.86 1056.28 2951.86 1157.52C2951.86 1161.64 2951.86 1165.93 2951.86 1169.55C2951.86 1171.82 2951.86 1173.75 2951.86 1175.94C2951.86 1178.12 2952.28 1179.89 2952.45 1181.82C2952.61 1183.76 2952.95 1186.28 2953.29 1188.47C2954.98 1200.42 2957.97 1212.15 2962.2 1223.45C2963.97 1227.65 2965.82 1231.86 2967.83 1235.39C2968.77 1237.34 2969.83 1239.22 2971.03 1241.02L2972.12 1242.79C2973.99 1245.8 2976.16 1248.62 2978.6 1251.2C2979.94 1252.71 2981.2 1254.31 2982.63 1255.74L2987.01 1259.94C2988.52 1261.12 2989.95 1262.55 2991.55 1263.73C2993.06 1264.94 2994.66 1266.04 2996.34 1267.01L3001.3 1269.86C3007.73 1273.33 3014.69 1275.69 3021.9 1276.84C3022.46 1276.71 3023.03 1276.71 3023.58 1276.84C3025.52 1276.84 3027.28 1277.26 3029.22 1277.26C3031.26 1277.43 3033.31 1277.43 3035.36 1277.26C3040.76 1277.32 3046.15 1276.73 3051.42 1275.5C3054.57 1274.87 3057.68 1274.09 3060.75 1273.14C3070.58 1270.13 3080.01 1265.95 3088.84 1260.7L3201.01 1195.95C3208.7 1191.49 3216.06 1186.48 3223.04 1180.98C3223.04 1179.64 3223.04 1178.46 3223.04 1177.2C3223.04 1175.94 3223.04 1173.25 3223.04 1171.73C3223.04 1168.37 3223.04 1164.92 3223.04 1161.47C3222.79 1075.45 3274.59 973.956 3339.42 933.593Z" fill="#E0E0E0"/>
<path d="M3358.34 860.857L3293.17 823.353C3293.59 823.353 3299.82 868.677 3299.82 868.677L3348.17 874.395L3358.34 860.857Z" fill="#E0E0E0"/>
<path d="M3057.22 1301.57L2997.01 1267.43L3033.25 1251.87L3057.22 1301.57Z" fill="#E0E0E0"/>
<path d="M3089.51 1261.71C3089.08 1286.63 3081.07 1310.82 3066.55 1331.08C3063.86 1334.61 3067.98 1337.72 3071.01 1336.13C3084.75 1328.99 3096.93 1319.19 3106.83 1307.28C3125.85 1284.81 3139.15 1258.06 3145.6 1229.33L3089.51 1261.71Z" fill="#E0E0E0"/>
<path d="M3067.23 1335.96L3132.4 1373.46C3132.4 1373.46 3168.97 1342.6 3168.97 1280.12L3098.26 1275.33C3098.26 1275.33 3096.57 1316.03 3067.23 1335.96Z" fill="#E0E0E0"/>
<path d="M3240.79 1152.14C3240.79 1155.28 3240.79 1158.31 3240.79 1161.22C3240.79 1162.9 3240.79 1164.33 3240.79 1165.93C3240.79 1167.53 3240.79 1168.87 3241.29 1170.39C3241.79 1171.9 3241.29 1173.75 3241.88 1175.43C3242.85 1182.88 3244.6 1190.21 3247.09 1197.3C3247.45 1198.59 3247.9 1199.85 3248.44 1201.08C3249.05 1202.77 3249.75 1204.42 3250.54 1206.04C3251.19 1207.6 3251.95 1209.12 3252.81 1210.58C3253.48 1212.05 3254.26 1213.45 3255.16 1214.79L3256.01 1216.13C3257.49 1218.45 3259.12 1220.67 3260.88 1222.77C3261.8 1224 3262.81 1225.15 3263.91 1226.22L3267.11 1229.33C3268.2 1230.36 3269.35 1231.31 3270.55 1232.19C3271.7 1233.08 3272.91 1233.9 3274.17 1234.63C3275.43 1235.39 3276.61 1236.14 3277.95 1236.82L3281.82 1238.67L3285.86 1240.1C3288.32 1240.84 3290.82 1241.46 3293.34 1241.95H3294.6C3296 1242.07 3297.41 1242.07 3298.81 1241.95C3300.32 1242.12 3301.84 1242.12 3303.35 1241.95C3306.96 1241.95 3310.57 1241.58 3314.11 1240.85C3316.95 1240.37 3319.76 1239.73 3322.52 1238.92C3329.9 1236.66 3336.99 1233.52 3343.63 1229.59L3427.71 1180.98C3435.22 1176.65 3442.28 1171.61 3448.82 1165.93C3451.18 1163.91 3453.53 1161.73 3455.88 1159.54C3460.12 1155.59 3464.14 1151.41 3467.91 1147.01L3473.29 1142.13C3474.72 1140.45 3476.07 1138.69 3477.5 1136.92C3477.84 1136.31 3478.27 1135.74 3478.76 1135.24C3484.36 1127.83 3489.52 1120.11 3494.23 1112.11C3495.49 1110.01 3496.67 1107.83 3497.93 1105.64C3499.19 1103.45 3500.37 1101.27 3501.54 1099C3502.72 1096.73 3503.82 1094.45 3504.99 1092.27L3508.19 1085.37C3509.28 1083.1 3510.29 1080.66 3511.3 1078.48C3513.06 1074.44 3514.66 1070.07 3516.09 1066.2C3516.09 1065.44 3516.68 1064.69 3516.93 1063.93C3517.86 1061.58 3518.61 1059.22 3519.37 1056.87C3520.89 1052.33 3522.23 1047.79 3523.58 1043.08C3526.53 1032.02 3528.75 1020.79 3530.22 1009.44C3530.22 1007.51 3530.64 1005.66 3530.89 1003.72C3531.14 1001.79 3530.89 1000.44 3531.31 998.762C3531.73 997.08 3531.31 995.398 3531.31 993.717C3531.31 990.577 3531.31 987.466 3531.31 984.383C3531.31 908.703 3484.98 873.302 3427.97 906.18L3343.88 954.868C3287.12 987.578 3240.79 1076.12 3240.79 1152.14Z" fill="#E0E0E0"/>
<path d="M3561.67 938.47L3497 901.303L3472.62 918.541L3548.05 964.202L3561.67 938.47Z" fill="#E0E0E0"/>
<path d="M3339.67 1272.05L3274.67 1234.63L3325.63 1219.41L3339.67 1272.05Z" fill="#E0E0E0"/>
<path d="M3415.52 1189.14C3415.52 1202.59 3432.34 1220.92 3451.6 1224.37C3454.2 1224.88 3453.53 1230.59 3450.42 1232.78C3438.94 1239.01 3425.7 1241.21 3412.83 1239C3404.47 1238.75 3396.33 1236.29 3389.24 1231.85C3382.14 1227.42 3376.36 1221.18 3372.47 1213.78L3415.52 1189.14Z" fill="#90CAF9"/>
<path d="M3266.77 867.079L3154.51 931.912C3078.83 975.722 3016.94 1093.78 3016.94 1194.94C3016.94 1199.15 3016.94 1203.35 3016.94 1207.05C3016.94 1209.32 3016.94 1211.25 3016.94 1213.44C3016.94 1215.63 3017.36 1217.31 3017.61 1219.24C3017.87 1221.18 3018.12 1223.87 3018.46 1225.97C3019.97 1237.87 3022.79 1249.58 3026.86 1260.87C3028.63 1265.16 3030.48 1269.28 3032.5 1272.89C3033.43 1274.82 3034.49 1276.67 3035.69 1278.44C3036.05 1279.06 3036.44 1279.65 3036.87 1280.21C3038.7 1283.38 3040.84 1286.37 3043.26 1289.12C3044.61 1290.63 3045.95 1292.32 3047.38 1293.66L3051.67 1297.87C3053.18 1299.04 3054.7 1300.47 3056.21 1301.65C3057.73 1302.85 3059.34 1303.94 3061 1304.93L3066.05 1307.79C3072.45 1311.24 3079.39 1313.6 3086.57 1314.77C3087.11 1314.58 3087.7 1314.58 3088.25 1314.77C3090.18 1314.77 3092.03 1314.77 3093.88 1314.77C3095.93 1314.89 3097.98 1314.89 3100.02 1314.77C3105.42 1314.79 3110.81 1314.2 3116.08 1313C3119.23 1312.38 3122.35 1311.59 3125.42 1310.65C3135.22 1307.61 3144.64 1303.46 3153.5 1298.29C3153.09 1323.19 3145.04 1347.38 3130.46 1367.58C3127.77 1371.19 3131.89 1374.3 3135 1372.7C3148.76 1365.57 3160.95 1355.73 3170.82 1343.78C3189.79 1321.3 3203.09 1294.6 3209.59 1265.91L3201.18 1270.54L3265.34 1233.54C3271.55 1229.96 3277.53 1226 3283.25 1221.68C3282.76 1219.55 3282.39 1217.38 3282.16 1215.21C3282.16 1213.78 3281.65 1211.67 3281.48 1209.49C3281.18 1207.62 3280.98 1205.74 3280.9 1203.85V1202.85C3280.81 1201.45 3280.81 1200.04 3280.9 1198.64C3280.9 1195.45 3280.9 1192.08 3280.9 1188.72C3280.9 1103.62 3331.35 1007.68 3396.27 970.088L3403.41 965.883C3402.74 868.593 3341.61 823.858 3266.77 867.079Z" fill="#F0F0F0"/>
<path d="M3493.39 943.432L3409.3 992.035C3352.37 1025 3305.95 1113.54 3305.95 1189.56C3305.95 1192.67 3305.95 1195.7 3305.95 1198.64C3305.95 1201.58 3305.95 1201.75 3305.95 1203.35C3305.95 1204.95 3305.95 1206.29 3306.37 1207.81C3306.51 1209.47 3306.74 1211.13 3307.05 1212.77C3307.97 1220.25 3309.72 1227.61 3312.26 1234.71C3312.58 1236.02 3313.03 1237.29 3313.61 1238.5C3314.18 1240.17 3314.85 1241.79 3315.62 1243.38C3316.3 1244.96 3317.06 1246.5 3317.9 1248C3318.59 1249.47 3319.4 1250.87 3320.33 1252.21C3320.53 1252.68 3320.78 1253.13 3321.09 1253.55C3322.69 1255.91 3324.29 1258.09 3325.97 1260.19C3326.94 1261.4 3327.98 1262.55 3329.08 1263.64L3332.27 1266.75C3333.36 1267.78 3334.52 1268.73 3335.72 1269.61C3336.83 1270.52 3338.01 1271.33 3339.25 1272.05C3340.51 1272.81 3341.69 1273.56 3343.04 1274.24L3346.91 1276.09L3350.94 1277.52C3353.4 1278.26 3355.9 1278.88 3358.43 1279.37H3359.69C3361.09 1279.49 3362.49 1279.49 3363.89 1279.37C3365.43 1279.58 3366.98 1279.58 3368.52 1279.37C3372.13 1279.39 3375.73 1279.05 3379.28 1278.36C3382.12 1277.87 3384.92 1277.22 3387.69 1276.42C3395.08 1274.19 3402.17 1271.06 3408.79 1267.09L3437.22 1250.78C3441.16 1258.1 3446.97 1264.26 3454.06 1268.61C3461.15 1272.97 3469.26 1275.37 3477.58 1275.58C3490.46 1277.75 3503.7 1275.53 3515.17 1269.28C3518.19 1267.34 3518.95 1261.62 3516.26 1260.87C3497 1257.42 3480.27 1239.09 3480.27 1225.63L3493.05 1218.23C3500.54 1213.88 3507.61 1208.85 3514.16 1203.18C3516.51 1201.16 3518.87 1198.98 3521.14 1196.79C3525.4 1192.84 3529.45 1188.66 3533.25 1184.26C3534.76 1182.5 3536.27 1180.81 3537.79 1178.8C3539.3 1176.78 3540.56 1175.43 3541.99 1173.67L3543.25 1171.98C3548.85 1164.58 3554.02 1156.86 3558.73 1148.86L3562.51 1142.39C3563.77 1140.2 3564.95 1138.01 3566.13 1135.74C3567.3 1133.47 3568.31 1131.2 3569.49 1129.02L3572.77 1122.12C3573.86 1119.77 3574.79 1117.41 3575.8 1115.22C3577.56 1111.19 3579.24 1106.82 3580.67 1102.95L3581.43 1100.68C3582.35 1098.32 3583.2 1095.97 3583.87 1093.61C3585.47 1088.99 3586.73 1084.53 3588.16 1079.82C3591.12 1068.77 3593.33 1057.53 3594.8 1046.19C3594.8 1044.25 3595.22 1042.4 3595.39 1040.47C3595.56 1038.54 3595.39 1037.11 3595.81 1035.51C3596.23 1033.91 3595.81 1032.15 3595.81 1030.46C3595.81 1027.35 3595.81 1024.16 3595.81 1021.05C3596.73 945.618 3550.32 910.553 3493.39 943.432Z" fill="#F0F0F0"/>
<path d="M2817.82 2055.76C2786.03 2045.84 2753.41 2071.57 2732.05 2123.53C2710.69 2175.5 2665.87 2307.69 2659.23 2342.92C2652.59 2378.15 2802.94 2454.84 2798.73 2452.82C2794.53 2450.81 2817.82 2055.76 2817.82 2055.76Z" fill="#263238"/>
<path d="M2747.94 3278.91C2743.4 3280.59 2742.31 3289.17 2741.63 3306.16C2741.13 3319.02 2738.36 3341.47 2753.41 3345.93C2768.46 3350.39 2790.57 3348.12 2800.24 3336.01C2812.27 3320.87 2820.43 3307.59 2837.58 3289.09C2852.55 3273.11 2868.61 3258.14 2874.66 3235.69C2880.13 3215.34 2875.59 3206.6 2861.71 3200.71C2842.71 3192.3 2812.77 3219.04 2797.89 3223.25C2785.02 3226.86 2752.4 3277.23 2747.94 3278.91Z" fill="#263238"/>
<path d="M2747.94 3263.19V3284.04C2755.77 3289.05 2764.82 3291.83 2774.1 3292.08C2783.39 3292.33 2792.58 3290.05 2800.67 3285.47C2801.59 3283.45 2806.13 3255.62 2806.13 3255.62L2747.94 3263.19Z" fill="#FFA8A7"/>
<path d="M2916.88 3399.16C2916.88 3399.16 2910.91 3417.32 2907.71 3432.79C2905.1 3445.41 2901.49 3466.43 2905.86 3476.02C2910.23 3485.6 2927.55 3491.66 2954.21 3491.4C2971.53 3491.4 2998.53 3503.09 3016.94 3513.35C3035.36 3523.61 3075.8 3528.24 3095.9 3525.88C3119.61 3523.11 3144.25 3509.06 3148.12 3499.48C3151.99 3489.89 3146.86 3479.38 3090.86 3455.5C3090.35 3455.5 3012.99 3430.27 2985.83 3400.25L2916.88 3399.16Z" fill="#263238"/>
<path d="M2916.88 3376.62C2916.88 3376.62 2916.88 3392.1 2916.88 3400.92C2916.88 3409.75 2927.3 3422.96 2954.38 3422.03C2973.38 3421.36 2986.59 3416.23 2985.83 3400.59V3377.97L2916.88 3376.62Z" fill="#FFA8A7"/>
<path d="M2734.32 2986.28C2738.97 2949.33 2747.22 2912.91 2758.96 2877.56C2758.96 2877.56 2751.56 2783.8 2747.94 2694.92C2744.07 2598.89 2747.94 2478.14 2746.34 2454.25C2746.34 2454.25 3056.21 2391.52 3061.76 2502.52C3067.31 2613.52 3049.48 2896.06 3045.87 2944.83C3042.25 2993.6 3033.76 3036.74 3023.67 3115.78C3013.58 3194.82 2985.83 3377.97 2985.83 3377.97C2975.11 3383.43 2963.21 3386.17 2951.18 3385.93C2939.16 3385.7 2927.37 3382.5 2916.88 3376.62C2916.88 3376.62 2895.1 3154.63 2897.37 3098.37C2899.14 3056.59 2906.32 3015.21 2918.73 2975.27L2907.71 2804.15C2902.5 2724.52 2897.03 2686.42 2895.77 2651.69L2889.13 2648.33C2889.13 2648.33 2882.32 2785.73 2878.7 2834.5C2875.08 2883.28 2867.26 2930.03 2853.47 3020.59C2841.2 3099.13 2804.79 3265.37 2804.79 3265.37C2769.38 3284.55 2748.28 3262.94 2748.28 3262.94C2748.28 3262.94 2724.9 3054.4 2734.32 2986.28Z" fill="#455A64"/>
<path d="M2895.77 2651.95C2895.77 2651.95 2820.59 2614.86 2783.01 2581.48C2783.01 2581.48 2817.9 2630.67 2863.82 2652.54C2863.82 2652.54 2880.13 2823.15 2880.05 2819.79L2889.46 2651.61L2895.77 2651.95Z" fill="#37474F"/>
<path d="M2962.7 2020.61L2944.37 2121.51L2853.22 2114.87L2872.31 2000.43L2962.7 2020.61Z" fill="#FFA8A7"/>
<path d="M2756.94 2107.47C2765.94 2080.06 2800.75 2050.21 2835.56 2057.02C2887.34 2065.78 2938.36 2078.51 2988.18 2095.11C3020.05 2106.46 3049.06 2134.04 3051.75 2238.99L3067.9 2551.46L3029.3 2559.87L3015.85 2489.07L3009.63 2559.87C2969.26 2569.96 2899.22 2561.64 2853.22 2551.46C2757.36 2530.52 2745.84 2490.75 2745.84 2490.75C2745.84 2490.75 2744.58 2314.92 2747.44 2238.99C2750.13 2174.07 2750.72 2125.97 2756.94 2107.47Z" fill="#37474F"/>
<path d="M3030.14 1901.03C3030.14 1901.03 3052.26 1933.75 3049.4 1937.19C3044.29 1940.64 3038.59 1943.12 3032.58 1944.51L3030.14 1901.03Z" fill="#FFA8A7"/>
<path d="M2962.7 1797.44C2983.98 1808.2 3020.72 1828.05 3030.82 1905.83C3041.24 1985.71 3027.54 2011.44 3016.77 2022.04C3009.46 2029.19 2969.77 2029.61 2949.92 2023.64C2924.7 2016.15 2869.03 1994.88 2843.47 1953.84C2813.36 1905.58 2806.64 1840.91 2840.61 1815.18C2888.29 1779.02 2944.71 1788.36 2962.7 1797.44Z" fill="#FFA8A7"/>
<path d="M3035.27 1824.18C3028.29 1843.35 3016.52 1890.27 2967.58 1909.86C2967.58 1909.86 2960.6 1879.93 2935.46 1883.12C2910.32 1886.32 2906.03 1918.36 2921.5 1938.29C2936.97 1958.21 2951.94 1950.98 2951.94 1950.98C2951.94 1950.98 2955.3 1993.87 2926.71 2013.29C2926.71 2013.29 2892.15 2035.16 2855.57 2018.34C2838.76 2010.77 2815.8 1971.33 2802.18 1938.96C2773.25 1870.51 2769.13 1815.6 2812.77 1798.28C2818.16 1767.17 2832.2 1755.48 2860.37 1749.67C2921 1737.15 2966.82 1777 3017.78 1770.02C3044.44 1766.32 3043.26 1802.31 3035.27 1824.18Z" fill="#37474F"/>
<path d="M2811.76 1808.7L2783.17 1791.05C2784.28 1789.06 2785.78 1787.33 2787.58 1785.94C2789.37 1784.56 2791.43 1783.55 2793.63 1782.98C2795.83 1782.41 2798.12 1782.29 2800.36 1782.63C2802.61 1782.96 2804.76 1783.75 2806.69 1784.95C2808.62 1786.14 2810.29 1787.71 2811.6 1789.57C2812.91 1791.42 2813.82 1793.52 2814.3 1795.74C2814.77 1797.96 2814.79 1800.26 2814.36 1802.48C2813.92 1804.71 2813.04 1806.83 2811.76 1808.7Z" fill="#37474F"/>
<path d="M2955.98 2057.36L2966.4 2087.54C2966.4 2087.54 2958.75 2101 2926.21 2101.67C2893.67 2102.34 2858.94 2092 2848.18 2078.13C2845.72 2075.41 2843.91 2072.18 2842.86 2068.68C2841.82 2065.17 2841.56 2061.48 2842.12 2057.86C2842.12 2057.86 2855.07 2029.27 2867.35 2030.53L2865.33 2042.98C2865.33 2042.98 2868.1 2053.15 2897.62 2060.97C2943.53 2073.16 2955.98 2057.36 2955.98 2057.36Z" fill="#455A64"/>
<path d="M3217.49 2257.99C3230.61 2242.94 3235.66 2209.56 3253.15 2186.68C3270.64 2163.81 3277.11 2147.08 3284.01 2157.08C3293.17 2170.29 3272.49 2196.77 3277.11 2199.13C3281.74 2201.48 3298.81 2236.63 3300.57 2255.97C3302.34 2275.31 3251.04 2324.08 3251.04 2324.08L3217.49 2257.99Z" fill="#FFA8A7"/>
<path d="M2955.98 2057.36C2958.09 2057.31 2960.18 2057.85 2962.02 2058.9C2963.85 2059.95 2965.37 2061.48 2966.4 2063.33C2971.55 2072.61 2976.15 2082.19 2980.19 2092L2966.4 2087.54L2955.98 2057.36Z" fill="#455A64"/>
<path d="M3275.68 2196.44C3275.68 2196.44 3337.66 2191.06 3346.65 2196.44C3355.65 2201.82 3352.96 2228.64 3346.65 2245.13C3340.35 2261.61 3308.73 2272.29 3279.38 2292.13C3279.38 2289.1 3275.68 2196.44 3275.68 2196.44Z" fill="#FFA8A7"/>
<path d="M2980.19 2092.34C3006.85 2101.67 3030.14 2112.35 3055.03 2159.1C3086.99 2219.14 3147.53 2315.17 3147.53 2315.17L3217.24 2253.7C3217.24 2253.7 3227.75 2243.53 3247.34 2275.9C3253.09 2284.62 3256.72 2294.55 3257.96 2304.91C3259.2 2315.27 3258.01 2325.78 3254.49 2335.61C3254.49 2335.61 3174.02 2430.04 3158.63 2444.42C3143.24 2458.8 3117.76 2447.61 3101.2 2424.99C3084.63 2402.37 2979.94 2271.61 2979.94 2271.61C2979.94 2271.61 2923.1 2196.1 2980.19 2092.34Z" fill="#37474F"/>
<path d="M3699.24 1935.34H3500.7C3493.21 1935.34 3486.02 1932.37 3480.73 1927.07C3475.43 1921.77 3472.45 1914.58 3472.45 1907.09V1591.67C3472.45 1566.85 3482.31 1543.05 3499.86 1525.49C3517.41 1507.94 3541.22 1498.08 3566.04 1498.08H3634.15C3658.93 1498.15 3682.67 1508.04 3700.17 1525.58C3717.67 1543.13 3727.49 1566.89 3727.49 1591.67V1907.09C3727.49 1914.58 3724.51 1921.77 3719.22 1927.07C3713.92 1932.37 3706.73 1935.34 3699.24 1935.34Z" fill="#37474F"/>
<path d="M3467.24 1827.71C3447.98 1884.47 3415.69 2047.77 3415.69 2047.77C3415.69 2047.77 3348.42 2130.01 3326.47 2149.94C3314.45 2161.04 3287.37 2180.97 3287.37 2180.97L3336.56 2217.12C3380.98 2182.96 3422.7 2145.43 3461.35 2104.87C3469.95 2095.72 3475.98 2084.46 3478.84 2072.24L3512.48 1927.94C3512.48 1927.94 3512.48 1811.9 3530.22 1796.68C3547.96 1781.46 3553.09 1778.26 3553.09 1778.26C3530.3 1776.58 3482.37 1783.06 3467.24 1827.71Z" fill="#F28F8F"/>
<path d="M3563.6 1776.58C3532.24 1772.97 3492.04 1773.64 3472.45 1808.7C3452.86 1843.77 3420.23 2025.07 3420.23 2025.07C3420.23 2025.07 3451.09 2049.03 3484.39 2048.61L3563.6 1776.58Z" fill="#90CAF9"/>
<path d="M3476.4 1945.52C3482.05 1972.54 3484.23 2000.18 3482.88 2027.76C3480.44 2064.08 3455.38 2127.49 3455.38 2127.49C3455.38 2127.49 3474.97 2149.01 3530.22 2140.35C3575.21 2133.37 3559.31 1997.4 3533.5 1971.33C3518.44 1955.78 3498.02 1946.55 3476.4 1945.52Z" fill="#90CAF9"/>
<path opacity="0.3" d="M3476.4 1945.52C3482.05 1972.54 3484.23 2000.18 3482.88 2027.76C3480.44 2064.08 3455.38 2127.49 3455.38 2127.49C3455.38 2127.49 3474.97 2149.01 3530.22 2140.35C3575.21 2133.37 3559.31 1997.4 3533.5 1971.33C3518.44 1955.78 3498.02 1946.55 3476.4 1945.52Z" fill="black"/>
<path d="M3580.34 2905.81C3580.69 2912.01 3579.14 2918.18 3575.88 2923.47C3567.56 2937.21 3557.78 2950.01 3546.7 2961.65C3531.14 2978.46 3507.85 2998.22 3491.12 3012.77C3481.87 3021.18 3481.53 3033.12 3494.82 3037.41C3519.58 3043.44 3545.72 3039.8 3567.89 3027.23C3584.71 3018.32 3608.09 2976.78 3621.88 2970.9C3637.77 2963.75 3646.6 2960.22 3651.98 2952.9C3656.05 2948.74 3658.59 2943.33 3659.18 2937.54C3659.78 2931.75 3658.4 2925.93 3655.26 2921.03C3647.78 2907.07 3636.51 2885.63 3631.88 2888.07L3633.31 2892.44C3629.7 2903.79 3598.75 2916.99 3582.86 2913.88L3580.34 2905.81Z" fill="#37474F"/>
<path d="M3742.37 2431.38C3749.52 2355.7 3770.04 2233.94 3749.02 2143.8L3469.84 2158.6C3462.11 2247.48 3453.03 2524.97 3462.78 2556.76C3474.05 2594.26 3574.7 2853.84 3580.5 2906.06C3580.9 2912.19 3579.34 2918.29 3576.05 2923.47C3567.74 2937.24 3557.96 2950.07 3546.87 2961.73C3539.3 2970.14 3530.05 2978.55 3520.3 2986.96C3519.48 2988.16 3518.99 2989.55 3518.87 2990.99C3518.87 2999.4 3540.06 3002.01 3552.5 2998.39C3568.02 2992.91 3581.39 2982.64 3590.68 2969.05C3597.83 2959.54 3613.89 2941.3 3624.31 2927.59C3627.79 2923.36 3630.76 2918.73 3633.14 2913.8C3635.93 2907.64 3636.41 2900.69 3634.49 2894.21L3633.82 2892.1C3628.36 2875.08 3624.97 2857.46 3623.73 2839.63C3619.86 2782.37 3610.02 2650.1 3600.94 2614.86C3594.63 2589.19 3585.05 2564.43 3572.43 2541.2L3604.3 2293.22C3604.3 2293.22 3607.66 2511.85 3617.59 2567.61C3625.41 2612.26 3628.43 2668.09 3637.6 2744.7C3646.01 2818.02 3655.76 2947.18 3655.76 2947.18C3656.01 2947.23 3656.27 2947.23 3656.52 2947.18V3008.9H3708.74V2973.08C3708.74 2956.91 3710.09 2940.76 3712.78 2924.81C3721.18 2876.04 3738.67 2764.46 3742.29 2726.7C3748.01 2666.83 3726.4 2591.57 3726.4 2591.57C3726.4 2591.57 3735.4 2505.21 3742.37 2431.38Z" fill="#FFA8A7"/>
<path d="M3643.99 1779.19C3643.99 1779.19 3719.08 1787.6 3728.08 1791.89C3657.61 1841.42 3714.71 1951.66 3714.71 1951.66L3687.72 2036.33C3717.74 2074.76 3743.64 2097.63 3759.7 2139.76C3777.52 2186.85 3793.33 2256.9 3789.13 2400.44C3721.86 2450.89 3517.19 2445.42 3437.47 2400.44C3437.47 2400.44 3450.92 2273.72 3466.82 2175.25C3477.33 2110.25 3502.13 2039.44 3497.93 2015.48C3466.31 1918.27 3464.29 1900.78 3470.01 1879.09C3485.74 1818.04 3547.96 1776.75 3563.27 1776.75L3643.99 1779.19Z" fill="#90CAF9"/>
<path opacity="0.6" d="M3643.99 1779.19C3643.99 1779.19 3719.08 1787.6 3728.08 1791.89C3657.61 1841.42 3714.71 1951.66 3714.71 1951.66L3687.72 2036.33C3717.74 2074.76 3743.64 2097.63 3759.7 2139.76C3777.52 2186.85 3793.33 2256.9 3789.13 2400.44C3721.86 2450.89 3517.19 2445.42 3437.47 2400.44C3437.47 2400.44 3450.92 2273.72 3466.82 2175.25C3477.33 2110.25 3502.13 2039.44 3497.93 2015.48C3466.31 1918.27 3464.29 1900.78 3470.01 1879.09C3485.74 1818.04 3547.96 1776.75 3563.27 1776.75L3643.99 1779.19Z" fill="white"/>
<path d="M3656.02 2982.75V2975.27C3649.46 3000.41 3636.34 3023.36 3618.01 3041.78C3601.19 3057 3578.49 3074.66 3572.6 3091.73C3566.71 3108.8 3599.59 3116.45 3621.29 3114.27C3642.31 3111.7 3661.68 3101.56 3675.78 3085.76C3689.57 3069.95 3689.32 3059.19 3695.71 3050.44C3702.1 3041.7 3716.98 3032.11 3720.43 3022.02C3721.5 3012.61 3720.47 3003.07 3717.4 2994.1C3714.96 2984.77 3712.27 2974.43 3708.99 2975.27V2981.07C3701.43 2987.02 3692.05 2990.2 3682.42 2990.07C3675.1 2990.24 3655.93 2988.64 3656.02 2982.75Z" fill="#37474F"/>
<path d="M3708.74 2980.9C3701.17 2986.86 3691.79 2990.03 3682.17 2989.9C3674.43 2989.9 3655.6 2988.64 3655.68 2982.75V2975.27C3649.12 3000.41 3636 3023.37 3617.67 3041.78L3604.97 3053.13C3596.06 3063.06 3598.58 3071.72 3619.52 3073.48C3640.46 3075.25 3658.87 3062.64 3674.68 3043.21C3688.16 3023.68 3699.58 3002.8 3708.74 2980.9Z" fill="#FFA8A7"/>
<path d="M3514.33 1549.63C3500.87 1557.62 3484.22 1591.67 3485.82 1662.47C3487.25 1722.68 3506.76 1737.57 3516.6 1741.85C3526.44 1746.14 3545.27 1743.54 3563.6 1740.51V1776.58C3563.6 1776.58 3538.38 1806.1 3539.81 1822.66C3541.23 1839.23 3576.47 1843.1 3600.27 1826.95C3617.45 1813.63 3632.23 1797.48 3643.99 1779.19L3643.57 1696.19C3643.57 1696.19 3654.42 1706.62 3672.75 1690.64C3687.89 1677.44 3692.93 1655.07 3681.16 1643.13C3678.1 1640.26 3674.4 1638.16 3670.37 1637.01C3666.33 1635.85 3662.08 1635.68 3657.97 1636.5C3653.85 1637.32 3650 1639.12 3646.72 1641.74C3643.44 1644.35 3640.83 1647.71 3639.11 1651.54C3639.11 1651.54 3628.94 1623.21 3586.64 1609.5C3548.47 1596.8 3527.7 1582.42 3514.33 1549.63Z" fill="#FFA8A7"/>
<path d="M3553.09 1647.42C3553.09 1648.9 3553.53 1650.35 3554.35 1651.59C3555.16 1652.83 3556.33 1653.8 3557.69 1654.38C3559.05 1654.96 3560.56 1655.13 3562.02 1654.86C3563.47 1654.59 3564.82 1653.91 3565.89 1652.88C3566.96 1651.86 3567.71 1650.54 3568.04 1649.09C3568.37 1647.65 3568.26 1646.14 3567.74 1644.75C3567.22 1643.36 3566.3 1642.16 3565.1 1641.29C3563.9 1640.42 3562.48 1639.92 3561 1639.85C3559.98 1639.83 3558.97 1640.01 3558.02 1640.38C3557.07 1640.75 3556.21 1641.3 3555.48 1642C3554.74 1642.7 3554.15 1643.54 3553.74 1644.47C3553.33 1645.41 3553.11 1646.41 3553.09 1647.42Z" fill="#37474F"/>
<path d="M3551.07 1698.38L3533.5 1704.01C3533.81 1705.19 3534.35 1706.29 3535.09 1707.24C3535.84 1708.2 3536.77 1709 3537.83 1709.59C3538.89 1710.18 3540.06 1710.55 3541.27 1710.67C3542.47 1710.8 3543.69 1710.68 3544.85 1710.32C3547.22 1709.51 3549.19 1707.82 3550.35 1705.6C3551.51 1703.37 3551.77 1700.79 3551.07 1698.38Z" fill="#F28F8F"/>
<path d="M3491.03 1624.13L3506.34 1613.54C3505.69 1612.5 3504.84 1611.61 3503.84 1610.91C3502.84 1610.22 3501.7 1609.73 3500.51 1609.49C3499.31 1609.24 3498.08 1609.25 3496.88 1609.49C3495.69 1609.74 3494.56 1610.23 3493.56 1610.93C3491.51 1612.37 3490.1 1614.56 3489.63 1617.02C3489.16 1619.48 3489.66 1622.03 3491.03 1624.13Z" fill="#37474F"/>
<path d="M3575.12 1629.85L3559.73 1619.25C3560.38 1618.22 3561.23 1617.33 3562.23 1616.63C3563.23 1615.94 3564.36 1615.45 3565.55 1615.2C3566.75 1614.95 3567.98 1614.94 3569.17 1615.17C3570.37 1615.41 3571.51 1615.88 3572.52 1616.56C3574.55 1618.04 3575.95 1620.23 3576.44 1622.69C3576.92 1625.16 3576.45 1627.72 3575.12 1629.85Z" fill="#37474F"/>
<path d="M3494.57 1641.87C3494.55 1643.36 3494.97 1644.82 3495.78 1646.06C3496.59 1647.31 3497.74 1648.29 3499.11 1648.89C3500.47 1649.48 3501.97 1649.66 3503.44 1649.4C3504.9 1649.15 3506.26 1648.47 3507.34 1647.45C3508.42 1646.42 3509.17 1645.11 3509.51 1643.66C3509.84 1642.21 3509.74 1640.7 3509.22 1639.31C3508.71 1637.91 3507.79 1636.71 3506.59 1635.83C3505.39 1634.96 3503.95 1634.46 3502.47 1634.39C3500.43 1634.34 3498.46 1635.1 3496.98 1636.51C3495.5 1637.91 3494.63 1639.84 3494.57 1641.87Z" fill="#37474F"/>
<path d="M3530.22 1637.58L3529.04 1683.16L3505.08 1675.76L3530.22 1637.58Z" fill="#F28F8F"/>
<path d="M3563.6 1740.51C3582.94 1737.9 3622.46 1726.47 3629.02 1710.74C3626.53 1718.71 3621.66 1725.72 3615.06 1730.84C3603.12 1741.01 3563.6 1752.53 3563.6 1752.53V1740.51Z" fill="#F28F8F"/>
<path d="M3700.75 1990.17L3647.69 2061.98L3687.72 2036.33L3700.75 1990.17Z" fill="#90CAF9"/>
<path d="M3282.75 2180.97C3271.39 2195.6 3264.41 2224.02 3258.44 2233.61C3252.47 2243.19 3245.33 2251.52 3258.44 2253.28C3271.56 2255.05 3290.73 2229.4 3297.88 2213.84C3301.5 2205.07 3308.33 2198.01 3316.97 2194.08C3310.83 2191.98 3314.03 2167.34 3309.74 2163.9C3309.74 2163.9 3287.37 2173.06 3282.75 2180.97Z" fill="#F28F8F"/>
<path d="M3279.38 2291.96C3291.24 2283.13 3291.66 2272.29 3293.93 2255.05C3296.2 2237.81 3343.71 2219.14 3345.22 2232.01C3346.74 2244.87 3351.03 2255.64 3336.81 2271.28C3322.6 2286.92 3301.08 2303.57 3279.38 2291.96Z" fill="#F28F8F"/>
<path d="M3643.99 1779.19C3643.99 1779.19 3714.29 1785.33 3728.08 1791.89C3741.87 1798.45 3764.83 1838.14 3744.31 1895.74C3723.79 1953.34 3705.12 2021.11 3707.23 2034.74C3709.33 2048.36 3758.35 2118.82 3758.35 2118.82C3744.83 2128.81 3729.53 2136.14 3713.28 2140.44L3688.05 2085.61L3693.94 2143.88C3668.6 2150.04 3642.57 2152.87 3616.49 2152.29C3616.49 2152.29 3592.7 1928.45 3643.99 1779.19Z" fill="#90CAF9"/>
<path d="M3817.21 2053.74C3822.85 2020.61 3817.21 2009.76 3805.61 1977.3L3746.75 2015.39C3751.58 2027.65 3754.41 2040.59 3755.16 2053.74C3754.65 2063.33 3741.62 2158.35 3729.43 2191.48C3727.23 2197.37 3722.91 2202.23 3717.32 2205.1C3705.19 2212.5 3694.2 2221.62 3684.69 2232.18C3675.69 2240.58 3668.46 2242.1 3669.39 2244.96C3670.78 2248.06 3673.26 2250.53 3676.36 2251.92C3679.47 2253.3 3682.97 2253.48 3686.2 2252.44C3693.53 2250.06 3700.55 2246.85 3707.14 2242.85C3701.3 2255.22 3693.52 2266.58 3684.1 2276.49C3662.49 2299.53 3660.56 2314.5 3700.92 2317.61C3726.15 2319.54 3747.25 2305.42 3770.04 2251.18C3777.1 2231.3 3782.92 2210.99 3787.45 2190.38C3799.72 2143.38 3811.66 2087.12 3817.21 2053.74Z" fill="#FFA8A7"/>
<path d="M3728.08 1791.89C3756.42 1804.58 3764.49 1829.64 3775 1866.47C3785.51 1903.3 3818.48 2013.8 3818.48 2013.8C3818.48 2013.8 3790.22 2047.43 3751.2 2038.01L3700.75 1915.5C3700.75 1915.5 3677.21 1835.53 3728.08 1791.89Z" fill="#90CAF9"/>
<defs>
<filter id="filter0_f_2105_3209" x="0.426941" y="0.443542" width="4847.11" height="4824.99" filterUnits="userSpaceOnUse" color-interpolation-filters="sRGB">
<feFlood flood-opacity="0" result="BackgroundImageFix"/>
<feBlend mode="normal" in="SourceGraphic" in2="BackgroundImageFix" result="shape"/>
<feGaussianBlur stdDeviation="284.278" result="effect1_foregroundBlur_2105_3209"/>
</filter>
<linearGradient id="paint0_linear_2105_3209" x1="2423.98" y1="557.939" x2="2423.98" y2="4267.94" gradientUnits="userSpaceOnUse">
<stop stop-color="#D107E3"/>
<stop offset="1" stop-color="#1653F0"/>
</linearGradient>
</defs>
</svg>
