<svg width="5371" height="3529" viewBox="0 0 5371 3529" fill="none" xmlns="http://www.w3.org/2000/svg">
<g clip-path="url(#clip0_2109_17569)">
<rect width="5371" height="3529" fill="#EAF0FF"/>
<g filter="url(#filter0_f_2109_17569)">
<ellipse cx="3708" cy="2385" rx="2062" ry="1577" fill="url(#paint0_linear_2109_17569)" fill-opacity="0.5"/>
</g>
<rect y="589" width="2099" height="6141" fill="url(#paint1_linear_2109_17569)"/>
</g>
<path d="M3363.79 2216.2H3866.63V1828.31H3363.79V2216.2Z" fill="#EBEBEB"/>
<path d="M3399.69 2182.31H3460.3V2113.83H3399.69V2182.31Z" fill="white"/>
<path d="M3713.26 1829.29H3656.12V1912.03H3713.26V1829.29Z" fill="#FAFAFA"/>
<path d="M3713.26 2132.27H3656.12V2215.01H3713.26V2132.27Z" fill="#FAFAFA"/>
<path d="M3489.25 2218.84C3488.35 2218.84 3487.65 2133.53 3487.65 2028.31C3487.65 1923.09 3488.35 1837.77 3489.25 1837.77C3490.16 1837.77 3490.85 1923.09 3490.85 2028.31C3490.85 2133.53 3490.16 2218.84 3489.25 2218.84Z" fill="#E0E0E0"/>
<path d="M3158.71 2884.11H4026.34V2214.87H3158.71V2884.11Z" fill="#EBEBEB"/>
<path d="M3220.71 2825.72H3325.23V2707.56H3220.71V2825.72Z" fill="white"/>
<path d="M3761.62 2216.61H3663.08V2359.41H3761.62V2216.61Z" fill="#FAFAFA"/>
<path d="M3761.62 2739.29H3663.08V2882.09H3761.62V2739.29Z" fill="#FAFAFA"/>
<path d="M3375.27 2888.7C3373.74 2888.7 3372.48 2741.52 3372.48 2559.96C3372.48 2378.41 3373.74 2231.23 3375.27 2231.23C3376.8 2231.23 3377.98 2378.41 3377.98 2559.96C3377.98 2741.52 3376.8 2888.7 3375.27 2888.7Z" fill="#E0E0E0"/>
<path d="M3998.78 822.967L4045.26 917.12L4149.16 932.221L4074 1005.57L4091.75 1109.04L3998.78 1060.19L3905.81 1109.04L3923.55 1005.57L3848.4 932.221L3952.29 917.12L3998.78 822.967Z" fill="#EBEBEB"/>
<path d="M1231.18 2039.09L1260.48 2098.45L1325.96 2107.92L1278.57 2154.12L1289.77 2219.4L1231.18 2188.57L1172.59 2219.4L1183.79 2154.12L1136.4 2107.92L1201.88 2098.45L1231.18 2039.09Z" fill="#EBEBEB"/>
<path d="M1267.5 1521.98L1332.57 1653.78L1478.01 1674.94L1372.79 1777.51L1397.64 1922.39L1267.5 1853.99L1137.44 1922.39L1162.29 1777.51L1057 1674.94L1202.44 1653.78L1267.5 1521.98Z" fill="#EBEBEB"/>
<path d="M3957.37 1248.22L3985.42 1305.07L4048.12 1314.19L4002.75 1358.38L4013.46 1420.8L3957.37 1391.36L3901.29 1420.8L3912 1358.38L3866.63 1314.19L3929.33 1305.07L3957.37 1248.22Z" fill="#EBEBEB"/>
<path d="M3037.28 327.915L3065.32 384.699L3128.02 393.815L3082.65 438.073L3093.36 500.494L3037.28 470.989L2981.19 500.494L2991.9 438.073L2946.53 393.815L3009.23 384.699L3037.28 327.915Z" fill="#EBEBEB"/>
<path d="M3678.67 935.7L3697.04 972.86L3738.1 978.845L3708.39 1007.79L3715.42 1048.64L3678.67 1029.37L3642 1048.64L3649.03 1007.79L3619.31 978.845L3660.37 972.86L3678.67 935.7Z" fill="#EBEBEB"/>
<path d="M1985.59 2812.5L2021.35 2884.87L2101.24 2896.49L2043.41 2952.86L2057.12 3032.47L1985.59 2994.89L1914.12 3032.47L1927.76 2952.86L1869.93 2896.49L1949.89 2884.87L1985.59 2812.5Z" fill="#EBEBEB"/>
<path d="M2079.95 2740.47L2094.7 2770.4L2127.76 2775.2L2103.82 2798.51L2109.45 2831.43L2079.95 2815.84L2050.44 2831.43L2056.08 2798.51L2032.14 2775.2L2065.2 2770.4L2079.95 2740.47Z" fill="#EBEBEB"/>
<path d="M3399.69 2463.23L3431.15 2526.91L3501.43 2537.14L3450.56 2586.68L3462.6 2656.69L3399.69 2623.64L3336.85 2656.69L3348.89 2586.68L3298.02 2537.14L3368.31 2526.91L3399.69 2463.23Z" fill="#90CAF9"/>
<path d="M3549.66 2406.8L3564.48 2436.79L3597.53 2441.59L3573.59 2464.97L3579.23 2497.96L3549.66 2482.37L3520.01 2497.96L3525.72 2464.97L3501.71 2441.59L3534.83 2436.79L3549.66 2406.8Z" fill="#90CAF9"/>
<path d="M3353.14 749.55L3377.91 672.586C3354.3 625.039 3347.13 571.003 3357.53 518.945C3367.92 466.887 3395.29 419.747 3435.34 384.91C3475.4 350.074 3525.88 329.509 3578.88 326.437C3631.87 323.366 3684.39 337.961 3728.21 367.937C3772.02 397.913 3804.65 441.576 3820.99 492.085C3837.32 542.594 3836.44 597.096 3818.49 647.052C3800.53 697.008 3766.5 739.595 3721.75 768.142C3676.99 796.689 3624.03 809.583 3571.16 804.803C3519.57 801.289 3470.76 780.162 3432.89 744.957L3353.14 749.55Z" fill="#FAFAFA"/>
<path d="M3353.14 749.55L3358.43 749.133L3373.81 748.019L3432.89 743.983C3462.17 771.068 3498.24 789.727 3537.27 797.984C3549.32 800.661 3561.56 802.406 3573.87 803.203L3593.36 803.968C3599.9 803.968 3606.65 803.203 3613.4 802.855C3674.44 797.315 3731.01 768.483 3771.36 722.341C3794.11 696.71 3810.99 666.433 3820.84 633.616C3830.94 598.548 3832.98 561.653 3826.83 525.684C3825.3 516.437 3823.16 507.301 3820.42 498.336C3819.19 493.795 3817.68 489.333 3815.9 484.975C3814.16 480.521 3812.63 476.068 3810.75 471.684C3803 453.985 3793.19 437.261 3781.52 421.858C3775.71 414.18 3769.41 406.882 3762.67 400.008C3759.39 396.503 3755.91 393.203 3752.23 390.126C3748.68 386.995 3745.27 383.585 3741.51 380.732L3730.1 372.242L3724.39 368.067L3718.27 364.448L3706.23 357.489C3702.12 355.193 3697.81 353.453 3693.63 351.365C3661.65 336.23 3626.68 328.46 3591.3 328.629C3555.92 328.797 3521.02 336.9 3489.18 352.34C3434.02 378.834 3391.18 425.563 3369.56 482.818C3368.38 486.019 3367.27 489.22 3366.15 492.352C3364.89 495.441 3363.89 498.63 3363.16 501.885C3361.56 508.287 3360.03 514.62 3358.5 520.813C3356.38 532.949 3354.94 545.192 3354.18 557.486C3352.62 597.257 3360.99 636.79 3378.54 672.516L3359.89 729.439L3354.95 744.192C3353.83 747.532 3353.21 749.272 3353.21 749.272C3353.21 749.272 3353.63 747.671 3354.67 744.401L3359.12 729.787L3377.01 672.098V672.655C3359 636.863 3350.29 597.113 3351.68 557.069C3352.33 544.636 3353.7 532.252 3355.78 519.978C3357.31 513.715 3358.91 507.313 3360.45 500.841C3361.19 497.551 3362.16 494.318 3363.37 491.169C3364.55 487.967 3365.66 484.766 3366.85 481.496C3378.47 450.279 3396.45 421.815 3419.64 397.906C3442.83 373.996 3470.74 355.163 3501.58 342.597C3532.43 330.031 3565.56 324.006 3598.85 324.905C3632.15 325.803 3664.9 333.605 3695.03 347.816C3699.27 349.835 3703.66 351.644 3707.83 354.01L3720.08 361.317L3726.2 365.005L3732.05 369.25L3743.6 377.809C3747.43 380.801 3750.91 384.211 3754.52 387.343C3758.23 390.484 3761.76 393.83 3765.1 397.363C3771.94 404.378 3778.33 411.815 3784.24 419.632C3796.13 435.123 3806.15 451.964 3814.09 469.805C3815.97 474.259 3817.5 478.851 3819.24 483.305C3821.09 487.842 3822.64 492.49 3823.9 497.223C3826.66 506.348 3828.8 515.647 3830.31 525.058C3836.59 561.561 3834.5 599.015 3824.18 634.59C3814.3 668.032 3797.22 698.908 3774.15 725.055C3733.18 771.634 3675.88 800.684 3614.1 806.195C3607.14 806.195 3600.18 807.169 3593.78 807.169L3574.08 806.334C3561.64 805.465 3549.29 803.65 3537.13 800.906C3497.96 792.328 3461.87 773.225 3432.75 745.653H3433.3L3373.67 748.785L3358.5 749.481C3354.81 749.55 3353.14 749.55 3353.14 749.55Z" fill="#263238"/>
<path d="M3456.62 557.069L3496.07 522.832L3562.53 591.098L3711.59 466.952L3743.11 506.27L3552.16 661.73L3456.62 557.069Z" fill="#90CAF9"/>
<path d="M2940.27 2460.24L1605.84 2757.66C1598.12 2759.43 1590.12 2759.65 1582.31 2758.31C1574.5 2756.97 1567.04 2754.1 1560.34 2749.87C1553.65 2745.63 1547.86 2740.11 1543.31 2733.62C1538.75 2727.14 1535.53 2719.82 1533.82 2712.08L1101.05 768.827C1099.32 761.127 1099.14 753.163 1100.5 745.39C1101.85 737.618 1104.73 730.19 1108.97 723.532C1113.2 716.873 1118.71 711.116 1125.17 706.589C1131.63 702.062 1138.93 698.855 1146.63 697.151L2481.06 399.73C2488.76 398.005 2496.73 397.816 2504.51 399.174C2512.28 400.532 2519.72 403.41 2526.38 407.644C2533.04 411.877 2538.81 417.383 2543.34 423.846C2547.87 430.31 2551.09 437.603 2552.8 445.31L2985.85 2388.57C2987.57 2396.27 2987.76 2404.23 2986.4 2412C2985.04 2419.78 2982.17 2427.2 2977.93 2433.86C2973.7 2440.52 2968.19 2446.28 2961.73 2450.8C2955.27 2455.33 2947.97 2458.54 2940.27 2460.24Z" fill="#E0E0E0"/>
<path d="M2940.27 2460.24L2944.72 2458.99C2949.05 2457.58 2953.22 2455.74 2957.18 2453.49C2963.67 2449.68 2969.4 2444.7 2974.09 2438.81C2980.48 2430.73 2984.67 2421.15 2986.27 2410.97C2987.28 2404.82 2987.28 2398.55 2986.27 2392.39C2985.16 2385.92 2983.42 2379.1 2981.88 2372C2978.68 2358.09 2974.93 2342.22 2971.45 2325.38C2963.88 2291.65 2955.19 2252.85 2945.35 2208.96C2906.17 2033.8 2849.53 1780.36 2779.52 1467.15C2744.73 1310.57 2706.31 1139.04 2665.19 954.836C2644.68 862.794 2623.46 767.69 2601.51 669.524C2590.61 620.441 2579.52 570.685 2568.25 520.257C2562.55 495.066 2556.91 469.666 2551.13 444.127C2548 431.397 2540.67 420.092 2530.33 412.027C2520 403.963 2507.25 399.607 2494.14 399.66C2487.6 399.805 2481.11 400.74 2474.79 402.444L2455.31 406.758L2416.13 415.526L2337.08 433.132L2176.19 469.04L1844.67 543.151L1147.12 698.473C1132.37 701.74 1119.45 710.563 1111.04 723.107C1102.63 735.651 1099.38 750.953 1101.95 765.834C1108.29 795.409 1115.11 825.054 1121.58 854.559C1134.75 913.477 1147.81 972.048 1160.76 1030.27L1237.3 1374.11C1287.55 1599.5 1335.98 1816.62 1382.12 2023.99C1428.25 2231.37 1472.03 2427.6 1513.08 2612.08C1518.19 2635.28 1523.27 2658.1 1528.32 2680.56C1530.9 2691.83 1533.19 2703.24 1535.91 2714.31C1538.83 2725.21 1544.82 2735.04 1553.17 2742.63C1561.46 2750.12 1571.68 2755.13 1582.67 2757.11C1588.12 2757.99 1593.67 2758.16 1599.16 2757.59C1604.59 2756.9 1610.09 2755.58 1615.52 2754.32L1680.3 2739.92L1926.16 2685.22L2668.11 2520.37L2869.92 2475.69L2922.39 2464.14L2940.27 2460.24L2922.46 2464.42L2869.99 2476.25L2668.18 2521.41L1926.37 2687.24L1680.79 2742.14L1616 2756.62C1610.58 2757.8 1605.15 2759.19 1599.44 2759.96C1593.74 2760.54 1587.98 2760.35 1582.32 2759.4C1570.81 2757.4 1560.11 2752.16 1551.48 2744.28C1542.85 2736.4 1536.65 2726.22 1533.61 2714.94C1530.83 2703.73 1528.53 2692.46 1525.96 2681.19C1520.9 2658.59 1515.8 2635.77 1510.65 2612.71C1469.59 2428.51 1425.68 2231.71 1379.47 2024.62C1333.27 1817.52 1284.83 1600.13 1234.52 1374.73L1157.97 1030.97C1145.03 972.79 1131.97 914.173 1118.8 855.116C1112.25 825.611 1105.5 796.105 1099.1 766.252C1096.42 750.662 1099.85 734.64 1108.68 721.513C1117.5 708.386 1131.04 699.162 1146.49 695.759L1844.11 540.229L2175.84 466.604L2336.66 430.766L2415.71 413.16L2454.96 403.974L2474.45 399.66C2480.88 397.992 2487.49 397.104 2494.14 397.016C2507.72 397.047 2520.91 401.599 2531.62 409.952C2542.33 418.306 2549.95 429.987 2553.29 443.153C2559 468.761 2564.7 494.091 2570.34 519.352C2581.71 569.827 2592.89 619.513 2603.88 668.41C2625.64 766.53 2646.82 861.634 2667.41 953.723C2708.4 1137.92 2746.54 1309.46 2781.4 1466.1C2850.99 1779.25 2907.36 2032.9 2946.33 2208.12C2956 2251.89 2964.63 2290.86 2972.14 2324.54C2975.83 2341.45 2979.1 2356.97 2982.44 2371.24C2983.97 2378.2 2985.71 2385.16 2986.76 2391.63C2987.8 2397.85 2987.8 2404.2 2986.76 2410.42C2985.17 2420.78 2980.9 2430.54 2974.37 2438.74C2969.62 2444.62 2963.84 2449.6 2957.32 2453.42C2953.31 2455.68 2949.06 2457.47 2944.65 2458.78L2940.27 2460.24Z" fill="#263238"/>
<g opacity="0.3">
<path d="M1673.48 2688.84L2889.33 2410.9L2850.92 2172.63L2781.96 2039.09L1618.86 2495.94L1673.48 2688.84Z" fill="black"/>
</g>
<g opacity="0.3">
<path d="M2181.13 470.988L2227.13 546.909L2236.04 587.201L2204.86 594.16L2181.13 470.988Z" fill="black"/>
</g>
<path d="M1170.29 780.099L1592.13 2672.9L2914.38 2378.27L2838.95 2039.79L2492.54 485.393L1170.29 780.099Z" fill="white"/>
<path d="M1170.29 780.1L2492.47 484.279H2493.58V485.462C2610.91 1011.48 2757.25 1667.91 2915.64 2378.27V2379.73H2914.24L1592.06 2674.3H1590.81V2672.97C1342.45 1555.24 1172.79 791.442 1170.22 780.169C1172.79 791.721 1343.56 1555.31 1593.39 2672.97L1591.79 2672L2913.97 2377.15L2912.85 2378.89C2754.68 1668.67 2608.47 1012.25 2491.36 486.089L2492.75 486.993L1170.29 780.1Z" fill="#263238"/>
<path d="M1542.62 554.882L2125.74 424.967C2137.14 422.426 2149.09 424.52 2158.95 430.786C2168.81 437.053 2175.78 446.98 2178.32 458.383L2212 609.58L1542.76 758.683L1509.1 607.623C1507.82 601.957 1507.67 596.095 1508.67 590.372C1509.66 584.65 1511.77 579.18 1514.89 574.279C1518.01 569.377 1522.06 565.14 1526.82 561.811C1531.58 558.482 1536.95 556.127 1542.62 554.882Z" fill="#263238"/>
<path d="M1903.12 398.061L1732.84 435.986L1785.24 577.529L1913.49 548.928L1903.12 398.061Z" fill="#263238"/>
<path d="M2125.74 424.851C2125.74 425.616 1995.54 455.331 1834.58 491.238C1673.62 527.146 1542.87 555.747 1542.66 554.981C1542.45 554.216 1672.86 524.501 1833.95 488.594C1995.05 452.686 2125.32 424.294 2125.74 424.851Z" fill="#455A64"/>
<path d="M1550.94 724.081C1550.17 724.081 1543.42 696.941 1535.91 663.121C1528.39 629.301 1522.83 601.675 1523.66 601.466C1524.5 601.257 1531.18 628.606 1538.69 662.495C1546.21 696.385 1551.7 724.081 1550.94 724.081Z" fill="#455A64"/>
<path d="M2180.09 568.482C2174.5 550.176 2169.85 531.595 2166.17 512.811C2161.56 494.453 2157.89 475.872 2155.17 457.141C2160.75 475.332 2165.4 493.797 2169.09 512.463C2173.71 530.937 2177.38 549.634 2180.09 568.482Z" fill="#455A64"/>
<path d="M2153.57 601.536C2153.57 602.302 2019.89 632.781 1854.69 669.594C1689.49 706.406 1555.46 735.703 1555.11 734.868C1554.77 734.032 1688.72 703.622 1854.34 666.81C2019.96 629.998 2153.16 600.771 2153.57 601.536Z" fill="#455A64"/>
<path d="M1801.39 1152.12C1801.39 1152.96 1711.27 1173.69 1599.58 1198.61C1487.89 1223.52 1397.77 1242.93 1397.29 1242.17C1396.8 1241.4 1487.75 1220.6 1599.09 1195.75C1710.43 1170.91 1801.18 1151.35 1801.39 1152.12Z" fill="#263238"/>
<path d="M2474.38 1076.34C2474.38 1077.17 2238.68 1130.41 1947.59 1195.26C1656.5 1260.12 1420.25 1312.1 1420.11 1311.34C1419.97 1310.57 1655.74 1257.27 1946.97 1192.41C2238.19 1127.55 2474.24 1075.57 2474.38 1076.34Z" fill="#263238"/>
<path d="M2488.92 1141.61C2488.92 1142.38 2253.16 1195.61 1962.07 1260.54C1670.98 1325.46 1434.8 1377.38 1434.59 1376.54C1434.38 1375.71 1670.28 1322.54 1961.44 1257.69C2252.6 1192.83 2488.71 1140.64 2488.92 1141.61Z" fill="#263238"/>
<path d="M2503.39 1206.47C2503.39 1207.23 2267.7 1260.47 1976.61 1325.32C1685.52 1390.18 1449.27 1442.23 1449.06 1441.4C1448.85 1440.56 1684.76 1387.4 1975.98 1322.47C2267.21 1257.55 2503.19 1205.7 2503.39 1206.47Z" fill="#263238"/>
<path d="M2517.87 1271.53C2517.87 1272.3 2282.17 1325.53 1991.08 1390.39C1700 1455.25 1463.74 1507.23 1463.6 1506.46C1463.47 1505.7 1699.23 1452.46 1990.46 1387.54C2281.69 1322.61 2517.73 1270.7 2517.87 1271.53Z" fill="#263238"/>
<path d="M2532.41 1336.46C2532.41 1337.29 2296.65 1390.53 2005.56 1455.39C1714.47 1520.24 1478.15 1572.29 1478.15 1571.53C1478.15 1570.76 1713.84 1517.53 2005 1452.6C2296.16 1387.68 2532.2 1335.76 2532.41 1336.46Z" fill="#263238"/>
<path d="M1682.53 1794.42C1682.25 1793.72 1682.04 1793 1681.9 1792.26L1680.37 1786.07C1679.05 1780.43 1677.17 1772.57 1674.87 1762.76C1670.21 1742.65 1663.67 1714.39 1655.88 1680.57L1657.41 1681.55L1543.28 1707.16C1543.28 1707.16 1545.37 1703.89 1544.4 1705.42V1705.9V1706.88L1544.81 1708.83L1545.72 1712.72L1547.39 1720.45C1548.57 1725.6 1549.69 1730.68 1550.8 1735.76C1553.03 1745.78 1555.25 1755.66 1557.34 1765.26C1561.59 1784.4 1565.55 1802.49 1569.24 1819.12L1567.71 1818.15L1650.17 1800.4L1673.62 1795.53L1679.89 1794.35L1682.11 1793.93C1682.11 1793.93 1681.56 1793.93 1680.16 1794.56L1674.25 1796.02L1651.28 1801.45L1568.61 1821.14H1567.36V1819.89L1555.25 1766.1C1553.1 1756.49 1550.87 1746.61 1548.29 1736.59C1547.18 1731.51 1546 1726.43 1544.88 1721.28C1544.26 1718.78 1543.7 1716.13 1543.14 1713.56L1542.24 1709.66L1541.82 1707.71V1706.74V1706.25V1705.9C1540.85 1707.5 1543.14 1703.82 1542.94 1704.16L1657.13 1678.9H1658.38V1680.16L1676.34 1763.66C1678.35 1773.4 1679.95 1781.2 1681.14 1786.77C1681.63 1789.27 1681.97 1791.22 1682.32 1792.82C1682.46 1793.34 1682.53 1793.88 1682.53 1794.42Z" fill="#263238"/>
<path d="M2530.82 1513.07L1734.62 1690.46L1749.42 1756.89L2545.62 1579.5L2530.82 1513.07Z" fill="#E0E0E0"/>
<path d="M1726.65 1992.47C1726.39 1991.74 1726.18 1991 1726.02 1990.24C1725.61 1988.64 1725.12 1986.55 1724.49 1984.05C1723.17 1978.41 1721.29 1970.62 1718.99 1960.81C1714.33 1940.63 1707.79 1912.09 1700 1878.55L1701.53 1879.53L1587.4 1905.13C1587.4 1905.55 1589.49 1901.86 1588.52 1903.46V1903.81V1904.3V1905.27L1588.93 1907.22L1589.84 1911.12C1590.4 1913.76 1590.95 1916.34 1591.58 1918.91L1594.92 1934.15C1597.15 1944.24 1599.37 1954.06 1601.46 1963.66C1605.7 1982.8 1609.67 2000.89 1613.36 2017.52L1611.83 2016.55L1694.36 1998.87L1717.74 1994L1724.01 1992.75C1724.73 1992.54 1725.48 1992.43 1726.23 1992.4L1724.35 1992.96L1718.37 1994.42L1695.4 1999.91L1612.39 2019.05H1611.13V2017.8L1599.02 1964.01C1596.87 1954.4 1594.64 1944.52 1592.07 1934.5C1590.95 1929.49 1589.77 1924.34 1588.66 1919.26C1588.1 1916.69 1587.47 1914.11 1586.92 1911.47L1586.01 1907.57L1585.59 1905.62V1904.65V1903.81L1586.71 1902L1700.83 1877.09H1702.08V1878.27C1709.46 1912.58 1716 1940.9 1720.04 1961.78C1722.06 1971.52 1723.66 1979.32 1724.84 1984.88C1725.33 1987.39 1725.68 1989.34 1726.02 1990.94C1726.3 1991.42 1726.51 1991.93 1726.65 1992.47Z" fill="#263238"/>
<path d="M2574.9 1711.13L1778.71 1888.51L1793.51 1954.94L2589.7 1777.56L2574.9 1711.13Z" fill="#E0E0E0"/>
<path d="M1770.77 2190.45C1770.77 2190.45 1770.77 2189.61 1770.14 2188.22C1769.52 2186.83 1769.24 2184.53 1768.61 2182.03C1767.29 2176.39 1765.41 2168.6 1763.11 2158.79C1758.45 2138.67 1751.91 2110.07 1744.12 2076.53L1745.65 2077.51L1631.24 2103.12C1631.24 2103.53 1633.33 2099.84 1632.36 2101.44V2101.93V2102.42V2103.39L1632.77 2105.34L1633.68 2109.24C1634.24 2111.88 1634.79 2114.46 1635.42 2117.03L1638.76 2132.27C1640.99 2142.36 1643.21 2152.17 1645.3 2161.78L1657.2 2215.64L1655.67 2214.73L1738.2 2196.99L1761.58 2192.12L1767.85 2190.87C1768.59 2190.78 1769.33 2190.78 1770.07 2190.87L1768.19 2191.42L1762.21 2192.88L1739.24 2198.38L1656.23 2217.52H1654.97V2216.27C1651.29 2199.7 1647.18 2181.47 1642.86 2162.47C1640.71 2152.87 1638.48 2143.06 1635.91 2132.97C1634.79 2127.96 1633.61 2122.88 1632.5 2117.73C1631.94 2115.15 1631.31 2112.58 1630.76 2110L1629.92 2106.11L1629.43 2104.16V2103.12V2101.93C1628.46 2103.46 1630.76 2099.77 1630.55 2100.19L1744.74 2074.93H1745.99V2076.18L1763.95 2159.69C1765.97 2169.43 1767.57 2177.23 1768.75 2182.86C1769.24 2185.3 1769.65 2187.25 1769.93 2188.85C1770.28 2189.34 1770.57 2189.88 1770.77 2190.45Z" fill="#263238"/>
<path d="M2619.07 1909.18L1822.88 2086.56L1837.68 2152.99L2633.87 1975.61L2619.07 1909.18Z" fill="#E0E0E0"/>
<path d="M1572.86 1753.57L1584.83 1734.71L1620.39 1754.48L1666.18 1685.45L1683.85 1697.69L1624.84 1784.68L1572.86 1753.57Z" fill="#90CAF9"/>
<path d="M1615.52 1944.94L1627.49 1926.08L1663.05 1945.84L1708.77 1876.81L1726.51 1889.06L1667.43 1975.98L1615.52 1944.94Z" fill="#90CAF9"/>
<path d="M1659.29 2141.11L1671.26 2122.32L1706.75 2142.08L1752.54 2073.05L1770.21 2085.23L1711.2 2172.22L1659.29 2141.11Z" fill="#90CAF9"/>
<path d="M2023.72 2387.24C2023.72 2388.08 1956.64 2403.74 1873.55 2422.04C1790.46 2440.34 1722.96 2454.88 1722.82 2454.12C1722.68 2453.35 1789.84 2437.69 1872.92 2419.32C1956.01 2400.95 2023.51 2386.55 2023.72 2387.24Z" fill="#263238"/>
<path d="M2173.62 2351.47C2155.45 2357.07 2137.01 2361.72 2118.36 2365.39C2100 2369.96 2081.42 2373.61 2062.69 2376.32C2080.84 2370.74 2099.25 2366.09 2117.87 2362.4C2148.42 2355.65 2173.48 2350.71 2173.62 2351.47Z" fill="#263238"/>
<path d="M2670.06 2195.25C2670.06 2196.01 2609.73 2210.21 2534.99 2226.84C2460.25 2243.47 2399.43 2256.35 2399.29 2255.58C2399.15 2254.82 2459.55 2240.69 2534.36 2223.99C2609.17 2207.29 2669.92 2194.48 2670.06 2195.25Z" fill="#263238"/>
<path d="M2605.48 2378.41C2605.48 2378.41 2606.11 2376.53 2606.8 2372.91C2607.72 2367.56 2607.44 2362.06 2605.97 2356.83C2603.49 2348.56 2600.28 2340.52 2596.37 2332.83C2590.82 2322.61 2587.56 2311.31 2586.83 2299.7C2587 2292.56 2588.65 2285.54 2591.7 2279.08C2594.74 2272.62 2599.11 2266.87 2604.51 2262.19C2610.84 2256.94 2618.41 2253.39 2626.5 2251.9C2634.58 2250.4 2642.92 2251 2650.71 2253.63C2659.27 2256.24 2666.9 2261.24 2672.7 2268.04C2675.79 2271.7 2677.62 2276.27 2677.92 2281.05C2678 2283.63 2677.25 2286.16 2675.79 2288.27C2674.32 2290.39 2672.22 2291.98 2669.78 2292.81C2665.23 2294.29 2660.58 2295.43 2655.86 2296.22L2641.95 2299.08C2632.62 2300.95 2623.16 2302.62 2613.41 2303.88C2594.55 2306.6 2575.39 2306.72 2556.49 2304.23C2547.95 2302.39 2539.03 2303.83 2531.51 2308.26C2525.53 2314.29 2520.47 2321.16 2516.48 2328.65C2514.05 2332.34 2510.69 2335.32 2506.74 2337.28C2502.71 2339.06 2498.17 2339.26 2494 2337.84C2486.84 2334.65 2480.03 2330.73 2473.68 2326.15C2470.73 2324.19 2467.38 2322.92 2463.87 2322.46C2460.59 2322.09 2457.28 2322.91 2454.54 2324.75C2449.73 2329.16 2445.75 2334.39 2442.78 2340.2C2439.62 2345.19 2435.29 2349.34 2430.18 2352.29C2425.07 2355.25 2419.32 2356.93 2413.42 2357.18C2404.49 2357.54 2395.77 2354.45 2389.06 2348.55C2384.85 2344.91 2381.53 2340.33 2379.39 2335.19C2378.64 2333.43 2378.1 2331.58 2377.79 2329.69C2377.79 2329.69 2378.41 2331.57 2379.95 2334.98C2382.2 2339.9 2385.56 2344.24 2389.76 2347.65C2396.3 2353.19 2404.71 2356.03 2413.28 2355.58C2418.91 2355.29 2424.38 2353.64 2429.23 2350.77C2434.08 2347.89 2438.16 2343.89 2441.11 2339.09C2444.17 2333 2448.33 2327.53 2453.36 2322.94C2456.53 2320.74 2460.37 2319.73 2464.22 2320.09C2468.02 2320.66 2471.67 2322.01 2474.93 2324.06C2481.18 2328.48 2487.85 2332.28 2494.84 2335.4C2498.41 2336.6 2502.31 2336.43 2505.76 2334.91C2509.3 2333.16 2512.27 2330.43 2514.32 2327.05C2518.46 2319.36 2523.71 2312.32 2529.91 2306.17C2533.76 2303.42 2538.28 2301.74 2542.99 2301.3C2547.62 2300.81 2552.28 2300.81 2556.91 2301.3C2575.6 2303.72 2594.54 2303.61 2613.21 2300.95C2622.81 2299.7 2632.2 2297.96 2641.53 2296.15L2655.45 2293.37C2659.91 2292.54 2664.33 2291.45 2668.67 2290.1C2670.57 2289.49 2672.23 2288.28 2673.39 2286.65C2674.54 2285.02 2675.13 2283.05 2675.07 2281.05C2674.75 2276.89 2673.15 2272.92 2670.48 2269.71C2664.99 2263.18 2657.74 2258.35 2649.6 2255.79C2642.22 2253.29 2634.32 2252.7 2626.65 2254.09C2618.98 2255.47 2611.79 2258.79 2605.76 2263.73C2600.57 2268.14 2596.37 2273.59 2593.42 2279.73C2590.48 2285.86 2588.85 2292.55 2588.64 2299.35C2589.27 2310.7 2592.3 2321.78 2597.55 2331.85C2601.4 2339.66 2604.5 2347.81 2606.8 2356.21C2608.16 2361.58 2608.28 2367.2 2607.15 2372.63C2606.82 2374.62 2606.26 2376.55 2605.48 2378.41Z" fill="#263238"/>
<path d="M2749.32 2289.33C2748.15 2289.81 2746.94 2290.18 2745.7 2290.45L2735.12 2292.95L2696.29 2301.93C2663.59 2309.58 2618.35 2320.3 2568.6 2332.9C2518.84 2345.49 2473.96 2357.67 2441.6 2366.58L2403.19 2377.15L2392.68 2379.94C2391.47 2380.31 2390.24 2380.59 2388.99 2380.77C2390.11 2380.16 2391.3 2379.69 2392.54 2379.38L2402.84 2376.11C2411.82 2373.26 2424.83 2369.15 2440.97 2364.63C2473.33 2355.16 2518.08 2342.71 2567.9 2329.83C2617.73 2316.96 2662.96 2306.8 2695.88 2299.77C2712.3 2296.22 2725.66 2293.44 2734.92 2291.63L2745.56 2289.61C2746.8 2289.41 2748.06 2289.31 2749.32 2289.33Z" fill="#263238"/>
<path d="M2178.54 762.407L1638.08 882.818L1660.7 984.363L2201.16 863.951L2178.54 762.407Z" fill="#E0E0E0"/>
<path d="M2689.82 2410.28L2864.42 3332.74L3023.98 3037.89L3326.42 3215.41L3005.4 2317.17L2689.82 2410.28Z" fill="#90CAF9"/>
<g opacity="0.3">
<path d="M2748.55 2720.5C2765.18 2723.63 2782.31 2722.68 2798.48 2717.72C2814.65 2712.76 2829.38 2703.95 2841.39 2692.04C2857.32 2675.62 2867.9 2653.21 2887.94 2642.22C2905.96 2632.33 2928.16 2633.73 2947.99 2639.22C2967.83 2644.72 2986.48 2653.84 3006.31 2658.99C3025.88 2663.97 3046.24 2665.02 3066.22 2662.05C3086.2 2659.09 3105.38 2652.18 3122.66 2641.73L3072.28 2501.86L2838.46 2472.63L2727.12 2606.59L2748.55 2720.5Z" fill="black"/>
</g>
<path d="M3012.64 3001.29C3011.67 3001.29 2985.64 2905.68 2954.54 2787.31C2923.43 2668.94 2898.86 2572.63 2899.98 2572.42C2901.09 2572.21 2926.91 2667.89 2958.01 2786.4C2989.12 2904.91 3013.62 3001.01 3012.64 3001.29Z" fill="#263238"/>
<path d="M2715.36 2458.22L2540.76 3380.69L2381.2 3085.91L2078.77 3263.36L2399.78 2365.11L2715.36 2458.22Z" fill="#90CAF9"/>
<g opacity="0.3">
<path d="M2303.75 2633.8C2303.75 2633.8 2353.43 2674.64 2412.65 2655.85C2471.87 2637.07 2508.68 2633.03 2540.76 2655.85C2572.84 2678.68 2659.62 2752.93 2659.62 2752.93L2679.73 2646.53L2563.17 2486.48L2441.53 2511.04L2354.96 2519.46L2322.74 2580.49L2303.75 2633.8Z" fill="black"/>
</g>
<path d="M3739.07 1625.53C3739.07 1691.71 3654.53 1748.7 3642.14 1811.26C3629.4 1875.7 3685.49 1960.67 3660.93 2020.03C3636.36 2079.39 3535.67 2100.68 3499.97 2154.33C3464.27 2207.98 3483.06 2308.47 3437.34 2354.26C3391.62 2400.05 3291.2 2380.77 3237.41 2416.89C3183.62 2453 3163.44 2552.79 3103.11 2577.85C3043.82 2602.41 2958.85 2546.32 2894.34 2559.06C2831.71 2571.44 2774.79 2655.99 2708.61 2655.99C2642.43 2655.99 2585.37 2571.44 2522.81 2559.06C2458.37 2546.32 2373.4 2602.41 2314.04 2577.85C2254.69 2553.28 2233.46 2452.59 2179.81 2416.89C2126.16 2381.19 2025.67 2399.98 1979.81 2354.26C1933.95 2308.54 1953.3 2208.12 1917.18 2154.33C1881.07 2100.54 1781.28 2080.36 1756.29 2020.03C1731.31 1959.69 1787.82 1875.77 1775.08 1811.26C1762.7 1748.63 1678.08 1691.71 1678.08 1625.53C1678.08 1559.35 1762.7 1502.29 1775.08 1439.73C1787.82 1375.29 1731.66 1290.32 1756.29 1230.96C1780.93 1171.6 1881.55 1150.31 1917.18 1096.73C1952.81 1043.14 1934.09 942.589 1979.81 896.73C2025.53 850.872 2125.95 870.217 2179.81 834.101C2233.67 797.984 2253.71 698.195 2314.04 673.212C2374.38 648.23 2458.3 704.736 2522.81 692.001C2585.44 679.615 2642.43 594.995 2708.61 594.995C2774.79 594.995 2831.78 679.615 2894.34 692.001C2958.78 704.736 3043.75 648.578 3103.11 673.212C3163.44 698.195 3183.76 798.472 3237.41 834.101C3291.07 869.73 3391.55 851.011 3437.34 896.73C3483.13 942.45 3463.85 1042.87 3499.97 1096.73C3536.09 1150.59 3635.88 1170.63 3660.93 1230.96C3685.98 1291.3 3629.4 1375.22 3642.14 1439.73C3654.53 1502.29 3739.07 1559.14 3739.07 1625.53Z" fill="#90CAF9"/>
<path d="M2467.49 1047.88C2467.49 1047.88 2466.72 1046.97 2465.61 1045.02C2464.49 1043.07 2462.75 1039.94 2460.88 1036.53C2456.77 1029.16 2451.13 1018.3 2444.45 1004.8C2431.02 977.801 2413.62 939.805 2396.85 896.939C2380.08 854.072 2367.21 814.268 2358.79 785.597C2354.61 771.053 2351.41 759.293 2349.39 750.803C2348.49 747.045 2347.72 743.844 2347.17 741.339C2346.81 740.262 2346.62 739.135 2346.61 737.999C2347.15 739.014 2347.57 740.088 2347.86 741.2L2350.72 750.455C2353.43 759.015 2356.98 770.566 2361.22 784.554C2370.27 813.294 2383.56 852.75 2400.19 895.895C2416.83 939.04 2433.94 976.687 2446.75 1003.97L2462.13 1036.19L2466.23 1044.95C2466.74 1045.89 2467.16 1046.87 2467.49 1047.88Z" fill="#263238"/>
<path d="M2559.2 1013.01C2557.99 1010.58 2557.07 1008.01 2556.49 1005.36C2555.03 1000.35 2553.08 993.041 2550.78 983.995C2546.19 965.971 2540.48 940.78 2535.34 912.806C2530.19 884.831 2526.57 859.292 2524.48 840.782C2523.37 831.527 2522.67 824.011 2522.25 818.792C2521.93 816.111 2521.93 813.401 2522.25 810.72C2523.05 813.303 2523.59 815.961 2523.85 818.653L2527.19 840.434C2529.98 858.875 2534.15 884.275 2539.09 912.18C2544.03 940.085 2549.53 965.276 2553.43 983.438C2555.31 991.928 2556.84 999.165 2558.09 1005.01C2558.73 1007.63 2559.1 1010.32 2559.2 1013.01Z" fill="#263238"/>
<path d="M2721 996.937C2719.95 996.937 2717.38 918.859 2715.22 822.618C2713.06 726.378 2712.09 648.23 2713.06 648.16C2714.04 648.091 2716.68 726.169 2718.84 822.549C2721 918.929 2721.97 996.937 2721 996.937Z" fill="#263238"/>
<path d="M2883.83 836.537C2884.81 836.537 2873.54 875.854 2858.71 923.731C2843.89 971.608 2830.88 1010.09 2830.18 1009.81C2829.49 1009.53 2840.48 970.494 2855.3 922.617C2870.13 874.741 2882.79 836.258 2883.83 836.537Z" fill="#263238"/>
<path d="M2950.22 1038.27C2950.36 1037.12 2950.66 1036 2951.13 1034.93L2954.26 1025.75C2957.04 1017.81 2961.22 1006.4 2966.78 992.344C2977.71 964.509 2993.3 925.609 3011.11 883.16C3028.93 840.711 3045.49 802.507 3057.67 774.95C3063.65 761.589 3068.59 750.594 3072.35 742.383L3076.45 733.614C3077.5 731.666 3078.06 730.622 3078.19 730.692C3077.94 731.787 3077.59 732.858 3077.15 733.893L3073.6 742.939L3060.03 775.994C3048.13 804.247 3032.2 842.381 3014.45 884.621C2996.71 926.861 2980.98 964.996 2969.15 993.318L2955.58 1026.3L2951.75 1035.21C2951.37 1036.29 2950.86 1037.32 2950.22 1038.27Z" fill="#263238"/>
<path d="M3036.93 1083.64C3037.99 1081.18 3039.32 1078.85 3040.9 1076.68C3043.68 1072.23 3047.85 1065.9 3053 1058.17C3063.44 1042.79 3078.47 1021.78 3095.94 999.372C3113.41 976.964 3130.18 957.619 3142.56 943.701C3148.76 936.742 3153.91 931.245 3157.53 927.487C3159.27 925.402 3161.25 923.533 3163.44 921.92C3162.09 924.294 3160.46 926.491 3158.57 928.461C3154.81 933.054 3150.08 938.691 3144.65 945.371C3132.75 959.706 3116.4 979.539 3098.93 1001.95C3081.47 1024.35 3066.23 1045.02 3055.23 1060.05L3042.22 1077.8C3040.66 1079.93 3038.89 1081.88 3036.93 1083.64Z" fill="#263238"/>
<path d="M3163.72 1187.33C3163.02 1186.63 3218.14 1134.3 3286.68 1070.49C3355.23 1006.68 3411.45 955.532 3411.94 956.228C3412.43 956.924 3357.59 1009.32 3288.98 1073.14C3220.36 1136.95 3164.41 1188.1 3163.72 1187.33Z" fill="#263238"/>
<path d="M3384.87 1208.97C3378.16 1213.22 3371.19 1217.03 3363.99 1220.39C3350.91 1227.35 3333.17 1237.02 3313.54 1248.22C3293.92 1259.43 3275.82 1268.75 3262.39 1275.01C3255.44 1278.14 3250.29 1280.58 3246.39 1281.97C3244.49 1282.96 3242.45 1283.67 3240.33 1284.06C3247.04 1279.82 3254.02 1276 3261.21 1272.65C3274.29 1265.69 3292.04 1256.02 3311.66 1244.81C3331.29 1233.61 3349.38 1223.94 3362.81 1218.02C3369.77 1214.89 3374.92 1212.45 3378.82 1211.06C3380.71 1210.04 3382.75 1209.34 3384.87 1208.97Z" fill="#263238"/>
<path d="M3589.39 1293.8C3589.74 1294.78 3524.19 1318.71 3443.25 1347.32C3362.32 1375.92 3296.01 1398.25 3295.73 1397.35C3295.45 1396.44 3360.86 1372.44 3441.86 1343.84C3522.86 1315.24 3589.04 1292.9 3589.39 1293.8Z" fill="#263238"/>
<path d="M3654.53 1665.89C3654.53 1666.87 3583.2 1660.95 3495.45 1652.6C3407.7 1644.25 3336.58 1636.66 3336.72 1635.62C3336.85 1634.58 3407.97 1640.63 3495.79 1648.98C3583.61 1657.33 3654.59 1664.92 3654.53 1665.89Z" fill="#263238"/>
<path d="M3602.13 1999.64C3601.71 2000.54 3535.11 1969.92 3453.42 1931.37C3371.72 1892.82 3305.82 1860.74 3306.24 1859.83C3306.65 1858.93 3373.25 1889.48 3454.95 1928.1C3536.64 1966.72 3602.54 1998.73 3602.13 1999.64Z" fill="#263238"/>
<path d="M3383.06 2317.17C3382.3 2317.79 3334.35 2262.05 3275.83 2192.74C3217.3 2123.43 3170.54 2066.58 3171.44 2065.95C3172.35 2065.33 3220.15 2121 3278.68 2190.38C3337.2 2259.76 3383.83 2316.47 3383.06 2317.17Z" fill="#263238"/>
<path d="M3200.18 2359.41C3198.02 2357 3196.08 2354.39 3194.41 2351.61C3190.86 2346.47 3185.85 2338.88 3179.86 2329.49C3167.75 2310.63 3151.54 2284.25 3134.42 2254.68C3117.3 2225.1 3102.69 2197.82 3092.67 2178.13C3087.59 2168.18 3083.48 2160.11 3080.84 2154.47C3079.27 2151.61 3077.96 2148.6 3076.94 2145.49C3078.91 2148.09 3080.63 2150.86 3082.09 2153.78C3085.43 2159.9 3089.75 2167.69 3094.96 2176.95C3105.75 2196.5 3120.78 2223.5 3137.83 2253.08C3154.88 2282.65 3170.75 2309.17 3182.3 2328.3C3187.73 2337.49 3192.32 2345.07 3195.87 2351.06C3197.61 2353.67 3199.06 2356.47 3200.18 2359.41Z" fill="#263238"/>
<path d="M3086.61 2518.77C3086.61 2518.77 3085.92 2517.86 3084.8 2515.91L3080.28 2507.42C3076.32 2499.98 3070.96 2489.12 3064.55 2475.62C3051.75 2448.55 3035.26 2410.56 3019.6 2367.55C3003.94 2324.55 2992.11 2284.88 2984.81 2256.21C2980.98 2241.74 2977.85 2229.91 2976.32 2221.76C2975.55 2218.01 2974.92 2214.8 2974.37 2212.3C2974.09 2211.21 2973.93 2210.09 2973.88 2208.96C2974.45 2209.95 2974.85 2211.03 2975.06 2212.16L2977.71 2221.42C2980.14 2230.04 2983.34 2241.53 2987.24 2255.51C2995.45 2284.25 3007.63 2323.78 3023.29 2366.86C3038.95 2409.93 3054.95 2447.72 3067.2 2475.06L3081.81 2507.28C3083.34 2510.76 3084.67 2513.69 3085.78 2516.05C3086.17 2516.92 3086.45 2517.83 3086.61 2518.77Z" fill="#263238"/>
<path d="M2856.56 2406.8C2855.05 2398.8 2854.05 2390.71 2853.56 2382.58C2851.96 2367.62 2849.39 2346.95 2845.63 2324.33C2841.87 2301.72 2837.49 2281.4 2834.15 2266.72C2831.96 2258.85 2830.29 2250.86 2829.14 2242.78C2830.17 2244.71 2830.97 2246.77 2831.5 2248.9C2832.9 2252.94 2834.64 2258.78 2836.65 2266.09C2840.62 2280.63 2845.35 2300.88 2849.18 2323.78C2852.51 2343.18 2854.83 2362.73 2856.14 2382.37C2856.63 2389.89 2856.9 2396.29 2856.9 2400.26C2857.08 2402.44 2856.97 2404.64 2856.56 2406.8Z" fill="#263238"/>
<path d="M2706.04 2607.14C2705.87 2605.97 2705.87 2604.77 2706.04 2603.59C2706.04 2600.81 2706.04 2597.4 2706.04 2593.36C2706.04 2584.46 2706.04 2571.58 2706.04 2555.72C2706.59 2523.91 2708.05 2480.07 2710.56 2431.71C2713.06 2383.35 2716.2 2339.51 2718.77 2307.84C2720.02 2291.98 2721.21 2279.17 2722.11 2270.33C2722.6 2266.3 2722.95 2262.89 2723.22 2260.17C2723.31 2258.97 2723.54 2257.77 2723.92 2256.63C2724.08 2257.83 2724.08 2259.04 2723.92 2260.24C2723.92 2262.96 2723.92 2266.37 2723.43 2270.47C2722.88 2279.87 2722.18 2292.53 2721.28 2307.98C2719.4 2340.2 2716.89 2383.76 2714.32 2431.85C2711.74 2479.94 2709.93 2524.05 2708.75 2555.79C2708.19 2571.24 2707.71 2583.62 2707.36 2593.36C2707.36 2597.47 2706.94 2600.81 2706.8 2603.59C2706.72 2604.81 2706.47 2606 2706.04 2607.14Z" fill="#263238"/>
<path d="M2583.7 2256.63C2583.65 2262.62 2582.95 2268.6 2581.61 2274.44C2579.8 2285.3 2576.88 2300.26 2573.05 2316.61C2569.22 2332.96 2565.19 2347.72 2561.99 2358.36C2560.6 2364.18 2558.57 2369.83 2555.93 2375.2C2556.55 2369.26 2557.74 2363.39 2559.48 2357.67L2569.5 2315.92C2573.12 2300.26 2576.46 2286.06 2579.11 2274.16C2580.07 2268.18 2581.61 2262.31 2583.7 2256.63Z" fill="#263238"/>
<path d="M2362.48 2150.64C2353.36 2165.72 2343.2 2180.13 2332.07 2193.79C2321.86 2208.16 2310.72 2221.85 2298.74 2234.78C2307.83 2219.69 2318 2205.27 2329.15 2191.63C2339.31 2177.23 2350.45 2163.53 2362.48 2150.64Z" fill="#263238"/>
<path d="M2246.47 2072.43C2247.17 2073.05 2204.02 2123.78 2150.02 2185.65C2096.02 2247.51 2051.56 2296.99 2050.79 2296.5C2050.03 2296.01 2093.24 2245.14 2147.24 2183.28C2201.24 2121.42 2245.71 2071.73 2246.47 2072.43Z" fill="#263238"/>
<path d="M2188.37 1986.07C2171.3 2002.53 2153.39 2018.09 2134.71 2032.69C2104.44 2057.6 2079.39 2077.23 2079.04 2076.46C2096.12 2060.04 2114.03 2044.5 2132.7 2029.91C2150.51 2014.37 2169.09 1999.74 2188.37 1986.07Z" fill="#263238"/>
<path d="M2120.45 1855.87C2120.87 1856.77 2060.74 1886.69 1986.07 1922.6C1911.41 1958.51 1850.66 1986.97 1850.17 1986.07C1849.68 1985.16 1909.87 1955.31 1984.54 1919.33C2059.21 1883.35 2120.03 1854.96 2120.45 1855.87Z" fill="#263238"/>
<path d="M2093.17 1790.94C2091.17 1791.82 2089.07 1792.43 2086.91 1792.75C2082.8 1793.73 2076.89 1794.98 2069.58 1796.3C2054.9 1799.08 2034.44 1802.15 2011.75 1804.44C1989.07 1806.74 1968.4 1807.71 1953.44 1807.92C1945.99 1807.92 1939.94 1807.92 1935.76 1807.92C1933.58 1808.06 1931.4 1807.85 1929.29 1807.29C1937.27 1806.2 1945.31 1805.57 1953.37 1805.42C1968.26 1804.51 1988.79 1803.12 2011.4 1800.82C2034.02 1798.53 2054.41 1795.88 2069.16 1793.86C2077.09 1792.32 2085.11 1791.35 2093.17 1790.94Z" fill="#263238"/>
<path d="M2071.11 1640.98C2067.06 1641.31 2062.99 1641.31 2058.93 1640.98L2025.81 1639.31C1997.97 1637.92 1959.28 1636.66 1916.63 1636.87C1873.97 1637.08 1835.28 1638.82 1807.37 1640.49L1774.32 1642.51C1770.28 1642.97 1766.2 1643.11 1762.14 1642.93C1766.09 1641.98 1770.12 1641.37 1774.18 1641.12C1781.97 1640.21 1793.25 1639.1 1807.16 1637.92C1835 1635.62 1873.83 1633.53 1916.56 1633.25C1959.28 1632.98 1998.04 1634.72 2026.02 1636.73C2039.94 1637.78 2051.28 1638.75 2059.07 1639.59C2063.11 1639.77 2067.14 1640.23 2071.11 1640.98Z" fill="#263238"/>
<path d="M2084.75 1509.32C2084.75 1510.29 2039.45 1498.53 1984.13 1483.08C1928.8 1467.63 1884.2 1454.41 1884.48 1453.44C1884.75 1452.46 1929.78 1464.15 1985.1 1479.6C2040.42 1495.05 2085.03 1508.34 2084.75 1509.32Z" fill="#263238"/>
<path d="M2113.91 1399.09C2112.79 1399.02 2111.69 1398.79 2110.64 1398.39L2101.38 1395.61C2093.45 1393.1 2081.97 1389.21 2067.98 1384.13C2031.43 1370.71 1995.61 1355.38 1960.67 1338.2C1925.75 1321 1891.76 1301.95 1858.87 1281.14C1846.27 1273.13 1836.18 1266.45 1829.36 1261.65L1821.57 1256.01C1819.83 1254.69 1818.92 1254 1818.99 1253.86C1820.05 1254.28 1821.05 1254.82 1821.99 1255.46L1830.2 1260.47C1837.16 1264.92 1847.45 1271.25 1860.19 1278.98C1885.73 1294.43 1921.5 1314.82 1962.28 1334.65C2003.05 1354.48 2041.05 1370.63 2068.88 1381.48C2082.8 1386.84 2094.01 1391.09 2101.87 1394.01L2110.85 1397.42C2111.91 1397.89 2112.94 1398.45 2113.91 1399.09Z" fill="#263238"/>
<path d="M2179.39 1287.75C2178.84 1288.51 2143.62 1264.71 2100.76 1234.51C2057.89 1204.31 2023.58 1179.19 2024.21 1178.36C2024.84 1177.52 2059.98 1201.39 2102.91 1231.59C2145.85 1261.79 2179.95 1287.12 2179.39 1287.75Z" fill="#263238"/>
<path d="M2040.98 949.687C2040.98 949.687 2041.95 950.243 2043.62 951.565L2050.58 957.689L2076.26 980.375L2160.53 1055.6L2245.15 1130.41L2270.76 1153.16L2277.72 1159.5C2278.56 1160.19 2279.31 1160.98 2279.95 1161.86C2279.95 1161.86 2278.97 1161.37 2277.23 1160.05L2270.27 1154.28C2263.94 1149.2 2254.96 1141.68 2243.9 1132.36C2221.77 1113.71 2191.57 1087.61 2158.51 1058.31C2125.46 1029.02 2095.89 1002.02 2075.01 982.254C2064.43 972.372 2055.94 964.37 2050.1 958.663L2043.49 952.122C2041.82 950.591 2040.84 949.756 2040.98 949.687Z" fill="#263238"/>
<path d="M2258.03 956.02C2258.03 956.02 2259.9 957.55 2262.76 960.821C2265.61 964.092 2269.72 968.893 2274.52 974.739C2284.19 986.847 2297.06 1003.97 2310.43 1023.45C2323.79 1042.94 2334.99 1061.17 2342.71 1074.6C2346.61 1081.56 2349.67 1086.78 2351.62 1090.6C2352.83 1092.51 2353.76 1094.57 2354.41 1096.73C2349.3 1090.09 2344.66 1083.11 2340.49 1075.85C2332.21 1062.77 2320.65 1044.88 2307.36 1025.4C2294.07 1005.91 2281.55 988.726 2272.57 976.27C2267.32 969.815 2262.47 963.053 2258.03 956.02Z" fill="#263238"/>
<g opacity="0.2">
<path d="M1979.88 896.8L2282.66 1161.86L2357.88 1101.67L2182.24 832.5C2182.24 832.5 2168.74 842.382 2133.53 852.402C2099.92 862.075 2000.06 864.65 1979.88 896.8Z" fill="black"/>
</g>
<g opacity="0.2">
<path d="M2316.9 672.585L2464.7 1042.59L2559.2 1013.01L2527.68 692.07C2527.68 692.07 2511.47 695.898 2475.35 691.305C2440.35 686.851 2355.52 653.657 2316.9 672.585Z" fill="black"/>
</g>
<g opacity="0.3">
<path d="M2711.05 595.133L2721 996.937L2809.51 1001.18L2899.14 692.766C2880.52 689.068 2862.81 681.738 2847.02 671.193C2816.4 651.569 2753.91 591.863 2711.05 595.133Z" fill="black"/>
</g>
<g opacity="0.2">
<path d="M3097.12 671.054L2950.22 1041.47L3029.97 1079.68L3232.12 830.133C3216.93 817.306 3203.97 802.044 3193.78 784.97C3174.71 754.142 3141.87 683.371 3097.12 671.054Z" fill="black"/>
</g>
<g opacity="0.2">
<path d="M3442.14 902.158L3168.52 1187.47L3229.48 1269.65L3496.84 1091.23C3488.03 1075.01 3482.08 1057.41 3479.23 1039.18C3472.83 1004.38 3471.93 941.197 3442.14 902.158Z" fill="black"/>
</g>
<g opacity="0.2">
<path d="M3658.14 1224.07L3289.67 1375.71L3320.22 1469.86L3640.82 1435.07C3640.82 1435.07 3638.8 1425.18 3643.04 1389.07C3647.08 1354.07 3684.1 1275.85 3658.14 1224.07Z" fill="black"/>
</g>
<g opacity="0.2">
<path d="M3739.77 1625.53L3338.04 1639.45L3334.7 1728.03L3640.88 1817.66C3642.92 1804.91 3647.01 1792.57 3652.99 1781.13C3675.82 1738.54 3739.77 1678.42 3739.77 1625.53Z" fill="black"/>
</g>
<g opacity="0.2">
<path d="M3665.66 2005.34L3295.8 1861.22L3258.43 1941.88L3510.13 2141.11C3523.36 2128.44 3538 2117.33 3553.76 2107.98C3584.38 2088.43 3657.17 2056.77 3665.66 2005.34Z" fill="black"/>
</g>
<g opacity="0.2">
<path d="M3121.69 1999.64L3030.11 2076.18C3037.07 2083.14 3159.06 2290.79 3234.28 2418.98C3235.26 2418.13 3236.28 2417.34 3237.34 2416.61C3286.82 2383.49 3374.92 2396.78 3424.6 2364L3121.69 1999.64Z" fill="black"/>
<path d="M2953.42 2144.94L2816.75 2191.56L2881.47 2562.61C2885.67 2561.13 2889.97 2559.94 2894.34 2559.06C2958.78 2546.32 3043.75 2602.41 3103.11 2577.85C3111.23 2574.36 3118.79 2569.67 3125.51 2563.93L2953.42 2144.94Z" fill="black"/>
<path d="M2703.88 2655.85L2725.66 2171.1L2607.36 2141.11L2519.47 2558.64L2522.67 2559.2C2583.91 2571.1 2639.65 2651.68 2703.88 2655.85Z" fill="black"/>
<path d="M2406.74 2088.78C2406.74 2088.78 2250.58 2297.96 2168.88 2410.56C2172.66 2412.46 2176.33 2414.57 2179.88 2416.89C2233.53 2452.8 2253.78 2552.79 2314.11 2577.85C2316.9 2578.96 2319.75 2579.86 2322.6 2580.7L2540.76 2167.76L2406.74 2088.78Z" fill="black"/>
<path d="M2246.47 1920.38L1913.42 2149.25C1914.68 2150.92 1916.07 2152.52 1917.18 2154.26C1953.37 2208.26 1934.09 2308.4 1979.81 2354.19C1984.03 2358.34 1988.7 2362 1993.73 2365.11C2111.4 2232.48 2322.67 1994.35 2330.33 1986.07L2246.47 1920.38Z" fill="black"/>
<path d="M2170.14 1756.91L1776.34 1820.52C1782.67 1883.7 1732.84 1963.45 1756.29 2019.96C1757.71 2023.41 1759.41 2026.74 1761.37 2029.91C1899.16 1961.29 2187.05 1818.57 2199.02 1817.8L2170.14 1756.91Z" fill="black"/>
<path d="M2148.63 1537.57L1776.4 1430.19C1776.06 1433.4 1775.64 1436.6 1775.08 1439.73C1762.7 1502.36 1678.08 1559.35 1678.08 1625.53C1678.1 1629.94 1678.47 1634.33 1679.19 1638.68H2133.53L2148.63 1537.57Z" fill="black"/>
<path d="M1757.82 1228.11C1897 1302.64 2168.88 1453.44 2168.88 1453.44L2235.83 1326.3L1921.43 1089.7C1920.03 1092.13 1918.71 1094.64 1917.18 1096.66C1881.76 1149.47 1784.82 1170.07 1757.82 1228.11Z" fill="black"/>
</g>
<path d="M3739.07 1625.53L3738.66 1621.08C3738.49 1616.71 3737.89 1612.38 3736.85 1608.13C3732.8 1591.45 3725.72 1575.64 3715.97 1561.51C3704 1542.3 3685.91 1520.8 3667.26 1493.59C3656.73 1479.12 3648.64 1463.01 3643.32 1445.92C3638.79 1425.97 3638.79 1405.26 3643.32 1385.31C3647.22 1364.09 3653.55 1342.24 3659.05 1319.06C3664.55 1295.89 3669.7 1270.84 3664.55 1245.23C3661.63 1232.27 3655.69 1220.18 3647.22 1209.95C3638.13 1199.53 3627.74 1190.32 3616.32 1182.53C3593.22 1166.11 3566.63 1153.02 3541.24 1135.91C3528.1 1127.43 3516.16 1117.23 3505.74 1105.57C3495.52 1092.91 3488.1 1078.23 3483.96 1062.49C3475.06 1030.83 3473.04 997.007 3466.29 963.187C3463.34 945.967 3457.53 929.361 3449.1 914.058C3439.95 898.652 3426.06 886.617 3409.5 879.751C3392.42 872.885 3374.53 868.209 3356.27 865.833C3337.83 862.771 3318.9 860.614 3299.97 857.274C3280.58 854.477 3261.78 848.53 3244.3 839.668C3226.98 829.253 3212.3 814.961 3201.44 797.915C3189.88 781.353 3179.93 763.538 3169.35 745.932C3159.22 727.918 3147.08 711.11 3133.17 695.829C3118.83 680.37 3099.27 670.775 3078.26 668.898C3056.81 668.104 3035.35 670.616 3014.66 676.344C2993.78 681.424 2972.35 687.617 2950.43 691.723C2928.27 696.945 2905.16 696.514 2883.21 690.47C2861.81 682.077 2841.8 670.512 2823.85 656.163C2805.27 642.246 2787.18 628.328 2767.34 615.941C2747.51 603.555 2725.03 594.578 2701.65 597.222H2697.27C2695.81 597.222 2694.41 597.848 2693.02 598.127C2690.17 598.823 2687.25 599.31 2684.46 600.145C2678.86 601.928 2673.37 604.066 2668.04 606.547C2657.28 611.666 2646.94 617.647 2637.14 624.431C2617.38 638.349 2598.66 653.519 2578.34 667.298C2568.22 674.379 2557.51 680.573 2546.33 685.808C2534.87 690.935 2522.6 694.02 2510.07 694.924C2484.97 695.085 2459.97 691.545 2435.89 684.416C2411.65 677.495 2386.92 672.401 2361.92 669.176C2349.43 667.948 2336.83 668.794 2324.62 671.682C2312.46 675.063 2301.24 681.207 2291.85 689.635C2272.64 706.406 2259.28 728.953 2245.92 751.082C2233.3 774.254 2218.56 796.2 2201.87 816.634C2193.03 826.757 2182.42 835.177 2170.55 841.477C2158.44 847.204 2145.72 851.546 2132.63 854.421C2106.46 860.197 2079.74 862.632 2053.37 867.364C2026.99 872.096 2000.06 879.542 1980.99 898.053C1971.79 907.856 1964.69 919.435 1960.12 932.081C1955.51 944.836 1952.13 958.002 1950.03 971.399C1945.16 998.26 1943.07 1025.82 1936.11 1052.89C1933.12 1066.63 1928.12 1079.85 1921.29 1092.13C1914.08 1104.31 1904.64 1115 1893.45 1123.66C1871.46 1141.33 1846.48 1154.42 1822.54 1169.03C1810.55 1176.25 1799.04 1184.24 1788.09 1192.97C1777.21 1201.67 1768.05 1212.34 1761.09 1224.42C1754.47 1236.73 1751.11 1250.53 1751.35 1264.51C1751.6 1278.55 1753.25 1292.54 1756.29 1306.26C1762.14 1334.09 1770.98 1361.44 1775.71 1389.76C1778.51 1404.3 1779.08 1419.18 1777.38 1433.88C1775.4 1448.55 1770.68 1462.72 1763.46 1475.64C1748.92 1501.04 1729.99 1523.37 1713.22 1547.03C1704.61 1558.69 1697.1 1571.14 1690.81 1584.19C1683.92 1596.93 1680.31 1611.19 1680.31 1625.67C1680.31 1640.15 1683.92 1654.41 1690.81 1667.14C1697.09 1680.21 1704.6 1692.65 1713.22 1704.3C1729.99 1727.96 1748.92 1750.3 1763.46 1775.7C1770.55 1788.38 1775.27 1802.25 1777.38 1816.62C1779.15 1831.13 1778.68 1845.82 1775.99 1860.18C1771.32 1888.78 1762.49 1916.2 1756.57 1944.04C1753.56 1957.76 1751.9 1971.74 1751.63 1985.79C1751.36 1999.78 1754.69 2013.61 1761.3 2025.94C1768.2 2038.06 1777.34 2048.76 1788.23 2057.46C1799.18 2066.19 1810.69 2074.19 1822.68 2081.4C1846.62 2096.02 1871.39 2109.24 1893.66 2126.78C1904.83 2135.45 1914.27 2146.14 1921.5 2158.3C1928.38 2170.54 1933.38 2183.74 1936.32 2197.48C1942.86 2224.62 1945.09 2252.17 1950.24 2279.03C1952.4 2292.43 1955.8 2305.59 1960.4 2318.35C1964.86 2330.99 1971.84 2342.59 1980.92 2352.45C2000.2 2371.17 2027.34 2378.62 2053.37 2383.35C2079.39 2388.08 2106.46 2390.31 2132.63 2396.29C2145.74 2399.18 2158.48 2403.52 2170.62 2409.23C2182.47 2415.56 2193.08 2423.98 2201.94 2434.08C2218.46 2454.55 2233.06 2476.49 2245.57 2499.63C2258.93 2521.76 2272.29 2544.31 2291.5 2561.08C2300.88 2569.49 2312.07 2575.63 2324.2 2579.03C2336.52 2582.14 2349.27 2583.17 2361.92 2582.09C2386.88 2578.74 2411.56 2573.55 2435.75 2566.57C2459.84 2559.39 2484.87 2555.82 2510 2556C2522.53 2556.94 2534.8 2560.05 2546.26 2565.18C2557.44 2570.43 2568.15 2576.63 2578.27 2583.69C2598.59 2597.61 2617.24 2612.99 2637.07 2626.49C2646.83 2633.32 2657.14 2639.33 2667.9 2644.44C2673.24 2646.91 2678.72 2649.05 2684.32 2650.85C2687.18 2651.61 2690.03 2652.17 2692.88 2652.86L2697.2 2653.77H2701.51C2724.96 2656.41 2747.51 2646.81 2767.27 2635.05C2787.04 2623.29 2805.2 2608.47 2823.71 2594.83C2841.69 2580.48 2861.72 2568.91 2883.14 2560.52C2905.09 2554.51 2928.2 2554.08 2950.36 2559.27C2972.28 2563.44 2993.44 2569.64 3014.59 2574.72C3035.32 2580.38 3056.79 2582.89 3078.26 2582.16C3099.24 2580.21 3118.76 2570.6 3133.1 2555.16C3146.97 2539.82 3159.11 2522.99 3169.29 2504.99C3179.79 2487.45 3189.74 2469.64 3201.3 2453.01C3212.23 2435.99 3226.91 2421.7 3244.23 2411.25C3261.7 2402.38 3280.51 2396.45 3299.9 2393.72C3318.9 2390.31 3337.76 2388.15 3356.2 2385.16C3374.48 2382.67 3392.36 2377.87 3409.43 2370.89C3425.97 2364 3439.85 2351.97 3449.03 2336.58C3457.41 2321.26 3463.19 2304.66 3466.15 2287.45C3473.11 2253.63 3474.92 2219.75 3483.89 2188.08C3487.99 2172.35 3495.42 2157.68 3505.68 2145.08C3516.06 2133.38 3528 2123.17 3541.17 2114.74C3566.57 2097.62 3593.15 2084.53 3616.18 2068.11C3627.66 2060.34 3638.07 2051.1 3647.15 2040.62C3655.61 2030.42 3661.53 2018.35 3664.41 2005.41C3666.83 1992.91 3667.19 1980.1 3665.45 1967.49C3664.01 1955.39 3661.83 1943.4 3658.91 1931.58C3653.34 1908.41 3647.08 1886.56 3643.18 1865.33C3638.65 1845.38 3638.65 1824.67 3643.18 1804.72C3648.53 1787.64 3656.62 1771.54 3667.12 1757.05C3685.98 1729.84 3704.14 1708.34 3715.83 1689.13C3725.59 1675.01 3732.67 1659.2 3736.71 1642.51C3737.75 1638.27 3738.36 1633.93 3738.52 1629.57L3738.94 1625.18C3738.94 1625.18 3738.94 1626.64 3738.94 1629.57C3738.8 1633.95 3738.24 1638.31 3737.27 1642.58C3733.3 1659.4 3726.22 1675.34 3716.39 1689.55C3704.49 1708.9 3686.47 1730.47 3667.68 1757.68C3657.24 1772.06 3649.27 1788.07 3644.09 1805.07C3639.56 1824.81 3639.56 1845.31 3644.09 1865.05C3647.98 1885.93 3654.32 1907.99 3659.95 1931.16C3662.99 1943.08 3665.31 1955.16 3666.91 1967.35C3668.64 1980.12 3668.29 1993.1 3665.87 2005.76C3662.96 2019 3656.95 2031.35 3648.33 2041.81C3639.16 2052.4 3628.66 2061.75 3617.09 2069.64C3593.84 2086.2 3567.33 2099.36 3542.07 2116.41C3529.17 2124.79 3517.47 2134.88 3507.28 2146.4C3497.23 2158.81 3489.96 2173.24 3485.98 2188.71C3477.14 2220.02 3475.2 2253.84 3468.38 2287.87C3465.43 2305.36 3459.58 2322.22 3451.05 2337.77C3441.65 2353.61 3427.4 2366 3410.41 2373.12C3393.16 2380.2 3375.09 2385.06 3356.62 2387.59C3338.11 2390.65 3319.18 2392.81 3300.32 2396.22C3281.17 2398.96 3262.6 2404.81 3245.35 2413.55C3228.51 2423.76 3214.23 2437.69 3203.59 2454.26C3192.18 2470.75 3182.23 2488.5 3171.65 2506.17C3161.41 2524.36 3149.18 2541.35 3135.19 2556.83C3120.39 2572.79 3100.21 2582.7 3078.54 2584.67C3056.76 2585.52 3034.98 2583.01 3013.96 2577.22C2992.74 2572.14 2971.58 2566.02 2949.87 2561.91C2928.19 2556.84 2905.59 2557.24 2884.11 2563.09C2863.02 2571.41 2843.3 2582.83 2825.59 2596.98C2807.15 2610.55 2788.98 2625.17 2768.94 2637.41C2763.72 2640.2 2758.78 2643.47 2753.36 2645.77C2750.64 2647.02 2748 2648.34 2745.28 2649.45L2736.86 2652.45C2725.45 2656.37 2713.32 2657.79 2701.3 2656.62L2696.78 2656.27C2695.32 2656.27 2693.86 2655.65 2692.33 2655.37C2689.4 2654.67 2686.41 2654.12 2683.56 2653.28C2677.78 2651.49 2672.13 2649.31 2666.65 2646.74C2655.73 2641.56 2645.25 2635.48 2635.33 2628.58C2615.36 2614.66 2596.64 2599.49 2576.53 2585.78C2566.54 2578.85 2556 2572.75 2545.01 2567.55C2533.89 2562.6 2522 2559.61 2509.87 2558.71C2485.06 2558.6 2460.37 2562.14 2436.59 2569.22C2412.14 2576.41 2387.18 2581.74 2361.92 2585.15C2349.02 2586.41 2335.99 2585.54 2323.37 2582.58C2310.72 2579.05 2299.06 2572.67 2289.27 2563.93C2269.51 2546.6 2256.01 2523.85 2242.65 2501.65C2230.27 2478.69 2215.77 2456.93 2199.36 2436.65C2190.81 2426.85 2180.53 2418.71 2169.02 2412.64C2157.16 2407.01 2144.69 2402.76 2131.86 2399.98C2105.97 2394.27 2079.32 2391.84 2052.74 2387.04C2039.35 2384.81 2026.19 2381.36 2013.42 2376.74C2000.48 2371.99 1988.64 2364.65 1978.63 2355.16C1969.13 2345.02 1961.85 2333 1957.26 2319.88C1952.57 2306.92 1949.09 2293.55 1946.9 2279.94C1942.02 2252.87 1939.94 2225.31 1932.98 2198.59C1930.09 2185.2 1925.21 2172.33 1918.5 2160.39C1911.46 2148.59 1902.25 2138.22 1891.36 2129.84C1869.79 2112.51 1844.88 2099.43 1820.87 2084.74C1808.76 2077.44 1797.14 2069.35 1786.08 2060.53C1774.82 2051.5 1765.38 2040.43 1758.24 2027.89C1751.37 2015.06 1747.92 2000.68 1748.22 1986.14C1748.39 1971.73 1750.07 1957.39 1753.23 1943.34C1759.15 1915.5 1767.98 1887.67 1772.58 1859.83C1775.2 1845.81 1775.65 1831.47 1773.9 1817.32C1771.79 1803.25 1767.07 1789.7 1759.98 1777.37C1746.06 1752.32 1726.86 1730.12 1709.95 1706.25C1701.13 1694.36 1693.43 1681.69 1686.91 1668.4C1679.84 1655.17 1676.13 1640.39 1676.13 1625.39C1676.13 1610.39 1679.84 1595.61 1686.91 1582.38C1693.34 1569.13 1700.98 1556.51 1709.74 1544.67C1726.65 1520.8 1745.51 1498.6 1759.7 1473.62C1766.79 1461.26 1771.51 1447.69 1773.62 1433.61C1775.24 1419.44 1774.78 1405.11 1772.23 1391.09C1767.57 1363.25 1758.73 1335.42 1752.81 1307.58C1749.71 1293.55 1748.05 1279.23 1747.87 1264.85C1747.6 1250.3 1751.07 1235.92 1757.96 1223.1C1765.14 1210.61 1774.58 1199.57 1785.8 1190.53C1796.84 1181.69 1808.47 1173.6 1820.59 1166.32C1844.6 1151.63 1869.3 1138.48 1891.09 1121.22C1901.95 1112.84 1911.14 1102.47 1918.16 1090.67C1924.83 1078.7 1929.68 1065.8 1932.56 1052.4C1939.03 1025.68 1941.26 998.19 1946.48 971.12C1948.65 957.513 1952.1 944.14 1956.78 931.177C1960.97 917.908 1968.28 905.833 1978.08 895.956C1987.89 886.079 1999.91 878.687 2013.14 874.393C2025.91 869.768 2039.07 866.321 2052.46 864.094C2079.04 859.292 2105.7 857.135 2131.58 851.22C2144.39 848.355 2156.85 844.108 2168.74 838.555C2180.21 832.436 2190.47 824.277 2199.01 814.477C2215.43 794.201 2229.92 772.442 2242.3 749.481C2255.66 727.283 2269.16 704.527 2288.99 687.269C2298.83 678.395 2310.6 671.938 2323.37 668.411C2336 665.475 2349.02 664.606 2361.92 665.836C2387.02 669.192 2411.84 674.402 2436.17 681.424C2459.94 688.56 2484.63 692.124 2509.45 692.001C2521.47 691.043 2533.24 688.03 2544.24 683.094C2555.27 677.959 2565.82 671.857 2575.77 664.862C2595.95 650.944 2614.67 635.704 2634.64 622.135C2644.54 615.203 2655.02 609.127 2665.95 603.972C2671.42 601.422 2677.05 599.214 2682.79 597.361C2685.72 596.526 2688.71 596.039 2691.63 595.343L2696.01 594.369H2700.54C2712.55 593.234 2724.67 594.657 2736.1 598.544L2744.52 601.536C2747.23 602.65 2749.88 603.972 2752.59 605.225C2758.09 607.591 2763.03 610.792 2768.18 613.575C2788.29 625.823 2806.38 640.436 2824.89 654.006C2842.58 668.146 2862.29 679.568 2883.35 687.896C2904.82 693.781 2927.43 694.188 2949.11 689.079C2970.82 685.043 2991.97 678.919 3013.2 673.839C3034.22 668.059 3055.99 665.525 3077.78 666.323C3099.44 668.313 3119.61 678.224 3134.42 694.159C3148.44 709.668 3160.69 726.681 3170.96 744.889C3181.53 762.494 3191.41 780.309 3202.83 796.732C3213.44 813.337 3227.73 827.288 3244.58 837.511C3261.82 846.282 3280.4 852.137 3299.55 854.838C3318.41 858.248 3337.34 860.405 3355.85 863.467C3374.32 866.028 3392.39 870.891 3409.64 877.942C3426.63 885.052 3440.9 897.416 3450.35 913.223C3458.85 928.78 3464.71 945.641 3467.68 963.118C3474.64 997.147 3476.45 1030.97 3485.22 1062.28C3489.24 1077.73 3496.5 1092.15 3506.51 1104.59C3516.68 1116.15 3528.39 1126.27 3541.3 1134.65C3566.57 1151.7 3593.15 1164.85 3616.32 1181.42C3627.9 1189.31 3638.4 1198.66 3647.57 1209.25C3656.19 1219.69 3662.23 1232.01 3665.17 1245.23C3667.6 1257.92 3667.95 1270.91 3666.22 1283.71C3664.62 1295.88 3662.3 1307.94 3659.26 1319.83C3653.69 1343.07 3647.29 1364.85 3643.39 1386.01C3638.86 1405.75 3638.86 1426.25 3643.39 1445.99C3648.57 1462.99 3656.54 1479 3666.98 1493.38C3685.7 1520.66 3703.72 1542.09 3715.69 1561.51C3725.51 1575.73 3732.59 1591.66 3736.57 1608.48C3737.55 1612.75 3738.11 1617.11 3738.24 1621.49C3739.07 1624 3739.07 1625.53 3739.07 1625.53Z" fill="#263238"/>
<path d="M2515.02 2582.09C2515.99 2582.09 2490.31 2686.47 2457.67 2814.66C2425.04 2942.84 2397.76 3046.59 2396.78 3046.38C2395.81 3046.18 2421.49 2942 2454.13 2813.75C2486.76 2685.5 2514.32 2581.53 2515.02 2582.09Z" fill="#263238"/>
<path d="M2708.61 2257.25C3057.5 2257.25 3340.33 1974.42 3340.33 1625.53C3340.33 1276.64 3057.5 993.807 2708.61 993.807C2359.72 993.807 2076.89 1276.64 2076.89 1625.53C2076.89 1974.42 2359.72 2257.25 2708.61 2257.25Z" fill="white"/>
<path d="M2319.61 1406.6C2310.91 1415.3 2263.04 1502.43 2258.65 1574.31C2254.27 1646.2 2264.64 2049.67 2264.64 2049.67L2266.51 2076.46C2380.22 2209.45 2793.58 2407.35 3165.87 2075.77L3186.75 1827.54L3125.3 1302.08L2911.67 1249.82L2861.63 1168.75L2528.17 1246.83L2498.38 1317.11L2319.61 1406.6Z" fill="#455A64"/>
<path d="M2838.74 957.48C2853.42 902.853 2867.83 847.879 2872.91 791.582C2877.99 735.285 2873.33 677.109 2850.92 625.196C2847.51 617.332 2819.33 564.793 2810.84 566.115C2804.78 567.02 2823.01 616.428 2820.23 621.786C2793.44 673.769 2788.57 734.798 2796.29 792.765C2804.26 849.057 2818.5 904.282 2838.74 957.411" fill="#263238"/>
<path d="M2833.17 741.756C2830.53 600.005 2745.77 483.444 2604.16 490.055L2591.08 491.447C2527.74 498.124 2469.23 528.399 2427.2 576.249C2385.16 624.098 2362.68 686.017 2364.22 749.689C2367.28 872.513 2372.15 1008.21 2379.88 1073.48C2395.81 1208.56 2532.97 1215.37 2532.97 1215.37L2539.3 1304.24L2597.41 1367.36L2866.78 1200.34L2833.17 741.756Z" fill="#FFBF9D"/>
<path d="M2533.32 1216.42C2533.32 1216.42 2619.12 1212.45 2703.95 1145.79C2703.95 1145.79 2675.56 1268.33 2539.3 1270.35L2533.32 1216.42Z" fill="#FF9A6C"/>
<path d="M2442.09 859.848C2442.56 864.928 2445.02 869.615 2448.93 872.897C2452.84 876.179 2457.88 877.791 2462.96 877.384C2465.44 877.322 2467.88 876.766 2470.14 875.747C2472.4 874.728 2474.43 873.268 2476.11 871.453C2477.8 869.637 2479.11 867.503 2479.95 865.175C2480.8 862.848 2481.18 860.374 2481.06 857.9C2480.56 852.827 2478.1 848.15 2474.2 844.872C2470.29 841.594 2465.26 839.975 2460.18 840.363C2457.7 840.416 2455.26 840.966 2452.99 841.981C2450.73 842.997 2448.7 844.457 2447.01 846.274C2445.32 848.092 2444.01 850.23 2443.17 852.562C2442.32 854.893 2441.96 857.371 2442.09 859.848Z" fill="#263238"/>
<path d="M2399.08 802.785C2401.73 805.012 2415.23 792.695 2436.03 790.538C2456.84 788.381 2473.12 797.497 2475.14 794.365C2476.12 793.182 2473.19 788.868 2466.03 784.693C2456.38 779.434 2445.35 777.272 2434.43 778.499C2423.62 779.613 2413.44 784.12 2405.34 791.373C2399.43 797.01 2397.76 801.742 2399.08 802.785Z" fill="#263238"/>
<path d="M2625.73 844.26C2626.21 849.34 2628.67 854.027 2632.57 857.309C2636.48 860.591 2641.52 862.203 2646.61 861.796C2649.08 861.734 2651.52 861.177 2653.78 860.159C2656.04 859.14 2658.07 857.68 2659.76 855.865C2661.44 854.049 2662.75 851.915 2663.6 849.587C2664.45 847.26 2664.82 844.786 2664.7 842.311C2664.22 837.226 2661.77 832.532 2657.86 829.239C2653.96 825.946 2648.92 824.318 2643.82 824.706C2641.34 824.777 2638.9 825.342 2636.64 826.368C2634.39 827.394 2632.35 828.861 2630.67 830.682C2628.98 832.503 2627.68 834.642 2626.83 836.973C2625.98 839.305 2625.61 841.782 2625.73 844.26Z" fill="#263238"/>
<path d="M2603.6 789.703C2606.25 792 2619.82 779.613 2640.55 777.456C2661.29 775.298 2677.71 784.415 2679.66 781.353C2680.64 780.1 2677.78 775.786 2670.61 771.68C2660.95 766.394 2649.89 764.231 2638.95 765.486C2628.13 766.553 2617.93 771.066 2609.86 778.36C2604.02 783.927 2602.35 788.729 2603.6 789.703Z" fill="#263238"/>
<path d="M2545.84 957.341C2545.84 956.158 2532.69 955.253 2511.47 954.766C2506.11 954.766 2500.96 954.279 2499.71 950.73C2498.66 945.306 2499.31 939.69 2501.58 934.655L2513 892.902C2528.72 833.056 2539.51 784.066 2537.14 783.44C2534.78 782.813 2519.96 830.829 2504.23 890.745L2493.51 932.846C2490.89 939.526 2490.69 946.913 2492.96 953.722C2493.91 955.535 2495.26 957.105 2496.91 958.312C2498.57 959.518 2500.47 960.329 2502.49 960.681C2505.52 961.053 2508.58 961.053 2511.61 960.681C2532.83 959.777 2545.91 958.524 2545.84 957.341Z" fill="#263238"/>
<path d="M2608.54 965.274C2605.13 965.274 2607.5 987.96 2589.89 1006.05C2572.29 1024.15 2548.14 1024.15 2548.14 1027.35C2548.14 1028.74 2553.92 1031.17 2564.14 1030.34C2577.32 1029.1 2589.64 1023.26 2598.94 1013.85C2607.81 1004.74 2612.8 992.536 2612.86 979.818C2613.2 970.284 2610.07 964.996 2608.54 965.274Z" fill="#263238"/>
<path d="M2595.88 705.223C2598.52 710.651 2618.98 705.78 2643.68 706.197C2668.39 706.615 2688.85 711.138 2691.49 705.71C2692.67 703.135 2688.71 698.195 2680.15 693.532C2668.79 688.027 2656.34 685.167 2643.72 685.167C2631.1 685.167 2618.65 688.027 2607.29 693.532C2598.52 697.707 2594.69 702.648 2595.88 705.223Z" fill="#263238"/>
<path d="M2400.4 732.78C2404.51 737.094 2418.36 730.692 2435.55 728.604C2452.73 726.517 2467.7 728.604 2470.34 723.176C2471.59 720.602 2468.81 716.217 2461.99 712.321C2452.85 707.865 2442.6 706.22 2432.53 707.595C2422.46 708.97 2413.02 713.303 2405.41 720.045C2399.99 725.542 2398.52 730.622 2400.4 732.78Z" fill="#263238"/>
<path d="M2832.69 843.148C2834.91 841.895 2922.73 805.848 2929.55 898.818C2936.37 991.788 2842.08 979.123 2841.45 976.479C2840.83 973.835 2832.69 843.148 2832.69 843.148Z" fill="#FFBF9D"/>
<path d="M2867.2 939.248C2867.62 939.248 2868.87 940.222 2871.73 941.266C2875.69 942.638 2880.03 942.413 2883.83 940.639C2893.37 936.325 2900.47 920.18 2899.7 903.409C2899.38 895.432 2897.26 887.63 2893.51 880.585C2892.42 877.754 2890.66 875.23 2888.38 873.23C2886.1 871.23 2883.37 869.814 2880.42 869.102C2878.54 868.73 2876.58 869.035 2874.9 869.965C2873.22 870.894 2871.92 872.388 2871.24 874.182C2870.12 876.896 2870.89 878.706 2870.4 878.914C2869.92 879.123 2868.32 877.453 2868.73 873.626C2869.1 871.273 2870.25 869.114 2872 867.502C2874.42 865.395 2877.57 864.32 2880.77 864.51C2884.64 864.966 2888.32 866.418 2891.45 868.724C2894.59 871.029 2897.07 874.109 2898.66 877.662C2903.23 885.401 2905.81 894.151 2906.17 903.131C2906.94 921.85 2898.66 940.083 2885.29 944.884C2882.86 945.8 2880.25 946.157 2877.66 945.928C2875.07 945.7 2872.57 944.891 2870.33 943.562C2867.55 941.474 2866.92 939.387 2867.2 939.248Z" fill="#FF9A6C"/>
<path d="M2414.39 591.863C2398.87 584.486 2440.83 532.921 2477.02 513.784C2531.23 484.905 2615.43 463.82 2667.83 475.093C2730.95 489.011 2784.39 516.15 2819.12 570.569C2853.84 624.987 2869.78 689.913 2872.14 754.421C2872.84 774.115 2872.14 794.713 2862.68 811.971C2851.06 833.334 2826.98 847.878 2829.9 876.131C2830.6 881.232 2830.27 886.421 2828.93 891.393C2827.59 896.364 2825.27 901.018 2822.11 905.08C2806.24 924.286 2784.39 908.629 2773.74 892.206C2750.99 857.412 2745.91 813.919 2741.46 772.305C2738.25 742.8 2735.12 712.598 2741.46 683.65C2744.94 667.853 2751.34 652.752 2753.98 636.817C2756.63 620.881 2755.03 603.136 2744.45 590.888C2741.98 588.32 2739.28 585.99 2736.38 583.93C2722.69 573.421 2706.44 566.759 2689.31 564.63C2672.18 562.502 2654.8 564.984 2638.95 571.821C2587.8 593.672 2500.33 627.074 2475.84 610.791C2440.69 587.409 2431.51 570.986 2431.51 570.986L2414.39 591.863Z" fill="#263238"/>
<path d="M2319.61 1406.6C2314.25 1414.05 2238.19 1439.31 2209.31 1487.4C2180.43 1535.48 2151.9 1751.35 2151.9 1751.35L2133.53 1893.17C2169.72 1950.37 2218.29 2026.15 2269.79 2079.59L2319.61 1406.6Z" fill="#455A64"/>
<g opacity="0.3">
<path d="M2891.14 1614.81C2893.19 1643.92 2898.71 1672.68 2907.57 1700.48C2917.52 1727.82 2934.98 1753.57 2960.52 1767.7C2971.17 1773.54 2983.21 1777.44 2992.19 1785.79C3001.16 1794.14 3006.59 1807.64 3015.29 1817.45C3026.17 1828.25 3039.6 1836.12 3054.33 1840.35C3095.78 1855.55 3139.77 1862.64 3183.9 1861.23C3185.29 1846.33 3185.36 1791.64 3186.75 1776.68L2891.14 1614.81Z" fill="black"/>
</g>
<path d="M3125.31 1302.08C3125.31 1302.08 3221.2 1330.47 3249.31 1371.32C3277.43 1412.17 3327.18 1570.55 3337.41 1599.92C3347.64 1629.29 3338.66 1697.34 3319.53 1746.06C3300.39 1794.77 3267.13 1837.15 3209.72 1843.48C3152.31 1849.81 3061.56 1816.69 3041.1 1794.77C3020.65 1772.85 3012.23 1724.34 3012.23 1724.34C3037.72 1719.88 3062.86 1713.57 3087.45 1705.49" fill="#455A64"/>
<path d="M3087.45 1705.97L3086.27 1706.46L3082.65 1707.78C3079.45 1708.9 3074.64 1710.5 3068.31 1712.38C3050.01 1717.85 3031.43 1722.31 3012.64 1725.74L3013.41 1724.69C3015.74 1736.65 3019.02 1748.4 3023.22 1759.83C3025.51 1766.32 3028.28 1772.62 3031.5 1778.69C3034.8 1785.18 3039.15 1791.08 3044.37 1796.16C3050.26 1801.22 3056.76 1805.52 3063.72 1808.96C3071.07 1812.82 3078.62 1816.28 3086.34 1819.33C3102.9 1825.96 3119.92 1831.35 3137.27 1835.48C3156 1840.07 3175.19 1842.52 3194.48 1842.78C3199.5 1842.83 3204.51 1842.6 3209.51 1842.09C3214.54 1841.51 3219.54 1840.63 3224.47 1839.44C3234.58 1837.17 3244.29 1833.39 3253.28 1828.24C3272 1817.41 3287.71 1802.08 3299 1783.63C3310.93 1764.48 3320.07 1743.72 3326.14 1721.98C3331.09 1705.27 3334.79 1688.22 3337.2 1670.97C3339.79 1654.26 3340.63 1637.33 3339.71 1620.45C3339.16 1612.33 3337.49 1604.32 3334.77 1596.65C3332.12 1588.86 3329.55 1581.13 3327.04 1573.48L3312.08 1528.73C3302.2 1499.64 3292.46 1472.16 3282.71 1446.62C3274.16 1422.85 3263.86 1399.76 3251.89 1377.52C3246.35 1368.06 3238.97 1359.83 3230.17 1353.3C3222.51 1347.2 3214.36 1341.73 3205.82 1336.95C3192.09 1329.11 3177.89 1322.14 3163.3 1316.07C3151.33 1311.13 3141.87 1307.65 3135.46 1305.35L3128.16 1302.78C3127.29 1302.55 3126.45 1302.22 3125.65 1301.8C3126.53 1301.92 3127.39 1302.13 3128.23 1302.43L3135.67 1304.66C3142.21 1306.74 3151.82 1310.02 3163.93 1314.75C3178.64 1320.56 3192.98 1327.27 3206.86 1334.86C3215.56 1339.64 3223.87 1345.11 3231.71 1351.21C3240.76 1357.86 3248.38 1366.26 3254.11 1375.92C3266.36 1398.28 3276.87 1421.54 3285.57 1445.5C3295.52 1470.97 3305.33 1498.53 3315.28 1527.62C3320.22 1542.16 3325.23 1557.12 3330.38 1572.36C3332.96 1579.95 3335.53 1587.67 3338.11 1595.47C3340.97 1603.4 3342.72 1611.69 3343.33 1620.1C3344.31 1637.23 3343.5 1654.42 3340.89 1671.39C3338.43 1688.83 3334.69 1706.06 3329.69 1722.95C3323.47 1745.06 3314.1 1766.15 3301.85 1785.58C3290.25 1804.52 3274.07 1820.24 3254.81 1831.3C3245.53 1836.58 3235.51 1840.45 3225.09 1842.78C3220.03 1843.99 3214.89 1844.9 3209.72 1845.5C3204.57 1845.5 3199.42 1846.4 3194.41 1846.19C3174.86 1845.84 3155.41 1843.27 3136.44 1838.54C3118.93 1834.34 3101.76 1828.83 3085.08 1822.05C3077.31 1818.9 3069.72 1815.35 3062.33 1811.4C3055.17 1807.81 3048.48 1803.35 3042.43 1798.11C3037.04 1792.78 3032.57 1786.59 3029.2 1779.81C3025.97 1773.64 3023.21 1767.24 3020.92 1760.67C3016.84 1749.03 3013.66 1737.1 3011.39 1724.97V1724.07H3012.29C3036.79 1719.82 3055.58 1715.02 3068.31 1711.54L3082.79 1707.43L3086.47 1706.39C3087.03 1705.97 3087.45 1705.9 3087.45 1705.97Z" fill="#263238"/>
<path d="M3263.44 1654.69C3262.74 1654.69 3260.52 1642.86 3252.51 1625.18C3242 1602.2 3227.33 1581.37 3209.23 1563.74C3199.2 1554.19 3187.86 1546.13 3175.55 1539.8L3167.13 1536.04C3164.34 1534.79 3161.42 1534.23 3158.78 1533.33C3153.77 1531.75 3148.62 1530.68 3143.4 1530.12L3139.92 1529.64H3130.45C3127.19 1529.59 3123.92 1529.87 3120.71 1530.47C3117.92 1531.03 3115.07 1531.34 3112.22 1531.38C3114.86 1530.29 3117.61 1529.51 3120.43 1529.08C3123.67 1528.16 3127.02 1527.67 3130.39 1527.62H3136.65H3140.06L3143.68 1528.04C3149.07 1528.41 3154.41 1529.34 3159.61 1530.82C3162.53 1531.55 3165.41 1532.43 3168.24 1533.46L3177.01 1537.22C3189.78 1543.53 3201.51 1551.74 3211.8 1561.58C3230.3 1579.45 3244.95 1600.9 3254.88 1624.63C3256.65 1628.66 3258.19 1632.8 3259.47 1637.01C3260.54 1640.18 3261.43 1643.41 3262.12 1646.68C3262.81 1649.3 3263.25 1651.98 3263.44 1654.69Z" fill="#263238"/>
<path d="M3315.77 1568.61C3311.82 1558.48 3306.97 1548.72 3301.29 1539.45C3286.88 1517.44 3265.29 1501.09 3240.2 1493.17C3210.76 1484.19 3182.16 1486.98 3162.19 1488.86L3138.32 1491.71C3135.43 1492.23 3132.49 1492.49 3129.55 1492.48C3132.3 1491.4 3135.18 1490.68 3138.11 1490.32C3143.68 1489.21 3152.03 1487.74 3161.91 1486.35C3188.29 1481.74 3215.35 1482.88 3241.24 1489.69C3255.42 1493.95 3268.58 1501.06 3279.93 1510.57C3289.22 1518.46 3297.17 1527.82 3303.45 1538.26C3307.75 1545.12 3311.19 1552.48 3313.68 1560.19C3314.7 1562.9 3315.4 1565.73 3315.77 1568.61Z" fill="#263238"/>
<path d="M3243.47 1465.68C3205.95 1456.84 3166.74 1458.38 3130.04 1470.14C3134.85 1467 3140.14 1464.65 3145.7 1463.18C3158.86 1459.13 3172.5 1456.79 3186.27 1456.22C3200.03 1455.73 3213.8 1456.99 3227.25 1459.98C3232.91 1461.06 3238.38 1462.98 3243.47 1465.68Z" fill="#263238"/>
<path d="M3088.29 1326.02C3088.84 1326.02 3087.45 1335.83 3086.34 1351.56C3083.42 1391.84 3086.89 1432.33 3096.64 1471.53L3094.13 1472.36C3091.28 1464.36 3089.05 1457.82 3087.59 1453.23C3086.68 1450.99 3086.03 1448.65 3085.64 1446.27C3087.06 1448.43 3088.18 1450.77 3088.98 1453.23C3090.86 1457.61 3093.43 1464.01 3096.64 1471.95L3094.13 1472.71C3088.62 1453.46 3084.96 1433.72 3083.21 1413.77C3081.38 1393.13 3081.57 1372.37 3083.76 1351.77C3084.67 1343.9 3085.71 1337.85 3086.55 1333.19C3086.78 1330.73 3087.37 1328.31 3088.29 1326.02Z" fill="#263238"/>
<path d="M2952.66 1147.53C2952.66 1147.53 2902.9 1147.53 2896.64 1207.3C2891.84 1253.23 2896.64 1297.77 2896.64 1317.95C2896.64 1338.13 2887.8 1409.6 2887.8 1409.6C2887.8 1409.6 2853.84 1439.73 2854.4 1475.91C2854.95 1512.1 2880.84 1523.37 2880.84 1523.37C2876.5 1534.59 2875.54 1546.83 2878.09 1558.58C2880.64 1570.33 2886.58 1581.07 2895.18 1589.48C2895.18 1589.48 2880.77 1622.81 2892.6 1645.15C2899.42 1656.26 2910.06 1664.5 2922.52 1668.33C2920.48 1672.72 2919.41 1677.51 2919.37 1682.36C2919.34 1687.2 2920.35 1692 2922.32 1696.43C2924.3 1700.85 2927.21 1704.8 2930.84 1708.01C2934.48 1711.22 2938.76 1713.61 2943.4 1715.02C2960.12 1720.2 2977.63 1722.34 2995.11 1721.35L3032.27 1720.66L3064.97 1738.75C3064.97 1738.75 3121.06 1714.32 3122.45 1681.27L3123.91 1648.21C3123.91 1648.21 3107.84 1593.94 3106.52 1576.54C3105.19 1559.14 3119.46 1517.6 3110.83 1498.95C3102.2 1480.3 3072.07 1469.3 3074.92 1443.28C3077.78 1417.25 3072.07 1402.78 3059.13 1388.37C3046.18 1373.97 2989.05 1345.3 2989.05 1345.3C2989.05 1345.3 2974.37 1303.54 2974.37 1274.94C2974.37 1246.34 3002.97 1158.45 2952.66 1147.53Z" fill="#FFBF9D"/>
<path d="M2986.2 1356.15C2981.92 1359.65 2977.25 1362.64 2972.28 1365.06C2963.51 1370.21 2951.4 1377.03 2937.49 1384.41C2923.57 1391.78 2911.46 1398.32 2902.69 1402.85C2897.95 1405.71 2892.91 1408.04 2887.66 1409.8C2891.92 1406.26 2896.6 1403.25 2901.58 1400.83C2910.35 1395.68 2922.46 1388.86 2936.37 1381.48C2950.29 1374.11 2962.4 1367.56 2971.17 1363.04C2975.9 1360.18 2980.94 1357.86 2986.2 1356.15Z" fill="#FF9A6C"/>
<path d="M3018.9 1468.68C3018.9 1468.68 3017.51 1470.28 3014.52 1472.57C3010.37 1475.83 3006.05 1478.88 3001.58 1481.69C2986.88 1491.11 2971.26 1498.99 2954.95 1505.21C2938.65 1511.54 2921.74 1516.2 2904.5 1519.13C2897.54 1520.17 2892.46 1520.8 2888.77 1521.01C2886.84 1521.37 2884.86 1521.37 2882.93 1521.01C2882.93 1520.45 2891 1519.34 2903.81 1516.62C2920.69 1513.08 2937.28 1508.24 2953.42 1502.15C2969.53 1495.92 2985.12 1488.42 3000.05 1479.74C3006.14 1475.73 3012.43 1472.04 3018.9 1468.68Z" fill="#FF9A6C"/>
<path d="M3061.63 1432.84C3062.54 1433.19 3060.66 1439.8 3054.67 1444.88C3048.69 1449.96 3042.29 1451.49 3042.08 1450.58C3041.87 1449.68 3047.02 1447.04 3052.24 1442.16C3057.46 1437.29 3060.66 1432.42 3061.63 1432.84Z" fill="#FF9A6C"/>
<path d="M3041.1 1567.14C3034.42 1570.39 3027.43 1572.96 3020.23 1574.8C3003.11 1579.89 2985.67 1583.87 2968.04 1586.7C2950.4 1589.57 2932.59 1591.25 2914.73 1591.71C2907.33 1592.28 2899.88 1592.05 2892.53 1591.01C2899.84 1589.97 2907.21 1589.37 2914.59 1589.2C2928.51 1588.23 2946.95 1586.42 2967.48 1583.15C2988.01 1579.88 3006.31 1575.63 3019.53 1572.29C3026.62 1570.16 3033.82 1568.44 3041.1 1567.14Z" fill="#FF9A6C"/>
<path d="M3086.61 1559.14C3087.67 1555.52 3088.95 1551.96 3090.44 1548.49C3093.2 1539.99 3094.13 1531.01 3093.16 1522.12C3092.05 1513.24 3089.01 1504.72 3084.25 1497.14C3081.99 1494.11 3079.92 1490.95 3078.05 1487.67C3078.05 1487.33 3082.02 1489.9 3086.41 1495.68C3092.03 1503.31 3095.58 1512.28 3096.7 1521.69C3097.83 1531.11 3096.48 1540.66 3092.81 1549.4C3089.95 1555.73 3086.96 1559.14 3086.61 1559.14Z" fill="#FF9A6C"/>
<path d="M3043.89 1667.91C3038.19 1670.01 3032.25 1671.41 3026.21 1672.08C3011.76 1674.36 2997.14 1675.5 2982.51 1675.49C2967.84 1675.47 2953.2 1674.23 2938.74 1671.81C2932.7 1671.12 2926.76 1669.7 2921.06 1667.56C2927.11 1667.67 2933.13 1668.25 2939.09 1669.3C2953.51 1670.93 2968 1671.79 2982.51 1671.87C2996.99 1671.85 3011.46 1671.06 3025.86 1669.51C3031.82 1668.5 3037.85 1667.96 3043.89 1667.91Z" fill="#FF9A6C"/>
<path d="M2955.37 1275.64C2955.37 1276.06 2953.07 1277.94 2948.41 1279.61C2942.27 1281.66 2935.76 1282.32 2929.33 1281.55C2922.91 1280.78 2916.73 1278.59 2911.25 1275.15C2907.08 1272.44 2905.13 1270.07 2905.41 1269.72C2913.1 1273.59 2921.3 1276.35 2929.76 1277.94C2938.36 1278.39 2946.99 1277.62 2955.37 1275.64Z" fill="#FF9A6C"/>
<path d="M3096.91 1563.11C3097.54 1564.82 3097.82 1566.64 3097.75 1568.47C3097.75 1573.41 3097.17 1578.34 3096.01 1583.15C3094.69 1589.2 3092.39 1596.23 3090.16 1604.03C3087.47 1612.18 3086.59 1620.83 3087.59 1629.36C3088.77 1638.19 3095.38 1645.29 3096.43 1654.27C3097.14 1661.86 3095.2 1669.46 3090.93 1675.77C3088.33 1679.96 3085.33 1683.88 3081.95 1687.46C3079.59 1690.04 3078.12 1691.29 3077.92 1691.15C3077.71 1691.01 3082.72 1685.03 3088.7 1674.52C3092.3 1668.59 3093.84 1661.65 3093.09 1654.76C3092.25 1647.17 3085.57 1640.07 3083.97 1629.98C3082.91 1620.92 3083.93 1611.73 3086.96 1603.12C3089.4 1595.26 3091.9 1588.37 3093.5 1582.25C3095.11 1575.96 3096.25 1569.56 3096.91 1563.11Z" fill="#FF9A6C"/>
<path d="M3115.63 1606.81C3116.77 1608.85 3117.57 1611.06 3118 1613.35C3119.25 1617.6 3120.92 1623.86 3122.45 1631.65C3124.34 1640.82 3125.46 1650.13 3125.79 1659.49C3126.39 1671.19 3124.25 1682.86 3119.53 1693.59C3114.05 1703.85 3106.8 1713.07 3098.1 1720.8C3091.18 1727.1 3083.8 1732.89 3076.04 1738.12C3069.43 1742.65 3063.86 1745.99 3059.96 1748.14C3058.05 1749.44 3055.96 1750.47 3053.77 1751.21C3053.42 1750.72 3061.77 1745.43 3074.65 1736.04C3082.11 1730.6 3089.23 1724.7 3095.94 1718.36C3104.21 1710.8 3111.13 1701.88 3116.4 1691.99C3120.86 1681.75 3122.97 1670.65 3122.59 1659.49C3122.43 1650.28 3121.59 1641.09 3120.09 1632C3117.37 1616.48 3115.08 1606.95 3115.63 1606.81Z" fill="#263238"/>
<path d="M2590.59 1375.15C2587.69 1373.45 2584.99 1371.44 2582.52 1369.17L2561.64 1351.7L2547.17 1339.52C2544.69 1337.21 2541.93 1335.22 2538.95 1333.61C2537.51 1332.87 2535.91 1332.48 2534.29 1332.48C2532.67 1332.48 2531.07 1332.87 2529.63 1333.61C2523.65 1336.74 2519.61 1344.39 2514.53 1350.79C2509.45 1357.2 2504.44 1364.71 2499.15 1371.67C2490.8 1382.94 2482.66 1393.73 2475.21 1403.75L2470.69 1409.74L2472.15 1402.36C2476.14 1381.66 2481.94 1361.36 2489.48 1341.68C2492.26 1334.72 2494.77 1328.74 2496.44 1324.91C2497.22 1322.85 2498.27 1320.91 2499.57 1319.13C2499.09 1321.25 2498.41 1323.33 2497.55 1325.33C2496.09 1329.29 2493.93 1335.07 2491.43 1342.44C2484.62 1362.23 2479.29 1382.49 2475.49 1403.06L2472.36 1401.66L2496.23 1369.51L2511.61 1348.64L2518.98 1338.83C2521.32 1335.34 2524.48 1332.47 2528.17 1330.47C2530.1 1329.63 2532.2 1329.23 2534.31 1329.31C2536.42 1329.4 2538.49 1329.96 2540.35 1330.96C2543.51 1332.74 2546.43 1334.92 2549.04 1337.43L2562.96 1349.96L2583.28 1368.26C2585.9 1370.36 2588.34 1372.67 2590.59 1375.15Z" fill="#263238"/>
<path d="M2884.39 1316.35C2883.58 1317.26 2882.67 1318.08 2881.68 1318.78L2873.47 1325.19L2842.78 1348.22L2740.41 1423.58L2738.88 1424.7L2737.84 1423.1C2737 1421.84 2736.17 1420.45 2735.26 1419.13L2683.91 1337.99L2685.79 1338.62C2666 1346.48 2646.91 1356 2628.72 1367.08C2622.18 1371.04 2617.1 1374.04 2613.62 1376.61C2611.93 1377.89 2610.11 1378.98 2608.19 1379.88C2609.67 1378.35 2611.3 1376.97 2613.07 1375.78C2616.41 1373.34 2621.35 1369.79 2627.82 1365.55C2645.77 1353.86 2664.78 1343.89 2684.6 1335.76L2685.79 1335.28L2686.48 1336.32C2701.58 1359.77 2719.33 1387.54 2738.32 1417.18C2739.23 1418.5 2740.06 1419.9 2740.9 1421.15L2738.25 1420.66L2841.32 1346.2L2872.63 1324L2881.26 1318.16C2883.28 1316.84 2884.32 1316.21 2884.39 1316.35Z" fill="#263238"/>
<path d="M2259.84 1593.1C2260.15 1594.71 2260.29 1596.34 2260.25 1597.97C2260.25 1601.59 2260.25 1606.25 2260.6 1611.89C2260.6 1624.49 2261.23 1642.09 2261.57 1663.66C2262.41 1707.37 2264.15 1768.05 2266.45 1834.5C2268.74 1900.96 2270.06 1961.64 2270.2 2005.41C2270.2 2027.33 2270.2 2045.01 2270.2 2057.26C2270.2 2063.03 2270.2 2067.76 2269.86 2071.17C2269.93 2072.83 2269.81 2074.49 2269.51 2076.11C2269.41 2074.47 2269.41 2072.82 2269.51 2071.17C2269.51 2067.62 2269.51 2062.89 2269.09 2057.26C2269.09 2044.59 2268.53 2026.99 2268.12 2005.48C2267.35 1961.71 2265.54 1901.1 2263.31 1834.57C2261.09 1768.05 2259.7 1707.44 2259.56 1663.66C2259.56 1641.81 2259.56 1624.07 2259.56 1611.89C2259.56 1606.04 2259.56 1601.38 2259.56 1597.97C2259.55 1596.34 2259.64 1594.72 2259.84 1593.1Z" fill="#263238"/>
<path d="M2592.89 2221.62C2592.65 2221 2592.51 2220.34 2592.47 2219.68C2592.47 2218.14 2592.47 2216.2 2591.84 2213.76C2591.29 2208.26 2590.52 2200.68 2589.62 2191.01C2587.67 2171.24 2585.44 2142.29 2583.21 2107.15C2580.99 2072.01 2579.11 2029.42 2577.92 1982.52C2576.74 1935.62 2576.6 1883.91 2577.92 1829.42C2579.25 1774.94 2581.68 1723.65 2584.88 1676.82C2588.08 1629.98 2591.84 1587.81 2595.6 1552.53C2599.36 1517.25 2602.56 1488.65 2605.62 1469.03C2607.01 1459.35 2608.06 1451.84 2608.82 1446.41C2609.24 1443.97 2609.52 1442.03 2609.8 1440.49C2609.83 1439.83 2609.97 1439.17 2610.21 1438.55C2610.32 1439.21 2610.32 1439.9 2610.21 1440.56C2610.21 1442.09 2609.87 1444.04 2609.66 1446.48C2609.03 1451.91 2608.2 1459.49 2607.08 1469.16C2604.72 1488.93 2601.65 1517.46 2598.24 1552.67C2594.83 1587.88 2591.29 1630.12 2588.29 1676.96C2585.3 1723.79 2583 1775.35 2581.75 1829.49C2580.5 1883.63 2580.85 1935.2 2581.75 1982.1C2582.66 2029 2584.4 2071.17 2586.34 2106.59C2588.29 2142.01 2590.03 2170.75 2591.56 2190.52C2592.19 2200.19 2592.75 2207.85 2593.09 2213.34C2593.09 2215.78 2593.09 2217.73 2593.44 2219.26C2593.32 2220.06 2593.14 2220.85 2592.89 2221.62Z" fill="#263238"/>
<path d="M2385.51 1082.6L2378.14 1087.47L2356.42 1101.39C2346.82 1107.58 2335.55 1116.42 2322.33 1126.16C2315.37 1131.17 2308.96 1137.23 2301.45 1143.35L2290.11 1152.88C2286.21 1156.22 2282.52 1159.84 2278.55 1163.67C2240.07 1199.57 2206.26 1240.19 2177.93 1284.55L2165.54 1304.45C2161.16 1311.06 2157.82 1318.37 2153.78 1325.32C2149.75 1332.28 2145.78 1339.8 2142.16 1347.45C2138.54 1355.11 2135.2 1362.97 2131.44 1370.9C2129.71 1374.87 2127.76 1378.77 2126.09 1382.87C2124.42 1386.98 2122.96 1391.16 2121.35 1395.4C2118.22 1403.75 2114.88 1412.17 2111.82 1420.87C2106.67 1438.48 2100.13 1456.29 2096.23 1475.29C2076.39 1557.48 2073.08 1642.8 2086.49 1726.29C2103.94 1833.8 2148.96 1934.95 2217.15 2019.88C2285.35 2104.8 2374.4 2170.59 2475.61 2210.84C2576.82 2251.08 2686.73 2264.4 2794.62 2249.5C2902.51 2234.59 3004.7 2191.97 3091.21 2125.8C3113.05 2109.01 3133.83 2090.88 3153.42 2071.52L3167.34 2056.77C3172.07 2051.9 3176.66 2046.96 3181.26 2041.74L3194.48 2026.5C3198.65 2021.21 3202.76 2015.92 3206.93 2010.7C3269.88 1929.62 3311.87 1834.28 3329.2 1733.11C3333.27 1709.62 3336.04 1685.93 3337.48 1662.13C3338.18 1650.37 3338.18 1638.75 3338.59 1627.34C3339.01 1615.93 3337.76 1604.3 3337.34 1592.96C3337.34 1587.32 3336.85 1581.62 3336.65 1575.98C3336.44 1570.35 3335.39 1564.85 3334.84 1559.28C3333.44 1548.22 3332.12 1537.22 3330.8 1526.37C3329.48 1515.51 3326.63 1504.93 3324.54 1494.35C3322.79 1483.87 3320.47 1473.48 3317.58 1463.25L3308.95 1433.12C3307.6 1428.17 3305.95 1423.32 3304.01 1418.57C3302.2 1413.77 3300.39 1408.97 3298.65 1404.24C3294.96 1394.84 3291.69 1385.24 3287.73 1376.4C3283.76 1367.56 3279.44 1358.59 3275.34 1349.89C3245.07 1286.97 3204.48 1229.58 3155.23 1180.09C3117.92 1143.02 3076.28 1110.57 3031.22 1083.44L3004.64 1068.2C3000.63 1065.84 2996.49 1063.71 2992.25 1061.79L2980.56 1056.23L2959.69 1046.34C2953.42 1043.14 2947.23 1041.33 2942.01 1039.39L2917.79 1030.06L2909.58 1026.72L2917.93 1029.71L2942.22 1038.76C2947.51 1040.85 2953.7 1042.66 2960.03 1045.72L2980.91 1055.46L2992.67 1061.03C2996.93 1062.89 3001.09 1064.98 3005.13 1067.29L3031.78 1082.46C3077.13 1109.42 3119.03 1141.81 3156.55 1178.91C3206.09 1228.36 3246.98 1285.78 3277.5 1348.78C3281.6 1357.61 3285.78 1366.45 3290.02 1375.5C3294.27 1384.54 3296.98 1394.08 3301.02 1403.33L3306.44 1417.67C3308.38 1422.44 3310.03 1427.32 3311.39 1432.28C3314.31 1442.3 3317.23 1452.32 3320.15 1462.55C3323.17 1472.82 3325.61 1483.25 3327.46 1493.8C3329.55 1504.38 3332.05 1514.67 3333.86 1525.88C3335.67 1537.08 3336.51 1547.87 3337.9 1559C3338.52 1564.57 3339.43 1570.14 3339.78 1575.77C3340.13 1581.41 3340.26 1587.12 3340.47 1592.82C3340.89 1604.23 3341.52 1615.72 3341.8 1627.62C3342.07 1639.52 3341.45 1650.93 3340.68 1662.41C3333.57 1789.79 3287.87 1912 3209.65 2012.79L3196.98 2028.65L3183.62 2044.03C3179.31 2049.25 3174.64 2054.26 3169.7 2059.13L3155.79 2074.03C3136.07 2093.5 3115.15 2111.72 3093.16 2128.58C3006.23 2195.03 2903.57 2237.82 2795.18 2252.79C2686.79 2267.75 2576.37 2254.37 2474.69 2213.96C2373.01 2173.55 2283.54 2107.48 2214.99 2022.2C2146.45 1936.92 2101.17 1835.33 2083.57 1727.34C2076.51 1683.81 2074.17 1639.64 2076.61 1595.61C2078.36 1554.99 2084.22 1514.66 2094.08 1475.22C2097.97 1456.15 2104.58 1438.34 2109.73 1420.59C2112.86 1411.96 2116.27 1403.47 2119.48 1395.05C2121.08 1390.88 2122.68 1386.7 2124.21 1382.53C2125.74 1378.35 2127.9 1374.52 2129.64 1370.49C2133.32 1362.55 2136.59 1354.76 2140.42 1347.04C2144.25 1339.31 2148.35 1332.14 2152.18 1324.84C2156.01 1317.53 2159.63 1310.29 2164.01 1303.61L2176.54 1283.71C2205.02 1239.28 2239.09 1198.7 2277.93 1162.97C2281.89 1159.29 2285.58 1155.53 2289.48 1152.19L2300.89 1142.65C2308.41 1136.6 2314.81 1130.62 2321.77 1125.61C2335.34 1115.86 2346.47 1107.16 2356.15 1101.04L2378.07 1087.12C2382.8 1084.06 2385.51 1082.6 2385.51 1082.6Z" fill="#263238"/>
<defs>
<filter id="filter0_f_2109_17569" x="1077.44" y="239.443" width="5261.11" height="4291.11" filterUnits="userSpaceOnUse" color-interpolation-filters="sRGB">
<feFlood flood-opacity="0" result="BackgroundImageFix"/>
<feBlend mode="normal" in="SourceGraphic" in2="BackgroundImageFix" result="shape"/>
<feGaussianBlur stdDeviation="284.278" result="effect1_foregroundBlur_2109_17569"/>
</filter>
<linearGradient id="paint0_linear_2109_17569" x1="3708" y1="808" x2="3708" y2="3962" gradientUnits="userSpaceOnUse">
<stop stop-color="#16B6F0" stop-opacity="0.36"/>
<stop offset="1" stop-color="#1653F0" stop-opacity="0.6"/>
</linearGradient>
<linearGradient id="paint1_linear_2109_17569" x1="1049.5" y1="3665.68" x2="1049.5" y2="6441.82" gradientUnits="userSpaceOnUse">
<stop stop-color="#EAF0FF" stop-opacity="0.05"/>
<stop offset="1" stop-color="#EAF0FF"/>
</linearGradient>
<clipPath id="clip0_2109_17569">
<rect width="5371" height="3529" fill="white"/>
</clipPath>
</defs>
</svg>
