<svg width="5371" height="3529" viewBox="0 0 5371 3529" fill="none" xmlns="http://www.w3.org/2000/svg">
<g clip-path="url(#clip0_2108_1276)">
<rect width="5371" height="3529" fill="#EAF0FF"/>
<g filter="url(#filter0_f_2108_1276)">
<ellipse cx="3708" cy="2385" rx="2062" ry="1577" fill="url(#paint0_linear_2108_1276)" fill-opacity="0.5"/>
</g>
<rect y="589" width="2099" height="6141" fill="url(#paint1_linear_2108_1276)"/>
</g>
<path d="M2686.33 3326.18C3574.03 3326.18 4293.65 2910.71 4293.65 2398.2C4293.65 1885.7 3574.03 1470.23 2686.33 1470.23C1798.62 1470.23 1079 1885.7 1079 2398.2C1079 2910.71 1798.62 3326.18 2686.33 3326.18Z" fill="#F5F5F5"/>
<path d="M3345.35 3046.93C3530.22 3046.93 3680.08 2966.08 3680.08 2866.35C3680.08 2766.62 3530.22 2685.77 3345.35 2685.77C3160.48 2685.77 3010.62 2766.62 3010.62 2866.35C3010.62 2966.08 3160.48 3046.93 3345.35 3046.93Z" fill="#E6E6E6"/>
<path d="M3791.66 2782.85C3976.53 2782.85 4126.39 2702 4126.39 2602.27C4126.39 2502.54 3976.53 2421.69 3791.66 2421.69C3606.79 2421.69 3456.93 2502.54 3456.93 2602.27C3456.93 2702 3606.79 2782.85 3791.66 2782.85Z" fill="#E6E6E6"/>
<path d="M2775.24 2299.19L2335.8 2553.25L2334.77 2552.7L2167.72 2456.23C2153.17 2446.88 2141.61 2433.55 2134.43 2417.82C2127.25 2402.09 2124.74 2384.63 2127.21 2367.51L2189 2045.35L2628.44 1791.29L2566.65 2113.46C2564.18 2130.58 2566.69 2148.04 2573.87 2163.77C2581.05 2179.5 2592.61 2192.83 2607.16 2202.17L2775.24 2299.19Z" fill="#37474F"/>
<path d="M2189 2045.21L2127.55 2364.56L2567.06 2110.85L2623.91 1815.46L2596.24 1809.9L2189 2045.21Z" fill="#263238"/>
<path d="M2335.8 2553.11L2167.72 2456.09C2153.17 2446.74 2141.61 2433.41 2134.43 2417.68C2127.25 2401.95 2124.74 2384.49 2127.21 2367.38L2189 2045.21L2115.67 2002.85L2044.81 2371.43C2035.47 2420.18 2062.94 2480.4 2105.92 2505.18L2335.8 2637.7V2553.11Z" fill="#263238"/>
<path d="M2775.18 2299.12L2335.6 2553.11V2637.77L2775.18 2383.79V2299.12Z" fill="#455A64"/>
<path d="M3205.21 211.433C3225.47 223.174 3241.88 252.631 3241.88 277.761V1626.71C3241.14 1640.26 3237.22 1653.45 3230.43 1665.2C3223.64 1676.95 3214.18 1686.94 3202.81 1694.34L1521.39 2665.17C1499.77 2677.59 1465.85 2678.21 1445.87 2666.54C1425.88 2654.87 1409.2 2625.34 1409.2 2600.21V1251.33C1409.94 1237.77 1413.86 1224.58 1420.65 1212.82C1427.44 1201.05 1436.9 1191.06 1448.27 1183.63L3129.48 212.875C3151.04 200.172 3184.96 199.76 3205.21 211.433Z" fill="#455A64"/>
<path d="M1516.73 2667.5C1495.16 2677.59 1464.47 2677.39 1445.59 2666.54C1425.33 2654.87 1408.92 2625.34 1408.92 2600.28V1251.33C1409.41 1237.72 1413.36 1224.47 1420.39 1212.81L1493.72 1255.18C1486.68 1266.81 1482.74 1280.04 1482.26 1293.63V2642.58C1482.26 2665.72 1497.29 2676.08 1516.73 2667.5Z" fill="#263238"/>
<path d="M3242.15 1626.71V277.761C3242.15 252.837 3224.64 242.743 3203.08 255.171L1521.39 1225.93C1510.01 1233.34 1500.54 1243.34 1493.76 1255.1C1486.97 1266.86 1483.05 1280.06 1482.33 1293.63V2642.58C1482.33 2667.5 1499.83 2677.59 1521.46 2665.17L3202.81 1694.34C3214.23 1686.97 3223.75 1676.99 3230.58 1665.24C3237.42 1653.49 3241.38 1640.29 3242.15 1626.71Z" fill="#37474F"/>
<path d="M3156.05 323.766L1550.23 1251.61C1541.11 1257.51 1533.5 1265.47 1528.02 1274.86C1522.55 1284.25 1519.36 1294.79 1518.72 1305.64V2503.47C1518.72 2523.38 1532.45 2531.48 1549.96 2521.52L3156.05 1594.03C3165.17 1588.1 3172.75 1580.09 3178.17 1570.66C3183.59 1561.23 3186.69 1550.65 3187.22 1539.78V342.099C3187.22 322.187 3173.49 314.085 3156.05 323.766Z" fill="#90CAF9"/>
<path d="M1578.93 2403.08C1578.93 2423.68 1593.42 2432.06 1611.27 2421.76L3095.01 1565.12C3104.42 1558.98 3112.25 1550.7 3117.87 1540.97C3123.49 1531.24 3126.74 1520.31 3127.35 1509.09V510.254L1578.93 1404.24V2403.08Z" fill="#FAFAFA"/>
<path d="M3120.48 522.133V1509.09C3119.85 1519.11 3116.92 1528.85 3111.9 1537.54C3106.89 1546.24 3099.93 1553.65 3091.57 1559.22L1607.98 2415.78C1604.66 2417.9 1600.85 2419.11 1596.92 2419.29C1586.97 2419.29 1585.94 2407.96 1585.94 2403.08V1408.23L3120.62 522.476M3127.48 510.597L1578.93 1404.24V2403.08C1578.93 2417.71 1586.21 2426.15 1596.79 2426.15C1601.92 2425.99 1606.92 2424.47 1611.27 2421.76L3095.01 1565.12C3104.42 1558.98 3112.25 1550.7 3117.87 1540.97C3123.49 1531.24 3126.74 1520.31 3127.35 1509.09V510.254L3127.48 510.597Z" fill="#E0E0E0"/>
<path d="M1652.61 1430.47L1957.54 1254.42C1965.71 1249.68 1972.37 1253.53 1972.37 1263V2130.42C1972.09 2135.57 1970.6 2140.59 1968.02 2145.06C1965.45 2149.53 1961.86 2153.34 1957.54 2156.17L1652.61 2332.22C1644.37 2336.96 1637.71 2333.11 1637.71 2323.64V1456.22C1637.99 1451.06 1639.48 1446.03 1642.07 1441.56C1644.66 1437.09 1648.27 1433.29 1652.61 1430.47Z" fill="#F0F0F0"/>
<path d="M1708.36 1462.67L1901.79 1351.03C1909.96 1346.29 1916.62 1349.66 1916.62 1358.58C1916.25 1363.56 1914.71 1368.39 1912.14 1372.67C1909.56 1376.95 1906.01 1380.57 1901.79 1383.23L1708.36 1494.88C1700.12 1499.62 1693.46 1496.25 1693.46 1487.39C1693.83 1482.39 1695.36 1477.55 1697.95 1473.25C1700.54 1468.95 1704.11 1465.33 1708.36 1462.67Z" fill="#FAFAFA"/>
<path d="M1693.46 1545.96V1557.57C1693.46 1563.27 1697.51 1565.6 1702.39 1562.72L1712.48 1556.95C1715.08 1555.26 1717.24 1552.98 1718.79 1550.29C1720.35 1547.61 1721.24 1544.59 1721.41 1541.5V1529.9C1721.41 1524.2 1717.36 1521.86 1712.48 1524.75L1702.39 1530.51C1699.81 1532.22 1697.66 1534.5 1696.11 1537.19C1694.56 1539.87 1693.65 1542.87 1693.46 1545.96Z" fill="#90CAF9"/>
<path d="M1749.29 1519.6C1749.29 1528.45 1756.15 1531.82 1764.12 1527.08L1901.44 1447.64C1905.67 1444.98 1909.22 1441.36 1911.79 1437.08C1914.37 1432.8 1915.9 1427.97 1916.27 1422.99C1916.27 1414.06 1909.41 1410.7 1901.44 1415.44L1764.12 1494.88C1759.88 1497.55 1756.33 1501.17 1753.75 1505.47C1751.18 1509.76 1749.65 1514.6 1749.29 1519.6Z" fill="#FAFAFA"/>
<path d="M1693.46 1610.44V1622.04C1693.46 1627.74 1697.51 1630.08 1702.39 1627.19L1712.48 1621.42C1715.08 1619.74 1717.25 1617.46 1718.8 1614.77C1720.35 1612.09 1721.25 1609.07 1721.41 1605.98V1594.37C1721.41 1588.67 1717.36 1586.34 1712.48 1589.22L1702.39 1594.99C1699.81 1596.7 1697.66 1598.98 1696.11 1601.66C1694.56 1604.34 1693.65 1607.35 1693.46 1610.44Z" fill="#90CAF9"/>
<path d="M1749.29 1584.07C1749.29 1592.93 1756.15 1596.29 1764.12 1591.55L1901.44 1512.11C1905.67 1509.45 1909.22 1505.83 1911.79 1501.55C1914.37 1497.27 1915.9 1492.44 1916.27 1487.46C1916.27 1478.53 1909.41 1475.17 1901.44 1479.91L1764.12 1559.35C1759.88 1562.02 1756.33 1565.65 1753.75 1569.94C1751.18 1574.23 1749.65 1579.07 1749.29 1584.07Z" fill="#FAFAFA"/>
<path d="M1693.46 1674.84V1686.45C1693.46 1692.15 1697.51 1694.41 1702.39 1691.6L1712.48 1685.76C1715.08 1684.07 1717.25 1681.79 1718.8 1679.11C1720.35 1676.42 1721.25 1673.41 1721.41 1670.31V1658.71C1721.41 1653.01 1717.36 1650.74 1712.48 1653.56L1702.39 1659.4C1699.79 1661.09 1697.64 1663.37 1696.08 1666.06C1694.53 1668.74 1693.64 1671.75 1693.46 1674.84Z" fill="#90CAF9"/>
<path d="M1749.29 1648.41C1749.29 1657.33 1756.15 1660.7 1764.12 1655.96L1901.44 1576.52C1905.68 1573.85 1909.23 1570.22 1911.81 1565.93C1914.38 1561.63 1915.91 1556.79 1916.27 1551.8C1916.27 1542.94 1909.41 1539.58 1901.44 1544.32L1764.12 1623.76C1759.89 1626.42 1756.34 1630.04 1753.77 1634.32C1751.19 1638.6 1749.66 1643.43 1749.29 1648.41Z" fill="#FAFAFA"/>
<path d="M1693.46 1739.18V1750.78C1693.46 1756.48 1697.51 1758.75 1702.39 1755.93L1712.48 1750.1C1715.08 1748.41 1717.25 1746.13 1718.8 1743.44C1720.35 1740.76 1721.25 1737.74 1721.41 1734.65V1723.04C1721.41 1717.34 1717.36 1715.08 1712.48 1717.89L1702.39 1723.73C1699.79 1725.42 1697.64 1727.71 1696.08 1730.39C1694.53 1733.07 1693.64 1736.08 1693.46 1739.18Z" fill="#90CAF9"/>
<path d="M1749.29 1712.74C1749.29 1721.67 1756.15 1725.04 1764.12 1720.3L1901.44 1640.85C1905.68 1638.19 1909.23 1634.56 1911.81 1630.26C1914.38 1625.97 1915.91 1621.13 1916.27 1616.14C1916.27 1607.28 1909.41 1603.91 1901.44 1608.65L1764.12 1688.09C1759.89 1690.76 1756.34 1694.37 1753.77 1698.65C1751.19 1702.94 1749.66 1707.76 1749.29 1712.74Z" fill="#FAFAFA"/>
<path d="M1707.2 1817.59L1900.55 1705.95C1908.79 1701.21 1915.45 1704.57 1915.45 1713.43C1915.09 1718.43 1913.55 1723.28 1910.96 1727.57C1908.37 1731.87 1904.8 1735.49 1900.55 1738.15L1707.2 1849.8C1698.96 1854.53 1692.3 1851.17 1692.3 1842.31C1692.66 1837.31 1694.2 1832.46 1696.79 1828.17C1699.38 1823.87 1702.94 1820.25 1707.2 1817.59Z" fill="#FAFAFA"/>
<path d="M1692.3 1900.88V1912.48C1692.3 1918.18 1696.28 1920.52 1701.22 1917.63L1711.32 1911.87C1713.9 1910.17 1716.06 1907.89 1717.6 1905.2C1719.14 1902.52 1720.02 1899.51 1720.17 1896.42V1884.81C1720.17 1879.11 1716.19 1876.78 1711.32 1879.66L1701.22 1885.43C1698.62 1887.12 1696.46 1889.4 1694.91 1892.09C1693.36 1894.77 1692.46 1897.78 1692.3 1900.88Z" fill="#90CAF9"/>
<path d="M1748.12 1874.51C1748.12 1883.37 1754.99 1886.74 1762.95 1882L1900.28 1802.56C1904.52 1799.91 1908.08 1796.29 1910.67 1792.01C1913.26 1787.73 1914.8 1782.9 1915.18 1777.91C1915.18 1768.98 1908.31 1765.62 1900.28 1770.35L1762.95 1849.8C1758.71 1852.46 1755.16 1856.09 1752.59 1860.39C1750.01 1864.68 1748.48 1869.52 1748.12 1874.51Z" fill="#FAFAFA"/>
<path d="M1692.3 1965.36V1976.96C1692.3 1982.66 1696.28 1984.99 1701.22 1982.11L1711.32 1976.34C1713.9 1974.65 1716.06 1972.36 1717.6 1969.68C1719.14 1967 1720.02 1963.98 1720.17 1960.89V1949.29C1720.17 1943.59 1716.19 1941.26 1711.32 1944.14L1701.22 1949.91C1698.62 1951.6 1696.46 1953.88 1694.91 1956.56C1693.36 1959.25 1692.46 1962.26 1692.3 1965.36Z" fill="#90CAF9"/>
<path d="M1748.12 1938.99C1748.12 1947.84 1754.99 1951.21 1762.95 1946.47L1900.28 1867.03C1904.52 1864.38 1908.08 1860.77 1910.67 1856.48C1913.26 1852.2 1914.8 1847.37 1915.18 1842.38C1915.18 1833.45 1908.31 1830.09 1900.28 1834.83L1762.95 1914.27C1758.71 1916.94 1755.16 1920.56 1752.59 1924.86C1750.01 1929.15 1748.48 1933.99 1748.12 1938.99Z" fill="#FAFAFA"/>
<path d="M1692.3 2029.76V2041.37C1692.3 2047.07 1696.28 2049.33 1701.22 2046.52L1711.32 2040.68C1713.91 2038.99 1716.06 2036.71 1717.6 2034.02C1719.14 2031.34 1720.02 2028.32 1720.17 2025.23V2013.63C1720.17 2007.93 1716.19 2005.66 1711.32 2008.48L1701.22 2014.31C1698.62 2016 1696.45 2018.28 1694.9 2020.97C1693.35 2023.65 1692.46 2026.67 1692.3 2029.76Z" fill="#90CAF9"/>
<path d="M1748.12 2003.33C1748.12 2012.25 1754.99 2015.62 1762.95 2010.88L1900.28 1931.44C1904.53 1928.78 1908.1 1925.16 1910.68 1920.86C1913.27 1916.57 1914.81 1911.72 1915.18 1906.72C1915.18 1897.86 1908.31 1894.5 1900.28 1899.23L1762.95 1978.68C1758.72 1981.34 1755.18 1984.96 1752.6 1989.24C1750.02 1993.52 1748.49 1998.34 1748.12 2003.33Z" fill="#FAFAFA"/>
<path d="M1692.3 2094.1V2105.7C1692.3 2111.4 1696.28 2113.67 1701.22 2110.85L1711.32 2105.02C1713.91 2103.32 1716.06 2101.04 1717.6 2098.36C1719.14 2095.67 1720.02 2092.66 1720.17 2089.57V2077.96C1720.17 2072.26 1716.19 2070 1711.32 2072.81L1701.22 2078.65C1698.62 2080.34 1696.45 2082.62 1694.9 2085.3C1693.35 2087.99 1692.46 2091 1692.3 2094.1Z" fill="#90CAF9"/>
<path d="M1748.12 2067.8C1748.12 2076.73 1754.99 2080.09 1762.95 2075.35L1900.28 1995.91C1904.53 1993.25 1908.1 1989.63 1910.68 1985.33C1913.27 1981.04 1914.81 1976.19 1915.18 1971.19C1915.18 1962.33 1908.31 1958.97 1900.28 1963.71L1762.95 2043.15C1758.72 2045.81 1755.18 2049.43 1752.6 2053.71C1750.02 2057.99 1748.49 2062.82 1748.12 2067.8Z" fill="#FAFAFA"/>
<path d="M1578.93 1336.47C1579.54 1325.24 1582.79 1314.31 1588.41 1304.56C1594.03 1294.82 1601.86 1286.53 1611.27 1280.37L3095.01 423.806C3112.86 413.438 3127.35 421.815 3127.35 442.482V510.252L1578.93 1404.24V1336.47Z" fill="#37474F"/>
<path d="M2945.19 545.202C2940.77 548.089 2937.1 551.974 2934.46 556.542C2931.83 561.11 2930.3 566.234 2930.01 571.5C2930.01 581.181 2936.88 585.232 2945.19 580.289C2949.66 577.44 2953.39 573.571 2956.08 568.999C2958.76 564.428 2960.32 559.284 2960.63 553.991C2960.63 544.309 2953.77 540.396 2945.19 545.202Z" fill="#90CAF9"/>
<path d="M2998.33 514.648C2993.91 517.528 2990.23 521.41 2987.59 525.98C2984.96 530.55 2983.44 535.678 2983.16 540.946C2983.16 550.628 2990.02 554.679 2998.33 549.666C3002.76 546.791 3006.44 542.91 3009.07 538.339C3011.71 533.768 3013.23 528.638 3013.5 523.369C3013.5 513.687 3006.71 509.773 2998.33 514.648Z" fill="#90CAF9"/>
<path d="M3051.48 484.026C3047.03 486.89 3043.32 490.766 3040.66 495.337C3038 499.907 3036.46 505.043 3036.16 510.324C3036.16 520.005 3043.03 524.057 3051.41 519.113C3055.82 516.225 3059.49 512.341 3062.13 507.773C3064.76 503.205 3066.29 498.081 3066.58 492.815C3066.65 483.134 3059.85 479.22 3051.48 484.026Z" fill="#90CAF9"/>
<path d="M2151.65 1174.09L2960.5 707.111V835.923L2151.65 1302.9V1174.09Z" fill="#90CAF9"/>
<path opacity="0.05" d="M2151.65 1174.09L2960.5 707.111V835.923L2151.65 1302.9V1174.09Z" fill="black"/>
<path d="M2123.7 1158.02L2151.65 1174.08V1302.9L2123.7 1286.83V1158.02Z" fill="#90CAF9"/>
<path opacity="0.2" d="M2123.7 1158.02L2151.65 1174.08V1302.9L2123.7 1286.83V1158.02Z" fill="black"/>
<path d="M2960.5 707.108L2932.62 691.041L2123.7 1158.02L2151.65 1174.08L2960.5 707.108Z" fill="#90CAF9"/>
<path opacity="0.4" d="M2960.5 707.108L2932.62 691.041L2123.7 1158.02L2151.65 1174.08L2960.5 707.108Z" fill="white"/>
<path d="M2151.65 1302.9L2960.5 835.922V1576.66L2151.65 2043.63V1302.9Z" fill="#90CAF9"/>
<path d="M2123.7 1286.83L2151.65 1302.9V2043.63L2123.77 2027.56L2123.7 1286.83Z" fill="#90CAF9"/>
<path opacity="0.15" d="M2123.7 1286.83L2151.65 1302.9V2043.63L2123.77 2027.56L2123.7 1286.83Z" fill="black"/>
<path d="M2611.07 1038.89L2610.18 1039.71C2609.52 1040.45 2608.73 1041.05 2607.84 1041.5C2606.13 1042.6 2605.24 1041.5 2603.66 1040.47L2590.75 1032.91C2585.46 1029.82 2579.21 1026.05 2572.69 1022.13C2566.17 1018.22 2558.96 1013.89 2552.09 1009.5C2550.03 1008.13 2553.81 1001.26 2556.14 1002.63C2563.49 1006.48 2570.63 1010.46 2577.43 1014.17C2584.22 1017.88 2590.4 1021.04 2595.83 1024.47L2608.74 1031.82C2610.25 1032.85 2611.83 1032.91 2611.76 1034.97C2611.81 1035.93 2611.69 1036.88 2611.42 1037.79L2611.07 1038.89Z" fill="#E0E0E0"/>
<path d="M2624.19 1048.16C2614.23 1065.39 2598.03 1074.73 2580.93 1065.46L2579.97 1064.98H2579.56C2577.04 1063.07 2575.05 1060.54 2573.79 1057.65C2572.53 1054.75 2572.03 1051.58 2572.35 1048.43C2572.84 1039.43 2575.43 1030.67 2579.93 1022.86C2584.43 1015.05 2590.7 1008.4 2598.23 1003.46C2600.74 1001.73 2603.62 1000.62 2606.64 1000.22C2609.66 999.829 2612.74 1000.16 2615.6 1001.19L2616.56 1001.67L2618.14 1002.7C2634.28 1012.73 2634.14 1030.99 2624.19 1048.16Z" fill="#37474F"/>
<path d="M2645.2 1082.28L2664.42 1049.46C2649.75 1041.95 2636.12 1032.53 2623.91 1021.45L2623.16 1020.69L2622.54 1020.07C2620.61 1018.84 2618.36 1018.23 2616.08 1018.31C2613.79 1018.4 2611.59 1019.18 2609.77 1020.56C2604.85 1023.76 2600.76 1028.08 2597.83 1033.16C2594.89 1038.24 2593.2 1043.95 2592.88 1049.81C2592.67 1051.9 2593.01 1054.01 2593.88 1055.93C2594.75 1057.85 2596.11 1059.5 2597.82 1060.72C2598.82 1061.26 2599.92 1061.58 2601.05 1061.68C2616.66 1066.45 2631.52 1073.38 2645.2 1082.28Z" fill="#455A64"/>
<path d="M2680.97 1055.71C2680.88 1050.31 2678.67 1045.16 2674.82 1041.37C2670.96 1037.58 2665.78 1035.45 2660.37 1035.46C2658.02 1035.53 2655.7 1035.99 2653.51 1036.83H2653.09H2652.34C2651.22 1037.25 2650.15 1037.75 2649.11 1038.34C2643.13 1042.22 2638.14 1047.45 2634.56 1053.62C2630.98 1059.79 2628.91 1066.72 2628.51 1073.84C2628.53 1075.57 2628.73 1077.3 2629.13 1078.99C2630.05 1083.93 2632.78 1088.36 2636.79 1091.41C2640.79 1094.45 2645.79 1095.9 2650.8 1095.46C2655.82 1095.02 2660.49 1092.73 2663.91 1089.04C2667.32 1085.35 2669.25 1080.52 2669.3 1075.49C2669.34 1074.85 2669.34 1074.2 2669.3 1073.56C2672.69 1071.94 2675.57 1069.41 2677.62 1066.27C2679.68 1063.12 2680.84 1059.47 2680.97 1055.71Z" fill="#37474F"/>
<path d="M2660.72 1045.41C2672.04 1038.89 2681.31 1044.18 2681.31 1057.29C2680.92 1064.41 2678.85 1071.34 2675.27 1077.51C2671.69 1083.68 2666.7 1088.91 2660.72 1092.79C2649.39 1099.31 2640.12 1094.02 2640.12 1080.98C2640.51 1073.85 2642.59 1066.91 2646.17 1060.73C2649.74 1054.55 2654.73 1049.31 2660.72 1045.41Z" fill="#455A64"/>
<path d="M2223.88 1312.51C2239.33 1303.58 2251.83 1310.79 2251.83 1328.65C2251.25 1338.28 2248.42 1347.65 2243.57 1356C2238.71 1364.35 2231.97 1371.44 2223.88 1376.71C2208.5 1385.64 2196.01 1378.43 2196.01 1360.64C2196.57 1351 2199.38 1341.62 2204.22 1333.26C2209.06 1324.9 2215.8 1317.8 2223.88 1312.51Z" fill="#FAFAFA"/>
<path d="M2284.65 1278.18L2420.26 1199.97C2427.12 1196.06 2432.41 1198.8 2432.41 1206.08C2432.16 1210.23 2430.93 1214.27 2428.82 1217.85C2426.71 1221.43 2423.77 1224.46 2420.26 1226.68L2284.65 1304.96C2277.78 1308.8 2272.5 1306.05 2272.5 1298.78C2272.74 1294.63 2273.97 1290.59 2276.09 1287.01C2278.2 1283.43 2281.14 1280.4 2284.65 1278.18Z" fill="#455A64"/>
<path d="M2281.42 1324.46L2403.02 1254.21C2407.97 1251.4 2411.95 1252.22 2411.95 1256.07C2411.46 1258.62 2410.42 1261.04 2408.89 1263.14C2407.35 1265.24 2405.38 1266.98 2403.09 1268.22L2281.35 1340.45C2276.48 1343.34 2272.5 1342.1 2272.5 1337.64C2272.86 1334.9 2273.86 1332.29 2275.41 1330C2276.96 1327.71 2279.02 1325.81 2281.42 1324.46Z" fill="#455A64"/>
<path opacity="0.3" d="M2207.4 1428.28C2207.4 1435.14 2212.76 1437.89 2219.28 1434.11L2892.8 1045.27C2896.18 1043.18 2899.01 1040.31 2901.08 1036.91C2903.14 1033.51 2904.37 1029.67 2904.67 1025.71C2904.67 1018.84 2899.39 1016.16 2892.8 1019.94L2219.08 1408.64C2215.73 1410.77 2212.94 1413.66 2210.91 1417.07C2208.88 1420.48 2207.68 1424.32 2207.4 1428.28Z" fill="black"/>
<path opacity="0.3" d="M2207.4 1476.61C2207.4 1483.48 2212.76 1486.23 2219.28 1482.38L2622.68 1249.48C2626.04 1247.38 2628.87 1244.53 2630.94 1241.14C2633 1237.75 2634.24 1233.93 2634.55 1229.98C2634.55 1223.11 2629.2 1220.36 2622.68 1224.14L2219.08 1457.11C2215.75 1459.23 2212.96 1462.1 2210.93 1465.48C2208.9 1468.87 2207.7 1472.68 2207.4 1476.61Z" fill="black"/>
<path d="M2207.4 1528.45L2904.67 1125.88V1544.52L2207.4 1947.09V1528.45Z" fill="#90CAF9"/>
<path opacity="0.7" d="M2207.4 1528.45L2904.67 1125.88V1544.52L2207.4 1947.09V1528.45Z" fill="white"/>
<path d="M2207.4 1947.09V1818.28L2458.43 1480.12L2680.97 1577.07L2607.78 1528.45L2709.47 1399.64L2904.67 1472.97V1544.52L2207.4 1947.09Z" fill="#FAFAFA"/>
<path d="M2804.63 1264.45C2826.4 1251.88 2844.04 1262.04 2844.04 1287.17C2843.31 1300.85 2839.35 1314.15 2832.5 1326.01C2825.66 1337.87 2816.11 1347.95 2804.63 1355.42C2782.87 1367.99 2765.22 1357.83 2765.22 1332.7C2765.96 1319.02 2769.91 1305.71 2776.76 1293.86C2783.61 1282 2793.16 1271.92 2804.63 1264.45Z" fill="#FAFAFA"/>
<path d="M3903.31 1408.64C3933.24 1401.77 3965.72 1423.61 3984.33 1470.43C4002.93 1517.26 4039.81 1637.49 4047.36 1668.87C4050.79 1682.94 3942.79 1805.65 3946.63 1803.86C3947.8 1803.31 3912.71 1742.89 3912.71 1742.89L3965.38 1664.06L3934.13 1577.34L3903.31 1408.64Z" fill="#FFB7A7"/>
<path d="M3957.69 2519.67C3961.67 2521.25 3962.63 2529.01 3963.04 2544.32C3963.04 2555.92 3965.58 2576.18 3951.92 2580.02C3938.25 2583.87 3918.48 2581.53 3909.9 2570.55C3899.25 2556.82 3892.04 2544.66 3876.8 2527.84C3863.55 2513.21 3849.34 2499.55 3843.98 2479.3C3839.31 2460.89 3843.5 2453.07 3856.07 2447.92C3873.3 2441.05 3899.94 2465.01 3913.33 2469C3924.87 2472.36 3953.64 2518.09 3957.69 2519.67Z" fill="#263238"/>
<path d="M3904.47 2469.34C3901.46 2468.05 3898.21 2467.38 3894.93 2467.38C3891.65 2467.38 3888.4 2468.05 3885.38 2469.34C3872.48 2473.12 3868.56 2482.38 3878.52 2492.82C3888.47 2503.26 3912.16 2526.12 3912.16 2526.12L3923.49 2497.15L3904.47 2469.34Z" fill="#FFB7A7"/>
<path d="M3816.52 2617.79C3816.52 2617.79 3821.67 2634.2 3824.41 2648.55C3826.54 2659.95 3829.63 2678.97 3825.51 2687.48C3821.39 2696 3805.8 2701.21 3781.77 2700.8C3766.19 2700.46 3741.74 2710.76 3724.99 2719.82C3708.23 2728.89 3689.08 2728.95 3670.88 2726.69C3649.53 2723.94 3627.49 2711.24 3624.12 2702.31C3620.76 2693.39 3625.29 2689.2 3676.03 2668.32C3676.51 2668.32 3729.59 2644.98 3754.38 2618.34L3816.52 2617.79Z" fill="#263238"/>
<path d="M3676.03 2668.19C3669.17 2671.07 3662.99 2673.61 3657.63 2675.95C3656.26 2680.75 3658.11 2688.31 3680.49 2692.08C3714.83 2697.78 3803.4 2635.85 3803.4 2635.85C3803.4 2635.85 3800.72 2626.17 3797.98 2617.93H3754.38C3729.66 2644.57 3676.51 2667.98 3676.03 2668.19Z" fill="#FFB7A7"/>
<path d="M3979.73 2245.16C3976.13 2212.11 3968.85 2179.57 3958.03 2148.14C3958.03 2148.14 3969.98 2065.12 3976.84 1985.41C3989.75 1842.38 3981.51 1795.42 3954.18 1730.87C3954.18 1730.87 3714.21 1703.41 3705.56 1803.11C3694.78 1927.39 3703.84 2167.84 3706.52 2211.86C3709.2 2255.87 3713.38 2275.64 3727.46 2367.65C3738.38 2437.69 3755.47 2627.68 3755.47 2627.68C3763.16 2646.63 3811.09 2643.81 3816.38 2622.12C3816.38 2622.12 3838.9 2397.86 3837.53 2347.46C3836.43 2309.86 3830.45 2272.56 3819.74 2236.51C3819.74 2236.51 3837.25 2034.09 3841.99 2001.88C3841.99 2001.88 3848.86 2066.22 3851.4 2110.23C3853.94 2154.25 3866.64 2196.34 3878.31 2278.11C3888.41 2349.04 3911.89 2526.33 3911.89 2526.33C3934.48 2549.61 3955.83 2535.67 3957.55 2524.75C3957.62 2524.34 3987.55 2306.68 3979.73 2245.16Z" fill="#FFB7A7"/>
<path d="M3782.67 1389.27L3792.76 1482.24L3874.47 1476L3866.5 1372.79L3782.67 1389.27Z" fill="#FFB7A7"/>
<path d="M3962.15 1455.81C3953.5 1431.23 3923.29 1403.62 3891.84 1409.05C3883.67 1410.49 3877.28 1411.38 3869.59 1412.89C3868.56 1434.25 3827.3 1444.96 3787.2 1431.43C3775.11 1434.8 3763.85 1437.89 3753.9 1441.6C3739.34 1447.02 3695.88 1522.89 3691.21 1571.44C3687.36 1610.92 3718.19 1638.11 3718.19 1638.11C3704.94 1722.7 3692.58 2060.93 3692.58 2060.93C3705.39 2067.1 3719.6 2069.78 3733.78 2068.69L3745.86 1997.21L3750.12 2071.1C3772.78 2075.08 3836.43 2070 3876.87 2057.36C3921.18 2043.1 3961.83 2019.29 3995.93 1987.6C3995.93 1987.6 3996.76 1871.9 3986.87 1815.26C3976.98 1758.61 3974.1 1745.15 3924.18 1665.85C3969.08 1551.25 3974.99 1492.2 3962.15 1455.81Z" fill="#90CAF9"/>
<g opacity="0.6">
<path d="M3962.15 1455.81C3953.5 1431.23 3923.29 1403.63 3891.84 1409.05C3883.67 1410.49 3877.28 1411.39 3869.59 1412.9C3868.56 1434.25 3827.3 1444.96 3787.2 1431.44C3775.11 1434.8 3763.85 1437.89 3753.9 1441.6C3739.34 1447.02 3695.88 1522.9 3691.21 1571.44C3687.36 1610.92 3718.19 1638.11 3718.19 1638.11C3704.94 1722.7 3692.58 2060.94 3692.58 2060.94C3705.39 2067.11 3719.6 2069.79 3733.78 2068.7L3745.86 1997.22L3750.12 2071.1C3772.78 2075.08 3836.43 2070 3876.87 2057.37C3921.18 2043.1 3961.83 2019.29 3995.93 1987.61C3995.93 1987.61 3996.76 1871.91 3986.87 1815.26C3976.98 1758.62 3974.1 1745.16 3924.18 1665.85C3969.08 1551.25 3974.99 1492.2 3962.15 1455.81Z" fill="black"/>
</g>
<path d="M3770.44 1749.89C3811.64 1539.03 3808.48 1468.37 3752.18 1442.28C3708.3 1454.71 3707.89 1510.12 3710.36 1562.99C3710.36 1562.99 3712.97 1672.85 3696.63 1750.58C3687.77 1792.67 3674.25 1853.57 3658.04 1885.64C3655.13 1891.32 3650.25 1895.74 3644.31 1898.06C3628.38 1904.38 3623.71 1913.58 3611.08 1922.92C3600.98 1930.2 3593.43 1931.09 3594.05 1934.11C3595.12 1937.5 3597.42 1940.36 3600.49 1942.13C3603.57 1943.9 3607.2 1944.44 3610.66 1943.66C3617.29 1942.47 3623.71 1940.37 3629.75 1937.41C3622.15 1948.58 3613.02 1958.63 3602.63 1967.28C3578.05 1988.29 3574.41 2003.26 3614.92 2011.02C3640.26 2015.89 3663.4 2004.15 3692.79 1951.42C3703.96 1932.24 3713.75 1912.3 3722.1 1891.75C3741.81 1838.12 3761.79 1793.9 3770.44 1749.89Z" fill="#FFB7A7"/>
<path d="M3738.24 1274.2C3738.24 1274.2 3706.86 1237.8 3730.55 1201.62C3758.56 1158.91 3811.43 1152.25 3873.85 1169.9C3904.75 1178.62 3937.98 1212.61 3941.07 1272.14C3943.47 1318.14 3824.75 1349.86 3827.3 1381.38L3738.24 1274.2Z" fill="#263238"/>
<path d="M3720.53 1287.93C3720.53 1287.93 3702.81 1315.39 3705.21 1318.41C3709.42 1321.14 3714.06 1323.12 3718.95 1324.25L3720.53 1287.93Z" fill="#F28F8F"/>
<path d="M3774.7 1200.38C3757.19 1209.72 3726.98 1226.96 3720.11 1291.98C3713.25 1358.65 3728.15 1381.58 3737.35 1390.17C3743.53 1396 3775.18 1397.72 3791.59 1392.36C3812.19 1385.5 3856.55 1362.91 3877.01 1328.23C3901.11 1287.52 3905.43 1233.55 3877.01 1212.81C3836.22 1183.63 3789.46 1192.49 3774.7 1200.38Z" fill="#FFB7A7"/>
<path d="M3769.55 1203.26C3769.55 1203.26 3754.99 1264.24 3773.94 1302.35C3773.94 1302.35 3784.38 1278.52 3804.84 1284.97C3825.3 1291.43 3824 1318.96 3808 1333.04C3803.89 1337.04 3798.73 1339.8 3793.12 1341.02C3787.52 1342.23 3781.68 1341.85 3776.28 1339.9C3783 1357.29 3793.18 1373.13 3806.22 1386.46C3806.22 1386.46 3866.78 1414.33 3920.2 1355.56C3962.01 1309.55 3941.69 1201.82 3888.13 1184.86C3815.21 1162.14 3769.55 1203.26 3769.55 1203.26Z" fill="#263238"/>
<path d="M3971.83 1379.11C3962.19 1381.96 3951.93 1381.89 3942.33 1378.9C3932.73 1375.91 3924.24 1370.15 3917.92 1362.33C3911.6 1354.52 3907.74 1345 3906.83 1334.99C3905.91 1324.98 3907.99 1314.93 3912.8 1306.1C3917.6 1297.27 3924.91 1290.07 3933.81 1285.4C3942.71 1280.72 3952.8 1278.8 3962.79 1279.86C3972.78 1280.92 3982.24 1284.92 3989.96 1291.35C3997.68 1297.79 4003.32 1306.37 4006.16 1316.01C4009.97 1328.93 4008.5 1342.84 4002.06 1354.67C3995.62 1366.5 3984.75 1375.29 3971.83 1379.11Z" fill="#263238"/>
<path d="M3971.97 1311.27C3966.13 1313.05 3959.89 1313.04 3954.05 1311.27C3948.21 1309.49 3943.03 1306.02 3939.17 1301.3C3935.3 1296.58 3932.92 1290.81 3932.34 1284.74C3931.75 1278.66 3932.98 1272.55 3935.87 1267.17C3938.76 1261.8 3943.18 1257.4 3948.57 1254.54C3953.96 1251.68 3960.08 1250.48 3966.15 1251.1C3972.23 1251.72 3977.98 1254.13 3982.68 1258.02C3987.38 1261.91 3990.82 1267.11 3992.57 1272.96C3994.92 1280.77 3994.06 1289.2 3990.2 1296.38C3986.34 1303.57 3979.78 1308.92 3971.97 1311.27Z" fill="#263238"/>
<path d="M3932.9 1396.28C3927.06 1398.05 3920.82 1398.04 3914.98 1396.27C3909.14 1394.49 3903.96 1391.02 3900.1 1386.3C3896.23 1381.58 3893.85 1375.81 3893.27 1369.74C3892.68 1363.66 3893.91 1357.55 3896.8 1352.17C3899.69 1346.8 3904.11 1342.4 3909.5 1339.54C3914.89 1336.68 3921.01 1335.48 3927.08 1336.1C3933.16 1336.72 3938.91 1339.13 3943.61 1343.02C3948.31 1346.91 3951.75 1352.11 3953.5 1357.96C3955.83 1365.77 3954.97 1374.19 3951.11 1381.37C3947.25 1388.55 3940.7 1393.91 3932.9 1396.28Z" fill="#263238"/>
<path d="M3722.38 1176.63C3695.74 1204.5 3695.33 1283.95 3773.94 1302.35L3846.93 1163.72C3798.32 1137.97 3746.2 1151.7 3722.38 1176.63Z" fill="#263238"/>
<path d="M3766.32 1324.25C3762.51 1322.85 3759.39 1320 3757.65 1316.33C3755.91 1312.66 3755.68 1308.45 3757.02 1304.6C3758.35 1300.76 3761.13 1297.6 3764.77 1295.79C3768.41 1293.98 3772.62 1293.67 3776.48 1294.93L3766.32 1324.25Z" fill="#263238"/>
<path d="M3542.62 1984.17C3552.44 1786.42 3537.61 1738.7 3485.77 1701.21L3462.76 1815.4C3462.76 1815.4 3483.71 1951.07 3480.14 1995.98C3476.98 2035.46 3472.03 2084.83 3461.94 2116.55C3460.1 2122.16 3456.26 2126.9 3451.16 2129.87C3437.43 2137.97 3431.94 2146.49 3421.64 2156.86C3413.53 2164.96 3406.74 2166.81 3407.9 2169.49C3409.35 2172.43 3411.85 2174.71 3414.9 2175.88C3417.96 2177.05 3421.35 2177.03 3424.38 2175.81C3431.18 2173.26 3437.66 2169.91 3443.68 2165.85C3438.76 2177.91 3431.92 2189.08 3423.42 2198.95C3404.13 2221.6 3402.82 2235.75 3440.93 2236.92C3464.69 2237.67 3484.05 2223.18 3503.14 2171.34C3510.53 2152.29 3516.57 2132.74 3521.2 2112.84C3531.29 2060.93 3541.04 2015.96 3542.62 1984.17Z" fill="#FFA8A7"/>
<path d="M3441.75 1685.21C3458.01 1682.67 3474.64 1685.49 3489.16 1693.23C3503.67 1700.97 3515.28 1713.22 3522.23 1728.12C3543.44 1768.16 3547.29 1836.2 3548.32 1903.76C3548.32 1903.76 3503.62 1939.47 3451.44 1920.24L3441.75 1685.21Z" fill="#90CAF9"/>
<path d="M3491.26 2775.03C3495.17 2776.67 3496.07 2784.3 3496.27 2799.4C3496.27 2810.87 3498.47 2830.92 3485.01 2834.56C3471.55 2838.2 3451.92 2835.79 3443.81 2824.81C3433.38 2811.07 3426.37 2799.13 3411.47 2782.31C3398.5 2767.75 3384.49 2754.15 3379.55 2734.24C3375.15 2716.11 3379.55 2708.36 3391.77 2703.41C3408.86 2696.55 3434.96 2720.71 3448.14 2724.77C3459.26 2727.99 3487.28 2773.45 3491.26 2775.03Z" fill="#263238"/>
<path d="M3491.53 2761.29L3491.12 2779.9C3484.05 2784.18 3475.94 2786.44 3467.67 2786.44C3459.41 2786.44 3451.3 2784.18 3444.23 2779.9C3443.4 2778.12 3439.9 2753.26 3439.9 2753.26L3491.53 2761.29Z" fill="#FFA8A7"/>
<path d="M3338.28 2878.64C3338.28 2878.64 3343.22 2894.91 3345.83 2909.13C3347.82 2920.39 3350.71 2939.2 3346.59 2947.58C3342.47 2955.95 3326.95 2961.31 3303.19 2960.28C3287.81 2959.87 3263.57 2969.75 3246.96 2978.54C3230.34 2987.33 3194.43 2990.63 3176.51 2988.09C3155.43 2985.14 3133.8 2972.36 3130.57 2963.58C3127.35 2954.79 3132.08 2945.72 3182.41 2925.6C3182.89 2925.6 3252.18 2904.59 3276.89 2878.5L3338.28 2878.64Z" fill="#263238"/>
<path d="M3338.97 2858.59C3338.97 2858.59 3338.55 2872.32 3338.49 2880.22C3338.42 2888.11 3328.8 2899.65 3304.7 2898.21C3287.81 2897.25 3276.14 2892.44 3277.24 2878.5L3277.72 2858.45L3338.97 2858.59Z" fill="#FFA8A7"/>
<path d="M3509.18 2514.93C3505.77 2482.04 3499.12 2449.57 3489.34 2417.98C3489.34 2417.98 3497.85 2334.69 3503.07 2255.73C3508.43 2170.31 3507.19 2062.86 3509.32 2041.57C3509.32 2041.57 3234.67 1979.78 3227.8 2078.24C3220.93 2176.7 3230.82 2428.42 3233.09 2472.09C3235.35 2515.76 3242.01 2554.07 3249.43 2624.66C3256.84 2695.24 3277.79 2858.66 3277.79 2858.66C3287.23 2863.7 3297.77 2866.33 3308.48 2866.33C3319.18 2866.33 3329.73 2863.7 3339.17 2858.66C3339.17 2858.66 3363 2661.6 3362.1 2611.47C3361.4 2574.29 3355.83 2537.36 3345.56 2501.61C3345.56 2501.61 3352.42 2420.32 3358.81 2349.59C3365.19 2278.87 3370.69 2244.95 3372.54 2214.19L3378.52 2211.37C3378.52 2211.37 3381.81 2333.66 3384.15 2377.13C3386.48 2420.59 3392.39 2462.34 3403.1 2543.22C3412.43 2613.4 3441.48 2761.98 3441.48 2761.98C3472.58 2779.77 3491.81 2760.88 3491.81 2760.88C3491.81 2760.88 3516.32 2575.91 3509.18 2514.93Z" fill="#37474F"/>
<path d="M3372.61 2214.33C3372.61 2214.33 3440.24 2182.88 3474.37 2153.9C3474.37 2153.9 3442.3 2196.95 3401.04 2215.7C3401.04 2215.7 3383.12 2367.17 3383.25 2364.15L3378.24 2214.39L3372.61 2214.33Z" fill="#263238"/>
<path d="M3325.37 1651.29L3339.65 1741.44L3420.95 1737.33L3411.4 1631.93L3325.37 1651.29Z" fill="#FFA8A7"/>
<path d="M3506.71 1732.73C3499.22 1708.14 3468.88 1680.89 3438.05 1685.9L3416.97 1689.47C3413.19 1704.71 3374.33 1716.45 3334.57 1707.05C3322.58 1710.2 3311.59 1713.43 3301.61 1716.73C3272.98 1726.27 3246.68 1750.17 3242.15 1843.48C3242.15 1843.48 3227.73 2060.8 3226.63 2102.89C3297.22 2132.69 3371.37 2133.51 3412.5 2125.48C3498.19 2108.72 3509.25 2073.64 3509.25 2073.64C3509.25 2073.64 3513.92 1917.22 3512.89 1849.59C3511.65 1792.12 3511.86 1749.62 3506.71 1732.73Z" fill="#E6E6E6"/>
<path d="M3265.29 1540.67C3265.29 1540.67 3244 1573.01 3246.41 1576.17C3248.81 1579.33 3264.54 1582.21 3264.54 1582.21L3265.29 1540.67Z" fill="#F28F8F"/>
<path d="M3324.55 1451.28C3281.49 1460.34 3269 1479.29 3264.95 1547.82C3260.69 1619.36 3268.04 1641.82 3277.44 1651.5C3283.76 1657.95 3319.05 1659.12 3336.84 1654.24C3359.08 1648.13 3409.41 1630.28 3432.96 1594.3C3460.43 1551.94 3467.98 1494.53 3438.32 1470.71C3396.37 1437.89 3341.99 1447.57 3324.55 1451.28Z" fill="#FFA8A7"/>
<path d="M3260.07 1473.66L3261.38 1474.9C3269.62 1482.79 3280.26 1487.74 3288.84 1495.49C3298.3 1503.74 3305.13 1514.58 3308.48 1526.67C3311.29 1536.56 3312.46 1548.37 3323.17 1552.97C3323.17 1552.97 3330.04 1526.46 3352.29 1529.83C3374.53 1533.19 3377.76 1561.75 3363.62 1579.13C3349.47 1596.5 3336.15 1589.84 3336.15 1589.84C3336.15 1589.84 3336.91 1627.67 3353.59 1649.09C3353.59 1649.09 3372.68 1655.27 3407.77 1647.79C3429.33 1643.19 3459.74 1616.2 3472.58 1587.71C3500.05 1527.35 3501.56 1473.04 3463.04 1456.84C3458.92 1429.37 3437.02 1416.53 3412.02 1410.77C3374.74 1402.25 3339.79 1424.5 3302.92 1416.12C3295.16 1414.4 3287.67 1411.59 3279.78 1410.63C3278.9 1410.39 3277.98 1410.39 3277.1 1410.63C3275.25 1411.59 3275.38 1414.27 3275.93 1416.33C3277.88 1423.75 3281.6 1430.58 3286.78 1436.24C3272.61 1437.09 3258.41 1435.3 3244.9 1430.95C3244.19 1438.74 3245.18 1446.6 3247.8 1453.97C3250.42 1461.34 3254.61 1468.06 3260.07 1473.66Z" fill="#263238"/>
<path d="M3463.93 1465.83L3489.75 1450.66C3488.75 1448.96 3487.43 1447.48 3485.86 1446.3C3484.29 1445.11 3482.51 1444.25 3480.6 1443.75C3478.7 1443.26 3476.72 1443.15 3474.77 1443.42C3472.82 1443.69 3470.95 1444.34 3469.25 1445.34C3467.56 1446.33 3466.08 1447.65 3464.89 1449.22C3463.71 1450.79 3462.84 1452.58 3462.35 1454.48C3461.85 1456.39 3461.74 1458.37 3462.01 1460.32C3462.28 1462.26 3462.94 1464.14 3463.93 1465.83Z" fill="#263238"/>
<path d="M3322.83 1567.73L3323.58 1537.79C3319.62 1537.69 3315.77 1539.17 3312.89 1541.91C3310.01 1544.65 3308.34 1548.41 3308.24 1552.38C3308.14 1556.35 3309.62 1560.2 3312.36 1563.08C3315.09 1565.96 3318.86 1567.63 3322.83 1567.73Z" fill="#263238"/>
<path d="M2954.66 1870.67C2967.91 1876.85 3122.4 1996.53 3146.92 1983.55C3171.43 1970.57 3300.72 1826.59 3300.72 1826.59C3311.64 1810.45 3317.67 1791.5 3318.11 1772.02C3318.55 1752.54 3313.37 1733.34 3303.19 1716.73C3303.19 1716.73 3262.75 1723.25 3240.92 1754.63C3219.08 1786.01 3125.49 1898.2 3125.49 1898.2C3103.25 1886.48 3081.09 1874.58 3059.03 1862.5C3040.83 1852.54 3022.57 1842.59 3004.78 1831.94C2999.85 1829.49 2995.24 1826.45 2991.05 1822.88C2982.33 1813.88 2984.19 1792.67 2984.73 1781.13C2984.85 1775.71 2985.24 1770.31 2985.9 1764.93C2986.79 1758.06 2988.44 1742.2 2976.43 1747.08C2974.15 1748.13 2972.16 1749.73 2970.66 1751.74C2968.72 1754.12 2967.21 1756.82 2966.2 1759.71C2963.79 1766.58 2964.34 1774.33 2962.14 1781.34C2961.91 1782.38 2961.38 1783.33 2960.63 1784.08C2960.11 1784.51 2959.51 1784.83 2958.86 1785.02C2958.21 1785.21 2957.53 1785.26 2956.86 1785.18C2939.55 1784.29 2923.69 1759.64 2916.07 1746.59C2913.34 1740.37 2908.88 1735.06 2903.23 1731.28C2893.89 1726.68 2882.63 1732.73 2875.77 1741.1C2868.08 1752.18 2864.73 1765.69 2866.36 1779.07C2867.53 1797.15 2875.15 1814.21 2887.85 1827.14C2907.47 1845.36 2930.07 1860.08 2954.66 1870.67Z" fill="#FFA8A7"/>
<path d="M3316.38 1711.99C3299 1713.57 3270.17 1714.26 3241.26 1745.57C3207.48 1782.16 3162.64 1842.18 3162.64 1842.18C3166.66 1860.25 3175.82 1876.78 3189.01 1889.78C3202.2 1902.78 3218.87 1911.69 3237 1915.44C3237 1915.44 3297.84 1855.84 3315.14 1822.67C3332.44 1789.51 3336.29 1735.06 3316.38 1711.99Z" fill="#90CAF9"/>
<defs>
<filter id="filter0_f_2108_1276" x="1077.44" y="239.443" width="5261.11" height="4291.11" filterUnits="userSpaceOnUse" color-interpolation-filters="sRGB">
<feFlood flood-opacity="0" result="BackgroundImageFix"/>
<feBlend mode="normal" in="SourceGraphic" in2="BackgroundImageFix" result="shape"/>
<feGaussianBlur stdDeviation="284.278" result="effect1_foregroundBlur_2108_1276"/>
</filter>
<linearGradient id="paint0_linear_2108_1276" x1="3708" y1="808" x2="3708" y2="3962" gradientUnits="userSpaceOnUse">
<stop stop-color="#16B6F0" stop-opacity="0.36"/>
<stop offset="1" stop-color="#1653F0" stop-opacity="0.6"/>
</linearGradient>
<linearGradient id="paint1_linear_2108_1276" x1="1049.5" y1="3665.68" x2="1049.5" y2="6441.82" gradientUnits="userSpaceOnUse">
<stop stop-color="#EAF0FF" stop-opacity="0.05"/>
<stop offset="1" stop-color="#EAF0FF"/>
</linearGradient>
<clipPath id="clip0_2108_1276">
<rect width="5371" height="3529" fill="white"/>
</clipPath>
</defs>
</svg>
