<svg width="5371" height="3529" viewBox="0 0 5371 3529" fill="none" xmlns="http://www.w3.org/2000/svg">
<g clip-path="url(#clip0_2109_17577)">
<rect width="5371" height="3529" fill="#EAF0FF"/>
<g filter="url(#filter0_f_2109_17577)">
<ellipse cx="3708" cy="2385" rx="2062" ry="1577" fill="url(#paint0_linear_2109_17577)" fill-opacity="0.5"/>
</g>
<rect y="589" width="2099" height="6141" fill="url(#paint1_linear_2109_17577)"/>
</g>
<path d="M4686 2894.2H686V2896.2H4686V2894.2Z" fill="#EBEBEB"/>
<path d="M4285.2 3022.92H4020.24V3024.92H4285.2V3022.92Z" fill="#EBEBEB"/>
<path d="M3335.76 3044.68H3266.24V3046.68H3335.76V3044.68Z" fill="#EBEBEB"/>
<path d="M4012.24 2948.68H3858.72V2950.68H4012.24V2948.68Z" fill="#EBEBEB"/>
<path d="M1451.2 2962.12H1105.68V2964.12H1451.2V2962.12Z" fill="#EBEBEB"/>
<path d="M1573.12 2962.12H1522.48V2964.12H1573.12V2962.12Z" fill="#EBEBEB"/>
<path d="M2487.2 2995.88H1737.76V2997.88H2487.2V2995.88Z" fill="#EBEBEB"/>
<path d="M2582 2537.4H1037.28C1025.18 2537.38 1013.58 2532.56 1005.03 2523.99C996.482 2515.43 991.68 2503.82 991.68 2491.72V320.28C991.785 308.248 996.633 296.744 1005.17 288.266C1013.71 279.788 1025.25 275.021 1037.28 275H2582C2594.12 275 2605.73 279.813 2614.3 288.379C2622.87 296.946 2627.68 308.565 2627.68 320.68V2491.72C2627.68 2503.84 2622.87 2515.45 2614.3 2524.02C2605.73 2532.59 2594.12 2537.4 2582 2537.4ZM1037.28 276.6C1025.71 276.621 1014.62 281.233 1006.45 289.422C998.271 297.611 993.68 308.709 993.68 320.28V2491.72C993.68 2503.29 998.271 2514.39 1006.45 2522.58C1014.62 2530.77 1025.71 2535.38 1037.28 2535.4H2582C2593.58 2535.38 2604.68 2530.77 2612.86 2522.58C2621.05 2514.4 2625.66 2503.3 2625.68 2491.72V320.28C2625.66 308.702 2621.05 297.604 2612.86 289.417C2604.68 281.23 2593.58 276.621 2582 276.6H1037.28Z" fill="#EBEBEB"/>
<path d="M4312.48 2537.4H2767.68C2755.57 2537.38 2743.96 2532.56 2735.4 2524C2726.84 2515.44 2722.02 2503.83 2722 2491.72V320.28C2722.13 308.241 2726.99 296.737 2735.54 288.261C2744.09 279.785 2755.64 275.02 2767.68 275H4312.48C4324.5 275.042 4336.02 279.818 4344.54 288.294C4353.06 296.77 4357.89 308.262 4358 320.28V2491.72C4358 2503.81 4353.21 2515.4 4344.68 2523.96C4336.15 2532.53 4324.57 2537.36 4312.48 2537.4ZM2767.68 276.6C2756.1 276.621 2745 281.23 2736.82 289.417C2728.63 297.604 2724.02 308.702 2724 320.28V2491.72C2724.02 2503.3 2728.63 2514.4 2736.82 2522.58C2745 2530.77 2756.1 2535.38 2767.68 2535.4H4312.48C4324.06 2535.38 4335.16 2530.77 4343.34 2522.58C4351.53 2514.4 4356.14 2503.3 4356.16 2491.72V320.28C4356.14 308.702 4351.53 297.604 4343.34 289.417C4335.16 281.23 4324.06 276.621 4312.48 276.6H2767.68Z" fill="#EBEBEB"/>
<path d="M3079.36 1984.2L4023.36 1984.2V780.279L3079.36 780.279V1984.2Z" fill="#E0E0E0"/>
<path d="M3049.12 1984.2L4028.24 1984.2V780.279L3049.12 780.279V1984.2Z" fill="#F0F0F0"/>
<path d="M3090.64 1936.28H3988.48V813.639H3090.64V1936.28Z" fill="white"/>
<path d="M3090.56 1936.28H3116.56V813.639H3090.56V1936.28Z" fill="#E0E0E0"/>
<path d="M3113.76 1590.04V1616.04H3990.72V1590.04H3113.76Z" fill="#E0E0E0"/>
<path d="M3090.64 1590.04H4002.4V1546.44H3090.64V1590.04Z" fill="#F0F0F0"/>
<path d="M2453.52 1367.08H1241.68V2901.64H2453.52V1367.08Z" fill="#F0F0F0"/>
<path d="M2410.64 1423H1284.48V1751.16H2410.64V1423Z" fill="#E0E0E0"/>
<path d="M1348.48 1476.12H1284.48V1751.16H1348.48V1476.12Z" fill="#EBEBEB"/>
<path d="M1657.84 1476.12H1593.84V1751.16H1657.84V1476.12Z" fill="#EBEBEB"/>
<path d="M2009.09 1469.21L1946.02 1480.08L1992.74 1751.13L2055.81 1740.26L2009.09 1469.21Z" fill="#EBEBEB"/>
<path d="M1427.76 1512.36H1363.76V1751.16H1427.76V1512.36Z" fill="#EBEBEB"/>
<path d="M1574.8 1512.36H1510.8V1751.16H1574.8V1512.36Z" fill="#EBEBEB"/>
<path d="M1946 1512.36H1882V1751.16H1946V1512.36Z" fill="#EBEBEB"/>
<path d="M1741.96 1504.12L1679.48 1518.01L1731.29 1751.12L1793.76 1737.24L1741.96 1504.12Z" fill="#EBEBEB"/>
<path d="M1483.12 1462.44H1451.12V1751.08H1483.12V1462.44Z" fill="#EBEBEB"/>
<path d="M1863.6 1462.44H1831.6V1751.08H1863.6V1462.44Z" fill="#EBEBEB"/>
<path d="M1284.56 2131.32H2410.72V1803.16H1284.56V2131.32Z" fill="#E0E0E0"/>
<path d="M2346.72 2131.24H2410.72V1856.2H2346.72V2131.24Z" fill="#EBEBEB"/>
<path d="M2037.44 2131.24H2101.44V1856.2H2037.44V2131.24Z" fill="#EBEBEB"/>
<path d="M1639.56 2120.32L1702.63 2131.19L1749.35 1860.14L1686.28 1849.27L1639.56 2120.32Z" fill="#EBEBEB"/>
<path d="M2267.44 2131.24H2331.44V1892.44H2267.44V2131.24Z" fill="#EBEBEB"/>
<path d="M2120.4 2131.24H2184.4V1892.44H2120.4V2131.24Z" fill="#EBEBEB"/>
<path d="M1749.2 2131.24H1813.2V1892.44H1749.2V2131.24Z" fill="#EBEBEB"/>
<path d="M1901.59 2117.41L1964.07 2131.29L2015.88 1898.18L1953.4 1884.29L1901.59 2117.41Z" fill="#EBEBEB"/>
<path d="M2212.16 2131.24H2244.16V1842.6H2212.16V2131.24Z" fill="#EBEBEB"/>
<path d="M1831.6 2131.24H1863.6V1842.6H1831.6V2131.24Z" fill="#EBEBEB"/>
<path d="M1348.48 1856.28H1284.48V2131.32H1348.48V1856.28Z" fill="#EBEBEB"/>
<path d="M1427.76 1892.52H1363.76V2131.32H1427.76V1892.52Z" fill="#EBEBEB"/>
<path d="M1574.8 1892.52H1510.8V2131.32H1574.8V1892.52Z" fill="#EBEBEB"/>
<path d="M1483.12 1842.6H1451.12V2131.24H1483.12V1842.6Z" fill="#EBEBEB"/>
<path d="M2410.64 2183.24H1284.48V2511.4H2410.64V2183.24Z" fill="#E0E0E0"/>
<path d="M1994.88 2236.36H1930.88V2511.4H1994.88V2236.36Z" fill="#EBEBEB"/>
<path d="M2346.13 2229.39L2283.06 2240.26L2329.78 2511.3L2392.85 2500.43L2346.13 2229.39Z" fill="#EBEBEB"/>
<path d="M1764.88 2272.6H1700.88V2511.4H1764.88V2272.6Z" fill="#EBEBEB"/>
<path d="M1911.92 2272.6H1847.92V2511.4H1911.92V2272.6Z" fill="#EBEBEB"/>
<path d="M2283.04 2272.6H2219.04V2511.4H2283.04V2272.6Z" fill="#EBEBEB"/>
<path d="M2079.02 2264.34L2016.55 2278.22L2068.35 2511.33L2130.83 2497.45L2079.02 2264.34Z" fill="#EBEBEB"/>
<path d="M1820.16 2222.68H1788.16V2511.4H1820.16V2222.68Z" fill="#EBEBEB"/>
<path d="M2200.64 2222.68H2168.64V2511.4H2200.64V2222.68Z" fill="#EBEBEB"/>
<path d="M1610.19 2229.45L1547.12 2240.32L1593.84 2511.37L1656.91 2500.5L1610.19 2229.45Z" fill="#EBEBEB"/>
<path d="M1547.04 2272.6H1483.04V2511.4H1547.04V2272.6Z" fill="#EBEBEB"/>
<path d="M1343.03 2264.33L1280.56 2278.22L1332.36 2511.33L1394.84 2497.44L1343.03 2264.33Z" fill="#EBEBEB"/>
<path d="M1464.64 2222.68H1432.64V2511.4H1464.64V2222.68Z" fill="#EBEBEB"/>
<path d="M1427.76 1367.08V1344.28H1464.64C1441.88 1274.59 1437.23 1200.26 1451.12 1128.28C1451.12 1128.28 1450.56 1222.68 1487.04 1223.4C1543.04 1224.44 1547.04 1128.28 1547.04 1128.28C1547.04 1128.28 1560.48 1265.8 1510.4 1344.28H1548.64V1367.08H1427.76Z" fill="#E0E0E0"/>
<path d="M1531.44 1191.08C1531.44 1197.41 1529.56 1203.6 1526.05 1208.86C1522.53 1214.12 1517.53 1218.22 1511.69 1220.64C1505.84 1223.07 1499.4 1223.7 1493.2 1222.47C1486.99 1221.23 1481.29 1218.18 1476.81 1213.71C1472.34 1209.23 1469.29 1203.53 1468.05 1197.32C1466.82 1191.12 1467.45 1184.68 1469.88 1178.83C1472.3 1172.99 1476.4 1167.99 1481.66 1164.47C1486.92 1160.96 1493.11 1159.08 1499.44 1159.08C1507.93 1159.08 1516.07 1162.45 1522.07 1168.45C1528.07 1174.45 1531.44 1182.59 1531.44 1191.08Z" fill="#E0E0E0"/>
<path d="M1675.2 1367.08V1353.8L1714.24 1335.64L1694.72 1316.6L1743.2 1145.32V1252.28C1743.2 1252.28 1736.56 1252.28 1736.56 1267.64C1736.56 1283 1758.64 1279.48 1758.64 1266.76C1758.64 1254.04 1751.36 1252.28 1751.36 1252.28V1140.76L1795.76 1310.28L1775.84 1335.64L1815.84 1353.8V1367.08H1675.2Z" fill="#E0E0E0"/>
<path d="M1914 1367.08V1356.52L1949.92 1348.36V1191.08L1980.72 1148.04L2007.04 1181.72V1253.96L2020.64 1235L2039.68 1227.8L2053.28 1257.56L2024.24 1348.36L2053.28 1356.52V1367.08H1914Z" fill="#E0E0E0"/>
<path d="M2152.4 1371.88L2196.48 1148.04H2331.44L2299.44 1275L2346.72 1367.08L2152.4 1371.88Z" fill="#E0E0E0"/>
<path d="M3934.96 2643C3936.16 2635 3964.16 2441.64 3908.08 2374.92C3902.48 2367.89 3895.4 2362.18 3887.33 2358.21C3879.27 2354.24 3870.43 2352.11 3861.44 2351.96C3748.24 2349.32 3732.8 2439.96 3732.64 2441.16L3746 2443.24C3746.48 2439.96 3759.92 2363.24 3861.12 2365.48C3868.18 2365.57 3875.13 2367.24 3881.45 2370.37C3887.78 2373.5 3893.33 2378 3897.68 2383.56C3949.92 2445.72 3921.68 2639 3921.68 2641L3934.96 2643Z" fill="#EBEBEB"/>
<path d="M3942 2634.04L3955.52 2633.56C3955.52 2631.8 3951.04 2455.56 4037.84 2419.16C4122.96 2383.56 4161.2 2456.84 4162.8 2459.96L4174.88 2453.88C4174.48 2453 4129.52 2365.88 4032.64 2406.76C3937.04 2446.68 3941.52 2626.36 3942 2634.04Z" fill="#EBEBEB"/>
<path d="M3941.36 2647.88C3941.36 2645.08 3942.16 2366.36 3996.56 2284.84C4048.72 2206.52 4132.56 2243.4 4136.4 2244.84L4142 2232.52C4141.04 2232.52 4043.92 2189.24 3985.28 2277.16C3928.72 2362.04 3927.84 2636.04 3927.84 2647.72L3941.36 2647.88Z" fill="#EBEBEB"/>
<path d="M3845.28 2358.52C3845.28 2358.52 3894.72 2376.76 3880 2419.72C3865.28 2462.68 3708.96 2533.56 3708.96 2533.56C3708.96 2533.56 3643.52 2473.56 3703.68 2375.96C3763.84 2278.36 3843.92 2327.72 3845.28 2358.52Z" fill="#E0E0E0"/>
<path d="M3998.96 2270.12C3998.96 2270.12 3963.92 2266.36 3966.96 2245C3970 2223.64 4103.36 2168.6 4182.24 2257.56C4182.24 2257.56 4131.76 2344.28 4058.8 2345.56C3985.84 2346.84 3998.96 2270.12 3998.96 2270.12Z" fill="#E0E0E0"/>
<path d="M4035.04 2412.92C4035.04 2412.92 4011.04 2393.4 4036.96 2383.88C4062.88 2374.36 4191.36 2377 4192.64 2503.88C4192.64 2503.88 4043.28 2528.76 4024.64 2480.36C4006 2431.96 4035.04 2412.92 4035.04 2412.92Z" fill="#E0E0E0"/>
<path d="M3818.72 2901.64H4050.56L4075.52 2647.88H3793.68L3818.72 2901.64Z" fill="#EBEBEB"/>
<path d="M3781.36 2675.8H4087.92V2619.8H3781.36V2675.8Z" fill="#E0E0E0"/>
<path d="M2686 3255.48C3542.66 3255.48 4237.12 3214.93 4237.12 3164.92C4237.12 3114.9 3542.66 3074.36 2686 3074.36C1829.34 3074.36 1134.88 3114.9 1134.88 3164.92C1134.88 3214.93 1829.34 3255.48 2686 3255.48Z" fill="#F5F5F5"/>
<path d="M2564.4 978.52H1510.64C1464.69 978.52 1427.44 1015.77 1427.44 1061.72V3089.96C1427.44 3135.91 1464.69 3173.16 1510.64 3173.16H2564.4C2610.35 3173.16 2647.6 3135.91 2647.6 3089.96V1061.72C2647.6 1015.77 2610.35 978.52 2564.4 978.52Z" fill="#263238"/>
<path d="M2606.8 1052.04V3095.72C2606.8 3099.68 2606.01 3103.6 2604.48 3107.25C2602.95 3110.9 2600.71 3114.21 2597.89 3116.99C2595.07 3119.77 2591.72 3121.96 2588.05 3123.43C2584.37 3124.9 2580.44 3125.62 2576.48 3125.56H1496.48C1492.88 3125.6 1489.31 3124.92 1485.99 3123.55C1482.66 3122.18 1479.64 3120.16 1477.12 3117.6C1474.59 3115.03 1472.61 3111.99 1471.29 3108.64C1469.97 3105.29 1469.34 3101.72 1469.44 3098.12V1049.56C1469.3 1046.39 1469.79 1043.22 1470.89 1040.24C1471.98 1037.26 1473.65 1034.52 1475.81 1032.2C1477.97 1029.87 1480.57 1027.99 1483.46 1026.67C1486.35 1025.35 1489.47 1024.62 1492.64 1024.52H1762.72C1766.5 1024.59 1770.16 1025.78 1773.26 1027.95C1776.35 1030.11 1778.73 1033.15 1780.08 1036.68L1791.28 1064.2C1792.66 1067.69 1795.05 1070.7 1798.14 1072.84C1801.23 1074.97 1804.88 1076.14 1808.64 1076.2H2268.48C2272.23 1076.18 2275.9 1075.05 2279.01 1072.94C2282.11 1070.83 2284.52 1067.84 2285.92 1064.36L2297.12 1036.68C2298.48 1033.16 2300.86 1030.13 2303.95 1027.96C2307.04 1025.8 2310.71 1024.6 2314.48 1024.52H2580.72C2587.79 1024.83 2594.46 1027.87 2599.32 1033.01C2604.19 1038.14 2606.87 1044.97 2606.8 1052.04Z" fill="#90CAF9"/>
<path opacity="0.3" d="M2606.88 1152.2H1469.04V2989.8H2606.88V1152.2Z" fill="white"/>
<path opacity="0.6" d="M2027.76 1027C2027.76 1030.18 2026.81 1033.29 2025.03 1035.93C2023.26 1038.57 2020.73 1040.62 2017.79 1041.82C2014.84 1043.01 2011.6 1043.31 2008.49 1042.66C2005.37 1042.01 2002.52 1040.44 2000.3 1038.16C1998.08 1035.89 1996.59 1033 1996.02 1029.87C1995.45 1026.74 1995.82 1023.51 1997.1 1020.59C1998.37 1017.68 2000.48 1015.21 2003.16 1013.5C2005.85 1011.79 2008.98 1010.92 2012.16 1011C2016.33 1011.1 2020.3 1012.84 2023.22 1015.82C2026.13 1018.81 2027.76 1022.82 2027.76 1027Z" fill="white"/>
<path opacity="0.6" d="M2059.36 1027C2059.36 1028.98 2058.77 1030.91 2057.67 1032.56C2056.58 1034.2 2055.01 1035.48 2053.19 1036.24C2051.36 1037 2049.35 1037.19 2047.41 1036.81C2045.47 1036.42 2043.69 1035.47 2042.29 1034.07C2040.89 1032.67 2039.94 1030.89 2039.55 1028.95C2039.17 1027.01 2039.36 1025 2040.12 1023.17C2040.88 1021.35 2042.16 1019.78 2043.8 1018.69C2045.45 1017.59 2047.38 1017 2049.36 1017C2052.01 1017 2054.56 1018.05 2056.43 1019.93C2058.31 1021.8 2059.36 1024.35 2059.36 1027Z" fill="white"/>
<path opacity="0.6" d="M2553.12 1230.36H1510.4V1854.36H2553.12V1230.36Z" fill="black"/>
<path opacity="0.5" d="M2553.12 1837.64H1510.4V1854.36H2553.12V1837.64Z" fill="black"/>
<path opacity="0.6" d="M1548.32 1837.64H1510.32V1854.36H1548.32V1837.64Z" fill="white"/>
<path opacity="0.3" d="M2315.36 1274.36H2278.32C2274.61 1274.36 2271.6 1277.37 2271.6 1281.08V1318.12C2271.6 1321.83 2274.61 1324.84 2278.32 1324.84H2315.36C2319.07 1324.84 2322.08 1321.83 2322.08 1318.12V1281.08C2322.08 1277.37 2319.07 1274.36 2315.36 1274.36Z" fill="black"/>
<path d="M2333.6 1260.92H2296.56C2292.85 1260.92 2289.84 1263.93 2289.84 1267.64V1304.68C2289.84 1308.39 2292.85 1311.4 2296.56 1311.4H2333.6C2337.31 1311.4 2340.32 1308.39 2340.32 1304.68V1267.64C2340.32 1263.93 2337.31 1260.92 2333.6 1260.92Z" fill="#90CAF9"/>
<path d="M1567.92 1846.52C1567.92 1850.44 1566.76 1854.28 1564.58 1857.54C1562.4 1860.8 1559.3 1863.35 1555.67 1864.85C1552.05 1866.35 1548.06 1866.74 1544.21 1865.98C1540.36 1865.21 1536.83 1863.32 1534.05 1860.55C1531.28 1857.77 1529.39 1854.24 1528.62 1850.39C1527.86 1846.54 1528.25 1842.55 1529.75 1838.93C1531.25 1835.3 1533.79 1832.2 1537.06 1830.02C1540.32 1827.84 1544.16 1826.68 1548.08 1826.68C1553.34 1826.68 1558.39 1828.77 1562.11 1832.49C1565.83 1836.21 1567.92 1841.26 1567.92 1846.52Z" fill="white"/>
<path d="M2370.4 1320.36C2371.84 1310.02 2376.22 1300.31 2383.01 1292.39C2389.8 1284.46 2398.72 1278.65 2408.72 1275.64V1265.4L2430.48 1281.4L2410.64 1299V1288.76C2410.64 1288.76 2378 1296.68 2370.4 1320.36Z" fill="#90CAF9"/>
<path d="M2496.96 1269.88C2496.96 1271.21 2496.57 1272.51 2495.83 1273.61C2495.09 1274.72 2494.04 1275.58 2492.81 1276.09C2491.58 1276.6 2490.23 1276.73 2488.93 1276.47C2487.63 1276.21 2486.43 1275.57 2485.49 1274.63C2484.55 1273.69 2483.91 1272.49 2483.65 1271.19C2483.39 1269.89 2483.52 1268.54 2484.03 1267.31C2484.54 1266.08 2485.4 1265.03 2486.51 1264.29C2487.61 1263.55 2488.91 1263.16 2490.24 1263.16C2492.02 1263.18 2493.71 1263.9 2494.97 1265.15C2496.22 1266.41 2496.94 1268.1 2496.96 1269.88Z" fill="#90CAF9"/>
<path d="M2490.24 1299.64C2493.95 1299.64 2496.96 1296.63 2496.96 1292.92C2496.96 1289.21 2493.95 1286.2 2490.24 1286.2C2486.53 1286.2 2483.52 1289.21 2483.52 1292.92C2483.52 1296.63 2486.53 1299.64 2490.24 1299.64Z" fill="#90CAF9"/>
<path d="M2490.24 1322.6C2493.95 1322.6 2496.96 1319.59 2496.96 1315.88C2496.96 1312.17 2493.95 1309.16 2490.24 1309.16C2486.53 1309.16 2483.52 1312.17 2483.52 1315.88C2483.52 1319.59 2486.53 1322.6 2490.24 1322.6Z" fill="#90CAF9"/>
<path opacity="0.6" d="M2024.96 1989.72H1526C1521.76 1989.72 1517.69 1988.04 1514.69 1985.03C1511.69 1982.03 1510 1977.96 1510 1973.72C1510.1 1969.55 1511.84 1965.58 1514.83 1962.67C1517.81 1959.75 1521.82 1958.12 1526 1958.12H2024.96C2029.14 1958.12 2033.15 1959.75 2036.13 1962.67C2039.12 1965.58 2040.86 1969.55 2040.96 1973.72C2040.96 1977.96 2039.27 1982.03 2036.27 1985.03C2033.27 1988.04 2029.2 1989.72 2024.96 1989.72Z" fill="white"/>
<path opacity="0.6" d="M2180.16 1928.68H1526C1521.76 1928.68 1517.69 1926.99 1514.69 1923.99C1511.69 1920.99 1510 1916.92 1510 1912.68C1510 1908.44 1511.69 1904.37 1514.69 1901.37C1517.69 1898.37 1521.76 1896.68 1526 1896.68H2180.16C2184.4 1896.68 2188.47 1898.37 2191.47 1901.37C2194.47 1904.37 2196.16 1908.44 2196.16 1912.68C2196.16 1916.92 2194.47 1920.99 2191.47 1923.99C2188.47 1926.99 2184.4 1928.68 2180.16 1928.68Z" fill="white"/>
<path opacity="0.4" d="M2472.72 1897.32L2505.28 1929.88L2537.84 1897.32H2472.72Z" fill="white"/>
<path opacity="0.4" d="M2553.12 2063.32H1510.4V2450.52H2553.12V2063.32Z" fill="white"/>
<path opacity="0.5" d="M2283.12 2125.08H2089.76C2086 2125.08 2082.4 2123.59 2079.75 2120.93C2077.09 2118.28 2075.6 2114.68 2075.6 2110.92C2075.6 2107.16 2077.09 2103.56 2079.75 2100.91C2082.4 2098.25 2086 2096.76 2089.76 2096.76H2283.12C2286.88 2096.76 2290.48 2098.25 2293.13 2100.91C2295.79 2103.56 2297.28 2107.16 2297.28 2110.92C2297.28 2114.68 2295.79 2118.28 2293.13 2120.93C2290.48 2123.59 2286.88 2125.08 2283.12 2125.08Z" fill="white"/>
<path opacity="0.5" d="M2464.08 2183.24H2089.76C2086 2183.24 2082.4 2181.75 2079.75 2179.09C2077.09 2176.44 2075.6 2172.84 2075.6 2169.08C2075.6 2165.32 2077.09 2161.72 2079.75 2159.07C2082.4 2156.41 2086 2154.92 2089.76 2154.92H2464.08C2467.84 2154.92 2471.44 2156.41 2474.09 2159.07C2476.75 2161.72 2478.24 2165.32 2478.24 2169.08C2478.24 2170.94 2477.87 2172.78 2477.16 2174.5C2476.45 2176.22 2475.41 2177.78 2474.09 2179.09C2472.78 2180.41 2471.22 2181.45 2469.5 2182.16C2467.78 2182.87 2465.94 2183.24 2464.08 2183.24Z" fill="white"/>
<path opacity="0.6" d="M2016.88 2096.76H1548.88V2417.08H2016.88V2096.76Z" fill="black"/>
<path opacity="0.4" d="M2553.12 2496.44H1510.4V2883.64H2553.12V2496.44Z" fill="white"/>
<path opacity="0.5" d="M2283.12 2558.2H2089.76C2086 2558.2 2082.4 2556.71 2079.75 2554.05C2077.09 2551.4 2075.6 2547.8 2075.6 2544.04C2075.6 2540.29 2077.09 2536.68 2079.75 2534.03C2082.4 2531.37 2086 2529.88 2089.76 2529.88H2283.12C2286.88 2529.88 2290.48 2531.37 2293.13 2534.03C2295.79 2536.68 2297.28 2540.29 2297.28 2544.04C2297.28 2547.8 2295.79 2551.4 2293.13 2554.05C2290.48 2556.71 2286.88 2558.2 2283.12 2558.2Z" fill="white"/>
<path opacity="0.5" d="M2464.08 2616.36H2089.76C2086 2616.36 2082.4 2614.87 2079.75 2612.21C2077.09 2609.56 2075.6 2605.95 2075.6 2602.2C2075.6 2598.44 2077.09 2594.84 2079.75 2592.19C2082.4 2589.53 2086 2588.04 2089.76 2588.04H2464.08C2467.79 2588.1 2471.33 2589.62 2473.94 2592.27C2476.54 2594.92 2478 2598.48 2478 2602.2C2478 2605.91 2476.54 2609.48 2473.94 2612.13C2471.33 2614.78 2467.79 2616.3 2464.08 2616.36Z" fill="white"/>
<path opacity="0.6" d="M2016.88 2529.88H1548.88V2850.2H2016.88V2529.88Z" fill="black"/>
<path opacity="0.6" d="M1597.28 1106.84H1611.36V1088.12H1597.28V1106.84Z" fill="white"/>
<path opacity="0.6" d="M1574.4 1106.84H1588.48V1081.88H1574.4V1106.84Z" fill="white"/>
<path opacity="0.6" d="M1551.52 1106.84H1565.6V1075.64H1551.52V1106.84Z" fill="white"/>
<path opacity="0.6" d="M1528.56 1106.84H1542.64V1069.32H1528.56V1106.84Z" fill="white"/>
<path opacity="0.6" d="M2480.96 1081.32H2472.64V1100.04H2480.96V1081.32Z" fill="white"/>
<path opacity="0.6" d="M2486.64 1106.84H2553.04V1074.44H2486.64V1106.84Z" fill="white"/>
<path d="M1818.64 1601.8C1818.66 1589.89 1823.41 1578.48 1831.84 1570.06C1840.27 1561.65 1851.69 1556.92 1863.6 1556.92C1867.97 1556.9 1872.31 1557.55 1876.48 1558.84C1875.81 1554.26 1875.46 1549.63 1875.44 1545C1875.46 1519.79 1885.49 1495.61 1903.33 1477.79C1921.16 1459.97 1945.35 1449.96 1970.56 1449.96C1976.44 1449.96 1982.3 1450.5 1988.08 1451.56C1997.49 1436.25 2011.61 1424.4 2028.32 1417.79C2045.03 1411.18 2063.44 1410.17 2080.77 1414.9C2098.11 1419.63 2113.45 1429.85 2124.49 1444.03C2135.53 1458.21 2141.67 1475.59 2142 1493.56H2143.36C2163.69 1493.56 2183.18 1501.64 2197.55 1516.01C2211.93 1530.38 2220 1549.87 2220 1570.2C2220 1590.53 2211.93 1610.02 2197.55 1624.39C2183.18 1638.77 2163.69 1646.84 2143.36 1646.84H1862C1850.34 1646.43 1839.3 1641.5 1831.21 1633.09C1823.12 1624.69 1818.61 1613.47 1818.64 1601.8Z" fill="#263238"/>
<path d="M1719.28 2191.24V2319.72L1842.96 2255.48L1719.28 2191.24Z" fill="white"/>
<path d="M1719.28 2620.6V2749.08L1842.96 2684.84L1719.28 2620.6Z" fill="white"/>
<path opacity="0.2" d="M2019.44 1468.68C2004.31 1468.68 1989.53 1473.17 1976.95 1481.57C1964.37 1489.97 1954.57 1501.92 1948.78 1515.89C1942.99 1529.87 1941.48 1545.24 1944.43 1560.08C1947.38 1574.92 1954.66 1588.54 1965.36 1599.24C1976.06 1609.94 1989.68 1617.22 2004.52 1620.17C2019.36 1623.12 2034.73 1621.61 2048.71 1615.82C2062.68 1610.03 2074.63 1600.23 2083.03 1587.65C2091.43 1575.07 2095.92 1560.29 2095.92 1545.16C2095.92 1524.88 2087.86 1505.42 2073.52 1491.08C2059.18 1476.74 2039.72 1468.68 2019.44 1468.68ZM2019.44 1610.44C2006.53 1610.44 1993.91 1606.61 1983.17 1599.44C1972.44 1592.26 1964.07 1582.07 1959.13 1570.14C1954.19 1558.21 1952.9 1545.09 1955.41 1532.42C1957.93 1519.76 1964.15 1508.13 1973.28 1499C1982.41 1489.87 1994.04 1483.65 2006.7 1481.13C2019.37 1478.62 2032.49 1479.91 2044.42 1484.85C2056.35 1489.79 2066.55 1498.16 2073.72 1508.89C2080.89 1519.63 2084.72 1532.25 2084.72 1545.16C2084.72 1562.47 2077.84 1579.08 2065.6 1591.32C2053.36 1603.56 2036.75 1610.44 2019.44 1610.44Z" fill="white"/>
<path opacity="0.2" d="M1966 1491C1953.63 1503.27 1945.82 1519.41 1943.88 1536.73C1941.94 1554.05 1945.98 1571.52 1955.33 1586.23C1964.68 1600.94 1978.78 1612.01 1995.28 1617.6C2011.79 1623.19 2029.72 1622.97 2046.08 1616.98C2062.45 1610.98 2076.27 1599.57 2085.26 1584.64C2094.25 1569.71 2097.86 1552.15 2095.5 1534.88C2093.13 1517.61 2084.94 1501.67 2072.27 1489.7C2059.6 1477.73 2043.21 1470.46 2025.84 1469.08C2025.07 1469.01 2024.28 1469.11 2023.55 1469.36C2022.81 1469.61 2022.14 1470.01 2021.57 1470.54C2020.99 1471.07 2020.54 1471.71 2020.23 1472.42C2019.92 1473.13 2019.76 1473.9 2019.76 1474.68C2019.75 1476.07 2020.27 1477.42 2021.2 1478.45C2022.13 1479.49 2023.41 1480.14 2024.8 1480.28C2039.69 1481.38 2053.75 1487.55 2064.65 1497.75C2075.54 1507.96 2082.62 1521.59 2084.69 1536.37C2086.77 1551.15 2083.72 1566.2 2076.06 1579.01C2068.4 1591.83 2056.58 1601.63 2042.57 1606.79C2028.56 1611.95 2013.21 1612.16 1999.06 1607.39C1984.92 1602.61 1972.84 1593.14 1964.82 1580.54C1956.81 1567.95 1953.35 1552.99 1955.02 1538.15C1956.69 1523.32 1963.39 1509.5 1974 1499C1974.95 1497.98 1975.48 1496.63 1975.48 1495.24C1975.48 1493.84 1974.95 1492.5 1974 1491.48C1973.52 1490.9 1972.92 1490.43 1972.25 1490.1C1971.58 1489.76 1970.85 1489.56 1970.1 1489.52C1969.35 1489.47 1968.6 1489.58 1967.9 1489.84C1967.19 1490.09 1966.55 1490.49 1966 1491Z" fill="white"/>
<path d="M2000.72 1551.64C2000.72 1556.76 1996.32 1559.64 1989.36 1559.64C1982.4 1559.64 1978.16 1556.44 1978.16 1551.64C1978.13 1549.98 1978.67 1548.36 1979.69 1547.05C1980.71 1545.74 1982.15 1544.82 1983.76 1544.44C1982.4 1544.02 1981.22 1543.17 1980.4 1542.01C1979.58 1540.85 1979.15 1539.46 1979.2 1538.04C1979.2 1533.32 1983.2 1530.04 1989.36 1530.04C1995.52 1530.04 1999.68 1533 1999.68 1538.04C1999.71 1539.47 1999.27 1540.86 1998.43 1542.02C1997.6 1543.17 1996.4 1544.02 1995.04 1544.44C1996.66 1544.83 1998.09 1545.75 1999.12 1547.06C2000.15 1548.36 2000.71 1549.98 2000.72 1551.64ZM1997.6 1551.64C1997.6 1548.12 1994.56 1545.88 1989.6 1545.88C1984.64 1545.88 1981.6 1548.12 1981.6 1551.64C1981.6 1555.16 1984.64 1557.56 1989.6 1557.56C1994.56 1557.56 1998 1555 1998 1551.56L1997.6 1551.64ZM1989.6 1543.64C1994.16 1543.64 1996.88 1541.56 1996.88 1538.44C1996.88 1535.32 1994 1533.16 1989.6 1533.16C1985.2 1533.16 1982.4 1535.16 1982.4 1538.36C1982.4 1541.56 1984.88 1543.4 1989.36 1543.4L1989.6 1543.64Z" fill="white"/>
<path d="M2025.84 1544.92C2025.84 1554.84 2020.4 1559.96 2012.56 1559.96C2010.14 1560.06 2007.74 1559.51 2005.6 1558.36L2006.88 1555.96C2008.56 1556.98 2010.52 1557.45 2012.48 1557.32C2018.8 1557.32 2022.8 1553.32 2022.8 1545.4C2022.87 1544.63 2022.87 1543.85 2022.8 1543.08C2021.97 1544.69 2020.69 1546.02 2019.11 1546.9C2017.53 1547.78 2015.72 1548.18 2013.92 1548.04C2012.69 1548.18 2011.45 1548.05 2010.28 1547.67C2009.1 1547.3 2008.02 1546.68 2007.1 1545.86C2006.18 1545.03 2005.44 1544.03 2004.93 1542.9C2004.43 1541.78 2004.16 1540.56 2004.16 1539.32C2004.17 1538.06 2004.43 1536.82 2004.95 1535.67C2005.46 1534.52 2006.21 1533.49 2007.14 1532.65C2008.07 1531.81 2009.17 1531.17 2010.37 1530.77C2011.56 1530.38 2012.83 1530.24 2014.08 1530.36C2022 1530.36 2025.84 1535.72 2025.84 1544.92ZM2022 1539C2022 1535.8 2019.28 1532.76 2014 1532.76C2013.11 1532.66 2012.21 1532.75 2011.36 1533.02C2010.51 1533.29 2009.72 1533.74 2009.06 1534.34C2008.39 1534.93 2007.86 1535.67 2007.5 1536.48C2007.14 1537.3 2006.95 1538.19 2006.96 1539.08C2006.96 1542.92 2009.76 1545.32 2014.24 1545.32C2015.17 1545.47 2016.13 1545.42 2017.04 1545.17C2017.95 1544.93 2018.8 1544.49 2019.53 1543.89C2020.26 1543.3 2020.86 1542.55 2021.29 1541.71C2021.71 1540.87 2021.96 1539.94 2022 1539Z" fill="white"/>
<path d="M2030 1538.28C2030 1533.56 2032.64 1530.28 2036.56 1530.28C2040.48 1530.28 2043.12 1533.4 2043.12 1538.28C2043.12 1543.16 2040.4 1546.28 2036.56 1546.28C2032.72 1546.28 2030 1543.08 2030 1538.28ZM2041.04 1538.28C2041.04 1534.52 2039.28 1532.28 2036.56 1532.28C2033.84 1532.28 2032.08 1534.6 2032.08 1538.28C2032.08 1541.96 2033.84 1544.36 2036.56 1544.36C2039.28 1544.36 2040.8 1542.12 2040.8 1538.28H2041.04ZM2054.16 1530.28H2056.64L2036.72 1559.4H2034.32L2054.16 1530.28ZM2047.84 1551.72C2047.84 1547 2050.48 1543.72 2054.4 1543.72C2058.32 1543.72 2060.96 1546.92 2060.96 1551.72C2060.96 1556.52 2058.32 1559.72 2054.4 1559.72C2050.48 1559.72 2047.6 1556.76 2047.6 1552.04L2047.84 1551.72ZM2058.88 1551.72C2058.88 1547.96 2057.12 1545.72 2054.4 1545.72C2051.68 1545.72 2049.92 1547.96 2049.92 1551.72C2049.92 1555.48 2051.68 1557.72 2054.4 1557.72C2057.12 1557.72 2058.64 1555.8 2058.64 1552.04L2058.88 1551.72Z" fill="white"/>
<path d="M3187.92 689.24H3129.36V722.68H3187.92V689.24Z" fill="#90CAF9"/>
<path d="M3090 689.24H3031.44V722.68H3090V689.24Z" fill="#90CAF9"/>
<path d="M2992 689.24H2933.44V722.68H2992V689.24Z" fill="#90CAF9"/>
<path d="M2894 689.24H2835.44V722.68H2894V689.24Z" fill="#90CAF9"/>
<path d="M2796.08 689.24H2737.52V722.68H2796.08V689.24Z" fill="#90CAF9"/>
<path d="M2698.08 689.24H2639.52V722.68H2698.08V689.24Z" fill="#90CAF9"/>
<path d="M2600.16 689.24H2541.6V722.68H2600.16V689.24Z" fill="#90CAF9"/>
<path d="M2502.16 689.24H2443.6V722.68H2502.16V689.24Z" fill="#90CAF9"/>
<path d="M2404.16 689.24H2345.6V722.68H2404.16V689.24Z" fill="#90CAF9"/>
<path d="M2306.24 689.24H2247.68V722.68H2306.24V689.24Z" fill="#90CAF9"/>
<path d="M1790 746.359C1789.99 738.15 1791.9 730.051 1795.58 722.713C1799.26 715.374 1804.6 709 1811.19 704.1C1817.78 699.201 1825.42 695.912 1833.51 694.499C1841.6 693.085 1849.9 693.585 1857.76 695.959C1857.03 690.657 1856.66 685.312 1856.64 679.959C1856.64 650.382 1868.39 622.017 1889.3 601.103C1910.22 580.189 1938.58 568.439 1968.16 568.439C1975.06 568.425 1981.94 569.067 1988.72 570.359C1999.7 552.259 2016.28 538.225 2035.95 530.378C2055.61 522.532 2077.3 521.298 2097.72 526.863C2118.15 532.429 2136.21 544.491 2149.18 561.229C2162.15 577.966 2169.31 598.469 2169.6 619.639H2171.2C2194.57 620.337 2216.76 630.112 2233.04 646.892C2249.33 663.671 2258.44 686.135 2258.44 709.519C2258.44 732.903 2249.33 755.367 2233.04 772.147C2216.76 788.927 2194.57 798.702 2171.2 799.399H1841.52C1827.68 799.105 1814.52 793.375 1804.88 783.448C1795.24 773.522 1789.89 760.197 1790 746.359Z" fill="#90CAF9"/>
<path opacity="0.6" d="M1790 746.359C1789.99 738.15 1791.9 730.051 1795.58 722.713C1799.26 715.374 1804.6 709 1811.19 704.1C1817.78 699.201 1825.42 695.912 1833.51 694.499C1841.6 693.085 1849.9 693.585 1857.76 695.959C1857.03 690.657 1856.66 685.312 1856.64 679.959C1856.64 650.382 1868.39 622.017 1889.3 601.103C1910.22 580.189 1938.58 568.439 1968.16 568.439C1975.06 568.425 1981.94 569.067 1988.72 570.359C1999.7 552.259 2016.28 538.225 2035.95 530.378C2055.61 522.532 2077.3 521.298 2097.72 526.863C2118.15 532.429 2136.21 544.491 2149.18 561.229C2162.15 577.966 2169.31 598.469 2169.6 619.639H2171.2C2194.57 620.337 2216.76 630.112 2233.04 646.892C2249.33 663.671 2258.44 686.135 2258.44 709.519C2258.44 732.903 2249.33 755.367 2233.04 772.147C2216.76 788.927 2194.57 798.702 2171.2 799.399H1841.52C1827.68 799.105 1814.52 793.375 1804.88 783.448C1795.24 773.522 1789.89 760.197 1790 746.359Z" fill="white"/>
<path d="M2069.12 825.719V679.799H2002.16V825.719H1947.68L2035.6 936.199L2123.6 825.719H2069.12Z" fill="#90CAF9"/>
<path d="M3056.16 746.36C3056.15 738.15 3058.06 730.052 3061.74 722.713C3065.42 715.375 3070.76 709 3077.35 704.101C3083.94 699.201 3091.58 695.913 3099.67 694.499C3107.76 693.085 3116.06 693.585 3123.92 695.96C3123.17 690.659 3122.77 685.314 3122.72 679.96C3122.85 650.339 3134.7 621.974 3155.69 601.074C3176.68 580.173 3205.1 568.439 3234.72 568.44C3241.62 568.425 3248.5 569.068 3255.28 570.36C3266.28 552.297 3282.85 538.299 3302.5 530.477C3322.15 522.656 3343.81 521.433 3364.22 526.995C3384.62 532.556 3402.66 544.6 3415.63 561.311C3428.59 578.022 3435.77 598.493 3436.08 619.64H3437.76C3461.13 620.337 3483.32 630.112 3499.6 646.892C3515.89 663.672 3525 686.136 3525 709.52C3525 732.904 3515.89 755.368 3499.6 772.147C3483.32 788.927 3461.13 798.702 3437.76 799.4H3107.36C3093.58 799.023 3080.5 793.256 3070.93 783.339C3061.35 773.421 3056.05 760.144 3056.16 746.36Z" fill="#90CAF9"/>
<path opacity="0.6" d="M3056.16 746.36C3056.15 738.15 3058.06 730.052 3061.74 722.713C3065.42 715.375 3070.76 709 3077.35 704.101C3083.94 699.201 3091.58 695.913 3099.67 694.499C3107.76 693.085 3116.06 693.585 3123.92 695.96C3123.17 690.659 3122.77 685.314 3122.72 679.96C3122.85 650.339 3134.7 621.974 3155.69 601.074C3176.68 580.173 3205.1 568.439 3234.72 568.44C3241.62 568.425 3248.5 569.068 3255.28 570.36C3266.28 552.297 3282.85 538.299 3302.5 530.477C3322.15 522.656 3343.81 521.433 3364.22 526.995C3384.62 532.556 3402.66 544.6 3415.63 561.311C3428.59 578.022 3435.77 598.493 3436.08 619.64H3437.76C3461.13 620.337 3483.32 630.112 3499.6 646.892C3515.89 663.672 3525 686.136 3525 709.52C3525 732.904 3515.89 755.368 3499.6 772.147C3483.32 788.927 3461.13 798.702 3437.76 799.4H3107.36C3093.58 799.023 3080.5 793.256 3070.93 783.339C3061.35 773.421 3056.05 760.144 3056.16 746.36Z" fill="white"/>
<path d="M3268 747.48V1373.4H3334.96V747.48H3389.44L3301.44 637L3213.44 747.48H3268Z" fill="#90CAF9"/>
<path d="M3158 1290.28V1486.84H3445.12V1290.28H3158ZM3179.6 1473.64H3164.56V1459H3179.6V1473.64ZM3179.6 1442.6H3164.56V1427.56H3179.6V1442.6ZM3179.6 1411.56H3164.56V1396.6H3179.6V1411.56ZM3179.6 1380.52H3164.56V1365.56H3179.6V1380.52ZM3179.6 1349.48H3164.56V1334.52H3179.6V1349.48ZM3179.6 1318.44H3164.56V1303.48H3179.6V1318.44ZM3438.48 1473.64H3423.52V1459H3438.48V1473.64ZM3438.48 1442.6H3423.52V1427.56H3438.48V1442.6ZM3438.48 1411.56H3423.52V1396.6H3438.48V1411.56ZM3438.48 1380.52H3423.52V1365.56H3438.48V1380.52ZM3438.48 1349.48H3423.52V1334.52H3438.48V1349.48ZM3438.48 1318.44H3423.52V1303.48H3438.48V1318.44Z" fill="#263238"/>
<path d="M3263.52 1349.16V1427.96L3339.44 1388.52L3263.52 1349.16Z" fill="white"/>
<path d="M3961.2 2653.48H3103.04V2554.76C3103.04 2545.85 3106.58 2537.3 3112.88 2531C3119.18 2524.7 3127.73 2521.16 3136.64 2521.16H3927.52C3936.43 2521.16 3944.98 2524.7 3951.28 2531C3957.58 2537.3 3961.12 2545.85 3961.12 2554.76V2653.48H3961.2Z" fill="#90CAF9"/>
<path opacity="0.6" d="M3961.2 2653.48H3103.04V2554.76C3103.04 2545.85 3106.58 2537.3 3112.88 2531C3119.18 2524.7 3127.73 2521.16 3136.64 2521.16H3927.52C3936.43 2521.16 3944.98 2524.7 3951.28 2531C3957.58 2537.3 3961.12 2545.85 3961.12 2554.76V2653.48H3961.2Z" fill="white"/>
<path opacity="0.6" d="M3961.2 2653.48H3650.24V2554.76C3650.24 2545.85 3653.78 2537.3 3660.08 2531C3666.38 2524.7 3674.93 2521.16 3683.84 2521.16H3927.52C3936.43 2521.16 3944.98 2524.7 3951.28 2531C3957.58 2537.3 3961.12 2545.85 3961.12 2554.76V2653.48H3961.2Z" fill="white"/>
<path d="M3369.76 3173.16H3395.28L3412.32 2646.2H3369.76V3173.16Z" fill="#2E353A"/>
<path d="M3937.28 3173.16H3962.8V2646.2H3920.24L3937.28 3173.16Z" fill="#2E353A"/>
<path d="M3678.64 3173.16H3704.16V2646.2H3661.6L3678.64 3173.16Z" fill="#2E353A"/>
<path d="M3111.12 3173.16H3136.64L3153.68 2646.2H3111.12V3173.16Z" fill="#2E353A"/>
<path d="M3971.44 2646.2H3082.64C3076.23 2646.2 3071.04 2651.39 3071.04 2657.8V2702.12C3071.04 2708.53 3076.23 2713.72 3082.64 2713.72H3971.44C3977.85 2713.72 3983.04 2708.53 3983.04 2702.12V2657.8C3983.04 2651.39 3977.85 2646.2 3971.44 2646.2Z" fill="#90CAF9"/>
<path opacity="0.3" d="M3971.44 2646.2H3082.64C3076.23 2646.2 3071.04 2651.39 3071.04 2657.8V2702.12C3071.04 2708.53 3076.23 2713.72 3082.64 2713.72H3971.44C3977.85 2713.72 3983.04 2708.53 3983.04 2702.12V2657.8C3983.04 2651.39 3977.85 2646.2 3971.44 2646.2Z" fill="white"/>
<path d="M3530.16 1859C3480 1867 3431.36 2021.16 3410.16 2033.96C3388.96 2046.76 3407.28 1889.32 3407.28 1889.32L3367.28 1883.88C3367.28 1883.88 3319.76 2121.64 3389.12 2119.96C3441.92 2118.6 3504.8 2030.28 3520.24 1985.4L3530.16 1859Z" fill="#EBB376"/>
<path opacity="0.1" d="M3530.16 1859C3480 1867 3431.36 2021.16 3410.16 2033.96C3388.96 2046.76 3407.28 1889.32 3407.28 1889.32L3367.28 1883.88C3367.28 1883.88 3319.76 2121.64 3389.12 2119.96C3441.92 2118.6 3504.8 2030.28 3520.24 1985.4L3530.16 1859Z" fill="black"/>
<path d="M3196 3101.48L3241.44 3096.92L3242.56 3032.84L3243.44 2974.04L3188.64 2970.68L3192.48 3039.96L3196 3101.48Z" fill="#EBB376"/>
<path d="M3254 3096.6C3254.56 3091.56 3192.72 3086.92 3192.72 3086.92C3192.72 3086.92 3149.68 3120.04 3111.84 3123.56C3074 3127.08 3091.36 3151.88 3132.32 3157.64L3233.6 3171.72C3262 3175.8 3247.6 3148.44 3254 3096.6Z" fill="#2E353A"/>
<path opacity="0.2" d="M3192.64 3041.32L3242.64 3034.04L3243.52 2974.68L3188.64 2971L3192.64 3041.32Z" fill="black"/>
<path d="M3107.68 2485.56C3119.68 2417.32 3172.4 2347.96 3531.68 2289.24L3699.04 2540.68C3699.04 2540.68 3494.4 2529.16 3271.44 2529.16C3271.44 2529.16 3262.88 2802.84 3249.92 3006.68L3183.92 3007.96C3183.92 3007.96 3095.6 2553.72 3107.68 2485.56Z" fill="#2E353A"/>
<path opacity="0.3" d="M3107.68 2485.56C3119.68 2417.32 3172.4 2347.96 3531.68 2289.24L3699.04 2540.68C3699.04 2540.68 3494.4 2529.16 3271.44 2529.16C3271.44 2529.16 3262.88 2802.84 3249.92 3006.68L3183.92 3007.96C3183.92 3007.96 3095.6 2553.72 3107.68 2485.56Z" fill="black"/>
<path d="M3444.88 3108.04L3489.12 3096.68L3480.64 3033.16L3472.72 2974.92L3418 2979.88L3432.16 3047.72L3444.88 3108.04Z" fill="#EBB376"/>
<path d="M3501.12 3094.52C3501.12 3089.48 3439.04 3094.52 3439.04 3094.52C3439.04 3094.52 3401.44 3133.72 3364.56 3142.52C3327.68 3151.32 3348.56 3173.64 3390 3173.16L3492.24 3171.88C3521.6 3171.56 3502.96 3147 3501.12 3094.52Z" fill="#2E353A"/>
<path opacity="0.2" d="M3432.56 3049.08L3480.96 3034.36L3472.88 2975.56L3418.08 2980.12L3432.56 3049.08Z" fill="black"/>
<path d="M3480.96 2324.12C3480.96 2324.12 3494.24 2304.68 3524.88 2204.12L3768.72 2220.12C3768.72 2220.12 3880.16 2425.48 3793.92 2513.08C3774.8 2532.52 3737.36 2541.24 3699.04 2541C3699.04 2541 3651.04 2541 3433.76 2531.16C3433.76 2531.16 3466.24 2803.16 3484 3006.6L3418.96 3017.64C3418.96 3017.64 3251.92 2554.36 3254 2485.08C3256.08 2415.8 3230.56 2379.96 3480.96 2324.12Z" fill="#2E353A"/>
<path d="M3493.52 2986.52L3404.16 2996.68L3421.36 3031.72L3493.76 3022.44L3493.52 2986.52Z" fill="#90CAF9"/>
<path d="M3262.24 2988.6L3172.4 2985.32L3184.16 3022.52L3257.12 3024.2L3262.24 2988.6Z" fill="#90CAF9"/>
<path d="M3524.88 2203.8L3768.72 2219.8C3768.72 2219.8 3770.48 2154.44 3778.88 2094.12C3781.52 2073.14 3785.72 2052.39 3791.44 2032.04C3797.76 2011.24 3805.76 1987.8 3815.44 1960.68C3816.64 1957.32 3818 1954.04 3819.28 1950.52C3822.48 1942.04 3825.84 1933.24 3829.44 1924.04V1923.64C3831.28 1918.79 3832.06 1913.59 3831.71 1908.41C3831.35 1903.23 3829.88 1898.18 3827.4 1893.62C3824.91 1889.06 3821.47 1885.1 3817.31 1881.99C3813.15 1878.89 3808.36 1876.72 3803.28 1875.64C3783.28 1871.32 3763.09 1867.69 3742.72 1864.76C3706.18 1859.3 3669.34 1856.04 3632.4 1855C3613.28 1855 3592.96 1855.48 3575.44 1856.36C3549.44 1857.56 3529.68 1859.24 3529.68 1859.24C3529.68 1859.24 3521.68 1860.84 3516.96 1903.72C3516.96 1905.88 3516.48 1908.2 3516.32 1910.76C3515.6 1919.56 3515.12 1930.76 3514.88 1944.28C3514.4 1999.56 3517.36 2091.88 3524.88 2203.8Z" fill="#EBB376"/>
<path d="M3524.88 2203.8L3768.72 2219.8C3768.72 2219.8 3772.08 2096.28 3791.44 2032.04C3797.76 2011.24 3805.76 1987.8 3815.44 1960.68C3715.64 1950.17 3615.39 1944.67 3515.04 1944.2C3514.4 1999.56 3517.36 2091.88 3524.88 2203.8Z" fill="#90CAF9"/>
<path opacity="0.6" d="M3621.12 2232.12C3621.12 2234.56 3620.4 2236.94 3619.04 2238.96C3617.69 2240.99 3615.77 2242.57 3613.51 2243.5C3611.26 2244.43 3608.79 2244.68 3606.4 2244.2C3604.01 2243.73 3601.81 2242.55 3600.09 2240.83C3598.37 2239.11 3597.19 2236.91 3596.72 2234.52C3596.24 2232.13 3596.48 2229.66 3597.42 2227.4C3598.35 2225.15 3599.93 2223.23 3601.96 2221.88C3603.98 2220.52 3606.36 2219.8 3608.8 2219.8C3612.07 2219.8 3615.2 2221.1 3617.51 2223.41C3619.82 2225.72 3621.12 2228.85 3621.12 2232.12Z" fill="white"/>
<path opacity="0.5" d="M3768.72 2219.8L3778.96 2245.16L3519.52 2232.12L3524.96 2200.92L3768.72 2219.8Z" fill="black"/>
<path d="M3631.68 2210.36L3628.72 2238.84C3628.54 2240.34 3627.79 2241.71 3626.63 2242.68C3625.47 2243.65 3623.99 2244.13 3622.48 2244.04L3584.48 2241C3583.71 2240.94 3582.96 2240.73 3582.28 2240.38C3581.59 2240.03 3580.98 2239.54 3580.48 2238.96C3579.99 2238.37 3579.61 2237.69 3579.38 2236.95C3579.14 2236.22 3579.05 2235.45 3579.12 2234.68L3581.84 2206.6C3581.96 2205.09 3582.68 2203.68 3583.83 2202.69C3584.99 2201.7 3586.48 2201.21 3588 2201.32L3626.32 2203.96C3627.1 2204.01 3627.86 2204.22 3628.56 2204.57C3629.25 2204.92 3629.87 2205.41 3630.37 2206.01C3630.87 2206.61 3631.25 2207.3 3631.47 2208.05C3631.7 2208.8 3631.77 2209.58 3631.68 2210.36Z" fill="white"/>
<path d="M3695.36 2213.8L3698.4 2247.32H3707.84L3706.32 2213.8H3695.36Z" fill="#263238"/>
<path d="M3558.64 2203.56L3554.88 2238.6H3546.16L3549.2 2202.12L3558.64 2203.56Z" fill="#263238"/>
<path d="M3523.44 1827.4C3523.02 1827.38 3522.62 1827.25 3522.28 1827C3521.94 1826.76 3521.67 1826.43 3521.52 1826.04C3521.36 1825.53 3521.41 1824.98 3521.65 1824.5C3521.89 1824.03 3522.3 1823.66 3522.8 1823.48C3585.04 1803 3571.36 1733.48 3570.8 1730.52C3570.74 1730.26 3570.73 1730 3570.78 1729.74C3570.82 1729.47 3570.92 1729.23 3571.06 1729C3571.2 1728.78 3571.39 1728.59 3571.6 1728.44C3571.82 1728.28 3572.06 1728.18 3572.32 1728.12C3572.84 1728.03 3573.37 1728.14 3573.81 1728.44C3574.24 1728.74 3574.54 1729.2 3574.64 1729.72C3574.64 1730.44 3589.68 1805.72 3524.08 1827.32L3523.44 1827.4Z" fill="#263238"/>
<path d="M3712.72 1560.76C3679.44 1542.08 3641.56 1533.18 3603.44 1535.08C3537.2 1537.32 3505.28 1607.08 3522 1660.04C3538.72 1713 3573.2 1740.6 3580.4 1756.68C3587.6 1772.76 3579.76 1823 3563.68 1844.28C3563.68 1844.28 3743.44 1847.64 3779.2 1817.08C3814.96 1786.52 3779.2 1747.32 3779.2 1689.08C3779.2 1630.84 3764.88 1565.24 3712.72 1560.76Z" fill="#263238"/>
<path d="M3646 1834.2C3648.77 1852.15 3647.98 1870.47 3643.68 1888.12L3725.6 1876.12C3710.4 1866.2 3705.52 1807.24 3702.8 1783.16C3701.65 1773.33 3701.01 1763.45 3700.88 1753.56C3700.88 1747.24 3700.88 1743.32 3700.88 1743.32L3670.96 1757L3622 1779C3633.36 1795.75 3641.5 1814.47 3646 1834.2Z" fill="#EBB376"/>
<path opacity="0.2" d="M3622 1779C3633.33 1795.65 3641.47 1814.26 3646 1833.88C3670.41 1824.18 3690.56 1806.08 3702.8 1782.84C3701.65 1773.01 3701.01 1763.13 3700.88 1753.24C3690.24 1754.28 3680.32 1755.4 3670.88 1756.68L3622 1779Z" fill="black"/>
<path d="M3628.64 1580.84C3563.36 1588.04 3546.24 1625.4 3548.64 1692.84C3552 1777.56 3577.28 1835.16 3656.88 1808.12C3765.28 1771.8 3737.04 1568.76 3628.64 1580.84Z" fill="#EBB376"/>
<path d="M3590.72 1684.84C3586.59 1695.16 3581.22 1704.94 3574.72 1713.96C3576.93 1716.47 3579.78 1718.31 3582.98 1719.28C3586.17 1720.26 3589.57 1720.33 3592.8 1719.48L3590.72 1684.84Z" fill="#D58745"/>
<path d="M3630 1675C3630.48 1680.36 3633.76 1684.52 3637.36 1684.2C3640.96 1683.88 3643.44 1679.24 3642.96 1673.88C3642.48 1668.52 3639.2 1664.44 3635.6 1664.76C3632 1665.08 3630 1669.64 3630 1675Z" fill="#263238"/>
<path d="M3637.2 1664.84L3625.12 1661.32C3625.12 1661.32 3631.84 1670.6 3637.2 1664.84Z" fill="#263238"/>
<path d="M3563.12 1679.8C3563.6 1685.16 3566.88 1689.24 3570.48 1688.92C3574.08 1688.6 3576.56 1684.04 3576.16 1678.6C3575.76 1673.16 3572.4 1669.16 3568.8 1669.48C3565.2 1669.8 3562.64 1674.36 3563.12 1679.8Z" fill="#263238"/>
<path d="M3570.32 1669.56L3558.24 1666.04C3558.24 1666.04 3564.88 1675 3570.32 1669.56Z" fill="#263238"/>
<path d="M3655.12 1639.48C3654.75 1639.48 3654.38 1639.42 3654.04 1639.28C3653.7 1639.14 3653.38 1638.94 3653.12 1638.68C3649.39 1635.76 3645.06 1633.71 3640.43 1632.68C3635.81 1631.64 3631.02 1631.64 3626.4 1632.68C3625.66 1632.86 3624.87 1632.74 3624.22 1632.34C3623.57 1631.94 3623.1 1631.3 3622.92 1630.56C3622.74 1629.82 3622.86 1629.03 3623.26 1628.38C3623.66 1627.73 3624.3 1627.26 3625.04 1627.08C3630.59 1625.75 3636.36 1625.73 3641.92 1627.02C3647.47 1628.31 3652.65 1630.88 3657.04 1634.52C3657.32 1634.78 3657.54 1635.1 3657.69 1635.45C3657.84 1635.8 3657.92 1636.18 3657.92 1636.56C3657.92 1636.94 3657.84 1637.32 3657.69 1637.67C3657.54 1638.02 3657.32 1638.34 3657.04 1638.6C3656.8 1638.87 3656.5 1639.08 3656.17 1639.23C3655.84 1639.38 3655.48 1639.47 3655.12 1639.48Z" fill="#263238"/>
<path d="M3552.56 1643.56C3551.96 1643.57 3551.38 1643.39 3550.89 1643.04C3550.39 1642.7 3550.02 1642.22 3549.82 1641.65C3549.62 1641.09 3549.6 1640.48 3549.76 1639.9C3549.92 1639.33 3550.25 1638.82 3550.72 1638.44C3554.39 1634.94 3558.82 1632.32 3563.66 1630.78C3568.49 1629.24 3573.62 1628.82 3578.64 1629.56C3579.02 1629.64 3579.37 1629.8 3579.68 1630.03C3580 1630.25 3580.26 1630.54 3580.46 1630.86C3580.66 1631.19 3580.8 1631.56 3580.86 1631.94C3580.91 1632.32 3580.89 1632.71 3580.8 1633.08C3580.61 1633.83 3580.14 1634.47 3579.48 1634.88C3578.82 1635.28 3578.03 1635.41 3577.28 1635.24C3573.11 1634.76 3568.88 1635.23 3564.92 1636.61C3560.96 1638 3557.36 1640.26 3554.4 1643.24C3553.83 1643.53 3553.19 1643.64 3552.56 1643.56Z" fill="#263238"/>
<path d="M3712.16 1683C3712.16 1683 3675.68 1632.76 3675.68 1590.84C3675.68 1590.84 3540.48 1552.36 3548.72 1684.36C3548.72 1684.36 3523.12 1569.24 3635.04 1554.12C3746.96 1539 3764.72 1703.24 3712.24 1758.6C3712.24 1758.52 3734.8 1714.28 3712.16 1683Z" fill="#263238"/>
<path d="M3703.04 1697.88C3702.82 1690.25 3705.64 1682.85 3710.88 1677.3C3716.11 1671.76 3723.33 1668.51 3730.96 1668.28C3751.44 1668.28 3765.68 1708.68 3716.48 1724.28C3709.44 1726.44 3704.56 1719.88 3703.04 1697.88Z" fill="#EBB376"/>
<path d="M3605.12 1736.76C3609.84 1742.52 3614.15 1748.62 3618 1755C3619.2 1754.52 3620.48 1754.12 3621.68 1753.56C3638.4 1746.84 3643.92 1738.2 3644.96 1730.68C3645.38 1727 3644.91 1723.27 3643.6 1719.8C3642.91 1717.79 3641.97 1715.88 3640.8 1714.12C3632.35 1722.86 3622.12 1729.68 3610.8 1734.12C3607.36 1735.96 3605.12 1736.76 3605.12 1736.76Z" fill="#263238"/>
<path d="M3610.8 1734.36L3614.72 1739.72C3630.72 1733.32 3640.64 1726.76 3643.6 1720.04C3642.92 1718.03 3641.97 1716.12 3640.8 1714.36C3632.35 1723.1 3622.12 1729.92 3610.8 1734.36Z" fill="white"/>
<path d="M3622 1753.8C3638.72 1747.08 3644.24 1738.44 3645.28 1730.92C3638.98 1733.58 3633.21 1737.35 3628.24 1742.04C3625 1745.22 3622.82 1749.33 3622 1753.8Z" fill="#DE5753"/>
<path d="M3538.72 1676.12C3538.45 1676.1 3538.19 1676.03 3537.95 1675.9C3537.72 1675.78 3537.51 1675.6 3537.34 1675.39C3537.18 1675.18 3537.06 1674.94 3536.99 1674.68C3536.93 1674.42 3536.91 1674.14 3536.96 1673.88C3548.96 1576.12 3674.88 1588.6 3676.16 1588.76C3676.42 1588.78 3676.67 1588.85 3676.9 1588.97C3677.14 1589.09 3677.34 1589.26 3677.5 1589.46C3677.67 1589.66 3677.79 1589.9 3677.86 1590.15C3677.93 1590.4 3677.95 1590.66 3677.92 1590.92C3677.9 1591.18 3677.83 1591.44 3677.71 1591.67C3677.59 1591.91 3677.42 1592.12 3677.22 1592.29C3677.02 1592.46 3676.79 1592.59 3676.54 1592.67C3676.29 1592.75 3676.02 1592.78 3675.76 1592.76C3674.56 1592.76 3552.48 1580.52 3540.96 1674.36C3540.88 1674.88 3540.6 1675.36 3540.19 1675.68C3539.77 1676.01 3539.25 1676.17 3538.72 1676.12Z" fill="#263238"/>
<path d="M3524 1611C3523.51 1610.99 3523.05 1610.8 3522.68 1610.48C3522.32 1610.16 3522.07 1609.72 3522 1609.24C3522 1608.6 3512.8 1545.24 3583.44 1527.48C3651.12 1510.76 3696.48 1548.44 3713.6 1562.6L3715.68 1564.28C3716.09 1564.62 3716.36 1565.11 3716.41 1565.64C3716.46 1566.17 3716.3 1566.71 3715.96 1567.12C3715.62 1567.53 3715.13 1567.79 3714.6 1567.85C3714.07 1567.9 3713.53 1567.74 3713.12 1567.4L3711.04 1565.64C3694.4 1551.8 3650.16 1515.16 3584.4 1531.32C3517.36 1547.88 3525.6 1606.2 3526 1608.68C3526.07 1609.2 3525.93 1609.72 3525.62 1610.14C3525.3 1610.56 3524.84 1610.84 3524.32 1610.92L3524 1611Z" fill="#263238"/>
<path d="M3791.28 1825.8C3790.89 1825.81 3790.5 1825.7 3790.17 1825.49C3789.84 1825.27 3789.59 1824.96 3789.44 1824.6C3789.33 1824.36 3789.28 1824.1 3789.27 1823.83C3789.27 1823.57 3789.31 1823.31 3789.41 1823.06C3789.51 1822.82 3789.65 1822.59 3789.83 1822.41C3790.02 1822.22 3790.24 1822.06 3790.48 1821.96C3794.7 1820.34 3798.53 1817.84 3801.69 1814.6C3804.85 1811.37 3807.28 1807.5 3808.8 1803.24C3814 1788.92 3810.24 1769.24 3797.6 1744.92C3783.41 1717.93 3772.79 1689.21 3766 1659.48C3765.93 1659.21 3765.91 1658.93 3765.95 1658.66C3765.99 1658.39 3766.09 1658.12 3766.24 1657.89C3766.38 1657.65 3766.58 1657.45 3766.81 1657.3C3767.04 1657.14 3767.3 1657.04 3767.57 1656.99C3767.84 1656.94 3768.12 1656.94 3768.39 1657.01C3768.66 1657.07 3768.91 1657.19 3769.13 1657.36C3769.35 1657.52 3769.54 1657.73 3769.67 1657.98C3769.81 1658.22 3769.89 1658.48 3769.92 1658.76C3776.59 1688.07 3787.05 1716.39 3801.04 1743C3814.16 1768.44 3818 1789.16 3812.4 1804.6C3810.67 1809.37 3807.95 1813.72 3804.4 1817.35C3800.85 1820.98 3796.57 1823.81 3791.84 1825.64C3791.67 1825.74 3791.48 1825.79 3791.28 1825.8Z" fill="#263238"/>
<path d="M3623.04 1972.6C3622.78 1972.69 3622.5 1972.69 3622.24 1972.6C3621.94 1972.48 3621.67 1972.28 3621.46 1972.03C3621.25 1971.78 3621.11 1971.48 3621.04 1971.16C3621.04 1970.52 3609.04 1904.04 3641.68 1853.96C3641.96 1853.52 3642.4 1853.21 3642.91 1853.09C3643.42 1852.97 3643.95 1853.05 3644.4 1853.32C3644.85 1853.62 3645.16 1854.07 3645.28 1854.59C3645.4 1855.11 3645.31 1855.66 3645.04 1856.12C3617.12 1898.92 3622.72 1954.12 3624.56 1967.48C3704.08 1916.28 3728.56 1861.08 3728.56 1860.52C3728.77 1860.05 3729.16 1859.68 3729.63 1859.49C3730.11 1859.29 3730.64 1859.29 3731.12 1859.48C3731.61 1859.69 3732 1860.08 3732.21 1860.58C3732.42 1861.07 3732.43 1861.62 3732.24 1862.12C3732.24 1862.68 3706.88 1920.12 3624.16 1972.44C3623.82 1972.63 3623.42 1972.69 3623.04 1972.6Z" fill="#263238"/>
<path d="M3622.96 1969.8C3622.96 1969.8 3605.28 1992.44 3617.52 1993.8C3629.76 1995.16 3622.96 1969.8 3622.96 1969.8Z" fill="#263238"/>
<path d="M3380.64 1793.4C3380.64 1793.4 3344.48 1792.76 3343.2 1799.16C3341.92 1805.56 3344.32 1858.44 3349.12 1865.88C3354.41 1872.6 3360.45 1878.69 3367.12 1884.04L3363.68 1977.96L3385.2 1985.56L3404.8 1899.56C3404.8 1899.56 3426.96 1877.88 3420.8 1850.44C3414.64 1823 3380.64 1793.4 3380.64 1793.4Z" fill="#EBB376"/>
<path opacity="0.1" d="M3380.64 1793.4C3380.64 1793.4 3344.48 1792.76 3343.2 1799.16C3341.92 1805.56 3344.32 1858.44 3349.12 1865.88C3354.41 1872.6 3360.45 1878.69 3367.12 1884.04L3363.68 1977.96L3385.2 1985.56L3404.8 1899.56C3404.8 1899.56 3426.96 1877.88 3420.8 1850.44C3414.64 1823 3380.64 1793.4 3380.64 1793.4Z" fill="black"/>
<path d="M3442.08 1839.64C3442.13 1840.44 3442.01 1841.24 3441.72 1841.98C3441.43 1842.73 3440.97 1843.4 3440.39 1843.95C3439.81 1844.5 3439.12 1844.91 3438.36 1845.16C3437.6 1845.42 3436.79 1845.5 3436 1845.4L3374.48 1840.6C3372.77 1840.45 3371.18 1839.68 3369.98 1838.45C3368.79 1837.22 3368.09 1835.59 3368 1833.88L3363.68 1711.32C3363.63 1710.48 3363.74 1709.65 3364.02 1708.86C3364.3 1708.07 3364.74 1707.35 3365.31 1706.73C3365.88 1706.12 3366.57 1705.63 3367.33 1705.29C3368.1 1704.95 3368.92 1704.77 3369.76 1704.76L3431.36 1709.56C3433.11 1709.92 3434.7 1710.85 3435.86 1712.21C3437.02 1713.58 3437.69 1715.29 3437.76 1717.08L3442.08 1839.64Z" fill="#263238"/>
<path opacity="0.5" d="M3430.96 1715.8L3435.44 1839.48C3435.44 1843 3433.52 1845.24 3430.08 1844.92L3377.92 1840.92C3374.4 1840.92 3368.16 1838.2 3368 1834.68L3363.68 1710.52C3363.68 1707.08 3369.68 1704.76 3373.2 1705L3425.44 1709.08C3427.05 1709.26 3428.53 1710.06 3429.56 1711.32C3430.59 1712.57 3431.09 1714.18 3430.96 1715.8Z" fill="white"/>
<path d="M3504.64 1932.76L3481.2 1878.2C3481.2 1878.2 3473.6 1804.92 3469.92 1797.08C3466.24 1789.24 3406.64 1792.2 3400.24 1791.72C3393.84 1791.24 3394.96 1864.36 3401.2 1871.72C3407.44 1879.08 3431.76 1885.64 3431.76 1885.64L3469.12 1958.2L3504.64 1932.76Z" fill="#EBB376"/>
<path d="M3829.52 1886.36C3824.55 1882.35 3818.8 1879.4 3812.64 1877.7C3806.48 1876 3800.04 1875.59 3793.71 1876.49C3787.39 1877.39 3781.31 1879.59 3775.87 1882.93C3770.43 1886.28 3765.73 1890.72 3762.08 1895.96C3723.68 1951.08 3659.04 2042.76 3651.28 2047.24C3640.08 2053.72 3556.08 1976.28 3481.2 1878.2L3435.44 1895.4C3435.44 1895.4 3553.84 2139 3638 2139.96C3700.96 2140.76 3795.36 2012.92 3838.8 1948.68C3845.35 1939.03 3848.04 1927.27 3846.34 1915.73C3844.64 1904.19 3838.66 1893.71 3829.6 1886.36H3829.52Z" fill="#EBB376"/>
<defs>
<filter id="filter0_f_2109_17577" x="1077.44" y="239.443" width="5261.11" height="4291.11" filterUnits="userSpaceOnUse" color-interpolation-filters="sRGB">
<feFlood flood-opacity="0" result="BackgroundImageFix"/>
<feBlend mode="normal" in="SourceGraphic" in2="BackgroundImageFix" result="shape"/>
<feGaussianBlur stdDeviation="284.278" result="effect1_foregroundBlur_2109_17577"/>
</filter>
<linearGradient id="paint0_linear_2109_17577" x1="3708" y1="808" x2="3708" y2="3962" gradientUnits="userSpaceOnUse">
<stop stop-color="#16B6F0" stop-opacity="0.36"/>
<stop offset="1" stop-color="#1653F0" stop-opacity="0.6"/>
</linearGradient>
<linearGradient id="paint1_linear_2109_17577" x1="1049.5" y1="3665.68" x2="1049.5" y2="6441.82" gradientUnits="userSpaceOnUse">
<stop stop-color="#EAF0FF" stop-opacity="0.05"/>
<stop offset="1" stop-color="#EAF0FF"/>
</linearGradient>
<clipPath id="clip0_2109_17577">
<rect width="5371" height="3529" fill="white"/>
</clipPath>
</defs>
</svg>
