<svg width="5371" height="3529" viewBox="0 0 5371 3529" fill="none" xmlns="http://www.w3.org/2000/svg">
<g clip-path="url(#clip0_2108_1230)">
<rect width="5371" height="3529" fill="#EAF0FF"/>
<g filter="url(#filter0_f_2108_1230)">
<ellipse cx="3708" cy="2385" rx="2062" ry="1577" fill="url(#paint0_linear_2108_1230)" fill-opacity="0.5"/>
</g>
<rect y="589" width="2099" height="6141" fill="url(#paint1_linear_2108_1230)"/>
</g>
<path d="M1707 310.992C1707 310.992 1748.04 278.609 1758.55 257.82C1767.52 240.122 1774.01 215.081 1764.74 195.992C1762.7 191.503 1759.74 187.493 1756.05 184.222C1752.36 180.951 1748.02 178.493 1743.32 177.006C1738.62 175.519 1733.66 175.038 1728.76 175.592C1723.86 176.147 1719.14 177.726 1714.89 180.226C1689.61 195.683 1686.91 249.782 1693.32 275.286C1693.87 277.527 1706.62 311.61 1707 310.992Z" fill="#90CAF9"/>
<path d="M1327.77 580.949C1329.39 582.495 1358.68 603.671 1358.68 603.13C1358.68 602.589 1375.3 553.513 1372.51 530.405C1370.2 510.697 1361.77 486.198 1343.69 475.61C1339.51 472.962 1334.83 471.223 1329.94 470.504C1325.05 469.785 1320.06 470.103 1315.3 471.436C1310.54 472.77 1306.12 475.09 1302.31 478.246C1298.51 481.401 1295.41 485.322 1293.22 489.753C1280.86 516.802 1308.14 562.942 1327.77 580.949Z" fill="#90CAF9"/>
<path d="M2187.33 360.068C2187.33 360.068 2037.17 515.102 2037.94 705.764C2038.71 896.426 2190.34 1049.91 2190.34 1049.91C2190.34 1049.91 2340.51 894.88 2339.66 704.45C2338.81 514.02 2187.33 360.068 2187.33 360.068Z" fill="#90CAF9"/>
<path d="M1973.17 819.605C1975.17 817.455 1977.01 815.156 1978.66 812.726C1989.56 796.187 1998.91 772.075 1991.88 752.29C1990.38 747.584 1987.92 743.245 1984.64 739.553C1981.36 735.861 1977.34 732.899 1972.85 730.859C1968.35 728.819 1963.48 727.746 1958.54 727.71C1953.61 727.674 1948.72 728.675 1944.19 730.65C1923.79 740.31 1913.74 773.002 1911.58 799.743C1903.85 797.888 1896.12 796.419 1889.86 795.415C1887.16 789.309 1884.45 783.204 1881.67 777.098C1878.89 770.993 1876.64 764.346 1873.94 757.931C1870.31 748.425 1867.06 738.456 1863.82 728.486C1875.72 723.153 1910.19 707.001 1923.17 692.703C1936.15 678.405 1949.37 655.606 1945.43 634.971C1944.67 630.085 1942.9 625.413 1940.22 621.259C1937.54 617.106 1934.01 613.564 1929.87 610.866C1925.73 608.168 1921.06 606.373 1916.18 605.599C1911.29 604.826 1906.3 605.09 1901.53 606.376C1873.01 614.8 1856.24 665.808 1855.7 692.317C1855.7 693.167 1855.7 698.808 1856.7 705.532C1853.85 695.64 1850.91 685.902 1848.36 675.855C1841.02 647.337 1834.45 618.046 1827.72 588.755C1826.33 582.649 1824.86 576.544 1823.39 570.438C1833.44 566.033 1871.08 548.798 1884.6 533.883C1898.13 518.967 1910.73 496.786 1906.79 476.151C1906.04 471.259 1904.28 466.58 1901.6 462.42C1898.92 458.26 1895.39 454.714 1891.25 452.013C1887.1 449.313 1882.43 447.52 1877.54 446.751C1872.66 445.983 1867.66 446.257 1862.89 447.555C1834.45 455.979 1817.68 506.987 1817.06 533.496C1817.06 534.501 1817.6 541.225 1818.29 548.953C1814.43 533.032 1810.57 517.266 1805.85 501.732C1798.26 475.063 1788.89 448.933 1777.8 423.52C1781.35 421.974 1825.87 402.73 1840.86 386.114C1854.15 371.352 1867.06 348.94 1863.12 328.305C1862.35 323.424 1860.57 318.759 1857.89 314.612C1855.2 310.465 1851.68 306.928 1847.54 304.232C1843.4 301.535 1838.74 299.739 1833.86 298.96C1828.98 298.181 1823.99 298.436 1819.22 299.709C1790.7 308.211 1773.93 359.141 1773.39 385.727C1773.39 387.582 1775.56 411.85 1776.64 420.505V419.578C1765.12 394.871 1751.44 371.233 1735.75 348.94C1721.84 328.984 1706.77 309.862 1690.62 291.672C1675.86 274.592 1661.25 259.907 1648.19 247.001C1641.16 240.045 1634.51 233.862 1628.25 228.143H1628.87C1629.41 228.143 1614.96 194.988 1613.88 192.979C1600.51 169.793 1561.24 133.392 1532.19 139.729C1527.37 140.915 1522.86 143.101 1518.96 146.147C1515.05 149.193 1511.82 153.029 1509.5 157.405C1507.17 161.781 1505.79 166.599 1505.45 171.543C1505.11 176.488 1505.82 181.448 1507.53 186.1C1514.02 206.04 1536.13 219.565 1554.91 225.979C1573.69 232.394 1616.12 229.457 1626.47 228.53C1632.89 234.558 1639.61 241.127 1646.88 248.547C1659.55 261.762 1673.77 276.678 1688.15 293.99C1692.01 298.627 1695.87 303.728 1699.82 308.597C1691.55 301.719 1680.03 292.522 1678.79 291.749C1656.38 277.451 1604.68 263.076 1581.8 282.088C1578.09 285.355 1575.12 289.365 1573.06 293.858C1571 298.351 1569.91 303.226 1569.86 308.167C1569.81 313.109 1570.8 318.005 1572.76 322.54C1574.73 327.074 1577.62 331.145 1581.26 334.487C1596.18 349.172 1621.99 350.949 1641.62 348.09C1661.25 345.23 1698.73 322.199 1706.62 317.176C1715.12 328.15 1723.62 339.588 1731.74 352.031C1746.69 374.355 1759.62 397.969 1770.38 422.592C1771 424.061 1771.46 425.606 1772 426.997C1768.52 422.901 1747.66 401.803 1745.96 400.489C1725.24 383.872 1675.47 363.933 1650.66 380.317C1646.61 383.146 1643.19 386.798 1640.65 391.035C1638.1 395.272 1636.47 399.999 1635.87 404.908C1635.27 409.816 1635.72 414.795 1637.17 419.52C1638.63 424.246 1641.07 428.611 1644.33 432.33C1657.54 448.56 1682.97 453.197 1702.83 452.424C1726.02 451.651 1770.69 429.239 1772.39 428.079C1782.52 452.922 1791.02 478.404 1797.81 504.36C1802.91 523.526 1807.32 543.002 1811.57 562.942C1806.93 557.686 1787.46 538.133 1785.91 536.819C1765.2 520.203 1715.43 500.264 1690.54 516.648C1686.5 519.484 1683.09 523.14 1680.55 527.377C1678.01 531.614 1676.39 536.338 1675.79 541.243C1675.19 546.148 1675.63 551.123 1677.08 555.847C1678.53 560.57 1680.96 564.936 1684.2 568.661C1697.5 584.891 1722.85 589.528 1742.79 588.755C1765.04 587.982 1808.32 566.419 1812.34 564.565C1814.28 573.53 1816.21 582.495 1818.06 591.537C1824.17 620.905 1830.12 650.428 1836.84 679.333C1839.24 689.38 1841.87 699.195 1844.57 709.01C1837.31 701.282 1823.78 687.757 1822.54 686.752C1801.83 670.058 1751.98 650.119 1727.18 666.503C1723.12 669.332 1719.71 672.984 1717.16 677.221C1714.61 681.458 1712.98 686.185 1712.38 691.094C1711.79 696.002 1712.23 700.981 1713.69 705.706C1715.14 710.432 1717.58 714.797 1720.84 718.516C1734.05 734.823 1759.48 739.383 1779.34 738.687C1799.2 737.992 1835.99 720.603 1846.27 715.502C1850.83 731.809 1855.62 747.884 1861.19 763.496C1863.74 770.142 1865.82 777.098 1868.92 783.358L1873.17 793.328L1867.37 792.787C1867.37 792.787 1867.37 802.138 1867.91 817.209C1846.04 801.752 1814.51 788.227 1794.03 797.656C1789.6 799.846 1785.68 802.944 1782.52 806.749C1779.36 810.553 1777.04 814.979 1775.71 819.738C1774.38 824.497 1774.06 829.484 1774.78 834.374C1775.5 839.265 1777.24 843.949 1779.88 848.123C1781.2 850.35 1782.73 852.447 1784.44 854.383C1788.33 877.452 1798.07 899.139 1812.73 917.37C1813.81 918.607 1828.65 932.363 1836.46 939.164C1828.73 935.146 1821.46 931.436 1813.73 926.722C1802.61 920.539 1791.01 913.66 1779.73 907.014L1761.72 895.499C1755.77 891.866 1750.52 887.77 1744.8 883.751C1736.53 877.8 1728.33 871.308 1720.14 864.739C1727.1 853.765 1747.04 821.228 1749.97 802.216C1752.91 783.204 1751.29 756.772 1736.6 741.779C1733.3 738.105 1729.26 735.168 1724.75 733.157C1720.23 731.147 1715.35 730.108 1710.4 730.108C1705.46 730.108 1700.58 731.147 1696.06 733.157C1691.55 735.168 1687.51 738.105 1684.2 741.779C1665.12 764.964 1679.26 816.359 1693.4 838.849C1693.87 839.544 1697.34 844.027 1701.13 849.205C1693.4 842.636 1685.67 836.066 1677.94 829.111C1656.15 809.326 1634.51 788.536 1612.72 767.824L1599.42 755.226C1605.37 746.03 1627.25 710.942 1630.34 691.08C1633.43 671.218 1631.65 645.636 1617.04 630.566C1613.74 626.892 1609.7 623.955 1605.19 621.944C1600.67 619.934 1595.79 618.895 1590.84 618.895C1585.9 618.895 1581.02 619.934 1576.5 621.944C1571.99 623.955 1567.95 626.892 1564.65 630.566C1545.56 653.751 1559.7 705.069 1573.84 727.558C1574.31 728.409 1578.48 733.664 1583.19 739.538C1571.21 728.486 1559.16 717.511 1546.79 707.078C1525.75 689.02 1503.52 672.392 1480.25 657.306C1482.34 654.061 1508.85 613.409 1512.25 591.305C1515.18 571.675 1513.56 545.862 1498.88 530.868C1495.58 527.197 1491.54 524.261 1487.04 522.251C1482.53 520.241 1477.65 519.202 1472.71 519.202C1467.78 519.202 1462.9 520.241 1458.39 522.251C1453.89 524.261 1449.85 527.197 1446.55 530.868C1427.39 554.054 1441.53 605.448 1455.67 627.938C1456.68 629.484 1471.98 648.573 1477.62 655.142L1476.77 654.601C1453.56 640.309 1429.12 628.127 1403.74 618.2C1381.02 609.136 1357.8 601.395 1334.18 595.015C1312.39 588.909 1292.14 584.736 1274.21 581.104C1264.39 579.249 1255.51 577.78 1247.08 576.389H1247.62C1248.01 576.389 1217.71 556.372 1215.63 555.368C1191.9 543.543 1138.96 534.733 1118.17 555.986C1114.82 559.623 1112.28 563.923 1110.71 568.606C1109.13 573.289 1108.56 578.252 1109.02 583.171C1109.49 588.091 1110.99 592.857 1113.41 597.161C1115.84 601.465 1119.15 605.21 1123.12 608.153C1139.58 621.214 1165.39 620.287 1184.94 615.341C1204.5 610.395 1237.88 584.427 1246 577.935C1254.66 579.481 1263.93 581.258 1274.13 583.422C1291.98 587.364 1312.08 592.001 1333.56 598.879C1339.36 600.657 1345.47 602.743 1351.42 604.598C1340.67 603.516 1325.99 602.125 1324.52 602.125C1298.01 602.666 1247.24 619.128 1238.35 647.646C1237.04 652.408 1236.75 657.394 1237.49 662.277C1238.24 667.159 1240.01 671.829 1242.69 675.98C1245.37 680.131 1248.89 683.67 1253.03 686.365C1257.17 689.061 1261.83 690.852 1266.71 691.621C1287.35 695.64 1309.84 682.888 1324.6 669.672C1339.36 656.456 1357.91 616.577 1361.77 607.844C1374.91 612.249 1388.28 617.118 1401.88 623.301C1426.72 633.663 1450.59 646.207 1473.22 660.784C1474.53 661.634 1475.77 662.716 1477.08 663.567C1471.9 662.098 1442.84 655.838 1440.76 655.838C1414.33 653.365 1361.77 664.185 1350.1 691.544C1348.27 696.122 1347.43 701.035 1347.62 705.962C1347.82 710.889 1349.05 715.72 1351.24 720.139C1353.42 724.558 1356.52 728.466 1360.32 731.609C1364.12 734.752 1368.54 737.058 1373.29 738.378C1393.38 744.638 1417.11 734.437 1433.26 722.921C1451.89 709.628 1476.85 665.808 1477.78 664.185C1499.93 679.329 1521.08 695.903 1541.07 713.802C1555.91 727.017 1570.44 740.929 1584.89 755.072C1578.09 753.294 1551.12 747.343 1549.11 747.343C1522.68 744.87 1470.13 755.69 1458.46 783.049C1456.64 787.634 1455.8 792.549 1456 797.478C1456.2 802.406 1457.43 807.237 1459.62 811.659C1461.81 816.081 1464.89 819.994 1468.69 823.147C1472.48 826.3 1476.89 828.621 1481.64 829.961C1501.74 836.221 1525.46 826.019 1541.61 814.504C1559.78 801.52 1583.89 759.709 1585.98 756.154L1605.61 775.475C1626.86 796.651 1648.11 817.982 1669.75 838.385C1677.48 845.418 1685.21 852.142 1692.47 858.865C1682.2 856.547 1663.42 852.605 1661.56 852.451C1635.05 850.055 1582.58 860.875 1570.83 888.234C1569.01 892.813 1568.17 897.724 1568.38 902.647C1568.58 907.57 1569.81 912.396 1572 916.812C1574.18 921.227 1577.27 925.135 1581.06 928.28C1584.86 931.425 1589.27 933.738 1594.01 935.068C1614.03 941.328 1637.83 931.127 1653.99 919.611C1670.14 908.096 1691.24 873.24 1697.03 863.425C1709.79 874.477 1722.69 885.22 1735.68 895.189C1741.47 899.363 1747.11 904 1752.91 907.71L1769.99 919.148C1781.89 926.876 1793.18 933.445 1804.31 940.015C1809.95 943.415 1815.36 946.429 1820.92 949.675C1810.87 945.734 1794.88 939.783 1793.33 939.396C1767.6 932.982 1713.96 935.687 1698.27 960.959C1695.78 965.227 1694.22 969.973 1693.68 974.886C1693.15 979.799 1693.66 984.77 1695.18 989.473C1696.69 994.177 1699.18 998.508 1702.49 1002.18C1705.79 1005.86 1709.83 1008.8 1714.35 1010.81C1733.2 1020.08 1758.24 1013.59 1776.17 1004.62C1795.65 994.732 1825.02 958.254 1828.57 953.926C1842.25 961.654 1855.62 969.383 1868.22 975.875C1901.92 993.959 1931.36 1008.33 1954.16 1019C2028.35 1083.15 2132.77 1090.26 2132.77 1090.26C2132.77 1090.26 2138.25 965.21 2064.68 882.901C2039.15 855.392 2007.92 833.79 1973.17 819.605ZM1840.78 941.483C1843.1 936.382 1860.88 896.658 1862.11 874.245C1866.21 873.472 1870.38 872.622 1874.4 871.695C1882.02 911.236 1897.81 948.748 1920.77 981.826C1907.25 975.411 1892.64 968.301 1877.19 960.418C1865.28 954.544 1853.15 948.207 1840.78 941.483Z" fill="#90CAF9"/>
<path d="M2520.27 795.646C2520.27 795.646 2395.15 799.511 2318.56 879.037C2241.97 958.563 2242.98 1083.76 2242.98 1083.76C2242.98 1083.76 2368.1 1079.9 2444.61 1000.37C2521.12 920.848 2520.27 795.646 2520.27 795.646Z" fill="#90CAF9"/>
<g opacity="0.5">
<path d="M1707 310.992C1707 310.992 1748.04 278.609 1758.55 257.82C1767.52 240.122 1774.01 215.081 1764.74 195.992C1762.7 191.503 1759.74 187.493 1756.05 184.222C1752.36 180.951 1748.02 178.493 1743.32 177.006C1738.62 175.519 1733.66 175.038 1728.76 175.592C1723.86 176.147 1719.14 177.726 1714.89 180.226C1689.61 195.683 1686.91 249.782 1693.32 275.286C1693.87 277.527 1706.62 311.61 1707 310.992Z" fill="white"/>
<path d="M1327.77 580.949C1329.39 582.495 1358.68 603.671 1358.68 603.13C1358.68 602.589 1375.3 553.513 1372.51 530.405C1370.2 510.697 1361.77 486.198 1343.69 475.61C1339.51 472.962 1334.83 471.223 1329.94 470.504C1325.05 469.785 1320.06 470.103 1315.3 471.436C1310.54 472.77 1306.12 475.09 1302.31 478.246C1298.51 481.401 1295.41 485.322 1293.22 489.753C1280.86 516.802 1308.14 562.942 1327.77 580.949Z" fill="white"/>
<path d="M2187.33 360.068C2187.33 360.068 2037.17 515.102 2037.94 705.764C2038.71 896.426 2190.34 1049.91 2190.34 1049.91C2190.34 1049.91 2340.51 894.88 2339.66 704.45C2338.81 514.02 2187.33 360.068 2187.33 360.068Z" fill="white"/>
<path d="M1973.17 819.605C1975.17 817.455 1977.01 815.156 1978.66 812.726C1989.56 796.187 1998.91 772.075 1991.88 752.29C1990.38 747.584 1987.92 743.245 1984.64 739.553C1981.36 735.861 1977.34 732.899 1972.85 730.859C1968.35 728.819 1963.48 727.746 1958.54 727.71C1953.61 727.674 1948.72 728.675 1944.19 730.65C1923.79 740.31 1913.74 773.002 1911.58 799.743C1903.85 797.888 1896.12 796.419 1889.86 795.415C1887.16 789.309 1884.45 783.204 1881.67 777.098C1878.89 770.993 1876.64 764.346 1873.94 757.931C1870.31 748.425 1867.06 738.456 1863.82 728.486C1875.72 723.153 1910.19 707.001 1923.17 692.703C1936.15 678.405 1949.37 655.606 1945.43 634.971C1944.67 630.085 1942.9 625.413 1940.22 621.259C1937.54 617.106 1934.01 613.564 1929.87 610.866C1925.73 608.168 1921.06 606.373 1916.18 605.599C1911.29 604.826 1906.3 605.09 1901.53 606.376C1873.01 614.8 1856.24 665.808 1855.7 692.317C1855.7 693.167 1855.7 698.808 1856.7 705.532C1853.85 695.64 1850.91 685.902 1848.36 675.855C1841.02 647.337 1834.45 618.046 1827.72 588.755C1826.33 582.649 1824.86 576.544 1823.39 570.438C1833.44 566.033 1871.08 548.798 1884.6 533.883C1898.13 518.967 1910.73 496.786 1906.79 476.151C1906.04 471.259 1904.28 466.58 1901.6 462.42C1898.92 458.26 1895.39 454.714 1891.25 452.013C1887.1 449.313 1882.43 447.52 1877.54 446.751C1872.66 445.983 1867.66 446.257 1862.89 447.555C1834.45 455.979 1817.68 506.987 1817.06 533.496C1817.06 534.501 1817.6 541.225 1818.29 548.953C1814.43 533.032 1810.57 517.266 1805.85 501.732C1798.26 475.063 1788.89 448.933 1777.8 423.52C1781.35 421.974 1825.87 402.73 1840.86 386.114C1854.15 371.352 1867.06 348.94 1863.12 328.305C1862.35 323.424 1860.57 318.759 1857.89 314.612C1855.2 310.465 1851.68 306.928 1847.54 304.232C1843.4 301.535 1838.74 299.739 1833.86 298.96C1828.98 298.181 1823.99 298.436 1819.22 299.709C1790.7 308.211 1773.93 359.141 1773.39 385.727C1773.39 387.582 1775.56 411.85 1776.64 420.505V419.578C1765.12 394.871 1751.44 371.233 1735.75 348.94C1721.84 328.984 1706.77 309.862 1690.62 291.672C1675.86 274.592 1661.25 259.907 1648.19 247.001C1641.16 240.045 1634.51 233.862 1628.25 228.143H1628.87C1629.41 228.143 1614.96 194.988 1613.88 192.979C1600.51 169.793 1561.24 133.392 1532.19 139.729C1527.37 140.915 1522.86 143.101 1518.96 146.147C1515.05 149.193 1511.82 153.029 1509.5 157.405C1507.17 161.781 1505.79 166.599 1505.45 171.543C1505.11 176.488 1505.82 181.448 1507.53 186.1C1514.02 206.04 1536.13 219.565 1554.91 225.979C1573.69 232.394 1616.12 229.457 1626.47 228.53C1632.89 234.558 1639.61 241.127 1646.88 248.547C1659.55 261.762 1673.77 276.678 1688.15 293.99C1692.01 298.627 1695.87 303.728 1699.82 308.597C1691.55 301.719 1680.03 292.522 1678.79 291.749C1656.38 277.451 1604.68 263.076 1581.8 282.088C1578.09 285.355 1575.12 289.365 1573.06 293.858C1571 298.351 1569.91 303.226 1569.86 308.167C1569.81 313.109 1570.8 318.005 1572.76 322.54C1574.73 327.074 1577.62 331.145 1581.26 334.487C1596.18 349.172 1621.99 350.949 1641.62 348.09C1661.25 345.23 1698.73 322.199 1706.62 317.176C1715.12 328.15 1723.62 339.588 1731.74 352.031C1746.69 374.355 1759.62 397.969 1770.38 422.592C1771 424.061 1771.46 425.606 1772 426.997C1768.52 422.901 1747.66 401.803 1745.96 400.489C1725.24 383.872 1675.47 363.933 1650.66 380.317C1646.61 383.146 1643.19 386.798 1640.65 391.035C1638.1 395.272 1636.47 399.999 1635.87 404.908C1635.27 409.816 1635.72 414.795 1637.17 419.52C1638.63 424.246 1641.07 428.611 1644.33 432.33C1657.54 448.56 1682.97 453.197 1702.83 452.424C1726.02 451.651 1770.69 429.239 1772.39 428.079C1782.52 452.922 1791.02 478.404 1797.81 504.36C1802.91 523.526 1807.32 543.002 1811.57 562.942C1806.93 557.686 1787.46 538.133 1785.91 536.819C1765.2 520.203 1715.43 500.264 1690.54 516.648C1686.5 519.484 1683.09 523.14 1680.55 527.377C1678.01 531.614 1676.39 536.338 1675.79 541.243C1675.19 546.148 1675.63 551.123 1677.08 555.847C1678.53 560.57 1680.96 564.936 1684.2 568.661C1697.5 584.891 1722.85 589.528 1742.79 588.755C1765.04 587.982 1808.32 566.419 1812.34 564.565C1814.28 573.53 1816.21 582.495 1818.06 591.537C1824.17 620.905 1830.12 650.428 1836.84 679.333C1839.24 689.38 1841.87 699.195 1844.57 709.01C1837.31 701.282 1823.78 687.757 1822.54 686.752C1801.83 670.058 1751.98 650.119 1727.18 666.503C1723.12 669.332 1719.71 672.984 1717.16 677.221C1714.61 681.458 1712.98 686.185 1712.38 691.094C1711.79 696.002 1712.23 700.981 1713.69 705.706C1715.14 710.432 1717.58 714.797 1720.84 718.516C1734.05 734.823 1759.48 739.383 1779.34 738.687C1799.2 737.992 1835.99 720.603 1846.27 715.502C1850.83 731.809 1855.62 747.884 1861.19 763.496C1863.74 770.142 1865.82 777.098 1868.92 783.358L1873.17 793.328L1867.37 792.787C1867.37 792.787 1867.37 802.138 1867.91 817.209C1846.04 801.752 1814.51 788.227 1794.03 797.656C1789.6 799.846 1785.68 802.944 1782.52 806.749C1779.36 810.553 1777.04 814.979 1775.71 819.738C1774.38 824.497 1774.06 829.484 1774.78 834.374C1775.5 839.265 1777.24 843.949 1779.88 848.123C1781.2 850.35 1782.73 852.447 1784.44 854.383C1788.33 877.452 1798.07 899.139 1812.73 917.37C1813.81 918.607 1828.65 932.363 1836.46 939.164C1828.73 935.146 1821.46 931.436 1813.73 926.722C1802.61 920.539 1791.01 913.66 1779.73 907.014L1761.72 895.499C1755.77 891.866 1750.52 887.77 1744.8 883.751C1736.53 877.8 1728.33 871.308 1720.14 864.739C1727.1 853.765 1747.04 821.228 1749.97 802.216C1752.91 783.204 1751.29 756.772 1736.6 741.779C1733.3 738.105 1729.26 735.168 1724.75 733.157C1720.23 731.147 1715.35 730.108 1710.4 730.108C1705.46 730.108 1700.58 731.147 1696.06 733.157C1691.55 735.168 1687.51 738.105 1684.2 741.779C1665.12 764.964 1679.26 816.359 1693.4 838.849C1693.87 839.544 1697.34 844.027 1701.13 849.205C1693.4 842.636 1685.67 836.066 1677.94 829.111C1656.15 809.326 1634.51 788.536 1612.72 767.824L1599.42 755.226C1605.37 746.03 1627.25 710.942 1630.34 691.08C1633.43 671.218 1631.65 645.636 1617.04 630.566C1613.74 626.892 1609.7 623.955 1605.19 621.944C1600.67 619.934 1595.79 618.895 1590.84 618.895C1585.9 618.895 1581.02 619.934 1576.5 621.944C1571.99 623.955 1567.95 626.892 1564.65 630.566C1545.56 653.751 1559.7 705.069 1573.84 727.558C1574.31 728.409 1578.48 733.664 1583.19 739.538C1571.21 728.486 1559.16 717.511 1546.79 707.078C1525.75 689.02 1503.52 672.392 1480.25 657.306C1482.34 654.061 1508.85 613.409 1512.25 591.305C1515.18 571.675 1513.56 545.862 1498.88 530.868C1495.58 527.197 1491.54 524.261 1487.04 522.251C1482.53 520.241 1477.65 519.202 1472.71 519.202C1467.78 519.202 1462.9 520.241 1458.39 522.251C1453.89 524.261 1449.85 527.197 1446.55 530.868C1427.39 554.054 1441.53 605.448 1455.67 627.938C1456.68 629.484 1471.98 648.573 1477.62 655.142L1476.77 654.601C1453.56 640.309 1429.12 628.127 1403.74 618.2C1381.02 609.136 1357.8 601.395 1334.18 595.015C1312.39 588.909 1292.14 584.736 1274.21 581.104C1264.39 579.249 1255.51 577.78 1247.08 576.389H1247.62C1248.01 576.389 1217.71 556.372 1215.63 555.368C1191.9 543.543 1138.96 534.733 1118.17 555.986C1114.82 559.623 1112.28 563.923 1110.71 568.606C1109.13 573.289 1108.56 578.252 1109.02 583.171C1109.49 588.091 1110.99 592.857 1113.41 597.161C1115.84 601.465 1119.15 605.21 1123.12 608.153C1139.58 621.214 1165.39 620.287 1184.94 615.341C1204.5 610.395 1237.88 584.427 1246 577.935C1254.66 579.481 1263.93 581.258 1274.13 583.422C1291.98 587.364 1312.08 592.001 1333.56 598.879C1339.36 600.657 1345.47 602.743 1351.42 604.598C1340.67 603.516 1325.99 602.125 1324.52 602.125C1298.01 602.666 1247.24 619.128 1238.35 647.646C1237.04 652.408 1236.75 657.394 1237.49 662.277C1238.24 667.159 1240.01 671.829 1242.69 675.98C1245.37 680.131 1248.89 683.67 1253.03 686.365C1257.17 689.061 1261.83 690.852 1266.71 691.621C1287.35 695.64 1309.84 682.888 1324.6 669.672C1339.36 656.456 1357.91 616.577 1361.77 607.844C1374.91 612.249 1388.28 617.118 1401.88 623.301C1426.72 633.663 1450.59 646.207 1473.22 660.784C1474.53 661.634 1475.77 662.716 1477.08 663.567C1471.9 662.098 1442.84 655.838 1440.76 655.838C1414.33 653.365 1361.77 664.185 1350.1 691.544C1348.27 696.122 1347.43 701.035 1347.62 705.962C1347.82 710.889 1349.05 715.72 1351.24 720.139C1353.42 724.558 1356.52 728.466 1360.32 731.609C1364.12 734.752 1368.54 737.058 1373.29 738.378C1393.38 744.638 1417.11 734.437 1433.26 722.921C1451.89 709.628 1476.85 665.808 1477.78 664.185C1499.93 679.329 1521.08 695.903 1541.07 713.802C1555.91 727.017 1570.44 740.929 1584.89 755.072C1578.09 753.294 1551.12 747.343 1549.11 747.343C1522.68 744.87 1470.13 755.69 1458.46 783.049C1456.64 787.634 1455.8 792.549 1456 797.478C1456.2 802.406 1457.43 807.237 1459.62 811.659C1461.81 816.081 1464.89 819.994 1468.69 823.147C1472.48 826.3 1476.89 828.621 1481.64 829.961C1501.74 836.221 1525.46 826.019 1541.61 814.504C1559.78 801.52 1583.89 759.709 1585.98 756.154L1605.61 775.475C1626.86 796.651 1648.11 817.982 1669.75 838.385C1677.48 845.418 1685.21 852.142 1692.47 858.865C1682.2 856.547 1663.42 852.605 1661.56 852.451C1635.05 850.055 1582.58 860.875 1570.83 888.234C1569.01 892.813 1568.17 897.724 1568.38 902.647C1568.58 907.57 1569.81 912.396 1572 916.812C1574.18 921.227 1577.27 925.135 1581.06 928.28C1584.86 931.425 1589.27 933.738 1594.01 935.068C1614.03 941.328 1637.83 931.127 1653.99 919.611C1670.14 908.096 1691.24 873.24 1697.03 863.425C1709.79 874.477 1722.69 885.22 1735.68 895.189C1741.47 899.363 1747.11 904 1752.91 907.71L1769.99 919.148C1781.89 926.876 1793.18 933.445 1804.31 940.015C1809.95 943.415 1815.36 946.429 1820.92 949.675C1810.87 945.734 1794.88 939.783 1793.33 939.396C1767.6 932.982 1713.96 935.687 1698.27 960.959C1695.78 965.227 1694.22 969.973 1693.68 974.886C1693.15 979.799 1693.66 984.77 1695.18 989.473C1696.69 994.177 1699.18 998.508 1702.49 1002.18C1705.79 1005.86 1709.83 1008.8 1714.35 1010.81C1733.2 1020.08 1758.24 1013.59 1776.17 1004.62C1795.65 994.732 1825.02 958.254 1828.57 953.926C1842.25 961.654 1855.62 969.383 1868.22 975.875C1901.92 993.959 1931.36 1008.33 1954.16 1019C2028.35 1083.15 2132.77 1090.26 2132.77 1090.26C2132.77 1090.26 2138.25 965.21 2064.68 882.901C2039.15 855.392 2007.92 833.79 1973.17 819.605ZM1840.78 941.483C1843.1 936.382 1860.88 896.658 1862.11 874.245C1866.21 873.472 1870.38 872.622 1874.4 871.695C1882.02 911.236 1897.81 948.748 1920.77 981.826C1907.25 975.411 1892.64 968.301 1877.19 960.418C1865.28 954.544 1853.15 948.207 1840.78 941.483Z" fill="white"/>
<path d="M2520.27 795.646C2520.27 795.646 2395.15 799.511 2318.56 879.037C2241.97 958.563 2242.98 1083.76 2242.98 1083.76C2242.98 1083.76 2368.1 1079.9 2444.61 1000.37C2521.12 920.848 2520.27 795.646 2520.27 795.646Z" fill="white"/>
</g>
<path d="M2193.51 876.254L2316.4 765.814L2311.14 759.941L2193.44 865.744L2192.82 720.912L2193.51 721.375L2297.38 569.433L2290.89 564.951L2192.82 708.391L2191.27 360.068H2183.39L2184.39 596.56L2106.18 528.859L2101.08 534.81L2184.47 606.994L2185.17 776.093L2066.61 671.14L2061.43 677.091L2185.24 786.604L2185.86 940.555L2096.75 870.613L2091.96 876.873L2185.94 950.602L2186.4 1049.68H2194.29L2193.51 876.254Z" fill="white"/>
<path d="M2080.29 918.916L2072.48 917.988L2062.59 1005.47L2009.81 946.506H2009.96L1996.51 840.626L1988.71 841.631L2000.69 936.305L1869.53 789.695L1863.66 794.951L1952.69 894.416L1896.35 895.112L1896.43 902.995L1959.65 902.222L2022.02 972.01L1933.91 972.088V979.971L2029.05 979.893L2085.78 1043.27L2023.64 1047.05L2024.18 1054.86L2092.5 1050.76L2130.29 1093.04L2136.17 1087.78L2069.62 1013.36L2080.29 918.916Z" fill="white"/>
<path d="M2377.22 950.062L2481.86 928.886L2480.24 921.157L2386.72 940.092L2523.06 798.429L2517.41 792.941L2424.9 889.084L2419.96 832.975L2412.15 833.671L2417.64 896.658L2352.72 964.05L2346.07 876.177L2338.19 876.796L2345.38 971.701L2286.41 1032.99L2278.06 971.315L2270.18 972.32L2279.45 1040.25L2240.12 1081.06L2245.76 1086.47L2315 1014.59L2409.99 1018.23L2410.3 1010.34L2322.35 1007.02L2377.22 949.984V950.062Z" fill="white"/>
<path d="M2572.44 3184.6L1651.98 1504.19L1016 1719.43L1222.27 2120.54L1209.21 2098.13L1170.57 2110.96C1166.72 2112.24 1163.2 2114.35 1160.24 2117.13C1157.28 2119.9 1154.96 2123.29 1153.43 2127.05C1151.91 2130.81 1151.21 2134.85 1151.39 2138.9C1151.58 2142.96 1152.64 2146.92 1154.49 2150.53L1256.2 2348.3C1262.68 2360.95 1273.02 2371.2 1285.72 2377.58C1298.42 2383.96 1312.82 2386.13 1326.84 2383.77L1355.05 2379.06L1850.45 3342.42L2572.44 3184.6Z" fill="#2E353A"/>
<path d="M3167.07 778.642C3157.18 784.048 3145.54 785.31 3134.72 782.151C3123.9 778.993 3114.77 771.672 3109.34 761.794L3085.77 718.746L1651.98 1504.19L2572.44 3184.6L4006.31 2399.23L3505.19 1484.41C3499.79 1474.53 3498.53 1462.9 3501.69 1452.1C3504.85 1441.29 3512.17 1432.17 3522.04 1426.75C3526.94 1424.07 3531.26 1420.45 3534.76 1416.09C3538.26 1411.74 3540.86 1406.74 3542.43 1401.38C3543.99 1396.02 3544.49 1390.4 3543.88 1384.85C3543.27 1379.3 3541.58 1373.92 3538.89 1369.02L3224.73 795.49C3219.31 785.617 3210.19 778.298 3199.38 775.139C3188.57 771.98 3176.95 773.24 3167.07 778.642Z" fill="#90CAF9" stroke="#2E353A" stroke-linecap="round" stroke-linejoin="round"/>
<path d="M3238.4 840.646L2073.92 1255.75L2629.92 2815.45L3794.39 2400.34L3238.4 840.646Z" fill="white" stroke="#2E353A" stroke-linecap="round" stroke-linejoin="round"/>
<path d="M3238.46 840.7L2073.99 1255.81L2278.82 1830.4L3443.29 1415.29L3238.46 840.7Z" fill="white" stroke="#2E353A" stroke-linecap="round" stroke-linejoin="round"/>
<path d="M3148.33 1431.01C3235.28 1375.81 3261.02 1260.57 3205.82 1173.62C3150.61 1086.67 3035.37 1060.93 2948.42 1116.13C2861.47 1171.34 2835.73 1286.58 2890.94 1373.53C2946.14 1460.48 3061.38 1486.22 3148.33 1431.01Z" fill="#2E353A" stroke="#2E353A" stroke-linecap="round" stroke-linejoin="round"/>
<path d="M3110.96 1449.48C3136.81 1440.29 3160.32 1425.5 3179.78 1406.17C3199.25 1386.83 3214.2 1363.43 3223.57 1337.65C3191.18 1265.15 3112.04 1227.36 3040.79 1252.63C2969.53 1277.9 2932.2 1357.43 2952.99 1434.02C2976.56 1448.08 3002.94 1456.75 3030.25 1459.43C3057.56 1462.1 3085.12 1458.7 3110.96 1449.48Z" fill="white" stroke="#2E353A" stroke-linecap="round" stroke-linejoin="round"/>
<path d="M3098.47 1309.78C3137.59 1275.22 3141.29 1215.48 3106.72 1176.36C3072.16 1137.24 3012.43 1133.55 2973.31 1168.11C2934.19 1202.67 2930.49 1262.4 2965.06 1301.52C2999.62 1340.64 3059.35 1344.34 3098.47 1309.78Z" fill="white" stroke="#2E353A" stroke-linecap="round" stroke-linejoin="round"/>
<path d="M2656.81 1278.55L2249.29 1423.82L2265.97 1470.63L2673.49 1325.36L2656.81 1278.55Z" fill="white" stroke="#2E353A" stroke-linecap="round" stroke-linejoin="round"/>
<path d="M2696.95 1391.02L2289.43 1536.29L2306.12 1583.1L2713.64 1437.83L2696.95 1391.02Z" fill="white" stroke="#2E353A" stroke-linecap="round" stroke-linejoin="round"/>
<path d="M2730.26 1484.62L2322.74 1629.89L2331.1 1653.34L2738.62 1508.06L2730.26 1484.62Z" fill="#2E353A"/>
<path d="M2750.31 1540.87L2342.79 1686.14L2351.15 1709.58L2758.67 1564.31L2750.31 1540.87Z" fill="#2E353A"/>
<path d="M2852.17 1826.6L2444.65 1971.87L2453 1995.31L2860.52 1850.04L2852.17 1826.6Z" fill="#2E353A"/>
<path d="M2870.5 1878.18L2462.97 2023.45L2471.33 2046.89L2878.85 1901.62L2870.5 1878.18Z" fill="#2E353A"/>
<path d="M2888.9 1929.68L2481.38 2074.95L2489.74 2098.39L2897.26 1953.12L2888.9 1929.68Z" fill="#2E353A"/>
<path d="M3404.89 1629.54L2997.37 1774.81L3005.73 1798.25L3413.25 1652.98L3404.89 1629.54Z" fill="#2E353A"/>
<path d="M3423.3 1681.11L3015.78 1826.38L3024.13 1849.83L3431.66 1704.55L3423.3 1681.11Z" fill="#2E353A"/>
<path d="M3441.63 1732.64L3034.11 1877.91L3042.47 1901.35L3449.99 1756.08L3441.63 1732.64Z" fill="#2E353A"/>
<path d="M2418.49 1928.57L3402.25 1578" stroke="#2E353A" stroke-linecap="round" stroke-linejoin="round"/>
<path d="M2947.35 2093.6L2539.83 2238.87L2548.19 2262.31L2955.71 2117.04L2947.35 2093.6Z" fill="#2E353A"/>
<path d="M2965.68 2145.2L2558.16 2290.47L2566.52 2313.91L2974.04 2168.64L2965.68 2145.2Z" fill="#2E353A"/>
<path d="M2984.09 2196.7L2576.57 2341.97L2584.92 2365.42L2992.44 2220.14L2984.09 2196.7Z" fill="#2E353A"/>
<path d="M3500.08 1896.56L3092.56 2041.83L3100.92 2065.27L3508.44 1920L3500.08 1896.56Z" fill="#2E353A"/>
<path d="M3518.49 1948.14L3110.96 2093.41L3119.32 2116.85L3526.84 1971.58L3518.49 1948.14Z" fill="#2E353A"/>
<path d="M3536.82 1999.66L3129.3 2144.94L3137.65 2168.38L3545.17 2023.1L3536.82 1999.66Z" fill="#2E353A"/>
<path d="M2513.63 2195.59L3497.39 1845.02" stroke="#2E353A" stroke-linecap="round" stroke-linejoin="round"/>
<path d="M3573.54 2102.63L2608.53 2446.63L2692.01 2680.83L3657.02 2336.82L3573.54 2102.63Z" fill="#2E353A" stroke="#2E353A" stroke-linecap="round" stroke-linejoin="round"/>
<path d="M3085.97 937.178L1949.78 1424.39L2602.34 2946.2L3738.54 2459L3085.97 937.178Z" fill="white" stroke="#2E353A" stroke-linecap="round" stroke-linejoin="round"/>
<path d="M3086.03 937.201L1949.84 1424.41L2190.24 1985.05L3326.44 1497.84L3086.03 937.201Z" fill="white" stroke="#2E353A" stroke-linecap="round" stroke-linejoin="round"/>
<path d="M3081.06 1480.87C3136.03 1393.78 3109.99 1278.61 3022.9 1223.63C2935.8 1168.66 2820.63 1194.7 2765.65 1281.79C2710.68 1368.89 2736.72 1484.06 2823.81 1539.03C2910.91 1594.01 3026.08 1567.97 3081.06 1480.87Z" fill="#2E353A" stroke="#2E353A" stroke-linecap="round" stroke-linejoin="round"/>
<path d="M2996.89 1552.81C3022.11 1542.01 3044.64 1525.77 3062.85 1505.24C3081.06 1484.72 3094.51 1460.43 3102.23 1434.1C3065.44 1363.85 2984.06 1331 2914.58 1360.83C2845.1 1390.66 2812.8 1472.2 2838.3 1547.32C2862.7 1559.86 2889.57 1566.85 2916.98 1567.8C2944.4 1568.75 2971.68 1563.63 2996.89 1552.81Z" fill="white" stroke="#2E353A" stroke-linecap="round" stroke-linejoin="round"/>
<path d="M2973.21 1416.31C3011.38 1380.7 3013.46 1320.89 2977.85 1282.72C2942.25 1244.55 2882.44 1242.47 2844.26 1278.08C2806.09 1313.69 2804.01 1373.5 2839.62 1411.67C2875.23 1449.84 2935.04 1451.92 2973.21 1416.31Z" fill="white" stroke="#2E353A" stroke-linecap="round" stroke-linejoin="round"/>
<path d="M2532.91 1410.7L2135.29 1581.2L2154.87 1626.87L2552.5 1456.37L2532.91 1410.7Z" fill="white" stroke="#2E353A" stroke-linecap="round" stroke-linejoin="round"/>
<path d="M2579.97 1520.38L2182.35 1690.88L2201.93 1736.55L2599.56 1566.05L2579.97 1520.38Z" fill="white" stroke="#2E353A" stroke-linecap="round" stroke-linejoin="round"/>
<path d="M2619.19 1611.74L2221.56 1782.25L2231.37 1805.12L2629 1634.61L2619.19 1611.74Z" fill="#2E353A"/>
<path d="M2642.7 1666.59L2245.07 1837.1L2254.88 1859.97L2652.51 1689.47L2642.7 1666.59Z" fill="#2E353A"/>
<path d="M2762.28 1945.39L2364.66 2115.9L2374.47 2138.77L2772.09 1968.26L2762.28 1945.39Z" fill="#2E353A"/>
<path d="M2783.85 1995.66L2386.22 2166.16L2396.03 2189.03L2793.65 2018.53L2783.85 1995.66Z" fill="#2E353A"/>
<path d="M2805.34 2046.03L2407.71 2216.53L2417.52 2239.4L2815.14 2068.9L2805.34 2046.03Z" fill="#2E353A"/>
<path d="M3301.54 1714.23L2903.91 1884.74L2913.72 1907.61L3311.35 1737.11L3301.54 1714.23Z" fill="#2E353A"/>
<path d="M3323.07 1764.43L2925.44 1934.93L2935.25 1957.8L3332.88 1787.3L3323.07 1764.43Z" fill="#2E353A"/>
<path d="M3344.71 1814.77L2947.08 1985.27L2956.89 2008.14L3354.51 1837.64L3344.71 1814.77Z" fill="#2E353A"/>
<path d="M2335.79 2074.33L3295.67 1662.78" stroke="#2E353A" stroke-linecap="round" stroke-linejoin="round"/>
<path d="M2873.96 2205.97L2476.33 2376.47L2486.14 2399.34L2883.77 2228.84L2873.96 2205.97Z" fill="#2E353A"/>
<path d="M2895.57 2256.16L2497.94 2426.66L2507.75 2449.54L2905.37 2279.03L2895.57 2256.16Z" fill="#2E353A"/>
<path d="M2917.13 2306.5L2519.5 2477L2529.31 2499.88L2926.93 2329.37L2917.13 2306.5Z" fill="#2E353A"/>
<path d="M3413.33 1974.71L3015.71 2145.21L3025.51 2168.08L3423.14 1997.58L3413.33 1974.71Z" fill="#2E353A"/>
<path d="M3434.86 2024.9L3037.24 2195.4L3047.04 2218.28L3444.67 2047.77L3434.86 2024.9Z" fill="#2E353A"/>
<path d="M3456.35 2075.27L3058.73 2245.78L3068.53 2268.65L3466.16 2098.14L3456.35 2075.27Z" fill="#2E353A"/>
<path d="M2447.47 2334.85L3407.35 1923.31" stroke="#2E353A" stroke-linecap="round" stroke-linejoin="round"/>
<path d="M3499.51 2175.74L2557.94 2579.5L2655.92 2808L3597.5 2404.25L3499.51 2175.74Z" fill="#2E353A" stroke="#2E353A" stroke-linecap="round" stroke-linejoin="round"/>
<path d="M2826.15 927.111L1789.23 1600.24L2690.82 2989.09L3727.74 2315.96L2826.15 927.111Z" fill="white" stroke="#2E353A" stroke-linecap="round" stroke-linejoin="round"/>
<path d="M2826.2 927.176L1789.27 1600.3L2121.42 2111.96L3158.34 1438.83L2826.2 927.176Z" fill="white" stroke="#2E353A" stroke-linecap="round" stroke-linejoin="round"/>
<path d="M2771.17 1576.33C2872.83 1559.81 2941.85 1464.01 2925.33 1362.34C2908.81 1260.68 2813.01 1191.66 2711.35 1208.18C2609.68 1224.7 2540.66 1320.51 2557.18 1422.17C2573.7 1523.83 2669.51 1592.85 2771.17 1576.33Z" fill="#2E353A" stroke="#2E353A" stroke-linecap="round" stroke-linejoin="round"/>
<path d="M2842.94 1548.17C2865.97 1533.25 2885.41 1513.42 2899.88 1490.1C2914.35 1466.79 2923.49 1440.57 2926.64 1413.31C2878.41 1350.24 2792.63 1331.85 2729.25 1372.96C2665.88 1414.08 2647.79 1500.02 2685.74 1569.73C2711.91 1577.96 2739.58 1580.29 2766.75 1576.56C2793.93 1572.83 2819.95 1563.14 2842.94 1548.17Z" fill="#90CAF9" stroke="#2E353A" stroke-linecap="round" stroke-linejoin="round"/>
<path d="M2782.41 1432.87C2822.15 1399.01 2826.92 1339.36 2793.06 1299.62C2759.21 1259.89 2699.55 1255.12 2659.82 1288.97C2620.08 1322.83 2615.31 1382.48 2649.17 1422.22C2683.02 1461.95 2742.68 1466.72 2782.41 1432.87Z" fill="white" stroke="#2E353A" stroke-linecap="round" stroke-linejoin="round"/>
<path d="M2361.52 1487.68L1998.64 1723.25L2025.69 1764.93L2388.58 1529.36L2361.52 1487.68Z" fill="white" stroke="#2E353A" stroke-linecap="round" stroke-linejoin="round"/>
<path d="M2426.48 1587.79L2063.6 1823.36L2090.65 1865.04L2453.54 1629.47L2426.48 1587.79Z" fill="white" stroke="#2E353A" stroke-linecap="round" stroke-linejoin="round"/>
<path d="M2474.14 1681.48L2110.72 1915.1L2124.16 1936.01L2487.58 1702.38L2474.14 1681.48Z" fill="#2E353A"/>
<path d="M2513.18 1721.21L2150.29 1956.78L2163.84 1977.65L2526.73 1742.08L2513.18 1721.21Z" fill="#2E353A"/>
<path d="M2678.39 1975.64L2315.51 2211.21L2329.06 2232.08L2691.94 1996.51L2678.39 1975.64Z" fill="#2E353A"/>
<path d="M2708.17 2021.59L2345.29 2257.16L2358.84 2278.04L2721.72 2042.47L2708.17 2021.59Z" fill="#2E353A"/>
<path d="M2737.96 2067.54L2375.07 2303.11L2388.62 2323.99L2751.51 2088.42L2737.96 2067.54Z" fill="#2E353A"/>
<path d="M3170.6 1656.09L2807.72 1891.66L2821.27 1912.54L3184.15 1676.97L3170.6 1656.09Z" fill="#2E353A"/>
<path d="M3200.45 1702L2837.57 1937.57L2851.12 1958.45L3214 1722.88L3200.45 1702Z" fill="#2E353A"/>
<path d="M3230.23 1747.96L2867.35 1983.53L2880.9 2004.4L3243.78 1768.83L3230.23 1747.96Z" fill="#2E353A"/>
<path d="M2280.15 2174.79L3156.1 1606.05" stroke="#2E353A" stroke-linecap="round" stroke-linejoin="round"/>
<path d="M2832.76 2213.48L2469.88 2449.05L2483.43 2469.93L2846.31 2234.36L2832.76 2213.48Z" fill="#2E353A"/>
<path d="M2862.5 2259.37L2499.62 2494.94L2513.17 2515.82L2876.05 2280.25L2862.5 2259.37Z" fill="#2E353A"/>
<path d="M2892.35 2305.21L2529.47 2540.78L2543.02 2561.65L2905.9 2326.08L2892.35 2305.21Z" fill="#2E353A"/>
<path d="M3324.97 1893.94L2962.09 2129.51L2975.64 2150.38L3338.52 1914.81L3324.97 1893.94Z" fill="#2E353A"/>
<path d="M3354.78 1939.79L2991.89 2175.36L3005.44 2196.23L3368.33 1960.66L3354.78 1939.79Z" fill="#2E353A"/>
<path d="M3384.48 1985.74L3021.6 2221.31L3035.15 2242.18L3398.03 2006.61L3384.48 1985.74Z" fill="#2E353A"/>
<path d="M2434.49 2412.52L3310.43 1843.86" stroke="#2E353A" stroke-linecap="round" stroke-linejoin="round"/>
<path d="M3444.19 2077.49L2584.88 2635.31L2720.26 2843.85L3579.56 2286.02L3444.19 2077.49Z" fill="#2E353A" stroke="#2E353A" stroke-linecap="round" stroke-linejoin="round"/>
<path d="M1651.98 1504.19L1102.33 1078.66L1429.4 1692.23C1437.13 1707.07 1416.64 1709.85 1395.78 1696.71C1374.68 1683.5 1353.89 1686.43 1362.16 1701.43L1531.8 2009.79C1534.49 2014.19 1538.04 2018 1542.23 2021L1625.08 2083.45C1629.39 2086.49 1633 2090.41 1635.67 2094.96L1978.89 2746.86L2572.52 3184.6L1651.98 1504.19Z" fill="#90CAF9" stroke="#2E353A" stroke-linecap="round" stroke-linejoin="round"/>
<path opacity="0.25" d="M1651.98 1504.19L1102.33 1078.66L1429.4 1692.23C1437.13 1707.07 1416.64 1709.85 1395.78 1696.71C1374.68 1683.5 1353.89 1686.43 1362.16 1701.43L1531.8 2009.79C1534.49 2014.19 1538.04 2018 1542.23 2021L1625.08 2083.45C1629.39 2086.49 1633 2090.41 1635.67 2094.96L1978.89 2746.86L2572.52 3184.6L1651.98 1504.19Z" fill="#2E353A" stroke="#2E353A" stroke-linecap="round" stroke-linejoin="round"/>
<path d="M3993.17 2440.97C3993.05 2440.69 3992.83 2440.47 3992.55 2440.35C3983.51 2436.41 3907.54 2437.1 3905.53 2441.58C3905.53 2442.13 3905.91 2442.82 3907.07 2443.59C3908.7 2444.61 3910.4 2445.49 3912.17 2446.22C3914.34 2447.15 3916.97 2448.15 3919.9 2449.16C3922.84 2450.16 3925.62 2451.17 3928.64 2452.09L3941.54 2456.11L3948.34 2458.12L3952.83 2459.36L3874.15 2535.49C3857.76 2550.45 3840.55 2564.48 3822.6 2577.53L3819.05 2573.97C3813.9 2569 3808.46 2564.36 3802.74 2560.06V2558.05C3796.08 2562.29 3789.13 2566.06 3781.95 2569.34C3755.05 2582.86 3679.62 2616.71 3652.73 2670.97C3639.25 2698.5 3624.28 2725.28 3607.9 2751.19V2754.74H3605.74C3579.69 2752.5 3530.08 2769.81 3493.6 2787.82C3462.45 2805.05 3432.45 2824.28 3403.79 2845.4L3375.51 2855.37C3365.23 2856.84 3346.37 2859.23 3343.74 2862.4C3341.12 2865.57 3322.8 2862.4 3314.68 2864.41C3306.57 2866.42 3308.89 2872.14 3308.89 2872.14L3324.35 2873.61L3222.41 2909.08L3304.41 2974.15L3415.62 2932.88L3421.57 2934.35C3433.43 2938 3446.24 2936.86 3457.28 2931.18C3461.2 2929.71 3465.04 2928.04 3468.79 2926.16C3489.35 2923.46 3551.87 2909.7 3573.59 2904.91C3589.9 2927.01 3636.42 2964.18 3644.38 2980.26C3644.76 2981.11 3645.07 2981.99 3645.31 2982.89C3645.31 2982.89 3645.31 2983.27 3645.31 2983.51C3645.47 2984.17 3645.47 2984.86 3645.31 2985.52C3641.63 2994.51 3636.82 3003 3631.01 3010.79C3620.42 3006.42 3609.49 3002.93 3598.32 3000.35C3556.05 2990.62 3532.94 3034.51 3525.59 3036.68C3518.25 3038.84 3509.29 3045.33 3517.87 3051.52C3526.45 3057.7 3513.46 3063.42 3508.21 3071.77C3504.94 3078.36 3502.72 3085.43 3501.64 3092.71C3473.74 3095.11 3449.86 3106.62 3443.67 3123.62C3435.94 3145.34 3506.35 3161.26 3506.35 3161.26C3506.35 3161.26 3603.81 3199.36 3678.16 3175.48C3752.5 3151.6 3749.64 3111.8 3755.44 3090.47C3761.24 3069.14 3821.91 3016.66 3889.99 2980.11C3958.08 2943.55 3987.68 2910.55 3922.92 2861.01C3880.41 2828.47 3843 2812.86 3812.17 2811.62C3812.94 2809.77 3813.79 2807.91 3814.64 2806.14L3816.19 2802.74C3817.11 2800.8 3818.2 2798.95 3819.2 2797.02L3820.75 2794.24C3822.37 2791.45 3824.07 2788.75 3825.92 2786.04C3829.15 2781.46 3831.97 2776.59 3834.35 2771.51C3841.86 2755.81 3843.85 2738.02 3839.99 2721.05C3838.67 2716.15 3837.94 2711.12 3837.83 2706.05C3839.37 2695.93 3856.22 2656.13 3860.55 2638.43C3860.71 2637.2 3860.71 2635.95 3860.55 2634.72C3859.93 2629.73 3858.35 2624.9 3855.91 2620.5C3873.3 2610.14 3908.31 2591.29 3924.38 2573.43C3940.46 2555.58 3975.62 2491.97 3988.76 2459.36C3989.3 2458.05 3989.77 2456.73 3990.23 2455.5C3990.7 2454.34 3991.08 2453.1 3991.47 2452.02C3991.78 2450.94 3992.09 2449.93 3992.4 2449V2448.62C3992.4 2447.84 3992.86 2446.99 3993.01 2446.3C3992.98 2446.17 3992.98 2446.04 3993.01 2445.91C3993.01 2445.22 3993.01 2444.6 3993.01 2444.06V2443.52C3993.05 2443.11 3993.05 2442.69 3993.01 2442.28V2441.66C3993.01 2441.66 3993.25 2441.2 3993.17 2440.97ZM3582.55 2876C3558.67 2882.65 3503.65 2900.04 3474.36 2909.78L3420.26 2860.24C3433.39 2853.44 3462.53 2840.76 3495.61 2826.54C3526.28 2815.05 3558.1 2806.89 3590.51 2802.2C3593.2 2807.17 3594.96 2812.59 3595.69 2818.19C3598.78 2827.77 3602.66 2837.08 3607.28 2846.02C3601.07 2857.53 3592.67 2867.71 3582.55 2876Z" fill="#2E353A"/>
<path d="M3900.58 2068.92C3916.77 2118.19 3930.32 2168.29 3941.16 2219C3952.05 2278.74 3974.85 2403.1 3974.85 2403.1C3974.85 2403.1 3917.51 2406.34 3916.5 2415.69C3915.5 2425.05 3992.16 2462.06 4003.6 2458.43C4015.04 2454.8 4021.61 2221.48 4014.73 2168.46C4007.85 2115.44 3971.22 2044.8 3968.36 2028.88C3965.5 2012.96 3959.24 1981.97 3959.24 1981.97L3900.58 2068.92Z" fill="white" stroke="#2E353A" stroke-linecap="round" stroke-linejoin="round"/>
<path d="M4003.6 2458.43C4006.46 2457.58 4009.01 2442.97 4011.33 2419.79C3988.84 2436.33 3972.69 2419.79 3972.69 2419.79L3974.78 2403.25C3974.78 2403.25 3917.43 2406.5 3916.42 2415.85C3915.42 2425.2 3992.16 2461.99 4003.6 2458.43Z" fill="#90CAF9" stroke="#2E353A" stroke-linecap="round" stroke-linejoin="round"/>
<path d="M3866.5 1369.87C3866.5 1369.87 3775.46 1276.05 3761.93 1269.4C3748.41 1262.76 3743.69 1277.13 3747.56 1285.25C3751.42 1293.36 3844.01 1416.09 3859.7 1432.09C3875.39 1448.08 3866.5 1369.87 3866.5 1369.87Z" fill="white" stroke="#2E353A" stroke-linecap="round" stroke-linejoin="round"/>
<path d="M3630.32 1104.09L3508.28 1192.04L3652.65 1400.32L3764.25 1306.42L3630.32 1104.09Z" fill="#2E353A" stroke="#2E353A" stroke-linecap="round" stroke-linejoin="round"/>
<path d="M3631.17 1126.73L3527.91 1201.16L3650.1 1377.45L3744.54 1298L3631.17 1126.73Z" fill="#90CAF9" stroke="#2E353A" stroke-linecap="round" stroke-linejoin="round"/>
<path d="M3772.83 1286.02C3768.87 1276.26 3764 1266.9 3758.3 1258.04C3748.25 1242.59 3741.84 1234.32 3724.14 1235.32C3710.99 1235.71 3697.83 1234.75 3684.88 1232.46C3674.75 1231.38 3674.6 1245.99 3679.93 1251.01C3685.27 1256.03 3714.71 1254.8 3714.71 1254.8C3711.7 1250.86 3713.94 1257.27 3733.41 1284.09C3738.9 1291.82 3758.15 1293.13 3762.47 1293.59" fill="white"/>
<path d="M3772.83 1286.02C3768.87 1276.26 3764 1266.9 3758.3 1258.04C3748.25 1242.59 3741.84 1234.32 3724.14 1235.32C3710.99 1235.71 3697.83 1234.75 3684.88 1232.46C3674.75 1231.38 3674.6 1245.99 3679.93 1251.01C3685.27 1256.03 3714.71 1254.8 3714.71 1254.8C3711.7 1250.86 3713.94 1257.27 3733.41 1284.09C3738.9 1291.82 3758.15 1293.13 3762.47 1293.59" stroke="#2E353A" stroke-linecap="round" stroke-linejoin="round"/>
<path d="M3903.44 951.146C3898.82 970.233 3895.79 989.673 3894.4 1009.26C3894.4 1027.81 3904.45 1045.12 3891.93 1053.01C3879.41 1060.89 3884.66 1077.74 3890.77 1085.31C3896.87 1092.89 3893.7 1188.8 3942.32 1189.49C3990.93 1190.19 4037.68 1165.15 4047.58 1138.41C4057.47 1111.67 4081.97 1035.54 4051.13 999.68C4020.3 963.82 3931.88 903.229 3903.44 951.146Z" fill="white" stroke="#2E353A" stroke-linecap="round" stroke-linejoin="round"/>
<path d="M3905.3 1039.95L3912.95 1054.01L3903.67 1054.32" stroke="#2E353A" stroke-linecap="round" stroke-linejoin="round"/>
<path d="M3903.75 1017.38C3903.75 1017.38 3918.28 1017.38 3919.21 1041.49" stroke="#2E353A" stroke-linecap="round" stroke-linejoin="round"/>
<path d="M3980.96 1175.11C3982.8 1196.72 3982.8 1218.43 3980.96 1240.03C3980.38 1243.56 3978.97 1246.89 3976.86 1249.77C4001 1233.2 4026.93 1219.38 4054.15 1208.58L4061.87 1205.64C4057.92 1172.84 4055.96 1139.83 4056 1106.79L3980.96 1175.11Z" fill="white" stroke="#2E353A" stroke-linecap="round" stroke-linejoin="round"/>
<path d="M3773.6 2100.22C3773.6 2100.22 3769.43 2204.94 3778.24 2240.72C3787.05 2276.5 3819.59 2572.5 3818.2 2599.24C3816.8 2625.98 3815.72 2636.96 3815.72 2636.96C3815.72 2636.96 3735.27 2648.71 3727.08 2651.03C3718.88 2653.34 3716.18 2664.09 3760.7 2676.84C3805.21 2689.59 3839.45 2709.14 3848.96 2694.38C3858.46 2679.62 3871.37 2624.83 3875.15 2584.87C3884.04 2492.13 3899.27 2387.95 3890.15 2341.11C3881.03 2294.28 3857.3 2236.01 3860.55 2220.55C3863.79 2205.09 3914.03 2035.06 3914.03 2035.06L3773.6 2100.22Z" fill="white" stroke="#2E353A" stroke-linecap="round" stroke-linejoin="round"/>
<path d="M3848.96 2694.38C3853.86 2684.2 3857.22 2673.33 3858.92 2662.16C3835.35 2674.6 3806.37 2656.98 3806.37 2656.98L3815.72 2636.96C3815.72 2636.96 3735.27 2648.71 3727.08 2651.03C3718.88 2653.35 3716.18 2664.09 3760.7 2676.84C3805.21 2689.59 3839.45 2709.14 3848.96 2694.38Z" fill="#90CAF9" stroke="#2E353A" stroke-linecap="round" stroke-linejoin="round"/>
<path d="M3980.96 1175.11C3982.8 1196.72 3982.8 1218.43 3980.96 1240.03C3977.71 1269.79 3843 1357.04 3846.41 1389.89C3849.81 1422.74 3865.65 1468.49 3856.76 1506.9C3847.87 1545.31 3798.57 1679.01 3788.75 1726.62C3778.94 1774.23 3741.61 2136.23 3758.45 2152.15C3775.3 2168.07 3843.47 2161.35 3877.78 2141.95C3912.1 2122.55 3982.97 2049.21 3989.23 2012.81C3995.49 1976.4 4002.52 1891.39 4007.08 1870.99C4011.64 1850.58 4047.11 1801.43 4043.17 1710.39C4039.23 1619.35 4072.08 1509.45 4079.81 1438.58C4087.53 1367.71 4079.81 1271.64 4067.52 1233.23C4055.23 1194.82 4055.85 1106.79 4055.85 1106.79L3980.96 1175.11Z" fill="#90CAF9" stroke="#2E353A" stroke-linecap="round" stroke-linejoin="round"/>
<path d="M3989.07 2012.81C3995.41 1976.4 4002.37 1891.39 4006.93 1870.99C4011.49 1850.59 4046.96 1801.43 4043.02 1710.39C4040.78 1660.46 4049.74 1604.82 4059.56 1552.96C4033.82 1577.38 3966.81 1634.26 3895.33 1640.91C3843.62 1645.78 3826.77 1630.71 3821.91 1616.64C3807.61 1659.77 3793.39 1703.43 3788.6 1726.62C3778.7 1774.23 3741.45 2136.23 3758.3 2152.15C3775.15 2168.07 3843.31 2161.35 3877.63 2141.95C3911.94 2122.55 3982.81 2049.21 3989.07 2012.81Z" fill="#2E353A" stroke="#2E353A" stroke-linecap="round" stroke-linejoin="round"/>
<path d="M3974.47 1907.23L3870.13 2089.01" stroke="white" stroke-width="0.5" stroke-linecap="round" stroke-linejoin="round"/>
<path d="M3926.78 2023.47L3879.1 2118.84" stroke="white" stroke-width="0.5" stroke-linecap="round" stroke-linejoin="round"/>
<path d="M4317.15 1304.03C4296.98 1216.62 4239.86 1186.4 4189.47 1156.18C4166.29 1142.35 4158.56 1118.7 4157.48 1097.06L4154.93 1120.24C4153.66 1109.28 4153.66 1098.21 4154.93 1087.24C4155.78 1082.14 4156.86 1076.66 4158.09 1070.7C4157 1079.34 4156.74 1088.06 4157.32 1096.75L4162.5 1048.37V1048.91C4170.23 1005.55 4173.71 947.822 4128.26 887.308C4067.59 806.468 3946.26 834.986 3946.26 834.986C3946.26 834.986 3865.34 833.054 3860.32 878.884C3855.29 924.713 3885.43 967.375 3926.16 976.494C3926.16 976.494 3934.43 994.115 3943.86 1020.47C3939.58 1024.49 3936.28 1029.43 3934.2 1034.92C3934.2 1034.92 3947.65 1041.65 3954.37 1085.31C3961.1 1128.98 3893.86 1209.66 3900.27 1263.07C3906.69 1316.47 3964.11 1317.17 3960.71 1347.08C3957.31 1376.98 3917.04 1370.26 3920.44 1407.51C3922.84 1434.02 3968.51 1467.49 3997.73 1491.75C3995.93 1517.48 3995.74 1543.29 3997.19 1569.04C3979.17 1598.27 3969.97 1632.08 3970.68 1666.42C3972.69 1716.19 4018.67 1733.89 4062.34 1722.22C4074.35 1718.94 4086.04 1714.59 4097.27 1709.23C4138.39 1725.77 4238.39 1713.02 4286.46 1632.88C4336.85 1548.87 4289.79 1521.97 4286.46 1461.53C4283.14 1401.1 4337.32 1391.36 4317.15 1304.03Z" fill="#2E353A" stroke="#2E353A" stroke-linecap="round" stroke-linejoin="round"/>
<path d="M3920.21 908.328C3944.63 940.848 3974.33 969.036 4008.08 991.718C4071.92 1032.06 4028.26 1153.01 3977.87 1206.73C3927.48 1260.44 3937.52 1310.91 3994.64 1337.72C4051.75 1364.54 4152.53 1394.84 4095.11 1492.29C4037.68 1589.75 4031.27 1666.96 4115.28 1690.53" stroke="white" stroke-width="0.5" stroke-linecap="round" stroke-linejoin="round"/>
<path d="M3900.58 880.736C3900.58 880.736 3905.22 888.465 3913.72 899.671" stroke="white" stroke-width="0.5" stroke-linecap="round" stroke-linejoin="round"/>
<path d="M4187.08 1679.01C4192.62 1680.33 4198.36 1680.53 4203.98 1679.59C4209.6 1678.64 4214.96 1676.58 4219.77 1673.53" stroke="white" stroke-width="0.5" stroke-linecap="round" stroke-linejoin="round"/>
<path d="M4125.4 1310.29C4177.49 1328.99 4233.6 1344.76 4239.86 1398.08C4249.99 1485.41 4132.36 1525.76 4132.36 1596.24C4132.36 1629.4 4144.96 1652.89 4161.42 1666.42" stroke="white" stroke-width="0.5" stroke-linecap="round" stroke-linejoin="round"/>
<path d="M4008.08 991.719C4008.08 991.719 4088.69 1021.94 4108.56 1072.33C4128.42 1122.72 4004.45 1196.68 4044.72 1260.52C4057.16 1280.15 4079.42 1292.43 4104.69 1302.64" stroke="white" stroke-width="0.5" stroke-linecap="round" stroke-linejoin="round"/>
<path d="M4120.46 920.771C4120.46 920.771 4190.01 991.796 4158.25 1071.01C4126.49 1150.23 4111.88 1186.01 4135.06 1206.88C4158.25 1227.75 4281.21 1236.71 4311.2 1331.77" stroke="white" stroke-width="0.5" stroke-linecap="round" stroke-linejoin="round"/>
<path d="M3837.9 1588.28C3837.9 1588.28 3767.57 1536.35 3734.34 1478.85C3701.11 1421.35 3673.13 1372.5 3673.83 1366.24C3674.52 1359.98 3677.92 1328.68 3668.19 1316.55C3658.45 1304.41 3625.22 1289.65 3620.89 1286.02C3616.56 1282.39 3607.52 1292.51 3617.56 1301.48C3627.61 1310.44 3637.58 1321.11 3637.58 1321.11L3572.97 1304.57C3571.37 1307.27 3570.63 1310.4 3570.85 1313.53C3571.07 1316.67 3572.24 1319.66 3574.21 1322.11C3581.32 1329.22 3601.64 1331.39 3602.34 1339.42C3603.03 1347.46 3623.59 1362.61 3632.33 1369.56C3636.04 1373.25 3640.65 1375.92 3645.7 1377.29C3645.7 1377.29 3682.72 1501.64 3708.76 1553.58C3734.81 1605.52 3774.45 1661.78 3802.04 1669.51C3829.63 1677.24 3863.48 1628.7 3863.48 1628.7L3837.9 1588.28Z" fill="white" stroke="#2E353A" stroke-linecap="round" stroke-linejoin="round"/>
<path d="M3960.09 1338.96C3960.09 1338.96 3922.45 1364.93 3910.71 1400.02C3898.96 1435.1 3838.98 1520.35 3830.33 1541.6C3826.4 1552.2 3821.04 1562.21 3814.41 1571.36C3814.41 1571.36 3822.14 1617.73 3854.13 1642.15C3886.13 1666.57 3896.02 1664.18 3896.02 1664.18C3896.02 1664.18 4011.95 1475.75 4030.65 1431.93C4049.35 1388.11 4009.94 1317.47 3960.09 1338.96Z" fill="#90CAF9" stroke="#2E353A" stroke-linecap="round" stroke-linejoin="round"/>
<defs>
<filter id="filter0_f_2108_1230" x="1077.44" y="239.443" width="5261.11" height="4291.11" filterUnits="userSpaceOnUse" color-interpolation-filters="sRGB">
<feFlood flood-opacity="0" result="BackgroundImageFix"/>
<feBlend mode="normal" in="SourceGraphic" in2="BackgroundImageFix" result="shape"/>
<feGaussianBlur stdDeviation="284.278" result="effect1_foregroundBlur_2108_1230"/>
</filter>
<linearGradient id="paint0_linear_2108_1230" x1="3708" y1="808" x2="3708" y2="3962" gradientUnits="userSpaceOnUse">
<stop stop-color="#16B6F0" stop-opacity="0.36"/>
<stop offset="1" stop-color="#1653F0" stop-opacity="0.6"/>
</linearGradient>
<linearGradient id="paint1_linear_2108_1230" x1="1049.5" y1="3665.68" x2="1049.5" y2="6441.82" gradientUnits="userSpaceOnUse">
<stop stop-color="#EAF0FF" stop-opacity="0.05"/>
<stop offset="1" stop-color="#EAF0FF"/>
</linearGradient>
<clipPath id="clip0_2108_1230">
<rect width="5371" height="3529" fill="white"/>
</clipPath>
</defs>
</svg>
