<svg width="5294" height="3529" viewBox="0 0 5294 3529" fill="none" xmlns="http://www.w3.org/2000/svg">
<path d="M0 0H5294V3529H0V0Z" fill="#D9D9D9" fill-opacity="0.08"/>
<path d="M4486.68 2975.6H596V2977.54H4486.68V2975.6Z" fill="#EBEBEB"/>
<path d="M4096.83 3100.8H3839.12V3102.74H4096.83V3100.8Z" fill="#EBEBEB"/>
<path d="M3173.34 3121.96H3105.72V3123.91H3173.34V3121.96Z" fill="#EBEBEB"/>
<path d="M3831.34 3028.59H3682.01V3030.53H3831.34V3028.59Z" fill="#EBEBEB"/>
<path d="M1340.29 3041.66H1004.21V3043.61H1340.29V3041.66Z" fill="#EBEBEB"/>
<path d="M1458.88 3041.66H1409.62V3043.61H1458.88V3041.66Z" fill="#EBEBEB"/>
<path d="M2347.97 3074.5H1619.01V3076.44H2347.97V3074.5Z" fill="#EBEBEB"/>
<path d="M2440.18 2628.55H937.678C925.907 2628.53 914.626 2623.84 906.31 2615.51C897.995 2607.18 893.324 2595.89 893.324 2584.12V472.018C893.427 460.315 898.142 449.125 906.447 440.878C914.752 432.632 925.975 427.995 937.678 427.975H2440.18C2451.97 427.975 2463.27 432.656 2471.6 440.989C2479.93 449.321 2484.61 460.623 2484.61 472.407V2584.12C2484.61 2595.9 2479.93 2607.2 2471.6 2615.53C2463.27 2623.87 2451.97 2628.55 2440.18 2628.55ZM937.678 429.531C926.423 429.552 915.637 434.037 907.686 442.003C899.735 449.968 895.27 460.763 895.27 472.018V2584.12C895.27 2595.37 899.735 2606.17 907.686 2614.13C915.637 2622.1 926.423 2626.58 937.678 2626.6H2440.18C2451.44 2626.58 2462.24 2622.1 2470.2 2614.14C2478.16 2606.17 2482.65 2595.38 2482.67 2584.12V472.018C2482.65 460.756 2478.16 449.961 2470.2 441.998C2462.24 434.035 2451.44 429.552 2440.18 429.531H937.678Z" fill="#EBEBEB"/>
<path d="M4123.37 2628.55H2620.79C2609.01 2628.53 2597.72 2623.84 2589.39 2615.51C2581.07 2607.18 2576.38 2595.89 2576.36 2584.12V472.018C2576.48 460.308 2581.21 449.118 2589.53 440.873C2597.85 432.629 2609.08 427.995 2620.79 427.975H4123.37C4135.06 428.016 4146.26 432.661 4154.55 440.906C4162.84 449.15 4167.54 460.328 4167.65 472.018V2584.12C4167.65 2595.87 4162.99 2607.15 4154.69 2615.48C4146.39 2623.81 4135.13 2628.51 4123.37 2628.55ZM2620.79 429.531C2609.53 429.552 2598.73 434.035 2590.77 441.998C2582.81 449.961 2578.32 460.756 2578.3 472.018V2584.12C2578.32 2595.38 2582.81 2606.17 2590.77 2614.14C2598.73 2622.1 2609.53 2626.58 2620.79 2626.6H4123.37C4134.63 2626.58 4145.43 2622.1 4153.39 2614.14C4161.35 2606.17 4165.84 2595.38 4165.86 2584.12V472.018C4165.84 460.756 4161.35 449.961 4153.39 441.998C4145.43 434.035 4134.63 429.552 4123.37 429.531H2620.79Z" fill="#EBEBEB"/>
<path d="M1184.74 2261.19H1738.77C1751.56 2261.19 1764.23 2263.71 1776.05 2268.6C1787.87 2273.5 1798.61 2280.67 1807.66 2289.72C1816.7 2298.77 1823.88 2309.51 1828.78 2321.33C1833.67 2333.15 1836.19 2345.81 1836.19 2358.61V2856.62C1836.19 2882.45 1825.93 2907.23 1807.66 2925.51C1789.39 2943.78 1764.61 2954.04 1738.77 2954.04H1184.74V2261.5V2261.19Z" fill="#F0F0F0"/>
<path d="M1189.33 2261.19H1180.15C1126.34 2261.19 1082.72 2304.8 1082.72 2358.61V2856.31C1082.72 2910.11 1126.34 2953.73 1180.15 2953.73H1189.33C1243.13 2953.73 1286.75 2910.11 1286.75 2856.31V2358.61C1286.75 2304.8 1243.13 2261.19 1189.33 2261.19Z" fill="#F5F5F5"/>
<path d="M1258.9 2953.73H1982.02V2516.65H1258.9V2953.73Z" fill="#F0F0F0"/>
<path d="M1199.52 2975.6H2502.82C2508.11 2975.57 2513.18 2973.46 2516.91 2969.71C2520.65 2965.96 2522.74 2960.89 2522.74 2955.6V2953.73H1739.08L1179.6 2955.6C1179.6 2960.89 1181.7 2965.96 1185.43 2969.71C1189.17 2973.46 1194.23 2975.57 1199.52 2975.6Z" fill="#E0E0E0"/>
<path d="M1770.36 1973.9H2443.14C2460.54 1973.57 2477.81 1976.96 2493.8 1983.84C2509.79 1990.71 2524.13 2000.92 2535.86 2013.78C2547.59 2026.64 2556.45 2041.85 2561.83 2058.4C2567.22 2074.95 2569.01 2092.46 2567.1 2109.76L2522.74 2615.55H1578.24L1622.52 2109.76C1626.28 2072.95 1643.4 2038.8 1670.65 2013.76C1697.89 1988.73 1733.37 1974.54 1770.36 1973.9Z" fill="#E0E0E0"/>
<path d="M1664.07 1973.9H2350C2366.55 1973.63 2382.97 1976.88 2398.17 1983.44C2413.37 1990 2427 1999.72 2438.16 2011.95C2449.32 2024.18 2457.75 2038.64 2462.88 2054.38C2468.02 2070.12 2469.75 2086.77 2467.96 2103.23L2423.06 2615.48H1478.48L1523.38 2103.23C1526.96 2068.2 1543.25 2035.69 1569.17 2011.86C1595.1 1988.02 1628.86 1974.52 1664.07 1973.9Z" fill="#F5F5F5"/>
<path d="M1316.86 2476.73H1889.65C1905.91 2476.73 1921.51 2483.19 1933.01 2494.69C1944.51 2506.19 1950.97 2521.79 1950.97 2538.05V2593.37C1950.98 2601.43 1949.4 2609.41 1946.32 2616.86C1943.25 2624.31 1938.73 2631.08 1933.04 2636.78C1927.34 2642.48 1920.58 2647.01 1913.13 2650.09C1905.69 2653.18 1897.71 2654.77 1889.65 2654.77H1316.86C1293.26 2654.77 1270.61 2645.39 1253.92 2628.7C1237.22 2612 1227.85 2589.36 1227.85 2565.75C1227.85 2542.14 1237.22 2519.5 1253.92 2502.8C1270.61 2486.11 1293.26 2476.73 1316.86 2476.73Z" fill="#E0E0E0"/>
<path d="M1985.21 2261.19H2539.24C2565.08 2261.19 2589.86 2271.45 2608.13 2289.72C2626.4 2307.99 2636.66 2332.77 2636.66 2358.61V2856.62C2636.66 2882.45 2626.4 2907.23 2608.13 2925.51C2589.86 2943.78 2565.08 2954.04 2539.24 2954.04H1985.21V2261.5V2261.19Z" fill="#F0F0F0"/>
<path d="M1989.8 2261.19H1980.62C1926.81 2261.19 1883.19 2304.8 1883.19 2358.61V2856.31C1883.19 2910.11 1926.81 2953.73 1980.62 2953.73H1989.8C2043.6 2953.73 2087.22 2910.11 2087.22 2856.31V2358.61C2087.22 2304.8 2043.6 2261.19 1989.8 2261.19Z" fill="#F5F5F5"/>
<path d="M3514.09 1880.52H2981.46V2975.6H3514.09V1880.52Z" fill="#F0F0F0"/>
<path d="M3061.13 2890.31V1965.8H3048.84V2890.31H3061.13Z" fill="#E6E6E6"/>
<path d="M3435.57 1965.8H3048.84V1981.37H3435.57V1965.8Z" fill="#E6E6E6"/>
<path d="M4059.02 1880.52H3526.38V2975.6H4059.02V1880.52Z" fill="#F0F0F0"/>
<path d="M4059.1 2975.6H4129.6V1880.52H4059.1V2975.6Z" fill="#E0E0E0"/>
<path d="M3606.06 2890.31V1965.8H3593.77V2890.31H3606.06Z" fill="#E6E6E6"/>
<path d="M3526.46 2975.6V1892.98H3514.17V2975.6H3526.46Z" fill="#E6E6E6"/>
<path d="M3980.51 1965.8H3593.77V1981.37H3980.51V1965.8Z" fill="#E6E6E6"/>
<path d="M3490.75 2122.76H3464.29V2364.76H3490.75V2122.76Z" fill="#E0E0E0"/>
<path d="M3576.18 2122.76H3549.73V2364.76H3576.18V2122.76Z" fill="#E0E0E0"/>
<path d="M3911.72 738.603H1195.86V1707.31H3911.72V738.603Z" fill="#E0E0E0"/>
<path d="M3886.81 738.603H1170.96V1707.31H3886.81V738.603Z" fill="#F0F0F0"/>
<path d="M3805.35 1625.84V820.074L1252.44 820.074V1625.84H3805.35Z" fill="#FAFAFA"/>
<path d="M1666.87 1625.84L1836.04 820.074H2209.47L2040.3 1625.84H1666.87Z" fill="white"/>
<path d="M2197.87 1625.84L2367.04 820.074H2553.79L2384.55 1625.84H2197.87Z" fill="white"/>
<path d="M3338 1625.84L3507.16 820.074H3693.91L3524.67 1625.84H3338Z" fill="white"/>
<path d="M2541.34 3327C3374.59 3327 4050.07 3287.56 4050.07 3238.91C4050.07 3190.27 3374.59 3150.83 2541.34 3150.83C1708.09 3150.83 1032.61 3190.27 1032.61 3238.91C1032.61 3287.56 1708.09 3327 2541.34 3327Z" fill="#F5F5F5"/>
<path d="M1887.71 899.839C1907.32 854.941 1733.64 814.244 1681.11 952.597C1633.49 1078.11 1554.43 1110.17 1591.63 1197.09C1631.86 1291.16 1859.46 1302.45 1958.28 1198.18C2038.43 1113.59 1951.44 1077.96 1962.64 998.429C1973.85 918.904 1950.35 892.992 1887.71 899.839Z" fill="#263238"/>
<path d="M1571.32 1169.23C1562.29 1120.21 1580.5 1099.97 1603.53 1074.37C1634.66 1042.79 1655.98 1002.87 1664.93 959.443C1669.57 935.724 1681.43 914.02 1698.88 897.304C1716.34 880.587 1738.53 869.677 1762.43 866.066C1813.79 856.573 1868.18 873.381 1882.57 894.702C1884.86 897.705 1886.17 901.346 1886.31 905.122C1886.45 908.898 1885.42 912.624 1883.35 915.789L1876.81 911.587C1878.07 909.706 1878.69 907.466 1878.56 905.206C1878.43 902.946 1877.57 900.788 1876.11 899.059C1863.35 880.072 1811.53 864.899 1763.91 873.77C1729.9 880.073 1686.09 900.304 1672.55 961.154C1663.33 1005.89 1641.36 1046.99 1609.29 1079.51C1586.88 1104.41 1570.38 1122.46 1579.02 1167.75L1571.32 1169.23Z" fill="#263238"/>
<path d="M1464.32 1131.96L1459.5 1116.39C1456.17 1105.82 1450.13 1096.3 1441.99 1088.77L1426.43 1074.61C1421.51 1070.06 1415.15 1067.37 1408.46 1067.02C1401.76 1066.66 1395.15 1068.66 1389.78 1072.66L1373.13 1085.11C1370.08 1087.39 1367.52 1090.24 1365.59 1093.52C1363.66 1096.79 1362.4 1100.41 1361.87 1104.17C1361.35 1107.94 1361.58 1111.77 1362.55 1115.44C1363.52 1119.12 1365.21 1122.56 1367.52 1125.58L1378.26 1139.58C1378.26 1139.58 1403.47 1182.23 1439.97 1197.01L1448.37 1189.85C1456.41 1182.83 1462.21 1173.59 1465.05 1163.3C1467.88 1153.01 1467.63 1142.11 1464.32 1131.96Z" fill="#FFC3BD"/>
<path d="M1766.78 1402.13L1761.8 1405.94L1757.76 1408.9L1749.98 1414.34C1744.76 1417.77 1739.47 1420.96 1734.41 1424.07C1723.83 1430.16 1712.92 1435.66 1701.73 1440.57C1678.73 1450.71 1654.55 1457.93 1629.76 1462.04C1603.57 1466.44 1576.85 1466.6 1550.62 1462.51C1537.19 1460.4 1524.01 1456.98 1511.24 1452.32C1508.05 1451.3 1504.86 1449.98 1501.75 1448.66L1497.08 1446.71L1494.75 1445.7L1492.18 1444.61L1488.91 1443.06C1482.12 1439.58 1475.86 1435.15 1470.31 1429.91C1466.33 1426.2 1462.66 1422.16 1459.34 1417.84C1450.54 1405.91 1443.42 1392.82 1438.18 1378.94C1433.51 1367.42 1429.93 1356.37 1426.74 1345.56C1420.93 1324.63 1416.23 1303.41 1412.65 1281.98C1405.55 1240.58 1401.57 1198.7 1400.75 1156.7C1399.79 1148.84 1401.86 1140.91 1406.54 1134.52C1411.22 1128.13 1418.17 1123.77 1425.95 1122.32C1433.74 1120.87 1441.79 1122.44 1448.45 1126.72C1455.12 1131 1459.9 1137.66 1461.83 1145.34V1146.2C1475.37 1183.47 1488.37 1221.68 1502.06 1257.94C1509.14 1275.99 1515.99 1293.97 1523.77 1310.31C1527.51 1318.48 1531.55 1326.26 1535.37 1333.03C1537.96 1337.99 1541.29 1342.53 1545.25 1346.49C1545.25 1346.49 1545.25 1346.49 1544.7 1345.4C1542.91 1343.54 1540.8 1342.01 1538.48 1340.89L1537 1340.11C1536.53 1340.11 1535.6 1339.56 1536.15 1339.72H1537.39L1539.8 1340.34C1541.41 1340.84 1543.05 1341.23 1544.7 1341.51C1551.27 1342.82 1557.93 1343.63 1564.63 1343.92C1578.63 1344.35 1592.64 1342.88 1606.26 1339.56C1621.2 1335.8 1635.74 1330.58 1649.68 1324C1656.91 1320.73 1664.07 1316.92 1671.07 1313.11C1674.58 1311.16 1678 1309.06 1681.27 1307.04L1689.05 1302.06L1695.12 1298.25C1708.79 1289.55 1725.3 1286.5 1741.18 1289.72C1757.06 1292.94 1771.07 1302.19 1780.27 1315.52C1789.48 1328.85 1793.16 1345.24 1790.54 1361.22C1787.93 1377.21 1779.21 1391.57 1766.24 1401.27L1766.78 1402.13Z" fill="#FFC3BD"/>
<path d="M1903.27 3205C1952.53 3188.73 1994 3155.43 1985.68 3096.99C1982.02 3071.94 2062.4 3062.13 2062.4 3062.13C2053.3 3141.73 2063.26 3155.51 2072.83 3173.48C2082.4 3191.46 2081.85 3213.48 2065.05 3215.42C2045.13 3217.84 2040.69 3215.42 2015.95 3218.93C1987 3222.74 1968.25 3237.83 1910.43 3237.83C1879.23 3237.83 1887.71 3210.13 1903.27 3205Z" fill="#90CAF9"/>
<path d="M2053.06 2354.72C2058.74 1956 2021.93 1738.67 2021.93 1738.67L1726.94 1753.38C1726.94 1753.38 1770.6 2118.17 1848.1 2386.86C1868.8 2531.05 1915.41 2774.92 1947.7 2938.71C1995.62 2934.61 2042.99 2925.64 2089.09 2911.95C2100.37 2768.07 2102.39 2560.07 2053.06 2354.72Z" fill="#90CAF9"/>
<path d="M2059.44 3101.19C2059.44 3101.19 2070.96 3025.87 2078.74 2911.95C2039.59 2925.58 1998.98 2934.56 1957.74 2938.71C1974.55 3038.16 1986.53 3101.5 1986.53 3101.5C2010.11 3109.98 2035.93 3109.87 2059.44 3101.19Z" fill="#FFC3BD"/>
<path d="M1931.59 2891.01C1934.16 2904.71 1941.32 2939.03 1948.4 2951.09C1948.81 2951.78 1949.37 2952.38 1950.05 2952.82C1950.72 2953.27 1951.49 2953.55 1952.29 2953.65C2007.3 2960.58 2062.24 2949.53 2084.57 2939.57C2085.2 2939.32 2085.76 2938.94 2086.23 2938.46C2086.7 2937.97 2087.06 2937.4 2087.3 2936.77C2093.52 2920.27 2095.78 2885.57 2096.48 2870.94C2096.52 2870.15 2096.38 2869.36 2096.06 2868.63C2095.75 2867.9 2095.28 2867.25 2094.68 2866.73C2094.08 2866.22 2093.37 2865.84 2092.6 2865.64C2091.83 2865.44 2091.03 2865.41 2090.25 2865.57C2039.27 2875.02 1987.77 2881.46 1936.03 2884.87C1935.32 2884.95 1934.64 2885.18 1934.02 2885.54C1933.41 2885.9 1932.87 2886.38 1932.46 2886.96C1932.04 2887.54 1931.75 2888.2 1931.6 2888.9C1931.45 2889.6 1931.45 2890.32 1931.59 2891.01Z" fill="#263238"/>
<path d="M1730.83 1284.55C1687.1 1292.34 1620.42 1329.3 1620.42 1329.3C1620.42 1329.3 1585.32 1413.34 1627.34 1473.87C1668.74 1483.68 1689.59 1475.66 1689.59 1475.66L1730.83 1284.55Z" fill="#263238"/>
<path opacity="0.2" d="M1627.34 1473.87C1668.74 1483.67 1689.59 1475.66 1689.59 1475.66L1688.12 1362.28C1660.03 1400.1 1636.6 1437.61 1627.34 1473.87Z" fill="black"/>
<path opacity="0.2" d="M2051.51 2119.49C2018.51 2038.8 1983.03 1972.35 1969.41 1911.65C1946.07 2076.7 1964.43 2228.51 2053.22 2337.29C2054.23 2256.99 2053.37 2184.31 2051.51 2119.49Z" fill="black"/>
<path d="M2502.43 2752.27L2384.7 2836C2288.6 2710.79 2144.49 2519.53 2109.63 2436.27C2021.08 2225 1843.04 1759.29 1843.04 1759.29L2074.15 1705.6C2074.15 1705.6 2219.97 1840.99 2314.05 2351.92C2392.79 2463.81 2459.09 2628.47 2502.43 2752.27Z" fill="#90CAF9"/>
<path d="M2495.66 3149.13C2525 3091.78 2525.39 3028.59 2493.72 2978.79C2480.1 2957.47 2549.28 2915.38 2549.28 2915.38C2573.71 2991.71 2593.63 2996.15 2610.59 3007.97C2627.56 3019.8 2629.27 3045.25 2614.95 3053.88C2599.33 3063.07 2586.02 3075.71 2576.04 3090.85C2558.3 3114.19 2548.34 3146.25 2522.9 3166.25C2506.64 3178.93 2482.75 3174.26 2495.66 3149.13Z" fill="#90CAF9"/>
<path d="M2562.12 2950.39C2562.12 2950.39 2541.81 2878.96 2501.97 2771.96C2471.88 2800.46 2438.58 2825.37 2402.75 2846.2C2459.01 2929.92 2500.18 2990.08 2500.18 2990.08C2524.1 2982.83 2545.54 2969.09 2562.12 2950.39Z" fill="#FFC3BD"/>
<path d="M2359.26 2813.52C2367.04 2824.88 2387.89 2853.28 2399.33 2861.29C2400 2861.77 2400.77 2862.08 2401.58 2862.22C2402.38 2862.35 2403.21 2862.3 2404 2862.07C2456.91 2845.73 2502.43 2812.97 2519.09 2794.53C2519.55 2794.03 2519.91 2793.44 2520.12 2792.8C2520.34 2792.15 2520.41 2791.47 2520.33 2790.79C2519.24 2773.29 2506.95 2740.68 2501.58 2727.06C2501.28 2726.34 2500.83 2725.7 2500.26 2725.17C2499.68 2724.65 2498.99 2724.26 2498.25 2724.03C2497.5 2723.81 2496.71 2723.76 2495.94 2723.88C2495.17 2724 2494.44 2724.29 2493.8 2724.73C2451.33 2754.36 2407.16 2781.46 2361.51 2805.89C2360.82 2806.2 2360.2 2806.65 2359.7 2807.22C2359.2 2807.78 2358.83 2808.45 2358.62 2809.18C2358.4 2809.91 2358.35 2810.67 2358.46 2811.42C2358.57 2812.17 2358.84 2812.88 2359.26 2813.52Z" fill="#263238"/>
<path d="M1664.07 1400.65C1674.65 1469.52 1633.64 1522.9 1696.75 1554.64C1686.25 1607.01 1701.81 1711.59 1726.79 1753.07C1761.88 1772.13 1933.54 1743.96 2073.84 1705.52C2071.81 1645.61 2022.56 1527.72 2036.25 1331.47C2036.99 1320.74 2035.46 1309.97 2031.77 1299.86C2028.08 1289.75 2022.3 1280.53 2014.82 1272.8C2007.34 1265.07 1998.31 1258.99 1988.33 1254.97C1978.35 1250.95 1967.64 1249.07 1956.88 1249.46C1944.74 1249.46 1931.83 1250.62 1918.75 1251.79C1872.79 1254.74 1827.1 1260.98 1782.04 1270.47C1767.48 1273.89 1752.47 1277.78 1738.23 1281.83C1713.47 1289.14 1692.26 1305.26 1678.59 1327.16C1664.92 1349.06 1659.76 1375.2 1664.07 1400.65Z" fill="#263238"/>
<path d="M1763.2 1348.28C1763.2 1348.28 1807.17 1332.25 1830.2 1371.62C1868.56 1350.07 1922.49 1258.95 1918.68 1252.02C1854.48 1269.68 1763.2 1348.28 1763.2 1348.28Z" fill="white"/>
<path d="M1763.21 1348.27C1763.21 1348.27 1729.82 1344.31 1720.41 1373.88C1720.41 1315.52 1759.78 1278.79 1776.98 1271.94C1770.99 1287.19 1763.21 1348.27 1763.21 1348.27Z" fill="white"/>
<path d="M1901.87 1097.56C1896.97 1143.08 1896.19 1216.23 1918.76 1252.1C1918.76 1252.1 1833.16 1310.69 1763.13 1348.28C1741.11 1297.31 1776.9 1271.94 1776.9 1271.94C1810.28 1259.18 1809.97 1216.46 1805.46 1183.78L1901.87 1097.56Z" fill="#FFC3BD"/>
<path opacity="0.2" d="M1805.61 1183.78L1860.08 1134.76C1861.91 1143.91 1861.32 1153.38 1858.37 1162.23C1848.93 1187.73 1830.8 1209.09 1807.17 1222.53C1808.03 1209.6 1807.5 1196.61 1805.61 1183.78Z" fill="black"/>
<path d="M1919.46 1012.98C1911.67 1086.91 1910.51 1118.27 1872.38 1154.84C1814.95 1209.85 1727.57 1184.64 1713.17 1110.1C1700.18 1042.94 1714.42 933.38 1786.63 906.69C1858.84 880 1926.61 939.138 1919.46 1012.98Z" fill="#FFC3BD"/>
<path d="M1903.27 1067.06C1891.86 1056.14 1885.19 1041.17 1884.69 1025.38C1884.2 1009.6 1889.92 994.246 1900.62 982.63C1920.08 962.943 1947.31 1003.72 1947.31 1003.72L1903.27 1067.06Z" fill="#263238"/>
<path d="M1813.08 1033.45C1813.08 1039.51 1809.43 1044.26 1805.3 1044.11C1801.18 1043.95 1798.38 1038.89 1798.61 1032.9C1798.84 1026.91 1802.27 1022.08 1806.39 1022.24C1810.52 1022.4 1813.32 1027.14 1813.08 1033.45Z" fill="#263238"/>
<path d="M1738.85 1031.66C1738.85 1037.65 1735.27 1042.4 1731.07 1042.24C1726.87 1042.09 1724.14 1037.11 1724.38 1031.04C1724.61 1024.97 1727.96 1020.3 1732.16 1020.45C1736.36 1020.61 1739.08 1025.59 1738.85 1031.66Z" fill="#263238"/>
<path d="M1733.87 1020.84L1719.55 1016.09C1719.55 1016.09 1726.56 1027.69 1733.87 1020.84Z" fill="#263238"/>
<path d="M1757.14 1033.99C1751.12 1047.55 1743.27 1060.23 1733.79 1071.65C1736.78 1073.95 1740.24 1075.58 1743.92 1076.41C1747.6 1077.24 1751.42 1077.27 1755.11 1076.47L1757.14 1033.99Z" fill="#ED847E"/>
<path d="M1789.27 1100.13C1785.9 1100.61 1782.48 1100.76 1779.08 1100.6C1778.62 1100.58 1778.18 1100.38 1777.86 1100.05C1777.54 1099.71 1777.37 1099.27 1777.37 1098.81C1777.38 1098.57 1777.43 1098.34 1777.53 1098.13C1777.63 1097.91 1777.77 1097.72 1777.95 1097.56C1778.12 1097.4 1778.32 1097.28 1778.54 1097.2C1778.76 1097.12 1779 1097.08 1779.23 1097.09C1786.73 1097.54 1794.22 1096.23 1801.11 1093.25C1808 1090.28 1814.1 1085.73 1818.92 1079.98C1819.05 1079.78 1819.21 1079.62 1819.4 1079.49C1819.59 1079.36 1819.8 1079.28 1820.03 1079.23C1820.25 1079.19 1820.48 1079.19 1820.71 1079.24C1820.93 1079.29 1821.14 1079.38 1821.33 1079.51C1821.53 1079.64 1821.69 1079.81 1821.82 1080.01C1821.95 1080.2 1822.04 1080.43 1822.08 1080.66C1822.13 1080.89 1822.12 1081.13 1822.07 1081.36C1822.03 1081.59 1821.93 1081.8 1821.8 1082C1813.73 1092.05 1802.06 1098.55 1789.27 1100.13Z" fill="#263238"/>
<path d="M1931.75 1074.92C1928.86 1081.03 1924.7 1086.46 1919.55 1090.83C1914.39 1095.21 1908.37 1098.43 1901.87 1100.29C1885.29 1104.41 1877.59 1086.2 1882.72 1068C1887.32 1051.58 1901.56 1029.71 1917.9 1033.68C1934.24 1037.65 1939.76 1058.97 1931.75 1074.92Z" fill="#FFC3BD"/>
<path d="M1881.17 907.857C1828.79 940.537 1769.97 961.532 1708.73 969.408C1708.73 916.261 1812.69 856.578 1881.17 907.857Z" fill="#263238"/>
<path d="M1841.02 914.313C1828.96 961.001 1949.96 1046.6 1926.62 1128.92C1966.14 1067.37 1937.67 928.864 1937.67 928.864C1937.67 928.864 1835.73 864.357 1841.02 914.313Z" fill="#263238"/>
<path d="M1828.57 993.761C1828.1 993.695 1827.65 993.529 1827.24 993.274C1826.84 993.019 1826.5 992.681 1826.24 992.282C1823.83 988.531 1820.58 985.4 1816.74 983.142C1812.9 980.884 1808.58 979.563 1804.14 979.288C1803.67 979.309 1803.21 979.236 1802.78 979.073C1802.34 978.91 1801.95 978.662 1801.61 978.341C1801.28 978.021 1801.01 977.637 1800.83 977.211C1800.65 976.785 1800.56 976.327 1800.56 975.864C1800.54 975.391 1800.61 974.919 1800.78 974.476C1800.94 974.033 1801.2 973.628 1801.53 973.287C1801.85 972.945 1802.25 972.673 1802.68 972.487C1803.12 972.301 1803.59 972.206 1804.06 972.207C1809.68 972.451 1815.15 974.041 1820.03 976.844C1824.9 979.647 1829.03 983.581 1832.07 988.314C1832.34 988.696 1832.52 989.127 1832.62 989.581C1832.71 990.035 1832.72 990.504 1832.63 990.961C1832.54 991.417 1832.37 991.851 1832.11 992.238C1831.85 992.626 1831.52 992.958 1831.14 993.216C1830.77 993.471 1830.35 993.651 1829.91 993.744C1829.47 993.838 1829.01 993.844 1828.57 993.761Z" fill="#263238"/>
<path d="M1706.01 991.188C1705.1 991.125 1704.25 990.739 1703.6 990.099C1703.27 989.773 1703.01 989.386 1702.83 988.958C1702.65 988.531 1702.56 988.072 1702.56 987.609C1702.56 987.146 1702.65 986.687 1702.83 986.26C1703.01 985.832 1703.27 985.445 1703.6 985.119C1707.48 981.041 1712.28 977.952 1717.6 976.111C1722.92 974.27 1728.61 973.73 1734.18 974.536C1735.09 974.742 1735.89 975.296 1736.4 976.082C1736.91 976.867 1737.09 977.821 1736.9 978.738C1736.81 979.196 1736.63 979.63 1736.37 980.015C1736.1 980.401 1735.77 980.73 1735.38 980.984C1734.98 981.238 1734.55 981.411 1734.09 981.493C1733.63 981.575 1733.16 981.564 1732.7 981.462C1728.28 980.898 1723.8 981.387 1719.6 982.888C1715.41 984.389 1711.63 986.86 1708.58 990.099C1707.9 990.787 1706.98 991.179 1706.01 991.188Z" fill="#263238"/>
<path d="M1808.1 1022.63L1793.79 1017.96C1793.79 1017.96 1800.71 1029.56 1808.1 1022.63Z" fill="#263238"/>
<path opacity="0.2" d="M2034.39 1369.53C2032.99 1411.07 2034.37 1452.67 2038.51 1494.03C1999.6 1452.94 1950.74 1375.36 1947.55 1336.46L2034.39 1369.53Z" fill="black"/>
<path d="M2288.45 1223.39L2296.93 1173.98L2373.73 1203.63C2373.73 1203.63 2355.91 1249.61 2323.15 1269.92L2314.05 1264.17C2306.91 1259.82 2300.88 1253.88 2296.44 1246.8C2291.99 1239.72 2289.26 1231.71 2288.45 1223.39Z" fill="#FFC3BD"/>
<path d="M2344.86 1146.43L2370.15 1160.2C2375.67 1163.2 2379.79 1168.26 2381.6 1174.28C2383.4 1180.3 2382.76 1186.79 2379.8 1192.34L2373.81 1203.62L2297 1173.97L2315.29 1152.11C2318.82 1147.91 2323.68 1145.06 2329.07 1144.02C2334.45 1142.99 2340.03 1143.84 2344.86 1146.43Z" fill="#FFC3BD"/>
<path d="M2020.69 1279.8L2030.5 1289.91L2041.16 1300.73C2048.39 1307.81 2055.63 1315.05 2063.1 1321.9C2077.89 1335.82 2093.14 1348.74 2108.47 1360.8C2122.93 1372.14 2138.28 1382.29 2154.38 1391.15C2166.68 1398.07 2180.08 1402.86 2193.98 1405.31L2173.05 1409.2C2167.92 1411.69 2168.23 1412.78 2169.32 1411.93C2171.42 1410.52 2173.35 1408.87 2175.07 1407.02C2180.77 1401.1 2185.97 1394.72 2190.64 1387.96C2201.22 1372.94 2211.96 1355.9 2221.76 1338.24C2231.57 1320.57 2241.99 1302.44 2252.03 1283.77L2281.99 1228.36V1227.9C2285.5 1221.29 2291.25 1216.16 2298.2 1213.4C2305.16 1210.65 2312.86 1210.45 2319.94 1212.86C2327.03 1215.26 2333.02 1220.11 2336.86 1226.53C2340.7 1232.94 2342.13 1240.52 2340.9 1247.9C2337.32 1270.31 2332.41 1291.47 2326.97 1313.03C2321.52 1334.58 2315.68 1355.9 2307.9 1377.3C2300.28 1399.36 2291.23 1420.91 2280.82 1441.81C2274.79 1453.57 2267.95 1464.91 2260.36 1475.73C2255.57 1482.41 2250.2 1488.66 2244.33 1494.41C2235.63 1503.09 2225.35 1510.03 2214.06 1514.87C2208.52 1517.24 2202.58 1518.53 2196.55 1518.69H2193.13C2162.38 1518.87 2131.95 1512.47 2103.88 1499.93C2091.48 1494.64 2079.38 1488.69 2067.61 1482.11C2056.36 1475.47 2045.49 1468.6 2035.01 1461.49C2014.65 1447.23 1995.25 1431.64 1976.96 1414.81C1968.01 1406.56 1959.14 1398.23 1950.66 1389.44C1946.46 1385.08 1942.18 1380.72 1938.05 1376.13C1933.93 1371.54 1930.27 1367.34 1925.22 1361.5C1914.03 1349.12 1908.22 1332.8 1909.07 1316.14C1909.91 1299.47 1917.35 1283.83 1929.73 1272.64C1942.11 1261.45 1958.43 1255.65 1975.09 1256.49C1991.76 1257.34 2007.41 1264.77 2018.59 1277.15L2020.69 1279.8Z" fill="#FFC3BD"/>
<path d="M1960.31 1249.85C2017.34 1251.56 2074.07 1319.88 2074.07 1319.88C2074.07 1319.88 2052.13 1410.53 1989.64 1449.59C1954.47 1422.2 1924.67 1400.26 1924.67 1400.26C1874.94 1327.35 1891.52 1278.95 1960.31 1249.85Z" fill="#263238"/>
<path d="M1715.43 1748.01C1719.63 1772.37 1724.69 1791.51 1726.32 1797.35C1726.48 1797.97 1726.76 1798.55 1727.15 1799.05C1727.53 1799.56 1728.02 1799.99 1728.58 1800.3C1736.9 1804.89 1774.88 1823.65 1844.6 1819.52C1922.41 1815.32 2036.56 1772.83 2095.78 1727.62C2096.64 1726.96 2097.26 1726.02 2097.54 1724.97C2097.82 1723.92 2097.75 1722.8 2097.33 1721.79C2092.76 1711.65 2087.43 1701.87 2081.38 1692.53C2080.79 1691.63 2079.93 1690.95 2078.92 1690.59C2077.91 1690.22 2076.81 1690.2 2075.78 1690.51C2050.26 1698.29 1889.57 1744.28 1720.33 1742.25C1719.61 1742.26 1718.9 1742.41 1718.25 1742.72C1717.6 1743.02 1717.02 1743.46 1716.55 1744.01C1716.09 1744.55 1715.74 1745.19 1715.55 1745.89C1715.36 1746.58 1715.31 1747.3 1715.43 1748.01Z" fill="#90CAF9"/>
<path opacity="0.3" d="M1715.43 1748.01C1719.63 1772.37 1724.69 1791.51 1726.32 1797.35C1726.48 1797.97 1726.76 1798.55 1727.15 1799.05C1727.53 1799.56 1728.02 1799.99 1728.58 1800.3C1736.9 1804.89 1774.88 1823.65 1844.6 1819.52C1922.41 1815.32 2036.56 1772.83 2095.78 1727.62C2096.64 1726.96 2097.26 1726.02 2097.54 1724.97C2097.82 1723.92 2097.75 1722.8 2097.33 1721.79C2092.76 1711.65 2087.43 1701.87 2081.38 1692.53C2080.79 1691.63 2079.93 1690.95 2078.92 1690.59C2077.91 1690.22 2076.81 1690.2 2075.78 1690.51C2050.26 1698.29 1889.57 1744.28 1720.33 1742.25C1719.61 1742.26 1718.9 1742.41 1718.25 1742.72C1717.6 1743.02 1717.02 1743.46 1716.55 1744.01C1716.09 1744.55 1715.74 1745.19 1715.55 1745.89C1715.36 1746.58 1715.31 1747.3 1715.43 1748.01Z" fill="white"/>
<path d="M3274.89 3006.8H2250.39C2231.44 3006.97 2212.66 3003.22 2195.23 2995.79C2177.81 2988.35 2162.1 2977.39 2149.12 2963.59C2136.13 2949.79 2126.14 2933.46 2119.77 2915.61C2113.4 2897.76 2110.8 2878.79 2112.12 2859.88L2236.62 730.512C2239.46 690.987 2257.02 653.966 2285.84 626.764C2314.65 599.563 2352.63 584.16 2392.25 583.599H3416.98C3435.92 583.424 3454.7 587.173 3472.13 594.608C3489.56 602.043 3505.27 613.005 3518.25 626.804C3531.24 640.603 3541.23 656.94 3547.6 674.788C3553.97 692.636 3556.57 711.608 3555.25 730.512L3430.36 2859.88C3427.52 2899.38 3409.98 2936.38 3381.2 2963.58C3352.42 2990.78 3314.48 3006.2 3274.89 3006.8Z" fill="#90CAF9"/>
<path opacity="0.8" d="M3274.89 3006.8H2250.39C2231.44 3006.97 2212.66 3003.22 2195.23 2995.79C2177.81 2988.35 2162.1 2977.39 2149.12 2963.59C2136.13 2949.79 2126.14 2933.46 2119.77 2915.61C2113.4 2897.76 2110.8 2878.79 2112.12 2859.88L2236.62 730.512C2239.46 690.987 2257.02 653.966 2285.84 626.764C2314.65 599.563 2352.63 584.16 2392.25 583.599H3416.98C3435.92 583.424 3454.7 587.173 3472.13 594.608C3489.56 602.043 3505.27 613.005 3518.25 626.804C3531.24 640.603 3541.23 656.94 3547.6 674.788C3553.97 692.636 3556.57 711.608 3555.25 730.512L3430.36 2859.88C3427.52 2899.38 3409.98 2936.38 3381.2 2963.58C3352.42 2990.78 3314.48 3006.2 3274.89 3006.8Z" fill="white"/>
<path d="M3268.82 2964.16H2272.8C2259.49 2964.29 2246.3 2961.66 2234.05 2956.44C2221.8 2951.22 2210.76 2943.53 2201.63 2933.83C2192.51 2924.14 2185.48 2912.67 2181 2900.13C2176.53 2887.59 2174.69 2874.26 2175.62 2860.98L2300.12 740.866C2302.11 713.164 2314.4 687.209 2334.55 668.102C2354.71 648.996 2381.29 638.118 2409.06 637.607H3405.07C3418.39 637.489 3431.59 640.127 3443.83 645.355C3456.08 650.583 3467.12 658.288 3476.24 667.985C3485.37 677.683 3492.39 689.163 3496.87 701.706C3501.35 714.248 3503.18 727.581 3502.26 740.866L3377.76 2860.98C3375.76 2888.67 3363.47 2914.62 3343.32 2933.71C3323.16 2952.81 3296.58 2963.67 3268.82 2964.16Z" fill="#90CAF9"/>
<path d="M3258.08 2952.8H2262.07C2248.75 2952.92 2235.55 2950.28 2223.3 2945.05C2211.06 2939.83 2200.02 2932.12 2190.89 2922.42C2181.77 2912.73 2174.74 2901.25 2170.27 2888.7C2165.79 2876.16 2163.95 2862.83 2164.88 2849.54L2289.38 729.43C2291.37 701.727 2303.66 675.773 2323.82 656.666C2343.97 637.559 2370.55 626.682 2398.32 626.171H3394.33C3407.65 626.053 3420.85 628.691 3433.1 633.919C3445.34 639.146 3456.38 646.851 3465.51 656.549C3474.63 666.246 3481.66 677.727 3486.13 690.269C3490.61 702.811 3492.45 716.144 3491.52 729.43L3367.02 2849.54C3365.02 2877.25 3352.74 2903.2 3332.58 2922.31C3312.42 2941.41 3285.85 2952.29 3258.08 2952.8Z" fill="white"/>
<path opacity="0.1" d="M3228.98 2873.97H2300.12C2291.89 2874.05 2283.73 2872.42 2276.16 2869.19C2268.59 2865.96 2261.77 2861.19 2256.13 2855.2C2250.49 2849.21 2246.15 2842.12 2243.38 2834.37C2240.61 2826.61 2239.48 2818.38 2240.05 2810.16L2292.34 1925.81C2293.56 1908.65 2301.18 1892.57 2313.69 1880.76C2326.19 1868.95 2342.68 1862.25 2359.88 1862H3288.35C3296.58 1861.93 3304.74 1863.56 3312.31 1866.79C3319.88 1870.02 3326.7 1874.78 3332.34 1880.77C3337.98 1886.77 3342.32 1893.86 3345.09 1901.61C3347.86 1909.36 3348.99 1917.6 3348.42 1925.81L3296.52 2810.16C3295.3 2827.33 3287.68 2843.4 3275.17 2855.22C3262.67 2867.03 3246.18 2873.72 3228.98 2873.97Z" fill="#90CAF9"/>
<path opacity="0.1" d="M3022.7 783.432H2751.98C2749.04 783.46 2746.13 782.88 2743.42 781.727C2740.71 780.574 2738.27 778.873 2736.26 776.731C2734.24 774.59 2732.69 772.054 2731.7 769.283C2730.71 766.513 2730.3 763.567 2730.51 760.632C2730.94 754.479 2733.66 748.711 2738.15 744.474C2742.63 740.236 2748.54 737.838 2754.71 737.755H3025.34C3028.32 737.682 3031.28 738.232 3034.02 739.371C3036.77 740.509 3039.25 742.211 3041.31 744.366C3043.36 746.52 3044.94 749.081 3045.94 751.883C3046.94 754.684 3047.35 757.665 3047.13 760.632C3046.7 766.819 3043.94 772.611 3039.4 776.842C3034.87 781.072 3028.9 783.427 3022.7 783.432Z" fill="#90CAF9"/>
<path opacity="0.1" d="M3130.39 1636.95C3297.09 1475.07 3308.47 1216.4 3155.81 1059.2C3003.15 901.993 2744.26 905.785 2577.56 1067.67C2410.86 1229.55 2399.48 1488.22 2552.14 1645.42C2704.8 1802.63 2963.69 1798.84 3130.39 1636.95Z" fill="#90CAF9"/>
<path d="M2567.8 1622.97C2533.74 1586.7 2507.54 1543.79 2490.84 1496.93C2474.14 1450.06 2467.31 1400.25 2470.77 1350.62H2478.55C2475.18 1399.18 2481.87 1447.92 2498.2 1493.78C2514.54 1539.64 2540.16 1581.63 2573.48 1617.13L2567.8 1622.97Z" fill="#90CAF9"/>
<path d="M3237.15 1353.96L3229.37 1353.49C3231.49 1319.21 3228.88 1284.81 3221.59 1251.24L3229.37 1249.53C3236.81 1283.81 3239.43 1318.96 3237.15 1353.96Z" fill="#90CAF9"/>
<path d="M3199.02 1183.54C3179.98 1141.29 3152.73 1103.24 3118.87 1071.6C3085.01 1039.95 3045.21 1015.35 3001.76 999.202L3004.49 991.888C3048.92 1008.36 3089.63 1033.52 3124.25 1065.89C3158.86 1098.26 3186.69 1137.2 3206.1 1180.43L3199.02 1183.54Z" fill="#90CAF9"/>
<path d="M3094.83 1600.34C3240.11 1459.26 3250.04 1233.85 3117.02 1096.87C2984 959.895 2758.4 963.215 2613.12 1104.29C2467.85 1245.36 2457.92 1470.77 2590.94 1607.75C2723.96 1744.73 2949.56 1741.41 3094.83 1600.34Z" fill="#90CAF9"/>
<path d="M2814.39 1400.64C2831.51 1396.83 2839.53 1382.2 2843.18 1365.55C2843.57 1363.76 2843.88 1362.05 2844.19 1360.34V1358.78C2845.13 1351.84 2845.65 1344.85 2845.75 1337.85C2829.18 1336.21 2813.79 1328.53 2802.51 1316.27C2791.23 1304.02 2784.85 1288.05 2784.59 1271.39C2783.73 1238.37 2791.06 1205.65 2805.91 1176.15C2802.09 1176.65 2798.46 1178.15 2795.41 1180.51C2795.11 1180.73 2794.77 1180.89 2794.41 1180.97C2794.04 1181.05 2793.67 1181.05 2793.3 1180.98C2792.63 1180.86 2792.02 1180.5 2791.59 1179.96C2791.18 1179.38 2791 1178.66 2791.11 1177.95C2791.21 1177.24 2791.58 1176.6 2792.14 1176.15C2796.98 1172.49 2802.88 1170.53 2808.94 1170.55C2810.11 1168.68 2811.2 1166.74 2812.37 1164.95C2807.39 1164.95 2802.56 1164.95 2797.9 1164.95C2803.03 1129 2872.21 1098.8 2919.36 1126.04C2940.37 1130.24 2975.08 1160.28 2975.08 1160.28C2975.77 1179.41 2975.23 1198.56 2973.44 1217.63C2970.33 1250.15 2962.63 1288.36 2943.87 1309.68C2948.54 1298.77 2950.26 1286.83 2948.85 1275.05C2944.36 1279.5 2938.78 1282.69 2932.67 1284.31C2930.45 1289.08 2927.85 1293.66 2924.89 1298.01C2917.57 1331.39 2912.36 1375.82 2923.49 1401.42C2933.52 1402.04 2943.25 1402.98 2952.51 1403.99L2954.77 1404.38C2960.88 1400.79 2966.75 1396.81 2972.35 1392.47C3042.39 1338 2968.07 1274.04 2985.58 1215.45C3003.09 1156.85 2988.31 1134.6 2940.45 1132.73C2960.29 1101.06 2834.23 1050.48 2778.83 1148.76C2728.64 1237.86 2712.46 1282.37 2730.51 1352.01C2737.29 1374.77 2752.67 1394 2773.38 1405.62C2776.91 1404.66 2780.5 1403.93 2784.12 1403.44C2794 1402.51 2804.28 1401.42 2814.39 1400.64Z" fill="#263238"/>
<path d="M2705.53 1537.6C2702.67 1532.55 2700.07 1527.36 2697.74 1522.04C2692.45 1537.6 2687.24 1553.17 2682.18 1568.73C2677.36 1582.74 2672.77 1596.74 2667.94 1610.13L2660.71 1629.04L2657.59 1636.82C2656.5 1638.92 2657.59 1637.67 2657.59 1638.3C2654.28 1642.16 2650.6 1645.7 2646.62 1648.88C2645.77 1649.73 2644.68 1650.51 2643.74 1651.29C2665.27 1665.81 2688.44 1677.75 2712.76 1686.85C2713.31 1651.29 2717.67 1614.33 2722.33 1604.45C2694.32 1584.99 2698.52 1564.06 2705.53 1537.6Z" fill="#FFC3BD"/>
<path d="M2732.76 1432.63L2730.82 1435.35C2731.44 1434.42 2732.14 1433.56 2732.84 1432.71L2732.76 1432.63Z" fill="#263238"/>
<path d="M2714.79 1484.76C2714.67 1467.63 2719.87 1450.89 2729.65 1436.83C2714.73 1460.3 2702.47 1485.35 2693.08 1511.53C2693.08 1511.53 2694.48 1515.65 2697.44 1522.11C2699.76 1527.43 2702.36 1532.62 2705.22 1537.67C2710.77 1520.55 2713.99 1502.75 2714.79 1484.76Z" fill="#263238"/>
<path d="M2986.05 1597.67C2976.82 1584.12 2968.63 1569.89 2961.54 1555.11C2959.2 1556.35 2956.79 1557.6 2954.3 1558.69C2930.96 1534.02 2911.03 1514.1 2911.03 1514.1C2881.93 1453.41 2899.91 1418.86 2955.08 1404.77C2963.64 1406.53 2971.81 1409.83 2979.2 1414.5C2971.92 1409.38 2963.56 1406.03 2954.77 1404.69L2952.51 1404.3C2943.25 1403.29 2933.52 1402.36 2923.48 1401.74C2925.66 1407.42 2875.71 1479.55 2844.35 1490.99C2831.51 1458.62 2795.48 1456.44 2795.48 1456.44C2795.48 1456.44 2761.87 1449.51 2751.44 1470.68C2758.29 1426.95 2800.38 1403.92 2814.39 1400.65C2804.27 1401.5 2794 1402.59 2784.12 1403.84C2780.5 1404.32 2776.91 1405.05 2773.38 1406.02C2757.37 1410.41 2743.17 1419.78 2732.84 1432.78C2732.14 1433.64 2731.44 1434.5 2730.82 1435.43L2729.65 1436.91C2719.87 1450.97 2714.68 1467.71 2714.79 1484.84C2714.08 1502.79 2710.97 1520.56 2705.53 1537.68C2698.53 1563.82 2694.32 1585.07 2721.79 1604.52C2717.12 1614.4 2712.77 1651.21 2712.22 1686.92C2750.89 1701.26 2791.82 1708.54 2833.07 1708.4C2885.87 1708.32 2938.05 1696.88 2986.05 1674.86C2984.71 1645.9 2984.94 1616.88 2986.75 1587.95C2986.51 1591.06 2986.2 1594.48 2986.05 1597.67Z" fill="#263238"/>
<path d="M2795.48 1456.44C2795.48 1456.44 2831.51 1458.62 2844.35 1490.99C2875.47 1479.16 2925.66 1407.42 2923.48 1401.74C2923.48 1401.74 2852.59 1436.13 2795.48 1456.44Z" fill="white"/>
<path d="M2814.55 1400.65C2800.54 1403.99 2758.44 1427.03 2751.6 1470.68C2762.02 1449.51 2795.64 1456.44 2795.64 1456.44C2784.74 1415.51 2814.55 1400.65 2814.55 1400.65Z" fill="white"/>
<path d="M2924.89 1298.33C2918.12 1308.14 2909.57 1316.59 2899.67 1323.23C2895.51 1326.22 2891.09 1328.83 2886.45 1331.01C2876.25 1347.37 2861.05 1360 2843.1 1367.04V1365.71C2839.45 1382.37 2831.43 1396.84 2814.31 1400.81C2814.31 1400.81 2784.51 1415.75 2795.25 1456.68C2852.44 1436.37 2923.25 1402.21 2923.25 1402.21C2912.36 1376.22 2917.57 1331.71 2924.89 1298.33Z" fill="#FFC3BD"/>
<path d="M2843.33 1365.47C2843.72 1363.68 2844.03 1361.97 2844.35 1360.26C2844.03 1361.74 2843.72 1363.68 2843.33 1365.47Z" fill="#263238"/>
<path opacity="0.2" d="M2843.33 1365.47C2843.72 1363.68 2844.03 1361.97 2844.35 1360.26C2844.03 1361.74 2843.72 1363.68 2843.33 1365.47Z" fill="black"/>
<path d="M2846.13 1337.78C2846.03 1344.78 2845.51 1351.77 2844.58 1358.71C2845.55 1351.77 2846.07 1344.78 2846.13 1337.78Z" fill="#263238"/>
<path opacity="0.2" d="M2846.13 1337.78C2846.03 1344.78 2845.51 1351.77 2844.58 1358.71C2845.55 1351.77 2846.07 1344.78 2846.13 1337.78Z" fill="black"/>
<path d="M2886.44 1330.61C2873.91 1336.62 2859.96 1339.04 2846.13 1337.62C2846.07 1344.62 2845.55 1351.61 2844.58 1358.55V1360.1C2844.58 1361.82 2843.96 1363.53 2843.57 1365.32V1366.64C2861.34 1359.52 2876.37 1346.9 2886.44 1330.61Z" fill="#FFC3BD"/>
<path opacity="0.2" d="M2886.44 1330.61C2873.91 1336.62 2859.96 1339.04 2846.13 1337.62C2846.07 1344.62 2845.55 1351.61 2844.58 1358.55V1360.1C2844.58 1361.82 2843.96 1363.53 2843.57 1365.32V1366.64C2861.34 1359.52 2876.37 1346.9 2886.44 1330.61Z" fill="black"/>
<path d="M2886.45 1330.61C2891.09 1328.43 2895.51 1325.83 2899.67 1322.83C2909.57 1316.19 2918.12 1307.74 2924.89 1297.93C2927.85 1293.59 2930.45 1289 2932.67 1284.24C2931.19 1284.24 2929.71 1285.01 2928.31 1285.17C2915.32 1286.34 2911.66 1271.71 2917.57 1258.64C2919.57 1254.21 2922.19 1250.1 2925.35 1246.42C2921.96 1235.31 2922.79 1223.34 2927.69 1212.8C2915.86 1188.53 2903.33 1166.11 2902.16 1149.85C2873.05 1158.85 2842.83 1163.8 2812.37 1164.56C2811.2 1166.35 2810.11 1168.29 2808.94 1170.16C2811.58 1170.15 2814.21 1170.54 2816.73 1171.33C2817.05 1171.45 2817.35 1171.63 2817.61 1171.87C2817.87 1172.11 2818.07 1172.4 2818.22 1172.72C2818.36 1173.03 2818.44 1173.38 2818.45 1173.73C2818.46 1174.08 2818.41 1174.43 2818.28 1174.75C2818.04 1175.42 2817.54 1175.96 2816.9 1176.26C2816.26 1176.57 2815.53 1176.61 2814.86 1176.39C2812.06 1175.54 2809.11 1175.33 2806.22 1175.76C2791.57 1205.29 2784.43 1237.98 2785.44 1270.93C2785.71 1287.58 2792.09 1303.56 2803.36 1315.81C2814.64 1328.06 2830.03 1335.74 2846.61 1337.38C2860.25 1338.79 2874.03 1336.45 2886.45 1330.61ZM2869.09 1177.79C2873.33 1178.62 2877.3 1180.47 2880.67 1183.18C2884.03 1185.9 2886.68 1189.38 2888.39 1193.35C2888.69 1194 2888.73 1194.75 2888.5 1195.43C2888.27 1196.11 2887.78 1196.67 2887.15 1197.01C2886.5 1197.27 2885.77 1197.27 2885.12 1197.01C2884.77 1196.91 2884.45 1196.73 2884.18 1196.49C2883.91 1196.25 2883.7 1195.94 2883.57 1195.61C2882.15 1192.46 2880 1189.71 2877.29 1187.58C2874.58 1185.46 2871.39 1184.02 2868 1183.39C2867.3 1183.27 2866.67 1182.9 2866.24 1182.33C2865.8 1181.77 2865.6 1181.06 2865.67 1180.35C2865.7 1179.96 2865.82 1179.57 2866.02 1179.22C2866.22 1178.88 2866.49 1178.58 2866.82 1178.35C2867.14 1178.12 2867.52 1177.96 2867.91 1177.89C2868.3 1177.82 2868.71 1177.84 2869.09 1177.94V1177.79ZM2866.37 1216.23C2867.67 1217.2 2868.63 1218.56 2869.12 1220.11C2869.61 1221.66 2869.6 1223.32 2869.09 1224.86C2868.24 1229.38 2865.13 1232.65 2862.17 1231.95C2859.21 1231.25 2857.5 1227.28 2858.36 1222.76C2858.79 1220.48 2859.96 1218.4 2861.7 1216.85C2859.28 1215.57 2857.38 1213.47 2856.33 1210.94L2866.37 1216.23ZM2802.56 1212.96C2802.98 1210.71 2804.13 1208.66 2805.83 1207.12C2803.45 1205.78 2801.58 1203.67 2800.54 1201.13L2810.73 1206.34C2811.99 1207.36 2812.92 1208.71 2813.4 1210.25C2813.89 1211.79 2813.91 1213.43 2813.46 1214.98C2812.52 1219.5 2809.49 1222.76 2806.53 1222.14C2803.57 1221.52 2801.71 1217.63 2802.56 1213.11V1212.96ZM2820.62 1250.78C2817.73 1250.95 2814.84 1250.49 2812.16 1249.42C2809.47 1248.36 2807.04 1246.73 2805.05 1244.63C2813.39 1237.08 2820.66 1228.44 2826.69 1218.95L2820.62 1250.78ZM2835.63 1271.63C2835.29 1271.54 2834.99 1271.32 2834.8 1271.01C2834.62 1270.71 2834.55 1270.35 2834.62 1270C2834.7 1269.66 2834.9 1269.36 2835.19 1269.17C2835.48 1268.98 2835.84 1268.92 2836.18 1268.98C2841.8 1270.19 2847.62 1270.06 2853.17 1268.6C2858.73 1267.14 2863.86 1264.39 2868.16 1260.58C2868.28 1260.45 2868.43 1260.35 2868.59 1260.28C2868.75 1260.21 2868.93 1260.17 2869.11 1260.17C2869.28 1260.16 2869.46 1260.19 2869.62 1260.26C2869.79 1260.32 2869.94 1260.42 2870.07 1260.54C2870.19 1260.66 2870.3 1260.81 2870.37 1260.97C2870.44 1261.14 2870.48 1261.31 2870.48 1261.49C2870.48 1261.66 2870.45 1261.84 2870.39 1262C2870.32 1262.17 2870.23 1262.32 2870.11 1262.45C2862.87 1269.11 2853.32 1272.68 2843.49 1272.41C2840.86 1272.39 2838.24 1272.18 2835.63 1271.79V1271.63Z" fill="#FFC3BD"/>
<path d="M2938.19 1237.24C2934.92 1229.46 2931.18 1221.13 2927.37 1213.35C2922.47 1223.88 2921.64 1235.86 2925.04 1246.97C2928.49 1242.62 2933.02 1239.27 2938.19 1237.24Z" fill="#263238"/>
<path d="M2861.54 1217.09C2859.8 1218.64 2858.63 1220.72 2858.2 1223C2857.34 1227.52 2859.05 1231.64 2862.01 1232.19C2864.97 1232.73 2868.08 1229.62 2868.94 1225.1C2869.44 1223.56 2869.45 1221.9 2868.96 1220.35C2868.47 1218.8 2867.51 1217.44 2866.21 1216.47C2865.56 1216.97 2864.78 1217.29 2863.96 1217.4C2863.14 1217.51 2862.31 1217.4 2861.54 1217.09Z" fill="#263238"/>
<path d="M2813.69 1215.22C2814.14 1213.67 2814.12 1212.02 2813.63 1210.49C2813.15 1208.95 2812.22 1207.59 2810.97 1206.58C2810.29 1207.07 2809.51 1207.4 2808.68 1207.52C2807.85 1207.64 2807.01 1207.56 2806.22 1207.28C2804.52 1208.81 2803.37 1210.86 2802.95 1213.11C2802.1 1217.63 2803.81 1221.75 2806.76 1222.37C2809.72 1223 2812.37 1219.73 2813.69 1215.22Z" fill="#263238"/>
<path d="M2810.57 1206.58L2800.38 1201.36C2801.42 1203.9 2803.29 1206.01 2805.67 1207.36C2806.49 1207.65 2807.37 1207.73 2808.22 1207.6C2809.08 1207.46 2809.89 1207.11 2810.57 1206.58Z" fill="#263238"/>
<path d="M2805.13 1245.02C2807.12 1247.12 2809.54 1248.76 2812.23 1249.82C2814.92 1250.88 2817.81 1251.34 2820.69 1251.17L2826.84 1219.34C2820.79 1228.84 2813.49 1237.48 2805.13 1245.02Z" fill="#ED847E"/>
<path d="M2869.95 1260.58C2869.69 1260.33 2869.34 1260.19 2868.97 1260.19C2868.61 1260.19 2868.26 1260.33 2868 1260.58C2863.72 1264.37 2858.61 1267.11 2853.09 1268.57C2847.56 1270.03 2841.77 1270.17 2836.18 1268.99C2835.84 1268.92 2835.48 1268.98 2835.19 1269.17C2834.9 1269.36 2834.69 1269.66 2834.62 1270C2834.55 1270.35 2834.61 1270.71 2834.8 1271.02C2834.99 1271.32 2835.29 1271.54 2835.63 1271.63C2838.2 1272.07 2840.8 1272.33 2843.41 1272.41C2853.24 1272.68 2862.79 1269.11 2870.02 1262.45C2870.24 1262.18 2870.36 1261.85 2870.34 1261.5C2870.33 1261.16 2870.19 1260.83 2869.95 1260.58Z" fill="#263238"/>
<path d="M2938.19 1237.24C2933.03 1239.27 2928.49 1242.62 2925.04 1246.97C2921.88 1250.65 2919.26 1254.76 2917.26 1259.18C2911.35 1272.26 2915 1286.89 2928 1285.72C2929.4 1285.72 2930.88 1285.1 2932.36 1284.78C2938.47 1283.16 2944.05 1279.97 2948.54 1275.52C2946.91 1262.34 2943.43 1249.45 2938.19 1237.24Z" fill="#FFC3BD"/>
<path d="M2903.64 1138.57C2904.11 1127.36 2910.49 1124.64 2919.2 1126.35C2872.05 1098.8 2802.87 1128.99 2797.74 1165.26C2802.4 1165.26 2807.23 1165.26 2812.21 1165.26C2842.67 1164.5 2872.89 1159.55 2902.01 1150.55C2901.55 1146.48 2902.12 1142.36 2903.64 1138.57Z" fill="#263238"/>
<path d="M2903.64 1138.57C2902.17 1142.28 2901.61 1146.28 2902.01 1150.25C2903.17 1166.74 2915.7 1189.15 2927.53 1213.2C2931.34 1220.98 2935.31 1228.76 2938.34 1237.09C2943.58 1249.3 2947.06 1262.18 2948.69 1275.37C2950.1 1287.15 2948.38 1299.09 2943.71 1310C2962.47 1288.68 2970.17 1250.47 2973.28 1217.94C2975.07 1198.88 2975.61 1179.73 2974.92 1160.59C2974.92 1160.59 2940.21 1130.56 2919.2 1126.36C2910.49 1124.64 2904.11 1127.37 2903.64 1138.57Z" fill="#263238"/>
<path d="M2868.16 1183.32C2871.55 1183.94 2874.73 1185.38 2877.44 1187.51C2880.15 1189.64 2882.31 1192.39 2883.72 1195.53C2883.85 1195.87 2884.06 1196.17 2884.33 1196.42C2884.6 1196.66 2884.93 1196.84 2885.28 1196.93C2885.92 1197.2 2886.65 1197.2 2887.3 1196.93C2887.94 1196.6 2888.42 1196.03 2888.65 1195.35C2888.88 1194.67 2888.85 1193.93 2888.54 1193.28C2886.83 1189.31 2884.18 1185.82 2880.82 1183.11C2877.46 1180.4 2873.48 1178.55 2869.25 1177.71C2868.54 1177.62 2867.82 1177.82 2867.25 1178.26C2866.68 1178.69 2866.31 1179.34 2866.21 1180.05C2866.07 1180.74 2866.18 1181.46 2866.54 1182.06C2866.91 1182.67 2867.48 1183.12 2868.16 1183.32Z" fill="#263238"/>
<path d="M2814.39 1176.77C2815.06 1177 2815.79 1176.96 2816.43 1176.65C2817.07 1176.35 2817.57 1175.8 2817.81 1175.14C2817.94 1174.81 2817.99 1174.47 2817.98 1174.12C2817.97 1173.77 2817.89 1173.42 2817.75 1173.1C2817.6 1172.79 2817.4 1172.5 2817.14 1172.26C2816.88 1172.02 2816.58 1171.84 2816.26 1171.72C2813.74 1170.93 2811.11 1170.54 2808.47 1170.55C2802.41 1170.53 2796.5 1172.5 2791.67 1176.15C2791.11 1176.6 2790.74 1177.24 2790.63 1177.95C2790.53 1178.66 2790.71 1179.38 2791.12 1179.97C2791.55 1180.5 2792.16 1180.86 2792.83 1180.98C2793.2 1181.06 2793.57 1181.05 2793.94 1180.97C2794.3 1180.89 2794.64 1180.74 2794.93 1180.51C2797.99 1178.16 2801.61 1176.65 2805.44 1176.15C2808.43 1175.67 2811.49 1175.88 2814.39 1176.77Z" fill="#263238"/>
<path d="M2861.54 1217.09C2862.31 1217.4 2863.14 1217.51 2863.96 1217.4C2864.78 1217.29 2865.56 1216.97 2866.21 1216.47L2856.02 1211.25C2857.12 1213.79 2859.07 1215.85 2861.54 1217.09Z" fill="#263238"/>
<path d="M2986.05 1597.67C2986.05 1594.48 2986.51 1591.05 2986.67 1587.78C2982.31 1580.86 2977.88 1573.86 2973.29 1566.93L2964.34 1553.62L2961.54 1555.1C2968.63 1569.88 2976.82 1584.11 2986.05 1597.67Z" fill="#263238"/>
<path opacity="0.2" d="M2986.05 1597.67C2986.05 1594.48 2986.51 1591.05 2986.67 1587.78C2982.31 1580.86 2977.88 1573.86 2973.29 1566.93L2964.34 1553.62L2961.54 1555.1C2968.63 1569.88 2976.82 1584.11 2986.05 1597.67Z" fill="black"/>
<path d="M3009.16 1662.1V1663.34C3040.19 1646.57 3068.78 1625.63 3094.13 1601.09C3089.88 1588.54 3084.89 1576.25 3079.19 1564.29C3071.64 1548.01 3063.25 1532.14 3054.06 1516.74C3046.28 1503.36 3038.03 1490.6 3029.55 1477.83C3021.76 1494.1 2999.67 1533.24 2964.57 1553.39L2973.52 1566.7C2978.11 1573.62 2982.55 1580.63 2986.9 1587.55C2990.72 1593.62 2994.69 1599.77 2997.88 1605.84C3003.87 1616.34 3009.47 1626.93 3013.44 1636.96L3012.66 1642.25C3011.73 1648.71 3010.56 1655.33 3009.16 1662.1Z" fill="#FFC3BD"/>
<path d="M2911.03 1514.1C2911.03 1514.1 2930.95 1534.02 2954.3 1558.69C2956.79 1557.6 2959.2 1556.35 2961.54 1555.11L2964.34 1553.63C2999.43 1533.47 3021.37 1494.33 3029.31 1478.07C3031.57 1473.48 3032.73 1470.68 3032.73 1470.68C3032.73 1470.68 3010.17 1433.33 2979.2 1414.5C2971.81 1409.83 2963.64 1406.53 2955.08 1404.77C2899.91 1418.85 2881.93 1453.4 2911.03 1514.1Z" fill="#263238"/>
<path d="M3284.15 733.548H3393.79C3396.79 733.497 3399.65 732.327 3401.83 730.267C3404 728.208 3405.33 725.408 3405.54 722.421C3405.64 720.997 3405.44 719.569 3404.96 718.226C3404.48 716.883 3403.72 715.655 3402.74 714.617C3401.76 713.579 3400.58 712.755 3399.27 712.197C3397.95 711.638 3396.54 711.357 3395.11 711.371H3285.4C3282.41 711.42 3279.56 712.58 3277.38 714.623C3275.21 716.667 3273.88 719.447 3273.65 722.421C3273.54 723.857 3273.73 725.3 3274.21 726.658C3274.69 728.015 3275.45 729.258 3276.44 730.305C3277.43 731.352 3278.63 732.182 3279.95 732.74C3281.28 733.299 3282.71 733.574 3284.15 733.548Z" fill="#90CAF9"/>
<path d="M3281.89 771.754H3391.53C3394.53 771.703 3397.4 770.533 3399.57 768.473C3401.75 766.413 3403.07 763.614 3403.28 760.626C3403.39 759.197 3403.2 757.76 3402.72 756.408C3402.25 755.056 3401.5 753.817 3400.52 752.771C3399.54 751.725 3398.35 750.894 3397.03 750.331C3395.71 749.767 3394.29 749.484 3392.86 749.499H3283.22C3280.21 749.53 3277.32 750.692 3275.13 752.754C3272.94 754.815 3271.6 757.626 3271.39 760.626C3271.3 762.057 3271.51 763.491 3272 764.838C3272.49 766.185 3273.25 767.418 3274.24 768.46C3275.22 769.503 3276.41 770.333 3277.73 770.899C3279.04 771.465 3280.46 771.756 3281.89 771.754Z" fill="#90CAF9"/>
<path d="M2394.9 771.754H2504.54C2507.54 771.705 2510.41 770.537 2512.6 768.479C2514.79 766.421 2516.13 763.621 2516.36 760.626C2516.46 759.193 2516.26 757.755 2515.77 756.402C2515.29 755.05 2514.53 753.812 2513.54 752.768C2512.56 751.723 2511.36 750.893 2510.04 750.331C2508.72 749.768 2507.29 749.485 2505.86 749.499H2396.22C2393.22 749.532 2390.34 750.696 2388.16 752.759C2385.98 754.823 2384.66 757.632 2384.47 760.626C2384.37 762.053 2384.57 763.485 2385.05 764.832C2385.53 766.179 2386.29 767.413 2387.26 768.456C2388.24 769.5 2389.42 770.331 2390.74 770.899C2392.05 771.466 2393.47 771.757 2394.9 771.754Z" fill="#90CAF9"/>
<path d="M3279.64 809.881H3389.51C3392.52 809.85 3395.41 808.688 3397.6 806.626C3399.79 804.565 3401.12 801.755 3401.34 798.754C3401.42 797.323 3401.22 795.89 3400.73 794.542C3400.24 793.195 3399.48 791.962 3398.49 790.92C3397.51 789.878 3396.32 789.048 3395 788.481C3393.69 787.915 3392.27 787.624 3390.83 787.626H3280.96C3277.96 787.676 3275.08 788.843 3272.89 790.901C3270.71 792.959 3269.37 795.759 3269.13 798.754C3269.04 800.187 3269.24 801.626 3269.72 802.978C3270.21 804.33 3270.97 805.568 3271.96 806.613C3272.94 807.657 3274.13 808.487 3275.46 809.05C3276.78 809.612 3278.2 809.895 3279.64 809.881Z" fill="#90CAF9"/>
<path d="M3135.52 2205.94H2472.24C2459.85 2206.06 2447.58 2203.61 2436.18 2198.75C2424.79 2193.89 2414.52 2186.73 2406.03 2177.71C2397.54 2168.69 2391 2158.01 2386.84 2146.35C2382.67 2134.68 2380.96 2122.28 2381.82 2109.92C2383.69 2084.1 2395.17 2059.91 2414 2042.13C2432.82 2024.35 2457.63 2014.28 2483.52 2013.9H3146.81C3159.19 2013.78 3171.47 2016.23 3182.87 2021.09C3194.26 2025.95 3204.53 2033.11 3213.02 2042.13C3221.51 2051.15 3228.05 2061.83 3232.21 2073.5C3236.38 2085.16 3238.09 2097.56 3237.23 2109.92C3235.36 2135.75 3223.88 2159.94 3205.05 2177.71C3186.22 2195.49 3161.42 2205.56 3135.52 2205.94Z" fill="white"/>
<path d="M3120.43 2464.05H2457.07C2444.68 2464.14 2432.41 2461.68 2421.02 2456.81C2409.63 2451.93 2399.37 2444.76 2390.88 2435.74C2382.39 2426.72 2375.86 2416.04 2371.69 2404.37C2367.52 2392.71 2365.8 2380.31 2366.65 2367.95C2368.57 2342.17 2380.08 2318.03 2398.9 2300.31C2417.72 2282.58 2442.5 2272.54 2468.35 2272.16H3131.71C3144.1 2272.05 3156.38 2274.49 3167.77 2279.35C3179.17 2284.21 3189.44 2291.38 3197.93 2300.39C3206.42 2309.41 3212.95 2320.09 3217.12 2331.76C3221.29 2343.42 3222.99 2355.83 3222.13 2368.18C3220.21 2393.98 3208.71 2418.12 3189.89 2435.86C3171.07 2453.6 3146.29 2463.66 3120.43 2464.05Z" fill="white"/>
<path d="M3105.26 2722.08H2441.97C2429.59 2722.19 2417.31 2719.75 2405.91 2714.89C2394.52 2710.03 2384.25 2702.86 2375.76 2693.85C2367.27 2684.83 2360.73 2674.15 2356.57 2662.48C2352.4 2650.82 2350.69 2638.41 2351.55 2626.06C2353.42 2600.22 2364.9 2576.02 2383.72 2558.24C2402.55 2540.45 2427.36 2530.36 2453.26 2529.96H3116.54C3128.93 2529.85 3141.21 2532.31 3152.6 2537.18C3164 2542.05 3174.27 2549.22 3182.76 2558.24C3191.25 2567.27 3197.78 2577.95 3201.95 2589.62C3206.11 2601.29 3207.82 2613.7 3206.96 2626.06C3205.09 2651.88 3193.61 2676.07 3174.78 2693.85C3155.96 2711.63 3131.15 2721.7 3105.26 2722.08Z" fill="white"/>
<path d="M2523.77 2144.33C2543.97 2124.72 2545.36 2093.4 2526.89 2074.38C2508.42 2055.36 2477.07 2055.84 2456.88 2075.45C2436.68 2095.06 2435.29 2126.37 2453.76 2145.4C2472.23 2164.42 2503.58 2163.94 2523.77 2144.33Z" fill="#90CAF9"/>
<path d="M2484.46 2321.19L2491 2345.85C2491.38 2347.21 2492.19 2348.4 2493.32 2349.25C2494.44 2350.09 2495.82 2350.54 2497.22 2350.52H2523.13C2524.6 2350.54 2526.01 2351.03 2527.17 2351.92C2528.32 2352.82 2529.15 2354.07 2529.53 2355.48C2529.91 2356.89 2529.82 2358.39 2529.27 2359.74C2528.72 2361.09 2527.74 2362.23 2526.48 2362.97L2504.62 2378.54C2503.37 2379.36 2502.42 2380.56 2501.89 2381.95C2501.36 2383.35 2501.28 2384.87 2501.66 2386.32L2508.19 2410.98C2508.58 2412.4 2508.52 2413.9 2508.03 2415.28C2507.54 2416.67 2506.63 2417.86 2505.43 2418.71C2504.23 2419.56 2502.8 2420.02 2501.34 2420.03C2499.87 2420.04 2498.43 2419.6 2497.22 2418.76L2477.15 2403.2C2476.01 2402.4 2474.65 2401.97 2473.26 2401.97C2471.86 2401.97 2470.51 2402.4 2469.37 2403.2L2447.5 2418.76C2446.35 2419.68 2444.94 2420.18 2443.47 2420.19C2442.01 2420.2 2440.58 2419.71 2439.42 2418.82C2438.27 2417.92 2437.44 2416.66 2437.09 2415.24C2436.73 2413.82 2436.86 2412.32 2437.46 2410.98L2446.88 2386.32C2447.46 2384.98 2447.57 2383.49 2447.2 2382.08C2446.84 2380.67 2446.01 2379.42 2444.85 2378.54L2424.78 2362.97C2423.67 2362.02 2422.89 2360.75 2422.53 2359.34C2422.17 2357.93 2422.26 2356.44 2422.78 2355.08C2423.3 2353.72 2424.22 2352.55 2425.43 2351.73C2426.64 2350.92 2428.07 2350.5 2429.52 2350.52H2455.44C2456.91 2350.52 2458.34 2350.08 2459.55 2349.24C2460.76 2348.41 2461.69 2347.23 2462.21 2345.85L2471.31 2321.19C2471.72 2319.76 2472.59 2318.51 2473.78 2317.62C2474.96 2316.73 2476.4 2316.25 2477.89 2316.25C2479.37 2316.25 2480.81 2316.73 2482 2317.62C2483.18 2318.51 2484.05 2319.76 2484.46 2321.19Z" fill="#90CAF9"/>
<path d="M2502.44 2599.91L2498.31 2669.17C2498.12 2672.07 2496.83 2674.79 2494.7 2676.78C2492.58 2678.78 2489.78 2679.89 2486.87 2679.9H2426.26C2424.92 2679.83 2423.6 2679.48 2422.4 2678.89C2421.2 2678.29 2420.12 2677.46 2419.25 2676.45C2418.37 2675.43 2417.7 2674.25 2417.29 2672.97C2416.88 2671.69 2416.72 2670.35 2416.84 2669.01L2421.9 2582.79C2422.08 2579.89 2423.35 2577.16 2425.45 2575.15C2427.56 2573.14 2430.35 2572.01 2433.26 2571.98H2476.84L2502.44 2599.91Z" fill="#90CAF9"/>
<path d="M2476.45 2572.14L2502.67 2599.92H2485.63C2484.24 2599.93 2482.87 2599.66 2481.59 2599.12C2480.32 2598.57 2479.17 2597.77 2478.22 2596.76C2477.27 2595.75 2476.54 2594.56 2476.07 2593.25C2475.61 2591.95 2475.42 2590.56 2475.51 2589.18L2476.45 2572.14ZM2469.52 2553.07L2468.43 2571.67L2467.42 2588.71C2467.29 2591.19 2467.65 2593.68 2468.49 2596.02C2469.33 2598.36 2470.64 2600.5 2472.32 2602.33C2474.04 2604.14 2476.1 2605.57 2478.39 2606.55C2480.68 2607.53 2483.14 2608.02 2485.63 2608.01H2521.27L2508.51 2594.39L2482.36 2566.61L2469.52 2553.07Z" fill="white"/>
<path opacity="0.2" d="M3113.27 2099.73H2616.9C2614.89 2099.74 2612.9 2099.34 2611.05 2098.55C2609.2 2097.76 2607.54 2096.6 2606.16 2095.14C2604.78 2093.68 2603.71 2091.96 2603.03 2090.07C2602.35 2088.18 2602.06 2086.17 2602.19 2084.16C2602.52 2079.97 2604.4 2076.05 2607.47 2073.17C2610.53 2070.3 2614.56 2068.66 2618.77 2068.6H3115.06C3117.07 2068.58 3119.06 2068.98 3120.91 2069.77C3122.76 2070.56 3124.42 2071.72 3125.8 2073.18C3127.18 2074.64 3128.24 2076.37 3128.93 2078.26C3129.61 2080.15 3129.9 2082.16 3129.77 2084.16C3129.46 2088.35 3127.59 2092.27 3124.54 2095.15C3121.49 2098.03 3117.47 2099.66 3113.27 2099.73Z" fill="#90CAF9"/>
<path opacity="0.2" d="M3019.19 2151.4H2613.94C2611.93 2151.41 2609.93 2151.01 2608.08 2150.23C2606.23 2149.44 2604.56 2148.28 2603.18 2146.82C2601.79 2145.36 2600.72 2143.64 2600.03 2141.75C2599.34 2139.86 2599.04 2137.85 2599.16 2135.84C2599.48 2131.64 2601.37 2127.73 2604.43 2124.85C2607.5 2121.97 2611.53 2120.34 2615.73 2120.27H3020.98C3023 2120.25 3025 2120.64 3026.85 2121.42C3028.71 2122.21 3030.39 2123.36 3031.78 2124.83C3033.16 2126.29 3034.23 2128.02 3034.92 2129.91C3035.61 2131.81 3035.9 2133.83 3035.77 2135.84C3035.42 2140.02 3033.54 2143.93 3030.47 2146.81C3027.41 2149.68 3023.39 2151.32 3019.19 2151.4Z" fill="#90CAF9"/>
<path opacity="0.2" d="M3096.93 2378.14H2959.98C2955.77 2378.19 2951.73 2379.82 2948.66 2382.7C2945.59 2385.58 2943.72 2389.51 2943.4 2393.71C2943.28 2395.71 2943.56 2397.72 2944.25 2399.61C2944.93 2401.5 2945.99 2403.23 2947.37 2404.69C2948.75 2406.15 2950.42 2407.31 2952.26 2408.1C2954.11 2408.89 2956.1 2409.29 2958.11 2409.27H3095.06C3099.27 2409.22 3103.31 2407.6 3106.38 2404.72C3109.45 2401.83 3111.33 2397.91 3111.64 2393.71C3111.77 2391.7 3111.48 2389.69 3110.8 2387.8C3110.12 2385.91 3109.05 2384.19 3107.67 2382.73C3106.29 2381.27 3104.63 2380.11 3102.78 2379.32C3100.93 2378.53 3098.94 2378.13 3096.93 2378.14Z" fill="#90CAF9"/>
<path opacity="0.2" d="M2879.91 2378.15H2600.63C2596.42 2378.19 2592.38 2379.82 2589.32 2382.7C2586.25 2385.58 2584.37 2389.51 2584.06 2393.71C2583.92 2395.72 2584.2 2397.73 2584.87 2399.63C2585.55 2401.52 2586.62 2403.25 2588 2404.72C2589.38 2406.18 2591.05 2407.34 2592.9 2408.12C2594.76 2408.91 2596.75 2409.3 2598.77 2409.27H2878.12C2882.32 2409.21 2886.35 2407.58 2889.42 2404.7C2892.48 2401.82 2894.36 2397.9 2894.69 2393.71C2894.82 2391.7 2894.53 2389.68 2893.84 2387.79C2893.16 2385.89 2892.09 2384.16 2890.7 2382.7C2889.31 2381.24 2887.63 2380.08 2885.78 2379.29C2883.92 2378.51 2881.92 2378.12 2879.91 2378.15Z" fill="#90CAF9"/>
<path opacity="0.2" d="M3008.92 2326.63H2603.59C2599.38 2326.68 2595.34 2328.3 2592.27 2331.19C2589.2 2334.07 2587.33 2338 2587.02 2342.2C2586.89 2344.2 2587.17 2346.21 2587.86 2348.1C2588.54 2349.99 2589.6 2351.72 2590.98 2353.18C2592.36 2354.64 2594.03 2355.8 2595.88 2356.59C2597.72 2357.37 2599.72 2357.77 2601.72 2357.76H3006.98C3011.18 2357.69 3015.21 2356.06 3018.28 2353.18C3021.34 2350.31 3023.22 2346.39 3023.55 2342.2C3023.68 2340.2 3023.4 2338.19 3022.72 2336.31C3022.04 2334.43 3020.98 2332.7 3019.61 2331.24C3018.24 2329.78 3016.58 2328.62 3014.75 2327.83C3012.91 2327.04 3010.92 2326.63 3008.92 2326.63Z" fill="#90CAF9"/>
<path opacity="0.2" d="M3081.76 2636.18H2585.46C2581.26 2636.26 2577.24 2637.9 2574.18 2640.77C2571.12 2643.65 2569.23 2647.56 2568.89 2651.74C2568.76 2653.75 2569.05 2655.77 2569.73 2657.66C2570.42 2659.56 2571.49 2661.29 2572.88 2662.75C2574.27 2664.21 2575.94 2665.37 2577.8 2666.16C2579.66 2666.94 2581.66 2667.33 2583.67 2667.3H3079.97C3084.16 2667.24 3088.18 2665.6 3091.24 2662.72C3094.29 2659.84 3096.15 2655.93 3096.46 2651.74C3096.59 2649.74 3096.31 2647.73 3095.62 2645.84C3094.94 2643.95 3093.88 2642.22 3092.5 2640.76C3091.12 2639.3 3089.45 2638.14 3087.61 2637.35C3085.76 2636.56 3083.77 2636.16 3081.76 2636.18Z" fill="#90CAF9"/>
<path opacity="0.2" d="M2993.75 2584.58H2588.5C2584.29 2584.65 2580.26 2586.28 2577.2 2589.16C2574.13 2592.03 2572.25 2595.95 2571.92 2600.14C2571.8 2602.15 2572.08 2604.16 2572.76 2606.05C2573.45 2607.94 2574.51 2609.67 2575.89 2611.13C2577.27 2612.59 2578.94 2613.75 2580.78 2614.53C2582.63 2615.32 2584.62 2615.72 2586.63 2615.71H2991.96C2996.16 2615.64 3000.18 2614.01 3003.23 2611.13C3006.28 2608.25 3008.15 2604.33 3008.46 2600.14C3008.59 2598.14 3008.3 2596.13 3007.62 2594.24C3006.94 2592.35 3005.87 2590.62 3004.49 2589.16C3003.11 2587.7 3001.45 2586.54 2999.6 2585.75C2997.75 2584.97 2995.76 2584.57 2993.75 2584.58Z" fill="#90CAF9"/>
</svg>
