<svg width="5294" height="3660" viewBox="0 0 5294 3660" fill="none" xmlns="http://www.w3.org/2000/svg">
<path d="M0 131H5294V3660H0V131Z" fill="url(#paint0_linear_2108_391)"/>
<path d="M4647 3059.2H647V3061.2H4647V3059.2Z" fill="#EBEBEB"/>
<path d="M4246.2 3187.92H3981.24V3189.92H4246.2V3187.92Z" fill="#EBEBEB"/>
<path d="M3296.76 3209.68H3227.24V3211.68H3296.76V3209.68Z" fill="#EBEBEB"/>
<path d="M3973.24 3113.68H3819.72V3115.68H3973.24V3113.68Z" fill="#EBEBEB"/>
<path d="M1412.2 3127.12H1066.68V3129.12H1412.2V3127.12Z" fill="#EBEBEB"/>
<path d="M1534.12 3127.12H1483.48V3129.12H1534.12V3127.12Z" fill="#EBEBEB"/>
<path d="M2448.2 3160.88H1698.76V3162.88H2448.2V3160.88Z" fill="#EBEBEB"/>
<path d="M2543 2702.4H998.279C986.177 2702.38 974.579 2697.56 966.03 2689C957.48 2680.43 952.679 2668.82 952.679 2656.72V485.28C952.784 473.248 957.632 461.744 966.17 453.266C974.708 444.788 986.246 440.021 998.279 440H2543C2555.11 440 2566.73 444.813 2575.3 453.379C2583.87 461.946 2588.68 473.565 2588.68 485.68V2656.72C2588.68 2668.84 2583.87 2680.46 2575.3 2689.02C2566.73 2697.59 2555.11 2702.4 2543 2702.4ZM998.279 441.6C986.708 441.621 975.618 446.233 967.444 454.422C959.27 462.611 954.679 473.709 954.679 485.28V2656.72C954.679 2668.29 959.27 2679.39 967.444 2687.58C975.618 2695.77 986.708 2700.38 998.279 2700.4H2543C2554.58 2700.38 2565.68 2695.77 2573.86 2687.59C2582.05 2679.4 2586.66 2668.3 2586.68 2656.72V485.28C2586.66 473.702 2582.05 462.604 2573.86 454.417C2565.68 446.23 2554.58 441.621 2543 441.6H998.279Z" fill="#EBEBEB"/>
<path d="M4273.48 2702.4H2728.68C2716.57 2702.38 2704.97 2697.56 2696.4 2689C2687.84 2680.44 2683.02 2668.83 2683 2656.72V485.28C2683.13 473.241 2687.99 461.737 2696.54 453.261C2705.09 444.785 2716.64 440.02 2728.68 440H4273.48C4285.5 440.042 4297.02 444.818 4305.54 453.294C4314.06 461.77 4318.9 473.262 4319 485.28V2656.72C4319 2668.81 4314.21 2680.41 4305.68 2688.97C4297.15 2697.53 4285.57 2702.36 4273.48 2702.4ZM2728.68 441.6C2717.1 441.621 2706 446.23 2697.82 454.417C2689.63 462.604 2685.02 473.702 2685 485.28V2656.72C2685.02 2668.3 2689.63 2679.4 2697.82 2687.59C2706 2695.77 2717.1 2700.38 2728.68 2700.4H4273.48C4285.06 2700.38 4296.16 2695.77 4304.34 2687.59C4312.53 2679.4 4317.14 2668.3 4317.16 2656.72V485.28C4317.14 473.702 4312.53 462.604 4304.34 454.417C4296.16 446.23 4285.06 441.621 4273.48 441.6H2728.68Z" fill="#EBEBEB"/>
<path d="M1252.28 2324.72H1821.88C1835.03 2324.72 1848.06 2327.31 1860.21 2332.34C1872.36 2337.38 1883.4 2344.75 1892.7 2354.06C1902 2363.36 1909.38 2374.4 1914.41 2386.55C1919.45 2398.7 1922.04 2411.73 1922.04 2424.88V2936.88C1922.04 2963.44 1911.49 2988.92 1892.7 3007.7C1873.92 3026.49 1848.44 3037.04 1821.88 3037.04H1252.28V2325.04V2324.72Z" fill="#F0F0F0"/>
<path d="M1257 2324.72H1247.56C1192.24 2324.72 1147.4 2369.56 1147.4 2424.88V2936.56C1147.4 2991.88 1192.24 3036.72 1247.56 3036.72H1257C1312.32 3036.72 1357.16 2991.88 1357.16 2936.56V2424.88C1357.16 2369.56 1312.32 2324.72 1257 2324.72Z" fill="#F5F5F5"/>
<path d="M1328.52 3036.72H2071.96V2587.36H1328.52V3036.72Z" fill="#F0F0F0"/>
<path d="M1267.48 3059.2H2607.4C2612.84 3059.18 2618.05 3057.01 2621.89 3053.15C2625.73 3049.3 2627.88 3044.08 2627.88 3038.64V3036.72H1822.2L1247 3038.64C1247 3044.08 1249.16 3049.3 1252.99 3053.15C1256.83 3057.01 1262.04 3059.18 1267.48 3059.2Z" fill="#E0E0E0"/>
<path d="M1854.36 2029.36H2546.04C2563.93 2029.02 2581.69 2032.51 2598.13 2039.58C2614.56 2046.65 2629.31 2057.14 2641.37 2070.36C2653.43 2083.58 2662.53 2099.22 2668.07 2116.24C2673.61 2133.25 2675.45 2151.25 2673.48 2169.04L2627.88 2689.04H1656.84L1702.36 2169.04C1706.23 2131.2 1723.83 2096.08 1751.84 2070.34C1779.85 2044.61 1816.32 2030.02 1854.36 2029.36Z" fill="#E0E0E0"/>
<path d="M1745.08 2029.36H2450.28C2467.3 2029.08 2484.18 2032.43 2499.81 2039.17C2515.44 2045.91 2529.45 2055.9 2540.92 2068.48C2552.39 2081.05 2561.06 2095.92 2566.34 2112.11C2571.62 2128.29 2573.4 2145.4 2571.56 2162.32L2525.4 2688.97H1554.28L1600.44 2162.32C1604.11 2126.31 1620.86 2092.88 1647.52 2068.38C1674.17 2043.88 1708.88 2030 1745.08 2029.36Z" fill="#F5F5F5"/>
<path d="M1388.12 2546.32H1977C1993.72 2546.32 2009.75 2552.96 2021.58 2564.78C2033.4 2576.61 2040.04 2592.64 2040.04 2609.36V2666.24C2040.05 2674.53 2038.43 2682.73 2035.26 2690.39C2032.1 2698.05 2027.46 2705.01 2021.6 2710.87C2015.75 2716.73 2008.8 2721.38 2001.14 2724.55C1993.49 2727.73 1985.28 2729.36 1977 2729.36H1388.12C1363.85 2729.36 1340.57 2719.72 1323.41 2702.56C1306.24 2685.39 1296.6 2662.11 1296.6 2637.84C1296.6 2613.57 1306.24 2590.29 1323.41 2573.13C1340.57 2555.96 1363.85 2546.32 1388.12 2546.32Z" fill="#E0E0E0"/>
<path d="M2075.24 2324.72H2644.84C2671.41 2324.72 2696.88 2335.27 2715.67 2354.06C2734.45 2372.84 2745 2398.32 2745 2424.88V2936.88C2745 2963.44 2734.45 2988.92 2715.67 3007.7C2696.88 3026.49 2671.41 3037.04 2644.84 3037.04H2075.24V2325.04V2324.72Z" fill="#F0F0F0"/>
<path d="M2079.96 2324.72H2070.52C2015.2 2324.72 1970.36 2369.56 1970.36 2424.88V2936.56C1970.36 2991.88 2015.2 3036.72 2070.52 3036.72H2079.96C2135.28 3036.72 2180.12 2991.88 2180.12 2936.56V2424.88C2180.12 2369.56 2135.28 2324.72 2079.96 2324.72Z" fill="#F5F5F5"/>
<path d="M3647.08 1933.36H3099.48V3059.2H3647.08V1933.36Z" fill="#F0F0F0"/>
<path d="M3181.4 2971.52V2021.04H3168.76V2971.52H3181.4Z" fill="#E6E6E6"/>
<path d="M3566.36 2021.04H3168.76V2037.04H3566.36V2021.04Z" fill="#E6E6E6"/>
<path d="M4207.32 1933.36H3659.72V3059.2H4207.32V1933.36Z" fill="#F0F0F0"/>
<path d="M4207.4 3059.2H4279.88V1933.36H4207.4V3059.2Z" fill="#E0E0E0"/>
<path d="M3741.64 2971.52V2021.04H3729V2971.52H3741.64Z" fill="#E6E6E6"/>
<path d="M3659.8 3059.21V1946.16H3647.16V3059.21H3659.8Z" fill="#E6E6E6"/>
<path d="M4126.6 2021.04H3729V2037.04H4126.6V2021.04Z" fill="#E6E6E6"/>
<path d="M3623.08 2182.4H3595.88V2431.21H3623.08V2182.4Z" fill="#E0E0E0"/>
<path d="M3710.92 2182.4H3683.72V2431.21H3710.92V2182.4Z" fill="#E0E0E0"/>
<path d="M4055.88 759.356H1263.72V1755.28H4055.88V759.356Z" fill="#E0E0E0"/>
<path d="M4030.28 759.356H1238.12V1755.28H4030.28V759.356Z" fill="#F0F0F0"/>
<path d="M3946.52 1671.52V843.116L1321.88 843.116V1671.52H3946.52Z" fill="#FAFAFA"/>
<path d="M1747.96 1671.52L1921.88 843.116H2305.8L2131.88 1671.52H1747.96Z" fill="white"/>
<path d="M2293.88 1671.52L2467.8 843.116H2659.8L2485.8 1671.52H2293.88Z" fill="white"/>
<path d="M3466.04 1671.52L3639.96 843.116H3831.96L3657.96 1671.52H3466.04Z" fill="white"/>
<path d="M2647 3420.48C3503.66 3420.48 4198.12 3379.93 4198.12 3329.92C4198.12 3279.9 3503.66 3239.36 2647 3239.36C1790.34 3239.36 1095.88 3279.9 1095.88 3329.92C1095.88 3379.93 1790.34 3420.48 2647 3420.48Z" fill="#F5F5F5"/>
<path d="M1975 925.123C1995.16 878.962 1816.6 837.122 1762.6 979.363C1713.64 1108.4 1632.36 1141.36 1670.6 1230.72C1711.96 1327.44 1945.96 1339.04 2047.56 1231.84C2129.96 1144.88 2040.52 1108.24 2052.04 1026.48C2063.56 944.723 2039.4 918.083 1975 925.123Z" fill="#263238"/>
<path d="M1649.72 1202.08C1640.44 1151.68 1659.16 1130.88 1682.84 1104.56C1714.84 1072.09 1736.76 1031.05 1745.96 986.4C1750.73 962.015 1762.92 939.701 1780.87 922.515C1798.81 905.33 1821.63 894.112 1846.2 890.4C1899 880.64 1954.92 897.92 1969.72 919.84C1972.08 922.928 1973.42 926.671 1973.56 930.553C1973.71 934.435 1972.64 938.267 1970.52 941.52L1963.8 937.2C1965.1 935.266 1965.73 932.963 1965.6 930.64C1965.47 928.316 1964.58 926.098 1963.08 924.32C1949.96 904.8 1896.68 889.2 1847.72 898.32C1812.76 904.8 1767.72 925.6 1753.8 988.16C1744.32 1034.15 1721.73 1076.41 1688.76 1109.84C1665.72 1135.44 1648.76 1154 1657.64 1200.56L1649.72 1202.08Z" fill="#263238"/>
<path d="M1539.72 1163.76L1534.76 1147.76C1531.34 1136.89 1525.13 1127.1 1516.76 1119.36L1500.76 1104.8C1495.7 1100.12 1489.17 1097.36 1482.28 1097C1475.4 1096.63 1468.61 1098.69 1463.08 1102.8L1445.96 1115.6C1442.83 1117.94 1440.2 1120.88 1438.21 1124.24C1436.23 1127.61 1434.93 1131.33 1434.39 1135.2C1433.86 1139.07 1434.09 1143.01 1435.09 1146.78C1436.09 1150.56 1437.83 1154.1 1440.2 1157.2L1451.24 1171.6C1451.24 1171.6 1477.16 1215.44 1514.68 1230.64L1523.32 1223.28C1531.59 1216.06 1537.55 1206.57 1540.47 1195.99C1543.38 1185.4 1543.12 1174.2 1539.72 1163.76Z" fill="#FFC3BD"/>
<path d="M1850.68 1441.52L1845.56 1445.44L1841.4 1448.48L1833.4 1454.08C1828.04 1457.6 1822.6 1460.88 1817.4 1464.08C1806.52 1470.34 1795.3 1476 1783.8 1481.04C1760.16 1491.47 1735.3 1498.89 1709.8 1503.12C1682.88 1507.65 1655.41 1507.81 1628.44 1503.6C1614.64 1501.43 1601.08 1497.92 1587.96 1493.12C1584.68 1492.08 1581.4 1490.72 1578.2 1489.36L1573.4 1487.36L1571 1486.32L1568.36 1485.2L1565 1483.6C1558.02 1480.03 1551.58 1475.47 1545.88 1470.08C1541.78 1466.27 1538.01 1462.12 1534.6 1457.68C1525.55 1445.41 1518.23 1431.95 1512.84 1417.68C1508.04 1405.84 1504.36 1394.48 1501.08 1383.36C1495.11 1361.84 1490.28 1340.03 1486.6 1318C1479.29 1275.44 1475.2 1232.38 1474.36 1189.2C1473.37 1181.12 1475.5 1172.96 1480.31 1166.39C1485.13 1159.83 1492.27 1155.34 1500.27 1153.85C1508.28 1152.36 1516.55 1153.98 1523.41 1158.38C1530.26 1162.78 1535.18 1169.62 1537.16 1177.52V1178.4C1551.08 1216.72 1564.44 1256 1578.52 1293.28C1585.8 1311.84 1592.84 1330.32 1600.84 1347.12C1604.68 1355.52 1608.84 1363.52 1612.76 1370.48C1615.43 1375.58 1618.86 1380.25 1622.92 1384.32C1622.92 1384.32 1622.92 1384.32 1622.36 1383.2C1620.52 1381.29 1618.35 1379.72 1615.96 1378.56L1614.44 1377.76C1613.96 1377.76 1613 1377.2 1613.56 1377.36H1614.84L1617.32 1378C1618.97 1378.52 1620.66 1378.92 1622.36 1379.2C1629.11 1380.55 1635.96 1381.38 1642.84 1381.68C1657.24 1382.12 1671.64 1380.62 1685.64 1377.2C1701 1373.33 1715.95 1367.97 1730.28 1361.2C1737.72 1357.84 1745.08 1353.92 1752.28 1350C1755.88 1348 1759.4 1345.84 1762.76 1343.76L1770.76 1338.64L1777 1334.72C1791.06 1325.79 1808.03 1322.64 1824.36 1325.96C1840.68 1329.27 1855.09 1338.78 1864.55 1352.48C1874.01 1366.19 1877.8 1383.03 1875.11 1399.47C1872.42 1415.91 1863.46 1430.67 1850.12 1440.64L1850.68 1441.52Z" fill="#FFC3BD"/>
<path d="M1991 3295.05C2041.64 3278.33 2084.28 3244.09 2075.72 3184.01C2071.96 3158.25 2154.6 3148.17 2154.6 3148.17C2145.24 3230.01 2155.48 3244.17 2165.32 3262.65C2175.16 3281.13 2174.6 3303.77 2157.32 3305.77C2136.84 3308.25 2132.28 3305.77 2106.84 3309.37C2077.08 3313.29 2057.8 3328.81 1998.36 3328.81C1966.28 3328.81 1975 3300.33 1991 3295.05Z" fill="#90CAF9"/>
<path d="M2145 2420.88C2150.84 2010.96 2113 1787.52 2113 1787.52L1809.72 1802.64C1809.72 1802.64 1854.6 2177.68 1934.28 2453.92C1955.56 2602.16 2003.48 2852.88 2036.68 3021.28C2085.94 3017.07 2134.65 3007.85 2182.04 2993.76C2193.64 2845.84 2195.72 2632 2145 2420.88Z" fill="#90CAF9"/>
<path d="M2151.56 3188.32C2151.56 3188.32 2163.4 3110.88 2171.4 2993.76C2131.15 3007.78 2089.4 3017.01 2047 3021.28C2064.28 3123.52 2076.6 3188.64 2076.6 3188.64C2100.85 3197.36 2127.39 3197.25 2151.56 3188.32Z" fill="#FFC3BD"/>
<path d="M2020.12 2972.24C2022.76 2986.32 2030.12 3021.6 2037.4 3034C2037.82 3034.72 2038.4 3035.33 2039.09 3035.79C2039.79 3036.25 2040.57 3036.54 2041.4 3036.64C2097.96 3043.76 2154.44 3032.4 2177.4 3022.16C2178.04 3021.91 2178.62 3021.52 2179.1 3021.02C2179.59 3020.52 2179.96 3019.93 2180.2 3019.28C2186.6 3002.32 2188.92 2966.64 2189.64 2951.6C2189.68 2950.79 2189.53 2949.98 2189.21 2949.23C2188.89 2948.48 2188.4 2947.81 2187.79 2947.28C2187.17 2946.75 2186.44 2946.37 2185.65 2946.16C2184.86 2945.95 2184.04 2945.92 2183.24 2946.08C2130.82 2955.8 2077.87 2962.42 2024.68 2965.92C2023.95 2966.01 2023.25 2966.24 2022.62 2966.61C2021.98 2966.99 2021.43 2967.48 2021.01 2968.08C2020.58 2968.67 2020.28 2969.35 2020.12 2970.07C2019.97 2970.79 2019.97 2971.53 2020.12 2972.24Z" fill="#263238"/>
<path d="M1813.72 1320.65C1768.76 1328.65 1700.2 1366.65 1700.2 1366.65C1700.2 1366.65 1664.12 1453.05 1707.32 1515.29C1749.88 1525.37 1771.32 1517.13 1771.32 1517.13L1813.72 1320.65Z" fill="#263238"/>
<path opacity="0.2" d="M1707.32 1515.28C1749.88 1525.36 1771.32 1517.12 1771.32 1517.12L1769.8 1400.56C1740.92 1439.44 1716.84 1478 1707.32 1515.28Z" fill="black"/>
<path opacity="0.2" d="M2143.4 2179.04C2109.48 2096.08 2073 2027.76 2059 1965.36C2035 2135.04 2053.88 2291.12 2145.16 2402.96C2146.2 2320.4 2145.32 2245.68 2143.4 2179.04Z" fill="black"/>
<path d="M2607 2829.6L2485.96 2915.68C2387.16 2786.96 2239 2590.32 2203.16 2504.72C2112.12 2287.52 1929.08 1808.72 1929.08 1808.72L2166.68 1753.52C2166.68 1753.52 2316.6 1892.72 2413.32 2418C2494.28 2533.04 2562.44 2702.32 2607 2829.6Z" fill="#90CAF9"/>
<path d="M2600.04 3237.61C2630.2 3178.65 2630.6 3113.69 2598.04 3062.49C2584.04 3040.57 2655.16 2997.29 2655.16 2997.29C2680.28 3075.77 2700.76 3080.33 2718.2 3092.49C2735.64 3104.65 2737.4 3130.81 2722.68 3139.69C2706.62 3149.13 2692.93 3162.13 2682.68 3177.69C2664.44 3201.69 2654.2 3234.65 2628.04 3255.21C2611.32 3268.25 2586.76 3263.45 2600.04 3237.61Z" fill="#90CAF9"/>
<path d="M2668.36 3033.29C2668.36 3033.29 2647.48 2959.85 2606.52 2849.85C2575.59 2879.15 2541.36 2904.76 2504.52 2926.17C2562.36 3012.25 2604.68 3074.09 2604.68 3074.09C2629.27 3066.64 2651.31 3052.51 2668.36 3033.29Z" fill="#FFC3BD"/>
<path d="M2459.8 2892.57C2467.8 2904.25 2489.24 2933.45 2501 2941.69C2501.69 2942.17 2502.48 2942.5 2503.31 2942.64C2504.14 2942.77 2504.99 2942.72 2505.8 2942.49C2560.2 2925.69 2607 2892.01 2624.12 2873.05C2624.6 2872.54 2624.96 2871.93 2625.18 2871.27C2625.41 2870.61 2625.48 2869.9 2625.4 2869.21C2624.28 2851.21 2611.64 2817.69 2606.12 2803.69C2605.82 2802.95 2605.35 2802.28 2604.76 2801.74C2604.17 2801.2 2603.46 2800.8 2602.69 2800.57C2601.93 2800.34 2601.12 2800.29 2600.33 2800.41C2599.53 2800.53 2598.78 2800.83 2598.12 2801.29C2554.46 2831.75 2509.05 2859.61 2462.12 2884.73C2461.41 2885.04 2460.77 2885.51 2460.26 2886.09C2459.75 2886.68 2459.36 2887.36 2459.14 2888.11C2458.92 2888.86 2458.87 2889.64 2458.98 2890.41C2459.09 2891.18 2459.37 2891.92 2459.8 2892.57Z" fill="#263238"/>
<path d="M1745.08 1440C1755.96 1510.8 1713.8 1565.68 1778.68 1598.32C1767.88 1652.16 1783.88 1759.68 1809.56 1802.32C1845.64 1821.92 2022.12 1792.96 2166.36 1753.44C2164.28 1691.84 2113.64 1570.64 2127.72 1368.88C2128.48 1357.85 2126.91 1346.77 2123.11 1336.38C2119.32 1325.99 2113.38 1316.51 2105.69 1308.56C2097.99 1300.61 2088.72 1294.37 2078.45 1290.23C2068.19 1286.1 2057.18 1284.17 2046.12 1284.56C2033.64 1284.56 2020.36 1285.76 2006.92 1286.96C1959.67 1290 1912.69 1296.41 1866.36 1306.16C1851.4 1309.68 1835.96 1313.68 1821.32 1317.84C1795.87 1325.36 1774.06 1341.94 1760.01 1364.45C1745.96 1386.96 1740.65 1413.84 1745.08 1440Z" fill="#263238"/>
<path d="M1847 1386.16C1847 1386.16 1892.2 1369.68 1915.88 1410.16C1955.32 1388 2010.76 1294.32 2006.84 1287.2C1940.84 1305.36 1847 1386.16 1847 1386.16Z" fill="white"/>
<path d="M1847 1386.16C1847 1386.16 1812.68 1382.08 1803 1412.48C1803 1352.48 1843.48 1314.72 1861.16 1307.68C1855 1323.36 1847 1386.16 1847 1386.16Z" fill="white"/>
<path d="M1989.56 1128.4C1984.52 1175.2 1983.72 1250.4 2006.92 1287.28C2006.92 1287.28 1918.92 1347.52 1846.92 1386.16C1824.28 1333.76 1861.08 1307.68 1861.08 1307.68C1895.4 1294.56 1895.08 1250.64 1890.44 1217.04L1989.56 1128.4Z" fill="#FFC3BD"/>
<path opacity="0.2" d="M1890.6 1217.04L1946.6 1166.64C1948.48 1176.05 1947.87 1185.78 1944.84 1194.88C1935.14 1221.1 1916.5 1243.06 1892.2 1256.88C1893.08 1243.58 1892.54 1230.23 1890.6 1217.04Z" fill="black"/>
<path d="M2007.64 1041.45C1999.64 1117.45 1998.44 1149.69 1959.24 1187.29C1900.2 1243.85 1810.36 1217.93 1795.56 1141.29C1782.2 1072.25 1796.84 959.606 1871.08 932.166C1945.32 904.726 2015 965.526 2007.64 1041.45Z" fill="#FFC3BD"/>
<path d="M1991 1097.04C1979.27 1085.81 1972.41 1070.43 1971.9 1054.2C1971.39 1037.96 1977.27 1022.18 1988.28 1010.24C2008.28 990 2036.28 1031.92 2036.28 1031.92L1991 1097.04Z" fill="#263238"/>
<path d="M1898.28 1062.48C1898.28 1068.72 1894.52 1073.6 1890.28 1073.44C1886.04 1073.28 1883.16 1068.08 1883.4 1061.92C1883.64 1055.76 1887.16 1050.8 1891.4 1050.96C1895.64 1051.12 1898.52 1056 1898.28 1062.48Z" fill="#263238"/>
<path d="M1821.96 1060.65C1821.96 1066.81 1818.28 1071.69 1813.96 1071.53C1809.64 1071.37 1806.84 1066.25 1807.08 1060.01C1807.32 1053.77 1810.76 1048.97 1815.08 1049.13C1819.4 1049.29 1822.2 1054.41 1821.96 1060.65Z" fill="#263238"/>
<path d="M1816.84 1049.52L1802.12 1044.64C1802.12 1044.64 1809.32 1056.56 1816.84 1049.52Z" fill="#263238"/>
<path d="M1840.76 1063.04C1834.58 1076.99 1826.5 1090.02 1816.76 1101.76C1819.83 1104.13 1823.39 1105.8 1827.17 1106.66C1830.96 1107.51 1834.89 1107.53 1838.68 1106.72L1840.76 1063.04Z" fill="#ED847E"/>
<path d="M1873.8 1131.04C1870.33 1131.53 1866.82 1131.69 1863.32 1131.52C1862.85 1131.5 1862.4 1131.3 1862.07 1130.95C1861.74 1130.61 1861.56 1130.15 1861.56 1129.68C1861.57 1129.44 1861.63 1129.2 1861.73 1128.98C1861.83 1128.76 1861.98 1128.57 1862.16 1128.4C1862.33 1128.24 1862.54 1128.11 1862.77 1128.03C1863 1127.95 1863.24 1127.91 1863.48 1127.92C1871.18 1128.38 1878.89 1127.03 1885.97 1123.97C1893.06 1120.91 1899.33 1116.24 1904.28 1110.32C1904.41 1110.12 1904.58 1109.95 1904.77 1109.82C1904.97 1109.69 1905.19 1109.6 1905.42 1109.56C1905.65 1109.51 1905.89 1109.51 1906.12 1109.56C1906.35 1109.61 1906.57 1109.71 1906.76 1109.84C1906.96 1109.98 1907.13 1110.15 1907.26 1110.35C1907.4 1110.56 1907.49 1110.78 1907.53 1111.02C1907.58 1111.26 1907.57 1111.5 1907.52 1111.74C1907.47 1111.98 1907.38 1112.2 1907.24 1112.4C1898.95 1122.73 1886.95 1129.42 1873.8 1131.04Z" fill="#263238"/>
<path d="M2020.28 1105.12C2017.31 1111.41 2013.03 1116.99 2007.74 1121.48C2002.44 1125.98 1996.24 1129.29 1989.56 1131.2C1972.52 1135.44 1964.6 1116.72 1969.88 1098C1974.6 1081.12 1989.24 1058.64 2006.04 1062.72C2022.84 1066.8 2028.52 1088.72 2020.28 1105.12Z" fill="#FFC3BD"/>
<path d="M1968.28 933.366C1914.42 966.964 1853.96 988.548 1791 996.646C1791 942.006 1897.88 880.646 1968.28 933.366Z" fill="#263238"/>
<path d="M1927 940.003C1914.6 988.003 2039 1076 2015 1160.64C2055.64 1097.36 2026.36 954.963 2026.36 954.963C2026.36 954.963 1921.56 888.643 1927 940.003Z" fill="#263238"/>
<path d="M1914.2 1021.68C1913.72 1021.62 1913.25 1021.44 1912.84 1021.18C1912.42 1020.92 1912.07 1020.57 1911.8 1020.16C1909.33 1016.31 1905.99 1013.09 1902.04 1010.77C1898.09 1008.44 1893.65 1007.09 1889.08 1006.8C1888.61 1006.82 1888.13 1006.75 1887.69 1006.58C1887.24 1006.42 1886.83 1006.16 1886.49 1005.83C1886.14 1005.5 1885.87 1005.11 1885.68 1004.67C1885.5 1004.23 1885.4 1003.76 1885.4 1003.28C1885.38 1002.8 1885.46 1002.31 1885.63 1001.86C1885.8 1001.4 1886.06 1000.98 1886.4 1000.63C1886.73 1000.28 1887.14 1000 1887.59 999.811C1888.03 999.621 1888.52 999.522 1889 999.523C1894.78 999.774 1900.41 1001.41 1905.42 1004.29C1910.43 1007.17 1914.68 1011.22 1917.8 1016.08C1918.07 1016.48 1918.26 1016.92 1918.36 1017.39C1918.46 1017.85 1918.47 1018.33 1918.38 1018.8C1918.29 1019.27 1918.11 1019.72 1917.84 1020.12C1917.58 1020.52 1917.24 1020.86 1916.84 1021.12C1916.46 1021.39 1916.03 1021.57 1915.58 1021.67C1915.12 1021.76 1914.66 1021.77 1914.2 1021.68Z" fill="#263238"/>
<path d="M1788.2 1019.04C1787.27 1018.97 1786.39 1018.58 1785.72 1017.92C1785.38 1017.58 1785.11 1017.18 1784.93 1016.75C1784.75 1016.31 1784.65 1015.83 1784.65 1015.36C1784.65 1014.88 1784.75 1014.41 1784.93 1013.97C1785.11 1013.53 1785.38 1013.13 1785.72 1012.8C1789.71 1008.61 1794.65 1005.43 1800.12 1003.54C1805.59 1001.64 1811.43 1001.09 1817.16 1001.92C1818.1 1002.13 1818.92 1002.7 1819.44 1003.51C1819.96 1004.31 1820.15 1005.29 1819.96 1006.24C1819.87 1006.71 1819.68 1007.15 1819.41 1007.55C1819.14 1007.95 1818.79 1008.29 1818.39 1008.55C1817.99 1008.81 1817.54 1008.99 1817.06 1009.07C1816.59 1009.15 1816.11 1009.14 1815.64 1009.04C1811.1 1008.46 1806.49 1008.96 1802.18 1010.5C1797.87 1012.05 1793.98 1014.59 1790.84 1017.92C1790.14 1018.63 1789.19 1019.03 1788.2 1019.04Z" fill="#263238"/>
<path d="M1893.16 1051.36L1878.44 1046.56C1878.44 1046.56 1885.56 1058.48 1893.16 1051.36Z" fill="#263238"/>
<path opacity="0.2" d="M2125.8 1408.01C2124.36 1450.72 2125.78 1493.48 2130.04 1536.01C2090.04 1493.77 2039.8 1414.01 2036.52 1374.01L2125.8 1408.01Z" fill="black"/>
<path d="M2387 1257.76L2395.72 1206.96L2474.68 1237.44C2474.68 1237.44 2456.36 1284.72 2422.68 1305.6L2413.32 1299.68C2405.98 1295.22 2399.78 1289.11 2395.21 1281.83C2390.65 1274.55 2387.83 1266.32 2387 1257.76Z" fill="#FFC3BD"/>
<path d="M2445 1178.64L2471 1192.8C2476.68 1195.88 2480.91 1201.08 2482.77 1207.27C2484.63 1213.46 2483.96 1220.14 2480.92 1225.84L2474.76 1237.44L2395.8 1206.96L2414.6 1184.48C2418.23 1180.16 2423.23 1177.23 2428.76 1176.17C2434.3 1175.1 2440.03 1175.98 2445 1178.64Z" fill="#FFC3BD"/>
<path d="M2111.72 1315.76L2121.8 1326.16L2132.76 1337.28C2140.2 1344.56 2147.64 1352 2155.32 1359.04C2170.52 1373.36 2186.2 1386.64 2201.96 1399.04C2216.83 1410.69 2232.61 1421.13 2249.16 1430.24C2261.82 1437.35 2275.58 1442.28 2289.88 1444.8L2268.36 1448.8C2263.08 1451.36 2263.4 1452.48 2264.52 1451.6C2266.68 1450.15 2268.67 1448.46 2270.44 1446.56C2276.3 1440.47 2281.65 1433.91 2286.44 1426.96C2297.32 1411.52 2308.36 1394 2318.44 1375.84C2328.52 1357.68 2339.24 1339.04 2349.56 1319.84L2380.36 1262.88V1262.4C2383.97 1255.61 2389.88 1250.33 2397.03 1247.5C2404.18 1244.66 2412.1 1244.46 2419.38 1246.94C2426.66 1249.41 2432.83 1254.39 2436.77 1260.99C2440.72 1267.59 2442.19 1275.37 2440.92 1282.96C2437.24 1306 2432.2 1327.76 2426.6 1349.92C2421 1372.08 2415 1394 2407 1416C2399.16 1438.68 2389.86 1460.84 2379.16 1482.32C2372.96 1494.41 2365.93 1506.07 2358.12 1517.2C2353.2 1524.07 2347.68 1530.49 2341.64 1536.4C2332.7 1545.32 2322.13 1552.46 2310.52 1557.44C2304.82 1559.87 2298.72 1561.2 2292.52 1561.36H2289C2257.39 1561.54 2226.11 1554.97 2197.24 1542.08C2184.5 1536.63 2172.06 1530.52 2159.96 1523.76C2148.39 1516.93 2137.22 1509.87 2126.44 1502.56C2105.51 1487.9 2085.57 1471.86 2066.76 1454.56C2057.56 1446.08 2048.44 1437.52 2039.72 1428.48C2035.4 1424 2031 1419.52 2026.76 1414.8C2022.52 1410.08 2018.76 1405.76 2013.56 1399.76C2002.06 1387.03 1996.09 1370.25 1996.96 1353.12C1997.83 1335.98 2005.47 1319.9 2018.2 1308.4C2030.93 1296.9 2047.71 1290.93 2064.84 1291.8C2081.98 1292.67 2098.06 1300.31 2109.56 1313.04L2111.72 1315.76Z" fill="#FFC3BD"/>
<path d="M2049.64 1284.96C2108.28 1286.72 2166.6 1356.96 2166.6 1356.96C2166.6 1356.96 2144.04 1450.16 2079.8 1490.32C2043.64 1462.16 2013 1439.6 2013 1439.6C1961.88 1364.64 1978.92 1314.88 2049.64 1284.96Z" fill="#263238"/>
<path d="M1797.88 1797.13C1802.2 1822.17 1807.4 1841.85 1809.08 1847.85C1809.24 1848.48 1809.53 1849.08 1809.93 1849.6C1810.33 1850.13 1810.83 1850.56 1811.4 1850.89C1819.96 1855.61 1859 1874.89 1930.68 1870.65C2010.68 1866.33 2128.04 1822.65 2188.92 1776.17C2189.81 1775.48 2190.44 1774.52 2190.73 1773.44C2191.02 1772.35 2190.95 1771.2 2190.52 1770.17C2185.82 1759.74 2180.33 1749.69 2174.12 1740.09C2173.51 1739.17 2172.62 1738.46 2171.58 1738.09C2170.55 1737.72 2169.41 1737.69 2168.36 1738.01C2142.12 1746.01 1976.92 1793.29 1802.92 1791.21C1802.18 1791.21 1801.45 1791.37 1800.78 1791.68C1800.11 1791.99 1799.52 1792.44 1799.04 1793.01C1798.56 1793.57 1798.21 1794.23 1798.01 1794.94C1797.81 1795.65 1797.76 1796.4 1797.88 1797.13Z" fill="#90CAF9"/>
<path opacity="0.3" d="M1797.88 1797.13C1802.2 1822.17 1807.4 1841.85 1809.08 1847.85C1809.24 1848.48 1809.53 1849.08 1809.93 1849.6C1810.33 1850.13 1810.83 1850.56 1811.4 1850.89C1819.96 1855.61 1859 1874.89 1930.68 1870.65C2010.68 1866.33 2128.04 1822.65 2188.92 1776.17C2189.81 1775.48 2190.44 1774.52 2190.73 1773.44C2191.02 1772.35 2190.95 1771.2 2190.52 1770.17C2185.82 1759.74 2180.33 1749.69 2174.12 1740.09C2173.51 1739.17 2172.62 1738.46 2171.58 1738.09C2170.55 1737.72 2169.41 1737.69 2168.36 1738.01C2142.12 1746.01 1976.92 1793.29 1802.92 1791.21C1802.18 1791.21 1801.45 1791.37 1800.78 1791.68C1800.11 1791.99 1799.52 1792.44 1799.04 1793.01C1798.56 1793.57 1798.21 1794.23 1798.01 1794.94C1797.81 1795.65 1797.76 1796.4 1797.88 1797.13Z" fill="white"/>
<path d="M3401.16 3091.28H2347.88C2328.4 3091.46 2309.09 3087.61 2291.17 3079.96C2273.25 3072.32 2257.11 3061.05 2243.75 3046.86C2230.4 3032.68 2220.13 3015.88 2213.58 2997.53C2207.04 2979.18 2204.36 2959.68 2205.72 2940.24L2333.72 751.037C2336.64 710.402 2354.69 672.341 2384.32 644.375C2413.94 616.409 2452.98 600.573 2493.72 599.997H3547.24C3566.72 599.817 3586.03 603.671 3603.95 611.315C3621.87 618.959 3638.01 630.229 3651.36 644.416C3664.71 658.602 3674.99 675.399 3681.53 693.748C3688.08 712.097 3690.76 731.603 3689.4 751.037L3561 2940.24C3558.08 2980.85 3540.05 3018.89 3510.45 3046.85C3480.86 3074.81 3441.87 3090.66 3401.16 3091.28Z" fill="#90CAF9"/>
<path opacity="0.8" d="M3401.16 3091.28H2347.88C2328.4 3091.46 2309.09 3087.61 2291.17 3079.96C2273.25 3072.32 2257.11 3061.05 2243.75 3046.86C2230.4 3032.68 2220.13 3015.88 2213.58 2997.53C2207.04 2979.18 2204.36 2959.68 2205.72 2940.24L2333.72 751.037C2336.64 710.402 2354.69 672.341 2384.32 644.375C2413.94 616.409 2452.98 600.573 2493.72 599.997H3547.24C3566.72 599.817 3586.03 603.671 3603.95 611.315C3621.87 618.959 3638.01 630.229 3651.36 644.416C3664.71 658.602 3674.99 675.399 3681.53 693.748C3688.08 712.097 3690.76 731.603 3689.4 751.037L3561 2940.24C3558.08 2980.85 3540.05 3018.89 3510.45 3046.85C3480.86 3074.81 3441.87 3090.66 3401.16 3091.28Z" fill="white"/>
<path d="M3394.92 3047.45H2370.92C2357.23 3047.58 2343.67 3044.88 2331.07 3039.51C2318.48 3034.14 2307.13 3026.23 2297.75 3016.27C2288.36 3006.3 2281.14 2994.51 2276.54 2981.61C2271.94 2968.72 2270.05 2955.02 2271 2941.37L2399 761.683C2401.05 733.202 2413.68 706.518 2434.4 686.874C2455.13 667.231 2482.45 656.048 2511 655.522H3535C3548.69 655.401 3562.26 658.113 3574.85 663.488C3587.44 668.863 3598.79 676.784 3608.17 686.754C3617.56 696.724 3624.78 708.527 3629.38 721.422C3633.98 734.317 3635.87 748.024 3634.92 761.683L3506.92 2941.37C3504.87 2969.84 3492.23 2996.51 3471.51 3016.14C3450.78 3035.77 3423.46 3046.94 3394.92 3047.45Z" fill="#90CAF9"/>
<path d="M3383.88 3035.77H2359.88C2346.19 3035.89 2332.62 3033.18 2320.03 3027.8C2307.43 3022.43 2296.09 3014.51 2286.71 3004.54C2277.32 2994.57 2270.1 2982.76 2265.5 2969.87C2260.9 2956.97 2259.01 2943.27 2259.96 2929.61L2387.96 749.925C2390.01 721.444 2402.64 694.76 2423.36 675.117C2444.09 655.473 2471.41 644.29 2499.96 643.765H3523.96C3537.65 643.643 3551.22 646.355 3563.81 651.73C3576.4 657.105 3587.75 665.026 3597.13 674.996C3606.52 684.966 3613.74 696.769 3618.34 709.664C3622.94 722.559 3624.83 736.266 3623.88 749.925L3495.88 2929.61C3493.83 2958.09 3481.2 2984.77 3460.47 3004.42C3439.75 3024.06 3412.43 3035.24 3383.88 3035.77Z" fill="white"/>
<path opacity="0.1" d="M3353.96 2954.72H2399C2390.54 2954.8 2382.15 2953.12 2374.37 2949.8C2366.59 2946.48 2359.58 2941.59 2353.78 2935.43C2347.98 2929.27 2343.51 2921.97 2340.67 2914C2337.82 2906.03 2336.65 2897.56 2337.24 2889.12L2391 1979.92C2392.26 1962.28 2400.09 1945.75 2412.95 1933.6C2425.81 1921.46 2442.75 1914.58 2460.44 1914.32H3415C3423.46 1914.25 3431.85 1915.92 3439.63 1919.24C3447.41 1922.56 3454.42 1927.46 3460.22 1933.62C3466.02 1939.78 3470.49 1947.07 3473.33 1955.04C3476.18 1963.01 3477.34 1971.48 3476.76 1979.92L3423.4 2889.12C3422.14 2906.77 3414.31 2923.29 3401.45 2935.44C3388.59 2947.59 3371.65 2954.47 3353.96 2954.72Z" fill="#90CAF9"/>
<path opacity="0.1" d="M3141.88 805.444H2863.56C2860.54 805.474 2857.54 804.877 2854.76 803.691C2851.97 802.506 2849.47 800.757 2847.39 798.555C2845.32 796.354 2843.72 793.747 2842.71 790.898C2841.69 788.05 2841.27 785.022 2841.48 782.004C2841.92 775.678 2844.73 769.748 2849.33 765.391C2853.94 761.035 2860.02 758.569 2866.36 758.484H3144.6C3147.66 758.409 3150.7 758.975 3153.53 760.145C3156.35 761.316 3158.9 763.065 3161.01 765.28C3163.12 767.496 3164.75 770.128 3165.78 773.009C3166.81 775.889 3167.23 778.953 3167 782.004C3166.56 788.364 3163.72 794.319 3159.06 798.669C3154.39 803.018 3148.26 805.44 3141.88 805.444Z" fill="#90CAF9"/>
<path opacity="0.1" d="M3252.6 1682.95C3423.99 1516.52 3435.69 1250.58 3278.74 1088.96C3121.79 927.336 2855.62 931.235 2684.24 1097.67C2512.85 1264.1 2501.15 1530.04 2658.1 1691.66C2815.05 1853.28 3081.22 1849.38 3252.6 1682.95Z" fill="#90CAF9"/>
<path d="M2674.2 1668.57C2639.18 1631.28 2612.25 1587.17 2595.08 1538.99C2577.91 1490.8 2570.89 1439.59 2574.44 1388.57H2582.44C2578.98 1438.5 2585.86 1488.6 2602.65 1535.75C2619.44 1582.9 2645.79 1626.07 2680.04 1662.57L2674.2 1668.57Z" fill="#90CAF9"/>
<path d="M3362.36 1392L3354.36 1391.52C3356.55 1356.28 3353.85 1320.91 3346.36 1286.4L3354.36 1284.64C3362.01 1319.88 3364.7 1356.02 3362.36 1392Z" fill="#90CAF9"/>
<path d="M3323.16 1216.8C3303.58 1173.36 3275.57 1134.24 3240.76 1101.71C3205.95 1069.17 3165.02 1043.87 3120.36 1027.28L3123.16 1019.76C3168.84 1036.7 3210.7 1062.56 3246.29 1095.84C3281.87 1129.12 3310.48 1169.15 3330.44 1213.6L3323.16 1216.8Z" fill="#90CAF9"/>
<path d="M3216.04 1645.3C3365.4 1500.26 3375.61 1268.52 3238.85 1127.69C3102.09 986.865 2870.15 990.278 2720.8 1135.32C2571.44 1280.35 2561.23 1512.1 2697.99 1652.92C2834.75 1793.75 3066.69 1790.34 3216.04 1645.3Z" fill="#90CAF9"/>
<path d="M2927.72 1440C2945.32 1436.08 2953.56 1421.04 2957.32 1403.92C2957.72 1402.08 2958.04 1400.32 2958.36 1398.56V1396.96C2959.32 1389.82 2959.86 1382.64 2959.96 1375.44C2942.92 1373.75 2927.1 1365.86 2915.51 1353.26C2903.91 1340.66 2897.35 1324.24 2897.08 1307.12C2896.2 1273.17 2903.73 1239.53 2919 1209.2C2915.07 1209.71 2911.34 1211.26 2908.2 1213.68C2907.9 1213.91 2907.55 1214.07 2907.18 1214.15C2906.8 1214.24 2906.42 1214.24 2906.04 1214.16C2905.35 1214.04 2904.72 1213.67 2904.28 1213.12C2903.86 1212.52 2903.68 1211.77 2903.78 1211.05C2903.89 1210.32 2904.27 1209.66 2904.84 1209.2C2909.82 1205.44 2915.89 1203.41 2922.12 1203.44C2923.32 1201.52 2924.44 1199.52 2925.64 1197.68C2920.52 1197.68 2915.56 1197.68 2910.76 1197.68C2916.04 1160.72 2987.16 1129.68 3035.64 1157.68C3057.24 1162 3092.92 1192.88 3092.92 1192.88C3093.64 1212.55 3093.08 1232.24 3091.24 1251.84C3088.04 1285.28 3080.12 1324.56 3060.84 1346.48C3065.64 1335.26 3067.4 1322.99 3065.96 1310.88C3061.34 1315.45 3055.6 1318.73 3049.32 1320.4C3047.04 1325.3 3044.37 1330.01 3041.32 1334.48C3033.8 1368.8 3028.44 1414.48 3039.88 1440.8C3050.2 1441.44 3060.2 1442.4 3069.72 1443.44L3072.04 1443.84C3078.32 1440.15 3084.36 1436.06 3090.12 1431.6C3162.12 1375.6 3085.72 1309.84 3103.72 1249.6C3121.72 1189.36 3106.52 1166.48 3057.32 1164.56C3077.72 1132 2948.12 1080 2891.16 1181.04C2839.56 1272.64 2822.92 1318.4 2841.48 1390C2848.46 1413.4 2864.27 1433.17 2885.56 1445.12C2889.19 1444.13 2892.88 1443.38 2896.6 1442.88C2906.76 1441.92 2917.32 1440.8 2927.72 1440Z" fill="#263238"/>
<path d="M2815.8 1580.81C2812.86 1575.61 2810.19 1570.27 2807.8 1564.81C2802.36 1580.81 2797 1596.81 2791.8 1612.81C2786.84 1627.21 2782.12 1641.61 2777.16 1655.37L2769.72 1674.81L2766.52 1682.81C2765.4 1684.97 2766.52 1683.69 2766.52 1684.33C2763.11 1688.3 2759.33 1691.94 2755.24 1695.21C2754.36 1696.09 2753.24 1696.89 2752.28 1697.69C2774.41 1712.62 2798.23 1724.89 2823.24 1734.25C2823.8 1697.69 2828.28 1659.69 2833.08 1649.53C2804.28 1629.53 2808.6 1608.01 2815.8 1580.81Z" fill="#FFC3BD"/>
<path d="M2843.8 1472.88L2841.8 1475.68C2842.44 1474.72 2843.16 1473.84 2843.88 1472.96L2843.8 1472.88Z" fill="#263238"/>
<path d="M2825.32 1526.48C2825.2 1508.87 2830.54 1491.65 2840.6 1477.2C2825.26 1501.33 2812.65 1527.09 2803 1554C2803 1554 2804.44 1558.24 2807.48 1564.88C2809.87 1570.34 2812.54 1575.69 2815.48 1580.88C2821.19 1563.27 2824.5 1544.97 2825.32 1526.48Z" fill="#263238"/>
<path d="M3104.2 1642.56C3094.72 1628.63 3086.29 1614 3079 1598.8C3076.6 1600.08 3074.12 1601.36 3071.56 1602.48C3047.56 1577.12 3027.08 1556.64 3027.08 1556.64C2997.16 1494.24 3015.64 1458.72 3072.36 1444.24C3081.16 1446.05 3089.56 1449.44 3097.16 1454.24C3089.68 1448.98 3081.08 1445.53 3072.04 1444.16L3069.72 1443.76C3060.2 1442.72 3050.2 1441.76 3039.88 1441.12C3042.12 1446.96 2990.76 1521.12 2958.52 1532.88C2945.32 1499.6 2908.28 1497.36 2908.28 1497.36C2908.28 1497.36 2873.72 1490.24 2863 1512C2870.04 1467.04 2913.32 1443.36 2927.72 1440C2917.32 1440.88 2906.76 1442 2896.6 1443.28C2892.88 1443.78 2889.19 1444.53 2885.56 1445.52C2869.1 1450.04 2854.5 1459.68 2843.88 1473.04C2843.16 1473.92 2842.44 1474.8 2841.8 1475.76L2840.6 1477.28C2830.54 1491.74 2825.2 1508.95 2825.32 1526.56C2824.59 1545.01 2821.39 1563.28 2815.8 1580.88C2808.6 1607.76 2804.28 1629.6 2832.52 1649.6C2827.72 1659.76 2823.24 1697.6 2822.68 1734.32C2862.44 1749.06 2904.52 1756.54 2946.92 1756.4C3001.21 1756.32 3054.85 1744.56 3104.2 1721.92C3102.83 1692.14 3103.07 1662.31 3104.92 1632.56C3104.68 1635.76 3104.36 1639.28 3104.2 1642.56Z" fill="#263238"/>
<path d="M2908.28 1497.37C2908.28 1497.37 2945.32 1499.61 2958.52 1532.89C2990.52 1520.73 3042.12 1446.97 3039.88 1441.12C3039.88 1441.12 2967 1476.49 2908.28 1497.37Z" fill="white"/>
<path d="M2927.88 1440C2913.48 1443.44 2870.2 1467.12 2863.16 1512C2873.88 1490.24 2908.44 1497.36 2908.44 1497.36C2897.24 1455.28 2927.88 1440 2927.88 1440Z" fill="white"/>
<path d="M3041.32 1334.81C3034.37 1344.89 3025.57 1353.58 3015.4 1360.41C3011.12 1363.48 3006.57 1366.16 3001.8 1368.41C2991.32 1385.23 2975.69 1398.22 2957.24 1405.45V1404.09C2953.48 1421.21 2945.24 1436.09 2927.64 1440.17C2927.64 1440.17 2897 1455.53 2908.04 1497.61C2966.84 1476.73 3039.64 1441.61 3039.64 1441.61C3028.44 1414.89 3033.8 1369.13 3041.32 1334.81Z" fill="#FFC3BD"/>
<path d="M2957.48 1403.84C2957.88 1402 2958.2 1400.24 2958.52 1398.48C2958.2 1400 2957.88 1402 2957.48 1403.84Z" fill="#263238"/>
<path opacity="0.2" d="M2957.48 1403.84C2957.88 1402 2958.2 1400.24 2958.52 1398.48C2958.2 1400 2957.88 1402 2957.48 1403.84Z" fill="black"/>
<path d="M2960.36 1375.36C2960.25 1382.56 2959.72 1389.75 2958.76 1396.88C2959.75 1389.75 2960.29 1382.56 2960.36 1375.36Z" fill="#263238"/>
<path opacity="0.2" d="M2960.36 1375.36C2960.25 1382.56 2959.72 1389.75 2958.76 1396.88C2959.75 1389.75 2960.29 1382.56 2960.36 1375.36Z" fill="black"/>
<path d="M3001.8 1368C2988.91 1374.17 2974.57 1376.66 2960.36 1375.2C2960.29 1382.4 2959.75 1389.59 2958.76 1396.72V1398.32C2958.76 1400.08 2958.12 1401.84 2957.72 1403.68V1405.04C2975.99 1397.72 2991.44 1384.74 3001.8 1368Z" fill="#FFC3BD"/>
<path opacity="0.2" d="M3001.8 1368C2988.91 1374.17 2974.57 1376.66 2960.36 1375.2C2960.29 1382.4 2959.75 1389.59 2958.76 1396.72V1398.32C2958.76 1400.08 2958.12 1401.84 2957.72 1403.68V1405.04C2975.99 1397.72 2991.44 1384.74 3001.8 1368Z" fill="black"/>
<path d="M3001.8 1368C3006.57 1365.76 3011.12 1363.08 3015.4 1360C3025.57 1353.17 3034.37 1344.49 3041.32 1334.4C3044.37 1329.93 3047.04 1325.22 3049.32 1320.32C3047.8 1320.32 3046.28 1321.12 3044.84 1321.28C3031.48 1322.48 3027.72 1307.44 3033.8 1294C3035.86 1289.46 3038.55 1285.23 3041.8 1281.44C3038.31 1270.02 3039.17 1257.71 3044.2 1246.88C3032.04 1221.92 3019.16 1198.88 3017.96 1182.16C2988.03 1191.41 2956.96 1196.5 2925.64 1197.28C2924.44 1199.12 2923.32 1201.12 2922.12 1203.04C2924.83 1203.03 2927.53 1203.43 2930.12 1204.24C2930.46 1204.36 2930.77 1204.55 2931.03 1204.8C2931.3 1205.04 2931.51 1205.34 2931.66 1205.67C2931.8 1205.99 2931.89 1206.35 2931.9 1206.71C2931.91 1207.07 2931.85 1207.42 2931.72 1207.76C2931.47 1208.44 2930.96 1209 2930.3 1209.31C2929.65 1209.63 2928.89 1209.67 2928.2 1209.44C2925.33 1208.57 2922.29 1208.35 2919.32 1208.8C2904.26 1239.16 2896.92 1272.77 2897.96 1306.64C2898.23 1323.76 2904.79 1340.18 2916.38 1352.78C2927.98 1365.38 2943.8 1373.27 2960.84 1374.96C2974.87 1376.41 2989.04 1374 3001.8 1368ZM2983.96 1210.88C2988.32 1211.74 2992.4 1213.64 2995.86 1216.43C2999.32 1219.22 3002.04 1222.8 3003.8 1226.88C3004.11 1227.55 3004.15 1228.32 3003.91 1229.02C3003.68 1229.72 3003.18 1230.3 3002.52 1230.64C3001.86 1230.92 3001.11 1230.92 3000.44 1230.64C3000.08 1230.54 2999.75 1230.36 2999.47 1230.11C2999.19 1229.86 2998.98 1229.55 2998.84 1229.2C2997.39 1225.97 2995.17 1223.14 2992.39 1220.95C2989.6 1218.76 2986.33 1217.28 2982.84 1216.64C2982.12 1216.52 2981.47 1216.13 2981.03 1215.55C2980.58 1214.97 2980.37 1214.25 2980.44 1213.52C2980.47 1213.11 2980.6 1212.71 2980.8 1212.36C2981 1212 2981.28 1211.69 2981.62 1211.45C2981.96 1211.22 2982.34 1211.06 2982.74 1210.99C2983.15 1210.91 2983.56 1210.93 2983.96 1211.04V1210.88ZM2981.16 1250.4C2982.5 1251.4 2983.48 1252.8 2983.99 1254.39C2984.49 1255.98 2984.48 1257.69 2983.96 1259.28C2983.08 1263.92 2979.88 1267.28 2976.84 1266.56C2973.8 1265.84 2972.04 1261.76 2972.92 1257.12C2973.36 1254.77 2974.57 1252.63 2976.36 1251.04C2973.87 1249.72 2971.92 1247.57 2970.84 1244.96L2981.16 1250.4ZM2915.56 1247.04C2915.99 1244.73 2917.17 1242.62 2918.92 1241.04C2916.47 1239.65 2914.55 1237.48 2913.48 1234.88L2923.96 1240.24C2925.25 1241.28 2926.21 1242.68 2926.7 1244.26C2927.2 1245.84 2927.22 1247.53 2926.76 1249.12C2925.8 1253.76 2922.68 1257.12 2919.64 1256.48C2916.6 1255.84 2914.68 1251.84 2915.56 1247.2V1247.04ZM2934.12 1285.92C2931.16 1286.1 2928.19 1285.62 2925.42 1284.53C2922.66 1283.44 2920.17 1281.75 2918.12 1279.6C2926.69 1271.84 2934.17 1262.96 2940.36 1253.2L2934.12 1285.92ZM2949.56 1307.36C2949.21 1307.27 2948.9 1307.04 2948.71 1306.73C2948.51 1306.41 2948.45 1306.04 2948.52 1305.68C2948.6 1305.33 2948.81 1305.03 2949.11 1304.83C2949.41 1304.64 2949.77 1304.57 2950.12 1304.64C2955.9 1305.88 2961.88 1305.75 2967.59 1304.25C2973.31 1302.75 2978.59 1299.92 2983 1296C2983.13 1295.87 2983.28 1295.76 2983.45 1295.69C2983.61 1295.62 2983.79 1295.58 2983.97 1295.57C2984.16 1295.57 2984.34 1295.6 2984.51 1295.67C2984.68 1295.73 2984.83 1295.83 2984.96 1295.96C2985.09 1296.09 2985.2 1296.24 2985.27 1296.4C2985.34 1296.57 2985.38 1296.75 2985.39 1296.93C2985.39 1297.11 2985.36 1297.29 2985.29 1297.46C2985.23 1297.63 2985.13 1297.79 2985 1297.92C2977.56 1304.77 2967.75 1308.44 2957.64 1308.16C2954.94 1308.14 2952.24 1307.92 2949.56 1307.52V1307.36Z" fill="#FFC3BD"/>
<path d="M3055 1272C3051.64 1264 3047.8 1255.44 3043.88 1247.44C3038.84 1258.27 3037.99 1270.58 3041.48 1282C3045.03 1277.54 3049.69 1274.09 3055 1272Z" fill="#263238"/>
<path d="M2976.2 1251.29C2974.41 1252.88 2973.2 1255.01 2972.76 1257.37C2971.88 1262.01 2973.64 1266.25 2976.68 1266.81C2979.72 1267.37 2982.92 1264.17 2983.8 1259.53C2984.32 1257.94 2984.33 1256.23 2983.82 1254.64C2983.32 1253.04 2982.33 1251.65 2981 1250.65C2980.32 1251.16 2979.53 1251.49 2978.68 1251.6C2977.84 1251.72 2976.99 1251.61 2976.2 1251.29Z" fill="#263238"/>
<path d="M2927 1249.36C2927.46 1247.77 2927.44 1246.08 2926.95 1244.5C2926.45 1242.92 2925.49 1241.52 2924.2 1240.48C2923.51 1240.99 2922.7 1241.32 2921.85 1241.45C2921 1241.57 2920.13 1241.49 2919.32 1241.2C2917.57 1242.78 2916.39 1244.89 2915.96 1247.2C2915.08 1251.84 2916.84 1256.08 2919.88 1256.72C2922.92 1257.36 2925.64 1254 2927 1249.36Z" fill="#263238"/>
<path d="M2923.8 1240.48L2913.32 1235.12C2914.39 1237.72 2916.31 1239.89 2918.76 1241.28C2919.6 1241.58 2920.5 1241.67 2921.38 1241.53C2922.26 1241.39 2923.09 1241.03 2923.8 1240.48Z" fill="#263238"/>
<path d="M2918.2 1280.01C2920.25 1282.16 2922.74 1283.84 2925.5 1284.93C2928.27 1286.03 2931.23 1286.5 2934.2 1286.33L2940.52 1253.61C2934.3 1263.37 2926.8 1272.25 2918.2 1280.01Z" fill="#ED847E"/>
<path d="M2984.84 1296C2984.57 1295.74 2984.21 1295.6 2983.84 1295.6C2983.47 1295.6 2983.11 1295.74 2982.84 1296C2978.44 1299.9 2973.19 1302.71 2967.51 1304.21C2961.82 1305.71 2955.87 1305.86 2950.12 1304.64C2949.77 1304.57 2949.4 1304.64 2949.11 1304.83C2948.81 1305.03 2948.6 1305.33 2948.52 1305.68C2948.44 1306.04 2948.51 1306.42 2948.7 1306.73C2948.9 1307.04 2949.2 1307.27 2949.56 1307.36C2952.2 1307.81 2954.88 1308.08 2957.56 1308.16C2967.66 1308.44 2977.48 1304.77 2984.92 1297.92C2985.14 1297.65 2985.26 1297.3 2985.25 1296.95C2985.23 1296.59 2985.09 1296.26 2984.84 1296Z" fill="#263238"/>
<path d="M3055 1272C3049.69 1274.09 3045.03 1277.54 3041.48 1282C3038.23 1285.79 3035.54 1290.02 3033.48 1294.56C3027.4 1308 3031.16 1323.04 3044.52 1321.84C3045.96 1321.84 3047.48 1321.2 3049 1320.88C3055.28 1319.22 3061.02 1315.93 3065.64 1311.36C3063.97 1297.81 3060.39 1284.56 3055 1272Z" fill="#FFC3BD"/>
<path d="M3019.48 1170.56C3019.96 1159.04 3026.52 1156.24 3035.48 1158C2987 1129.68 2915.88 1160.72 2910.6 1198C2915.4 1198 2920.36 1198 2925.48 1198C2956.8 1197.22 2987.86 1192.13 3017.8 1182.88C3017.33 1178.69 3017.91 1174.46 3019.48 1170.56Z" fill="#263238"/>
<path d="M3019.48 1170.56C3017.96 1174.37 3017.39 1178.49 3017.8 1182.56C3019 1199.52 3031.88 1222.56 3044.04 1247.28C3047.96 1255.28 3052.04 1263.28 3055.16 1271.84C3060.54 1284.4 3064.12 1297.65 3065.8 1311.2C3067.24 1323.31 3065.47 1335.59 3060.68 1346.8C3079.96 1324.88 3087.88 1285.6 3091.08 1252.16C3092.91 1232.57 3093.47 1212.87 3092.76 1193.2C3092.76 1193.2 3057.08 1162.32 3035.48 1158C3026.52 1156.24 3019.96 1159.04 3019.48 1170.56Z" fill="#263238"/>
<path d="M2983 1216.56C2986.48 1217.21 2989.76 1218.69 2992.54 1220.88C2995.33 1223.06 2997.54 1225.89 2999 1229.12C2999.13 1229.47 2999.35 1229.78 2999.63 1230.03C2999.91 1230.28 3000.24 1230.47 3000.6 1230.56C3001.26 1230.84 3002.01 1230.84 3002.68 1230.56C3003.33 1230.22 3003.83 1229.64 3004.07 1228.94C3004.31 1228.24 3004.27 1227.48 3003.96 1226.8C3002.2 1222.73 2999.47 1219.14 2996.02 1216.35C2992.56 1213.57 2988.48 1211.66 2984.12 1210.8C2983.39 1210.71 2982.65 1210.91 2982.07 1211.36C2981.48 1211.81 2981.1 1212.47 2981 1213.2C2980.85 1213.91 2980.97 1214.65 2981.34 1215.28C2981.71 1215.9 2982.3 1216.36 2983 1216.56Z" fill="#263238"/>
<path d="M2927.72 1209.84C2928.41 1210.07 2929.16 1210.03 2929.82 1209.71C2930.48 1209.4 2930.99 1208.84 2931.24 1208.16C2931.37 1207.82 2931.43 1207.47 2931.42 1207.11C2931.4 1206.75 2931.32 1206.39 2931.17 1206.07C2931.02 1205.74 2930.81 1205.44 2930.55 1205.2C2930.29 1204.95 2929.98 1204.76 2929.64 1204.64C2927.05 1203.83 2924.35 1203.43 2921.64 1203.44C2915.4 1203.42 2909.33 1205.44 2904.36 1209.2C2903.78 1209.66 2903.4 1210.32 2903.3 1211.05C2903.19 1211.78 2903.37 1212.52 2903.8 1213.12C2904.24 1213.67 2904.87 1214.04 2905.56 1214.16C2905.93 1214.24 2906.32 1214.24 2906.69 1214.16C2907.06 1214.07 2907.42 1213.91 2907.72 1213.68C2910.86 1211.26 2914.59 1209.71 2918.52 1209.2C2921.59 1208.7 2924.74 1208.92 2927.72 1209.84Z" fill="#263238"/>
<path d="M2976.2 1251.28C2976.99 1251.61 2977.84 1251.71 2978.69 1251.6C2979.53 1251.49 2980.33 1251.16 2981 1250.64L2970.52 1245.28C2971.65 1247.89 2973.66 1250.01 2976.2 1251.28Z" fill="#263238"/>
<path d="M3104.2 1642.56C3104.2 1639.28 3104.68 1635.76 3104.84 1632.4C3100.36 1625.28 3095.8 1618.08 3091.08 1610.96L3081.88 1597.28L3079 1598.8C3086.3 1613.99 3094.72 1628.62 3104.2 1642.56Z" fill="#263238"/>
<path opacity="0.2" d="M3104.2 1642.56C3104.2 1639.28 3104.68 1635.76 3104.84 1632.4C3100.36 1625.28 3095.8 1618.08 3091.08 1610.96L3081.88 1597.28L3079 1598.8C3086.3 1613.99 3094.72 1628.62 3104.2 1642.56Z" fill="black"/>
<path d="M3127.96 1708.8V1710.08C3159.87 1692.84 3189.26 1671.3 3215.32 1646.08C3210.95 1633.17 3205.82 1620.54 3199.96 1608.24C3192.2 1591.51 3183.58 1575.19 3174.12 1559.36C3166.12 1545.6 3157.64 1532.48 3148.92 1519.36C3140.92 1536.08 3118.2 1576.32 3082.12 1597.04L3091.32 1610.72C3096.04 1617.84 3100.6 1625.04 3105.08 1632.16C3109 1638.4 3113.08 1644.72 3116.36 1650.96C3122.52 1661.76 3128.28 1672.64 3132.36 1682.96L3131.56 1688.4C3130.6 1695.04 3129.4 1701.84 3127.96 1708.8Z" fill="#FFC3BD"/>
<path d="M3027.08 1556.64C3027.08 1556.64 3047.56 1577.12 3071.56 1602.48C3074.12 1601.36 3076.6 1600.08 3079 1598.8L3081.88 1597.28C3117.96 1576.56 3140.52 1536.32 3148.68 1519.6C3151 1514.88 3152.2 1512 3152.2 1512C3152.2 1512 3129 1473.6 3097.16 1454.24C3089.56 1449.44 3081.16 1446.05 3072.36 1444.24C3015.64 1458.72 2997.16 1494.24 3027.08 1556.64Z" fill="#263238"/>
<path d="M3410.68 754.159H3523.4C3526.48 754.107 3529.43 752.903 3531.66 750.786C3533.9 748.669 3535.26 745.791 3535.48 742.719C3535.58 741.256 3535.38 739.787 3534.88 738.407C3534.39 737.026 3533.61 735.763 3532.6 734.696C3531.6 733.629 3530.38 732.782 3529.03 732.208C3527.68 731.634 3526.23 731.345 3524.76 731.359H3411.96C3408.9 731.409 3405.96 732.602 3403.72 734.702C3401.49 736.803 3400.12 739.662 3399.88 742.719C3399.77 744.196 3399.97 745.679 3400.46 747.075C3400.96 748.471 3401.74 749.748 3402.75 750.825C3403.77 751.902 3405 752.754 3406.37 753.328C3407.73 753.903 3409.2 754.185 3410.68 754.159Z" fill="#90CAF9"/>
<path d="M3408.36 793.438H3521.08C3524.16 793.386 3527.11 792.183 3529.34 790.065C3531.58 787.948 3532.94 785.07 3533.16 781.998C3533.27 780.528 3533.08 779.052 3532.59 777.661C3532.1 776.271 3531.32 774.998 3530.32 773.922C3529.31 772.847 3528.09 771.992 3526.73 771.413C3525.38 770.834 3523.91 770.543 3522.44 770.558H3409.72C3406.63 770.59 3403.66 771.785 3401.41 773.904C3399.15 776.024 3397.78 778.913 3397.56 781.998C3397.47 783.469 3397.69 784.943 3398.19 786.328C3398.7 787.713 3399.48 788.981 3400.49 790.052C3401.5 791.124 3402.72 791.977 3404.07 792.559C3405.43 793.142 3406.89 793.441 3408.36 793.438Z" fill="#90CAF9"/>
<path d="M2496.44 793.438H2609.16C2612.25 793.388 2615.21 792.187 2617.45 790.071C2619.7 787.955 2621.08 785.077 2621.32 781.998C2621.42 780.524 2621.21 779.046 2620.71 777.655C2620.22 776.265 2619.43 774.993 2618.42 773.919C2617.41 772.844 2616.18 771.991 2614.82 771.413C2613.46 770.835 2612 770.544 2610.52 770.558H2497.8C2494.72 770.592 2491.76 771.789 2489.52 773.91C2487.28 776.031 2485.92 778.92 2485.72 781.998C2485.62 783.465 2485.83 784.937 2486.32 786.322C2486.81 787.707 2487.59 788.975 2488.59 790.048C2489.6 791.121 2490.81 791.976 2492.16 792.559C2493.51 793.142 2494.97 793.441 2496.44 793.438Z" fill="#90CAF9"/>
<path d="M3406.04 832.637H3519C3522.09 832.605 3525.06 831.41 3527.32 829.291C3529.57 827.171 3530.94 824.282 3531.16 821.197C3531.25 819.726 3531.03 818.252 3530.53 816.867C3530.03 815.482 3529.25 814.215 3528.23 813.143C3527.22 812.071 3526 811.218 3524.65 810.636C3523.29 810.053 3521.84 809.754 3520.36 809.757H3407.4C3404.31 809.807 3401.36 811.008 3399.11 813.124C3396.86 815.24 3395.48 818.118 3395.24 821.197C3395.14 822.671 3395.35 824.149 3395.85 825.54C3396.35 826.93 3397.13 828.202 3398.14 829.276C3399.16 830.351 3400.38 831.204 3401.74 831.782C3403.1 832.36 3404.56 832.651 3406.04 832.637Z" fill="#90CAF9"/>
<path d="M3257.88 2267.93H2575.96C2563.22 2268.04 2550.6 2265.53 2538.89 2260.53C2527.17 2255.54 2516.62 2248.17 2507.88 2238.9C2499.15 2229.63 2492.44 2218.65 2488.15 2206.66C2483.87 2194.66 2482.12 2181.91 2483 2169.21C2484.92 2142.65 2496.72 2117.78 2516.08 2099.51C2535.43 2081.23 2560.94 2070.88 2587.56 2070.49H3269.48C3282.21 2070.37 3294.84 2072.88 3306.55 2077.88C3318.27 2082.87 3328.82 2090.24 3337.55 2099.51C3346.28 2108.78 3353 2119.76 3357.28 2131.76C3361.57 2143.75 3363.32 2156.5 3362.44 2169.21C3360.52 2195.76 3348.72 2220.63 3329.36 2238.9C3310 2257.18 3284.5 2267.53 3257.88 2267.93Z" fill="white"/>
<path d="M3242.36 2533.28H2560.36C2547.63 2533.38 2535.01 2530.84 2523.3 2525.84C2511.59 2520.83 2501.04 2513.45 2492.31 2504.18C2483.58 2494.9 2476.87 2483.92 2472.58 2471.93C2468.29 2459.94 2466.53 2447.19 2467.4 2434.48C2469.38 2407.97 2481.21 2383.16 2500.56 2364.94C2519.91 2346.71 2545.38 2336.39 2571.96 2336H3253.96C3266.7 2335.88 3279.32 2338.4 3291.03 2343.4C3302.75 2348.39 3313.3 2355.76 3322.04 2365.03C3330.77 2374.3 3337.49 2385.28 3341.77 2397.27C3346.05 2409.27 3347.81 2422.02 3346.92 2434.72C3344.95 2461.24 3333.12 2486.06 3313.77 2504.3C3294.42 2522.54 3268.95 2532.88 3242.36 2533.28Z" fill="white"/>
<path d="M3226.76 2798.56H2544.84C2532.11 2798.68 2519.48 2796.16 2507.77 2791.17C2496.05 2786.17 2485.5 2778.81 2476.77 2769.54C2468.04 2760.26 2461.32 2749.29 2457.03 2737.29C2452.75 2725.3 2451 2712.55 2451.88 2699.84C2453.8 2673.28 2465.6 2648.4 2484.95 2630.11C2504.31 2611.83 2529.81 2601.45 2556.44 2601.04H3238.36C3251.1 2600.93 3263.72 2603.46 3275.44 2608.47C3287.15 2613.47 3297.71 2620.84 3306.44 2630.12C3315.17 2639.4 3321.88 2650.38 3326.17 2662.38C3330.45 2674.38 3332.2 2687.13 3331.32 2699.84C3329.4 2726.39 3317.6 2751.26 3298.24 2769.54C3278.88 2787.82 3253.38 2798.17 3226.76 2798.56Z" fill="white"/>
<path d="M2628.94 2204.58C2649.7 2184.42 2651.13 2152.22 2632.14 2132.67C2613.15 2113.11 2580.92 2113.6 2560.16 2133.76C2539.4 2153.92 2537.97 2186.12 2556.96 2205.68C2575.95 2225.23 2608.18 2224.74 2628.94 2204.58Z" fill="#90CAF9"/>
<path d="M2588.52 2386.41L2595.24 2411.77C2595.63 2413.16 2596.47 2414.39 2597.63 2415.25C2598.78 2416.12 2600.2 2416.58 2601.64 2416.57H2628.28C2629.78 2416.58 2631.24 2417.09 2632.43 2418.01C2633.62 2418.93 2634.47 2420.21 2634.86 2421.66C2635.25 2423.11 2635.16 2424.65 2634.59 2426.04C2634.02 2427.43 2633.01 2428.6 2631.72 2429.37L2609.24 2445.37C2607.96 2446.22 2606.98 2447.44 2606.44 2448.88C2605.89 2450.31 2605.81 2451.88 2606.2 2453.37L2612.92 2478.73C2613.32 2480.18 2613.26 2481.73 2612.75 2483.15C2612.25 2484.57 2611.31 2485.8 2610.08 2486.67C2608.85 2487.55 2607.38 2488.02 2605.87 2488.03C2604.36 2488.04 2602.88 2487.58 2601.64 2486.73L2581 2470.73C2579.83 2469.9 2578.43 2469.46 2577 2469.46C2575.57 2469.46 2574.17 2469.9 2573 2470.73L2550.52 2486.73C2549.34 2487.66 2547.89 2488.18 2546.38 2488.19C2544.87 2488.2 2543.41 2487.7 2542.22 2486.78C2541.03 2485.86 2540.18 2484.56 2539.82 2483.1C2539.45 2481.64 2539.59 2480.1 2540.2 2478.73L2549.88 2453.37C2550.48 2451.99 2550.59 2450.46 2550.22 2449.01C2549.84 2447.56 2548.99 2446.28 2547.8 2445.37L2527.16 2429.37C2526.03 2428.39 2525.22 2427.09 2524.85 2425.63C2524.48 2424.18 2524.57 2422.65 2525.1 2421.25C2525.64 2419.85 2526.59 2418.65 2527.83 2417.81C2529.07 2416.97 2530.54 2416.54 2532.04 2416.57H2558.68C2560.19 2416.57 2561.67 2416.11 2562.91 2415.25C2564.15 2414.39 2565.11 2413.18 2565.64 2411.77L2575 2386.41C2575.43 2384.94 2576.32 2383.66 2577.54 2382.74C2578.75 2381.83 2580.24 2381.33 2581.76 2381.33C2583.29 2381.33 2584.77 2381.83 2585.99 2382.74C2587.21 2383.66 2588.1 2384.94 2588.52 2386.41Z" fill="#90CAF9"/>
<path d="M2607 2672.96L2602.76 2744.16C2602.56 2747.15 2601.23 2749.95 2599.05 2751.99C2596.87 2754.04 2593.99 2755.19 2591 2755.2H2528.68C2527.3 2755.12 2525.96 2754.77 2524.72 2754.15C2523.48 2753.54 2522.38 2752.69 2521.48 2751.65C2520.57 2750.6 2519.89 2749.39 2519.46 2748.08C2519.04 2746.76 2518.88 2745.38 2519 2744L2524.2 2655.36C2524.38 2652.38 2525.69 2649.57 2527.86 2647.51C2530.02 2645.44 2532.89 2644.28 2535.88 2644.24H2580.68L2607 2672.96Z" fill="#90CAF9"/>
<path d="M2580.28 2644.41L2607.24 2672.97H2589.72C2588.3 2672.98 2586.89 2672.7 2585.57 2672.14C2584.26 2671.59 2583.08 2670.76 2582.11 2669.72C2581.13 2668.69 2580.38 2667.46 2579.9 2666.12C2579.42 2664.78 2579.22 2663.35 2579.32 2661.93L2580.28 2644.41ZM2573.16 2624.81L2572.04 2643.93L2571 2661.45C2570.86 2664 2571.24 2666.55 2572.1 2668.96C2572.97 2671.36 2574.31 2673.57 2576.04 2675.45C2577.8 2677.3 2579.92 2678.78 2582.28 2679.79C2584.63 2680.79 2587.16 2681.3 2589.72 2681.29H2626.36L2613.24 2667.29L2586.36 2638.73L2573.16 2624.81Z" fill="white"/>
<path opacity="0.2" d="M3235 2158.72H2724.68C2722.61 2158.74 2720.57 2158.33 2718.67 2157.52C2716.77 2156.71 2715.06 2155.51 2713.64 2154.01C2712.22 2152.51 2711.13 2150.73 2710.42 2148.79C2709.72 2146.85 2709.43 2144.78 2709.56 2142.72C2709.9 2138.41 2711.83 2134.38 2714.98 2131.42C2718.14 2128.47 2722.28 2126.79 2726.6 2126.72H3236.84C3238.91 2126.71 3240.95 2127.12 3242.85 2127.93C3244.75 2128.74 3246.46 2129.93 3247.88 2131.43C3249.3 2132.93 3250.39 2134.71 3251.1 2136.65C3251.8 2138.59 3252.09 2140.66 3251.96 2142.72C3251.64 2147.02 3249.72 2151.05 3246.59 2154.01C3243.45 2156.97 3239.31 2158.65 3235 2158.72Z" fill="#90CAF9"/>
<path opacity="0.2" d="M3138.28 2211.85H2721.64C2719.57 2211.86 2717.52 2211.45 2715.62 2210.64C2713.71 2209.83 2712 2208.64 2710.57 2207.14C2709.15 2205.64 2708.05 2203.87 2707.33 2201.92C2706.62 2199.98 2706.32 2197.91 2706.44 2195.85C2706.78 2191.54 2708.71 2187.51 2711.86 2184.55C2715.02 2181.59 2719.16 2179.91 2723.48 2179.85H3140.12C3142.19 2179.82 3144.25 2180.22 3146.16 2181.03C3148.07 2181.83 3149.79 2183.03 3151.21 2184.53C3152.64 2186.03 3153.74 2187.81 3154.45 2189.76C3155.16 2191.71 3155.45 2193.78 3155.32 2195.85C3154.96 2200.15 3153.02 2204.17 3149.88 2207.13C3146.73 2210.08 3142.6 2211.76 3138.28 2211.85Z" fill="#90CAF9"/>
<path opacity="0.2" d="M3218.2 2444.96H3077.4C3073.07 2445.01 3068.92 2446.68 3065.76 2449.65C3062.61 2452.61 3060.68 2456.65 3060.36 2460.96C3060.23 2463.03 3060.52 2465.09 3061.22 2467.03C3061.93 2468.98 3063.02 2470.75 3064.44 2472.26C3065.86 2473.76 3067.57 2474.95 3069.47 2475.76C3071.37 2476.57 3073.42 2476.98 3075.48 2476.96H3216.28C3220.61 2476.92 3224.76 2475.25 3227.92 2472.28C3231.07 2469.32 3233 2465.28 3233.32 2460.96C3233.45 2458.9 3233.16 2456.84 3232.46 2454.89C3231.76 2452.95 3230.66 2451.18 3229.24 2449.67C3227.82 2448.17 3226.11 2446.98 3224.21 2446.17C3222.31 2445.36 3220.27 2444.95 3218.2 2444.96Z" fill="#90CAF9"/>
<path opacity="0.2" d="M2995.08 2444.97H2707.96C2703.63 2445.01 2699.48 2446.68 2696.32 2449.65C2693.17 2452.61 2691.24 2456.65 2690.92 2460.97C2690.77 2463.03 2691.06 2465.1 2691.76 2467.05C2692.45 2469 2693.55 2470.78 2694.97 2472.28C2696.39 2473.79 2698.11 2474.98 2700.01 2475.78C2701.92 2476.59 2703.97 2476.99 2706.04 2476.97H2993.24C2997.56 2476.9 3001.7 2475.22 3004.85 2472.26C3008.01 2469.3 3009.94 2465.28 3010.28 2460.97C3010.41 2458.9 3010.11 2456.82 3009.41 2454.88C3008.7 2452.93 3007.6 2451.15 3006.17 2449.65C3004.75 2448.14 3003.02 2446.95 3001.11 2446.15C2999.21 2445.34 2997.15 2444.94 2995.08 2444.97Z" fill="#90CAF9"/>
<path opacity="0.2" d="M3127.72 2392.01H2711C2706.67 2392.05 2702.52 2393.72 2699.36 2396.69C2696.21 2399.65 2694.28 2403.69 2693.96 2408.01C2693.83 2410.07 2694.12 2412.13 2694.82 2414.08C2695.52 2416.02 2696.62 2417.79 2698.04 2419.3C2699.46 2420.8 2701.17 2421.99 2703.07 2422.8C2704.97 2423.61 2707.01 2424.02 2709.08 2424.01H3125.72C3130.04 2423.94 3134.18 2422.26 3137.34 2419.3C3140.49 2416.34 3142.42 2412.31 3142.76 2408.01C3142.89 2405.95 3142.6 2403.89 3141.9 2401.95C3141.21 2400.02 3140.12 2398.24 3138.71 2396.74C3137.3 2395.24 3135.6 2394.05 3133.71 2393.23C3131.82 2392.42 3129.78 2392 3127.72 2392.01Z" fill="#90CAF9"/>
<path opacity="0.2" d="M3202.6 2710.25H2692.36C2688.04 2710.33 2683.91 2712.02 2680.76 2714.97C2677.62 2717.93 2675.68 2721.95 2675.32 2726.25C2675.19 2728.32 2675.49 2730.39 2676.19 2732.34C2676.9 2734.29 2678 2736.07 2679.43 2737.57C2680.85 2739.07 2682.58 2740.26 2684.49 2741.07C2686.39 2741.87 2688.45 2742.27 2690.52 2742.25H3200.76C3205.08 2742.18 3209.21 2740.5 3212.35 2737.54C3215.49 2734.58 3217.4 2730.55 3217.72 2726.25C3217.85 2724.19 3217.56 2722.12 3216.86 2720.18C3216.16 2718.24 3215.06 2716.46 3213.64 2714.96C3212.23 2713.46 3210.51 2712.26 3208.61 2711.45C3206.71 2710.64 3204.67 2710.23 3202.6 2710.25Z" fill="#90CAF9"/>
<path opacity="0.2" d="M3112.12 2657.2H2695.48C2691.16 2657.27 2687.02 2658.94 2683.87 2661.9C2680.71 2664.86 2678.78 2668.89 2678.44 2673.2C2678.31 2675.26 2678.6 2677.33 2679.31 2679.27C2680.01 2681.21 2681.1 2682.99 2682.52 2684.49C2683.94 2685.99 2685.65 2687.19 2687.55 2688C2689.45 2688.81 2691.5 2689.22 2693.56 2689.2H3110.28C3114.6 2689.13 3118.73 2687.45 3121.87 2684.49C3125.01 2681.53 3126.92 2677.5 3127.24 2673.2C3127.37 2671.14 3127.08 2669.07 3126.38 2667.13C3125.68 2665.19 3124.58 2663.41 3123.16 2661.91C3121.75 2660.41 3120.03 2659.22 3118.13 2658.41C3116.23 2657.6 3114.19 2657.19 3112.12 2657.2Z" fill="#90CAF9"/>
<defs>
<linearGradient id="paint0_linear_2108_391" x1="2647" y1="131" x2="2647" y2="3660" gradientUnits="userSpaceOnUse">
<stop stop-color="#16BDF0" stop-opacity="0.53"/>
<stop offset="1" stop-color="#2600FF" stop-opacity="0.38"/>
</linearGradient>
</defs>
</svg>
