<svg width="5371" height="3529" viewBox="0 0 5371 3529" fill="none" xmlns="http://www.w3.org/2000/svg">
<g clip-path="url(#clip0_2108_574)">
<rect width="5371" height="3529" fill="#EAF0FF"/>
<g filter="url(#filter0_f_2108_574)">
<ellipse cx="3708" cy="2385" rx="2062" ry="1577" fill="url(#paint0_linear_2108_574)" fill-opacity="0.5"/>
</g>
<rect y="589" width="2099" height="6141" fill="url(#paint1_linear_2108_574)"/>
<path d="M4491.68 2975.6H601V2977.54H4491.68V2975.6Z" fill="#EBEBEB"/>
<path d="M4101.83 3100.8H3844.12V3102.74H4101.83V3100.8Z" fill="#EBEBEB"/>
<path d="M3178.34 3121.96H3110.72V3123.91H3178.34V3121.96Z" fill="#EBEBEB"/>
<path d="M3836.34 3028.59H3687.01V3030.53H3836.34V3028.59Z" fill="#EBEBEB"/>
<path d="M1345.29 3041.66H1009.21V3043.61H1345.29V3041.66Z" fill="#EBEBEB"/>
<path d="M1463.87 3041.66H1414.62V3043.61H1463.87V3041.66Z" fill="#EBEBEB"/>
<path d="M2352.97 3074.5H1624.01V3076.44H2352.97V3074.5Z" fill="#EBEBEB"/>
<path d="M2445.18 2628.55H942.678C930.908 2628.53 919.626 2623.84 911.311 2615.51C902.995 2607.18 898.324 2595.89 898.324 2584.12V472.018C898.427 460.315 903.143 449.125 911.447 440.878C919.752 432.632 930.975 427.995 942.678 427.975H2445.18C2456.97 427.975 2468.27 432.656 2476.6 440.989C2484.93 449.321 2489.61 460.623 2489.61 472.407V2584.12C2489.61 2595.9 2484.93 2607.2 2476.6 2615.53C2468.27 2623.87 2456.97 2628.55 2445.18 2628.55ZM942.678 429.531C931.424 429.552 920.637 434.037 912.686 442.003C904.735 449.968 900.27 460.763 900.27 472.018V2584.12C900.27 2595.37 904.735 2606.17 912.686 2614.13C920.637 2622.1 931.424 2626.58 942.678 2626.6H2445.18C2456.44 2626.58 2467.24 2622.1 2475.2 2614.14C2483.16 2606.17 2487.65 2595.38 2487.67 2584.12V472.018C2487.65 460.756 2483.16 449.961 2475.2 441.998C2467.24 434.035 2456.44 429.552 2445.18 429.531H942.678Z" fill="#EBEBEB"/>
<path d="M4128.37 2628.55H2625.79C2614.01 2628.53 2602.72 2623.84 2594.39 2615.51C2586.07 2607.18 2581.38 2595.89 2581.36 2584.12V472.018C2581.48 460.308 2586.21 449.118 2594.53 440.873C2602.85 432.629 2614.08 427.995 2625.79 427.975H4128.37C4140.06 428.016 4151.26 432.661 4159.55 440.906C4167.84 449.15 4172.54 460.328 4172.65 472.018V2584.12C4172.65 2595.87 4167.99 2607.15 4159.69 2615.48C4151.39 2623.81 4140.13 2628.51 4128.37 2628.55ZM2625.79 429.531C2614.53 429.552 2603.73 434.035 2595.77 441.998C2587.81 449.961 2583.32 460.756 2583.3 472.018V2584.12C2583.32 2595.38 2587.81 2606.17 2595.77 2614.14C2603.73 2622.1 2614.53 2626.58 2625.79 2626.6H4128.37C4139.63 2626.58 4150.43 2622.1 4158.39 2614.14C4166.35 2606.17 4170.84 2595.38 4170.86 2584.12V472.018C4170.84 460.756 4166.35 449.961 4158.39 441.998C4150.43 434.035 4139.63 429.552 4128.37 429.531H2625.79Z" fill="#EBEBEB"/>
<path d="M1189.74 2261.19H1743.77C1756.56 2261.19 1769.23 2263.71 1781.05 2268.6C1792.87 2273.5 1803.61 2280.67 1812.66 2289.72C1821.7 2298.77 1828.88 2309.51 1833.78 2321.33C1838.67 2333.15 1841.19 2345.81 1841.19 2358.61V2856.62C1841.19 2882.45 1830.93 2907.23 1812.66 2925.51C1794.39 2943.78 1769.61 2954.04 1743.77 2954.04H1189.74V2261.5V2261.19Z" fill="#F0F0F0"/>
<path d="M1194.33 2261.19H1185.15C1131.34 2261.19 1087.72 2304.8 1087.72 2358.61V2856.31C1087.72 2910.11 1131.34 2953.73 1185.15 2953.73H1194.33C1248.13 2953.73 1291.75 2910.11 1291.75 2856.31V2358.61C1291.75 2304.8 1248.13 2261.19 1194.33 2261.19Z" fill="#F5F5F5"/>
<path d="M1263.9 2953.73H1987.02V2516.65H1263.9V2953.73Z" fill="#F0F0F0"/>
<path d="M1204.52 2975.6H2507.82C2513.11 2975.57 2518.18 2973.46 2521.91 2969.71C2525.65 2965.96 2527.74 2960.89 2527.74 2955.6V2953.73H1744.08L1184.6 2955.6C1184.6 2960.89 1186.7 2965.96 1190.43 2969.71C1194.17 2973.46 1199.23 2975.57 1204.52 2975.6Z" fill="#E0E0E0"/>
<path d="M1775.36 1973.9H2448.14C2465.54 1973.57 2482.81 1976.96 2498.8 1983.84C2514.79 1990.71 2529.13 2000.92 2540.86 2013.78C2552.59 2026.64 2561.45 2041.85 2566.83 2058.4C2572.22 2074.95 2574.01 2092.46 2572.1 2109.76L2527.74 2615.55H1583.24L1627.52 2109.76C1631.28 2072.95 1648.4 2038.8 1675.65 2013.76C1702.89 1988.73 1738.37 1974.54 1775.36 1973.9Z" fill="#E0E0E0"/>
<path d="M1669.07 1973.9H2355C2371.55 1973.63 2387.97 1976.88 2403.17 1983.44C2418.37 1990 2432 1999.72 2443.16 2011.95C2454.32 2024.18 2462.75 2038.64 2467.88 2054.38C2473.02 2070.12 2474.75 2086.77 2472.96 2103.23L2428.06 2615.48H1483.48L1528.38 2103.23C1531.96 2068.2 1548.25 2035.69 1574.17 2011.86C1600.1 1988.02 1633.86 1974.52 1669.07 1973.9Z" fill="#F5F5F5"/>
<path d="M1321.87 2476.73H1894.65C1910.91 2476.73 1926.51 2483.19 1938.01 2494.69C1949.51 2506.19 1955.97 2521.79 1955.97 2538.05V2593.37C1955.98 2601.43 1954.4 2609.41 1951.32 2616.86C1948.25 2624.31 1943.73 2631.08 1938.04 2636.78C1932.34 2642.48 1925.58 2647.01 1918.13 2650.09C1910.69 2653.18 1902.71 2654.77 1894.65 2654.77H1321.87C1298.26 2654.77 1275.61 2645.39 1258.92 2628.7C1242.22 2612 1232.85 2589.36 1232.85 2565.75C1232.85 2542.14 1242.22 2519.5 1258.92 2502.8C1275.61 2486.11 1298.26 2476.73 1321.87 2476.73Z" fill="#E0E0E0"/>
<path d="M1990.21 2261.19H2544.24C2570.08 2261.19 2594.86 2271.45 2613.13 2289.72C2631.4 2307.99 2641.66 2332.77 2641.66 2358.61V2856.62C2641.66 2882.45 2631.4 2907.23 2613.13 2925.51C2594.86 2943.78 2570.08 2954.04 2544.24 2954.04H1990.21V2261.5V2261.19Z" fill="#F0F0F0"/>
<path d="M1994.8 2261.19H1985.62C1931.81 2261.19 1888.19 2304.8 1888.19 2358.61V2856.31C1888.19 2910.11 1931.81 2953.73 1985.62 2953.73H1994.8C2048.6 2953.73 2092.22 2910.11 2092.22 2856.31V2358.61C2092.22 2304.8 2048.6 2261.19 1994.8 2261.19Z" fill="#F5F5F5"/>
<path d="M3519.09 1880.52H2986.46V2975.6H3519.09V1880.52Z" fill="#F0F0F0"/>
<path d="M3066.14 2890.31V1965.8H3053.84V2890.31H3066.14Z" fill="#E6E6E6"/>
<path d="M3440.57 1965.8H3053.84V1981.37H3440.57V1965.8Z" fill="#E6E6E6"/>
<path d="M4064.02 1880.52H3531.38V2975.6H4064.02V1880.52Z" fill="#F0F0F0"/>
<path d="M4064.1 2975.6H4134.6V1880.52H4064.1V2975.6Z" fill="#E0E0E0"/>
<path d="M3611.06 2890.31V1965.8H3598.77V2890.31H3611.06Z" fill="#E6E6E6"/>
<path d="M3531.46 2975.6V1892.98H3519.17V2975.6H3531.46Z" fill="#E6E6E6"/>
<path d="M3985.51 1965.8H3598.77V1981.37H3985.51V1965.8Z" fill="#E6E6E6"/>
<path d="M3495.75 2122.76H3469.29V2364.76H3495.75V2122.76Z" fill="#E0E0E0"/>
<path d="M3581.18 2122.76H3554.73V2364.76H3581.18V2122.76Z" fill="#E0E0E0"/>
<path d="M3916.72 738.603H1200.86V1707.31H3916.72V738.603Z" fill="#E0E0E0"/>
<path d="M3891.81 738.603H1175.96V1707.31H3891.81V738.603Z" fill="#F0F0F0"/>
<path d="M3810.35 1625.84V820.074L1257.44 820.074V1625.84H3810.35Z" fill="#FAFAFA"/>
<path d="M1671.87 1625.84L1841.04 820.074H2214.47L2045.3 1625.84H1671.87Z" fill="white"/>
<path d="M2202.87 1625.84L2372.04 820.074H2558.79L2389.55 1625.84H2202.87Z" fill="white"/>
<path d="M3343 1625.84L3512.16 820.074H3698.91L3529.67 1625.84H3343Z" fill="white"/>
<path d="M2546.34 3327C3379.59 3327 4055.07 3287.56 4055.07 3238.91C4055.07 3190.27 3379.59 3150.83 2546.34 3150.83C1713.09 3150.83 1037.61 3190.27 1037.61 3238.91C1037.61 3287.56 1713.09 3327 2546.34 3327Z" fill="#F5F5F5"/>
<path d="M1892.71 899.839C1912.32 854.941 1738.64 814.244 1686.11 952.597C1638.49 1078.11 1559.43 1110.17 1596.63 1197.09C1636.85 1291.16 1864.46 1302.45 1963.28 1198.18C2043.43 1113.59 1956.44 1077.96 1967.64 998.429C1978.85 918.904 1955.35 892.992 1892.71 899.839Z" fill="#263238"/>
<path d="M1576.32 1169.23C1567.29 1120.21 1585.5 1099.97 1608.53 1074.37C1639.66 1042.79 1660.98 1002.87 1669.93 959.442C1674.57 935.724 1686.43 914.02 1703.88 897.304C1721.34 880.587 1743.53 869.677 1767.43 866.066C1818.79 856.573 1873.18 873.38 1887.57 894.701C1889.87 897.705 1891.17 901.345 1891.31 905.122C1891.45 908.898 1890.42 912.624 1888.35 915.789L1881.81 911.587C1883.07 909.706 1883.69 907.466 1883.56 905.206C1883.43 902.946 1882.57 900.788 1881.11 899.059C1868.35 880.072 1816.53 864.899 1768.91 873.769C1734.9 880.072 1691.09 900.304 1677.55 961.154C1668.33 1005.89 1646.36 1046.99 1614.29 1079.51C1591.88 1104.41 1575.38 1122.46 1584.02 1167.75L1576.32 1169.23Z" fill="#263238"/>
<path d="M1469.32 1131.96L1464.5 1116.39C1461.17 1105.82 1455.13 1096.3 1446.99 1088.77L1431.43 1074.61C1426.51 1070.06 1420.15 1067.37 1413.46 1067.02C1406.76 1066.66 1400.15 1068.66 1394.78 1072.66L1378.13 1085.11C1375.08 1087.39 1372.52 1090.24 1370.59 1093.52C1368.66 1096.79 1367.4 1100.41 1366.87 1104.17C1366.35 1107.94 1366.58 1111.77 1367.55 1115.44C1368.52 1119.12 1370.21 1122.56 1372.52 1125.58L1383.26 1139.58C1383.26 1139.58 1408.47 1182.23 1444.97 1197.01L1453.37 1189.85C1461.41 1182.83 1467.21 1173.59 1470.05 1163.3C1472.88 1153.01 1472.63 1142.11 1469.32 1131.96Z" fill="#FFC3BD"/>
<path d="M1771.79 1402.13L1766.81 1405.94L1762.76 1408.9L1754.98 1414.34C1749.76 1417.77 1744.47 1420.96 1739.42 1424.07C1728.83 1430.16 1717.92 1435.66 1706.73 1440.57C1683.73 1450.71 1659.55 1457.93 1634.76 1462.04C1608.57 1466.44 1581.85 1466.6 1555.62 1462.51C1542.19 1460.4 1529.01 1456.98 1516.25 1452.32C1513.06 1451.3 1509.86 1449.98 1506.75 1448.66L1502.08 1446.71L1499.75 1445.7L1497.18 1444.61L1493.91 1443.06C1487.12 1439.58 1480.86 1435.15 1475.32 1429.91C1471.33 1426.2 1467.66 1422.16 1464.34 1417.85C1455.54 1405.91 1448.42 1392.82 1443.18 1378.94C1438.51 1367.42 1434.93 1356.37 1431.74 1345.56C1425.94 1324.63 1421.23 1303.41 1417.66 1281.98C1410.55 1240.58 1406.57 1198.7 1405.75 1156.7C1404.79 1148.84 1406.86 1140.91 1411.54 1134.52C1416.22 1128.13 1423.17 1123.77 1430.95 1122.32C1438.74 1120.87 1446.79 1122.44 1453.45 1126.72C1460.12 1131 1464.91 1137.66 1466.83 1145.34V1146.2C1480.37 1183.47 1493.37 1221.68 1507.06 1257.94C1514.14 1275.99 1520.99 1293.97 1528.77 1310.31C1532.51 1318.48 1536.55 1326.26 1540.37 1333.03C1542.96 1337.99 1546.3 1342.53 1550.25 1346.49C1550.25 1346.49 1550.25 1346.49 1549.71 1345.4C1547.91 1343.54 1545.81 1342.01 1543.48 1340.89L1542 1340.11C1541.54 1340.11 1540.6 1339.56 1541.15 1339.72H1542.39L1544.8 1340.34C1546.41 1340.84 1548.05 1341.23 1549.71 1341.51C1556.27 1342.82 1562.93 1343.63 1569.63 1343.92C1583.64 1344.35 1597.64 1342.88 1611.26 1339.56C1626.2 1335.8 1640.74 1330.58 1654.68 1324C1661.91 1320.73 1669.07 1316.92 1676.07 1313.11C1679.58 1311.16 1683 1309.06 1686.27 1307.04L1694.05 1302.06L1700.12 1298.25C1713.79 1289.55 1730.3 1286.5 1746.18 1289.72C1762.06 1292.94 1776.07 1302.19 1785.27 1315.52C1794.48 1328.85 1798.16 1345.24 1795.54 1361.22C1792.93 1377.21 1784.22 1391.57 1771.24 1401.27L1771.79 1402.13Z" fill="#FFC3BD"/>
<path d="M1908.27 3205C1957.53 3188.73 1999 3155.43 1990.68 3096.99C1987.02 3071.94 2067.4 3062.13 2067.4 3062.13C2058.3 3141.73 2068.26 3155.51 2077.83 3173.48C2087.4 3191.46 2086.85 3213.48 2070.05 3215.42C2050.13 3217.84 2045.69 3215.42 2020.95 3218.93C1992 3222.74 1973.25 3237.83 1915.43 3237.83C1884.23 3237.83 1892.71 3210.13 1908.27 3205Z" fill="#90CAF9"/>
<path d="M2058.06 2354.72C2063.74 1956 2026.93 1738.67 2026.93 1738.67L1731.94 1753.38C1731.94 1753.38 1775.6 2118.17 1853.1 2386.86C1873.8 2531.05 1920.41 2774.92 1952.7 2938.71C2000.62 2934.61 2047.99 2925.64 2094.09 2911.95C2105.37 2768.07 2107.39 2560.07 2058.06 2354.72Z" fill="#90CAF9"/>
<path d="M2064.44 3101.19C2064.44 3101.19 2075.96 3025.87 2083.74 2911.95C2044.59 2925.58 2003.98 2934.56 1962.74 2938.71C1979.55 3038.16 1991.53 3101.5 1991.53 3101.5C2015.11 3109.98 2040.93 3109.87 2064.44 3101.19Z" fill="#FFC3BD"/>
<path d="M1936.59 2891.01C1939.16 2904.71 1946.32 2939.03 1953.4 2951.09C1953.81 2951.78 1954.37 2952.38 1955.05 2952.82C1955.72 2953.27 1956.49 2953.55 1957.29 2953.65C2012.3 2960.58 2067.24 2949.53 2089.57 2939.57C2090.2 2939.32 2090.76 2938.94 2091.23 2938.46C2091.7 2937.97 2092.06 2937.4 2092.3 2936.77C2098.52 2920.27 2100.78 2885.57 2101.48 2870.94C2101.52 2870.15 2101.38 2869.36 2101.06 2868.63C2100.75 2867.9 2100.28 2867.25 2099.68 2866.73C2099.08 2866.22 2098.37 2865.84 2097.6 2865.64C2096.83 2865.44 2096.03 2865.41 2095.25 2865.57C2044.27 2875.02 1992.77 2881.46 1941.03 2884.87C1940.32 2884.95 1939.64 2885.18 1939.02 2885.54C1938.41 2885.9 1937.87 2886.38 1937.46 2886.96C1937.04 2887.54 1936.75 2888.2 1936.6 2888.9C1936.45 2889.6 1936.45 2890.32 1936.59 2891.01Z" fill="#263238"/>
<path d="M1735.83 1284.55C1692.1 1292.34 1625.42 1329.3 1625.42 1329.3C1625.42 1329.3 1590.32 1413.34 1632.34 1473.87C1673.74 1483.68 1694.59 1475.66 1694.59 1475.66L1735.83 1284.55Z" fill="#263238"/>
<path opacity="0.2" d="M1632.34 1473.87C1673.74 1483.67 1694.6 1475.66 1694.6 1475.66L1693.12 1362.28C1665.03 1400.1 1641.6 1437.61 1632.34 1473.87Z" fill="black"/>
<path opacity="0.2" d="M2056.51 2119.49C2023.51 2038.8 1988.03 1972.35 1974.41 1911.65C1951.07 2076.7 1969.43 2228.51 2058.22 2337.29C2059.23 2256.99 2058.37 2184.31 2056.51 2119.49Z" fill="black"/>
<path d="M2507.43 2752.27L2389.7 2836C2293.6 2710.79 2149.49 2519.53 2114.63 2436.27C2026.08 2225 1848.04 1759.29 1848.04 1759.29L2079.15 1705.6C2079.15 1705.6 2224.97 1840.99 2319.05 2351.92C2397.79 2463.81 2464.09 2628.47 2507.43 2752.27Z" fill="#90CAF9"/>
<path d="M2500.66 3149.13C2530 3091.78 2530.39 3028.59 2498.72 2978.79C2485.1 2957.47 2554.28 2915.38 2554.28 2915.38C2578.71 2991.71 2598.63 2996.15 2615.59 3007.97C2632.56 3019.8 2634.27 3045.25 2619.95 3053.88C2604.33 3063.07 2591.02 3075.71 2581.05 3090.85C2563.3 3114.19 2553.34 3146.25 2527.9 3166.25C2511.64 3178.93 2487.75 3174.26 2500.66 3149.13Z" fill="#90CAF9"/>
<path d="M2567.12 2950.39C2567.12 2950.39 2546.81 2878.96 2506.97 2771.96C2476.88 2800.46 2443.59 2825.37 2407.75 2846.2C2464.01 2929.92 2505.18 2990.08 2505.18 2990.08C2529.1 2982.83 2550.54 2969.09 2567.12 2950.39Z" fill="#FFC3BD"/>
<path d="M2364.26 2813.52C2372.04 2824.88 2392.89 2853.28 2404.33 2861.29C2405 2861.77 2405.77 2862.08 2406.58 2862.22C2407.38 2862.35 2408.21 2862.3 2409 2862.07C2461.91 2845.73 2507.43 2812.97 2524.09 2794.53C2524.55 2794.03 2524.91 2793.44 2525.12 2792.8C2525.34 2792.15 2525.41 2791.47 2525.33 2790.79C2524.24 2773.29 2511.95 2740.68 2506.58 2727.06C2506.28 2726.34 2505.83 2725.7 2505.26 2725.17C2504.68 2724.65 2503.99 2724.26 2503.25 2724.03C2502.5 2723.81 2501.71 2723.76 2500.94 2723.88C2500.17 2724 2499.44 2724.29 2498.8 2724.73C2456.33 2754.36 2412.16 2781.46 2366.51 2805.89C2365.82 2806.2 2365.2 2806.65 2364.7 2807.22C2364.2 2807.78 2363.83 2808.45 2363.62 2809.18C2363.4 2809.91 2363.35 2810.67 2363.46 2811.42C2363.57 2812.17 2363.84 2812.88 2364.26 2813.52Z" fill="#263238"/>
<path d="M1669.07 1400.65C1679.65 1469.51 1638.65 1522.9 1701.75 1554.64C1691.25 1607.01 1706.81 1711.59 1731.79 1753.07C1766.88 1772.13 1938.54 1743.96 2078.84 1705.52C2076.81 1645.61 2027.56 1527.72 2041.25 1331.47C2041.99 1320.74 2040.46 1309.97 2036.77 1299.86C2033.08 1289.75 2027.3 1280.53 2019.82 1272.8C2012.34 1265.07 2003.31 1258.99 1993.33 1254.97C1983.35 1250.95 1972.64 1249.07 1961.88 1249.46C1949.74 1249.46 1936.83 1250.62 1923.75 1251.79C1877.79 1254.74 1832.1 1260.98 1787.04 1270.47C1772.48 1273.89 1757.47 1277.78 1743.23 1281.83C1718.47 1289.14 1697.26 1305.26 1683.59 1327.16C1669.93 1349.06 1664.76 1375.2 1669.07 1400.65Z" fill="#263238"/>
<path d="M1768.2 1348.28C1768.2 1348.28 1812.17 1332.25 1835.2 1371.62C1873.56 1350.07 1927.49 1258.95 1923.68 1252.02C1859.48 1269.68 1768.2 1348.28 1768.2 1348.28Z" fill="white"/>
<path d="M1768.21 1348.27C1768.21 1348.27 1734.82 1344.31 1725.41 1373.88C1725.41 1315.52 1764.78 1278.79 1781.98 1271.94C1775.99 1287.19 1768.21 1348.27 1768.21 1348.27Z" fill="white"/>
<path d="M1906.87 1097.56C1901.97 1143.08 1901.19 1216.23 1923.76 1252.1C1923.76 1252.1 1838.16 1310.69 1768.13 1348.28C1746.11 1297.31 1781.9 1271.94 1781.9 1271.94C1815.28 1259.18 1814.97 1216.46 1810.46 1183.78L1906.87 1097.56Z" fill="#FFC3BD"/>
<path opacity="0.2" d="M1810.61 1183.78L1865.08 1134.76C1866.91 1143.91 1866.32 1153.38 1863.37 1162.23C1853.94 1187.73 1835.8 1209.09 1812.17 1222.53C1813.03 1209.6 1812.5 1196.61 1810.61 1183.78Z" fill="black"/>
<path d="M1924.46 1012.98C1916.67 1086.91 1915.51 1118.27 1877.38 1154.84C1819.95 1209.85 1732.57 1184.64 1718.17 1110.1C1705.18 1042.94 1719.42 933.38 1791.63 906.69C1863.84 880 1931.61 939.138 1924.46 1012.98Z" fill="#FFC3BD"/>
<path d="M1908.27 1067.06C1896.86 1056.14 1890.19 1041.17 1889.69 1025.38C1889.2 1009.6 1894.92 994.246 1905.62 982.63C1925.08 962.943 1952.31 1003.72 1952.31 1003.72L1908.27 1067.06Z" fill="#263238"/>
<path d="M1818.08 1033.45C1818.08 1039.51 1814.43 1044.26 1810.3 1044.11C1806.18 1043.95 1803.38 1038.89 1803.61 1032.9C1803.84 1026.91 1807.27 1022.08 1811.39 1022.24C1815.52 1022.4 1818.32 1027.14 1818.08 1033.45Z" fill="#263238"/>
<path d="M1743.85 1031.66C1743.85 1037.65 1740.27 1042.4 1736.07 1042.24C1731.87 1042.09 1729.14 1037.11 1729.38 1031.04C1729.61 1024.97 1732.96 1020.3 1737.16 1020.45C1741.36 1020.61 1744.08 1025.59 1743.85 1031.66Z" fill="#263238"/>
<path d="M1738.87 1020.84L1724.55 1016.09C1724.55 1016.09 1731.56 1027.69 1738.87 1020.84Z" fill="#263238"/>
<path d="M1762.14 1033.99C1756.12 1047.55 1748.27 1060.23 1738.79 1071.65C1741.78 1073.95 1745.24 1075.58 1748.92 1076.41C1752.6 1077.24 1756.42 1077.27 1760.11 1076.47L1762.14 1033.99Z" fill="#ED847E"/>
<path d="M1794.27 1100.13C1790.9 1100.61 1787.48 1100.76 1784.08 1100.6C1783.62 1100.58 1783.18 1100.38 1782.86 1100.05C1782.54 1099.71 1782.37 1099.27 1782.37 1098.81C1782.38 1098.57 1782.43 1098.34 1782.53 1098.13C1782.63 1097.91 1782.77 1097.72 1782.95 1097.56C1783.12 1097.4 1783.32 1097.28 1783.54 1097.2C1783.76 1097.12 1784 1097.08 1784.23 1097.09C1791.73 1097.54 1799.22 1096.23 1806.11 1093.25C1813 1090.28 1819.1 1085.73 1823.92 1079.98C1824.05 1079.78 1824.21 1079.62 1824.4 1079.49C1824.59 1079.36 1824.8 1079.28 1825.03 1079.23C1825.25 1079.19 1825.48 1079.19 1825.71 1079.24C1825.93 1079.29 1826.14 1079.38 1826.33 1079.51C1826.53 1079.64 1826.69 1079.81 1826.82 1080.01C1826.95 1080.2 1827.04 1080.43 1827.08 1080.66C1827.13 1080.89 1827.12 1081.13 1827.07 1081.36C1827.03 1081.59 1826.93 1081.8 1826.8 1082C1818.73 1092.05 1807.06 1098.55 1794.27 1100.13Z" fill="#263238"/>
<path d="M1936.75 1074.92C1933.86 1081.03 1929.7 1086.46 1924.55 1090.83C1919.39 1095.21 1913.37 1098.43 1906.87 1100.29C1890.29 1104.41 1882.59 1086.2 1887.72 1068C1892.32 1051.58 1906.56 1029.71 1922.9 1033.68C1939.24 1037.65 1944.76 1058.97 1936.75 1074.92Z" fill="#FFC3BD"/>
<path d="M1886.17 907.857C1833.79 940.537 1774.97 961.532 1713.73 969.408C1713.73 916.261 1817.69 856.578 1886.17 907.857Z" fill="#263238"/>
<path d="M1846.02 914.313C1833.96 961.001 1954.96 1046.6 1931.62 1128.92C1971.14 1067.37 1942.67 928.864 1942.67 928.864C1942.67 928.864 1840.73 864.357 1846.02 914.313Z" fill="#263238"/>
<path d="M1833.57 993.761C1833.1 993.695 1832.65 993.529 1832.24 993.274C1831.84 993.019 1831.5 992.681 1831.24 992.282C1828.83 988.531 1825.58 985.4 1821.74 983.142C1817.9 980.884 1813.58 979.563 1809.14 979.288C1808.67 979.309 1808.21 979.236 1807.78 979.073C1807.34 978.91 1806.95 978.662 1806.61 978.341C1806.28 978.021 1806.01 977.637 1805.83 977.211C1805.65 976.785 1805.56 976.327 1805.56 975.864C1805.54 975.391 1805.61 974.919 1805.78 974.476C1805.94 974.033 1806.2 973.628 1806.53 973.287C1806.85 972.945 1807.25 972.673 1807.68 972.487C1808.12 972.301 1808.59 972.206 1809.06 972.207C1814.68 972.451 1820.15 974.041 1825.03 976.844C1829.9 979.647 1834.03 983.581 1837.07 988.314C1837.34 988.696 1837.52 989.127 1837.62 989.581C1837.71 990.035 1837.72 990.504 1837.63 990.961C1837.54 991.417 1837.37 991.851 1837.11 992.238C1836.85 992.626 1836.52 992.958 1836.14 993.216C1835.77 993.471 1835.35 993.651 1834.91 993.744C1834.47 993.838 1834.01 993.844 1833.57 993.761Z" fill="#263238"/>
<path d="M1711.01 991.188C1710.1 991.125 1709.25 990.738 1708.6 990.099C1708.27 989.773 1708.01 989.386 1707.83 988.958C1707.65 988.531 1707.56 988.072 1707.56 987.609C1707.56 987.146 1707.65 986.687 1707.83 986.26C1708.01 985.832 1708.27 985.445 1708.6 985.119C1712.48 981.041 1717.28 977.952 1722.6 976.111C1727.92 974.27 1733.61 973.73 1739.18 974.536C1740.09 974.741 1740.89 975.296 1741.4 976.082C1741.91 976.867 1742.09 977.821 1741.9 978.738C1741.81 979.195 1741.63 979.63 1741.37 980.015C1741.1 980.401 1740.77 980.73 1740.38 980.984C1739.98 981.238 1739.55 981.411 1739.09 981.493C1738.63 981.575 1738.16 981.564 1737.7 981.462C1733.29 980.898 1728.8 981.387 1724.61 982.888C1720.41 984.389 1716.64 986.86 1713.58 990.099C1712.9 990.787 1711.98 991.179 1711.01 991.188Z" fill="#263238"/>
<path d="M1813.1 1022.63L1798.79 1017.96C1798.79 1017.96 1805.71 1029.56 1813.1 1022.63Z" fill="#263238"/>
<path opacity="0.2" d="M2039.39 1369.53C2037.99 1411.07 2039.37 1452.67 2043.51 1494.03C2004.6 1452.94 1955.74 1375.36 1952.55 1336.45L2039.39 1369.53Z" fill="black"/>
<path d="M2293.45 1223.39L2301.93 1173.98L2378.73 1203.63C2378.73 1203.63 2360.91 1249.61 2328.15 1269.92L2319.05 1264.17C2311.91 1259.82 2305.88 1253.88 2301.44 1246.8C2296.99 1239.72 2294.26 1231.71 2293.45 1223.39Z" fill="#FFC3BD"/>
<path d="M2349.86 1146.43L2375.15 1160.2C2380.67 1163.2 2384.79 1168.26 2386.6 1174.28C2388.4 1180.3 2387.76 1186.79 2384.8 1192.34L2378.81 1203.62L2302.01 1173.97L2320.29 1152.11C2323.82 1147.91 2328.68 1145.06 2334.07 1144.02C2339.45 1142.99 2345.03 1143.84 2349.86 1146.43Z" fill="#FFC3BD"/>
<path d="M2025.69 1279.8L2035.5 1289.91L2046.16 1300.73C2053.39 1307.81 2060.63 1315.05 2068.1 1321.9C2082.89 1335.83 2098.14 1348.74 2113.47 1360.8C2127.93 1372.14 2143.28 1382.29 2159.38 1391.15C2171.69 1398.07 2185.08 1402.86 2198.98 1405.31L2178.05 1409.2C2172.92 1411.69 2173.23 1412.78 2174.32 1411.93C2176.42 1410.52 2178.35 1408.87 2180.07 1407.02C2185.77 1401.1 2190.97 1394.72 2195.64 1387.96C2206.22 1372.94 2216.96 1355.9 2226.76 1338.24C2236.57 1320.57 2246.99 1302.44 2257.03 1283.77L2286.99 1228.36V1227.9C2290.5 1221.29 2296.25 1216.16 2303.2 1213.4C2310.16 1210.65 2317.86 1210.45 2324.94 1212.86C2332.03 1215.26 2338.02 1220.11 2341.86 1226.53C2345.7 1232.94 2347.13 1240.52 2345.9 1247.9C2342.32 1270.31 2337.41 1291.47 2331.97 1313.03C2326.52 1334.58 2320.68 1355.9 2312.9 1377.3C2305.28 1399.36 2296.23 1420.91 2285.82 1441.81C2279.79 1453.57 2272.95 1464.91 2265.36 1475.73C2260.57 1482.41 2255.2 1488.66 2249.33 1494.41C2240.63 1503.09 2230.35 1510.03 2219.06 1514.87C2213.52 1517.24 2207.58 1518.53 2201.55 1518.69H2198.13C2167.38 1518.87 2136.95 1512.47 2108.88 1499.93C2096.48 1494.64 2084.38 1488.69 2072.61 1482.11C2061.36 1475.47 2050.49 1468.6 2040.01 1461.49C2019.65 1447.24 2000.25 1431.64 1981.96 1414.81C1973.01 1406.56 1964.14 1398.23 1955.66 1389.44C1951.46 1385.08 1947.18 1380.72 1943.05 1376.13C1938.93 1371.54 1935.27 1367.34 1930.22 1361.5C1919.03 1349.12 1913.22 1332.8 1914.07 1316.14C1914.91 1299.47 1922.35 1283.83 1934.73 1272.64C1947.11 1261.45 1963.43 1255.65 1980.09 1256.49C1996.76 1257.34 2012.41 1264.77 2023.59 1277.15L2025.69 1279.8Z" fill="#FFC3BD"/>
<path d="M1965.31 1249.85C2022.34 1251.56 2079.07 1319.88 2079.07 1319.88C2079.07 1319.88 2057.13 1410.53 1994.64 1449.59C1959.47 1422.2 1929.67 1400.26 1929.67 1400.26C1879.94 1327.35 1896.52 1278.95 1965.31 1249.85Z" fill="#263238"/>
<path d="M1720.43 1748.01C1724.63 1772.37 1729.69 1791.51 1731.32 1797.35C1731.48 1797.97 1731.76 1798.55 1732.15 1799.05C1732.53 1799.56 1733.02 1799.99 1733.58 1800.3C1741.9 1804.89 1779.88 1823.65 1849.6 1819.52C1927.41 1815.32 2041.56 1772.83 2100.78 1727.62C2101.64 1726.96 2102.26 1726.02 2102.54 1724.97C2102.82 1723.92 2102.75 1722.8 2102.33 1721.79C2097.76 1711.65 2092.43 1701.87 2086.38 1692.53C2085.79 1691.63 2084.93 1690.95 2083.92 1690.59C2082.91 1690.22 2081.81 1690.2 2080.78 1690.51C2055.26 1698.29 1894.57 1744.28 1725.33 1742.25C1724.61 1742.26 1723.9 1742.41 1723.25 1742.72C1722.6 1743.02 1722.02 1743.46 1721.55 1744.01C1721.09 1744.55 1720.74 1745.19 1720.55 1745.89C1720.36 1746.58 1720.31 1747.3 1720.43 1748.01Z" fill="#90CAF9"/>
<path opacity="0.3" d="M1720.43 1748.01C1724.63 1772.37 1729.69 1791.51 1731.32 1797.35C1731.48 1797.97 1731.76 1798.55 1732.15 1799.05C1732.53 1799.56 1733.02 1799.99 1733.58 1800.3C1741.9 1804.89 1779.88 1823.65 1849.6 1819.52C1927.41 1815.32 2041.56 1772.83 2100.78 1727.62C2101.64 1726.96 2102.26 1726.02 2102.54 1724.97C2102.82 1723.92 2102.75 1722.8 2102.33 1721.79C2097.76 1711.65 2092.43 1701.87 2086.38 1692.53C2085.79 1691.63 2084.93 1690.95 2083.92 1690.59C2082.91 1690.22 2081.81 1690.2 2080.78 1690.51C2055.26 1698.29 1894.57 1744.28 1725.33 1742.25C1724.61 1742.26 1723.9 1742.41 1723.25 1742.72C1722.6 1743.02 1722.02 1743.46 1721.55 1744.01C1721.09 1744.55 1720.74 1745.19 1720.55 1745.89C1720.36 1746.58 1720.31 1747.3 1720.43 1748.01Z" fill="white"/>
<path d="M3279.89 3006.8H2255.39C2236.44 3006.97 2217.66 3003.22 2200.23 2995.79C2182.81 2988.35 2167.1 2977.39 2154.12 2963.59C2141.13 2949.79 2131.14 2933.46 2124.77 2915.61C2118.4 2897.76 2115.8 2878.79 2117.12 2859.88L2241.62 730.512C2244.46 690.987 2262.02 653.966 2290.84 626.764C2319.65 599.563 2357.63 584.16 2397.25 583.599H3421.98C3440.92 583.424 3459.7 587.173 3477.13 594.608C3494.56 602.043 3510.27 613.005 3523.25 626.804C3536.24 640.603 3546.23 656.94 3552.6 674.788C3558.97 692.636 3561.57 711.608 3560.25 730.512L3435.36 2859.88C3432.52 2899.38 3414.98 2936.38 3386.2 2963.58C3357.42 2990.78 3319.48 3006.2 3279.89 3006.8Z" fill="#90CAF9"/>
<path opacity="0.8" d="M3279.89 3006.8H2255.39C2236.44 3006.97 2217.66 3003.22 2200.23 2995.79C2182.81 2988.35 2167.1 2977.39 2154.12 2963.59C2141.13 2949.79 2131.14 2933.46 2124.77 2915.61C2118.4 2897.76 2115.8 2878.79 2117.12 2859.88L2241.62 730.512C2244.46 690.987 2262.02 653.966 2290.84 626.764C2319.65 599.563 2357.63 584.16 2397.25 583.599H3421.98C3440.92 583.424 3459.7 587.173 3477.13 594.608C3494.56 602.043 3510.27 613.005 3523.25 626.804C3536.24 640.603 3546.23 656.94 3552.6 674.788C3558.97 692.636 3561.57 711.608 3560.25 730.512L3435.36 2859.88C3432.52 2899.38 3414.98 2936.38 3386.2 2963.58C3357.42 2990.78 3319.48 3006.2 3279.89 3006.8Z" fill="white"/>
<path d="M3273.82 2964.16H2277.8C2264.49 2964.29 2251.3 2961.66 2239.05 2956.44C2226.8 2951.22 2215.76 2943.53 2206.64 2933.83C2197.51 2924.14 2190.48 2912.67 2186 2900.13C2181.53 2887.59 2179.69 2874.26 2180.62 2860.98L2305.12 740.866C2307.11 713.164 2319.4 687.209 2339.55 668.102C2359.71 648.996 2386.29 638.118 2414.06 637.607H3410.07C3423.39 637.489 3436.59 640.127 3448.83 645.355C3461.08 650.583 3472.12 658.288 3481.24 667.985C3490.37 677.683 3497.39 689.163 3501.87 701.706C3506.35 714.248 3508.18 727.581 3507.26 740.866L3382.76 2860.98C3380.76 2888.67 3368.48 2914.62 3348.32 2933.71C3328.16 2952.81 3301.58 2963.67 3273.82 2964.16Z" fill="#90CAF9"/>
<path d="M3263.08 2952.8H2267.07C2253.75 2952.92 2240.55 2950.28 2228.3 2945.05C2216.06 2939.83 2205.02 2932.12 2195.89 2922.42C2186.77 2912.73 2179.74 2901.25 2175.27 2888.7C2170.79 2876.16 2168.95 2862.83 2169.88 2849.54L2294.38 729.43C2296.37 701.727 2308.66 675.773 2328.82 656.666C2348.97 637.559 2375.55 626.682 2403.32 626.171H3399.33C3412.65 626.053 3425.85 628.691 3438.1 633.919C3450.34 639.146 3461.38 646.851 3470.51 656.549C3479.63 666.246 3486.66 677.727 3491.13 690.269C3495.61 702.811 3497.45 716.144 3496.52 729.43L3372.02 2849.54C3370.02 2877.25 3357.74 2903.2 3337.58 2922.31C3317.43 2941.41 3290.85 2952.29 3263.08 2952.8Z" fill="white"/>
<path opacity="0.1" d="M3233.98 2873.97H2305.12C2296.89 2874.05 2288.73 2872.42 2281.16 2869.19C2273.59 2865.96 2266.77 2861.19 2261.13 2855.2C2255.49 2849.21 2251.15 2842.12 2248.38 2834.37C2245.61 2826.61 2244.48 2818.38 2245.05 2810.16L2297.34 1925.81C2298.56 1908.65 2306.18 1892.57 2318.69 1880.76C2331.19 1868.95 2347.68 1862.25 2364.88 1862H3293.35C3301.58 1861.93 3309.74 1863.56 3317.31 1866.79C3324.88 1870.02 3331.7 1874.78 3337.34 1880.77C3342.98 1886.77 3347.32 1893.86 3350.09 1901.61C3352.86 1909.36 3353.99 1917.6 3353.42 1925.81L3301.52 2810.16C3300.3 2827.33 3292.68 2843.4 3280.17 2855.22C3267.67 2867.03 3251.18 2873.72 3233.98 2873.97Z" fill="#90CAF9"/>
<path opacity="0.1" d="M3027.7 783.432H2756.98C2754.04 783.46 2751.13 782.88 2748.42 781.727C2745.71 780.574 2743.27 778.873 2741.26 776.731C2739.24 774.59 2737.69 772.054 2736.7 769.283C2735.71 766.513 2735.3 763.567 2735.51 760.632C2735.94 754.479 2738.66 748.711 2743.14 744.474C2747.63 740.236 2753.54 737.838 2759.71 737.755H3030.34C3033.32 737.682 3036.28 738.232 3039.02 739.371C3041.77 740.509 3044.25 742.211 3046.31 744.366C3048.36 746.52 3049.94 749.081 3050.94 751.883C3051.94 754.684 3052.35 757.665 3052.13 760.632C3051.7 766.819 3048.94 772.611 3044.4 776.842C3039.87 781.072 3033.9 783.427 3027.7 783.432Z" fill="#90CAF9"/>
<path opacity="0.1" d="M3135.39 1636.95C3302.09 1475.07 3313.47 1216.4 3160.81 1059.2C3008.15 901.993 2749.26 905.785 2582.56 1067.67C2415.86 1229.55 2404.48 1488.22 2557.14 1645.42C2709.8 1802.63 2968.69 1798.84 3135.39 1636.95Z" fill="#90CAF9"/>
<path d="M2572.8 1622.97C2538.74 1586.7 2512.54 1543.79 2495.84 1496.93C2479.14 1450.06 2472.31 1400.25 2475.77 1350.62H2483.55C2480.18 1399.18 2486.87 1447.92 2503.2 1493.78C2519.54 1539.64 2545.16 1581.63 2578.48 1617.13L2572.8 1622.97Z" fill="#90CAF9"/>
<path d="M3242.15 1353.96L3234.37 1353.49C3236.49 1319.21 3233.88 1284.81 3226.59 1251.24L3234.37 1249.53C3241.81 1283.81 3244.43 1318.96 3242.15 1353.96Z" fill="#90CAF9"/>
<path d="M3204.02 1183.54C3184.98 1141.29 3157.73 1103.24 3123.87 1071.6C3090.01 1039.95 3050.21 1015.35 3006.76 999.202L3009.49 991.888C3053.92 1008.36 3094.63 1033.52 3129.25 1065.89C3163.86 1098.26 3191.69 1137.2 3211.1 1180.43L3204.02 1183.54Z" fill="#90CAF9"/>
<path d="M3099.83 1600.34C3245.11 1459.26 3255.04 1233.85 3122.02 1096.87C2989 959.895 2763.4 963.215 2618.12 1104.29C2472.85 1245.36 2462.92 1470.77 2595.94 1607.75C2728.96 1744.73 2954.56 1741.41 3099.83 1600.34Z" fill="#90CAF9"/>
<path d="M2819.39 1400.64C2836.51 1396.83 2844.53 1382.2 2848.18 1365.55C2848.57 1363.76 2848.88 1362.05 2849.19 1360.34V1358.78C2850.13 1351.84 2850.65 1344.85 2850.75 1337.85C2834.18 1336.21 2818.79 1328.53 2807.51 1316.27C2796.23 1304.02 2789.85 1288.05 2789.59 1271.39C2788.73 1238.37 2796.05 1205.65 2810.91 1176.15C2807.09 1176.65 2803.46 1178.15 2800.4 1180.51C2800.11 1180.73 2799.77 1180.89 2799.41 1180.97C2799.04 1181.05 2798.67 1181.05 2798.3 1180.98C2797.63 1180.86 2797.02 1180.5 2796.59 1179.96C2796.18 1179.38 2796 1178.66 2796.11 1177.95C2796.21 1177.24 2796.58 1176.6 2797.14 1176.15C2801.98 1172.49 2807.88 1170.53 2813.94 1170.55C2815.11 1168.68 2816.2 1166.74 2817.37 1164.95C2812.39 1164.95 2807.56 1164.95 2802.89 1164.95C2808.03 1129 2877.21 1098.8 2924.36 1126.04C2945.37 1130.24 2980.08 1160.28 2980.08 1160.28C2980.77 1179.41 2980.23 1198.56 2978.44 1217.63C2975.33 1250.15 2967.63 1288.36 2948.87 1309.68C2953.54 1298.77 2955.26 1286.83 2953.85 1275.05C2949.36 1279.5 2943.78 1282.69 2937.67 1284.31C2935.45 1289.08 2932.85 1293.66 2929.89 1298.01C2922.57 1331.39 2917.36 1375.82 2928.49 1401.42C2938.52 1402.04 2948.25 1402.98 2957.51 1403.99L2959.77 1404.38C2965.88 1400.79 2971.75 1396.81 2977.35 1392.47C3047.39 1338 2973.07 1274.04 2990.58 1215.45C3008.09 1156.85 2993.3 1134.6 2945.45 1132.73C2965.29 1101.06 2839.23 1050.48 2783.83 1148.76C2733.64 1237.86 2717.46 1282.37 2735.51 1352.01C2742.29 1374.77 2757.67 1394 2778.38 1405.62C2781.91 1404.66 2785.5 1403.93 2789.12 1403.44C2799 1402.51 2809.28 1401.42 2819.39 1400.64Z" fill="#263238"/>
<path d="M2710.53 1537.6C2707.67 1532.55 2705.07 1527.36 2702.74 1522.04C2697.45 1537.6 2692.24 1553.17 2687.18 1568.73C2682.36 1582.74 2677.77 1596.74 2672.94 1610.13L2665.71 1629.04L2662.59 1636.82C2661.5 1638.92 2662.59 1637.67 2662.59 1638.3C2659.28 1642.16 2655.6 1645.7 2651.62 1648.88C2650.77 1649.73 2649.68 1650.51 2648.74 1651.29C2670.27 1665.81 2693.44 1677.75 2717.76 1686.85C2718.31 1651.29 2722.66 1614.33 2727.33 1604.45C2699.32 1584.99 2703.52 1564.06 2710.53 1537.6Z" fill="#FFC3BD"/>
<path d="M2737.76 1432.63L2735.82 1435.35C2736.44 1434.42 2737.14 1433.56 2737.84 1432.71L2737.76 1432.63Z" fill="#263238"/>
<path d="M2719.79 1484.76C2719.67 1467.63 2724.87 1450.89 2734.65 1436.83C2719.73 1460.3 2707.47 1485.35 2698.08 1511.53C2698.08 1511.53 2699.48 1515.65 2702.44 1522.11C2704.76 1527.43 2707.36 1532.62 2710.22 1537.67C2715.77 1520.55 2718.99 1502.75 2719.79 1484.76Z" fill="#263238"/>
<path d="M2991.05 1597.67C2981.82 1584.12 2973.63 1569.89 2966.54 1555.11C2964.2 1556.35 2961.79 1557.6 2959.3 1558.69C2935.96 1534.02 2916.03 1514.1 2916.03 1514.1C2886.93 1453.41 2904.91 1418.86 2960.08 1404.77C2968.64 1406.53 2976.81 1409.83 2984.2 1414.5C2976.92 1409.38 2968.56 1406.03 2959.77 1404.69L2957.51 1404.3C2948.25 1403.29 2938.52 1402.36 2928.48 1401.74C2930.66 1407.42 2880.71 1479.55 2849.35 1490.99C2836.51 1458.62 2800.48 1456.44 2800.48 1456.44C2800.48 1456.44 2766.87 1449.51 2756.44 1470.68C2763.29 1426.95 2805.38 1403.92 2819.39 1400.65C2809.27 1401.5 2799 1402.59 2789.12 1403.84C2785.5 1404.32 2781.91 1405.05 2778.38 1406.02C2762.37 1410.41 2748.17 1419.78 2737.84 1432.78C2737.14 1433.64 2736.44 1434.5 2735.82 1435.43L2734.65 1436.91C2724.87 1450.97 2719.68 1467.71 2719.79 1484.84C2719.08 1502.79 2715.97 1520.56 2710.53 1537.68C2703.53 1563.82 2699.32 1585.07 2726.79 1604.52C2722.12 1614.4 2717.77 1651.21 2717.22 1686.92C2755.89 1701.26 2796.82 1708.54 2838.07 1708.4C2890.87 1708.32 2943.05 1696.88 2991.05 1674.86C2989.71 1645.9 2989.94 1616.88 2991.75 1587.95C2991.51 1591.06 2991.2 1594.48 2991.05 1597.67Z" fill="#263238"/>
<path d="M2800.48 1456.44C2800.48 1456.44 2836.51 1458.62 2849.35 1490.99C2880.47 1479.16 2930.66 1407.42 2928.48 1401.74C2928.48 1401.74 2857.59 1436.13 2800.48 1456.44Z" fill="white"/>
<path d="M2819.55 1400.65C2805.54 1403.99 2763.44 1427.03 2756.6 1470.68C2767.02 1449.51 2800.64 1456.44 2800.64 1456.44C2789.74 1415.51 2819.55 1400.65 2819.55 1400.65Z" fill="white"/>
<path d="M2929.89 1298.33C2923.12 1308.14 2914.57 1316.59 2904.67 1323.23C2900.51 1326.22 2896.08 1328.83 2891.45 1331.01C2881.25 1347.37 2866.05 1360 2848.1 1367.04V1365.71C2844.45 1382.37 2836.43 1396.84 2819.31 1400.81C2819.31 1400.81 2789.51 1415.75 2800.25 1456.68C2857.44 1436.37 2928.25 1402.21 2928.25 1402.21C2917.36 1376.22 2922.57 1331.71 2929.89 1298.33Z" fill="#FFC3BD"/>
<path d="M2848.33 1365.47C2848.72 1363.68 2849.03 1361.97 2849.35 1360.26C2849.03 1361.74 2848.72 1363.68 2848.33 1365.47Z" fill="#263238"/>
<path opacity="0.2" d="M2848.33 1365.47C2848.72 1363.68 2849.03 1361.97 2849.35 1360.26C2849.03 1361.74 2848.72 1363.68 2848.33 1365.47Z" fill="black"/>
<path d="M2851.13 1337.78C2851.03 1344.78 2850.51 1351.77 2849.58 1358.71C2850.55 1351.77 2851.07 1344.78 2851.13 1337.78Z" fill="#263238"/>
<path opacity="0.2" d="M2851.13 1337.78C2851.03 1344.78 2850.51 1351.77 2849.58 1358.71C2850.55 1351.77 2851.07 1344.78 2851.13 1337.78Z" fill="black"/>
<path d="M2891.44 1330.61C2878.91 1336.62 2864.96 1339.04 2851.13 1337.62C2851.07 1344.62 2850.55 1351.61 2849.58 1358.55V1360.1C2849.58 1361.82 2848.96 1363.53 2848.57 1365.32V1366.64C2866.34 1359.52 2881.37 1346.9 2891.44 1330.61Z" fill="#FFC3BD"/>
<path opacity="0.2" d="M2891.44 1330.61C2878.91 1336.62 2864.96 1339.04 2851.13 1337.62C2851.07 1344.62 2850.55 1351.61 2849.58 1358.55V1360.1C2849.58 1361.82 2848.96 1363.53 2848.57 1365.32V1366.64C2866.34 1359.52 2881.37 1346.9 2891.44 1330.61Z" fill="black"/>
<path d="M2891.45 1330.61C2896.08 1328.43 2900.51 1325.83 2904.67 1322.83C2914.57 1316.19 2923.12 1307.74 2929.89 1297.93C2932.85 1293.59 2935.45 1289 2937.67 1284.24C2936.19 1284.24 2934.71 1285.01 2933.31 1285.17C2920.32 1286.34 2916.66 1271.71 2922.57 1258.64C2924.57 1254.21 2927.19 1250.1 2930.35 1246.42C2926.96 1235.31 2927.79 1223.34 2932.69 1212.8C2920.86 1188.53 2908.33 1166.11 2907.16 1149.85C2878.05 1158.85 2847.83 1163.8 2817.37 1164.56C2816.2 1166.35 2815.11 1168.29 2813.94 1170.16C2816.58 1170.15 2819.21 1170.54 2821.73 1171.33C2822.05 1171.45 2822.35 1171.63 2822.61 1171.87C2822.87 1172.11 2823.07 1172.4 2823.22 1172.72C2823.36 1173.03 2823.44 1173.38 2823.45 1173.73C2823.46 1174.08 2823.41 1174.43 2823.28 1174.75C2823.04 1175.42 2822.54 1175.96 2821.9 1176.26C2821.26 1176.57 2820.53 1176.61 2819.86 1176.39C2817.06 1175.54 2814.11 1175.33 2811.22 1175.76C2796.57 1205.29 2789.43 1237.98 2790.44 1270.93C2790.71 1287.58 2797.08 1303.56 2808.36 1315.81C2819.64 1328.06 2835.03 1335.74 2851.61 1337.38C2865.25 1338.79 2879.03 1336.45 2891.45 1330.61ZM2874.09 1177.79C2878.33 1178.62 2882.3 1180.47 2885.67 1183.18C2889.03 1185.9 2891.68 1189.38 2893.39 1193.35C2893.69 1194 2893.73 1194.75 2893.5 1195.43C2893.27 1196.11 2892.78 1196.67 2892.15 1197.01C2891.5 1197.27 2890.77 1197.27 2890.12 1197.01C2889.77 1196.91 2889.45 1196.73 2889.18 1196.49C2888.91 1196.25 2888.7 1195.94 2888.57 1195.61C2887.15 1192.46 2885 1189.71 2882.29 1187.58C2879.58 1185.46 2876.39 1184.02 2873 1183.39C2872.3 1183.27 2871.67 1182.9 2871.24 1182.33C2870.8 1181.77 2870.6 1181.06 2870.67 1180.35C2870.7 1179.96 2870.82 1179.57 2871.02 1179.22C2871.22 1178.88 2871.49 1178.58 2871.82 1178.35C2872.14 1178.12 2872.52 1177.96 2872.91 1177.89C2873.3 1177.82 2873.71 1177.84 2874.09 1177.94V1177.79ZM2871.37 1216.23C2872.67 1217.2 2873.63 1218.56 2874.12 1220.11C2874.61 1221.66 2874.6 1223.32 2874.09 1224.86C2873.24 1229.38 2870.13 1232.65 2867.17 1231.95C2864.21 1231.25 2862.5 1227.28 2863.36 1222.76C2863.78 1220.48 2864.96 1218.4 2866.7 1216.85C2864.28 1215.57 2862.38 1213.47 2861.33 1210.94L2871.37 1216.23ZM2807.56 1212.96C2807.98 1210.71 2809.13 1208.66 2810.83 1207.12C2808.45 1205.78 2806.58 1203.67 2805.54 1201.13L2815.73 1206.34C2816.99 1207.36 2817.92 1208.71 2818.4 1210.25C2818.89 1211.79 2818.91 1213.43 2818.46 1214.98C2817.52 1219.5 2814.49 1222.76 2811.53 1222.14C2808.57 1221.52 2806.71 1217.63 2807.56 1213.11V1212.96ZM2825.62 1250.78C2822.73 1250.95 2819.84 1250.49 2817.15 1249.42C2814.47 1248.36 2812.04 1246.73 2810.05 1244.63C2818.38 1237.08 2825.66 1228.44 2831.69 1218.95L2825.62 1250.78ZM2840.63 1271.63C2840.29 1271.54 2839.99 1271.32 2839.8 1271.01C2839.62 1270.71 2839.55 1270.35 2839.62 1270C2839.7 1269.66 2839.9 1269.36 2840.19 1269.17C2840.48 1268.98 2840.84 1268.92 2841.18 1268.98C2846.79 1270.19 2852.62 1270.06 2858.17 1268.6C2863.73 1267.14 2868.86 1264.39 2873.16 1260.58C2873.28 1260.45 2873.43 1260.35 2873.59 1260.28C2873.75 1260.21 2873.93 1260.17 2874.11 1260.17C2874.28 1260.16 2874.46 1260.19 2874.62 1260.26C2874.79 1260.32 2874.94 1260.42 2875.07 1260.54C2875.19 1260.66 2875.3 1260.81 2875.37 1260.97C2875.44 1261.14 2875.48 1261.31 2875.48 1261.49C2875.48 1261.66 2875.45 1261.84 2875.39 1262C2875.32 1262.17 2875.23 1262.32 2875.11 1262.45C2867.87 1269.11 2858.32 1272.68 2848.49 1272.41C2845.86 1272.39 2843.24 1272.18 2840.63 1271.79V1271.63Z" fill="#FFC3BD"/>
<path d="M2943.19 1237.24C2939.92 1229.46 2936.18 1221.13 2932.37 1213.35C2927.47 1223.88 2926.64 1235.86 2930.04 1246.97C2933.49 1242.62 2938.02 1239.27 2943.19 1237.24Z" fill="#263238"/>
<path d="M2866.54 1217.09C2864.8 1218.64 2863.63 1220.72 2863.2 1223C2862.34 1227.52 2864.05 1231.64 2867.01 1232.19C2869.97 1232.73 2873.08 1229.62 2873.94 1225.1C2874.44 1223.56 2874.45 1221.9 2873.96 1220.35C2873.47 1218.8 2872.51 1217.44 2871.21 1216.47C2870.55 1216.97 2869.78 1217.29 2868.96 1217.4C2868.14 1217.51 2867.31 1217.4 2866.54 1217.09Z" fill="#263238"/>
<path d="M2818.69 1215.22C2819.14 1213.67 2819.12 1212.02 2818.63 1210.49C2818.15 1208.95 2817.22 1207.59 2815.97 1206.58C2815.29 1207.07 2814.51 1207.4 2813.68 1207.52C2812.85 1207.64 2812.01 1207.56 2811.22 1207.28C2809.52 1208.81 2808.37 1210.86 2807.95 1213.11C2807.1 1217.63 2808.81 1221.75 2811.77 1222.37C2814.72 1223 2817.37 1219.73 2818.69 1215.22Z" fill="#263238"/>
<path d="M2815.57 1206.58L2805.38 1201.36C2806.42 1203.9 2808.29 1206.01 2810.67 1207.36C2811.49 1207.65 2812.37 1207.73 2813.22 1207.6C2814.08 1207.46 2814.89 1207.11 2815.57 1206.58Z" fill="#263238"/>
<path d="M2810.13 1245.02C2812.12 1247.12 2814.54 1248.76 2817.23 1249.82C2819.92 1250.88 2822.81 1251.34 2825.69 1251.17L2831.84 1219.34C2825.79 1228.84 2818.49 1237.48 2810.13 1245.02Z" fill="#ED847E"/>
<path d="M2874.95 1260.58C2874.69 1260.33 2874.34 1260.19 2873.97 1260.19C2873.61 1260.19 2873.26 1260.33 2873 1260.58C2868.72 1264.37 2863.61 1267.11 2858.09 1268.57C2852.56 1270.03 2846.77 1270.17 2841.18 1268.99C2840.84 1268.92 2840.48 1268.98 2840.19 1269.17C2839.9 1269.36 2839.69 1269.66 2839.62 1270C2839.55 1270.35 2839.61 1270.71 2839.8 1271.02C2839.99 1271.32 2840.29 1271.54 2840.63 1271.63C2843.2 1272.07 2845.8 1272.33 2848.41 1272.41C2858.24 1272.68 2867.79 1269.11 2875.02 1262.45C2875.24 1262.18 2875.36 1261.85 2875.34 1261.5C2875.33 1261.16 2875.19 1260.83 2874.95 1260.58Z" fill="#263238"/>
<path d="M2943.19 1237.24C2938.03 1239.27 2933.49 1242.62 2930.04 1246.97C2926.88 1250.65 2924.26 1254.76 2922.26 1259.18C2916.35 1272.26 2920 1286.89 2933 1285.72C2934.4 1285.72 2935.88 1285.1 2937.36 1284.78C2943.47 1283.16 2949.05 1279.97 2953.54 1275.52C2951.91 1262.34 2948.43 1249.45 2943.19 1237.24Z" fill="#FFC3BD"/>
<path d="M2908.64 1138.57C2909.11 1127.36 2915.49 1124.64 2924.2 1126.35C2877.05 1098.8 2807.87 1128.99 2802.74 1165.26C2807.4 1165.26 2812.23 1165.26 2817.21 1165.26C2847.67 1164.5 2877.89 1159.55 2907.01 1150.55C2906.55 1146.48 2907.12 1142.36 2908.64 1138.57Z" fill="#263238"/>
<path d="M2908.64 1138.57C2907.17 1142.28 2906.6 1146.28 2907.01 1150.25C2908.17 1166.74 2920.7 1189.15 2932.53 1213.2C2936.34 1220.98 2940.31 1228.76 2943.34 1237.09C2948.58 1249.3 2952.06 1262.18 2953.69 1275.37C2955.1 1287.15 2953.38 1299.09 2948.71 1310C2967.47 1288.68 2975.17 1250.47 2978.28 1217.94C2980.07 1198.88 2980.61 1179.73 2979.92 1160.59C2979.92 1160.59 2945.21 1130.56 2924.2 1126.36C2915.49 1124.64 2909.11 1127.37 2908.64 1138.57Z" fill="#263238"/>
<path d="M2873.16 1183.32C2876.54 1183.94 2879.73 1185.38 2882.44 1187.51C2885.15 1189.64 2887.31 1192.39 2888.72 1195.53C2888.85 1195.87 2889.06 1196.17 2889.33 1196.42C2889.6 1196.66 2889.93 1196.84 2890.28 1196.93C2890.92 1197.2 2891.65 1197.2 2892.3 1196.93C2892.94 1196.6 2893.42 1196.03 2893.65 1195.35C2893.88 1194.67 2893.85 1193.93 2893.54 1193.28C2891.83 1189.31 2889.18 1185.82 2885.82 1183.11C2882.46 1180.4 2878.48 1178.55 2874.25 1177.71C2873.53 1177.62 2872.82 1177.82 2872.25 1178.26C2871.68 1178.69 2871.31 1179.34 2871.21 1180.05C2871.06 1180.74 2871.18 1181.46 2871.54 1182.06C2871.9 1182.67 2872.48 1183.12 2873.16 1183.32Z" fill="#263238"/>
<path d="M2819.39 1176.77C2820.06 1177 2820.79 1176.96 2821.43 1176.65C2822.07 1176.35 2822.57 1175.8 2822.81 1175.14C2822.94 1174.81 2822.99 1174.47 2822.98 1174.12C2822.97 1173.77 2822.89 1173.42 2822.75 1173.1C2822.6 1172.79 2822.4 1172.5 2822.14 1172.26C2821.88 1172.02 2821.58 1171.84 2821.26 1171.72C2818.74 1170.93 2816.11 1170.54 2813.47 1170.55C2807.41 1170.53 2801.5 1172.5 2796.67 1176.15C2796.11 1176.6 2795.74 1177.24 2795.63 1177.95C2795.53 1178.66 2795.71 1179.38 2796.12 1179.97C2796.55 1180.5 2797.16 1180.86 2797.83 1180.98C2798.2 1181.06 2798.57 1181.05 2798.94 1180.97C2799.3 1180.89 2799.64 1180.74 2799.93 1180.51C2802.99 1178.16 2806.61 1176.65 2810.44 1176.15C2813.43 1175.67 2816.49 1175.88 2819.39 1176.77Z" fill="#263238"/>
<path d="M2866.54 1217.09C2867.31 1217.4 2868.14 1217.51 2868.96 1217.4C2869.78 1217.29 2870.56 1216.97 2871.21 1216.47L2861.02 1211.25C2862.12 1213.79 2864.07 1215.85 2866.54 1217.09Z" fill="#263238"/>
<path d="M2991.05 1597.67C2991.05 1594.48 2991.51 1591.05 2991.67 1587.78C2987.31 1580.86 2982.88 1573.86 2978.29 1566.93L2969.34 1553.62L2966.54 1555.1C2973.63 1569.88 2981.82 1584.11 2991.05 1597.67Z" fill="#263238"/>
<path opacity="0.2" d="M2991.05 1597.67C2991.05 1594.48 2991.51 1591.05 2991.67 1587.78C2987.31 1580.86 2982.88 1573.86 2978.29 1566.93L2969.34 1553.62L2966.54 1555.1C2973.63 1569.88 2981.82 1584.11 2991.05 1597.67Z" fill="black"/>
<path d="M3014.16 1662.1V1663.34C3045.19 1646.57 3073.78 1625.63 3099.13 1601.09C3094.88 1588.54 3089.89 1576.25 3084.19 1564.29C3076.64 1548.01 3068.25 1532.14 3059.06 1516.74C3051.28 1503.36 3043.03 1490.6 3034.55 1477.83C3026.76 1494.1 3004.67 1533.24 2969.57 1553.39L2978.52 1566.7C2983.11 1573.62 2987.55 1580.63 2991.9 1587.55C2995.72 1593.62 2999.69 1599.77 3002.88 1605.84C3008.87 1616.34 3014.47 1626.93 3018.44 1636.96L3017.66 1642.25C3016.73 1648.71 3015.56 1655.33 3014.16 1662.1Z" fill="#FFC3BD"/>
<path d="M2916.03 1514.1C2916.03 1514.1 2935.95 1534.02 2959.3 1558.69C2961.79 1557.6 2964.2 1556.35 2966.54 1555.11L2969.34 1553.63C3004.43 1533.47 3026.37 1494.33 3034.31 1478.07C3036.57 1473.48 3037.73 1470.68 3037.73 1470.68C3037.73 1470.68 3015.17 1433.33 2984.2 1414.5C2976.81 1409.83 2968.64 1406.53 2960.08 1404.77C2904.91 1418.85 2886.93 1453.4 2916.03 1514.1Z" fill="#263238"/>
<path d="M3289.15 733.548H3398.79C3401.79 733.497 3404.65 732.327 3406.83 730.267C3409 728.208 3410.33 725.408 3410.54 722.421C3410.64 720.997 3410.44 719.569 3409.96 718.226C3409.48 716.883 3408.72 715.655 3407.74 714.617C3406.76 713.579 3405.58 712.755 3404.27 712.197C3402.95 711.638 3401.54 711.357 3400.11 711.371H3290.4C3287.41 711.42 3284.56 712.58 3282.38 714.623C3280.21 716.667 3278.88 719.447 3278.65 722.421C3278.54 723.857 3278.73 725.3 3279.21 726.658C3279.69 728.015 3280.45 729.258 3281.44 730.305C3282.43 731.352 3283.63 732.182 3284.95 732.74C3286.28 733.299 3287.71 733.574 3289.15 733.548Z" fill="#90CAF9"/>
<path d="M3286.89 771.754H3396.53C3399.53 771.703 3402.4 770.533 3404.57 768.473C3406.75 766.413 3408.07 763.614 3408.28 760.626C3408.39 759.197 3408.2 757.76 3407.72 756.408C3407.25 755.056 3406.5 753.817 3405.52 752.771C3404.54 751.725 3403.35 750.894 3402.03 750.331C3400.71 749.767 3399.29 749.484 3397.86 749.499H3288.22C3285.21 749.53 3282.32 750.692 3280.13 752.754C3277.94 754.815 3276.6 757.626 3276.39 760.626C3276.3 762.057 3276.51 763.491 3277 764.838C3277.49 766.185 3278.25 767.418 3279.24 768.46C3280.22 769.503 3281.41 770.333 3282.73 770.899C3284.04 771.465 3285.46 771.756 3286.89 771.754Z" fill="#90CAF9"/>
<path d="M2399.9 771.754H2509.54C2512.54 771.705 2515.41 770.537 2517.6 768.479C2519.79 766.421 2521.13 763.621 2521.36 760.626C2521.46 759.193 2521.26 757.755 2520.77 756.402C2520.29 755.05 2519.53 753.812 2518.54 752.768C2517.56 751.723 2516.36 750.893 2515.04 750.331C2513.72 749.768 2512.29 749.485 2510.86 749.499H2401.22C2398.22 749.532 2395.34 750.696 2393.16 752.759C2390.98 754.823 2389.66 757.632 2389.47 760.626C2389.37 762.053 2389.57 763.485 2390.05 764.832C2390.53 766.179 2391.29 767.413 2392.26 768.456C2393.24 769.5 2394.42 770.331 2395.74 770.899C2397.05 771.466 2398.47 771.757 2399.9 771.754Z" fill="#90CAF9"/>
<path d="M3284.64 809.881H3394.51C3397.52 809.85 3400.41 808.688 3402.6 806.627C3404.79 804.565 3406.12 801.755 3406.34 798.754C3406.42 797.323 3406.22 795.89 3405.73 794.543C3405.24 793.195 3404.48 791.962 3403.49 790.92C3402.51 789.878 3401.32 789.048 3400 788.481C3398.69 787.915 3397.27 787.624 3395.83 787.627H3285.96C3282.96 787.676 3280.08 788.844 3277.89 790.901C3275.71 792.959 3274.37 795.76 3274.13 798.754C3274.04 800.188 3274.24 801.626 3274.72 802.978C3275.21 804.33 3275.97 805.568 3276.96 806.613C3277.94 807.657 3279.13 808.487 3280.46 809.05C3281.78 809.612 3283.2 809.895 3284.64 809.881Z" fill="#90CAF9"/>
<path d="M3140.52 2205.94H2477.24C2464.85 2206.06 2452.58 2203.61 2441.18 2198.75C2429.79 2193.89 2419.52 2186.73 2411.03 2177.71C2402.54 2168.69 2396 2158.01 2391.84 2146.35C2387.67 2134.68 2385.96 2122.28 2386.82 2109.92C2388.69 2084.1 2400.17 2059.91 2419 2042.13C2437.82 2024.35 2462.63 2014.28 2488.52 2013.9H3151.81C3164.19 2013.78 3176.47 2016.23 3187.87 2021.09C3199.26 2025.95 3209.53 2033.11 3218.02 2042.13C3226.51 2051.15 3233.05 2061.83 3237.21 2073.5C3241.38 2085.16 3243.09 2097.56 3242.23 2109.92C3240.36 2135.75 3228.88 2159.94 3210.05 2177.71C3191.22 2195.49 3166.42 2205.56 3140.52 2205.94Z" fill="white"/>
<path d="M3125.43 2464.05H2462.07C2449.68 2464.14 2437.41 2461.68 2426.02 2456.81C2414.63 2451.93 2404.37 2444.76 2395.88 2435.74C2387.39 2426.72 2380.86 2416.04 2376.69 2404.37C2372.52 2392.71 2370.8 2380.31 2371.65 2367.95C2373.57 2342.17 2385.08 2318.03 2403.9 2300.31C2422.72 2282.58 2447.5 2272.54 2473.35 2272.16H3136.71C3149.1 2272.05 3161.38 2274.49 3172.77 2279.35C3184.17 2284.21 3194.44 2291.38 3202.93 2300.39C3211.42 2309.41 3217.95 2320.09 3222.12 2331.76C3226.29 2343.42 3227.99 2355.83 3227.13 2368.18C3225.21 2393.98 3213.71 2418.12 3194.89 2435.86C3176.07 2453.6 3151.29 2463.66 3125.43 2464.05Z" fill="white"/>
<path d="M3110.26 2722.08H2446.97C2434.59 2722.19 2422.31 2719.75 2410.91 2714.89C2399.52 2710.03 2389.25 2702.86 2380.76 2693.85C2372.27 2684.83 2365.73 2674.15 2361.57 2662.48C2357.4 2650.82 2355.69 2638.41 2356.55 2626.06C2358.42 2600.22 2369.9 2576.02 2388.72 2558.24C2407.55 2540.45 2432.36 2530.36 2458.26 2529.96H3121.54C3133.93 2529.85 3146.21 2532.31 3157.6 2537.18C3169 2542.05 3179.27 2549.22 3187.76 2558.24C3196.25 2567.27 3202.78 2577.95 3206.95 2589.62C3211.11 2601.29 3212.82 2613.7 3211.96 2626.06C3210.09 2651.88 3198.61 2676.07 3179.78 2693.85C3160.96 2711.63 3136.15 2721.7 3110.26 2722.08Z" fill="white"/>
<path d="M2528.77 2144.33C2548.97 2124.72 2550.36 2093.4 2531.89 2074.38C2513.42 2055.36 2482.07 2055.84 2461.88 2075.45C2441.68 2095.06 2440.29 2126.37 2458.76 2145.4C2477.23 2164.42 2508.58 2163.94 2528.77 2144.33Z" fill="#90CAF9"/>
<path d="M2489.46 2321.19L2496 2345.85C2496.37 2347.21 2497.19 2348.4 2498.32 2349.25C2499.44 2350.09 2500.82 2350.54 2502.22 2350.52H2528.13C2529.6 2350.54 2531.01 2351.03 2532.17 2351.92C2533.32 2352.82 2534.15 2354.07 2534.53 2355.48C2534.91 2356.89 2534.82 2358.39 2534.27 2359.74C2533.72 2361.09 2532.74 2362.23 2531.48 2362.97L2509.61 2378.54C2508.37 2379.36 2507.42 2380.56 2506.89 2381.95C2506.36 2383.35 2506.28 2384.87 2506.66 2386.32L2513.19 2410.98C2513.58 2412.4 2513.52 2413.9 2513.03 2415.28C2512.54 2416.67 2511.63 2417.86 2510.43 2418.71C2509.23 2419.56 2507.8 2420.02 2506.33 2420.03C2504.87 2420.04 2503.43 2419.6 2502.22 2418.76L2482.15 2403.2C2481.01 2402.4 2479.65 2401.97 2478.26 2401.97C2476.86 2401.97 2475.5 2402.4 2474.36 2403.2L2452.5 2418.76C2451.35 2419.68 2449.93 2420.18 2448.47 2420.19C2447.01 2420.2 2445.58 2419.71 2444.42 2418.82C2443.27 2417.92 2442.44 2416.66 2442.09 2415.24C2441.73 2413.82 2441.86 2412.32 2442.46 2410.98L2451.88 2386.32C2452.45 2384.98 2452.57 2383.49 2452.2 2382.08C2451.84 2380.67 2451.01 2379.42 2449.85 2378.54L2429.78 2362.97C2428.67 2362.02 2427.89 2360.75 2427.53 2359.34C2427.17 2357.93 2427.26 2356.44 2427.78 2355.08C2428.3 2353.72 2429.22 2352.55 2430.43 2351.73C2431.64 2350.92 2433.07 2350.5 2434.52 2350.52H2460.44C2461.91 2350.52 2463.34 2350.08 2464.55 2349.24C2465.76 2348.41 2466.68 2347.23 2467.21 2345.85L2476.31 2321.19C2476.72 2319.76 2477.59 2318.51 2478.77 2317.62C2479.96 2316.73 2481.4 2316.25 2482.89 2316.25C2484.37 2316.25 2485.81 2316.73 2487 2317.62C2488.18 2318.51 2489.05 2319.76 2489.46 2321.19Z" fill="#90CAF9"/>
<path d="M2507.44 2599.91L2503.31 2669.17C2503.12 2672.07 2501.83 2674.79 2499.7 2676.78C2497.58 2678.78 2494.78 2679.89 2491.87 2679.9H2431.26C2429.92 2679.83 2428.6 2679.48 2427.4 2678.89C2426.2 2678.29 2425.12 2677.46 2424.25 2676.45C2423.37 2675.43 2422.7 2674.25 2422.29 2672.97C2421.88 2671.69 2421.72 2670.35 2421.84 2669.01L2426.9 2582.79C2427.08 2579.89 2428.35 2577.16 2430.45 2575.15C2432.56 2573.14 2435.35 2572.01 2438.26 2571.98H2481.84L2507.44 2599.91Z" fill="#90CAF9"/>
<path d="M2481.45 2572.14L2507.67 2599.92H2490.63C2489.24 2599.93 2487.87 2599.66 2486.59 2599.12C2485.32 2598.57 2484.17 2597.77 2483.22 2596.76C2482.27 2595.75 2481.54 2594.56 2481.07 2593.25C2480.61 2591.95 2480.42 2590.56 2480.51 2589.18L2481.45 2572.14ZM2474.52 2553.07L2473.43 2571.67L2472.42 2588.71C2472.29 2591.19 2472.65 2593.68 2473.49 2596.02C2474.33 2598.36 2475.64 2600.5 2477.32 2602.33C2479.03 2604.14 2481.1 2605.57 2483.39 2606.55C2485.68 2607.53 2488.14 2608.02 2490.63 2608.01H2526.27L2513.51 2594.39L2487.36 2566.61L2474.52 2553.07Z" fill="white"/>
<path opacity="0.2" d="M3118.27 2099.73H2621.9C2619.89 2099.74 2617.9 2099.34 2616.05 2098.55C2614.2 2097.76 2612.54 2096.6 2611.16 2095.14C2609.78 2093.68 2608.71 2091.96 2608.03 2090.07C2607.35 2088.18 2607.06 2086.17 2607.19 2084.16C2607.52 2079.97 2609.4 2076.05 2612.47 2073.17C2615.53 2070.3 2619.56 2068.66 2623.77 2068.6H3120.06C3122.07 2068.58 3124.06 2068.98 3125.91 2069.77C3127.76 2070.56 3129.42 2071.72 3130.8 2073.18C3132.18 2074.64 3133.24 2076.37 3133.93 2078.26C3134.61 2080.15 3134.9 2082.16 3134.77 2084.16C3134.46 2088.35 3132.59 2092.27 3129.54 2095.15C3126.49 2098.03 3122.47 2099.66 3118.27 2099.73Z" fill="#90CAF9"/>
<path opacity="0.2" d="M3024.19 2151.4H2618.94C2616.93 2151.41 2614.94 2151.01 2613.08 2150.23C2611.23 2149.44 2609.56 2148.28 2608.18 2146.82C2606.79 2145.36 2605.72 2143.64 2605.03 2141.75C2604.34 2139.86 2604.04 2137.85 2604.16 2135.84C2604.48 2131.64 2606.37 2127.73 2609.43 2124.85C2612.5 2121.97 2616.53 2120.34 2620.73 2120.27H3025.98C3028 2120.25 3030 2120.64 3031.86 2121.42C3033.71 2122.21 3035.39 2123.36 3036.78 2124.83C3038.16 2126.29 3039.23 2128.02 3039.92 2129.91C3040.61 2131.81 3040.9 2133.83 3040.77 2135.84C3040.42 2140.02 3038.54 2143.93 3035.47 2146.81C3032.41 2149.68 3028.39 2151.32 3024.19 2151.4Z" fill="#90CAF9"/>
<path opacity="0.2" d="M3101.93 2378.14H2964.98C2960.77 2378.19 2956.73 2379.82 2953.66 2382.7C2950.59 2385.58 2948.72 2389.51 2948.4 2393.71C2948.28 2395.71 2948.56 2397.72 2949.24 2399.61C2949.93 2401.5 2950.99 2403.23 2952.37 2404.69C2953.75 2406.15 2955.42 2407.31 2957.26 2408.1C2959.11 2408.89 2961.1 2409.29 2963.11 2409.27H3100.06C3104.27 2409.22 3108.31 2407.6 3111.38 2404.72C3114.45 2401.83 3116.33 2397.91 3116.64 2393.71C3116.77 2391.7 3116.48 2389.69 3115.8 2387.8C3115.12 2385.91 3114.05 2384.19 3112.67 2382.73C3111.29 2381.27 3109.63 2380.11 3107.78 2379.32C3105.93 2378.53 3103.94 2378.13 3101.93 2378.14Z" fill="#90CAF9"/>
<path opacity="0.2" d="M2884.91 2378.15H2605.63C2601.42 2378.19 2597.38 2379.82 2594.32 2382.7C2591.25 2385.58 2589.37 2389.51 2589.06 2393.71C2588.92 2395.72 2589.2 2397.73 2589.87 2399.63C2590.55 2401.52 2591.62 2403.25 2593 2404.72C2594.38 2406.18 2596.05 2407.34 2597.9 2408.12C2599.76 2408.91 2601.75 2409.3 2603.77 2409.27H2883.12C2887.32 2409.21 2891.35 2407.58 2894.42 2404.7C2897.48 2401.82 2899.36 2397.9 2899.69 2393.71C2899.82 2391.7 2899.53 2389.68 2898.84 2387.79C2898.16 2385.89 2897.09 2384.16 2895.7 2382.7C2894.31 2381.24 2892.63 2380.08 2890.78 2379.29C2888.92 2378.51 2886.92 2378.12 2884.91 2378.15Z" fill="#90CAF9"/>
<path opacity="0.2" d="M3013.92 2326.63H2608.59C2604.38 2326.68 2600.34 2328.3 2597.27 2331.19C2594.2 2334.07 2592.33 2338 2592.02 2342.2C2591.89 2344.2 2592.17 2346.21 2592.86 2348.1C2593.54 2349.99 2594.6 2351.72 2595.98 2353.18C2597.36 2354.64 2599.03 2355.8 2600.88 2356.59C2602.72 2357.37 2604.71 2357.77 2606.72 2357.76H3011.98C3016.18 2357.69 3020.21 2356.06 3023.28 2353.18C3026.34 2350.31 3028.22 2346.39 3028.55 2342.2C3028.68 2340.2 3028.4 2338.19 3027.72 2336.31C3027.04 2334.43 3025.98 2332.7 3024.61 2331.24C3023.24 2329.78 3021.58 2328.62 3019.74 2327.83C3017.91 2327.04 3015.92 2326.63 3013.92 2326.63Z" fill="#90CAF9"/>
<path opacity="0.2" d="M3086.76 2636.18H2590.46C2586.26 2636.26 2582.24 2637.9 2579.18 2640.77C2576.12 2643.65 2574.23 2647.56 2573.89 2651.74C2573.76 2653.75 2574.05 2655.77 2574.74 2657.66C2575.42 2659.56 2576.49 2661.29 2577.88 2662.75C2579.27 2664.21 2580.95 2665.37 2582.8 2666.16C2584.66 2666.94 2586.66 2667.33 2588.67 2667.3H3084.97C3089.16 2667.24 3093.18 2665.6 3096.24 2662.72C3099.29 2659.84 3101.15 2655.93 3101.46 2651.74C3101.59 2649.74 3101.31 2647.73 3100.62 2645.84C3099.94 2643.95 3098.88 2642.22 3097.5 2640.76C3096.12 2639.3 3094.45 2638.14 3092.61 2637.35C3090.76 2636.56 3088.77 2636.16 3086.76 2636.18Z" fill="#90CAF9"/>
<path opacity="0.2" d="M2998.75 2584.58H2593.5C2589.29 2584.65 2585.26 2586.28 2582.2 2589.16C2579.13 2592.03 2577.25 2595.95 2576.92 2600.14C2576.8 2602.15 2577.08 2604.16 2577.76 2606.05C2578.45 2607.94 2579.51 2609.67 2580.89 2611.13C2582.27 2612.59 2583.94 2613.75 2585.78 2614.53C2587.63 2615.32 2589.62 2615.72 2591.63 2615.71H2996.96C3001.16 2615.64 3005.18 2614.01 3008.23 2611.13C3011.28 2608.25 3013.15 2604.33 3013.46 2600.14C3013.59 2598.14 3013.3 2596.13 3012.62 2594.24C3011.94 2592.35 3010.87 2590.62 3009.49 2589.16C3008.11 2587.7 3006.45 2586.54 3004.6 2585.75C3002.75 2584.97 3000.76 2584.57 2998.75 2584.58Z" fill="#90CAF9"/>
</g>
<defs>
<filter id="filter0_f_2108_574" x="1077.44" y="239.443" width="5261.11" height="4291.11" filterUnits="userSpaceOnUse" color-interpolation-filters="sRGB">
<feFlood flood-opacity="0" result="BackgroundImageFix"/>
<feBlend mode="normal" in="SourceGraphic" in2="BackgroundImageFix" result="shape"/>
<feGaussianBlur stdDeviation="284.278" result="effect1_foregroundBlur_2108_574"/>
</filter>
<linearGradient id="paint0_linear_2108_574" x1="3708" y1="808" x2="3708" y2="3962" gradientUnits="userSpaceOnUse">
<stop stop-color="#16B6F0" stop-opacity="0.36"/>
<stop offset="1" stop-color="#1653F0" stop-opacity="0.6"/>
</linearGradient>
<linearGradient id="paint1_linear_2108_574" x1="1049.5" y1="3665.68" x2="1049.5" y2="6441.82" gradientUnits="userSpaceOnUse">
<stop stop-color="#EAF0FF" stop-opacity="0.05"/>
<stop offset="1" stop-color="#EAF0FF"/>
</linearGradient>
<clipPath id="clip0_2108_574">
<rect width="5371" height="3529" fill="white"/>
</clipPath>
</defs>
</svg>
